<svg xmlns="http://www.w3.org/2000/svg" xmlns:xlink="http://www.w3.org/1999/xlink" width="628.162" height="357.578" viewBox="0 0 628.162 357.578">
  <defs>
    <clipPath id="clip-path">
      <rect id="Rectángulo_306637" data-name="Rectángulo 306637" width="327.647" height="289.576" fill="none"/>
    </clipPath>
  </defs>
  <g id="Grupo_1055257" data-name="Grupo 1055257" transform="translate(-177.998 -1823.85)">
    <g id="Grupo_950065" data-name="Grupo 950065" transform="translate(177.998 1823.85)">
      <rect id="Rectángulo_306636" data-name="Rectángulo 306636" width="627.6" height="357.578" transform="translate(0.562 0)" fill="#d1f0f2"/>
      <path id="Trazado_627513" data-name="Trazado 627513" d="M806.467,1823.85v129.611c-8.9.65-18.151-1.347-25.117-6.776-8.246-6.424-13.261-17.96-10.823-28.642-8.613,6.472-21.21,5.254-29.089-2.3-9.094-8.726-10.234-23.477-5.693-35.046a24.629,24.629,0,0,1-28.068-5.1c-6.605-6.9-8.778-17.452-6.39-26.76-12.065,12.3-33.091,12.5-45.333.365,2.052,8.225.266,17.425-5.371,23.721a22.549,22.549,0,0,1-25.776,5.429c-3.718,14.981-19.867,25.237-33.921,20.282-13.2-4.658-20.772-21.216-17.08-35.263-10.3,6.742-23.971,11.115-35.067,4.292-8.214-5.05-13.641-15.787-10.823-25.616-10.614,5.687-22.14,10.75-34.2,10.067-9.3-.528-18.4-4.448-24.382-12.124-1.558,11.562-7.8,22.164-17.22,28.3a35,35,0,0,1-34.452,1.78c2.7,12.883-3.793,27.39-15.485,32.373-11.723,4.989-25.889-.833-32.147-12.28-6.827,12.239-22.21,18.217-34.674,12.537-11.742-5.362-18.3-19.9-16.036-33.056-10.81,10.926-30.659,9.132-39.1-4.252-4.345,15.706-22.559,24.608-36.53,17.892,1.14,10.168-2.977,20.7-11.019,26.537-8.588,6.228-20.349,5.788-28.841-.3-.975,9.525-5.852,19.869-15.124,22.407a15.7,15.7,0,0,1-9.842-.65V1823.85Z" transform="translate(-178.305 -1823.85)" fill="#edf9f9"/>
      <g id="Grupo_950063" data-name="Grupo 950063" transform="translate(0 22.813)">
        <g id="Grupo_950062" data-name="Grupo 950062" clip-path="url(#clip-path)">
          <g id="Grupo_950061" data-name="Grupo 950061" transform="translate(-230.823 13.068)">
            <path id="Trazado_627514" data-name="Trazado 627514" d="M489.117,2065.667l-20.683-17.581-8.751-9.546-18.229-26.773-22.365-15.216L394.429,1960.3l-21.411-18.41-33.775-39.355,77.012,190.22,105.433,33.588Z" transform="translate(-4.121 -1887.521)" fill="#4f4c59"/>
            <path id="Trazado_627515" data-name="Trazado 627515" d="M444.336,2073.405l-18.259-28.521L385.544,1990.4l46.17,87.171Z" transform="translate(-20.473 -1918.552)" fill="#4f4c59"/>
            <path id="Trazado_627516" data-name="Trazado 627516" d="M419.1,1995.768l-24.009-37.239-56.353-57.668L383.879,1988Z" transform="translate(-3.943 -1886.929)" fill="#484554"/>
            <path id="Trazado_627517" data-name="Trazado 627517" d="M511.868,2131.67l-29.79-32.346-65.126-46.747,15.328,33.952,34.526,11.218Z" transform="translate(-31.566 -1940.51)" fill="#484554"/>
            <path id="Trazado_627518" data-name="Trazado 627518" d="M520.452,2110.815l-25.1-26.184-25.866-40.046-41.518-14.209,57.14,52.857Z" transform="translate(-35.456 -1932.669)" fill="#484554"/>
            <path id="Trazado_627519" data-name="Trazado 627519" d="M391.911,1963.817l-11.974-18.572-46.094-49.525,14.971,31.91,24.593,16.9Z" transform="translate(-2.214 -1885.113)" fill="#5f5b69"/>
            <path id="Trazado_627520" data-name="Trazado 627520" d="M370.318,2139.145l-549.172-14.526,31.428-12.039,25.023-6.77,32.969-4,120.075-63.2,42.427-23.153,21.156-37.513,25.17-39.925,31.836-56.493,31.563,53.392,32.427,60.943,22.047,34.552,15.91,57.7,57.695,17.709,21.308,12.577,17.514,4.5Z" transform="translate(178.853 -1880.099)" fill="#5f5b69"/>
            <path id="Trazado_627521" data-name="Trazado 627521" d="M228.131,2059.047s59.19-43.711,61.915-80.027l-20.479-43.128-10.267-9.907-19.6-46.663-8.587,6.543L205.472,1936.1l-24.741,40.749L166.2,2001.127l-8.918,19.756-87.2,56.124,155.366-20.475Z" transform="translate(90.937 -1879.322)" fill="#7d7885"/>
            <path id="Trazado_627522" data-name="Trazado 627522" d="M394.485,2007.8s3.795,28.02,14.4,52.04l-.016-27.866Z" transform="translate(-23.631 -1924.695)" fill="#5f5b69"/>
            <g id="Grupo_950059" data-name="Grupo 950059" transform="translate(382.288 105.236)">
              <path id="Trazado_627523" data-name="Trazado 627523" d="M412.643,2043.889a13.8,13.8,0,0,0-.459-1.852A8.812,8.812,0,0,0,412.643,2043.889Z" transform="translate(-412.163 -2042.016)" fill="#4f4c59"/>
              <path id="Trazado_627524" data-name="Trazado 627524" d="M419.849,2087.239l.9-16s-6.08-20.043-7.849-26.327c1.327,6.248,4.818,26.051,4.818,26.051l-1.2,17.792-2.158,13.755,4.234,13.507,13.983-11.625Z" transform="translate(-412.425 -2043.038)" fill="#4f4c59"/>
            </g>
            <path id="Trazado_627525" data-name="Trazado 627525" d="M294.329,2028.4l10.384-9.333,5.794-14.2,4.562-13.364-16.7,22.706-7.4,16.5Z" transform="translate(12.93 -1918.94)" fill="#86828f"/>
            <path id="Trazado_627526" data-name="Trazado 627526" d="M285.331,1983.577l6.4-8.236,2.4-11.123,1.609-10.343-9.3,18.833-3.287,13.017Z" transform="translate(15.685 -1905.651)" fill="#a39ea9"/>
            <path id="Trazado_627527" data-name="Trazado 627527" d="M359.221,2108.372l11.94-12.241.616-13.081-1.215-11.208-5.088,22.753-6.866,10.646-11.973,9.379Z" transform="translate(-6.732 -1947.313)" fill="#5f5b69"/>
            <path id="Trazado_627528" data-name="Trazado 627528" d="M327.641,2041.033l-5.5,26.662-14.921,21.5-18.072,9.875-36.481,5.511.55.378,17.274,10.992,28.463,1.62,6.029-8.995,12.224-14.2,9.413-25.1Z" transform="translate(26.456 -1936.433)" fill="#5f5b69"/>
            <path id="Trazado_627529" data-name="Trazado 627529" d="M191.59,2186.834l34.662-17.611,16.926-15.051,8.394-10.83-8.081,12.878L225.343,2178.7l-24.769,25.633-22.878-3.8Z" transform="translate(52.932 -1972.565)" fill="#4f4c59"/>
            <path id="Trazado_627530" data-name="Trazado 627530" d="M153.616,2113.071l38.617-37.944,29.727-49.838-20.886,52.35-30.4,55.751Z" transform="translate(61.436 -1930.873)" fill="#5f5b69"/>
            <path id="Trazado_627531" data-name="Trazado 627531" d="M143.51,2096.938l-35.581,41.682s-67.047,39.354-69.569,39.3l79.379-30.056,24.861-41.482,4.64-14.458Z" transform="translate(102.141 -1954.406)" fill="#4f4c59"/>
            <path id="Trazado_627532" data-name="Trazado 627532" d="M395.276,2071.185l10-18.273-6.2-11.714.183,16.376Z" transform="translate(-23.91 -1936.491)" fill="#4f4c59"/>
            <path id="Trazado_627533" data-name="Trazado 627533" d="M297.059,2142.78l36.562-17.2,4.464-23.112-18.657,23.988Z" transform="translate(10.777 -1958.131)" fill="#4f4c59"/>
            <path id="Trazado_627534" data-name="Trazado 627534" d="M384.625,2003.422,380.24,1985l-1.433-8.33,8.48,11.9Z" transform="translate(-18.094 -1913.703)" fill="#86828f"/>
            <path id="Trazado_627535" data-name="Trazado 627535" d="M254.661,2108.061l14.474-13.591,6.971-19.771-16.4,14.881-23.292.344,5.648,8.688Z" transform="translate(32.195 -1948.322)" fill="#86828f"/>
            <path id="Trazado_627536" data-name="Trazado 627536" d="M198.208,2150.988l27.7-24.387,23.064-27.843-8.84,29.366Z" transform="translate(45.687 -1956.819)" fill="#5f5b69"/>
            <g id="Grupo_950060" data-name="Grupo 950060" transform="translate(300.749 82.13)">
              <path id="Trazado_627537" data-name="Trazado 627537" d="M286.838,2098.167l7.639-19.52-3.387-8.118Z" transform="translate(-286.362 -2028.98)" fill="#5f5b69"/>
              <path id="Trazado_627538" data-name="Trazado 627538" d="M294.494,2024.3l9.465-18-11.878,14.531-5.978,15.687,4.727,11.331,1.048-6.814Z" transform="translate(-286.103 -2006.295)" fill="#5f5b69"/>
            </g>
            <path id="Trazado_627539" data-name="Trazado 627539" d="M388.07,2030.5l-3.28-5.957.774-14.146,2.449,5.963Z" transform="translate(-20.207 -1925.615)" fill="#5f5b69"/>
            <path id="Trazado_627540" data-name="Trazado 627540" d="M317.668,1917.149l11,16.756,4.537,11.024,7.538-11.394-7.234-8.876-20.188-45.338-8.587,6.543L279.087,1936.1l-.559.921,19.7-18.312,4.061,14.906,8.258-18.278Z" transform="translate(17.321 -1879.322)" fill="#a39ea9"/>
          </g>
        </g>
      </g>
      <path id="Trazado_627541" data-name="Trazado 627541" d="M225.309,2160.854q-12.182.018-24.377.031-6.319.01-12.638.013c-2.109.006-4.212.006-6.321.012a16.1,16.1,0,0,1-3.1-.113v-45.749a12.222,12.222,0,0,1,6.5,3.073c4.376,4,5.6,11.1,3.342,16.639a14.312,14.312,0,0,1,8.472,10.474c5.574-2.254,11.75-2.923,17.459-.793a21.488,21.488,0,0,1,12.871,13.322A2.427,2.427,0,0,1,225.309,2160.854Z" transform="translate(-178.306 -1926.692)" fill="#b3d179"/>
      <rect id="Rectángulo_306638" data-name="Rectángulo 306638" width="627.597" height="103.04" transform="translate(0.564 254.535)" fill="#90d4ee"/>
      <rect id="Rectángulo_306639" data-name="Rectángulo 306639" width="627.597" height="24.936" transform="translate(0.564 332.639)" fill="#70cce8"/>
      <path id="Trazado_627542" data-name="Trazado 627542" d="M493.982,2168.29c-.783.863-1.953-.291-1.486-1.212q-36.9.482-73.793.97c-2.616.031-5.72.6-8.3.067-1.371-.29-1.919-1.117-2.339-2.47a16.326,16.326,0,0,1,1.2-12.549c3.35-5.695,11.674-6.824,14.6-.751,2.213-3.9,3.981-10.134,9.129-9.027,4.473.956,6.417,7.259,7.252,11.928a11.217,11.217,0,0,1,15.081-1.083c.882-4.781,2.318-9.8,6.641-12.189,3.953-2.186,7.239-.5,9.912,2.576,3.1-6.051,6.1-16.049,14.143-14.562,8.5,1.574,5.188,12.956,3.285,19.4,4.2-1.282,8.651-.95,10.226,4.394C501.221,2159.528,497.493,2164.426,493.982,2168.29Z" transform="translate(-258.995 -1931.916)" fill="#b3d179"/>
      <path id="Trazado_627543" data-name="Trazado 627543" d="M549.14,2306.22H178.87V2177.211h95.923a13.752,13.752,0,0,1,10.184,4.466c.327.356.666.7,1.016,1.024.088.075.169.15.257.225.111.107.228.2.345.293.222.188.444.362.672.525.134.1.268.2.409.293a.363.363,0,0,0,.058.044c.146.1.292.194.439.287.012.012.017.019.023.019.152.094.3.187.455.275a14.054,14.054,0,0,0,1.981.98c.093.038.187.076.286.112.117.044.24.088.362.131s.263.094.4.131c.175.063.351.113.532.162.233.069.473.125.719.181.017.007.035.007.058.012.216.05.439.094.66.125.333.063.666.107,1,.144.223.019.444.037.666.05h.035c.269.019.532.025.8.025s.532-.006.8-.025h.035c.222-.013.444-.031.666-.05.345-.038.684-.082,1.023-.144.217-.037.427-.081.637-.125.017-.006.041-.006.058-.012.24-.056.479-.113.719-.181.181-.05.356-.1.532-.162.146-.044.292-.087.433-.144.1-.031.193-.068.286-.106.111-.038.223-.082.327-.125a13.765,13.765,0,0,0,2.028-1.005q.324-.187.631-.393a.266.266,0,0,0,.065-.044c.181-.113.356-.238.532-.368q.4-.291.788-.618c.169-.131.333-.275.5-.425s.351-.318.52-.487c.135-.132.263-.263.386-.4.07-.069.14-.144.21-.219a13.761,13.761,0,0,1,10.19-4.472h65.207c.625,0,1.245.006,1.87.013l.882.019c.461.006.923.019,1.379.038.391.012.789.024,1.186.043,1.11.044,2.215.1,3.313.175.281.018.561.038.842.062.047,0,.087.006.134.006.631.05,1.257.1,1.887.156.66.057,1.327.119,1.992.194l.573.055c.66.075,1.326.15,1.986.238q.859.1,1.718.225c.07.006.134.019.2.031.257.031.514.069.777.113.614.082,1.221.175,1.823.275.754.118,1.5.25,2.255.381q1.043.188,2.086.393c.105.019.2.038.3.056.648.125,1.3.262,1.94.4.07.012.134.031.2.044.73.156,1.449.318,2.173.487s1.479.35,2.215.537c.671.169,1.349.344,2.021.525.058.019.117.032.181.05.73.2,1.461.4,2.191.612.514.15,1.028.3,1.542.456.263.081.526.163.783.238.678.212,1.355.424,2.027.65.719.231,1.443.475,2.156.724.8.274,1.6.562,2.39.849.508.188,1.023.381,1.531.574.538.206,1.075.418,1.613.631.345.137.689.274,1.028.412.841.337,1.677.694,2.512,1.049.508.219,1.017.444,1.525.668.736.331,1.472.662,2.2,1.006.6.281,1.2.568,1.794.855.222.107.444.213.666.325.508.25,1.017.506,1.525.762q1.017.524,2.034,1.055c1.449.769,2.892,1.562,4.318,2.386.555.325,1.111.65,1.666.981a.739.739,0,0,0,.064.038c.578.344,1.157.693,1.73,1.049.058.038.123.075.181.113,1.513.937,3.015,1.905,4.493,2.9.491.338.982.669,1.467,1.012q2.2,1.528,4.353,3.148c.479.356.953.718,1.426,1.087a142.063,142.063,0,0,1,24.447,24.2l40.76,51.413Z" transform="translate(-178.306 -1948.645)" fill="#9e7343"/>
      <path id="Trazado_627544" data-name="Trazado 627544" d="M463.874,2205.31a5.108,5.108,0,0,1-1.3,3.1.855.855,0,0,1-1.063.144q-3.847-2.286-7.7-4.571a20.16,20.16,0,0,1-.777,7,.866.866,0,0,1-1.6.225,15.688,15.688,0,0,0-4.294-4.553,63.486,63.486,0,0,1-2.694,9.506.867.867,0,0,1-1.6.225q-2.822-4.507-5.638-9.006-2.48,3.738-4.955,7.482a.857.857,0,0,1-1.513,0q-2.218-5.256-4.44-10.512-2.542,4.451-5.089,8.9a.87.87,0,0,1-1.607-.225q-1.412-4.909-2.828-9.824-3.094,4.609-6.176,9.212a.868.868,0,0,1-1.6-.225q-1.928-5.518-3.851-11.03-2.034,2.286-4.072,4.584a.867.867,0,0,1-1.466-.412,43.408,43.408,0,0,0-4.733-9.262c-.724,1.518-1.443,3.035-2.168,4.553a.854.854,0,0,1-1.373.187,19.15,19.15,0,0,1-3.313-3.528q-1.56,4.262-3.132,8.525a.868.868,0,0,1-1.461.418q-3.059-2.6-6.112-5.209A89.271,89.271,0,0,1,375.9,2212.9a.868.868,0,0,1-1.291.562l-6.994-5.34-1.56,10.174a.861.861,0,0,1-1.286.555q-3.408-2.6-6.818-5.221-2.717,4.984-5.422,9.969a.867.867,0,0,1-1.6-.225q-1.069-3.119-2.127-6.24a63.9,63.9,0,0,1-6.941,8.519.848.848,0,0,1-1.373-.187l-4.826-11.617q-2.279,3.439-4.558,6.883a.853.853,0,0,1-1.379.187,34.354,34.354,0,0,1-4.487-7.232l-4.54,7.17a.864.864,0,0,1-1.514,0,17.434,17.434,0,0,1-2.968-7q-1.849,2.464-3.687,4.915a.846.846,0,0,1-1.373-.187q-2.366-4.5-4.727-8.994l-2.875,5.564a.849.849,0,0,1-1.373.188q-1.867-2.277-3.728-4.559a23.592,23.592,0,0,0-1.017,7.4c.012.656-.777,1.23-1.32.806q-2.656-2.071-5.317-4.148a27.326,27.326,0,0,0-3.932,8.544.87.87,0,0,1-1.607.219,38.849,38.849,0,0,0-4.756-7.557q-3.321,4.618-6.649,9.243c-.391.543-1.473.675-1.6-.225q-.771-5.555-1.543-11.1a35.406,35.406,0,0,1-9.1,8.238.872.872,0,0,1-1.291-.556,57.321,57.321,0,0,1-1.472-13.521,27.548,27.548,0,0,1-4.943,4.534c-.614.437-1.239-.169-1.315-.812q-.587-4.948-1.168-9.893-2.156,3.148-4.312,6.283a.859.859,0,0,1-1.513,0q-2.016-3.513-4.032-7.033-2.717,3.748-5.422,7.482a.843.843,0,0,1-1.244,0,20.331,20.331,0,0,1-3.12-5.028l-4.219,5.865a.86.86,0,0,1-1.373.193,13.519,13.519,0,0,1-3.149-4.509q-1.682,3.8-3.371,7.607a.852.852,0,0,1-1.373.194,20.16,20.16,0,0,1-4.37-5.571q-2.376,5.546-4.75,11.1a.848.848,0,0,1-1.373.187,39.142,39.142,0,0,1-5.446-8.294,49.573,49.573,0,0,1-6.69,11.816c-.467.612-1.245.162-1.466-.412a24.594,24.594,0,0,1-1.642-7.27,55.594,55.594,0,0,1-7.152,8.55.879.879,0,0,1-1.5-.662q-.035-4.694-.07-9.381a49.261,49.261,0,0,1-4.966,5.715v-41.577h95.923a13.752,13.752,0,0,1,10.184,4.466c.327.356.666.7,1.016,1.024.088.075.169.15.257.225.111.107.228.2.345.293.222.188.444.362.672.525a4.487,4.487,0,0,0,.409.293.363.363,0,0,0,.058.044c.14.1.292.2.439.287.012.012.017.019.023.019.152.1.3.193.455.275a14.054,14.054,0,0,0,1.981.98c.093.038.187.076.286.112.117.044.24.088.362.131s.263.094.4.131c.175.063.351.113.532.162.233.069.473.125.719.181.017.007.035.007.058.012.216.05.439.094.66.125.333.063.666.107,1,.144.223.019.444.037.666.05h.035c.269.019.532.025.8.025s.532-.006.8-.025h.035c.222-.013.444-.031.666-.05.345-.038.684-.082,1.023-.144.217-.037.427-.075.637-.125.017-.006.041-.006.058-.012.24-.056.479-.113.719-.181.181-.05.356-.1.532-.162.146-.044.292-.087.433-.144.1-.031.193-.068.286-.106.111-.038.223-.082.327-.125a13.765,13.765,0,0,0,2.028-1.005q.324-.187.631-.393a.266.266,0,0,0,.065-.044c.181-.113.356-.238.532-.368q.4-.291.788-.618c.169-.131.333-.275.5-.425s.351-.318.52-.487c.135-.132.263-.263.386-.4.07-.069.14-.144.21-.219a13.761,13.761,0,0,1,10.19-4.472h65.207c.625,0,1.245.006,1.87.013l.882.019c.461.006.923.019,1.379.038.391.012.789.024,1.186.043,1.11.044,2.215.1,3.313.175.281.018.561.038.842.062.047,0,.087.006.134.006.631.05,1.257.1,1.887.156.66.057,1.327.119,1.992.194l.573.055c.66.075,1.326.15,1.986.238q.859.1,1.718.225c.07.006.134.019.2.031.257.031.514.069.777.113.614.082,1.221.175,1.823.275.754.118,1.5.25,2.255.381q1.043.188,2.086.393c.105.019.2.038.3.056.648.125,1.3.262,1.94.4.07.012.134.031.2.044.73.156,1.449.318,2.173.487s1.479.35,2.215.537c.671.169,1.349.344,2.021.525.058.019.117.032.181.05.73.2,1.461.4,2.191.612.514.15,1.028.3,1.542.456.263.081.526.163.783.238.678.212,1.355.424,2.027.65.719.231,1.443.475,2.156.724.8.274,1.6.562,2.39.849.508.188,1.023.381,1.531.574.538.206,1.075.418,1.613.631.345.137.689.274,1.028.412.841.337,1.677.694,2.512,1.049.508.219,1.017.444,1.525.668.736.331,1.472.662,2.2,1.006.6.281,1.2.568,1.794.855.222.107.444.213.666.325.508.25,1.017.506,1.525.762q1.017.524,2.034,1.055c1.449.769,2.892,1.562,4.318,2.386.555.325,1.111.65,1.666.981a.739.739,0,0,0,.064.038c.578.344,1.157.693,1.73,1.049.058.038.123.075.181.113,1.513.937,3.015,1.905,4.493,2.9.491.338.982.669,1.467,1.012q2.2,1.528,4.353,3.148C462.928,2204.579,463.4,2204.941,463.874,2205.31Z" transform="translate(-178.306 -1948.645)" fill="#8faf51"/>
      <path id="Trazado_627545" data-name="Trazado 627545" d="M549.14,2342.534H178.87v-35.9l.117.038c7.047,2.417,12.556,8.163,18.311,13.134s12.662,9.506,20.03,8.719c10.511-1.124,17.143-12.111,23.284-21.3s16.184-18.5,26.065-14.49c5.118,2.074,8.513,7.295,10.886,12.567,3.044,6.776,4.961,14.133,8.565,20.591s9.512,12.135,16.536,12.479c13.263.643,21.379-16.75,34.309-19.961,16.939-4.2,31.254,17.256,48.63,16.719,10.36-.319,19.071-8.513,25.131-17.5s10.534-19.268,17.762-27.212,18.54-13.2,28.034-8.763c16.085,7.52,14.829,34.919,29.635,45.012,8.793,5.99,20.538,3.729,29.886-1.205a141.453,141.453,0,0,0,13.03-8.219Z" transform="translate(-178.306 -1984.959)" fill="#8e6135"/>
      <path id="Trazado_627546" data-name="Trazado 627546" d="M463.874,2212.893a5.108,5.108,0,0,1-1.3,3.1.855.855,0,0,1-1.063.144q-3.847-2.286-7.7-4.571a20.16,20.16,0,0,1-.777,7,.866.866,0,0,1-1.6.225,15.688,15.688,0,0,0-4.294-4.553,63.486,63.486,0,0,1-2.694,9.506.867.867,0,0,1-1.6.225q-2.822-4.507-5.638-9.006-2.48,3.738-4.955,7.482a.857.857,0,0,1-1.513,0q-2.218-5.256-4.44-10.512-2.542,4.451-5.089,8.9a.87.87,0,0,1-1.607-.225q-1.412-4.909-2.828-9.824-3.094,4.609-6.176,9.212a.868.868,0,0,1-1.6-.225q-1.928-5.518-3.851-11.03-2.034,2.286-4.072,4.584a.867.867,0,0,1-1.466-.412,43.408,43.408,0,0,0-4.733-9.262c-.724,1.518-1.443,3.035-2.168,4.553a.854.854,0,0,1-1.373.187,19.15,19.15,0,0,1-3.313-3.528q-1.56,4.262-3.132,8.525a.868.868,0,0,1-1.461.418q-3.059-2.6-6.112-5.209a89.271,89.271,0,0,1-1.408,11.891.868.868,0,0,1-1.291.562l-6.994-5.34-1.56,10.174a.861.861,0,0,1-1.286.555q-3.408-2.6-6.818-5.221-2.717,4.984-5.422,9.969a.867.867,0,0,1-1.6-.225q-1.069-3.119-2.127-6.24a63.9,63.9,0,0,1-6.941,8.519.848.848,0,0,1-1.373-.187l-4.826-11.617q-2.279,3.439-4.558,6.883a.853.853,0,0,1-1.379.187,34.354,34.354,0,0,1-4.487-7.232l-4.54,7.17a.864.864,0,0,1-1.514,0,17.434,17.434,0,0,1-2.968-7q-1.849,2.464-3.687,4.915a.846.846,0,0,1-1.373-.187q-2.366-4.5-4.727-8.994l-2.875,5.564a.849.849,0,0,1-1.373.188q-1.867-2.277-3.728-4.559a23.592,23.592,0,0,0-1.017,7.4c.012.656-.777,1.23-1.32.806q-2.656-2.071-5.317-4.148a27.326,27.326,0,0,0-3.932,8.544.87.87,0,0,1-1.607.219,38.849,38.849,0,0,0-4.756-7.557q-3.321,4.618-6.649,9.243c-.391.543-1.473.675-1.6-.225q-.771-5.555-1.543-11.1a35.406,35.406,0,0,1-9.1,8.238.872.872,0,0,1-1.291-.556,57.321,57.321,0,0,1-1.472-13.521,27.548,27.548,0,0,1-4.943,4.534c-.614.437-1.239-.169-1.315-.812q-.587-4.948-1.168-9.893-2.156,3.148-4.312,6.283a.859.859,0,0,1-1.513,0q-2.016-3.513-4.032-7.033-2.717,3.748-5.422,7.482a.843.843,0,0,1-1.244,0,20.331,20.331,0,0,1-3.12-5.028l-4.219,5.865a.86.86,0,0,1-1.373.193,13.519,13.519,0,0,1-3.149-4.509q-1.682,3.8-3.371,7.607a.852.852,0,0,1-1.373.194,20.16,20.16,0,0,1-4.37-5.571q-2.376,5.546-4.75,11.1a.848.848,0,0,1-1.373.187,39.142,39.142,0,0,1-5.446-8.294,49.573,49.573,0,0,1-6.69,11.816c-.467.612-1.245.162-1.466-.412a24.594,24.594,0,0,1-1.642-7.27,55.594,55.594,0,0,1-7.152,8.55.879.879,0,0,1-1.5-.662q-.035-4.694-.07-9.381a49.261,49.261,0,0,1-4.966,5.715v-12.834a19.161,19.161,0,0,0,7.316-5.309.862.862,0,0,1,1.466.413q.692,3.494,1.385,6.995a18.966,18.966,0,0,0,6.473-4.216.868.868,0,0,1,1.467.412q.666,2.286,1.332,4.565l4.365-6.52a.856.856,0,0,1,1.513,0,19.866,19.866,0,0,0,5.2,6.5q2.988-4.731,5.989-9.462a.857.857,0,0,1,1.513,0c.924,1.493,1.841,2.985,2.764,4.478a27.387,27.387,0,0,0,4.365-6.439.853.853,0,0,1,1.513,0,15.433,15.433,0,0,0,3.313,5.071q3.322-3.448,6.649-6.895a.847.847,0,0,1,1.373.187c.415,1,.83,2,1.244,3q2.612-2.323,5.235-4.653a.856.856,0,0,1,1.373.193q1.4,2.511,2.8,5.022,3.619-2.492,7.234-4.984a.888.888,0,0,1,1.32.813q.167,3.034.333,6.083,3.471-1.771,6.947-3.547a.887.887,0,0,1,1.315.805q.42,4.722.836,9.431a49.787,49.787,0,0,1,8.466-5.933.861.861,0,0,1,1.2.337,55.466,55.466,0,0,1,3.278,9.163q2.34-2.9,4.68-5.784a.853.853,0,0,1,1.373.187c.871,1.437,1.735,2.879,2.606,4.316q1.28-3.186,2.553-6.377a.851.851,0,0,1,1.2-.331q1.8,1.433,3.6,2.866,1.386-3.616,2.776-7.226a.877.877,0,0,1,1.291-.562,15.758,15.758,0,0,1,3.8,3.528q1.586-2.286,3.167-4.578a.86.86,0,0,1,1.514,0q2.076,3.214,4.154,6.42l4.3-4.634a.859.859,0,0,1,1.461.412q.376,2.932.754,5.852,3.251-2.8,6.509-5.6a.852.852,0,0,1,1.239,0q3.19,4.395,6.38,8.794,2.323-3.532,4.633-7.063a.857.857,0,0,1,1.514,0q2.866,5.021,5.737,10.042a37.632,37.632,0,0,1,4.931-5.3.86.86,0,0,1,1.379.188,27.818,27.818,0,0,0,4.44,6.17q1.586-3.5,3.167-7.014a.854.854,0,0,1,1.379-.187c1.21,1.193,2.413,2.392,3.622,3.585a25.048,25.048,0,0,1,3.045-9.263.859.859,0,0,1,1.513,0,17.536,17.536,0,0,0,3.675,4.478c.245-3.441,1.73-7.082,5.113-7.957a5.559,5.559,0,0,1,6.228,2.68q2.331-3.317,4.662-6.627a.862.862,0,0,1,1.379-.188l2.787,3.167,4.008-4.1a.87.87,0,0,1,1.466.412q1.13,2.867,2.261,5.74l5.574-4.966a.87.87,0,0,1,1.467.413q2.041,5.405,4.1,10.8l7.6-7.97a.85.85,0,0,1,1.373.188,30.6,30.6,0,0,1,2.658,6.62q2.243-2.876,4.487-5.764a.848.848,0,0,1,1.379.187q1.841,4.394,3.675,8.788,2.76-3.363,5.533-6.714a.858.858,0,0,1,1.379.188q2.025,3.278,4.049,6.564,1.271-3.016,2.541-6.027a.846.846,0,0,1,1.2-.337q2.428,1.5,4.849,3a26.078,26.078,0,0,1,1.514-5.34A137.958,137.958,0,0,1,463.874,2212.893Z" transform="translate(-178.306 -1956.228)" fill="#87a341"/>
      <g id="Grupo_950064" data-name="Grupo 950064" transform="translate(317.505 259.962)">
        <path id="Trazado_627547" data-name="Trazado 627547" d="M806.839,2229.172c0-1.89-30.888-3.422-68.989-3.422s-68.989,1.532-68.989,3.422,30.888,3.422,68.989,3.422S806.839,2231.062,806.839,2229.172Z" transform="translate(-668.86 -2225.75)" fill="#b0e7f7"/>
        <ellipse id="Elipse_7688" data-name="Elipse 7688" cx="78.851" cy="2.641" rx="78.851" ry="2.641" transform="translate(126.437 11.621)" fill="#b0e7f7"/>
      </g>
    </g>
    <path id="Trazado_135127" data-name="Trazado 135127" d="M1078.868,1903.316a38.12,38.12,0,1,1-38.121-38.119h0a38.118,38.118,0,0,1,38.12,38.117v0" transform="translate(-291.232 -14.602)" fill="#feda62"/>
    <text id="El_ciclo_del_carbono" data-name="El ciclo del carbono" transform="translate(505.638 1860.43)" font-size="19" font-family="Roboto-Bold, Roboto" font-weight="700"><tspan x="-83.208" y="0">El ciclo del carbono</tspan></text>
    <path id="Trazado_627548" data-name="Trazado 627548" d="M408.172,1952.636s9.011-7.459,32.065-17.593c43.435-19.094,73.572-7.326,73.572-7.326" transform="translate(-81.29 -35.416)" fill="none" stroke="#000" stroke-miterlimit="10" stroke-width="5"/>
    <path id="Trazado_627549" data-name="Trazado 627549" d="M622.288,2286.131s7.449-3.152,20.847-14.66c25.243-21.682,26.935-46.356,26.935-46.356" transform="translate(-156.908 -141.714)" fill="none" stroke="#000" stroke-miterlimit="10" stroke-width="5"/>
    <path id="Trazado_627550" data-name="Trazado 627550" d="M884.859,2257.851s-2.377,14.641-12.227,25.957c-18.558,21.318-20.9,25.956-20.9,25.956" transform="translate(-237.939 -153.275)" fill="none" stroke="#000" stroke-miterlimit="10" stroke-width="5"/>
    <path id="Trazado_627551" data-name="Trazado 627551" d="M312.449,2281.139s-7.265,12.932-20.4,20.172c-24.755,13.64-28.552,17.188-28.552,17.188" transform="translate(-30.194 -161.499)" fill="none" stroke="#000" stroke-miterlimit="10" stroke-width="5"/>
    <path id="Trazado_627552" data-name="Trazado 627552" d="M419.86,2281.139s7.265,12.932,20.4,20.172c24.755,13.64,28.552,17.188,28.552,17.188" transform="translate(-85.418 -161.499)" fill="none" stroke="#000" stroke-miterlimit="10" stroke-width="5"/>
    <line id="Línea_334" data-name="Línea 334" x2="21.417" y2="88.066" transform="translate(298.496 2002.639)" fill="none" stroke="#000" stroke-miterlimit="10" stroke-width="5"/>
    <path id="Trazado_627553" data-name="Trazado 627553" d="M973.6,2002.6s-23.257-37.914-61.4-56.914c-71.868-35.8-99.7-17.9-99.7-17.9" transform="translate(-224.086 -35.126)" fill="none" stroke="#000" stroke-miterlimit="10" stroke-width="5"/>
    <text id="Dióxido_de_carbono_en_la_atmósfera" data-name="Dióxido de carbono en la 
atmósfera" transform="translate(502.598 1891.063)" font-size="10" font-family="Roboto-Regular, Roboto"><tspan x="-56.001" y="0">Dióxido de carbono en la </tspan><tspan x="-22.864" y="10">atmósfera</tspan></text>
    <text id="Intercambio_de_gases_entre_el_aire_y_el_mar" data-name="Intercambio de gases
entre el aire y el mar" transform="translate(745.77 1978.213)" font-size="10" font-family="Roboto-Regular, Roboto"><tspan x="-47.91" y="0">Intercambio de gases</tspan><tspan x="-44.729" y="10">entre el aire y el mar</tspan></text>
    <text id="Respiración" transform="translate(744.056 2047.071)" font-size="9" font-family="Roboto-Regular, Roboto"><tspan x="-23.471" y="0">Respiración</tspan></text>
    <text id="Fotosíntesis_marina" data-name="Fotosíntesis
marina" transform="translate(737.54 2119.29)" font-size="10" font-family="Roboto-Regular, Roboto"><tspan x="-27.224" y="0">Fotosíntesis</tspan><tspan x="-15.486" y="10">marina</tspan></text>
    <text id="Océanos" transform="translate(650.491 2059.179)" font-size="9" font-family="Roboto-Regular, Roboto"><tspan x="-17.651" y="0">Océanos</tspan></text>
    <text id="Respiración-2" data-name="Respiración" transform="translate(515.187 1949.903)" font-size="9" font-family="Roboto-Regular, Roboto"><tspan x="-23.471" y="0">Respiración</tspan></text>
    <text id="Fotosíntesis_terrestre" data-name="Fotosíntesis
terrestre" transform="translate(488.648 2021.425)" font-size="10" font-family="Roboto-Regular, Roboto"><tspan x="-27.224" y="0">Fotosíntesis</tspan><tspan x="-18.867" y="10">terrestre</tspan></text>
    <text id="Desgaste_de_rocas_terrestres" data-name="Desgaste de 
rocas terrestres" transform="translate(289.627 1980.347)" fill="#fff" font-size="10" font-family="Roboto-Regular, Roboto"><tspan x="-28.835" y="0">Desgaste de </tspan><tspan x="-35.093" y="10">rocas terrestres</tspan></text>
    <text id="Sedimentos_oceánicos" data-name="Sedimentos
oceánicos" transform="translate(644.459 2090.308)" font-size="10" font-family="Roboto-Regular, Roboto"><tspan x="-26.453" y="0">Sedimentos</tspan><tspan x="-22.856" y="10">oceánicos</tspan></text>
    <text id="Levantamiento" transform="translate(606.745 2167.607)" font-size="9" font-family="Roboto-Regular, Roboto"><tspan x="-29.667" y="0">Levantamiento</tspan></text>
    <text id="Filtración_y_escurrimiento" data-name="Filtración y 
escurrimiento" transform="translate(510.008 2070.05)" font-size="10" font-family="Roboto-Regular, Roboto"><tspan x="-25.42" y="0">Filtración y </tspan><tspan x="-30.637" y="10">escurrimiento</tspan></text>
    <text id="Respiración_microbiana_y_descomposición" data-name="Respiración microbiana
y descomposición" transform="translate(438.271 2161.98)" fill="#fff" font-size="10" font-family="Roboto-Regular, Roboto"><tspan x="-52.241" y="0">Respiración microbiana</tspan><tspan x="-40.391" y="10">y descomposición</tspan></text>
    <text id="Carbono_en_el_suelo" data-name="Carbono 
en el suelo" transform="translate(306.715 2118.575)" fill="#fff" font-size="10" font-family="Roboto-Regular, Roboto"><tspan x="-20.171" y="0">Carbono </tspan><tspan x="-23.794" y="10">en el suelo</tspan></text>
    <text id="Carbono_fósil" data-name="Carbono fósil" transform="translate(234.206 2170.202)" fill="#fff" font-size="9" font-family="Roboto-Regular, Roboto"><tspan x="-26.787" y="0">Carbono fósil</tspan></text>
    <line id="Línea_335" data-name="Línea 335" y2="42.3" transform="translate(749.516 1994.339)" fill="none" stroke="#000" stroke-miterlimit="10" stroke-width="3"/>
    <line id="Línea_336" data-name="Línea 336" x1="71.836" transform="translate(498.146 2168.957)" fill="none" stroke="#000" stroke-miterlimit="10" stroke-width="3"/>
    <line id="Línea_337" data-name="Línea 337" x2="100.154" transform="translate(279.547 2168.957)" fill="none" stroke="#000" stroke-miterlimit="10" stroke-width="3"/>
    <line id="Línea_338" data-name="Línea 338" x2="59.772" y2="10.033" transform="translate(552.549 2080.672)" fill="none" stroke="#000" stroke-miterlimit="10" stroke-width="3"/>
    <line id="Línea_339" data-name="Línea 339" y1="42.3" transform="translate(749.516 2055.294)" fill="none" stroke="#000" stroke-miterlimit="10" stroke-width="3"/>
    <line id="Línea_340" data-name="Línea 340" y2="42.3" transform="translate(732.455 2066.053)" fill="none" stroke="#000" stroke-miterlimit="10" stroke-width="3"/>
    <line id="Línea_341" data-name="Línea 341" y1="42.3" transform="translate(508.667 1957.989)" fill="none" stroke="#000" stroke-miterlimit="10" stroke-width="3"/>
    <line id="Línea_342" data-name="Línea 342" y2="42.3" transform="translate(491.606 1968.748)" fill="none" stroke="#000" stroke-miterlimit="10" stroke-width="3"/>
    <g id="Grupo_950068" data-name="Grupo 950068" transform="translate(440.101 1928.755)">
      <circle id="Elipse_7650" data-name="Elipse 7650" cx="24.824" cy="24.824" r="24.824" fill="#ef8b53"/>
      <g id="Grupo_950067" data-name="Grupo 950067" transform="translate(9.108 7.363)">
        <g id="Page-1">
          <g id="_004---Tree" data-name="004---Tree">
            <path id="Shape" d="M628.456,2009.378a2.328,2.328,0,0,1-2.328,2.328c-.087,0-.175-.017-.262-.023a2.8,2.8,0,0,1,.262,1.187,2.91,2.91,0,0,1-2.91,2.91,2.793,2.793,0,0,1-1.188-.262c.006.087.023.175.023.262a2.91,2.91,0,0,1-2.909,2.91,3.056,3.056,0,0,1-2.91-2.91v-2.4a2.388,2.388,0,0,1-.582.076,2.328,2.328,0,0,0-4.656,0,2.388,2.388,0,0,1-.582-.076v2.4a3.056,3.056,0,0,1-2.91,2.91,2.91,2.91,0,0,1-2.909-2.91c0-.087.017-.175.023-.262a2.793,2.793,0,0,1-1.188.262,2.91,2.91,0,0,1-2.91-2.91,2.8,2.8,0,0,1,.262-1.187c-.087.006-.175.023-.262.023a2.328,2.328,0,1,1,0-4.656,2.264,2.264,0,0,1,1.2.343,2.182,2.182,0,0,1-.035-.343,2.328,2.328,0,0,1,2.328-2.328,2.375,2.375,0,0,1,.506.058,3.442,3.442,0,0,1-.506-1.8,3.492,3.492,0,0,1,6.419-1.9,2.9,2.9,0,0,1,5.785,0,3.492,3.492,0,0,1,6.419,1.9,3.444,3.444,0,0,1-.507,1.8,2.375,2.375,0,0,1,.507-.058,2.328,2.328,0,0,1,2.328,2.328,2.182,2.182,0,0,1-.035.343,2.266,2.266,0,0,1,1.2-.343A2.328,2.328,0,0,1,628.456,2009.378Z" transform="translate(-597.608 -1997.735)" fill="#60a917"/>
            <path id="Shape-2" data-name="Shape" d="M631.848,2003.611a3.443,3.443,0,0,1-.506,1.8,2.375,2.375,0,0,1,.506-.058,2.328,2.328,0,0,1,2.328,2.328,2.362,2.362,0,0,1-.035.344,2.263,2.263,0,0,1,1.2-.344,2.3,2.3,0,0,1,.574.08c0-.027.008-.053.008-.08a2.328,2.328,0,0,0-2.328-2.328,2.375,2.375,0,0,0-.506.058,3.443,3.443,0,0,0,.506-1.8,3.491,3.491,0,0,0-4.373-3.379A3.492,3.492,0,0,1,631.848,2003.611Z" transform="translate(-608.566 -1998.371)" fill="#549414"/>
            <path id="Shape-3" data-name="Shape" d="M632.449,2025.17a2.793,2.793,0,0,1-1.188-.262c.006.087.023.175.023.262a2.9,2.9,0,0,1-2.012,2.754,2.62,2.62,0,0,0,.849.156,2.91,2.91,0,0,0,2.909-2.91c0-.019,0-.039-.005-.058A2.874,2.874,0,0,1,632.449,2025.17Z" transform="translate(-608.584 -2007.125)" fill="#549414"/>
            <path id="Shape-4" data-name="Shape" d="M639.308,2011.817a2.225,2.225,0,0,0-.864.175,2.328,2.328,0,0,1-.882,4.481c-.087,0-.175-.017-.262-.023a2.8,2.8,0,0,1,.262,1.187,2.9,2.9,0,0,1-2.052,2.767,2.776,2.776,0,0,0,.887.144,2.91,2.91,0,0,0,2.91-2.91,2.8,2.8,0,0,0-.262-1.187c.087.006.175.023.262.023a2.328,2.328,0,1,0,0-4.656Z" transform="translate(-610.788 -2002.502)" fill="#549414"/>
            <path id="Shape-5" data-name="Shape" d="M624.492,2039.067h-12.8c.581-2.328,3.492-2.328,3.492-5.238v-13.462a2.388,2.388,0,0,0,.582.075,2.328,2.328,0,0,1,4.656,0,2.388,2.388,0,0,0,.582-.075v13.462C621,2036.739,623.911,2036.739,624.492,2039.067Z" transform="translate(-602.375 -2004.726)" fill="sienna"/>
            <path id="Shape-6" data-name="Shape" d="M624.019,2033.829v-13.462a2.387,2.387,0,0,1-.582.075,4.788,4.788,0,1,0-1.746,0,2.392,2.392,0,0,0,.582-.075v13.462c0,2.909,2.909,2.909,3.492,5.238h1.746C626.929,2036.739,624.019,2036.739,624.019,2033.829Z" transform="translate(-605.393 -2004.726)" fill="#783e22"/>
            <g id="Grupo_950066" data-name="Grupo 950066">
              <path id="Shape-7" data-name="Shape" d="M599.678,2011.922a3.358,3.358,0,0,0-.058.629,3.5,3.5,0,0,0,3.492,3.492,3.445,3.445,0,0,0,.622-.058,3.5,3.5,0,0,0,3.452,2.969,3.4,3.4,0,0,0,2.328-.958v8.523c0,1.338-.7,1.893-1.578,2.6-.2.158-.4.323-.6.5a12.386,12.386,0,0,0-.77-4.481.583.583,0,0,0-1.081.433,11.092,11.092,0,0,1,.684,3.943,4.8,4.8,0,0,0-2.937-1.821.582.582,0,1,0-.228,1.141,3.843,3.843,0,0,1,2.8,2.34h-3.268a.582.582,0,0,0,0,1.164h20.952a.582.582,0,1,0,0-1.164h-3.265a3.862,3.862,0,0,1,2.8-2.34.582.582,0,0,0-.228-1.141,4.8,4.8,0,0,0-2.94,1.822,11.088,11.088,0,0,1,.685-3.945.583.583,0,0,0-1.082-.433,12.388,12.388,0,0,0-.77,4.482c-.2-.179-.407-.344-.6-.5-.882-.705-1.58-1.26-1.58-2.6V2018a3.4,3.4,0,0,0,2.328.958,3.5,3.5,0,0,0,3.452-2.969,3.385,3.385,0,0,0,.622.058,3.5,3.5,0,0,0,3.492-3.492,3.42,3.42,0,0,0-.058-.629,2.91,2.91,0,0,0-.524-5.773,2.836,2.836,0,0,0-.627.071,2.918,2.918,0,0,0-2.462-2.371,4.074,4.074,0,0,0-6.514-4.311,3.476,3.476,0,0,0-6.4,0,4.074,4.074,0,0,0-6.515,4.311,2.916,2.916,0,0,0-2.462,2.371,2.83,2.83,0,0,0-.626-.071,2.91,2.91,0,0,0-.523,5.773Zm17.67,18.1a5.315,5.315,0,0,1,1.171,1.148H607.492a5.33,5.33,0,0,1,1.171-1.148,4.162,4.162,0,0,0,2.015-3.508v-12.8a2.909,2.909,0,0,1,4.656,0v12.8A4.162,4.162,0,0,0,617.348,2030.027ZM600.2,2007.313a1.686,1.686,0,0,1,.894.257.582.582,0,0,0,.625-.015.59.59,0,0,0,.254-.578,1.571,1.571,0,0,1-.026-.245,1.746,1.746,0,0,1,1.746-1.747,1.845,1.845,0,0,1,.385.046.582.582,0,0,0,.618-.873,2.874,2.874,0,0,1-.42-1.5,2.91,2.91,0,0,1,5.349-1.585.582.582,0,0,0,1.069-.287,2.315,2.315,0,0,1,4.624,0,.582.582,0,0,0,1.069.287,2.91,2.91,0,0,1,4.929,3.085.582.582,0,0,0,.618.873,1.827,1.827,0,0,1,.385-.045,1.747,1.747,0,0,1,1.746,1.747,1.723,1.723,0,0,1-.029.256.582.582,0,0,0,.881.582,1.684,1.684,0,0,1,.894-.256,1.746,1.746,0,0,1,0,3.492.669.669,0,0,1-.089-.009c-.045-.006-.09-.011-.134-.013a.581.581,0,0,0-.567.827,2.208,2.208,0,0,1,.207.94,2.328,2.328,0,0,1-2.328,2.328,2.2,2.2,0,0,1-.941-.207.582.582,0,0,0-.827.567,1.167,1.167,0,0,0,.013.134.681.681,0,0,1,.009.089,2.328,2.328,0,0,1-2.328,2.328,2.471,2.471,0,0,1-2.328-2.353v-1.747a2.862,2.862,0,0,0,1.746.608,2.914,2.914,0,0,0,2.91-2.91.582.582,0,0,0-1.164,0,1.736,1.736,0,0,1-3.1,1.089.582.582,0,0,0-.732-.145,1.71,1.71,0,0,1-.827.22,1.745,1.745,0,0,1-1.746-1.746.582.582,0,1,0-1.164,0,1.745,1.745,0,0,1-1.746,1.746,1.71,1.71,0,0,1-.827-.22.582.582,0,0,0-.732.145,1.736,1.736,0,0,1-3.1-1.089.582.582,0,0,0-1.164,0,2.914,2.914,0,0,0,2.91,2.91,2.861,2.861,0,0,0,1.746-.607v1.746a2.471,2.471,0,0,1-2.328,2.353,2.328,2.328,0,0,1-2.328-2.328.681.681,0,0,1,.009-.089c.005-.044.01-.089.014-.134a.582.582,0,0,0-.828-.567,2.2,2.2,0,0,1-.941.207,2.328,2.328,0,0,1-2.328-2.328,2.208,2.208,0,0,1,.207-.94.581.581,0,0,0-.567-.827,1.049,1.049,0,0,0-.134.013.669.669,0,0,1-.089.009,1.746,1.746,0,0,1,0-3.492Z" transform="translate(-597.289 -1997.416)"/>
              <path id="Shape-8" data-name="Shape" d="M614.162,2008.987a.582.582,0,0,0,.549-.774,1.164,1.164,0,0,1,2.2-.768.582.582,0,1,0,1.1-.383,2.328,2.328,0,1,0-4.4,1.534.582.582,0,0,0,.549.391Z" transform="translate(-603.004 -2000.26)"/>
              <path id="Shape-9" data-name="Shape" d="M626.017,2010.105a1.746,1.746,0,1,1,2.831,2.045.582.582,0,0,0,.944.682,2.91,2.91,0,1,0-4.718-3.407.582.582,0,1,0,.943.681Z" transform="translate(-607.061 -2001.231)"/>
              <path id="Shape-10" data-name="Shape" d="M621.268,2023.514a.582.582,0,0,0-.582.582v1.164a.582.582,0,0,0,1.164,0V2024.1A.582.582,0,0,0,621.268,2023.514Z" transform="translate(-605.552 -2006.633)"/>
              <path id="Shape-11" data-name="Shape" d="M621.268,2028.912a.582.582,0,0,0-.582.582v7.566a.582.582,0,0,0,1.164,0v-7.566A.582.582,0,0,0,621.268,2028.912Z" transform="translate(-605.552 -2008.539)"/>
              <path id="Shape-12" data-name="Shape" d="M600.574,2050.771h.581a.582.582,0,1,0,0-1.164h-.581a.582.582,0,1,0,0,1.164Z" transform="translate(-598.244 -2015.848)"/>
              <path id="Shape-13" data-name="Shape" d="M641.063,2049.607a.582.582,0,1,0,0,1.164h.582a.582.582,0,0,0,0-1.164Z" transform="translate(-612.543 -2015.848)"/>
            </g>
          </g>
        </g>
      </g>
    </g>
    <g id="Grupo_950080" data-name="Grupo 950080" transform="translate(522.247 1972.125)">
      <circle id="Elipse_7650-2" data-name="Elipse 7650" cx="24.824" cy="24.824" r="24.824" transform="translate(0)" fill="#ef8b53"/>
      <g id="Grupo_950079" data-name="Grupo 950079" transform="translate(11.221 8.571)">
        <g id="Grupo_950078" data-name="Grupo 950078">
          <g id="Grupo_950077" data-name="Grupo 950077" transform="translate(0.476 0.476)">
            <g id="Grupo_950069" data-name="Grupo 950069">
              <circle id="Elipse_7689" data-name="Elipse 7689" cx="4.286" cy="4.286" r="4.286" transform="translate(12.381)" fill="#9e9797"/>
              <circle id="Elipse_7690" data-name="Elipse 7690" cx="4.286" cy="4.286" r="4.286" fill="#9e9797"/>
            </g>
            <g id="Grupo_950076" data-name="Grupo 950076" transform="translate(2.462 3.317)">
              <g id="Grupo_950070" data-name="Grupo 950070" transform="translate(12.724 12.504)">
                <path id="Trazado_627554" data-name="Trazado 627554" d="M754.091,2103.132h-1.373a.953.953,0,0,1,0-1.905h1.373a2.946,2.946,0,0,0,2.942-2.943v-1.908a4.853,4.853,0,0,1,4.848-4.847.952.952,0,0,1,0,1.9,2.946,2.946,0,0,0-2.943,2.943v1.908A4.853,4.853,0,0,1,754.091,2103.132Z" transform="translate(-751.766 -2091.528)" fill="#766e6e"/>
              </g>
              <g id="Grupo_950071" data-name="Grupo 950071" transform="translate(0 25.994)">
                <path id="Trazado_627555" data-name="Trazado 627555" d="M753.847,2114.629h-3.166a1.122,1.122,0,0,1,0-2.245h1.81a1.8,1.8,0,0,1,1.8,1.8.445.445,0,0,1-.444.445Z" transform="translate(-738.262 -2112.384)" fill="#766e6e"/>
                <path id="Trazado_627556" data-name="Trazado 627556" d="M732.538,2114.629H735.7a1.122,1.122,0,0,0,0-2.245h-1.81a1.8,1.8,0,0,0-1.8,1.8.445.445,0,0,0,.444.445Z" transform="translate(-732.094 -2112.384)" fill="#766e6e"/>
              </g>
              <path id="Trazado_627557" data-name="Trazado 627557" d="M741.21,2106.465h-1.569a6.619,6.619,0,0,1-6.506-7.959,28.058,28.058,0,0,1,3.754-9.238h7.074a28.029,28.029,0,0,1,3.754,9.238,6.618,6.618,0,0,1-6.506,7.959Z" transform="translate(-732.411 -2078.226)" fill="#9e9797"/>
              <path id="Trazado_627558" data-name="Trazado 627558" d="M751.984,2102.058a4.2,4.2,0,0,0,.958-1.867,28.127,28.127,0,0,0-.9-2.874,1.582,1.582,0,0,0-1.265,1.344,2.368,2.368,0,0,1-.477,1.9,2.082,2.082,0,0,1-.948.592,1.128,1.128,0,0,0,.328,2.207,1.112,1.112,0,0,0,.328-.049A4.314,4.314,0,0,0,751.984,2102.058Z" transform="translate(-737.906 -2081.069)" fill="#766e6e"/>
              <path id="Trazado_627559" data-name="Trazado 627559" d="M734.587,2102.058a4.2,4.2,0,0,1-.957-1.867,27.812,27.812,0,0,1,.9-2.874,1.584,1.584,0,0,1,1.265,1.344,2.365,2.365,0,0,0,.477,1.9,2.083,2.083,0,0,0,.948.592,1.128,1.128,0,0,1-.327,2.207,1.114,1.114,0,0,1-.329-.049A4.319,4.319,0,0,1,734.587,2102.058Z" transform="translate(-732.636 -2081.069)" fill="#766e6e"/>
              <g id="Grupo_950073" data-name="Grupo 950073" transform="translate(1.098)">
                <g id="Grupo_950072" data-name="Grupo 950072">
                  <path id="Trazado_627560" data-name="Trazado 627560" d="M735.633,2074.176a7.553,7.553,0,0,0-1.842,3.23,4.366,4.366,0,0,0,.726.062,4.283,4.283,0,0,0,4.181-5.225,7.641,7.641,0,0,0-3.065,1.933Z" transform="translate(-733.791 -2072.213)" fill="#766e6e"/>
                  <path id="Trazado_627561" data-name="Trazado 627561" d="M747.54,2072.2a4.284,4.284,0,0,0,4.95,5.183,7.82,7.82,0,0,0-1.527-3.036A7.044,7.044,0,0,0,747.54,2072.2Z" transform="translate(-738.607 -2072.197)" fill="#766e6e"/>
                  <path id="Trazado_627562" data-name="Trazado 627562" d="M745.794,2089.268H738.72q-.279.442-.541.895a14.33,14.33,0,0,0,2.795,3.364,3.433,3.433,0,0,0,4.585.05,14.294,14.294,0,0,0,1.68-1.734,27.954,27.954,0,0,0-1.446-2.575Z" transform="translate(-735.341 -2078.226)" fill="#766e6e"/>
                </g>
                <path id="Trazado_627563" data-name="Trazado 627563" d="M741.263,2074.059a6.013,6.013,0,0,0-4.174,1.863,6.317,6.317,0,0,0-1.715,3.688h0s-.01.177-.01.34c0,3.6,4.35,6.977,5.579,7.86a.579.579,0,0,0,.653.017c1.247-.8,5.567-3.876,5.567-7.877,0-.174-.009-.331-.011-.358a6.345,6.345,0,0,0-1.415-3.519A6.14,6.14,0,0,0,741.263,2074.059Z" transform="translate(-734.347 -2072.854)" fill="#9e9797"/>
                <path id="Trazado_627564" data-name="Trazado 627564" d="M743.8,2091.848a1.251,1.251,0,0,0-1.217,1.561c.369.3.681.53.9.685a.582.582,0,0,0,.655.016c.209-.135.5-.333.848-.587a1.24,1.24,0,0,0,.074-.42,1.256,1.256,0,0,0-1.257-1.255Z" transform="translate(-736.882 -2079.137)" fill="#e1d3ce"/>
              </g>
              <ellipse id="Elipse_7691" data-name="Elipse 7691" cx="3.29" cy="4.096" rx="3.29" ry="4.096" transform="translate(4.724 16.981)" fill="#efe2dd"/>
              <path id="Trazado_627565" data-name="Trazado 627565" d="M749.13,2103.389a1.128,1.128,0,0,0-.029,1.952,5.073,5.073,0,0,0,.029-1.952Z" transform="translate(-737.906 -2083.213)" fill="#e1d3ce"/>
              <path id="Trazado_627566" data-name="Trazado 627566" d="M739.507,2105.341a1.126,1.126,0,0,0-.029-1.952,5.129,5.129,0,0,0-.08.9,5.015,5.015,0,0,0,.109,1.051Z" transform="translate(-734.674 -2083.213)" fill="#e1d3ce"/>
              <g id="Grupo_950074" data-name="Grupo 950074" transform="translate(9.693 16.248)">
                <path id="Trazado_627567" data-name="Trazado 627567" d="M751.525,2097.317a4.6,4.6,0,0,1-1.014,3.788,4.32,4.32,0,0,1-1.977,1.251,1.128,1.128,0,1,1-.655-2.158,2.077,2.077,0,0,0,.948-.592,2.364,2.364,0,0,0,.477-1.9Z" transform="translate(-747.079 -2097.317)" fill="#9e9797"/>
              </g>
              <g id="Grupo_950075" data-name="Grupo 950075" transform="translate(1.826 16.248)">
                <path id="Trazado_627568" data-name="Trazado 627568" d="M734.985,2097.317A4.609,4.609,0,0,0,736,2101.1a4.321,4.321,0,0,0,1.976,1.251,1.128,1.128,0,1,0,.656-2.158,2.075,2.075,0,0,1-.948-.592,2.365,2.365,0,0,1-.477-1.9Z" transform="translate(-734.918 -2097.317)" fill="#9e9797"/>
              </g>
            </g>
          </g>
          <path id="Trazado_627569" data-name="Trazado 627569" d="M737,2076.829a.477.477,0,0,0,.352-.886,2.74,2.74,0,0,0-1.017-.195h-.023a2.733,2.733,0,0,0-.995.2.476.476,0,0,0,.352.885,1.793,1.793,0,0,1,1.332,0Zm16.329,5.325a5.329,5.329,0,0,0-5.323,5.323v1.908a2.475,2.475,0,0,1-1.594,2.308,7.123,7.123,0,0,0-.152-1.385,28.82,28.82,0,0,0-2.354-6.794.476.476,0,0,0-.854.423c.3.607.583,1.234.838,1.862.1.239.19.479.279.72a4.107,4.107,0,0,1-.911,3.326,3.853,3.853,0,0,1-1.759,1.112.668.668,0,0,1-.19.029.656.656,0,0,1-.623-.463.651.651,0,0,1,.434-.813,2.558,2.558,0,0,0,1.164-.732,2.853,2.853,0,0,0,.591-2.3.476.476,0,0,0-.938.165,1.912,1.912,0,0,1-.364,1.5c-.025.028-.051.053-.078.079a3.394,3.394,0,0,0-5.985,0c-.025-.024-.05-.049-.074-.076a1.915,1.915,0,0,1-.364-1.5.476.476,0,1,0-.938-.165,2.854,2.854,0,0,0,.59,2.3,2.56,2.56,0,0,0,1.165.732.652.652,0,0,1-.189,1.275.664.664,0,0,1-.19-.028l-.122-.04-.009,0a3.829,3.829,0,0,1-1.627-1.069,4.113,4.113,0,0,1-.908-3.348q.131-.351.271-.7a27.686,27.686,0,0,1,1.551-3.2,20.577,20.577,0,0,0,3.574,3.109.477.477,0,0,0,.5.015,17.156,17.156,0,0,0,3.043-2.36,13.518,13.518,0,0,0,1.235-1.372,5.308,5.308,0,0,1,1.878.787.476.476,0,1,0,.529-.792,6.28,6.28,0,0,0-1.813-.832,8.482,8.482,0,0,0,.964-2.026,4.29,4.29,0,0,1,.746.152.476.476,0,0,0,.273-.913,5.248,5.248,0,0,0-.8-.172,6.2,6.2,0,0,0-.074-2.337,4.761,4.761,0,1,0-4.792-4.826,5.136,5.136,0,0,0-2.86.013,4.762,4.762,0,1,0-6.177,4.6.476.476,0,1,0,.283-.909,3.81,3.81,0,1,1,4.932-3.358,6.853,6.853,0,0,0-2.125,1.488,3.423,3.423,0,0,1-2.776,5.4.476.476,0,1,0,.225.925,5.038,5.038,0,0,1,1.012-.138,8.816,8.816,0,0,0,1.059,2.07,6.284,6.284,0,0,0-1.929.861.476.476,0,0,0,.529.792,5.318,5.318,0,0,1,1.781-.767l.019,0a28.888,28.888,0,0,0-3.16,8.3,7.024,7.024,0,0,0,1.054,5.389,2.28,2.28,0,0,0-1.788,2.223.921.921,0,0,0,.92.921H734.1a1.607,1.607,0,0,0,1.112-.451,7.174,7.174,0,0,0,2.509.451h1.569a7.129,7.129,0,0,0,2.507-.453,1.605,1.605,0,0,0,1.114.453h3.165a.921.921,0,0,0,.92-.921,2.28,2.28,0,0,0-1.785-2.222,7.032,7.032,0,0,0,.561-.994,5.33,5.33,0,0,0,5.092-5.318v-1.907a2.47,2.47,0,0,1,2.467-2.467,1.428,1.428,0,1,0,0-2.857Zm-14.056,2.067c-.314.228-.576.4-.754.516-.184-.131-.461-.335-.792-.6,0-.015,0-.03,0-.045a.78.78,0,0,1,1.561,0A.727.727,0,0,1,739.273,2084.221Zm5.422-16.936a3.81,3.81,0,0,1,0,7.619c-.089,0-.177,0-.264-.009a6.749,6.749,0,0,0-1.093-1.861,6.145,6.145,0,0,0-2.446-1.71A3.812,3.812,0,0,1,744.7,2067.285Zm-11.2,11.844c.108.02.218.044.329.073a4.826,4.826,0,0,1,1.545.711.476.476,0,0,0,.543-.783,5.74,5.74,0,0,0-2.735-1.007,4.852,4.852,0,0,1,1.495-4.6,5.37,5.37,0,0,1,5.569-1.427,4.952,4.952,0,0,1,2.376,1.559,5.9,5.9,0,0,1,1.015,1.828l.008.021a5.23,5.23,0,0,1,.2,2.646,5.012,5.012,0,0,0-.886.124,5.1,5.1,0,0,0-1.87.86.476.476,0,1,0,.563.769,4.146,4.146,0,0,1,1.523-.7c.137-.031.271-.055.4-.072a7.936,7.936,0,0,1-.976,1.825,6.339,6.339,0,0,0-1.277-.005.476.476,0,1,0,.093.948c.154-.015.307-.022.461-.024a15,15,0,0,1-1.728,1.668,1.733,1.733,0,0,0-3.25-.1,18.406,18.406,0,0,1-1.583-1.563c.093,0,.186.01.279.019a.476.476,0,1,0,.093-.948,6.269,6.269,0,0,0-1.135-.007,8.8,8.8,0,0,1-1.057-1.816Zm3.741,11.671a1.605,1.605,0,0,0-.881-1.93,2.6,2.6,0,0,1,2.148-1.287,2.637,2.637,0,0,1,2.149,1.289,1.6,1.6,0,0,0,.606,3.065,3.954,3.954,0,0,1-.837,1.909,2.373,2.373,0,0,1-3.836,0,3.96,3.96,0,0,1-.836-1.909,1.6,1.6,0,0,0,1.487-1.137Zm-3.138,7.089h-3.133a1.326,1.326,0,0,1,1.324-1.292h.23a7.087,7.087,0,0,0,1.623,1.289A.417.417,0,0,1,734.1,2097.889Zm11.943,0H742.91c-.016,0-.032,0-.048,0a7.168,7.168,0,0,0,1.629-1.289h.228A1.325,1.325,0,0,1,746.042,2097.889Zm-6.754,0H737.72a6.144,6.144,0,0,1-6.04-7.385q.178-.848.412-1.687a4.621,4.621,0,0,0,.95,1.663,4.747,4.747,0,0,0,1.719,1.219c.2,2.31,1.8,4.076,3.743,4.076s3.54-1.765,3.743-4.074a4.753,4.753,0,0,0,1.724-1.22,4.626,4.626,0,0,0,.948-1.655c.154.556.292,1.116.409,1.679a6.174,6.174,0,0,1-6.039,7.385Zm14.041-13.83a3.422,3.422,0,0,0-3.418,3.418v1.908a4.378,4.378,0,0,1-3.772,4.329,6.934,6.934,0,0,0,.212-1.008,3.427,3.427,0,0,0,2.607-3.322v-1.907a4.377,4.377,0,0,1,4.371-4.372.476.476,0,1,1,0,.953Zm-13.321-7.229a1.8,1.8,0,0,1,.651-.128h.015a1.79,1.79,0,0,1,.666.128.476.476,0,0,0,.352-.885,2.753,2.753,0,0,0-2.036,0,.477.477,0,0,0,.352.886Z" transform="translate(-727.552 -2066.333)"/>
        </g>
      </g>
    </g>
  </g>
</svg>
