<svg xmlns="http://www.w3.org/2000/svg" width="62" height="62" viewBox="0 0 62 62">
  <g id="impuestos" transform="translate(-1 -1)">
    <g id="Grupo_974561" data-name="Grupo 974561">
      <g id="Grupo_974543" data-name="Grupo 974543">
        <path id="Trazado_651906" data-name="Trazado 651906" d="M50,34v6.05A10.988,10.988,0,0,0,40,51a11.159,11.159,0,0,0,.2,2.1L30,48l10-7,4-2.8Z" fill="#dfb28b"/>
      </g>
      <g id="Grupo_974544" data-name="Grupo 974544">
        <path id="Trazado_651907" data-name="Trazado 651907" d="M22,48,2,58V34l6,4.2L12,41Z" fill="#dfb28b"/>
      </g>
      <g id="Grupo_974545" data-name="Grupo 974545">
        <path id="Trazado_651908" data-name="Trazado 651908" d="M42.51,58H2L22,48h8l10.2,5.1A10.856,10.856,0,0,0,42.51,58Z" fill="#d3a06c"/>
      </g>
      <g id="Grupo_974546" data-name="Grupo 974546">
        <path id="Trazado_651909" data-name="Trazado 651909" d="M50,34l-6,4.2V28Z" fill="#cf9e76"/>
      </g>
      <g id="Grupo_974547" data-name="Grupo 974547">
        <path id="Trazado_651910" data-name="Trazado 651910" d="M8,28V38.2L2,34Z" fill="#cf9e76"/>
      </g>
      <g id="Grupo_974548" data-name="Grupo 974548">
        <path id="Trazado_651911" data-name="Trazado 651911" d="M44,10V20.25l-4-1.5V10H21.8A9.971,9.971,0,0,0,20,6H44Z" fill="#e6e9ed"/>
      </g>
      <g id="Grupo_974549" data-name="Grupo 974549">
        <path id="Trazado_651912" data-name="Trazado 651912" d="M41.13,24.85,44,25.7V38.2L40,41V26H12V41L8,38.2V21.16A9.881,9.881,0,0,0,12,22H34Z" fill="#e6e9ed"/>
      </g>
      <g id="Grupo_974550" data-name="Grupo 974550">
        <path id="Trazado_651913" data-name="Trazado 651913" d="M58,13h4V23H58Z" fill="#b4dd7f"/>
      </g>
      <g id="Grupo_974551" data-name="Grupo 974551">
        <path id="Trazado_651914" data-name="Trazado 651914" d="M44,20.25V10h2a13.669,13.669,0,0,1,3.92.57L58,13V23l-5.28,1.98A16.16,16.16,0,0,1,47.09,26c-.04,0-.08,0-3.09-.3l-2.87-.85L34,22v-.61A3.393,3.393,0,0,1,37.39,18a3.206,3.206,0,0,1,1.18.22l1.43.53Z" fill="#f0d0b4"/>
      </g>
      <g id="Grupo_974552" data-name="Grupo 974552">
        <path id="Trazado_651915" data-name="Trazado 651915" d="M40,10v8.75l-1.43-.53A3.206,3.206,0,0,0,37.39,18,3.393,3.393,0,0,0,34,21.39V22H12a10.009,10.009,0,0,0,9.8-12Z" fill="#ff826e"/>
      </g>
      <g id="Grupo_974553" data-name="Grupo 974553">
        <path id="Trazado_651916" data-name="Trazado 651916" d="M40,30V41L30,48H22L12,41V30H40Z" fill="#ffeaa7"/>
      </g>
      <g id="Grupo_974554" data-name="Grupo 974554">
        <path id="Trazado_651917" data-name="Trazado 651917" d="M34,26h6v4H34Z" fill="#b4dd7f"/>
      </g>
      <g id="Grupo_974555" data-name="Grupo 974555">
        <path id="Trazado_651918" data-name="Trazado 651918" d="M18,26H34v4H18Z" fill="#fcd770"/>
      </g>
      <g id="Grupo_974556" data-name="Grupo 974556">
        <path id="Trazado_651919" data-name="Trazado 651919" d="M21.8,10A10.009,10.009,0,0,1,12,22a9.881,9.881,0,0,1-4-.84A10,10,0,1,1,21.8,10Z" fill="#fcd770"/>
      </g>
      <g id="Grupo_974557" data-name="Grupo 974557">
        <path id="Trazado_651920" data-name="Trazado 651920" d="M12,26h6v4H12Z" fill="#ff826e"/>
      </g>
      <g id="Grupo_974558" data-name="Grupo 974558">
        <path id="Trazado_651921" data-name="Trazado 651921" d="M51,40a11,11,0,1,1-8.49,18,10.856,10.856,0,0,1-2.31-4.9A11.159,11.159,0,0,1,40,51,10.988,10.988,0,0,1,50,40.05C50.33,40.02,50.66,40,51,40Z" fill="#e6e9ed"/>
      </g>
      <g id="Grupo_974559" data-name="Grupo 974559">
        <circle id="Elipse_7799" data-name="Elipse 7799" cx="2" cy="2" r="2" transform="translate(54 51)" fill="#ff826e"/>
      </g>
      <g id="Grupo_974560" data-name="Grupo 974560">
        <circle id="Elipse_7800" data-name="Elipse 7800" cx="2" cy="2" r="2" transform="translate(44 47)" fill="#ff826e"/>
      </g>
    </g>
    <g id="Grupo_974562" data-name="Grupo 974562">
      <path id="Trazado_651922" data-name="Trazado 651922" d="M47.09,27a16.99,16.99,0,0,0,5.986-1.085L58.182,24H63V12H58.147L50.2,9.616A14.623,14.623,0,0,0,46,9H45V5H20.479A10.994,10.994,0,1,0,7,21.786v5.8l-6,6V59H42.081A11.992,11.992,0,1,0,51,39V33.586l-6-6v-.73A16.905,16.905,0,0,0,47.09,27ZM59,14h2v8H59ZM46,11a12.634,12.634,0,0,1,3.629.532L57,13.744v8.563l-4.627,1.735A15.113,15.113,0,0,1,41.5,23.924l-6.5-2.6a2.386,2.386,0,0,1,3.223-2.171l7.757,2.908,3.336-1.112-.633-1.9-2.664.888L45,19.557V11ZM35,43.279V31h4v9.479ZM29.685,47H27V31h6V44.679Zm-9.634.856L3,56.382V35.921ZM39,29H35V27h4Zm-6,0H19V27H33ZM17,29H13V27h4Zm-4,2h4V43.279l-4-2.8Zm9.315,16L19,44.679V31h6V47ZM33.039,21H18.3A10.99,10.99,0,0,0,23,12c0-.338-.021-.67-.051-1H39v6.307l-.074-.028A4.367,4.367,0,0,0,33.039,21ZM43,7V18.807l-2-.75V9H22.574a10.9,10.9,0,0,0-.788-2ZM3,12a9,9,0,1,1,9,9A9.01,9.01,0,0,1,3,12Zm9,11H33.808l5,2H11V39.079l-2-1.4v-15.1A10.966,10.966,0,0,0,12,23ZM7,36.279,3.55,33.864,7,30.414ZM6.236,57l16-8h7.527l9.577,4.788A11.9,11.9,0,0,0,40.623,57ZM61,51A10,10,0,1,1,51,41,10.011,10.011,0,0,1,61,51ZM39,51c0,.132.016.261.02.392l-7.071-3.535L49,35.921v3.26A12.009,12.009,0,0,0,39,51Zm9.45-17.136L45,36.279V30.414ZM43,37.679l-2,1.4V25.864a16.974,16.974,0,0,0,2,.619Z"/>
      <path id="Trazado_651923" data-name="Trazado 651923" d="M13,19V17a3,3,0,0,0,0-6H11a1,1,0,0,1,0-2h2a1,1,0,0,1,1,1h2a3,3,0,0,0-3-3V5H11V7a3,3,0,0,0,0,6h2a1,1,0,0,1,0,2H11a1,1,0,0,1-1-1H8a3,3,0,0,0,3,3v2Z"/>
      <path id="Trazado_651924" data-name="Trazado 651924" d="M43.72,50H58.28v2H43.72Z" transform="translate(-12.049 86.027) rotate(-74.047)"/>
      <path id="Trazado_651925" data-name="Trazado 651925" d="M53,53a3,3,0,1,0,3-3A3,3,0,0,0,53,53Zm3-1a1,1,0,1,1-1,1A1,1,0,0,1,56,52Z"/>
      <path id="Trazado_651926" data-name="Trazado 651926" d="M49,49a3,3,0,1,0-3,3A3,3,0,0,0,49,49Zm-3,1a1,1,0,1,1,1-1A1,1,0,0,1,46,50Z"/>
    </g>
  </g>
</svg>
