<svg xmlns="http://www.w3.org/2000/svg" width="77.574" height="76.737" viewBox="0 0 77.574 76.737">
  <g id="recursos-naturales" transform="translate(0 -2.763)">
    <g id="Grupo_974123" data-name="Grupo 974123" transform="translate(1.136 3.9)">
      <path id="Trazado_651469" data-name="Trazado 651469" d="M215.994,11.023v61.3a.758.758,0,0,0,.758.758h42.2a.758.758,0,0,0,.758-.758v-61.3a.758.758,0,0,0-.758-.758h-42.2a.757.757,0,0,0-.758.758Z" transform="translate(-184.405 -10.265)" fill="#a87c72"/>
      <path id="Trazado_651470" data-name="Trazado 651470" d="M476.591,10.265H472.5a.758.758,0,0,1,.758.758v61.3a.758.758,0,0,1-.758.758h4.091a.758.758,0,0,0,.758-.758v-61.3a.757.757,0,0,0-.758-.758Z" transform="translate(-402.047 -10.265)" fill="#9a695e"/>
      <ellipse id="Elipse_7771" data-name="Elipse 7771" cx="3.231" cy="4.275" rx="3.231" ry="4.275" transform="translate(56.483 30.574)" fill="#9a695e"/>
      <path id="Trazado_651471" data-name="Trazado 651471" d="M65.794,128.516v5.612H74.96v-5.612a.758.758,0,0,0-.758-.758H66.552A.758.758,0,0,0,65.794,128.516Z" transform="translate(-56.962 -109.956)" fill="#e9a52d"/>
      <path id="Trazado_651472" data-name="Trazado 651472" d="M99.228,127.758H95.289a.758.758,0,0,1,.758.758v5.612h3.939v-5.612A.758.758,0,0,0,99.228,127.758Z" transform="translate(-81.988 -109.956)" fill="#e38523"/>
      <path id="Trazado_651473" data-name="Trazado 651473" d="M7.5,174.055v-1.6a2.661,2.661,0,0,1,2.661-2.661h41.46a2.661,2.661,0,0,1,2.661,2.661v1.6a2.661,2.661,0,0,1-2.661,2.661H10.161A2.661,2.661,0,0,1,7.5,174.055Z" transform="translate(-7.5 -145.624)" fill="#91dafa"/>
      <path id="Trazado_651474" data-name="Trazado 651474" d="M273.246,169.795H268.7a2.661,2.661,0,0,1,2.661,2.661v1.6a2.661,2.661,0,0,1-2.661,2.661h4.545a2.661,2.661,0,0,0,2.661-2.661v-1.6A2.661,2.661,0,0,0,273.246,169.795Z" transform="translate(-229.126 -145.624)" fill="#6cbff8"/>
      <path id="Trazado_651475" data-name="Trazado 651475" d="M7.5,448.538v-1.6a2.661,2.661,0,0,1,2.661-2.661h41.46a2.661,2.661,0,0,1,2.661,2.661v1.6a2.661,2.661,0,0,1-2.661,2.661H10.161A2.661,2.661,0,0,1,7.5,448.538Z" transform="translate(-7.5 -378.52)" fill="#91dafa"/>
      <path id="Trazado_651476" data-name="Trazado 651476" d="M34.712,215.474H73.247v34.667H34.712Z" transform="translate(-30.589 -184.382)" fill="#5392f9"/>
      <path id="Trazado_651477" data-name="Trazado 651477" d="M259.049,215.474h4.545v34.667h-4.545Z" transform="translate(-220.936 -184.382)" fill="#4071f7"/>
      <path id="Trazado_651478" data-name="Trazado 651478" d="M248.94,355.3c-6.4,0-16.021,13.721-19.839,19.583a1.732,1.732,0,0,0,1.64,2.6h36.4a1.732,1.732,0,0,0,1.64-2.6C264.962,369.019,255.341,355.3,248.94,355.3Z" transform="translate(-195.299 -303.021)" fill="#f7f3f1"/>
      <path id="Trazado_651479" data-name="Trazado 651479" d="M368.652,374.88c-3.818-5.862-13.439-19.583-19.839-19.583a6.145,6.145,0,0,0-2.273.493c6.222,2.5,14.179,13.888,17.567,19.09a1.732,1.732,0,0,1-1.64,2.6h4.545A1.732,1.732,0,0,0,368.652,374.88Z" transform="translate(-295.171 -303.02)" fill="#ebe1dc"/>
      <path id="Trazado_651480" data-name="Trazado 651480" d="M131.681,281.186s-5.392,5.767-5.392,9.362a5.392,5.392,0,1,0,10.785,0C137.074,286.953,131.681,281.186,131.681,281.186Z" transform="translate(-108.291 -240.138)" fill="#f7f3f1"/>
    </g>
    <g id="Grupo_974124" data-name="Grupo 974124" transform="translate(0 2.763)">
      <path id="Trazado_651481" data-name="Trazado 651481" d="M76.438,14.266a1.136,1.136,0,0,0,1.136-1.136V4.657A1.9,1.9,0,0,0,75.68,2.763h-42.2a1.9,1.9,0,0,0-1.894,1.894V26.935H20.271V22.459a1.9,1.9,0,0,0-1.894-1.894H10.726a1.9,1.9,0,0,0-1.894,1.894v4.475H3.8a3.8,3.8,0,0,0-3.8,3.8v1.6a3.8,3.8,0,0,0,3.8,3.8h.326V46.494a1.136,1.136,0,1,0,2.273,0V36.128H42.658V63.451c-1.429,1.644-2.8,3.379-4.066,5.071H6.4V51.8a1.136,1.136,0,1,0-2.273,0V68.522H3.8a3.8,3.8,0,0,0-3.8,3.8v1.6a3.8,3.8,0,0,0,3.8,3.8H33.762A3.034,3.034,0,0,0,36.579,79.5h36.4a3.055,3.055,0,0,0,2.71-1.562,2.7,2.7,0,0,0-.117-2.8c-1.32-2.026-3.09-4.625-5.108-7.284H75.68a1.9,1.9,0,0,0,1.894-1.894V18.432a1.136,1.136,0,1,0-2.273,0V65.583H68.682C68,64.74,67.3,63.906,66.587,63.1c.385-2.3.985-4.656,1.621-7.142,1.277-5,2.725-10.656,2.694-17.291-.029-6.011-1.435-11.105-2.8-16.032-1.55-5.614-3.016-10.933-2.66-17.6H75.3v8.094a1.136,1.136,0,0,0,1.136,1.136ZM33.862,5.036H40.5c.8,6.622.6,14.666.313,21.9h-6.95ZM11.1,22.838H18v4.1H11.1ZM2.273,32.331v-1.6A1.526,1.526,0,0,1,3.8,29.207h41.46a1.526,1.526,0,0,1,1.524,1.524v1.6a1.526,1.526,0,0,1-1.524,1.524H3.8a1.526,1.526,0,0,1-1.524-1.524Zm42.984,3.8a3.8,3.8,0,0,0,3.8-3.8v-1.6a3.8,3.8,0,0,0-3.8-3.8H43.086c.289-7.2.479-15.2-.3-21.9h7.575c2.568,9.5,2.287,16.354,1.9,25.742a217.188,217.188,0,0,0,.072,24.736c-2.166.8-4.617,2.606-7.4,5.461V36.128ZM2.273,73.919v-1.6A1.526,1.526,0,0,1,3.8,70.795H36.939c-.389.548-2.831,4.051-3.125,4.648H3.8a1.526,1.526,0,0,1-1.524-1.524Zm71.416,2.936a.784.784,0,0,1-.712.372h-36.4c-.524,0-.956-.436-.688-.848,3.23-4.959,13-19.066,18.887-19.066S70.435,71.42,73.665,76.38a.434.434,0,0,1,.024.476ZM65.916,23.237c1.381,5,2.686,9.73,2.713,15.438.03,6.342-1.319,11.616-2.623,16.717-.494,1.933-.967,3.79-1.342,5.624-2.53-2.6-6.438-6.094-10.082-5.97a215.933,215.933,0,0,1-.049-24.174c.373-9.047.669-16.285-1.82-25.836H63.171c-.348,6.992,1.223,12.686,2.745,18.2Z" transform="translate(0 -2.763)"/>
      <path id="Trazado_651482" data-name="Trazado 651482" d="M372.792,209.97c0,2.984,1.959,5.411,4.368,5.411s4.368-2.427,4.368-5.411-1.959-5.411-4.368-5.411S372.792,206.986,372.792,209.97Zm6.463,0c0,1.7-.959,3.138-2.1,3.138s-2.1-1.437-2.1-3.138.96-3.138,2.1-3.138S379.255,208.269,379.255,209.97Z" transform="translate(-316.309 -173.984)"/>
      <path id="Trazado_651483" data-name="Trazado 651483" d="M125.318,290.713a6.536,6.536,0,0,1-6.529-6.529c0-1.732.978-3.983,2.907-6.689a37.118,37.118,0,0,1,2.792-3.449,1.136,1.136,0,0,1,1.66,0,37.143,37.143,0,0,1,2.792,3.449c1.929,2.706,2.907,4.957,2.907,6.689A6.536,6.536,0,0,1,125.318,290.713Zm0-14.173c-1.668,1.97-4.253,5.483-4.253,7.645a4.256,4.256,0,0,0,8.512,0c0-1.211-.877-3.11-2.471-5.349-.646-.907-1.3-1.714-1.788-2.3Z" transform="translate(-100.791 -232.638)"/>
    </g>
  </g>
</svg>
