<svg xmlns="http://www.w3.org/2000/svg" width="62.39" height="63.5" viewBox="0 0 62.39 63.5">
  <g id="calcular-impuestos" transform="translate(-1.81 -1.25)">
    <g id="Grupo_974499" data-name="Grupo 974499">
      <g id="Grupo_974471" data-name="Grupo 974471">
        <path id="Trazado_651850" data-name="Trazado 651850" d="M47.13,2V64H2.56V15.42L15.97,2Z" fill="#e2e2e2"/>
      </g>
      <g id="Grupo_974472" data-name="Grupo 974472" opacity="0.5">
        <path id="Trazado_651851" data-name="Trazado 651851" d="M47.13,2V37.05A31.645,31.645,0,0,1,15.49,5.41V2Z" fill="#fff"/>
      </g>
      <g id="Grupo_974473" data-name="Grupo 974473">
        <path id="Trazado_651852" data-name="Trazado 651852" d="M15.97,2,2.56,15.42H15.97Z" fill="#4e6575"/>
      </g>
      <g id="Grupo_974474" data-name="Grupo 974474" opacity="0.5">
        <path id="Trazado_651853" data-name="Trazado 651853" d="M47.12,18.59,47.13,2H27.51a4.2,4.2,0,0,0,4.2,4.2h11.2v8.18a4.217,4.217,0,0,0,4.21,4.21Z" fill="#fff"/>
      </g>
      <g id="Grupo_974475" data-name="Grupo 974475">
        <path id="Trazado_651854" data-name="Trazado 651854" d="M63.44,25.32V62.68A1.319,1.319,0,0,1,62.12,64H36.69a1.319,1.319,0,0,1-1.32-1.32V25.32A1.319,1.319,0,0,1,36.69,24H62.13A1.317,1.317,0,0,1,63.44,25.32Z" fill="#4e6575"/>
      </g>
      <g id="Grupo_974476" data-name="Grupo 974476" opacity="0.3">
        <path id="Trazado_651855" data-name="Trazado 651855" d="M63.44,25.32V51.48A20.381,20.381,0,0,1,43.06,31.1V24H62.12a1.319,1.319,0,0,1,1.32,1.32Z" fill="#fff"/>
      </g>
      <g id="Grupo_974477" data-name="Grupo 974477">
        <path id="Trazado_651856" data-name="Trazado 651856" d="M38.28,27.42H60.53v8.13H38.28Z" fill="#7cb5e8"/>
      </g>
      <g id="Grupo_974478" data-name="Grupo 974478" opacity="0.3">
        <path id="Trazado_651857" data-name="Trazado 651857" d="M60.53,27.42v4.72H47.35a4.716,4.716,0,0,1-4.72-4.72Z" fill="#fff"/>
      </g>
      <g id="Grupo_974479" data-name="Grupo 974479">
        <path id="Trazado_651858" data-name="Trazado 651858" d="M43.97,55.6v4.55a.57.57,0,0,1-.57.57H38.85a.57.57,0,0,1-.57-.57V55.6a.57.57,0,0,1,.57-.57H43.4A.57.57,0,0,1,43.97,55.6Z" fill="#e2e2e2"/>
      </g>
      <g id="Grupo_974480" data-name="Grupo 974480">
        <path id="Trazado_651859" data-name="Trazado 651859" d="M52.25,55.6v4.55a.57.57,0,0,1-.57.57H47.13a.57.57,0,0,1-.57-.57V55.6a.57.57,0,0,1,.57-.57h4.55A.563.563,0,0,1,52.25,55.6Z" fill="#e2e2e2"/>
      </g>
      <g id="Grupo_974481" data-name="Grupo 974481">
        <path id="Trazado_651860" data-name="Trazado 651860" d="M60.54,47.35v12.8a.57.57,0,0,1-.57.57H55.42a.57.57,0,0,1-.57-.57V47.35a.57.57,0,0,1,.57-.57h4.55A.57.57,0,0,1,60.54,47.35Z" fill="#ef4a51"/>
      </g>
      <g id="Grupo_974482" data-name="Grupo 974482">
        <path id="Trazado_651861" data-name="Trazado 651861" d="M43.97,47.35V51.9a.57.57,0,0,1-.57.57H38.85a.57.57,0,0,1-.57-.57V47.35a.57.57,0,0,1,.57-.57H43.4A.57.57,0,0,1,43.97,47.35Z" fill="#e2e2e2"/>
      </g>
      <g id="Grupo_974483" data-name="Grupo 974483">
        <path id="Trazado_651862" data-name="Trazado 651862" d="M52.25,47.35V51.9a.57.57,0,0,1-.57.57H47.13a.57.57,0,0,1-.57-.57V47.35a.57.57,0,0,1,.57-.57h4.55A.563.563,0,0,1,52.25,47.35Z" fill="#e2e2e2"/>
      </g>
      <g id="Grupo_974484" data-name="Grupo 974484">
        <path id="Trazado_651863" data-name="Trazado 651863" d="M43.97,39.09v4.55a.57.57,0,0,1-.57.57H38.85a.57.57,0,0,1-.57-.57V39.09a.57.57,0,0,1,.57-.57H43.4A.576.576,0,0,1,43.97,39.09Z" fill="#e2e2e2"/>
      </g>
      <g id="Grupo_974485" data-name="Grupo 974485">
        <path id="Trazado_651864" data-name="Trazado 651864" d="M52.25,39.09v4.55a.57.57,0,0,1-.57.57H47.13a.57.57,0,0,1-.57-.57V39.09a.57.57,0,0,1,.57-.57h4.55A.57.57,0,0,1,52.25,39.09Z" fill="#e2e2e2"/>
      </g>
      <g id="Grupo_974486" data-name="Grupo 974486">
        <path id="Trazado_651865" data-name="Trazado 651865" d="M60.54,39.09v4.55a.57.57,0,0,1-.57.57H55.42a.57.57,0,0,1-.57-.57V39.09a.57.57,0,0,1,.57-.57h4.55A.576.576,0,0,1,60.54,39.09Z" fill="#e2e2e2"/>
      </g>
      <g id="Grupo_974487" data-name="Grupo 974487" opacity="0.3">
        <path id="Trazado_651866" data-name="Trazado 651866" d="M60.54,34.92V29.31a1.9,1.9,0,0,0-1.9-1.9H48.76a1.635,1.635,0,0,0,1.64,1.64h8.5v4.23a1.635,1.635,0,0,0,1.64,1.64Z" fill="#fff"/>
      </g>
      <g id="Grupo_974489" data-name="Grupo 974489">
        <g id="Grupo_974488" data-name="Grupo 974488">
          <circle id="Elipse_7798" data-name="Elipse 7798" cx="7.32" cy="7.32" r="7.32" transform="translate(6.996 37.045) rotate(-45)" fill="#ffab03"/>
        </g>
      </g>
      <g id="Grupo_974490" data-name="Grupo 974490" opacity="0.3">
        <path id="Trazado_651867" data-name="Trazado 651867" d="M17.35,29.72a7.351,7.351,0,0,0-4.58,1.61,7.616,7.616,0,0,0-.2,1.66,7.32,7.32,0,0,0,11.9,5.71,7.616,7.616,0,0,0,.2-1.66,7.323,7.323,0,0,0-7.32-7.32Z" fill="#fff"/>
      </g>
      <g id="Grupo_974491" data-name="Grupo 974491" opacity="0.5">
        <path id="Trazado_651868" data-name="Trazado 651868" d="M59.97,38.52H56.84v3.13a.57.57,0,0,0,.57.57h3.13V39.09A.576.576,0,0,0,59.97,38.52Z" fill="#fff"/>
      </g>
      <g id="Grupo_974492" data-name="Grupo 974492" opacity="0.5">
        <path id="Trazado_651869" data-name="Trazado 651869" d="M51.68,38.52H48.55v3.13a.57.57,0,0,0,.57.57h3.13V39.09A.57.57,0,0,0,51.68,38.52Z" fill="#fff"/>
      </g>
      <g id="Grupo_974493" data-name="Grupo 974493" opacity="0.5">
        <path id="Trazado_651870" data-name="Trazado 651870" d="M43.4,38.52H40.27v3.13a.57.57,0,0,0,.57.57h3.13V39.09A.576.576,0,0,0,43.4,38.52Z" fill="#fff"/>
      </g>
      <g id="Grupo_974494" data-name="Grupo 974494" opacity="0.5">
        <path id="Trazado_651871" data-name="Trazado 651871" d="M51.68,46.78H48.55v3.13a.57.57,0,0,0,.57.57h3.13V47.35A.563.563,0,0,0,51.68,46.78Z" fill="#fff"/>
      </g>
      <g id="Grupo_974495" data-name="Grupo 974495" opacity="0.5">
        <path id="Trazado_651872" data-name="Trazado 651872" d="M43.4,46.78H40.27v3.13a.57.57,0,0,0,.57.57h3.13V47.35A.57.57,0,0,0,43.4,46.78Z" fill="#fff"/>
      </g>
      <g id="Grupo_974496" data-name="Grupo 974496" opacity="0.5">
        <path id="Trazado_651873" data-name="Trazado 651873" d="M51.68,55.03H48.55v3.13a.57.57,0,0,0,.57.57h3.13V55.6A.563.563,0,0,0,51.68,55.03Z" fill="#fff"/>
      </g>
      <g id="Grupo_974497" data-name="Grupo 974497" opacity="0.3">
        <path id="Trazado_651874" data-name="Trazado 651874" d="M59.97,46.78H56.84v9.53a.57.57,0,0,0,.57.57h3.13V47.35A.57.57,0,0,0,59.97,46.78Z" fill="#fff"/>
      </g>
      <g id="Grupo_974498" data-name="Grupo 974498" opacity="0.5">
        <path id="Trazado_651875" data-name="Trazado 651875" d="M43.4,55.03H40.27v3.13a.57.57,0,0,0,.57.57h3.13V55.6A.57.57,0,0,0,43.4,55.03Z" fill="#fff"/>
      </g>
    </g>
    <g id="Grupo_974542" data-name="Grupo 974542">
      <g id="Grupo_974500" data-name="Grupo 974500">
        <path id="Trazado_651876" data-name="Trazado 651876" d="M15.97,16.17H2.56a.741.741,0,0,1-.69-.46.757.757,0,0,1,.16-.82L15.44,1.47a.753.753,0,0,1,.82-.16.741.741,0,0,1,.46.69V15.42a.749.749,0,0,1-.75.75Zm-11.6-1.5H15.23V3.81Z"/>
      </g>
      <g id="Grupo_974501" data-name="Grupo 974501">
        <path id="Trazado_651877" data-name="Trazado 651877" d="M37.51,64.75H2.56A.755.755,0,0,1,1.81,64V50.08a.75.75,0,0,1,1.5,0V63.25h34.2a.75.75,0,0,1,0,1.5Z"/>
      </g>
      <g id="Grupo_974502" data-name="Grupo 974502">
        <path id="Trazado_651878" data-name="Trazado 651878" d="M47.13,24.75a.755.755,0,0,1-.75-.75V14.47a.75.75,0,1,1,1.5,0V24A.755.755,0,0,1,47.13,24.75Z"/>
      </g>
      <g id="Grupo_974503" data-name="Grupo 974503">
        <path id="Trazado_651879" data-name="Trazado 651879" d="M2.56,46.26a.755.755,0,0,1-.75-.75V15.42a.749.749,0,0,1,.22-.53L15.44,1.47a.749.749,0,0,1,.53-.22H47.12a.755.755,0,0,1,.75.75v9.19a.75.75,0,0,1-1.5,0V2.75H16.28L3.31,15.73V45.51a.755.755,0,0,1-.75.75Z"/>
      </g>
      <g id="Grupo_974518" data-name="Grupo 974518">
        <g id="Grupo_974507" data-name="Grupo 974507">
          <g id="Grupo_974504" data-name="Grupo 974504">
            <path id="Trazado_651880" data-name="Trazado 651880" d="M43.4,61.47H38.85a1.319,1.319,0,0,1-1.32-1.32V55.6a1.319,1.319,0,0,1,1.32-1.32H43.4a1.319,1.319,0,0,1,1.32,1.32v4.55A1.332,1.332,0,0,1,43.4,61.47Zm-4.37-1.5h4.19V55.78H39.03Z"/>
          </g>
          <g id="Grupo_974505" data-name="Grupo 974505">
            <path id="Trazado_651881" data-name="Trazado 651881" d="M51.68,61.47H47.13a1.319,1.319,0,0,1-1.32-1.32V55.6a1.319,1.319,0,0,1,1.32-1.32h4.55A1.319,1.319,0,0,1,53,55.6v4.55A1.319,1.319,0,0,1,51.68,61.47Zm-4.37-1.5H51.5V55.78H47.31Z"/>
          </g>
          <g id="Grupo_974506" data-name="Grupo 974506">
            <path id="Trazado_651882" data-name="Trazado 651882" d="M59.97,61.47H55.42a1.319,1.319,0,0,1-1.32-1.32V47.35a1.319,1.319,0,0,1,1.32-1.32h4.55a1.319,1.319,0,0,1,1.32,1.32v12.8A1.325,1.325,0,0,1,59.97,61.47Zm-4.37-1.5h4.19V47.53H55.6Z"/>
          </g>
        </g>
        <g id="Grupo_974510" data-name="Grupo 974510">
          <g id="Grupo_974508" data-name="Grupo 974508">
            <path id="Trazado_651883" data-name="Trazado 651883" d="M43.4,53.21H38.85a1.319,1.319,0,0,1-1.32-1.32V47.34a1.319,1.319,0,0,1,1.32-1.32H43.4a1.319,1.319,0,0,1,1.32,1.32v4.55A1.332,1.332,0,0,1,43.4,53.21Zm-4.37-1.5h4.19V47.52H39.03Z"/>
          </g>
          <g id="Grupo_974509" data-name="Grupo 974509">
            <path id="Trazado_651884" data-name="Trazado 651884" d="M51.68,53.21H47.13a1.319,1.319,0,0,1-1.32-1.32V47.34a1.319,1.319,0,0,1,1.32-1.32h4.55A1.319,1.319,0,0,1,53,47.34v4.55A1.319,1.319,0,0,1,51.68,53.21Zm-4.37-1.5H51.5V47.52H47.31Z"/>
          </g>
        </g>
        <g id="Grupo_974514" data-name="Grupo 974514">
          <g id="Grupo_974511" data-name="Grupo 974511">
            <path id="Trazado_651885" data-name="Trazado 651885" d="M43.4,44.96H38.85a1.319,1.319,0,0,1-1.32-1.32V39.09a1.319,1.319,0,0,1,1.32-1.32H43.4a1.319,1.319,0,0,1,1.32,1.32v4.55A1.332,1.332,0,0,1,43.4,44.96Zm-4.37-1.5h4.19V39.27H39.03Z"/>
          </g>
          <g id="Grupo_974512" data-name="Grupo 974512">
            <path id="Trazado_651886" data-name="Trazado 651886" d="M51.68,44.96H47.13a1.319,1.319,0,0,1-1.32-1.32V39.09a1.319,1.319,0,0,1,1.32-1.32h4.55A1.319,1.319,0,0,1,53,39.09v4.55A1.319,1.319,0,0,1,51.68,44.96Zm-4.37-1.5H51.5V39.27H47.31Z"/>
          </g>
          <g id="Grupo_974513" data-name="Grupo 974513">
            <path id="Trazado_651887" data-name="Trazado 651887" d="M59.97,44.96H55.42a1.319,1.319,0,0,1-1.32-1.32V39.09a1.319,1.319,0,0,1,1.32-1.32h4.55a1.319,1.319,0,0,1,1.32,1.32v4.55A1.325,1.325,0,0,1,59.97,44.96Zm-4.37-1.5h4.19V39.27H55.6Z"/>
          </g>
        </g>
        <g id="Grupo_974515" data-name="Grupo 974515">
          <path id="Trazado_651888" data-name="Trazado 651888" d="M62.13,64.75H36.69a2.074,2.074,0,0,1-2.07-2.07V33.46a.75.75,0,1,1,1.5,0V62.68a.57.57,0,0,0,.57.57H62.13a.57.57,0,0,0,.57-.57V59.14a.75.75,0,0,1,1.5,0v3.54a2.081,2.081,0,0,1-2.07,2.07Z"/>
        </g>
        <g id="Grupo_974516" data-name="Grupo 974516">
          <path id="Trazado_651889" data-name="Trazado 651889" d="M63.44,57.05a.755.755,0,0,1-.75-.75V25.32a.57.57,0,0,0-.57-.57H36.69a.57.57,0,0,0-.57.57v5.45a.75.75,0,0,1-1.5,0V25.32a2.074,2.074,0,0,1,2.07-2.07H62.13a2.074,2.074,0,0,1,2.07,2.07V56.3A.764.764,0,0,1,63.44,57.05Z"/>
        </g>
        <g id="Grupo_974517" data-name="Grupo 974517">
          <path id="Trazado_651890" data-name="Trazado 651890" d="M60.54,36.29H47.05a.75.75,0,0,1,0-1.5H59.79V28.16H39.03v6.63h5.93a.75.75,0,0,1,0,1.5H38.28a.755.755,0,0,1-.75-.75V27.41a.755.755,0,0,1,.75-.75H60.54a.755.755,0,0,1,.75.75v8.13A.749.749,0,0,1,60.54,36.29Z"/>
        </g>
      </g>
      <g id="Grupo_974523" data-name="Grupo 974523">
        <g id="Grupo_974522" data-name="Grupo 974522">
          <g id="Grupo_974519" data-name="Grupo 974519">
            <path id="Trazado_651891" data-name="Trazado 651891" d="M36.06,8.04l-5.69,10h1.46l5.68-10Z"/>
          </g>
          <g id="Grupo_974520" data-name="Grupo 974520">
            <path id="Trazado_651892" data-name="Trazado 651892" d="M32.26,11.04c0-1.86-.92-3-2.41-3-1.46,0-2.49,1.29-2.49,3.13.01,2.1,1.23,3.04,2.42,3.04C31.02,14.21,32.26,13.24,32.26,11.04Zm-2.44,1.85a.624.624,0,0,1-.47-.21,2.234,2.234,0,0,1-.42-1.54c0-.89.27-1.78.89-1.78.79,0,.88,1.22.88,1.74C30.69,11.64,30.61,12.89,29.82,12.89Z"/>
          </g>
          <g id="Grupo_974521" data-name="Grupo 974521">
            <path id="Trazado_651893" data-name="Trazado 651893" d="M38.14,11.8c-1.47,0-2.49,1.3-2.49,3.15.01,2.09,1.23,3.03,2.42,3.03,1.23,0,2.46-.98,2.46-3.17,0-1.85-.92-3.01-2.39-3.01Zm-.05,4.85a.608.608,0,0,1-.46-.2,2.3,2.3,0,0,1-.44-1.54V14.9c0-.88.28-1.76.9-1.76.81,0,.89,1.22.89,1.74s-.08,1.77-.89,1.77Z"/>
          </g>
        </g>
      </g>
      <g id="Grupo_974536" data-name="Grupo 974536">
        <g id="Grupo_974526" data-name="Grupo 974526">
          <g id="Grupo_974524" data-name="Grupo 974524">
            <path id="Trazado_651894" data-name="Trazado 651894" d="M21.82,48.79H7.56a.75.75,0,0,1,0-1.5H21.83a.755.755,0,0,1,.75.75A.764.764,0,0,1,21.82,48.79Z"/>
          </g>
          <g id="Grupo_974525" data-name="Grupo 974525">
            <path id="Trazado_651895" data-name="Trazado 651895" d="M27.14,48.79H24.87a.75.75,0,0,1,0-1.5h2.27a.75.75,0,1,1,0,1.5Z"/>
          </g>
        </g>
        <g id="Grupo_974529" data-name="Grupo 974529">
          <g id="Grupo_974527" data-name="Grupo 974527">
            <path id="Trazado_651896" data-name="Trazado 651896" d="M21.82,52.68H7.56a.75.75,0,0,1,0-1.5H21.83a.755.755,0,0,1,.75.75A.764.764,0,0,1,21.82,52.68Z"/>
          </g>
          <g id="Grupo_974528" data-name="Grupo 974528">
            <path id="Trazado_651897" data-name="Trazado 651897" d="M27.14,52.68H24.87a.75.75,0,1,1,0-1.5h2.27a.75.75,0,0,1,0,1.5Z"/>
          </g>
        </g>
        <g id="Grupo_974532" data-name="Grupo 974532">
          <g id="Grupo_974530" data-name="Grupo 974530">
            <path id="Trazado_651898" data-name="Trazado 651898" d="M21.82,56.57H7.56a.75.75,0,0,1,0-1.5H21.83a.755.755,0,0,1,.75.75A.764.764,0,0,1,21.82,56.57Z"/>
          </g>
          <g id="Grupo_974531" data-name="Grupo 974531">
            <path id="Trazado_651899" data-name="Trazado 651899" d="M27.14,56.57H24.87a.75.75,0,1,1,0-1.5h2.27a.75.75,0,0,1,0,1.5Z"/>
          </g>
        </g>
        <g id="Grupo_974535" data-name="Grupo 974535">
          <g id="Grupo_974533" data-name="Grupo 974533">
            <path id="Trazado_651900" data-name="Trazado 651900" d="M21.82,60.45H7.56a.75.75,0,0,1,0-1.5H21.83a.755.755,0,0,1,.75.75A.764.764,0,0,1,21.82,60.45Z"/>
          </g>
          <g id="Grupo_974534" data-name="Grupo 974534">
            <path id="Trazado_651901" data-name="Trazado 651901" d="M27.14,60.45H24.87a.75.75,0,1,1,0-1.5h2.27a.75.75,0,0,1,0,1.5Z"/>
          </g>
        </g>
      </g>
      <g id="Grupo_974541" data-name="Grupo 974541">
        <g id="Grupo_974537" data-name="Grupo 974537">
          <path id="Trazado_651902" data-name="Trazado 651902" d="M17.35,45.12a8.07,8.07,0,1,1,8.07-8.07A8.079,8.079,0,0,1,17.35,45.12Zm0-14.65a6.57,6.57,0,1,0,6.57,6.57,6.581,6.581,0,0,0-6.57-6.57Z"/>
        </g>
        <g id="Grupo_974538" data-name="Grupo 974538">
          <path id="Trazado_651903" data-name="Trazado 651903" d="M17.35,41.12a2.411,2.411,0,0,1-2.41-2.41.75.75,0,0,1,1.5,0,.91.91,0,1,0,.91-.91,2.41,2.41,0,1,1,2.41-2.41.75.75,0,0,1-1.5,0,.91.91,0,1,0-.91.91,2.41,2.41,0,0,1,0,4.82Z"/>
        </g>
        <g id="Grupo_974539" data-name="Grupo 974539">
          <path id="Trazado_651904" data-name="Trazado 651904" d="M17.35,34.47a.755.755,0,0,1-.75-.75V32.57a.75.75,0,0,1,1.5,0v1.15A.755.755,0,0,1,17.35,34.47Z"/>
        </g>
        <g id="Grupo_974540" data-name="Grupo 974540">
          <path id="Trazado_651905" data-name="Trazado 651905" d="M17.35,42.27a.755.755,0,0,1-.75-.75V40.37a.75.75,0,0,1,1.5,0v1.15A.749.749,0,0,1,17.35,42.27Z"/>
        </g>
      </g>
    </g>
  </g>
</svg>
