<svg xmlns="http://www.w3.org/2000/svg" width="125" height="125" viewBox="0 0 125 125">
  <g id="Grupo_980462" data-name="Grupo 980462" transform="translate(-1157 -5248)">
    <circle id="Elipse_7652" data-name="Elipse 7652" cx="62.5" cy="62.5" r="62.5" transform="translate(1157 5248)" fill="#ef8b53"/>
    <g id="prueba" transform="translate(1190.777 5273.832)">
      <path id="Trazado_626919" data-name="Trazado 626919" d="M130.156,317.065l-8.728-15.515a26.257,26.257,0,0,0-17.012,2.541,26.441,26.441,0,0,1-12.151,2.992l-5.639,9.982a8.594,8.594,0,0,0,7.49,12.808h28.55a8.594,8.594,0,0,0,7.49-12.808Zm0,0" transform="translate(-73.262 -257.97)" fill="#fd3c65"/>
      <path id="Trazado_626920" data-name="Trazado 626920" d="M141.865,12.865a2.864,2.864,0,0,0,2.865,2.865V34.636L131.855,57.682a26.432,26.432,0,0,0,12.268-2.993,26.257,26.257,0,0,1,17.012-2.541l-9.85-17.512V15.73a2.865,2.865,0,1,0,0-5.729H144.73a2.864,2.864,0,0,0-2.865,2.865Zm0,0" transform="translate(-112.969 -8.568)" fill="#c4f0ff"/>
      <path id="Trazado_626921" data-name="Trazado 626921" d="M150.373,242a2.865,2.865,0,1,1-2.865,2.865A2.864,2.864,0,0,1,150.373,242Zm0,0" transform="translate(-126.38 -207.338)" fill="#fd3c65"/>
      <path id="Trazado_626922" data-name="Trazado 626922" d="M238.94,234.865a1.432,1.432,0,1,0-1.432-1.432A1.433,1.433,0,0,0,238.94,234.865Zm0,0" transform="translate(-203.489 -198.77)"/>
      <path id="Trazado_626923" data-name="Trazado 626923" d="M198.94,174.865a1.432,1.432,0,1,0-1.432-1.432A1.433,1.433,0,0,0,198.94,174.865Zm0,0" transform="translate(-169.218 -147.364)"/>
      <path id="Trazado_626924" data-name="Trazado 626924" d="M78.94,432a1.432,1.432,0,1,0,1.432,1.432A1.433,1.433,0,0,0,78.94,432Zm0,0" transform="translate(-66.406 -370.123)"/>
      <path id="Trazado_626925" data-name="Trazado 626925" d="M58.143,58.393l-18.394-32.7V8.348A4.3,4.3,0,0,0,38.317,0H21.128A4.3,4.3,0,0,0,19.7,8.348V25.694L1.3,58.393a10.026,10.026,0,0,0,8.738,14.942H49.4a10.027,10.027,0,0,0,8.738-14.942ZM22.377,26.771a1.434,1.434,0,0,0,.184-.7V8.594h1.432a1.432,1.432,0,1,0,0-2.865H21.128a1.432,1.432,0,1,1,0-2.865H38.317a1.432,1.432,0,1,1,0,2.865H35.452a1.432,1.432,0,0,0,0,2.865h1.432V26.069a1.435,1.435,0,0,0,.184.7l8.442,15.009A27.622,27.622,0,0,0,30.5,44.849,24.615,24.615,0,0,1,11.3,46.458ZM55.586,66.925A7.093,7.093,0,0,1,49.4,70.471H10.041A7.162,7.162,0,0,1,3.8,59.8L9.874,49a27.454,27.454,0,0,0,9.086,1.549q.687,0,1.377-.034a27.808,27.808,0,0,0,11.476-3.12,24.727,24.727,0,0,1,15.438-2.518L55.646,59.8a7.1,7.1,0,0,1-.06,7.128Zm0,0" transform="translate(0)"/>
      <path id="Trazado_626926" data-name="Trazado 626926" d="M141.805,240.594a4.3,4.3,0,1,0-4.3-4.3A4.3,4.3,0,0,0,141.805,240.594Zm0-5.729a1.432,1.432,0,1,1-1.432,1.432A1.434,1.434,0,0,1,141.805,234.865Zm0,0" transform="translate(-117.812 -198.77)"/>
      <path id="Trazado_626927" data-name="Trazado 626927" d="M147.587,432H118.94a1.432,1.432,0,0,0,0,2.865h28.647a1.432,1.432,0,0,0,0-2.865Zm0,0" transform="translate(-100.677 -370.123)"/>
    </g>
  </g>
</svg>
