<svg xmlns="http://www.w3.org/2000/svg" width="125" height="125" viewBox="0 0 125 125">
  <g id="Grupo_950153" data-name="Grupo 950153" transform="translate(-274 -6735)">
    <circle id="Elipse_7692" data-name="Elipse 7692" cx="62.5" cy="62.5" r="62.5" transform="translate(274 6735)" fill="#ef8b53"/>
    <g id="hongos" transform="translate(291.017 6757.084)">
      <g id="_x3C_Group_x3E__35_" transform="translate(5.18 1.19)">
        <g id="Grupo_950157" data-name="Grupo 950157" transform="translate(27.717 31.48)">
          <path id="Trazado_627813" data-name="Trazado 627813" d="M200.98,252.62H190.825c-4.114,0-6.2-3.58-5.392-7.61,0,0,2.694-20.167,2.661-30.461a92.927,92.927,0,0,1,.535-9.719h14.939l1.561,8.873v.8q0,.967.007,1.933c.027,3.286-2.162,6.348-1.975,9.627.115,2.027,2.557,4.273,2.732,6.3q.525,6.042,1.41,12.049l.064.434A6.509,6.509,0,0,1,200.98,252.62Z" transform="translate(-185.26 -204.83)" fill="#ffe8c8"/>
        </g>
        <g id="Grupo_950158" data-name="Grupo 950158" transform="translate(10.052 52.168)">
          <path id="Trazado_627814" data-name="Trazado 627814" d="M82.862,361.636H77.147c-2.315,0-2.962-3.1-2.5-5.384l.652-3.312c.592-2.959,1.488-5.887,1.575-8.9l-1.175-9.5H82.95l1.651,9.588a53.619,53.619,0,0,0,1,8.759l.86,4.343A3.684,3.684,0,0,1,82.862,361.636Z" transform="translate(-74.505 -334.533)" fill="#ffe8c8"/>
        </g>
        <g id="Grupo_950159" data-name="Grupo 950159" transform="translate(56.158 49.154)">
          <path id="Trazado_627815" data-name="Trazado 627815" d="M372.42,345.756h-6.392c-2.589,0-2.725-2.9-2.214-5.438l.946-4.7a49.475,49.475,0,0,0,.723-9.15L364.4,315.64h6.864l3.054,9.22.044,1.434a59.229,59.229,0,0,0,1.113,9.733l.962,4.826A4.1,4.1,0,0,1,372.42,345.756Z" transform="translate(-363.577 -315.64)" fill="#ffe8c8"/>
        </g>
        <g id="Grupo_950163" data-name="Grupo 950163" transform="translate(9.027 31.462)">
          <g id="Grupo_950160" data-name="Grupo 950160" transform="translate(17.74)">
            <path id="Trazado_627816" data-name="Trazado 627816" d="M181.645,204.732c0-.411.02,6.221.029,8.873h0a203.626,203.626,0,0,1-2.236,31.123,6.511,6.511,0,0,0,6.385,7.795h3.668a6.511,6.511,0,0,1-6.385-7.795q.77-5.145,1.274-10.322a.94.94,0,0,1,.284-.59A8.024,8.024,0,0,0,185.4,223a.94.94,0,0,1-.2-.624q.078-2.045.116-4.092a4.779,4.779,0,0,1,4.783-4.682h10.031l.01-8.873H181.645Z" transform="translate(-179.307 -204.713)" fill="#fdd9b4"/>
          </g>
          <g id="Grupo_950161" data-name="Grupo 950161" transform="translate(0 20.705)">
            <path id="Trazado_627817" data-name="Trazado 627817" d="M72.192,352.985a53.556,53.556,0,0,0,.871-6.261A2.868,2.868,0,0,1,76,344.079q1.529.043,3.055.18l.151-.142-.3-9.589H70.294c-.095,7.1-.349,15.822-2.139,22.684a3.684,3.684,0,0,0,3.593,4.42h3.19a3.684,3.684,0,0,1-3.593-4.42Z" transform="translate(-68.081 -334.528)" fill="#fdd9b4"/>
          </g>
          <g id="Grupo_950162" data-name="Grupo 950162" transform="translate(45.482 17.692)">
            <path id="Trazado_627818" data-name="Trazado 627818" d="M357.456,336.146a59.189,59.189,0,0,0,1.1-8.815,2.866,2.866,0,0,1,2.91-2.713q2.086.036,4.169.241l-.286-9.221h-9.632c-.1,7.894-.393,17.58-2.392,25.2a4.1,4.1,0,0,0,4.018,4.913h3.19a4.1,4.1,0,0,1-4.018-4.913Z" transform="translate(-353.238 -315.638)" fill="#fdd9b4"/>
          </g>
        </g>
        <g id="Grupo_950164" data-name="Grupo 950164" transform="translate(17.954 27.575)">
          <path id="Trazado_627819" data-name="Trazado 627819" d="M154.435,189.612H134.47a14.611,14.611,0,0,1-7.773-2.236c-2.347-1.472-1.187-3.879-2.4-6.494l-.249-.537,40.326,0a.38.38,0,0,1,.343.541c-1.214,2.615-.161,5.02-2.508,6.492A14.61,14.61,0,0,1,154.435,189.612Z" transform="translate(-124.047 -180.343)" fill="#ffe8c8"/>
        </g>
        <g id="Grupo_950165" data-name="Grupo 950165" transform="translate(14.867 27.845)">
          <path id="Trazado_627820" data-name="Trazado 627820" d="M151.679,182.038l-.249.537a14.607,14.607,0,0,1-5.488,6.225,109.209,109.209,0,0,0-35.511,0,14.607,14.607,0,0,1-5.488-6.225l-.249-.537Z" transform="translate(-104.694 -182.038)" fill="#fdd9b4"/>
        </g>
        <path id="Trazado_627821" data-name="Trazado 627821" d="M111.533,37.8c-14.094-2.722-27.1-3.156-41.193-.434-5.745,1.11-9.611-.613-9.611-6.461a7.61,7.61,0,0,1,3.964-6.95l10.264-9.091,7.484-4.818a16.245,16.245,0,0,1,17.585,0L119.38,22.5a9.3,9.3,0,0,1,4.269,7.824,9.412,9.412,0,0,1-.133,1.582c-.857,5.032-6.77,6.9-11.984,5.889Z" transform="translate(-52.875 -7.458)" fill="#d77f4a"/>
        <path id="Trazado_627822" data-name="Trazado 627822" d="M113.443,70.925A9.3,9.3,0,0,1,102.5,78.481a112.488,112.488,0,0,0-42.672,0,9.412,9.412,0,0,1-1.788.172A9.307,9.307,0,0,1,53.014,61.52l11.87-7.642A17.543,17.543,0,0,0,82.42,70.925Z" transform="translate(-42.801 -46.474)" fill="#c86d36"/>
        <g id="Grupo_950166" data-name="Grupo 950166" transform="translate(42.107 43.084)">
          <path id="Trazado_627823" data-name="Trazado 627823" d="M281.725,293.5a8.166,8.166,0,0,1-2.5-14.8l1.743-1.124Q281.035,285.555,281.725,293.5Z" transform="translate(-275.484 -277.578)" fill="#fdd9b4"/>
        </g>
        <path id="Trazado_627824" data-name="Trazado 627824" d="M331.463,270.65l-19.873.081c-2.869.555-4.479-2.728-4.479-2.728,0-1.582.137-2.646,1.466-3.5l3.385-3.761,5.411-3.488a8.105,8.105,0,0,1,8.783,0l9.666,6.23a4.654,4.654,0,0,1,2.132,3.912,4.715,4.715,0,0,1-.04.614C337.572,270.618,334.128,271.165,331.463,270.65Z" transform="translate(-259.959 -216.324)" fill="#d77f4a"/>
        <path id="Trazado_627825" data-name="Trazado 627825" d="M46.76,295.244c-6.761-1.316-12.243-.284-19,1.032,0,0-2.932.031-2.932-2.8l-.271-.358c0-1.529-.951-2.371.326-3.2l4.842-4.753,3.795-2.462a7.743,7.743,0,0,1,8.436,0l9.285,6.024a4.507,4.507,0,0,1,2.048,3.782,4.621,4.621,0,0,1-.04.608C52.909,295.637,46.76,295.244,46.76,295.244Z" transform="translate(-22.182 -237.755)" fill="#d77f4a"/>
        <g id="Grupo_950167" data-name="Grupo 950167" transform="translate(0 44.415)">
          <path id="Trazado_627826" data-name="Trazado 627826" d="M42.57,312.441a4.455,4.455,0,0,1-5.3,4.048,53.582,53.582,0,0,0-20.473,0,4.5,4.5,0,0,1-3.267-8.2l5.49-3.562v.7a7.018,7.018,0,0,0,7.018,7.018Z" transform="translate(-11.484 -301.729)" fill="#c86d36"/>
          <path id="Trazado_627827" data-name="Trazado 627827" d="M329.821,293.2a4.653,4.653,0,0,1-4.6,4.04,4.769,4.769,0,0,1-.893-.086,56.152,56.152,0,0,0-21.312,0,4.768,4.768,0,0,1-.893.086,4.655,4.655,0,0,1-2.507-8.567l4.254-2.742a11.169,11.169,0,0,0,10.465,7.268Z" transform="translate(-251.868 -285.928)" fill="#c86d36"/>
        </g>
      </g>
      <path id="Trazado_627828" data-name="Trazado 627828" d="M81.691,47.342l-9.666-6.23a9.321,9.321,0,0,0-10.079,0L54,46.236c-.043-1.972-.034-5.013-.031-7.013A15.875,15.875,0,0,0,64.89,34.411a10.445,10.445,0,0,0,8.444-2.254,10.5,10.5,0,0,0-1-16.928L52.98,2.769a17.477,17.477,0,0,0-18.881,0L26.267,7.812a1.2,1.2,0,0,0,1.295,2.012l7.832-5.042a15.079,15.079,0,0,1,16.291,0l19.354,12.46A8.111,8.111,0,0,1,65.1,32.021c-2.712-.524-5.479-.954-8.223-1.278a1.2,1.2,0,1,0-.281,2.376c1.773.209,3.555.465,5.326.761a13.476,13.476,0,0,1-8.4,2.957H33.557a13.439,13.439,0,0,1-8.4-2.955A111.377,111.377,0,0,1,51.1,32.608a1.2,1.2,0,0,0,.163-2.387,113.766,113.766,0,0,0-29.29,1.8A8.11,8.11,0,0,1,16.04,17.241l6.813-4.386a1.2,1.2,0,1,0-1.295-2.012l-6.813,4.386a10.5,10.5,0,0,0,5.678,19.334,10.584,10.584,0,0,0,1.766-.152A15.831,15.831,0,0,0,33.11,39.223c.023,3.438.01,7.172-.126,10.705l-1.827-1.185a1.2,1.2,0,0,0-1.3,2.007l3.728,2.419a3.322,3.322,0,0,1,.3,5.338,3.24,3.24,0,0,1-2.687.684,55,55,0,0,0-20.929,0,3.239,3.239,0,0,1-2.687-.684,3.322,3.322,0,0,1,.3-5.338l9.285-6.024a6.561,6.561,0,0,1,7.134,0l.871.565a1.2,1.2,0,0,0,1.3-2.007l-.871-.565a8.956,8.956,0,0,0-9.738,0L6.577,51.162a5.693,5.693,0,0,0,4.146,10.377q2.136-.416,4.283-.649L14.952,62.8A70.968,70.968,0,0,1,13.108,75.8a4.943,4.943,0,0,0,4.766,5.851h5.714a4.937,4.937,0,0,0,4.768-5.841,72.361,72.361,0,0,1-1.833-12.906l-.062-2.018q2.143.237,4.278.649a5.529,5.529,0,0,0,1.481.089c-.342,3.615-.786,7.251-1.32,10.831a7.706,7.706,0,0,0,7.563,9.2H48.617a7.682,7.682,0,0,0,5.961-2.82,8.014,8.014,0,0,0,1.545-6.766c-.683-4.634-1.209-9.345-1.569-14.03a5.847,5.847,0,0,0,2-.038q2.1-.406,4.208-.645l-.1,3.48c-.044,1.531-.151,3.08-.317,4.6a1.2,1.2,0,0,0,1.06,1.319,1.212,1.212,0,0,0,.131.007A1.2,1.2,0,0,0,62.725,65.7c.173-1.587.284-3.2.33-4.794l.109-3.773a54.484,54.484,0,0,1,7.646,0l.121,3.9a60.584,60.584,0,0,0,1.135,9.93l.962,4.825a2.9,2.9,0,0,1-2.847,3.473H63.79a2.9,2.9,0,0,1-2.846-3.479l.895-4.441a1.2,1.2,0,0,0-2.345-.472l-.895,4.44a5.3,5.3,0,0,0,5.191,6.345h6.391a5.3,5.3,0,0,0,5.193-6.333L74.413,70.5a58.183,58.183,0,0,1-1.091-9.536l-.112-3.6q2.106.242,4.2.644a5.849,5.849,0,0,0,4.276-10.66ZM24.132,62.982a74.432,74.432,0,0,0,1.877,13.3,2.551,2.551,0,0,1-2.421,2.984H17.874a2.531,2.531,0,0,1-2.42-2.989,72.751,72.751,0,0,0,1.889-13.408l.063-2.187a51.929,51.929,0,0,1,6.655,0Zm29.624,9.437a5.748,5.748,0,0,1-1.028,4.9,5.3,5.3,0,0,1-4.112,1.945H38.462A5.313,5.313,0,0,1,33.251,72.9c0-.02.007-.04.01-.06.593-3.963,1.073-7.993,1.431-11.99a5.71,5.71,0,0,0,.623-9.378c.18-3.868.218-8.285.187-12.244h16.07c-.007,2.719-.013,5.787.065,8.593a5.85,5.85,0,0,0,.09,8.948c.115.1.234.184.355.269.364,5.129.925,10.3,1.674,15.378ZM80.722,54.926a3.442,3.442,0,0,1-2.853.727,57.076,57.076,0,0,0-21.766,0,3.455,3.455,0,0,1-4.11-3.394,3.627,3.627,0,0,1,1.584-2.906l9.666-6.23a6.923,6.923,0,0,1,7.487,0l9.666,6.23a3.458,3.458,0,0,1,.327,5.574Z"/>
    </g>
  </g>
</svg>
