<svg xmlns="http://www.w3.org/2000/svg" xmlns:xlink="http://www.w3.org/1999/xlink" width="628.05" height="313.693" viewBox="0 0 628.05 313.693">
  <defs>
    <linearGradient id="linear-gradient" x1="0.501" y1="0.96" x2="0.499" y2="0.009" gradientUnits="objectBoundingBox">
      <stop offset="0" stop-color="#c4e7fa"/>
      <stop offset="1" stop-color="#7ed4f7"/>
    </linearGradient>
  </defs>
  <g id="Grupo_981858" data-name="Grupo 981858" transform="translate(9096 5055.231)">
    <rect id="Rectángulo_306641" data-name="Rectángulo 306641" width="627.384" height="222.535" transform="translate(-9095.335 -5055.231)" fill="url(#linear-gradient)"/>
    <path id="Trazado_627571" data-name="Trazado 627571" d="M629.181,3124.478s12.49-3.541,24.975,0,35.406,2.423,35.406,2.423l19.567-.932,18.076-2.236s27.766-4.76,48.638,1.253c0,0,38.575,4.486,48.638,2.082s35.034-7.994,63.919-3.335l19.618,4.043v101.617h-279.3Z" transform="translate(-9375.969 -7995.47)" fill="#41c1f0"/>
    <path id="Trazado_627572" data-name="Trazado 627572" d="M652.288,3225.337s39.6,26.742,83.095,26.368l12.189,16.4h-57.3l-35.323-16.4Z" transform="translate(-9381.054 -8017.781)" fill="#a77127"/>
    <rect id="Rectángulo_306642" data-name="Rectángulo 306642" width="221.665" height="10.622" transform="translate(-8689.667 -4766.448)" fill="#a77127"/>
    <path id="Trazado_627573" data-name="Trazado 627573" d="M536.833,3078.617s5.661-5.94,9.015-3.844c0,0,3.378,1.887,3.75,3.844a13.884,13.884,0,0,0-4.169-10.622s-6.86-4.053-21.635-3.145-48.527-.629-48.527-.629l-52.982-6.778-33.866-7.478-47.586-6.778s-16.424-1.747-24.644-1.677-17.654.769-30.862-4.892-34.731-8.456-34.731-8.456l-32.7-3.794-33.16-.655,64.1,17.144L305.849,3058l151.131,20.615,43.98,2.12H531.8Z" transform="translate(-9280.169 -7974.276)" fill="#74b756"/>
    <path id="Trazado_627574" data-name="Trazado 627574" d="M929.707,2985.733a.888.888,0,0,1-.889-.888V2983.8H926.08a2.976,2.976,0,0,1-2.972-2.975V2977.6a.888.888,0,1,1,1.776,0v3.232a1.2,1.2,0,0,0,1.2,1.2h3.627a.888.888,0,0,1,.888.888v1.931A.888.888,0,0,1,929.707,2985.733Z" transform="translate(-9439.489 -7964.134)" fill="#f5dc1d"/>
    <path id="Trazado_627575" data-name="Trazado 627575" d="M934.123,2985.733a.888.888,0,0,1-.888-.888V2983.8H930.5a2.976,2.976,0,0,1-2.971-2.975V2977.6a.888.888,0,1,1,1.776,0v3.232a1.2,1.2,0,0,0,1.2,1.2h3.627a.888.888,0,0,1,.888.888v1.931A.887.887,0,0,1,934.123,2985.733Z" transform="translate(-9440.442 -7964.134)" fill="#ffe940"/>
    <path id="Trazado_627576" data-name="Trazado 627576" d="M922.951,2956.764l-10.667-14.61a6.911,6.911,0,0,0-2.054-1.867l-19.4-11.517a36.7,36.7,0,0,0,8.776,11.851l2.911,2.611a17.794,17.794,0,0,1,5.27,8.506l2.086,7.542Z" transform="translate(-9432.524 -7953.791)" fill="#7191f0"/>
    <path id="Trazado_627577" data-name="Trazado 627577" d="M912.217,2942.222a5.542,5.542,0,0,0-1.987-1.935l-19.4-11.517q.771,1.656,1.7,3.224l14.081,8.359a6.915,6.915,0,0,1,2.054,1.868l10.667,14.609-9.623,1.852.165.6,13.01-2.451Z" transform="translate(-9432.524 -7953.791)" fill="#6084f0"/>
    <path id="Trazado_627578" data-name="Trazado 627578" d="M937.471,2946.15l5.8-5.206a39.726,39.726,0,0,0,9.5-12.828l-21,12.465a7.482,7.482,0,0,0-2.223,2.022l-10.042,13.752a41.484,41.484,0,0,0-8.754-.4,6.348,6.348,0,0,0-5.537,5.654,6.112,6.112,0,0,0,6.093,6.548H935.1a6.145,6.145,0,0,0,4.524-1.987l.857-.932a4.8,4.8,0,0,1,3.531-1.55h5.294a3.079,3.079,0,0,0-2.5-3.026s-6.383-1.2-13.848-2.4l2.413-8.723a7.09,7.09,0,0,1,2.1-3.389Z" transform="translate(-9435.627 -7953.649)" fill="#ebf9ff"/>
    <path id="Trazado_627579" data-name="Trazado 627579" d="M939.337,2958.262l2.413-8.723a7.09,7.09,0,0,1,2.1-3.389l5.8-5.206a39.726,39.726,0,0,0,9.5-12.828l-6.969,4.137a39.741,39.741,0,0,1-7.267,8.691l-5.8,5.206a7.085,7.085,0,0,0-2.1,3.389l-2.245,8.119Z" transform="translate(-9442.005 -7953.649)" fill="#d7effa"/>
    <path id="Trazado_627580" data-name="Trazado 627580" d="M942.669,2975.026l-.857.933a6.151,6.151,0,0,1-4.525,1.986h4.736a6.148,6.148,0,0,0,4.524-1.986l.858-.933a4.8,4.8,0,0,1,3.531-1.55H946.2A4.8,4.8,0,0,0,942.669,2975.026Z" transform="translate(-9442.549 -7963.437)" fill="#d7effa"/>
    <path id="Trazado_627581" data-name="Trazado 627581" d="M916.287,2963.984l.3-.414a21.594,21.594,0,0,0-4.32.013l-.064.012c1.228.089,2.606.223,4.081.39Z" transform="translate(-9437.137 -7961.278)" fill="#d7effa"/>
    <path id="Trazado_627582" data-name="Trazado 627582" d="M890.83,2920.65" transform="translate(-9432.524 -7952.039)" fill="#d7effa"/>
    <path id="Trazado_627583" data-name="Trazado 627583" d="M904.205,2974.453h-7.534a3.253,3.253,0,0,1,3.253-3.253h4.281a1.626,1.626,0,0,1,1.626,1.626v0A1.625,1.625,0,0,1,904.205,2974.453Z" transform="translate(-9433.785 -7962.945)" fill="#ffe940"/>
    <path id="Trazado_627584" data-name="Trazado 627584" d="M890.83,2920.65" transform="translate(-9432.524 -7952.039)" fill="#ffe940"/>
    <path id="Trazado_627585" data-name="Trazado 627585" d="M890.83,2920.65" transform="translate(-9432.524 -7952.039)" fill="#ffe940"/>
    <path id="Trazado_627586" data-name="Trazado 627586" d="M890.83,2920.65" transform="translate(-9432.524 -7952.039)" fill="#ffe940"/>
    <path id="Trazado_627587" data-name="Trazado 627587" d="M890.83,2920.65" transform="translate(-9432.524 -7952.039)" fill="#ffe940"/>
    <path id="Trazado_627588" data-name="Trazado 627588" d="M890.83,2920.65" transform="translate(-9432.524 -7952.039)" fill="#ffe940"/>
    <path id="Trazado_627589" data-name="Trazado 627589" d="M890.83,2920.65" transform="translate(-9432.524 -7952.039)" fill="#ffe940"/>
    <path id="Trazado_627590" data-name="Trazado 627590" d="M928.354,2955.3l7.071-10.419a7.4,7.4,0,0,1,1.63-1.725l19.658-15.038-21,12.465a7.482,7.482,0,0,0-2.223,2.022l-10.042,13.752,2.341.179a2.84,2.84,0,0,0,2.564-1.236Z" transform="translate(-9439.563 -7953.649)" fill="#7191f0"/>
    <path id="Trazado_627591" data-name="Trazado 627591" d="M911.661,2970.239a.889.889,0,0,0,0-1.776A.889.889,0,0,0,911.661,2970.239Z" transform="translate(-9436.834 -7962.355)" fill="#7191f0"/>
    <path id="Trazado_627592" data-name="Trazado 627592" d="M831.354,2989.627a.988.988,0,0,0,.774-1.163l-.228-1.139,2.989-.6a3.313,3.313,0,0,0,2.592-3.9l-.708-3.528a.989.989,0,0,0-1.939.389l.709,3.529a1.334,1.334,0,0,1-1.043,1.569l-3.958.794a.989.989,0,0,0-.775,1.164l.424,2.107A.988.988,0,0,0,831.354,2989.627Z" transform="translate(-9419.345 -7964.522)" fill="#f5dc1d"/>
    <path id="Trazado_627593" data-name="Trazado 627593" d="M826.535,2990.6a.989.989,0,0,0,.774-1.164l-.228-1.138,2.989-.6a3.313,3.313,0,0,0,2.592-3.9l-.708-3.529a.989.989,0,0,0-1.939.39l.709,3.528a1.334,1.334,0,0,1-1.043,1.569l-3.958.8a.988.988,0,0,0-.774,1.163l.423,2.107A.988.988,0,0,0,826.535,2990.6Z" transform="translate(-9418.305 -7964.731)" fill="#ffe940"/>
    <path id="Trazado_627594" data-name="Trazado 627594" d="M826.3,2956.484l8.441-18.28a7.694,7.694,0,0,1,1.832-2.487l18.648-16.819a40.855,40.855,0,0,1-6.982,14.856l-2.6,3.487a19.817,19.817,0,0,0-3.888,10.438l-.623,8.688Z" transform="translate(-9418.601 -7951.66)" fill="#7191f0"/>
    <path id="Trazado_627595" data-name="Trazado 627595" d="M834.855,2938.263a6.166,6.166,0,0,1,1.744-2.546l18.648-16.819q-.478,1.976-1.148,3.891L840.563,2935a7.684,7.684,0,0,0-1.832,2.489l-8.441,18.279,10.908-.087-.049.688-14.735.176Z" transform="translate(-9418.625 -7951.66)" fill="#6084f0"/>
    <path id="Trazado_627596" data-name="Trazado 627596" d="M801.8,2950.95l-7.474-4.409a44.216,44.216,0,0,1-13.177-11.917l25.646,9a8.335,8.335,0,0,1,2.869,1.719l13.972,12.808c4.214-1.354,7.721-2.3,9.465-2.356a7.065,7.065,0,0,1,7.282,4.957,6.8,6.8,0,0,1-5.214,8.481l-25.958,5.211a6.844,6.844,0,0,1-5.373-1.176l-1.139-.829a5.342,5.342,0,0,0-4.193-.917l-5.778,1.16a3.427,3.427,0,0,1,2.067-3.85s6.7-2.707,14.587-5.654l-4.545-8.991a7.888,7.888,0,0,0-3.034-3.239Z" transform="translate(-9408.859 -7955.054)" fill="#ebf9ff"/>
    <path id="Trazado_627597" data-name="Trazado 627597" d="M809.383,2963.18l-4.545-8.991a7.882,7.882,0,0,0-3.034-3.238l-7.474-4.41a44.216,44.216,0,0,1-13.177-11.917l8.512,2.988a44.193,44.193,0,0,0,9.833,7.892l7.475,4.409a7.9,7.9,0,0,1,3.034,3.239l4.229,8.368Z" transform="translate(-9408.859 -7955.054)" fill="#d7effa"/>
    <path id="Trazado_627598" data-name="Trazado 627598" d="M812.643,2981.243l1.139.829a6.847,6.847,0,0,0,5.374,1.177l-5.169,1.037a6.845,6.845,0,0,1-5.373-1.176l-1.139-.829a5.342,5.342,0,0,0-4.193-.917l5.168-1.038A5.342,5.342,0,0,1,812.643,2981.243Z" transform="translate(-9413.634 -7964.892)" fill="#d7effa"/>
    <path id="Trazado_627599" data-name="Trazado 627599" d="M841.8,2962.941l-.42-.386a24,24,0,0,1,4.717-.932h.072c-1.322.366-2.8.814-4.369,1.319Z" transform="translate(-9421.854 -7960.879)" fill="#d7effa"/>
    <path id="Trazado_627600" data-name="Trazado 627600" d="M861.4,2910.036" transform="translate(-9426.174 -7949.748)" fill="#d7effa"/>
    <path id="Trazado_627601" data-name="Trazado 627601" d="M855.929,2971.858l8.223-1.651h0a3.621,3.621,0,0,0-4.263-2.837l-4.672.938a1.811,1.811,0,0,0-1.419,2.132h0A1.811,1.811,0,0,0,855.929,2971.858Z" transform="translate(-9424.525 -7962.104)" fill="#ffe940"/>
    <path id="Trazado_627602" data-name="Trazado 627602" d="M861.4,2910.036" transform="translate(-9426.175 -7949.748)" fill="#ffe940"/>
    <path id="Trazado_627603" data-name="Trazado 627603" d="M861.4,2910.036" transform="translate(-9426.175 -7949.748)" fill="#ffe940"/>
    <path id="Trazado_627604" data-name="Trazado 627604" d="M861.4,2910.036" transform="translate(-9426.175 -7949.748)" fill="#ffe940"/>
    <path id="Trazado_627605" data-name="Trazado 627605" d="M861.4,2910.036" transform="translate(-9426.174 -7949.748)" fill="#ffe940"/>
    <path id="Trazado_627606" data-name="Trazado 627606" d="M861.4,2910.036" transform="translate(-9426.174 -7949.748)" fill="#ffe940"/>
    <path id="Trazado_627607" data-name="Trazado 627607" d="M861.4,2910.036" transform="translate(-9426.174 -7949.748)" fill="#ffe940"/>
    <path id="Trazado_627608" data-name="Trazado 627608" d="M818.054,2958.074l-10-9.821a8.232,8.232,0,0,0-2.157-1.525l-24.747-12.1,25.646,9a8.335,8.335,0,0,1,2.869,1.719l13.972,12.808-2.515.708a3.162,3.162,0,0,1-3.069-.787Z" transform="translate(-9408.859 -7955.054)" fill="#7191f0"/>
    <path id="Trazado_627609" data-name="Trazado 627609" d="M849.064,2968.761a.989.989,0,0,1-.389-1.937A.989.989,0,0,1,849.064,2968.761Z" transform="translate(-9423.264 -7961.997)" fill="#7191f0"/>
    <path id="Trazado_627610" data-name="Trazado 627610" d="M882.916,3036.024a.52.52,0,0,1-.52-.52v-.611h-1.6a1.743,1.743,0,0,1-1.741-1.742v-1.893a.52.52,0,0,1,1.041,0v1.893a.7.7,0,0,0,.7.7h2.124a.52.52,0,0,1,.52.52v1.131A.52.52,0,0,1,882.916,3036.024Z" transform="translate(-9429.982 -7975.792)" fill="#f5dc1d"/>
    <path id="Trazado_627611" data-name="Trazado 627611" d="M885.5,3036.024a.52.52,0,0,1-.52-.52v-.611h-1.6a1.743,1.743,0,0,1-1.74-1.742v-1.893a.52.52,0,1,1,1.04,0v1.893a.7.7,0,0,0,.7.7H885.5a.52.52,0,0,1,.52.52v1.131A.52.52,0,0,1,885.5,3036.024Z" transform="translate(-9430.54 -7975.792)" fill="#ffe940"/>
    <path id="Trazado_627612" data-name="Trazado 627612" d="M878.959,3019.059l-6.246-8.554a4.046,4.046,0,0,0-1.2-1.094l-11.36-6.744a21.5,21.5,0,0,0,5.14,6.94l1.7,1.529a10.427,10.427,0,0,1,3.086,4.98l1.222,4.417Z" transform="translate(-9425.904 -7969.735)" fill="#7191f0"/>
    <path id="Trazado_627613" data-name="Trazado 627613" d="M872.673,3010.544a3.245,3.245,0,0,0-1.164-1.133l-11.36-6.744q.452.969,1,1.888l8.246,4.9a4.049,4.049,0,0,1,1.2,1.094l6.246,8.554-5.636,1.085.1.35,7.619-1.435Z" transform="translate(-9425.904 -7969.735)" fill="#6084f0"/>
    <path id="Trazado_627614" data-name="Trazado 627614" d="M887.463,3012.844l3.4-3.048a23.251,23.251,0,0,0,5.563-7.511l-12.3,7.3a4.388,4.388,0,0,0-1.3,1.184l-5.88,8.053a24.275,24.275,0,0,0-5.126-.235,3.717,3.717,0,0,0-3.243,3.311,3.579,3.579,0,0,0,3.568,3.835h13.929a3.6,3.6,0,0,0,2.649-1.163l.5-.546a2.809,2.809,0,0,1,2.068-.907h3.1a1.8,1.8,0,0,0-1.466-1.772s-3.738-.7-8.109-1.405l1.413-5.108a4.152,4.152,0,0,1,1.23-1.985Z" transform="translate(-9427.721 -7969.653)" fill="#ebf9ff"/>
    <path id="Trazado_627615" data-name="Trazado 627615" d="M888.555,3019.937l1.413-5.108a4.152,4.152,0,0,1,1.23-1.985l3.4-3.048a23.251,23.251,0,0,0,5.563-7.511l-4.08,2.423a23.285,23.285,0,0,1-4.255,5.089l-3.4,3.048a4.157,4.157,0,0,0-1.23,1.985l-1.314,4.754Z" transform="translate(-9431.456 -7969.653)" fill="#d7effa"/>
    <path id="Trazado_627616" data-name="Trazado 627616" d="M890.506,3029.753l-.5.546a3.6,3.6,0,0,1-2.65,1.163h2.774a3.6,3.6,0,0,0,2.649-1.163l.5-.546a2.805,2.805,0,0,1,2.067-.907h-2.773A2.808,2.808,0,0,0,890.506,3029.753Z" transform="translate(-9431.773 -7975.384)" fill="#d7effa"/>
    <path id="Trazado_627617" data-name="Trazado 627617" d="M875.057,3023.288l.177-.242a12.609,12.609,0,0,0-2.53.007l-.038.007c.719.052,1.526.13,2.39.228Z" transform="translate(-9428.604 -7974.12)" fill="#d7effa"/>
    <path id="Trazado_627618" data-name="Trazado 627618" d="M860.149,2997.911" transform="translate(-9425.904 -7968.709)" fill="#d7effa"/>
    <path id="Trazado_627619" data-name="Trazado 627619" d="M867.982,3029.417H863.57a1.9,1.9,0,0,1,1.9-1.9h2.507a.952.952,0,0,1,.953.952h0A.953.953,0,0,1,867.982,3029.417Z" transform="translate(-9426.643 -7975.097)" fill="#ffe940"/>
    <path id="Trazado_627620" data-name="Trazado 627620" d="M860.149,2997.911" transform="translate(-9425.904 -7968.709)" fill="#ffe940"/>
    <path id="Trazado_627621" data-name="Trazado 627621" d="M860.149,2997.911" transform="translate(-9425.904 -7968.709)" fill="#ffe940"/>
    <path id="Trazado_627622" data-name="Trazado 627622" d="M860.149,2997.911" transform="translate(-9425.904 -7968.709)" fill="#ffe940"/>
    <path id="Trazado_627623" data-name="Trazado 627623" d="M860.149,2997.911" transform="translate(-9425.904 -7968.709)" fill="#ffe940"/>
    <path id="Trazado_627624" data-name="Trazado 627624" d="M860.149,2997.911" transform="translate(-9425.904 -7968.709)" fill="#ffe940"/>
    <path id="Trazado_627625" data-name="Trazado 627625" d="M860.149,2997.911" transform="translate(-9425.904 -7968.709)" fill="#ffe940"/>
    <path id="Trazado_627626" data-name="Trazado 627626" d="M882.123,3018.2l4.141-6.1a4.329,4.329,0,0,1,.954-1.01l11.511-8.806-12.3,7.3a4.388,4.388,0,0,0-1.3,1.184l-5.88,8.053,1.371.1a1.66,1.66,0,0,0,1.5-.724Z" transform="translate(-9430.025 -7969.653)" fill="#7191f0"/>
    <path id="Trazado_627627" data-name="Trazado 627627" d="M872.348,3026.95a.52.52,0,0,0,0-1.04A.52.52,0,0,0,872.348,3026.95Z" transform="translate(-9428.428 -7974.751)" fill="#7191f0"/>
    <path id="Trazado_627628" data-name="Trazado 627628" d="M417.948,3050.5c1.867-1.721,3.859-6.014,6.023-14.707a.541.541,0,0,0,.019-.1c.109-.671,1.674-11.42-1.867-21.609a1,1,0,0,1,1.674-1l1.143,3.416a1,1,0,0,0,1.736-.671v-6.213a1,1,0,0,1,1.1-.988l5.668.553a1,1,0,0,1,.9.988v4.364a1,1,0,0,0,1.727.681l5.96-6.978a1,1,0,0,1,1.7.46l.487,2.142a.984.984,0,0,1-.38,1.02c-2.226,1.585-11.65,11.73-8.421,28.448a.709.709,0,0,0,.038.14,18.8,18.8,0,0,0,5.267,9.76.987.987,0,0,1-.431,1.685c-1.106.277-2.482.646-3.5,1.007-2.97,1.045-6.988-1.452-8.337-2.381a.989.989,0,0,0-.983-.081c-1.524.719-5.964,2.7-7.693,2.207-.591-.168-1.084-.335-1.492-.491A.979.979,0,0,1,417.948,3050.5Z" transform="translate(-9330.421 -7970.868)" fill="#9a795f"/>
    <path id="Trazado_627629" data-name="Trazado 627629" d="M395.1,2994.926a4.24,4.24,0,0,0-.512-4.314,4.3,4.3,0,0,0-4.091-1.517c.45.622-.059,1.561-.777,1.831a3.845,3.845,0,0,1-2.27-.1c-1.321-.329-2.641-.663-3.965-.992a4.313,4.313,0,0,1-2.242-1.06c-.9-1-.656-2.542-.359-3.851.119-.516.234-1.032.353-1.548q.576-2.522,1.15-5.041c.322-1.405,1.018-3.129,2.463-3.136-.3-1.747-.3-4.044,1.349-4.7a7.644,7.644,0,0,1,2.236-.2,4.242,4.242,0,0,0,3.784-3.954,24.311,24.311,0,0,1-.187-3.251c.181-1.075,1.409-2.1,2.317-1.489-.065-.982-.137-1.964-.205-2.947l1.77-.494a7.315,7.315,0,0,0-1.427-2.614,2.774,2.774,0,0,1-.434-2.813c.512-.861,2.217-.711,2.2.29l1.583-.4a6.651,6.651,0,0,1-.447-2.872,2.292,2.292,0,0,1,1.815-2.039,3.41,3.41,0,0,1,2.263.929q1.312.976,2.626,1.949a2.847,2.847,0,0,0,1.761.758c.652-.037,1.262-.792.9-1.336-1.5-.239-2.143-2.011-2.452-3.494a3.463,3.463,0,0,1,.165-2.63,3.526,3.526,0,0,1,1.93-1.156q4.805-1.6,9.611-3.21a2.572,2.572,0,0,1,1.8-.147c.734.318,1.04,1.25,1.768,1.58.855.385,2.363.143,2.348,1.078q.478-.807.958-1.613c.387.544.777,1.084,1.165,1.628.384-1.119,1.012-2.433,2.2-2.523,1-.078,1.789.786,2.707,1.19s2.426-.277,1.976-1.169c1.143-.711,2.644-.052,3.706.771s2.1,1.865,3.447,1.968c.98.074,1.964-.385,2.931-.214,1.437.251,2.4,1.793,3.85,1.976,1.037.131,2-.476,3.01-.768s2.389-.062,2.626.951c.106.46-.069.951.04,1.412.225.945,1.405,1.205,2.3,1.6s1.6,1.75.746,2.207a2.8,2.8,0,0,1,3.079,1.871c.422,1.4-.274,3.189.756,4.24.78.795,2.2.706,2.922,1.557.74.871.344,2.17.222,3.3s.559,2.654,1.67,2.381c.416-.1.818-.461,1.218-.309a1.02,1.02,0,0,1,.5.718,9.859,9.859,0,0,1,.369,3.746,3.972,3.972,0,0,0,1.6-.7c.7,4.544-1.2,9.042-1.877,13.589a2.113,2.113,0,0,0,.282,1.752,3.5,3.5,0,0,0,1.311.653c2.186.935,2.4,3.882,2.273,6.247a2.638,2.638,0,0,1-.649,1.943c-1.068.91-2.679-.286-4.081-.133-2.769.3-2.545,5.069-5.114,6.135-1.336.557-2.829-.155-4.269-.313s-3.319.945-2.775,2.281c.281.687,1.086,1.545.462,1.949q-3.344-1.641-6.685-3.285a12.329,12.329,0,0,1-.534,2.907c-1.09.537-2.1-.787-2.782-1.788a9.474,9.474,0,0,0-8.368-4.022c-.434.858.6,1.713,1.5,2.067s2.02.917,1.9,1.871a1.465,1.465,0,0,1-1.7,1.05,5.21,5.21,0,0,1-1.992-.963,15.94,15.94,0,0,0-10.291-2.409,4.4,4.4,0,0,0-1.9.554,14.5,14.5,0,0,0-1.47,1.365,7.822,7.822,0,0,1-3.238,1.373l-4.221,1.073a4.245,4.245,0,0,1-2.32.143,7.735,7.735,0,0,1-1.836-1.219c-1.9-1.286-4.4-.947-6.7-.991s-5.03-.942-5.508-3.177" transform="translate(-9322.435 -7956.054)" fill="#8cc63e"/>
    <path id="Trazado_627630" data-name="Trazado 627630" d="M430.383,2962.96c-1.339-1.784-4.443-1.741-5.389-3.758a3.444,3.444,0,0,1-.1-2.316c.515-1.955,2.036-3.478,2.917-5.3s.809-4.494-1.04-5.337a4.747,4.747,0,0,0-1.973-.3,75.511,75.511,0,0,0-12.549.958,1.96,1.96,0,0,0-1.03.379c-.709.644-.175,1.775.137,2.677a4.895,4.895,0,0,1-1.187,5,4.946,4.946,0,0,1-5.052,1.066c-.562,2.036.646,4.473-.575,6.2a6.934,6.934,0,0,1-1.973,1.561,11.066,11.066,0,0,0-4.705,7.052l-.559.811,4.68,3.392c1.147.83,2.707,1.675,3.869.866.712-.5.987-1.482,1.746-1.9a3.031,3.031,0,0,1,1.434-.268c1.8-.044,3.765-.034,5.164,1.094,1.121.9,2.095,2.552,3.491,2.185a2.494,2.494,0,0,0,1.489-2.234,6.268,6.268,0,0,1,.643-2.742,4.052,4.052,0,0,1,2.389-1.393c2.167-.59,4.5-.792,6.4-1.986S431.726,2964.754,430.383,2962.96Z" transform="translate(-9326.036 -7957.497)" fill="#7fb239"/>
    <path id="Trazado_627631" data-name="Trazado 627631" d="M433.421,2991.889c-.721-.292-1.533-.327-2.248-.634s-1.352-1.075-1.1-1.812a2.745,2.745,0,0,1,.627-.86,4.8,4.8,0,0,0,.409-5.623,5.011,5.011,0,0,0-5.3-2.067c-1.07.268-2.148,1.082-2.164,2.179a8.652,8.652,0,0,0,.216,1.29c.263,1.971-1.733,3.615-3.709,3.891s-3.946-.369-5.917-.689a18.263,18.263,0,0,0-6.666.152,8.221,8.221,0,0,1-2.71.326c-1.58-.208-2.764-1.477-4-2.477s-3-1.8-4.368-.982a5.894,5.894,0,0,0,.762,4.447c.365.576.852,1.175.743,1.844-.14.833-1.13,1.231-1.979,1.262a6.52,6.52,0,0,0-2.517.223,2.063,2.063,0,0,0-.825,2.881l.884,1.545c5.377,1.7,10.841,3.444,15.484,6.633a3.314,3.314,0,0,0,2.5.882c1.648-.407,1.508-2.844,2.57-4.167,1.1-1.377,3.287-1.225,4.887-.476s2.994,1.961,4.705,2.4a9.694,9.694,0,0,0,4.4-.152c2.491-.529,5.1-1.452,6.573-3.522S435.782,2992.849,433.421,2991.889Z" transform="translate(-9324.976 -7965.007)" fill="#7fb239"/>
    <path id="Trazado_627632" data-name="Trazado 627632" d="M473.28,2992.01c-.987-.619-2.179-.877-3.1-1.586s-1.446-2.194-.609-3c.2-.193.45-.32.656-.5a1.705,1.705,0,0,0,.006-2.458c-.812-.718-2.054-.485-3.128-.323s-2.439.053-2.87-.938c-.49-1.122.734-2.307,1.935-2.558s2.5-.013,3.654-.429a3.463,3.463,0,0,0,2.2-3.605,2.238,2.238,0,0,0-1.074-1.719,3.35,3.35,0,0,0-2.523.122q-1.555.494-3.106.991a5.987,5.987,0,0,1-3.21.4c-1.721-.429-2.7-2.248-4.256-3.093-1.8-.982-4.018-.506-6.007-.009-2.033.51-4.374,1.287-5.036,3.267-.319.95-.641,2.4-1.621,2.16a1.654,1.654,0,0,1-.79-.63,5.576,5.576,0,0,0-4.59-2.219c-1.761.189-3.313,2.1-2.638,3.727l-.441.8c1.708,1.209,4.272.831,5.783,2.276a15.528,15.528,0,0,1,1.605,2.4,5.093,5.093,0,0,0,8.589-.51c.512-.929.868-2.144,1.892-2.433a2.863,2.863,0,0,1,1.321.047c2.023.385,4.35,1,5.171,2.881a10.454,10.454,0,0,0,.577,1.451,3.983,3.983,0,0,0,.878.893l7.921,6.5a4.935,4.935,0,0,0,1.97,1.156,1.7,1.7,0,0,0,1.949-.836C474.716,2993.4,474.045,2992.491,473.28,2992.01Z" transform="translate(-9334.543 -7963.278)" fill="#7fb239"/>
    <path id="Trazado_627633" data-name="Trazado 627633" d="M453.309,2957.5a3.352,3.352,0,0,1-.747-.668,3.856,3.856,0,0,1-.337-1.915,4.736,4.736,0,0,0-2.473-3.578,7.748,7.748,0,0,0-4.393-.826l-.706,1.911c-.911.677-2.164.631-3.244.989-1.908.63-3.12,2.449-4.185,4.146-.362.575-.73,1.3-.4,1.893.365.652,1.286.652,2.036.637a12.065,12.065,0,0,1,3.528.454,4.6,4.6,0,0,1,1.339.572,8.609,8.609,0,0,1,1.427,1.483,8.042,8.042,0,0,0,8.271,2.225,3.221,3.221,0,0,0,1.408-.8,3,3,0,0,0,.668-2.061A5.73,5.73,0,0,0,453.309,2957.5Z" transform="translate(-9334.537 -7958.476)" fill="#7fb239"/>
    <path id="Trazado_627634" data-name="Trazado 627634" d="M469.634,2957.778a10.309,10.309,0,0,0-3.254-1.309c-.865-.239-1.733-.475-2.6-.715l-.087.768a2.234,2.234,0,0,0-2.226.333,2.209,2.209,0,0,0-.743,2.117,4.366,4.366,0,0,0,.861,1.61c.3.417.609.83.912,1.246,1.121,1.532,2.5,3.208,4.4,3.3a1.732,1.732,0,0,0,1.2-.317.912.912,0,0,0,.262-1.129c-.131-.214-.375-.361-.446-.6-.128-.426.375-.8.818-.823a9.617,9.617,0,0,0,1.333.037,1.683,1.683,0,0,0,1.18-1.573A3.458,3.458,0,0,0,469.634,2957.778Z" transform="translate(-9339.712 -7959.613)" fill="#7fb239"/>
    <path id="Trazado_627635" data-name="Trazado 627635" d="M339.558,3039.195c2.006-1.918,4.147-6.7,6.473-16.387a.646.646,0,0,0,.02-.107c.117-.748,1.8-12.723-2.007-24.074a1.077,1.077,0,0,1,1.8-1.118l1.228,3.806a1.07,1.07,0,0,0,1.866-.748v-6.922a1.085,1.085,0,0,1,1.178-1.1l6.09.616a1.1,1.1,0,0,1,.97,1.1v4.861a1.069,1.069,0,0,0,1.855.758l6.406-7.774a1.062,1.062,0,0,1,1.829.513l.523,2.386a1.116,1.116,0,0,1-.409,1.136c-2.393,1.766-12.52,13.069-9.05,31.7a.8.8,0,0,0,.04.155,21.241,21.241,0,0,0,5.661,10.874,1.115,1.115,0,0,1-.464,1.877c-1.187.308-2.668.72-3.765,1.123-3.191,1.163-7.51-1.618-8.96-2.653a1.03,1.03,0,0,0-1.057-.09c-1.637.8-6.41,3.006-8.268,2.459-.634-.187-1.165-.374-1.6-.547A1.108,1.108,0,0,1,339.558,3039.195Z" transform="translate(-9313.501 -7967.381)" fill="#9a795f"/>
    <path id="Trazado_627636" data-name="Trazado 627636" d="M315,2977.283a4.865,4.865,0,0,0-.551-4.807,4.534,4.534,0,0,0-4.4-1.69,1.48,1.48,0,0,1-.835,2.04,3.984,3.984,0,0,1-2.44-.111q-2.129-.55-4.261-1.1a4.571,4.571,0,0,1-2.41-1.181c-.966-1.114-.7-2.833-.386-4.291.128-.575.252-1.149.38-1.724q.619-2.81,1.234-5.617c.346-1.565,1.094-3.487,2.648-3.494-.319-1.947-.325-4.506,1.449-5.236a7.918,7.918,0,0,1,2.4-.218,4.654,4.654,0,0,0,4.067-4.405c.037-1.212-.4-2.427-.2-3.622s1.514-2.338,2.491-1.659c-.071-1.094-.148-2.189-.222-3.283l1.9-.551a8.23,8.23,0,0,0-1.533-2.912,3.181,3.181,0,0,1-.467-3.134c.551-.959,2.383-.793,2.363.323.567-.146,1.134-.3,1.7-.44a7.671,7.671,0,0,1-.48-3.2,2.521,2.521,0,0,1,1.95-2.272,3.6,3.6,0,0,1,2.434,1.035l2.822,2.171a3.014,3.014,0,0,0,1.893.845c.7-.042,1.355-.883.969-1.488-1.617-.267-2.3-2.241-2.634-3.893a3.987,3.987,0,0,1,.178-2.929,3.762,3.762,0,0,1,2.074-1.289q5.164-1.787,10.329-3.578a2.677,2.677,0,0,1,1.932-.162c.789.353,1.118,1.392,1.9,1.759.92.43,2.541.159,2.524,1.2q.514-.9,1.03-1.8c.416.606.835,1.208,1.252,1.814.413-1.246,1.087-2.711,2.359-2.812,1.074-.086,1.923.876,2.909,1.326s2.608-.308,2.124-1.3c1.228-.793,2.842-.059,3.983.859s2.262,2.078,3.7,2.192c1.054.083,2.111-.429,3.151-.239,1.544.281,2.581,2,4.138,2.2,1.114.145,2.154-.53,3.235-.856s2.568-.069,2.822,1.06c.114.513-.074,1.06.044,1.573.242,1.052,1.51,1.343,2.466,1.783s1.725,1.949.8,2.458a3,3,0,0,1,3.309,2.085c.453,1.565-.3,3.552.812,4.723.839.886,2.366.786,3.141,1.735.8.969.369,2.417.238,3.681s.6,2.958,1.8,2.652c.446-.114.879-.512,1.308-.343a1.131,1.131,0,0,1,.54.8,11.35,11.35,0,0,1,.4,4.173,4.189,4.189,0,0,0,1.718-.783c.755,5.063-1.292,10.073-2.017,15.14a2.43,2.43,0,0,0,.3,1.953,3.716,3.716,0,0,0,1.41.727c2.349,1.043,2.58,4.326,2.443,6.961a3,3,0,0,1-.7,2.164c-1.148,1.015-2.88-.318-4.386-.149-2.976.34-2.735,5.648-5.5,6.836-1.437.62-3.04-.173-4.588-.35s-3.567,1.052-2.983,2.542c.3.765,1.168,1.721.5,2.171q-3.595-1.828-7.185-3.66a14.1,14.1,0,0,1-.574,3.238c-1.171.6-2.258-.876-2.989-1.991a10.058,10.058,0,0,0-8.994-4.481c-.467.956.644,1.908,1.607,2.3s2.172,1.022,2.044,2.084a1.572,1.572,0,0,1-1.832,1.171,5.528,5.528,0,0,1-2.141-1.073,16.648,16.648,0,0,0-11.061-2.684,4.594,4.594,0,0,0-2.037.616,15.81,15.81,0,0,0-1.581,1.52,8.243,8.243,0,0,1-3.48,1.531l-4.537,1.2a4.41,4.41,0,0,1-2.494.159,8.359,8.359,0,0,1-1.973-1.357c-2.037-1.434-4.731-1.056-7.2-1.1s-5.406-1.049-5.919-3.539" transform="translate(-9304.918 -7950.876)" fill="#8cc63e"/>
    <path id="Trazado_627637" data-name="Trazado 627637" d="M352.923,2941.668c-1.44-1.987-4.775-1.939-5.792-4.186a3.968,3.968,0,0,1-.111-2.58c.554-2.178,2.188-3.875,3.135-5.9s.869-5.007-1.118-5.945a4.945,4.945,0,0,0-2.121-.336,78.27,78.27,0,0,0-13.486,1.067,2.059,2.059,0,0,0-1.107.423c-.762.717-.188,1.977.147,2.982a5.6,5.6,0,0,1-1.275,5.575,5.181,5.181,0,0,1-5.43,1.188c-.6,2.268.695,4.983-.617,6.905a7.505,7.505,0,0,1-2.121,1.738,12.361,12.361,0,0,0-5.057,7.858l-.6.9,5.03,3.779c1.232.925,2.909,1.866,4.158.966.765-.554,1.06-1.652,1.876-2.123a3.151,3.151,0,0,1,1.54-.3c1.933-.049,4.047-.038,5.551,1.219,1.2,1.008,2.252,2.843,3.752,2.434.99-.271,1.459-1.445,1.6-2.49a7.186,7.186,0,0,1,.692-3.055,4.323,4.323,0,0,1,2.567-1.551c2.329-.658,4.839-.883,6.879-2.213S354.366,2943.666,352.923,2941.668Z" transform="translate(-9308.788 -7952.483)" fill="#7fb239"/>
    <path id="Trazado_627638" data-name="Trazado 627638" d="M356.188,2973.9c-.775-.325-1.648-.363-2.416-.707a1.819,1.819,0,0,1-1.184-2.019,3.066,3.066,0,0,1,.674-.959,5.512,5.512,0,0,0,.44-6.264,5.3,5.3,0,0,0-5.692-2.3,2.856,2.856,0,0,0-2.325,2.428,9.981,9.981,0,0,0,.231,1.437c.282,2.2-1.863,4.028-3.986,4.336s-4.242-.413-6.359-.769a18.951,18.951,0,0,0-7.165.169,8.568,8.568,0,0,1-2.913.364c-1.7-.232-2.97-1.645-4.3-2.76s-3.228-2.009-4.694-1.094a6.77,6.77,0,0,0,.819,4.956,3.248,3.248,0,0,1,.8,2.053c-.151.929-1.215,1.372-2.128,1.406a6.791,6.791,0,0,0-2.7.249,2.342,2.342,0,0,0-.885,3.21l.95,1.721c5.778,1.894,11.651,3.837,16.641,7.39.809.579,1.738,1.226,2.691.984,1.772-.453,1.621-3.168,2.762-4.644,1.185-1.534,3.534-1.365,5.252-.53s3.218,2.185,5.057,2.677a10.061,10.061,0,0,0,4.732-.17c2.678-.589,5.483-1.617,7.064-3.924S358.725,2974.969,356.188,2973.9Z" transform="translate(-9307.648 -7960.851)" fill="#7fb239"/>
    <path id="Trazado_627639" data-name="Trazado 627639" d="M399.027,2974.033c-1.06-.689-2.342-.977-3.332-1.766s-1.554-2.445-.655-3.346c.212-.215.483-.357.705-.558a1.948,1.948,0,0,0,.006-2.739c-.872-.8-2.208-.541-3.362-.36s-2.621.059-3.084-1.046c-.527-1.25.789-2.569,2.081-2.85s2.681-.014,3.927-.478a3.872,3.872,0,0,0,2.362-4.017,2.5,2.5,0,0,0-1.154-1.915,3.484,3.484,0,0,0-2.711.135c-1.114.367-2.225.738-3.339,1.1a6.222,6.222,0,0,1-3.45.45c-1.849-.479-2.9-2.5-4.574-3.446-1.936-1.094-4.319-.565-6.457-.01-2.185.568-4.7,1.434-5.413,3.64-.343,1.06-.689,2.676-1.742,2.407a1.793,1.793,0,0,1-.849-.7c-1.234-1.492-3.04-2.684-4.933-2.473s-3.56,2.338-2.836,4.153l-.473.89c1.835,1.346,4.591.924,6.215,2.534a17.359,17.359,0,0,1,1.725,2.677,5.374,5.374,0,0,0,9.232-.568c.551-1.035.932-2.389,2.034-2.711a2.986,2.986,0,0,1,1.419.052c2.175.429,4.675,1.111,5.557,3.21a11.991,11.991,0,0,0,.621,1.617,4.347,4.347,0,0,0,.943.994l8.514,7.241a5.285,5.285,0,0,0,2.117,1.289,1.8,1.8,0,0,0,2.095-.932A2.273,2.273,0,0,0,399.027,2974.033Z" transform="translate(-9317.932 -7958.925)" fill="#7fb239"/>
    <path id="Trazado_627640" data-name="Trazado 627640" d="M377.562,2935.588a3.646,3.646,0,0,1-.8-.745,4.416,4.416,0,0,1-.363-2.133,5.277,5.277,0,0,0-2.658-3.986,8.072,8.072,0,0,0-4.721-.921l-.758,2.13c-.98.754-2.326.7-3.487,1.1-2.051.7-3.353,2.728-4.5,4.619-.39.641-.786,1.448-.427,2.11.393.727,1.383.727,2.188.71a12.541,12.541,0,0,1,3.793.506,4.844,4.844,0,0,1,1.439.637,9.431,9.431,0,0,1,1.534,1.652,8.439,8.439,0,0,0,8.889,2.48,2.913,2.913,0,0,0,2.232-3.193A6.472,6.472,0,0,0,377.562,2935.588Z" transform="translate(-9317.925 -7953.575)" fill="#7fb239"/>
    <path id="Trazado_627641" data-name="Trazado 627641" d="M395.108,2935.895a10.846,10.846,0,0,0-3.5-1.458c-.929-.267-1.863-.529-2.792-.8l-.094.855a2.333,2.333,0,0,0-2.393.371,2.51,2.51,0,0,0-.8,2.358,4.909,4.909,0,0,0,.926,1.794c.325.464.654.925.979,1.389,1.2,1.707,2.688,3.573,4.732,3.681a1.817,1.817,0,0,0,1.285-.353,1.04,1.04,0,0,0,.282-1.257c-.141-.239-.4-.4-.48-.672-.137-.474.4-.886.879-.917a10.007,10.007,0,0,0,1.433.042,1.867,1.867,0,0,0,1.269-1.753A3.89,3.89,0,0,0,395.108,2935.895Z" transform="translate(-9323.486 -7954.842)" fill="#7fb239"/>
    <path id="Trazado_627642" data-name="Trazado 627642" d="M272.084,2942.8v91.964H234.155v-78.318l11.527-11.527a7.262,7.262,0,0,1,5.12-2.12Z" transform="translate(-9290.834 -7956.818)" fill="#728080"/>
    <path id="Trazado_627643" data-name="Trazado 627643" d="M272.084,2976.456v60.625H234.156v-78.317l5.234-5.234a108.048,108.048,0,0,1,4.591,18.008q.342,2.116.629,4.176l14.95-4.45a1.918,1.918,0,0,1,1.345.093Z" transform="translate(-9290.834 -7959.133)" fill="#585e60"/>
    <path id="Trazado_627644" data-name="Trazado 627644" d="M275.982,2942.8v91.964H252.22v-91.525a7.217,7.217,0,0,1,2.48-.439Z" transform="translate(-9294.731 -7956.818)" fill="#585e60"/>
    <path id="Trazado_627645" data-name="Trazado 627645" d="M314.035,3027.245h-55.7V2925.651s2.921-7.437,11.894-12.7a33.376,33.376,0,0,1,3.6-1.832,39.941,39.941,0,0,1,12.244-3.062c17.888-1.711,18.534,17.434,18.534,17.434v58.508l7.278,11.549,4.05,29.52A1.92,1.92,0,0,1,314.035,3027.245Z" transform="translate(-9296.051 -7949.297)" fill="#a5b1b2"/>
    <path id="Trazado_627646" data-name="Trazado 627646" d="M309.957,3041.938h-51.62v-63.9l6.441-1.916a1.916,1.916,0,0,1,1.344.093l33.057,15.08a1.92,1.92,0,0,1,1.067,1.288l11.575,46.977A1.92,1.92,0,0,1,309.957,3041.938Z" transform="translate(-9296.052 -7963.99)" fill="#728080"/>
    <path id="Trazado_627647" data-name="Trazado 627647" d="M218.941,2998.179a159.809,159.809,0,0,0-6.44-15.76,104.623,104.623,0,0,0-11.082-18.319,1.54,1.54,0,0,0-2.731,1.273,104.678,104.678,0,0,0,6.916,20.263,159.616,159.616,0,0,0,7.937,15.061Z" transform="translate(-9283.171 -7961.279)" fill="#009655"/>
    <path id="Trazado_627648" data-name="Trazado 627648" d="M224.8,2995.582a159.551,159.551,0,0,0-1.891-16.92,104.623,104.623,0,0,0-5.657-20.65,1.54,1.54,0,0,0-2.975.48,104.665,104.665,0,0,0,1.119,21.381,159.627,159.627,0,0,0,3.521,16.656Z" transform="translate(-9286.518 -7959.887)" fill="#00c37a"/>
    <path id="Trazado_627649" data-name="Trazado 627649" d="M240.127,2988.433a159.976,159.976,0,0,0-1.891-16.919,104.681,104.681,0,0,0-5.657-20.649,1.54,1.54,0,0,0-2.975.48,104.719,104.719,0,0,0,1.118,21.381,159.851,159.851,0,0,0,3.522,16.656Z" transform="translate(-9289.824 -7958.345)" fill="#00c37a"/>
    <path id="Trazado_627650" data-name="Trazado 627650" d="M184.015,3041.423V3020.3a1.92,1.92,0,0,1,.5-1.292l21.292-23.408a1.921,1.921,0,0,1,.873-.548l41.706-12.415a1.924,1.924,0,0,1,1.345.094l29.31,13.371a1.925,1.925,0,0,1,1.068,1.288l10.736,43.575a1.92,1.92,0,0,1-1.864,2.38H185.936A1.92,1.92,0,0,1,184.015,3041.423Z" transform="translate(-9280.015 -7965.396)" fill="#d7e3e1"/>
    <path id="Trazado_627651" data-name="Trazado 627651" d="M305.022,3043.344H301.66L290.735,2999l-32.372-14.557,6.064-1.806a1.922,1.922,0,0,1,1.346.094l29.309,13.369a1.924,1.924,0,0,1,1.067,1.288l10.738,43.577A1.921,1.921,0,0,1,305.022,3043.344Z" transform="translate(-9296.057 -7965.396)" fill="#a5b1b2"/>
    <path id="Trazado_627652" data-name="Trazado 627652" d="M291.907,3012.363a1.8,1.8,0,0,1-1.8-1.8v-.233a1.8,1.8,0,1,1,3.6,0v.233A1.8,1.8,0,0,1,291.907,3012.363Z" transform="translate(-9302.906 -7971)" fill="#728080"/>
    <path id="Trazado_627653" data-name="Trazado 627653" d="M284.48,3019.364a1.8,1.8,0,0,1-1.8-1.8v-.233a1.8,1.8,0,1,1,3.6,0v.233A1.8,1.8,0,0,1,284.48,3019.364Z" transform="translate(-9301.303 -7972.511)" fill="#728080"/>
    <path id="Trazado_627654" data-name="Trazado 627654" d="M294.758,3029.059a1.8,1.8,0,0,1-1.8-1.8v-.233a1.8,1.8,0,1,1,3.6,0v.233A1.8,1.8,0,0,1,294.758,3029.059Z" transform="translate(-9303.521 -7974.603)" fill="#728080"/>
    <path id="Trazado_627655" data-name="Trazado 627655" d="M301.395,2936.7a1.8,1.8,0,0,1-1.8-1.8v-.233a1.8,1.8,0,0,1,3.6,0v.233A1.8,1.8,0,0,1,301.395,2936.7Z" transform="translate(-9304.953 -7954.675)" fill="#728080"/>
    <path id="Trazado_627656" data-name="Trazado 627656" d="M294.758,2945.217a1.8,1.8,0,0,1-1.8-1.8v-.233a1.8,1.8,0,0,1,3.6,0v.233A1.8,1.8,0,0,1,294.758,2945.217Z" transform="translate(-9303.521 -7956.513)" fill="#728080"/>
    <path id="Trazado_627657" data-name="Trazado 627657" d="M303.61,2974.671a1.8,1.8,0,0,1-1.8-1.8v-12.992a1.8,1.8,0,0,1,3.6,0v12.992A1.8,1.8,0,0,1,303.61,2974.671Z" transform="translate(-9305.431 -7960.115)" fill="#728080"/>
    <path id="Trazado_627658" data-name="Trazado 627658" d="M277.1,2911.988v29.772a1.8,1.8,0,1,1-3.6,0V2913.82A33.3,33.3,0,0,1,277.1,2911.988Z" transform="translate(-9299.323 -7950.17)" fill="#728080"/>
    <path id="Trazado_627659" data-name="Trazado 627659" d="M244.183,3034.561a1.8,1.8,0,0,1-1.794-1.676l-.441-6.353-16.776-2.875-9.292,10.31a1.8,1.8,0,1,1-2.675-2.41l9.956-11.046a1.807,1.807,0,0,1,1.642-.57l19.148,3.282a1.8,1.8,0,0,1,1.492,1.65l.539,7.765a1.8,1.8,0,0,1-1.671,1.92C244.267,3034.56,244.225,3034.561,244.183,3034.561Z" transform="translate(-9286.213 -7973.457)" fill="#728080"/>
    <path id="Trazado_627660" data-name="Trazado 627660" d="M184.863,3024.779s39.31-1.988,64.748,5.715,46.681,13.014,46.681,13.014a186.572,186.572,0,0,0,24.863,1.677c13.712,0,47.044,1.118,78.457,11.042s77.922,12.578,86.813,12.3,45.121-2.1,53.421,2.236c0,0,6.9,1.677,6.831,12.719s2.435,51.852,2.435,51.852,6.9,40.531,20.088,56.6,51.064,24.458,51.064,24.458l113.209-.7,78.774-.14v17.362H184.863Z" transform="translate(-9280.197 -7974.457)" fill="#c7a776"/>
    <rect id="Rectángulo_306643" data-name="Rectángulo 306643" width="0.784" height="48.15" transform="translate(-8652.285 -4824.59)"/>
    <path id="Trazado_627661" data-name="Trazado 627661" d="M746.609,3242.935l2.9,1.234,2.9-1.234-2.9,6.884Z" transform="translate(-9401.405 -8021.578)"/>
    <rect id="Rectángulo_306644" data-name="Rectángulo 306644" width="0.784" height="106.851" transform="translate(-9002.188 -4957.085)"/>
    <path id="Trazado_627662" data-name="Trazado 627662" d="M300.436,3148.837l2.9,1.234,2.9-1.234-2.9,6.884Z" transform="translate(-9305.135 -8001.274)"/>
    <rect id="Rectángulo_306645" data-name="Rectángulo 306645" width="0.784" height="172.539" transform="translate(-8930.44 -5018.093)"/>
    <path id="Trazado_627663" data-name="Trazado 627663" d="M397.731,2938.518l-2.9-1.234-2.9,1.234,2.9-6.884Z" transform="translate(-9324.875 -7954.408)"/>
    <rect id="Rectángulo_306646" data-name="Rectángulo 306646" width="0.784" height="172.54" transform="translate(-8828.413 -5022.775)"/>
    <path id="Trazado_627664" data-name="Trazado 627664" d="M522.021,3148.836l2.9,1.234,2.9-1.234-2.9,6.884Z" transform="translate(-9352.945 -8001.274)"/>
    <rect id="Rectángulo_306647" data-name="Rectángulo 306647" width="48.15" height="0.784" transform="translate(-8620.192 -4843.151)"/>
    <path id="Trazado_627665" data-name="Trazado 627665" d="M849.322,3163.283l1.234-2.9-1.234-2.9,6.884,2.9Z" transform="translate(-9423.567 -8003.138)"/>
    <rect id="Rectángulo_306648" data-name="Rectángulo 306648" width="88.523" height="0.784" transform="translate(-8790.005 -4834.247)"/>
    <path id="Trazado_627666" data-name="Trazado 627666" d="M684.269,3174.636l1.234-2.9-1.234-2.9,6.884,2.9Z" transform="translate(-9387.954 -8005.587)"/>
    <rect id="Rectángulo_306649" data-name="Rectángulo 306649" width="48.149" height="0.784" transform="translate(-8603.49 -4826.379)"/>
    <path id="Trazado_627667" data-name="Trazado 627667" d="M812.945,3178.861l-1.234,2.9,1.234,2.9-6.884-2.9Z" transform="translate(-9414.232 -8007.752)"/>
    <rect id="Rectángulo_306650" data-name="Rectángulo 306650" width="79.542" height="40.335" transform="translate(-8691.488 -4854.022)" fill="#fef79c"/>
    <rect id="Rectángulo_306651" data-name="Rectángulo 306651" width="124.11" height="19.557" transform="translate(-8713.881 -4770.351)" fill="#fef79c"/>
    <path id="Trazado_627668" data-name="Trazado 627668" d="M710.677,3157.974h-3.913v4.119h-1.23v-9.325h5.777v1.005h-4.548v3.2h3.913Z" transform="translate(-9392.542 -8002.122)"/>
    <path id="Trazado_627669" data-name="Trazado 627669" d="M714.142,3159.187a4.1,4.1,0,0,1,.4-1.832,2.981,2.981,0,0,1,1.114-1.255,3.031,3.031,0,0,1,1.63-.442,2.922,2.922,0,0,1,2.29.979,3.769,3.769,0,0,1,.874,2.607v.084a4.121,4.121,0,0,1-.387,1.816,2.94,2.94,0,0,1-1.108,1.252,3.067,3.067,0,0,1-1.656.448,2.915,2.915,0,0,1-2.284-.979,3.751,3.751,0,0,1-.874-2.594Zm1.191.141a2.969,2.969,0,0,0,.535,1.851,1.813,1.813,0,0,0,2.866-.009,3.244,3.244,0,0,0,.532-1.983,2.958,2.958,0,0,0-.541-1.848,1.721,1.721,0,0,0-1.438-.708,1.7,1.7,0,0,0-1.416.7A3.222,3.222,0,0,0,715.333,3159.328Z" transform="translate(-9394.399 -8002.746)"/>
    <path id="Trazado_627670" data-name="Trazado 627670" d="M728.039,3160.878a.876.876,0,0,0-.362-.747,3.5,3.5,0,0,0-1.262-.458,5.938,5.938,0,0,1-1.428-.461,2.018,2.018,0,0,1-.781-.64,1.524,1.524,0,0,1-.253-.884,1.8,1.8,0,0,1,.721-1.441,2.811,2.811,0,0,1,1.841-.589,2.9,2.9,0,0,1,1.912.609,1.932,1.932,0,0,1,.733,1.556h-1.191a1.067,1.067,0,0,0-.413-.838,1.546,1.546,0,0,0-1.041-.353,1.619,1.619,0,0,0-1.012.282.888.888,0,0,0-.365.736.716.716,0,0,0,.34.646,4.141,4.141,0,0,0,1.227.417,6.421,6.421,0,0,1,1.437.474,2.118,2.118,0,0,1,.817.663,1.632,1.632,0,0,1,.265.945,1.77,1.77,0,0,1-.743,1.489,3.115,3.115,0,0,1-1.928.561,3.5,3.5,0,0,1-1.474-.294,2.4,2.4,0,0,1-1-.823,1.98,1.98,0,0,1-.362-1.143H724.9a1.226,1.226,0,0,0,.477.946,1.855,1.855,0,0,0,1.176.348,1.909,1.909,0,0,0,1.079-.272A.836.836,0,0,0,728.039,3160.878Z" transform="translate(-9396.465 -8002.746)"/>
    <path id="Trazado_627671" data-name="Trazado 627671" d="M733.149,3161.914V3155.9h-1.1v-.916h1.1v-.711a2.358,2.358,0,0,1,.6-1.722,2.25,2.25,0,0,1,1.685-.61,3.138,3.138,0,0,1,.813.108l-.064.955a3.392,3.392,0,0,0-.641-.057,1.155,1.155,0,0,0-.89.337,1.367,1.367,0,0,0-.314.967v.732h1.479v.916h-1.479v6.014Z" transform="translate(-9398.264 -8001.944)"/>
    <path id="Trazado_627672" data-name="Trazado 627672" d="M742.737,3162.716a2.5,2.5,0,0,1-.166-.729,2.644,2.644,0,0,1-1.972.857,2.444,2.444,0,0,1-1.681-.58,1.874,1.874,0,0,1-.657-1.47,1.961,1.961,0,0,1,.823-1.681,3.88,3.88,0,0,1,2.315-.6h1.154v-.545a1.328,1.328,0,0,0-.372-.989,1.491,1.491,0,0,0-1.1-.368,1.731,1.731,0,0,0-1.063.32.946.946,0,0,0-.429.775H738.4a1.637,1.637,0,0,1,.369-1,2.512,2.512,0,0,1,1-.764,3.344,3.344,0,0,1,1.386-.282,2.741,2.741,0,0,1,1.877.6,2.161,2.161,0,0,1,.705,1.649v3.19a3.9,3.9,0,0,0,.243,1.518v.1Zm-1.966-.9a2.084,2.084,0,0,0,1.057-.289,1.744,1.744,0,0,0,.724-.749v-1.423h-.929q-2.177,0-2.177,1.275a1.075,1.075,0,0,0,.371.87A1.427,1.427,0,0,0,740.771,3161.813Z" transform="translate(-9399.604 -8002.746)"/>
    <path id="Trazado_627673" data-name="Trazado 627673" d="M748.989,3153.682v1.677h1.294v.916h-1.294v4.3a.958.958,0,0,0,.173.624.725.725,0,0,0,.589.208,2.831,2.831,0,0,0,.564-.077v.955a3.429,3.429,0,0,1-.91.127,1.476,1.476,0,0,1-1.2-.48,2.062,2.062,0,0,1-.4-1.364v-4.3h-1.262v-.916H747.8v-1.677Z" transform="translate(-9401.391 -8002.32)"/>
    <path id="Trazado_627674" data-name="Trazado 627674" d="M752.676,3159.187a4.086,4.086,0,0,1,.4-1.832,2.981,2.981,0,0,1,1.114-1.255,3.029,3.029,0,0,1,1.63-.442,2.924,2.924,0,0,1,2.29.979,3.773,3.773,0,0,1,.874,2.607v.084a4.132,4.132,0,0,1-.387,1.816,2.945,2.945,0,0,1-1.108,1.252,3.072,3.072,0,0,1-1.656.448,2.914,2.914,0,0,1-2.283-.979,3.751,3.751,0,0,1-.874-2.594Zm1.191.141a2.97,2.97,0,0,0,.535,1.851,1.813,1.813,0,0,0,2.866-.009,3.244,3.244,0,0,0,.532-1.983,2.958,2.958,0,0,0-.541-1.848,1.721,1.721,0,0,0-1.438-.708,1.7,1.7,0,0,0-1.416.7A3.222,3.222,0,0,0,753.867,3159.328Z" transform="translate(-9402.714 -8002.746)"/>
    <path id="Trazado_627675" data-name="Trazado 627675" d="M766.571,3160.878a.875.875,0,0,0-.361-.747,3.5,3.5,0,0,0-1.262-.458,5.958,5.958,0,0,1-1.429-.461,2.03,2.03,0,0,1-.781-.64,1.53,1.53,0,0,1-.253-.884,1.8,1.8,0,0,1,.721-1.441,2.814,2.814,0,0,1,1.842-.589,2.9,2.9,0,0,1,1.912.609,1.932,1.932,0,0,1,.733,1.556H766.5a1.067,1.067,0,0,0-.413-.838,1.546,1.546,0,0,0-1.041-.353,1.617,1.617,0,0,0-1.012.282.886.886,0,0,0-.365.736.717.717,0,0,0,.34.646,4.158,4.158,0,0,0,1.227.417,6.43,6.43,0,0,1,1.438.474,2.108,2.108,0,0,1,.816.663,1.632,1.632,0,0,1,.266.945,1.772,1.772,0,0,1-.743,1.489,3.115,3.115,0,0,1-1.928.561,3.489,3.489,0,0,1-1.473-.294,2.392,2.392,0,0,1-1-.823,1.981,1.981,0,0,1-.362-1.143h1.185a1.227,1.227,0,0,0,.478.946,1.853,1.853,0,0,0,1.175.348,1.91,1.91,0,0,0,1.08-.272A.835.835,0,0,0,766.571,3160.878Z" transform="translate(-9404.779 -8002.746)"/>
    <path id="Trazado_627676" data-name="Trazado 627676" d="M778.174,3162.844a3.026,3.026,0,0,1-2.292-.925,3.436,3.436,0,0,1-.884-2.477v-.217a4.163,4.163,0,0,1,.394-1.842,3.076,3.076,0,0,1,1.1-1.267,2.775,2.775,0,0,1,1.535-.458,2.6,2.6,0,0,1,2.1.89,3.861,3.861,0,0,1,.749,2.55v.493h-4.7a2.466,2.466,0,0,0,.6,1.655,1.882,1.882,0,0,0,1.457.631,2.069,2.069,0,0,0,1.063-.256,2.685,2.685,0,0,0,.762-.679l.724.563A2.91,2.91,0,0,1,778.174,3162.844Zm-.147-6.213a1.583,1.583,0,0,0-1.2.521,2.543,2.543,0,0,0-.6,1.464h3.472v-.09a2.251,2.251,0,0,0-.487-1.4A1.487,1.487,0,0,0,778.028,3156.631Z" transform="translate(-9407.53 -8002.746)"/>
    <path id="Trazado_627677" data-name="Trazado 627677" d="M785.364,3155.786l.038.871a2.525,2.525,0,0,1,2.075-1q2.2,0,2.216,2.478v4.58h-1.185v-4.585a1.6,1.6,0,0,0-.343-1.109,1.377,1.377,0,0,0-1.047-.358,1.707,1.707,0,0,0-1.012.308,2.1,2.1,0,0,0-.678.807v4.938h-1.185v-6.93Z" transform="translate(-9409.525 -8002.746)"/>
    <path id="Trazado_627678" data-name="Trazado 627678" d="M709.3,3182.788a2.49,2.49,0,0,1-.167-.729,2.646,2.646,0,0,1-1.972.858,2.446,2.446,0,0,1-1.681-.581,1.874,1.874,0,0,1-.656-1.47,1.958,1.958,0,0,1,.823-1.681,3.873,3.873,0,0,1,2.315-.6h1.153v-.544a1.328,1.328,0,0,0-.372-.99,1.492,1.492,0,0,0-1.095-.369,1.729,1.729,0,0,0-1.063.32.944.944,0,0,0-.429.776h-1.192a1.639,1.639,0,0,1,.369-1,2.506,2.506,0,0,1,1-.764,3.356,3.356,0,0,1,1.387-.283,2.739,2.739,0,0,1,1.877.6,2.163,2.163,0,0,1,.7,1.65v3.189a3.9,3.9,0,0,0,.243,1.518v.1Zm-1.967-.9a2.082,2.082,0,0,0,1.057-.289,1.735,1.735,0,0,0,.724-.749v-1.423h-.929q-2.179,0-2.178,1.275a1.078,1.078,0,0,0,.372.871A1.429,1.429,0,0,0,707.337,3181.886Z" transform="translate(-9392.39 -8007.077)"/>
    <path id="Trazado_627679" data-name="Trazado 627679" d="M713.819,3179.266a4.074,4.074,0,0,1,.75-2.578,2.584,2.584,0,0,1,3.965-.061l.057-.768h1.082v6.764a2.822,2.822,0,0,1-.8,2.12,2.946,2.946,0,0,1-2.143.775,3.584,3.584,0,0,1-1.467-.32,2.527,2.527,0,0,1-1.095-.877l.615-.711a2.317,2.317,0,0,0,1.863.942,1.814,1.814,0,0,0,1.349-.488,1.859,1.859,0,0,0,.483-1.37v-.6a2.435,2.435,0,0,1-1.94.82,2.369,2.369,0,0,1-1.97-.979A4.284,4.284,0,0,1,713.819,3179.266Zm1.192.135a3.111,3.111,0,0,0,.48,1.841,1.561,1.561,0,0,0,1.345.669,1.735,1.735,0,0,0,1.646-1.018v-3.164a1.757,1.757,0,0,0-1.633-.992,1.575,1.575,0,0,0-1.352.672A3.389,3.389,0,0,0,715.011,3179.4Z" transform="translate(-9394.33 -8007.077)"/>
    <path id="Trazado_627680" data-name="Trazado 627680" d="M727.835,3182.138a2.517,2.517,0,0,1-2.03.814,2.156,2.156,0,0,1-1.688-.644,2.791,2.791,0,0,1-.586-1.9v-4.509h1.185v4.477q0,1.574,1.281,1.575a1.773,1.773,0,0,0,1.806-1.012v-5.041h1.185v6.93H727.86Z" transform="translate(-9396.425 -8007.112)"/>
    <path id="Trazado_627681" data-name="Trazado 627681" d="M737.007,3182.788a2.493,2.493,0,0,1-.166-.729,2.646,2.646,0,0,1-1.972.858,2.445,2.445,0,0,1-1.682-.581,1.875,1.875,0,0,1-.657-1.47,1.96,1.96,0,0,1,.823-1.681,3.874,3.874,0,0,1,2.315-.6h1.154v-.544a1.328,1.328,0,0,0-.372-.99,1.493,1.493,0,0,0-1.1-.369,1.726,1.726,0,0,0-1.063.32.945.945,0,0,0-.43.776h-1.191a1.639,1.639,0,0,1,.369-1,2.506,2.506,0,0,1,1-.764,3.353,3.353,0,0,1,1.387-.283,2.738,2.738,0,0,1,1.877.6,2.161,2.161,0,0,1,.705,1.65v3.189a3.9,3.9,0,0,0,.243,1.518v.1Zm-1.966-.9a2.082,2.082,0,0,0,1.057-.289,1.74,1.74,0,0,0,.724-.749v-1.423h-.929q-2.179,0-2.178,1.275a1.078,1.078,0,0,0,.371.871A1.432,1.432,0,0,0,735.041,3181.886Z" transform="translate(-9398.367 -8007.077)"/>
    <path id="Trazado_627682" data-name="Trazado 627682" d="M747.136,3175.859l.032.768a2.56,2.56,0,0,1,2.056-.9,1.984,1.984,0,0,1,1.979,1.114,2.579,2.579,0,0,1,2.209-1.114q2.28,0,2.319,2.416v4.643h-1.185v-4.573a1.6,1.6,0,0,0-.34-1.112,1.5,1.5,0,0,0-1.14-.367,1.569,1.569,0,0,0-1.095.394,1.6,1.6,0,0,0-.507,1.06v4.6h-1.191v-4.542a1.322,1.322,0,0,0-1.48-1.51,1.585,1.585,0,0,0-1.594.992v5.06h-1.185v-6.929Z" transform="translate(-9401.276 -8007.077)"/>
    <path id="Trazado_627683" data-name="Trazado 627683" d="M764.907,3182.788a2.493,2.493,0,0,1-.166-.729,2.646,2.646,0,0,1-1.972.858,2.445,2.445,0,0,1-1.681-.581,1.875,1.875,0,0,1-.657-1.47,1.958,1.958,0,0,1,.823-1.681,3.875,3.875,0,0,1,2.315-.6h1.153v-.544a1.328,1.328,0,0,0-.371-.99,1.493,1.493,0,0,0-1.1-.369,1.729,1.729,0,0,0-1.063.32.946.946,0,0,0-.429.776h-1.191a1.639,1.639,0,0,1,.369-1,2.5,2.5,0,0,1,1-.764,3.352,3.352,0,0,1,1.387-.283,2.739,2.739,0,0,1,1.877.6,2.164,2.164,0,0,1,.705,1.65v3.189a3.9,3.9,0,0,0,.243,1.518v.1Zm-1.966-.9A2.083,2.083,0,0,0,764,3181.6a1.738,1.738,0,0,0,.723-.749v-1.423h-.928q-2.177,0-2.177,1.275a1.078,1.078,0,0,0,.371.871A1.431,1.431,0,0,0,762.941,3181.886Z" transform="translate(-9404.387 -8007.077)"/>
    <path id="Trazado_627684" data-name="Trazado 627684" d="M773.132,3176.921a3.568,3.568,0,0,0-.583-.045,1.561,1.561,0,0,0-1.583.993v4.918h-1.185v-6.929h1.154l.019.8a1.846,1.846,0,0,1,1.652-.929,1.213,1.213,0,0,1,.526.09Z" transform="translate(-9406.405 -8007.077)"/>
    <path id="Trazado_627685" data-name="Trazado 627685" d="M775.45,3173.361a.71.71,0,0,1,.176-.486.663.663,0,0,1,.522-.2.672.672,0,0,1,.525.2.7.7,0,0,1,.18.486.734.734,0,0,1-1.227.481A.688.688,0,0,1,775.45,3173.361Zm1.281,8.769h-1.186V3175.2h1.186Z" transform="translate(-9407.628 -8006.418)"/>
    <path id="Trazado_627686" data-name="Trazado 627686" d="M780.623,3175.859l.038.87a2.524,2.524,0,0,1,2.075-1q2.2,0,2.216,2.479v4.579h-1.185V3178.2a1.591,1.591,0,0,0-.343-1.108,1.373,1.373,0,0,0-1.047-.358,1.712,1.712,0,0,0-1.013.307,2.1,2.1,0,0,0-.679.808v4.938H779.5v-6.929Z" transform="translate(-9408.502 -8007.077)"/>
    <path id="Trazado_627687" data-name="Trazado 627687" d="M792.954,3182.788a2.469,2.469,0,0,1-.166-.729,2.646,2.646,0,0,1-1.972.858,2.445,2.445,0,0,1-1.681-.581,1.872,1.872,0,0,1-.657-1.47,1.959,1.959,0,0,1,.823-1.681,3.875,3.875,0,0,1,2.315-.6h1.153v-.544a1.328,1.328,0,0,0-.371-.99,1.494,1.494,0,0,0-1.1-.369,1.729,1.729,0,0,0-1.063.32.946.946,0,0,0-.429.776h-1.191a1.639,1.639,0,0,1,.369-1,2.5,2.5,0,0,1,1-.764,3.352,3.352,0,0,1,1.387-.283,2.739,2.739,0,0,1,1.877.6,2.164,2.164,0,0,1,.705,1.65v3.189a3.9,3.9,0,0,0,.243,1.518v.1Zm-1.966-.9a2.084,2.084,0,0,0,1.057-.289,1.738,1.738,0,0,0,.723-.749v-1.423h-.929q-2.177,0-2.178,1.275a1.079,1.079,0,0,0,.372.871A1.43,1.43,0,0,0,790.988,3181.886Z" transform="translate(-9410.438 -8007.077)"/>
    <rect id="Rectángulo_306652" data-name="Rectángulo 306652" width="49.383" height="32.142" transform="translate(-9087.702 -4991.188)" fill="#fef79c"/>
    <path id="Trazado_627688" data-name="Trazado 627688" d="M207.721,2990.439H205.53v3.772h-1.236v-9.326h3.088a3.644,3.644,0,0,1,2.424.718,2.577,2.577,0,0,1,.849,2.088,2.511,2.511,0,0,1-.471,1.518,2.816,2.816,0,0,1-1.31.967l2.19,3.959v.076h-1.319Zm-2.191-1.006h1.89a2.131,2.131,0,0,0,1.457-.475,1.6,1.6,0,0,0,.541-1.27,1.69,1.69,0,0,0-.515-1.328,2.181,2.181,0,0,0-1.489-.469H205.53Z" transform="translate(-9284.39 -7965.898)"/>
    <path id="Trazado_627689" data-name="Trazado 627689" d="M213.964,2991.306a4.085,4.085,0,0,1,.4-1.832,2.985,2.985,0,0,1,1.114-1.256,3.037,3.037,0,0,1,1.63-.441,2.925,2.925,0,0,1,2.29.979,3.775,3.775,0,0,1,.874,2.608v.084a4.131,4.131,0,0,1-.387,1.815,2.943,2.943,0,0,1-1.108,1.253,3.071,3.071,0,0,1-1.656.447,2.917,2.917,0,0,1-2.283-.979,3.752,3.752,0,0,1-.874-2.594Zm1.191.141a2.965,2.965,0,0,0,.535,1.85,1.812,1.812,0,0,0,2.866-.009,3.245,3.245,0,0,0,.532-1.982,2.96,2.96,0,0,0-.541-1.849,1.721,1.721,0,0,0-1.438-.707,1.7,1.7,0,0,0-1.416.7A3.223,3.223,0,0,0,215.155,2991.447Z" transform="translate(-9286.477 -7966.522)"/>
    <path id="Trazado_627690" data-name="Trazado 627690" d="M226.6,2994a1.709,1.709,0,0,0,1.108-.384,1.353,1.353,0,0,0,.525-.961h1.121a2.159,2.159,0,0,1-.41,1.134,2.7,2.7,0,0,1-1.009.857,2.9,2.9,0,0,1-1.336.32,2.853,2.853,0,0,1-2.251-.943,3.764,3.764,0,0,1-.836-2.586v-.2a4.162,4.162,0,0,1,.372-1.8,2.822,2.822,0,0,1,1.066-1.224,3.024,3.024,0,0,1,1.643-.435,2.777,2.777,0,0,1,1.938.7,2.5,2.5,0,0,1,.823,1.814h-1.121a1.641,1.641,0,0,0-.509-1.106,1.586,1.586,0,0,0-1.131-.431,1.658,1.658,0,0,0-1.4.651,3.05,3.05,0,0,0-.5,1.879v.224a2.992,2.992,0,0,0,.493,1.846A1.667,1.667,0,0,0,226.6,2994Z" transform="translate(-9288.536 -7966.522)"/>
    <path id="Trazado_627691" data-name="Trazado 627691" d="M236.883,2994.835a2.5,2.5,0,0,1-.166-.73,2.641,2.641,0,0,1-1.972.857,2.447,2.447,0,0,1-1.681-.579,1.875,1.875,0,0,1-.657-1.47,1.954,1.954,0,0,1,.823-1.68,3.875,3.875,0,0,1,2.315-.6H236.7v-.545a1.33,1.33,0,0,0-.372-.99,1.494,1.494,0,0,0-1.1-.368,1.723,1.723,0,0,0-1.063.32.945.945,0,0,0-.429.776h-1.191a1.639,1.639,0,0,1,.369-1,2.51,2.51,0,0,1,1-.764,3.344,3.344,0,0,1,1.387-.282,2.743,2.743,0,0,1,1.877.6,2.161,2.161,0,0,1,.705,1.65v3.19a3.9,3.9,0,0,0,.243,1.518v.1Zm-1.966-.9a2.091,2.091,0,0,0,1.057-.288,1.746,1.746,0,0,0,.724-.749v-1.423h-.929q-2.177,0-2.177,1.276a1.077,1.077,0,0,0,.371.871A1.427,1.427,0,0,0,234.917,2993.932Z" transform="translate(-9290.455 -7966.522)"/>
    <path id="Trazado_627692" data-name="Trazado 627692" d="M245.713,2993a.877.877,0,0,0-.362-.748,3.542,3.542,0,0,0-1.262-.458,5.972,5.972,0,0,1-1.429-.46,2.025,2.025,0,0,1-.781-.641,1.529,1.529,0,0,1-.253-.884,1.8,1.8,0,0,1,.72-1.441,2.819,2.819,0,0,1,1.842-.588,2.9,2.9,0,0,1,1.912.608,1.931,1.931,0,0,1,.733,1.556h-1.191a1.07,1.07,0,0,0-.413-.839,1.55,1.55,0,0,0-1.041-.352,1.617,1.617,0,0,0-1.012.281.889.889,0,0,0-.365.736.718.718,0,0,0,.34.647,4.176,4.176,0,0,0,1.227.417,6.427,6.427,0,0,1,1.438.474,2.11,2.11,0,0,1,.816.662,1.634,1.634,0,0,1,.266.945,1.774,1.774,0,0,1-.743,1.49,3.121,3.121,0,0,1-1.928.56,3.492,3.492,0,0,1-1.473-.294,2.389,2.389,0,0,1-1-.822,1.986,1.986,0,0,1-.362-1.144h1.186a1.222,1.222,0,0,0,.477.945,1.849,1.849,0,0,0,1.175.349,1.9,1.9,0,0,0,1.08-.273A.832.832,0,0,0,245.713,2993Z" transform="translate(-9292.394 -7966.522)"/>
    <path id="Trazado_627693" data-name="Trazado 627693" d="M686.073,3265.544a5.789,5.789,0,0,1-2.3-1.117,2.138,2.138,0,0,1-.72-1.637,2.256,2.256,0,0,1,.881-1.823,3.5,3.5,0,0,1,2.289-.72,3.816,3.816,0,0,1,1.714.372,2.818,2.818,0,0,1,1.165,1.024,2.628,2.628,0,0,1,.413,1.429h-1.236a1.709,1.709,0,0,0-.537-1.335,2.194,2.194,0,0,0-1.519-.485,2.241,2.241,0,0,0-1.419.4,1.34,1.34,0,0,0-.509,1.114,1.2,1.2,0,0,0,.483.965,4.735,4.735,0,0,0,1.647.722,7.6,7.6,0,0,1,1.819.721,2.756,2.756,0,0,1,.973.919,2.348,2.348,0,0,1,.318,1.237,2.179,2.179,0,0,1-.884,1.816,3.772,3.772,0,0,1-2.364.682,4.378,4.378,0,0,1-1.794-.368,3.016,3.016,0,0,1-1.285-1.009,2.458,2.458,0,0,1-.451-1.454h1.236a1.608,1.608,0,0,0,.624,1.336,2.628,2.628,0,0,0,1.669.49,2.419,2.419,0,0,0,1.492-.4,1.29,1.29,0,0,0,.518-1.083,1.268,1.268,0,0,0-.48-1.06A5.555,5.555,0,0,0,686.073,3265.544Z" transform="translate(-9387.627 -8025.313)"/>
    <path id="Trazado_627694" data-name="Trazado 627694" d="M695.961,3270.488a3.029,3.029,0,0,1-2.293-.926,3.436,3.436,0,0,1-.884-2.476v-.217a4.16,4.16,0,0,1,.394-1.842,3.064,3.064,0,0,1,1.1-1.267,2.765,2.765,0,0,1,1.534-.458,2.593,2.593,0,0,1,2.1.89,3.854,3.854,0,0,1,.75,2.55v.492h-4.7a2.464,2.464,0,0,0,.6,1.656,1.882,1.882,0,0,0,1.457.63,2.066,2.066,0,0,0,1.063-.256,2.674,2.674,0,0,0,.762-.679l.724.564A2.911,2.911,0,0,1,695.961,3270.488Zm-.147-6.213a1.582,1.582,0,0,0-1.2.521,2.542,2.542,0,0,0-.6,1.463h3.472v-.089a2.253,2.253,0,0,0-.486-1.4A1.489,1.489,0,0,0,695.814,3264.275Z" transform="translate(-9389.791 -8025.972)"/>
    <path id="Trazado_627695" data-name="Trazado 627695" d="M701.662,3266.073a4.061,4.061,0,0,1,.756-2.565,2.573,2.573,0,0,1,3.908-.138v-3.612h1.184v9.838h-1.089l-.058-.743a2.411,2.411,0,0,1-1.979.871,2.368,2.368,0,0,1-1.964-.987,4.112,4.112,0,0,1-.759-2.575Zm1.186.134a3.07,3.07,0,0,0,.486,1.844,1.574,1.574,0,0,0,1.345.667,1.73,1.73,0,0,0,1.647-1.012v-3.184a1.743,1.743,0,0,0-1.634-.98,1.581,1.581,0,0,0-1.358.672A3.384,3.384,0,0,0,702.848,3266.207Z" transform="translate(-9391.707 -8025.207)"/>
    <path id="Trazado_627696" data-name="Trazado 627696" d="M711.471,3260.932a.71.71,0,0,1,.176-.486.664.664,0,0,1,.522-.2.671.671,0,0,1,.525.2.7.7,0,0,1,.18.486.676.676,0,0,1-.18.48.685.685,0,0,1-.525.193.677.677,0,0,1-.522-.193A.687.687,0,0,1,711.471,3260.932Zm1.281,8.769h-1.185v-6.93h1.185Z" transform="translate(-9393.823 -8025.313)"/>
    <path id="Trazado_627697" data-name="Trazado 627697" d="M716.635,3263.43l.032.768a2.56,2.56,0,0,1,2.055-.9,1.981,1.981,0,0,1,1.979,1.115,2.627,2.627,0,0,1,.9-.808,2.66,2.66,0,0,1,1.31-.307q2.281,0,2.319,2.415v4.643h-1.185v-4.573a1.591,1.591,0,0,0-.34-1.112,1.5,1.5,0,0,0-1.14-.368,1.569,1.569,0,0,0-1.095.394,1.6,1.6,0,0,0-.506,1.06v4.6h-1.192v-4.542a1.322,1.322,0,0,0-1.479-1.511,1.586,1.586,0,0,0-1.6.993v5.06h-1.185v-6.93Z" transform="translate(-9394.695 -8025.972)"/>
    <path id="Trazado_627698" data-name="Trazado 627698" d="M732.976,3270.488a3.027,3.027,0,0,1-2.293-.926,3.436,3.436,0,0,1-.884-2.476v-.217a4.16,4.16,0,0,1,.394-1.842,3.067,3.067,0,0,1,1.1-1.267,2.768,2.768,0,0,1,1.534-.458,2.6,2.6,0,0,1,2.1.89,3.854,3.854,0,0,1,.75,2.55v.492h-4.7a2.463,2.463,0,0,0,.6,1.656,1.885,1.885,0,0,0,1.458.63,2.061,2.061,0,0,0,1.063-.256,2.678,2.678,0,0,0,.763-.679l.724.564A2.912,2.912,0,0,1,732.976,3270.488Zm-.147-6.213a1.58,1.58,0,0,0-1.2.521,2.537,2.537,0,0,0-.6,1.463h3.471v-.089a2.253,2.253,0,0,0-.486-1.4A1.487,1.487,0,0,0,732.828,3264.275Z" transform="translate(-9397.777 -8025.972)"/>
    <path id="Trazado_627699" data-name="Trazado 627699" d="M740.166,3263.43l.038.87a2.526,2.526,0,0,1,2.075-1q2.2,0,2.216,2.478v4.58h-1.184v-4.586a1.6,1.6,0,0,0-.344-1.108,1.372,1.372,0,0,0-1.047-.358,1.707,1.707,0,0,0-1.012.308,2.084,2.084,0,0,0-.678.807v4.938h-1.185v-6.93Z" transform="translate(-9399.772 -8025.972)"/>
    <path id="Trazado_627700" data-name="Trazado 627700" d="M749.65,3261.325V3263h1.295v.916H749.65v4.3a.963.963,0,0,0,.173.625.728.728,0,0,0,.59.209,2.883,2.883,0,0,0,.564-.077v.955a3.454,3.454,0,0,1-.91.127,1.478,1.478,0,0,1-1.2-.48,2.071,2.071,0,0,1-.4-1.365v-4.3H747.2V3263h1.262v-1.678Z" transform="translate(-9401.533 -8025.546)"/>
    <path id="Trazado_627701" data-name="Trazado 627701" d="M753.337,3266.831a4.094,4.094,0,0,1,.4-1.832,2.978,2.978,0,0,1,1.114-1.256,3.031,3.031,0,0,1,1.63-.442,2.923,2.923,0,0,1,2.29.98,3.769,3.769,0,0,1,.874,2.607v.083a4.125,4.125,0,0,1-.387,1.816,2.94,2.94,0,0,1-1.108,1.252,3.08,3.08,0,0,1-1.656.448,2.915,2.915,0,0,1-2.283-.979,3.754,3.754,0,0,1-.874-2.595Zm1.192.14a2.97,2.97,0,0,0,.534,1.852,1.814,1.814,0,0,0,2.867-.01,3.24,3.24,0,0,0,.531-1.982,2.962,2.962,0,0,0-.541-1.848,1.721,1.721,0,0,0-1.437-.707,1.7,1.7,0,0,0-1.416.7A3.218,3.218,0,0,0,754.529,3266.971Z" transform="translate(-9402.856 -8025.972)"/>
    <path id="Trazado_627702" data-name="Trazado 627702" d="M768.531,3263.43l.032.768a2.561,2.561,0,0,1,2.055-.9,1.983,1.983,0,0,1,1.98,1.115,2.612,2.612,0,0,1,.9-.808,2.658,2.658,0,0,1,1.31-.307q2.28,0,2.319,2.415v4.643h-1.186v-4.573a1.591,1.591,0,0,0-.339-1.112,1.5,1.5,0,0,0-1.14-.368,1.571,1.571,0,0,0-1.1.394,1.6,1.6,0,0,0-.505,1.06v4.6h-1.192v-4.542a1.322,1.322,0,0,0-1.48-1.511,1.586,1.586,0,0,0-1.6.993v5.06h-1.185v-6.93Z" transform="translate(-9405.893 -8025.972)"/>
    <path id="Trazado_627703" data-name="Trazado 627703" d="M786.3,3270.36a2.5,2.5,0,0,1-.167-.73,2.641,2.641,0,0,1-1.972.858,2.447,2.447,0,0,1-1.682-.58,1.878,1.878,0,0,1-.656-1.469,1.96,1.96,0,0,1,.823-1.682,3.875,3.875,0,0,1,2.315-.6h1.153v-.544a1.328,1.328,0,0,0-.372-.99,1.492,1.492,0,0,0-1.095-.368,1.725,1.725,0,0,0-1.063.32.942.942,0,0,0-.429.775h-1.191a1.631,1.631,0,0,1,.369-1,2.5,2.5,0,0,1,1-.766,3.359,3.359,0,0,1,1.387-.281,2.743,2.743,0,0,1,1.877.6,2.167,2.167,0,0,1,.705,1.65v3.19a3.9,3.9,0,0,0,.242,1.518v.1Zm-1.966-.9a2.083,2.083,0,0,0,1.056-.289,1.735,1.735,0,0,0,.724-.749V3267h-.929q-2.177,0-2.178,1.275a1.078,1.078,0,0,0,.372.871A1.425,1.425,0,0,0,784.336,3269.457Z" transform="translate(-9409.004 -8025.972)"/>
    <path id="Trazado_627704" data-name="Trazado 627704" d="M794.526,3264.493a3.53,3.53,0,0,0-.583-.044,1.562,1.562,0,0,0-1.582.992v4.919h-1.185v-6.93h1.154l.019.8A1.843,1.843,0,0,1,794,3263.3a1.214,1.214,0,0,1,.525.09Z" transform="translate(-9411.021 -8025.972)"/>
    <path id="Trazado_627705" data-name="Trazado 627705" d="M796.845,3260.932a.71.71,0,0,1,.176-.486.79.79,0,0,1,1.047,0,.7.7,0,0,1,.18.486.733.733,0,0,1-1.227.48A.687.687,0,0,1,796.845,3260.932Zm1.281,8.769h-1.186v-6.93h1.186Z" transform="translate(-9412.244 -8025.313)"/>
    <path id="Trazado_627706" data-name="Trazado 627706" d="M802.017,3263.43l.038.87a2.528,2.528,0,0,1,2.076-1q2.2,0,2.216,2.478v4.58h-1.185v-4.586a1.6,1.6,0,0,0-.343-1.108,1.374,1.374,0,0,0-1.047-.358,1.705,1.705,0,0,0-1.012.308,2.079,2.079,0,0,0-.679.807v4.938H800.9v-6.93Z" transform="translate(-9413.118 -8025.972)"/>
    <path id="Trazado_627707" data-name="Trazado 627707" d="M809.725,3266.831a4.1,4.1,0,0,1,.4-1.832,2.978,2.978,0,0,1,1.114-1.256,3.034,3.034,0,0,1,1.631-.442,2.921,2.921,0,0,1,2.289.98,3.767,3.767,0,0,1,.874,2.607v.083a4.125,4.125,0,0,1-.387,1.816,2.941,2.941,0,0,1-1.109,1.252,3.076,3.076,0,0,1-1.656.448,2.914,2.914,0,0,1-2.283-.979,3.753,3.753,0,0,1-.875-2.595Zm1.191.14a2.97,2.97,0,0,0,.535,1.852,1.814,1.814,0,0,0,2.866-.01,3.24,3.24,0,0,0,.532-1.982,2.966,2.966,0,0,0-.541-1.848,1.722,1.722,0,0,0-1.437-.707,1.7,1.7,0,0,0-1.416.7A3.218,3.218,0,0,0,810.916,3266.971Z" transform="translate(-9415.023 -8025.972)"/>
    <rect id="Rectángulo_306653" data-name="Rectángulo 306653" width="219.115" height="19.557" transform="translate(-9009.714 -4843.634)" fill="#fef79c"/>
    <path id="Trazado_627708" data-name="Trazado 627708" d="M319.281,3172.172h-3.913v4.118h-1.23v-9.324h5.777v1h-4.548v3.2h3.913Z" transform="translate(-9308.091 -8005.186)"/>
    <path id="Trazado_627709" data-name="Trazado 627709" d="M322.747,3173.384a4.093,4.093,0,0,1,.4-1.831,2.976,2.976,0,0,1,1.114-1.255,3.026,3.026,0,0,1,1.63-.443,2.921,2.921,0,0,1,2.29.98,3.773,3.773,0,0,1,.874,2.608v.082a4.139,4.139,0,0,1-.387,1.817,2.944,2.944,0,0,1-1.109,1.251,3.07,3.07,0,0,1-1.656.449,2.915,2.915,0,0,1-2.284-.98,3.752,3.752,0,0,1-.874-2.6Zm1.191.141a2.962,2.962,0,0,0,.535,1.852,1.814,1.814,0,0,0,2.866-.01,3.243,3.243,0,0,0,.532-1.983,2.96,2.96,0,0,0-.542-1.847,1.8,1.8,0,0,0-2.853-.011A3.223,3.223,0,0,0,323.938,3173.525Z" transform="translate(-9309.948 -8005.81)"/>
    <path id="Trazado_627710" data-name="Trazado 627710" d="M336.642,3175.076a.873.873,0,0,0-.362-.746,3.481,3.481,0,0,0-1.263-.458,6.016,6.016,0,0,1-1.428-.461,2.04,2.04,0,0,1-.781-.641,1.532,1.532,0,0,1-.253-.884,1.8,1.8,0,0,1,.721-1.441,2.808,2.808,0,0,1,1.841-.59,2.892,2.892,0,0,1,1.912.609,1.934,1.934,0,0,1,.733,1.556h-1.191a1.066,1.066,0,0,0-.413-.837,1.54,1.54,0,0,0-1.041-.352,1.616,1.616,0,0,0-1.012.281.885.885,0,0,0-.365.736.721.721,0,0,0,.34.647,4.206,4.206,0,0,0,1.227.417,6.4,6.4,0,0,1,1.438.473,2.1,2.1,0,0,1,.816.663,1.632,1.632,0,0,1,.266.945,1.776,1.776,0,0,1-.743,1.489,3.121,3.121,0,0,1-1.928.561,3.492,3.492,0,0,1-1.473-.294,2.41,2.41,0,0,1-1-.824,1.987,1.987,0,0,1-.362-1.143H333.5a1.226,1.226,0,0,0,.478.945,1.848,1.848,0,0,0,1.175.347,1.917,1.917,0,0,0,1.08-.271A.838.838,0,0,0,336.642,3175.076Z" transform="translate(-9312.014 -8005.81)"/>
    <path id="Trazado_627711" data-name="Trazado 627711" d="M341.753,3176.111V3170.1h-1.095v-.916h1.095v-.713a2.353,2.353,0,0,1,.6-1.721,2.247,2.247,0,0,1,1.685-.61,3.165,3.165,0,0,1,.813.108l-.064.954a3.426,3.426,0,0,0-.641-.056,1.154,1.154,0,0,0-.891.337,1.366,1.366,0,0,0-.314.966v.734h1.48v.916h-1.48v6.013Z" transform="translate(-9313.813 -8005.008)"/>
    <path id="Trazado_627712" data-name="Trazado 627712" d="M351.342,3176.913a2.488,2.488,0,0,1-.167-.729,2.647,2.647,0,0,1-1.972.858,2.444,2.444,0,0,1-1.681-.581,1.873,1.873,0,0,1-.656-1.469,1.959,1.959,0,0,1,.823-1.681,3.873,3.873,0,0,1,2.315-.6h1.153v-.543a1.327,1.327,0,0,0-.372-.99,1.489,1.489,0,0,0-1.095-.369,1.734,1.734,0,0,0-1.063.32.946.946,0,0,0-.429.776h-1.191a1.634,1.634,0,0,1,.368-1,2.512,2.512,0,0,1,1-.765,3.36,3.36,0,0,1,1.387-.282,2.737,2.737,0,0,1,1.877.6,2.164,2.164,0,0,1,.7,1.65v3.189a3.9,3.9,0,0,0,.243,1.518v.1Zm-1.966-.9a2.075,2.075,0,0,0,1.056-.29,1.733,1.733,0,0,0,.724-.749v-1.422h-.928q-2.179,0-2.178,1.274a1.08,1.08,0,0,0,.372.872A1.432,1.432,0,0,0,349.376,3176.011Z" transform="translate(-9315.152 -8005.81)"/>
    <path id="Trazado_627713" data-name="Trazado 627713" d="M357.594,3167.879v1.679h1.294v.916h-1.294v4.3a.958.958,0,0,0,.173.625.729.729,0,0,0,.59.208,2.829,2.829,0,0,0,.564-.076v.955a3.46,3.46,0,0,1-.91.128,1.476,1.476,0,0,1-1.2-.481,2.058,2.058,0,0,1-.4-1.363v-4.3h-1.262v-.916h1.262v-1.679Z" transform="translate(-9316.939 -8005.383)"/>
    <path id="Trazado_627714" data-name="Trazado 627714" d="M361.28,3173.384a4.094,4.094,0,0,1,.4-1.831,2.976,2.976,0,0,1,1.114-1.255,3.026,3.026,0,0,1,1.63-.443,2.922,2.922,0,0,1,2.29.98,3.773,3.773,0,0,1,.874,2.608v.082a4.128,4.128,0,0,1-.387,1.817,2.937,2.937,0,0,1-1.108,1.251,3.07,3.07,0,0,1-1.656.449,2.913,2.913,0,0,1-2.284-.98,3.753,3.753,0,0,1-.874-2.6Zm1.191.141a2.962,2.962,0,0,0,.536,1.852,1.813,1.813,0,0,0,2.866-.01,3.237,3.237,0,0,0,.533-1.983,2.96,2.96,0,0,0-.542-1.847,1.8,1.8,0,0,0-2.853-.011A3.218,3.218,0,0,0,362.471,3173.525Z" transform="translate(-9318.263 -8005.81)"/>
    <path id="Trazado_627715" data-name="Trazado 627715" d="M375.176,3175.076a.872.872,0,0,0-.362-.746,3.481,3.481,0,0,0-1.262-.458,6,6,0,0,1-1.428-.461,2.04,2.04,0,0,1-.781-.641,1.526,1.526,0,0,1-.253-.884,1.8,1.8,0,0,1,.721-1.441,2.808,2.808,0,0,1,1.841-.59,2.9,2.9,0,0,1,1.912.609,1.934,1.934,0,0,1,.733,1.556h-1.191a1.068,1.068,0,0,0-.413-.837,1.542,1.542,0,0,0-1.041-.352,1.62,1.62,0,0,0-1.012.281.886.886,0,0,0-.365.736.719.719,0,0,0,.34.647,4.188,4.188,0,0,0,1.227.417,6.375,6.375,0,0,1,1.438.473,2.1,2.1,0,0,1,.817.663,1.632,1.632,0,0,1,.266.945,1.774,1.774,0,0,1-.743,1.489,3.117,3.117,0,0,1-1.928.561,3.5,3.5,0,0,1-1.474-.294,2.412,2.412,0,0,1-1-.824,1.981,1.981,0,0,1-.362-1.143h1.185a1.226,1.226,0,0,0,.477.945,1.851,1.851,0,0,0,1.176.347,1.913,1.913,0,0,0,1.079-.271A.837.837,0,0,0,375.176,3175.076Z" transform="translate(-9320.328 -8005.81)"/>
    <path id="Trazado_627716" data-name="Trazado 627716" d="M386.779,3177.042a3.028,3.028,0,0,1-2.293-.925,3.439,3.439,0,0,1-.884-2.477v-.218a4.155,4.155,0,0,1,.394-1.841,3.066,3.066,0,0,1,1.1-1.269,2.78,2.78,0,0,1,1.534-.458,2.6,2.6,0,0,1,2.1.89,3.86,3.86,0,0,1,.75,2.55v.493h-4.7a2.458,2.458,0,0,0,.6,1.655,1.881,1.881,0,0,0,1.457.63,2.054,2.054,0,0,0,1.063-.256,2.664,2.664,0,0,0,.763-.678l.724.564A2.912,2.912,0,0,1,386.779,3177.042Zm-.147-6.213a1.577,1.577,0,0,0-1.2.521,2.539,2.539,0,0,0-.6,1.464H388.3v-.09a2.259,2.259,0,0,0-.487-1.4A1.49,1.49,0,0,0,386.632,3170.83Z" transform="translate(-9323.079 -8005.81)"/>
    <path id="Trazado_627717" data-name="Trazado 627717" d="M393.968,3169.984l.038.87a2.525,2.525,0,0,1,2.076-1q2.2,0,2.216,2.479v4.579h-1.185v-4.585a1.6,1.6,0,0,0-.343-1.107,1.374,1.374,0,0,0-1.048-.358,1.709,1.709,0,0,0-1.012.306,2.1,2.1,0,0,0-.679.808v4.938h-1.185v-6.929Z" transform="translate(-9325.074 -8005.81)"/>
    <path id="Trazado_627718" data-name="Trazado 627718" d="M409.01,3177.042a3.026,3.026,0,0,1-2.292-.925,3.436,3.436,0,0,1-.884-2.477v-.218a4.154,4.154,0,0,1,.394-1.841,3.07,3.07,0,0,1,1.1-1.269,2.78,2.78,0,0,1,1.534-.458,2.6,2.6,0,0,1,2.1.89,3.865,3.865,0,0,1,.749,2.55v.493h-4.7a2.466,2.466,0,0,0,.6,1.655,1.881,1.881,0,0,0,1.457.63,2.055,2.055,0,0,0,1.063-.256,2.671,2.671,0,0,0,.762-.678l.724.564A2.912,2.912,0,0,1,409.01,3177.042Zm-.147-6.213a1.579,1.579,0,0,0-1.2.521,2.539,2.539,0,0,0-.6,1.464h3.472v-.09a2.254,2.254,0,0,0-.487-1.4A1.49,1.49,0,0,0,408.863,3170.83Z" transform="translate(-9327.876 -8005.81)"/>
    <path id="Trazado_627719" data-name="Trazado 627719" d="M416.395,3176.148H415.21v-9.837h1.185Z" transform="translate(-9329.899 -8005.045)"/>
    <path id="Trazado_627720" data-name="Trazado 627720" d="M427.234,3175.076a.873.873,0,0,0-.362-.746,3.481,3.481,0,0,0-1.262-.458,6.023,6.023,0,0,1-1.429-.461,2.04,2.04,0,0,1-.781-.641,1.531,1.531,0,0,1-.253-.884,1.8,1.8,0,0,1,.72-1.441,2.81,2.81,0,0,1,1.842-.59,2.9,2.9,0,0,1,1.912.609,1.934,1.934,0,0,1,.733,1.556h-1.191a1.068,1.068,0,0,0-.413-.837,1.542,1.542,0,0,0-1.041-.352,1.617,1.617,0,0,0-1.012.281.887.887,0,0,0-.365.736.721.721,0,0,0,.34.647,4.205,4.205,0,0,0,1.227.417,6.383,6.383,0,0,1,1.438.473,2.1,2.1,0,0,1,.816.663,1.632,1.632,0,0,1,.266.945,1.775,1.775,0,0,1-.743,1.489,3.12,3.12,0,0,1-1.928.561,3.492,3.492,0,0,1-1.473-.294,2.408,2.408,0,0,1-1-.824,1.982,1.982,0,0,1-.362-1.143H424.1a1.223,1.223,0,0,0,.477.945,1.848,1.848,0,0,0,1.175.347,1.916,1.916,0,0,0,1.08-.271A.836.836,0,0,0,427.234,3175.076Z" transform="translate(-9331.561 -8005.81)"/>
    <path id="Trazado_627721" data-name="Trazado 627721" d="M436.176,3176.264a2.517,2.517,0,0,1-2.03.814,2.157,2.157,0,0,1-1.688-.644,2.793,2.793,0,0,1-.586-1.905v-4.509h1.185v4.477q0,1.573,1.281,1.574a1.773,1.773,0,0,0,1.806-1.011v-5.04h1.185v6.929H436.2Z" transform="translate(-9333.494 -8005.845)"/>
    <path id="Trazado_627722" data-name="Trazado 627722" d="M443.918,3177.042a3.027,3.027,0,0,1-2.293-.925,3.436,3.436,0,0,1-.884-2.477v-.218a4.154,4.154,0,0,1,.394-1.841,3.066,3.066,0,0,1,1.1-1.269,2.778,2.778,0,0,1,1.534-.458,2.6,2.6,0,0,1,2.1.89,3.86,3.86,0,0,1,.749,2.55v.493h-4.694a2.462,2.462,0,0,0,.6,1.655,1.883,1.883,0,0,0,1.457.63,2.055,2.055,0,0,0,1.063-.256,2.671,2.671,0,0,0,.762-.678l.724.564A2.91,2.91,0,0,1,443.918,3177.042Zm-.147-6.213a1.577,1.577,0,0,0-1.2.521,2.539,2.539,0,0,0-.6,1.464h3.472v-.09a2.254,2.254,0,0,0-.486-1.4A1.491,1.491,0,0,0,443.771,3170.83Z" transform="translate(-9335.408 -8005.81)"/>
    <path id="Trazado_627723" data-name="Trazado 627723" d="M451.3,3176.148h-1.185v-9.837H451.3Z" transform="translate(-9337.432 -8005.045)"/>
    <path id="Trazado_627724" data-name="Trazado 627724" d="M453.645,3173.384a4.094,4.094,0,0,1,.4-1.831,2.976,2.976,0,0,1,1.114-1.255,3.025,3.025,0,0,1,1.63-.443,2.92,2.92,0,0,1,2.29.98,3.77,3.77,0,0,1,.874,2.608v.082a4.128,4.128,0,0,1-.387,1.817,2.943,2.943,0,0,1-1.108,1.251,3.072,3.072,0,0,1-1.656.449,2.913,2.913,0,0,1-2.284-.98,3.752,3.752,0,0,1-.874-2.6Zm1.191.141a2.967,2.967,0,0,0,.535,1.852,1.814,1.814,0,0,0,2.866-.01,3.242,3.242,0,0,0,.532-1.983,2.96,2.96,0,0,0-.541-1.847,1.8,1.8,0,0,0-2.854-.011A3.223,3.223,0,0,0,454.836,3173.525Z" transform="translate(-9338.192 -8005.81)"/>
    <path id="Trazado_627725" data-name="Trazado 627725" d="M463.351,3180.328l-.673-.461a3.092,3.092,0,0,0,.628-1.729v-1.071h1.159v.93a2.927,2.927,0,0,1-.317,1.294A3.045,3.045,0,0,1,463.351,3180.328Z" transform="translate(-9340.142 -8007.365)"/>
    <path id="Trazado_627726" data-name="Trazado 627726" d="M472.325,3176.148H471.14v-9.837h1.185Z" transform="translate(-9341.968 -8005.045)"/>
    <path id="Trazado_627727" data-name="Trazado 627727" d="M479.292,3176.913a2.469,2.469,0,0,1-.166-.729,2.647,2.647,0,0,1-1.972.858,2.446,2.446,0,0,1-1.682-.581,1.873,1.873,0,0,1-.656-1.469,1.959,1.959,0,0,1,.823-1.681,3.873,3.873,0,0,1,2.315-.6h1.153v-.543a1.327,1.327,0,0,0-.371-.99,1.492,1.492,0,0,0-1.1-.369,1.734,1.734,0,0,0-1.063.32.946.946,0,0,0-.429.776h-1.191a1.635,1.635,0,0,1,.369-1,2.5,2.5,0,0,1,1-.765,3.359,3.359,0,0,1,1.387-.282,2.737,2.737,0,0,1,1.877.6,2.161,2.161,0,0,1,.7,1.65v3.189a3.9,3.9,0,0,0,.244,1.518v.1Zm-1.966-.9a2.073,2.073,0,0,0,1.056-.29,1.734,1.734,0,0,0,.724-.749v-1.422h-.929q-2.177,0-2.178,1.274a1.08,1.08,0,0,0,.372.872A1.432,1.432,0,0,0,477.326,3176.011Z" transform="translate(-9342.761 -8005.81)"/>
    <path id="Trazado_627728" data-name="Trazado 627728" d="M483.808,3173.39a4.076,4.076,0,0,1,.749-2.578,2.584,2.584,0,0,1,3.965-.061l.057-.767h1.083v6.764a2.821,2.821,0,0,1-.8,2.12,2.946,2.946,0,0,1-2.143.775,3.581,3.581,0,0,1-1.467-.32,2.546,2.546,0,0,1-1.095-.877l.615-.711a2.32,2.32,0,0,0,1.864.941,1.813,1.813,0,0,0,1.348-.488,1.857,1.857,0,0,0,.484-1.369v-.595a2.437,2.437,0,0,1-1.941.819,2.366,2.366,0,0,1-1.97-.98A4.287,4.287,0,0,1,483.808,3173.39Zm1.191.135a3.11,3.11,0,0,0,.48,1.842,1.561,1.561,0,0,0,1.345.669,1.735,1.735,0,0,0,1.647-1.018v-3.164a1.758,1.758,0,0,0-1.634-.992,1.575,1.575,0,0,0-1.352.672A3.384,3.384,0,0,0,485,3173.525Z" transform="translate(-9344.701 -8005.81)"/>
    <path id="Trazado_627729" data-name="Trazado 627729" d="M493.151,3173.384a4.084,4.084,0,0,1,.4-1.831,2.976,2.976,0,0,1,1.114-1.255,3.023,3.023,0,0,1,1.63-.443,2.921,2.921,0,0,1,2.29.98,3.773,3.773,0,0,1,.874,2.608v.082a4.139,4.139,0,0,1-.387,1.817,2.942,2.942,0,0,1-1.108,1.251,3.075,3.075,0,0,1-1.656.449,2.913,2.913,0,0,1-2.283-.98,3.752,3.752,0,0,1-.874-2.6Zm1.191.141a2.967,2.967,0,0,0,.535,1.852,1.814,1.814,0,0,0,2.866-.01,3.242,3.242,0,0,0,.532-1.983,2.96,2.96,0,0,0-.541-1.847,1.8,1.8,0,0,0-2.854-.011A3.223,3.223,0,0,0,494.342,3173.525Z" transform="translate(-9346.717 -8005.81)"/>
    <path id="Trazado_627730" data-name="Trazado 627730" d="M507.046,3175.076a.873.873,0,0,0-.362-.746,3.481,3.481,0,0,0-1.262-.458,6.024,6.024,0,0,1-1.429-.461,2.04,2.04,0,0,1-.781-.641,1.531,1.531,0,0,1-.253-.884,1.8,1.8,0,0,1,.72-1.441,2.811,2.811,0,0,1,1.842-.59,2.9,2.9,0,0,1,1.912.609,1.934,1.934,0,0,1,.733,1.556h-1.191a1.068,1.068,0,0,0-.413-.837,1.542,1.542,0,0,0-1.041-.352,1.617,1.617,0,0,0-1.012.281.887.887,0,0,0-.365.736.721.721,0,0,0,.34.647,4.205,4.205,0,0,0,1.227.417,6.383,6.383,0,0,1,1.438.473,2.1,2.1,0,0,1,.816.663,1.632,1.632,0,0,1,.266.945,1.775,1.775,0,0,1-.743,1.489,3.12,3.12,0,0,1-1.928.561,3.492,3.492,0,0,1-1.473-.294,2.407,2.407,0,0,1-1-.824,1.982,1.982,0,0,1-.362-1.143h1.186a1.223,1.223,0,0,0,.477.945,1.848,1.848,0,0,0,1.175.347,1.916,1.916,0,0,0,1.08-.271A.836.836,0,0,0,507.046,3175.076Z" transform="translate(-9348.782 -8005.81)"/>
    <path id="Trazado_627731" data-name="Trazado 627731" d="M517.916,3175.214l1.614-5.194H520.8l-2.786,8q-.647,1.727-2.055,1.729l-.224-.021-.442-.082v-.962l.32.027a1.577,1.577,0,0,0,.939-.244,1.757,1.757,0,0,0,.554-.89l.263-.7-2.473-6.853h1.294Z" transform="translate(-9351.408 -8005.845)"/>
    <path id="Trazado_627732" data-name="Trazado 627732" d="M531.261,3171.047a3.463,3.463,0,0,0-.583-.045,1.561,1.561,0,0,0-1.583.993v4.918h-1.185v-6.929h1.153l.02.8a1.845,1.845,0,0,1,1.652-.929,1.213,1.213,0,0,1,.525.091Z" transform="translate(-9354.217 -8005.81)"/>
    <path id="Trazado_627733" data-name="Trazado 627733" d="M534.889,3166.336h1.435l-1.717,1.882-.954,0Zm-.013,9.818h-1.191v-6.929h1.191Z" transform="translate(-9355.456 -8005.05)"/>
    <path id="Trazado_627734" data-name="Trazado 627734" d="M537.3,3173.384a4.083,4.083,0,0,1,.4-1.831,2.971,2.971,0,0,1,1.114-1.255,3.021,3.021,0,0,1,1.63-.443,2.921,2.921,0,0,1,2.29.98,3.774,3.774,0,0,1,.874,2.608v.082a4.138,4.138,0,0,1-.387,1.817,2.947,2.947,0,0,1-1.108,1.251,3.075,3.075,0,0,1-1.656.449,2.912,2.912,0,0,1-2.283-.98,3.749,3.749,0,0,1-.874-2.6Zm1.191.141a2.962,2.962,0,0,0,.535,1.852,1.814,1.814,0,0,0,2.866-.01,3.242,3.242,0,0,0,.532-1.983,2.96,2.96,0,0,0-.541-1.847,1.8,1.8,0,0,0-2.854-.011A3.223,3.223,0,0,0,538.5,3173.525Z" transform="translate(-9356.243 -8005.81)"/>
    <path id="Trazado_627735" data-name="Trazado 627735" d="M551.2,3175.076a.873.873,0,0,0-.362-.746,3.481,3.481,0,0,0-1.262-.458,6.013,6.013,0,0,1-1.429-.461,2.041,2.041,0,0,1-.781-.641,1.532,1.532,0,0,1-.253-.884,1.8,1.8,0,0,1,.721-1.441,2.81,2.81,0,0,1,1.841-.59,2.892,2.892,0,0,1,1.912.609,1.935,1.935,0,0,1,.734,1.556h-1.192a1.067,1.067,0,0,0-.412-.837,1.543,1.543,0,0,0-1.042-.352,1.616,1.616,0,0,0-1.012.281.885.885,0,0,0-.365.736.721.721,0,0,0,.34.647,4.205,4.205,0,0,0,1.227.417,6.4,6.4,0,0,1,1.438.473,2.1,2.1,0,0,1,.816.663,1.632,1.632,0,0,1,.266.945,1.776,1.776,0,0,1-.743,1.489,3.12,3.12,0,0,1-1.928.561,3.492,3.492,0,0,1-1.473-.294,2.4,2.4,0,0,1-1-.824,1.982,1.982,0,0,1-.362-1.143h1.185a1.226,1.226,0,0,0,.478.945,1.848,1.848,0,0,0,1.175.347,1.915,1.915,0,0,0,1.08-.271A.838.838,0,0,0,551.2,3175.076Z" transform="translate(-9358.309 -8005.81)"/>
    <rect id="Rectángulo_306654" data-name="Rectángulo 306654" width="163.349" height="19.557" transform="translate(-8956.988 -5042.541)" fill="#fef79c"/>
    <rect id="Rectángulo_306655" data-name="Rectángulo 306655" width="79.542" height="49.476" transform="translate(-8559.271 -4856.595)" fill="#fef79c"/>
    <path id="Trazado_627759" data-name="Trazado 627759" d="M907.336,3154.61h-2.19v3.569H903.91v-8.824H907a3.806,3.806,0,0,1,2.425.679,2.382,2.382,0,0,1,.849,1.976,2.288,2.288,0,0,1-.471,1.437,2.8,2.8,0,0,1-1.31.916l2.19,3.745v.072h-1.319Zm-2.19-.951h1.89a2.215,2.215,0,0,0,1.457-.45,1.483,1.483,0,0,0,.541-1.2,1.555,1.555,0,0,0-.516-1.256,2.264,2.264,0,0,0-1.489-.443h-1.883Z" transform="translate(-9435.346 -8001.386)"/>
    <path id="Trazado_627760" data-name="Trazado 627760" d="M916.773,3158.891a3.121,3.121,0,0,1-2.293-.875,3.154,3.154,0,0,1-.884-2.343v-.206a3.756,3.756,0,0,1,.394-1.743,2.967,2.967,0,0,1,1.1-1.2,2.88,2.88,0,0,1,1.534-.434,2.664,2.664,0,0,1,2.1.842,3.514,3.514,0,0,1,.75,2.412v.466h-4.7a2.258,2.258,0,0,0,.6,1.567,1.932,1.932,0,0,0,1.457.6,2.159,2.159,0,0,0,1.063-.243,2.628,2.628,0,0,0,.762-.642l.724.533A2.961,2.961,0,0,1,916.773,3158.891Zm-.147-5.878a1.622,1.622,0,0,0-1.2.494,2.331,2.331,0,0,0-.6,1.384h3.472v-.084a2.069,2.069,0,0,0-.487-1.324A1.529,1.529,0,0,0,916.625,3153.013Z" transform="translate(-9437.436 -8001.977)"/>
    <path id="Trazado_627761" data-name="Trazado 627761" d="M922.474,3154.713a3.7,3.7,0,0,1,.756-2.427,2.439,2.439,0,0,1,1.979-.918,2.466,2.466,0,0,1,1.928.788v-3.418h1.185v9.309h-1.089l-.058-.7a2.472,2.472,0,0,1-1.979.824,2.416,2.416,0,0,1-1.963-.933,3.742,3.742,0,0,1-.759-2.437Zm1.186.128a2.791,2.791,0,0,0,.486,1.745,1.6,1.6,0,0,0,1.345.63,1.741,1.741,0,0,0,1.646-.958v-3.012a1.756,1.756,0,0,0-1.633-.927,1.612,1.612,0,0,0-1.358.636A3.071,3.071,0,0,0,923.66,3154.841Z" transform="translate(-9439.352 -8001.253)"/>
    <path id="Trazado_627762" data-name="Trazado 627762" d="M882.6,3177.762a2.262,2.262,0,0,1-.166-.691,2.717,2.717,0,0,1-1.972.812,2.535,2.535,0,0,1-1.681-.548,1.735,1.735,0,0,1-.657-1.391,1.821,1.821,0,0,1,.823-1.591,4.045,4.045,0,0,1,2.315-.567h1.153v-.515a1.221,1.221,0,0,0-.371-.936,1.543,1.543,0,0,0-1.1-.349,1.8,1.8,0,0,0-1.063.3.884.884,0,0,0-.429.734h-1.191a1.5,1.5,0,0,1,.369-.949,2.489,2.489,0,0,1,1-.724,3.518,3.518,0,0,1,1.387-.268,2.842,2.842,0,0,1,1.877.567,2,2,0,0,1,.705,1.561v3.019a3.513,3.513,0,0,0,.243,1.436v.1Zm-1.966-.854a2.166,2.166,0,0,0,1.057-.273,1.688,1.688,0,0,0,.723-.709v-1.346h-.929q-2.177,0-2.178,1.206a1,1,0,0,0,.372.824A1.479,1.479,0,0,0,880.632,3176.908Z" transform="translate(-9429.781 -8006.074)"/>
    <path id="Trazado_627763" data-name="Trazado 627763" d="M888.789,3177.039H887.6v-9.31h1.185Z" transform="translate(-9431.827 -8005.351)"/>
    <path id="Trazado_627764" data-name="Trazado 627764" d="M891.54,3168.842a.647.647,0,0,1,.177-.461.682.682,0,0,1,.522-.188.69.69,0,0,1,.525.188.64.64,0,0,1,.18.461.62.62,0,0,1-.18.454.706.706,0,0,1-.525.182.7.7,0,0,1-.522-.182A.627.627,0,0,1,891.54,3168.842Zm1.281,8.3h-1.185v-6.558h1.185Z" transform="translate(-9432.677 -8005.451)"/>
    <path id="Trazado_627765" data-name="Trazado 627765" d="M896.7,3171.2l.032.727a2.627,2.627,0,0,1,2.056-.849,2,2,0,0,1,1.979,1.055,2.581,2.581,0,0,1,.9-.764,2.784,2.784,0,0,1,1.31-.291,2.055,2.055,0,0,1,2.318,2.285v4.394h-1.185v-4.327a1.451,1.451,0,0,0-.34-1.052,1.55,1.55,0,0,0-1.14-.348,1.624,1.624,0,0,0-1.095.373,1.481,1.481,0,0,0-.506,1v4.352h-1.192v-4.3a1.286,1.286,0,0,0-1.479-1.43,1.594,1.594,0,0,0-1.6.938v4.789h-1.185V3171.2Z" transform="translate(-9433.549 -8006.074)"/>
    <path id="Trazado_627766" data-name="Trazado 627766" d="M913.045,3177.883a3.12,3.12,0,0,1-2.293-.875,3.152,3.152,0,0,1-.884-2.343v-.206a3.757,3.757,0,0,1,.394-1.742,2.969,2.969,0,0,1,1.1-1.2,2.889,2.889,0,0,1,1.534-.434,2.666,2.666,0,0,1,2.1.842,3.516,3.516,0,0,1,.75,2.412v.467h-4.7a2.258,2.258,0,0,0,.6,1.567,1.931,1.931,0,0,0,1.457.6,2.161,2.161,0,0,0,1.063-.242,2.635,2.635,0,0,0,.762-.642l.724.533A2.962,2.962,0,0,1,913.045,3177.883ZM912.9,3172a1.624,1.624,0,0,0-1.2.494,2.335,2.335,0,0,0-.6,1.384h3.472v-.084a2.072,2.072,0,0,0-.487-1.325A1.531,1.531,0,0,0,912.9,3172Z" transform="translate(-9436.631 -8006.074)"/>
    <path id="Trazado_627767" data-name="Trazado 627767" d="M920.234,3171.2l.038.824a2.583,2.583,0,0,1,2.076-.946q2.2,0,2.216,2.346v4.333h-1.185v-4.34a1.458,1.458,0,0,0-.343-1.048,1.422,1.422,0,0,0-1.048-.339,1.778,1.778,0,0,0-1.012.291,2,2,0,0,0-.679.764v4.672h-1.185V3171.2Z" transform="translate(-9438.626 -8006.074)"/>
    <path id="Trazado_627768" data-name="Trazado 627768" d="M929.72,3169.213v1.588h1.294v.866H929.72v4.072a.874.874,0,0,0,.173.591.751.751,0,0,0,.59.2,3.026,3.026,0,0,0,.564-.073v.9a3.668,3.668,0,0,1-.91.12,1.517,1.517,0,0,1-1.2-.454,1.88,1.88,0,0,1-.4-1.292v-4.066h-1.262v-.866h1.262v-1.588Z" transform="translate(-9440.387 -8005.671)"/>
    <path id="Trazado_627769" data-name="Trazado 627769" d="M938.03,3177.762a2.263,2.263,0,0,1-.166-.691,2.717,2.717,0,0,1-1.972.812,2.535,2.535,0,0,1-1.681-.548,1.735,1.735,0,0,1-.657-1.391,1.821,1.821,0,0,1,.823-1.591,4.045,4.045,0,0,1,2.315-.567h1.154v-.515a1.222,1.222,0,0,0-.372-.936,1.543,1.543,0,0,0-1.1-.349,1.8,1.8,0,0,0-1.063.3.884.884,0,0,0-.429.734h-1.191a1.5,1.5,0,0,1,.369-.949,2.5,2.5,0,0,1,1-.724,3.518,3.518,0,0,1,1.386-.268,2.842,2.842,0,0,1,1.877.567,2,2,0,0,1,.705,1.561v3.019a3.512,3.512,0,0,0,.243,1.436v.1Zm-1.966-.854a2.166,2.166,0,0,0,1.057-.273,1.7,1.7,0,0,0,.724-.709v-1.346h-.929q-2.177,0-2.177,1.206a1,1,0,0,0,.371.824A1.479,1.479,0,0,0,936.064,3176.908Z" transform="translate(-9441.741 -8006.074)"/>
    <path id="Trazado_627770" data-name="Trazado 627770" d="M946.255,3172.211a3.736,3.736,0,0,0-.583-.042,1.568,1.568,0,0,0-1.582.939v4.654h-1.185V3171.2h1.153l.02.758a1.868,1.868,0,0,1,1.652-.879,1.28,1.28,0,0,1,.526.084Z" transform="translate(-9443.76 -8006.074)"/>
    <path id="Trazado_627771" data-name="Trazado 627771" d="M948.573,3168.842a.648.648,0,0,1,.176-.461.681.681,0,0,1,.522-.188.691.691,0,0,1,.525.188.643.643,0,0,1,.18.461.623.623,0,0,1-.18.454.708.708,0,0,1-.525.182.7.7,0,0,1-.522-.182A.627.627,0,0,1,948.573,3168.842Zm1.281,8.3h-1.186v-6.558h1.186Z" transform="translate(-9444.982 -8005.451)"/>
    <path id="Trazado_627772" data-name="Trazado 627772" d="M956.848,3177.762a2.259,2.259,0,0,1-.167-.691,2.717,2.717,0,0,1-1.972.812,2.536,2.536,0,0,1-1.681-.548,1.735,1.735,0,0,1-.656-1.391,1.821,1.821,0,0,1,.823-1.591,4.044,4.044,0,0,1,2.315-.567h1.153v-.515a1.222,1.222,0,0,0-.372-.936,1.543,1.543,0,0,0-1.095-.349,1.8,1.8,0,0,0-1.063.3.883.883,0,0,0-.43.734h-1.191a1.5,1.5,0,0,1,.369-.949,2.5,2.5,0,0,1,1-.724,3.522,3.522,0,0,1,1.387-.268,2.842,2.842,0,0,1,1.877.567,2,2,0,0,1,.7,1.561v3.019a3.512,3.512,0,0,0,.243,1.436v.1Zm-1.967-.854a2.166,2.166,0,0,0,1.057-.273,1.691,1.691,0,0,0,.724-.709v-1.346h-.929q-2.179,0-2.178,1.206a1,1,0,0,0,.372.824A1.477,1.477,0,0,0,954.881,3176.908Z" transform="translate(-9445.802 -8006.074)"/>
    <path id="Trazado_627773" data-name="Trazado 627773" d="M895.259,3190.2l.032.727a2.629,2.629,0,0,1,2.056-.849,2,2,0,0,1,1.979,1.055,2.59,2.59,0,0,1,.9-.764,2.783,2.783,0,0,1,1.31-.291,2.056,2.056,0,0,1,2.319,2.285v4.394H902.67v-4.328a1.451,1.451,0,0,0-.34-1.051,1.553,1.553,0,0,0-1.14-.348,1.618,1.618,0,0,0-1.095.373,1.476,1.476,0,0,0-.506,1v4.352H898.4v-4.3a1.286,1.286,0,0,0-1.48-1.43,1.593,1.593,0,0,0-1.594.938v4.789h-1.185V3190.2Z" transform="translate(-9433.237 -8010.172)"/>
    <path id="Trazado_627774" data-name="Trazado 627774" d="M913.03,3196.754a2.266,2.266,0,0,1-.166-.691,2.717,2.717,0,0,1-1.972.812,2.529,2.529,0,0,1-1.681-.548,1.737,1.737,0,0,1-.657-1.392,1.822,1.822,0,0,1,.823-1.59,4.053,4.053,0,0,1,2.315-.567h1.154v-.515a1.22,1.22,0,0,0-.372-.936,1.543,1.543,0,0,0-1.1-.348,1.8,1.8,0,0,0-1.063.3.885.885,0,0,0-.429.734h-1.191a1.5,1.5,0,0,1,.369-.949,2.505,2.505,0,0,1,1-.724,3.527,3.527,0,0,1,1.386-.267,2.842,2.842,0,0,1,1.877.567,2,2,0,0,1,.705,1.561v3.019a3.512,3.512,0,0,0,.243,1.436v.1Zm-1.966-.855a2.161,2.161,0,0,0,1.057-.273,1.692,1.692,0,0,0,.724-.709v-1.346h-.929q-2.177,0-2.177,1.207a1,1,0,0,0,.371.824A1.479,1.479,0,0,0,911.064,3195.9Z" transform="translate(-9436.348 -8010.172)"/>
    <path id="Trazado_627775" data-name="Trazado 627775" d="M921.255,3191.2a3.862,3.862,0,0,0-.583-.042,1.567,1.567,0,0,0-1.582.939v4.654h-1.185V3190.2h1.153l.02.757a1.867,1.867,0,0,1,1.652-.879,1.261,1.261,0,0,1,.526.085Z" transform="translate(-9438.365 -8010.172)"/>
    <path id="Trazado_627776" data-name="Trazado 627776" d="M923.573,3187.834a.647.647,0,0,1,.176-.461.683.683,0,0,1,.522-.187.694.694,0,0,1,.525.188.643.643,0,0,1,.18.461.622.622,0,0,1-.18.454.707.707,0,0,1-.525.182.7.7,0,0,1-.522-.182A.626.626,0,0,1,923.573,3187.834Zm1.281,8.3h-1.186v-6.558h1.186Z" transform="translate(-9439.588 -8009.549)"/>
    <path id="Trazado_627777" data-name="Trazado 627777" d="M928.745,3190.2l.038.824a2.582,2.582,0,0,1,2.076-.946q2.2,0,2.215,2.345v4.334H931.89v-4.339a1.463,1.463,0,0,0-.343-1.049,1.425,1.425,0,0,0-1.048-.339,1.782,1.782,0,0,0-1.012.291,2,2,0,0,0-.679.764v4.672h-1.185V3190.2Z" transform="translate(-9440.463 -8010.172)"/>
    <path id="Trazado_627778" data-name="Trazado 627778" d="M941.077,3196.754a2.263,2.263,0,0,1-.167-.691,2.717,2.717,0,0,1-1.972.812,2.531,2.531,0,0,1-1.681-.548,1.736,1.736,0,0,1-.656-1.392,1.822,1.822,0,0,1,.823-1.59,4.052,4.052,0,0,1,2.315-.567h1.153v-.515a1.22,1.22,0,0,0-.372-.936,1.542,1.542,0,0,0-1.095-.348,1.8,1.8,0,0,0-1.063.3.884.884,0,0,0-.43.734H936.74a1.5,1.5,0,0,1,.369-.949,2.505,2.505,0,0,1,1-.724,3.531,3.531,0,0,1,1.387-.267,2.842,2.842,0,0,1,1.877.567,2,2,0,0,1,.7,1.561v3.019a3.509,3.509,0,0,0,.243,1.436v.1Zm-1.967-.855a2.161,2.161,0,0,0,1.057-.273,1.688,1.688,0,0,0,.724-.709v-1.346h-.929q-2.179,0-2.178,1.207a1,1,0,0,0,.372.824A1.477,1.477,0,0,0,939.11,3195.9Z" transform="translate(-9442.399 -8010.172)"/>
    <path id="Trazado_627779" data-name="Trazado 627779" d="M575.39,3213.954H226.909V3018.865h.784v194.3h347.7Z" transform="translate(-9289.27 -7973.23)"/>
    <path id="Trazado_627780" data-name="Trazado 627780" d="M229.514,3019.78l-2.9-1.234-2.9,1.234,2.9-6.884Z" transform="translate(-9288.578 -7971.942)"/>
    <path id="Trazado_655336" data-name="Trazado 655336" d="M-71.921-4.026h-2.338V0h-1.319V-9.953h3.295a3.9,3.9,0,0,1,2.587.766,2.755,2.755,0,0,1,.906,2.229,2.68,2.68,0,0,1-.5,1.62,3,3,0,0,1-1.4,1.032l2.338,4.225V0h-1.408ZM-74.259-5.1h2.017a2.275,2.275,0,0,0,1.555-.507,1.714,1.714,0,0,0,.578-1.356,1.8,1.8,0,0,0-.55-1.418,2.33,2.33,0,0,0-1.589-.5h-2.01ZM-64.08.137a3.232,3.232,0,0,1-2.447-.988,3.666,3.666,0,0,1-.943-2.642v-.232a4.438,4.438,0,0,1,.42-1.965,3.28,3.28,0,0,1,1.176-1.354,2.956,2.956,0,0,1,1.637-.489A2.77,2.77,0,0,1-62-6.583a4.114,4.114,0,0,1,.8,2.721v.526h-5.011a2.629,2.629,0,0,0,.639,1.767A2.009,2.009,0,0,0-64.012-.9a2.2,2.2,0,0,0,1.135-.273,2.851,2.851,0,0,0,.813-.725l.772.6A3.106,3.106,0,0,1-64.08.137Zm-.157-6.631a1.687,1.687,0,0,0-1.285.557,2.708,2.708,0,0,0-.643,1.562h3.705v-.1a2.409,2.409,0,0,0-.52-1.494A1.588,1.588,0,0,0-64.237-6.494Zm4.2,2.734A4.333,4.333,0,0,1-59.233-6.5a2.551,2.551,0,0,1,2.112-1.036,2.565,2.565,0,0,1,2.058.889V-10.5H-53.8V0h-1.162l-.062-.793a2.575,2.575,0,0,1-2.112.93,2.526,2.526,0,0,1-2.1-1.053,4.382,4.382,0,0,1-.81-2.748Zm1.265.144a3.281,3.281,0,0,0,.52,1.969,1.68,1.68,0,0,0,1.436.711,1.845,1.845,0,0,0,1.757-1.08v-3.4A1.859,1.859,0,0,0-56.807-6.46a1.687,1.687,0,0,0-1.449.718A3.612,3.612,0,0,0-58.775-3.616ZM-43.8,0a2.657,2.657,0,0,1-.178-.779,2.822,2.822,0,0,1-2.105.916,2.611,2.611,0,0,1-1.794-.619,2,2,0,0,1-.7-1.569A2.091,2.091,0,0,1-47.7-3.845a4.142,4.142,0,0,1,2.471-.639H-44v-.581a1.42,1.42,0,0,0-.4-1.056,1.593,1.593,0,0,0-1.169-.393,1.844,1.844,0,0,0-1.135.342,1.007,1.007,0,0,0-.458.827h-1.271a1.745,1.745,0,0,1,.393-1.07,2.683,2.683,0,0,1,1.066-.817,3.588,3.588,0,0,1,1.48-.3,2.924,2.924,0,0,1,2,.639,2.306,2.306,0,0,1,.752,1.76v3.4a4.162,4.162,0,0,0,.26,1.62V0Zm-2.1-.964a2.223,2.223,0,0,0,1.128-.308,1.861,1.861,0,0,0,.772-.8V-3.589h-.991q-2.324,0-2.324,1.36a1.151,1.151,0,0,0,.4.93A1.524,1.524,0,0,0-45.9-.964ZM-39.382,0h-1.265V-10.5h1.265Zm3.4,0h-1.265V-7.4h1.265Zm-1.367-9.358a.755.755,0,0,1,.188-.52.706.706,0,0,1,.557-.212.717.717,0,0,1,.561.212.747.747,0,0,1,.191.52.722.722,0,0,1-.191.513.73.73,0,0,1-.561.205.718.718,0,0,1-.557-.205A.73.73,0,0,1-37.352-9.358Zm4.58,1.962.034.82a2.732,2.732,0,0,1,2.194-.957,2.115,2.115,0,0,1,2.112,1.189,2.8,2.8,0,0,1,.96-.861,2.837,2.837,0,0,1,1.4-.328q2.434,0,2.475,2.577V0h-1.265V-4.881a1.7,1.7,0,0,0-.362-1.186,1.6,1.6,0,0,0-1.217-.393,1.677,1.677,0,0,0-1.169.42,1.706,1.706,0,0,0-.54,1.131V0h-1.271V-4.847A1.411,1.411,0,0,0-31-6.46,1.692,1.692,0,0,0-32.7-5.4V0h-1.265V-7.4ZM-18.621.137a3.232,3.232,0,0,1-2.447-.988,3.666,3.666,0,0,1-.943-2.642v-.232a4.438,4.438,0,0,1,.42-1.965,3.28,3.28,0,0,1,1.176-1.354,2.956,2.956,0,0,1,1.637-.489,2.77,2.77,0,0,1,2.242.95,4.114,4.114,0,0,1,.8,2.721v.526h-5.011a2.629,2.629,0,0,0,.639,1.767A2.009,2.009,0,0,0-18.553-.9a2.2,2.2,0,0,0,1.135-.273,2.851,2.851,0,0,0,.813-.725l.772.6A3.106,3.106,0,0,1-18.621.137Zm-.157-6.631a1.687,1.687,0,0,0-1.285.557,2.708,2.708,0,0,0-.643,1.562H-17v-.1a2.409,2.409,0,0,0-.52-1.494A1.588,1.588,0,0,0-18.778-6.494Zm5.7-.9.041.93a2.7,2.7,0,0,1,2.215-1.066q2.345,0,2.365,2.646V0H-9.721V-4.895a1.7,1.7,0,0,0-.366-1.183A1.466,1.466,0,0,0-11.2-6.46a1.825,1.825,0,0,0-1.08.328,2.228,2.228,0,0,0-.725.861V0h-1.265V-7.4Zm8.244-1.791V-7.4h1.381v.978H-4.833v4.593a1.027,1.027,0,0,0,.185.667.777.777,0,0,0,.629.222,3.062,3.062,0,0,0,.6-.082V0a3.688,3.688,0,0,1-.971.136A1.575,1.575,0,0,1-5.667-.376,2.2,2.2,0,0,1-6.1-1.832V-6.419H-7.444V-7.4H-6.1V-9.187ZM2.591,0a2.657,2.657,0,0,1-.178-.779A2.822,2.822,0,0,1,.308.137,2.611,2.611,0,0,1-1.487-.482a2,2,0,0,1-.7-1.569,2.091,2.091,0,0,1,.878-1.794,4.142,4.142,0,0,1,2.471-.639h1.23v-.581A1.42,1.42,0,0,0,2-6.122,1.593,1.593,0,0,0,.827-6.515a1.844,1.844,0,0,0-1.135.342,1.007,1.007,0,0,0-.458.827H-2.037a1.745,1.745,0,0,1,.393-1.07A2.683,2.683,0,0,1-.578-7.232a3.588,3.588,0,0,1,1.48-.3,2.924,2.924,0,0,1,2,.639,2.306,2.306,0,0,1,.752,1.76v3.4a4.162,4.162,0,0,0,.26,1.62V0ZM.492-.964A2.223,2.223,0,0,0,1.62-1.271a1.861,1.861,0,0,0,.772-.8V-3.589H1.4q-2.324,0-2.324,1.36a1.151,1.151,0,0,0,.4.93A1.524,1.524,0,0,0,.492-.964Zm8.723-5.3a3.79,3.79,0,0,0-.622-.048A1.667,1.667,0,0,0,6.9-5.25V0H5.64V-7.4H6.87l.021.854a1.969,1.969,0,0,1,1.764-.991,1.292,1.292,0,0,1,.561.1ZM11.751,0H10.486V-7.4h1.265ZM10.384-9.358a.755.755,0,0,1,.188-.52.706.706,0,0,1,.557-.212.717.717,0,0,1,.561.212.747.747,0,0,1,.191.52.722.722,0,0,1-.191.513.73.73,0,0,1-.561.205.718.718,0,0,1-.557-.205A.73.73,0,0,1,10.384-9.358ZM18.341,0a2.657,2.657,0,0,1-.178-.779,2.822,2.822,0,0,1-2.105.916,2.611,2.611,0,0,1-1.794-.619,2,2,0,0,1-.7-1.569,2.091,2.091,0,0,1,.878-1.794,4.142,4.142,0,0,1,2.471-.639h1.23v-.581a1.42,1.42,0,0,0-.4-1.056,1.593,1.593,0,0,0-1.169-.393,1.844,1.844,0,0,0-1.135.342,1.007,1.007,0,0,0-.458.827H13.713a1.745,1.745,0,0,1,.393-1.07,2.683,2.683,0,0,1,1.066-.817,3.588,3.588,0,0,1,1.48-.3,2.924,2.924,0,0,1,2,.639,2.306,2.306,0,0,1,.752,1.76v3.4a4.162,4.162,0,0,0,.26,1.62V0Zm-2.1-.964a2.223,2.223,0,0,0,1.128-.308,1.861,1.861,0,0,0,.772-.8V-3.589h-.991q-2.324,0-2.324,1.36a1.151,1.151,0,0,0,.4.93A1.524,1.524,0,0,0,16.242-.964ZM26.571-9.187V-7.4h1.381v.978H26.571v4.593a1.027,1.027,0,0,0,.185.667.777.777,0,0,0,.629.222,3.062,3.062,0,0,0,.6-.082V0a3.688,3.688,0,0,1-.971.136,1.575,1.575,0,0,1-1.278-.513,2.2,2.2,0,0,1-.431-1.456V-6.419H23.96V-7.4h1.347V-9.187ZM32.5.137a3.232,3.232,0,0,1-2.447-.988,3.666,3.666,0,0,1-.943-2.642v-.232a4.438,4.438,0,0,1,.42-1.965A3.28,3.28,0,0,1,30.7-7.044a2.956,2.956,0,0,1,1.637-.489,2.77,2.77,0,0,1,2.242.95,4.114,4.114,0,0,1,.8,2.721v.526H30.372a2.629,2.629,0,0,0,.639,1.767A2.009,2.009,0,0,0,32.566-.9,2.2,2.2,0,0,0,33.7-1.169a2.851,2.851,0,0,0,.813-.725l.772.6A3.106,3.106,0,0,1,32.5.137Zm-.157-6.631a1.687,1.687,0,0,0-1.285.557,2.708,2.708,0,0,0-.643,1.562h3.705v-.1a2.409,2.409,0,0,0-.52-1.494A1.588,1.588,0,0,0,32.341-6.494Zm8.08.232A3.79,3.79,0,0,0,39.8-6.31,1.667,1.667,0,0,0,38.11-5.25V0H36.846V-7.4h1.23l.021.854a1.969,1.969,0,0,1,1.764-.991,1.292,1.292,0,0,1,.561.1Zm4.737,0a3.79,3.79,0,0,0-.622-.048,1.667,1.667,0,0,0-1.688,1.06V0H41.583V-7.4h1.23l.021.854A1.969,1.969,0,0,1,44.6-7.533a1.292,1.292,0,0,1,.561.1ZM49.39.137a3.232,3.232,0,0,1-2.447-.988A3.666,3.666,0,0,1,46-3.493v-.232a4.438,4.438,0,0,1,.42-1.965A3.28,3.28,0,0,1,47.6-7.044a2.956,2.956,0,0,1,1.637-.489,2.77,2.77,0,0,1,2.242.95,4.114,4.114,0,0,1,.8,2.721v.526H47.264A2.629,2.629,0,0,0,47.9-1.569,2.009,2.009,0,0,0,49.458-.9a2.2,2.2,0,0,0,1.135-.273,2.851,2.851,0,0,0,.813-.725l.772.6A3.106,3.106,0,0,1,49.39.137Zm-.157-6.631a1.687,1.687,0,0,0-1.285.557A2.708,2.708,0,0,0,47.3-4.375H51.01v-.1a2.409,2.409,0,0,0-.52-1.494A1.588,1.588,0,0,0,49.232-6.494Zm8.812,4.532a.931.931,0,0,0-.386-.8,3.718,3.718,0,0,0-1.347-.489,6.367,6.367,0,0,1-1.524-.492,2.169,2.169,0,0,1-.834-.684,1.635,1.635,0,0,1-.27-.943A1.919,1.919,0,0,1,54.452-6.9a3,3,0,0,1,1.965-.629,3.091,3.091,0,0,1,2.041.649,2.063,2.063,0,0,1,.783,1.661H57.969a1.142,1.142,0,0,0-.441-.9,1.652,1.652,0,0,0-1.111-.376,1.729,1.729,0,0,0-1.08.3.947.947,0,0,0-.39.786.767.767,0,0,0,.362.69,4.458,4.458,0,0,0,1.309.444,6.821,6.821,0,0,1,1.535.506,2.239,2.239,0,0,1,.872.708,1.74,1.74,0,0,1,.284,1.008,1.893,1.893,0,0,1-.793,1.589,3.326,3.326,0,0,1-2.058.6,3.725,3.725,0,0,1-1.572-.314,2.557,2.557,0,0,1-1.07-.878,2.117,2.117,0,0,1-.386-1.22h1.265A1.309,1.309,0,0,0,55.2-1.268,1.976,1.976,0,0,0,56.458-.9a2.039,2.039,0,0,0,1.152-.291A.893.893,0,0,0,58.044-1.962Zm4.628-7.226V-7.4h1.381v.978H62.672v4.593a1.027,1.027,0,0,0,.185.667.777.777,0,0,0,.629.222,3.062,3.062,0,0,0,.6-.082V0a3.688,3.688,0,0,1-.971.136,1.575,1.575,0,0,1-1.278-.513,2.2,2.2,0,0,1-.431-1.456V-6.419H60.061V-7.4h1.347V-9.187ZM69.1-6.262a3.79,3.79,0,0,0-.622-.048,1.667,1.667,0,0,0-1.688,1.06V0H65.529V-7.4h1.23l.021.854a1.969,1.969,0,0,1,1.764-.991,1.292,1.292,0,0,1,.561.1Zm4.231,6.4a3.232,3.232,0,0,1-2.447-.988,3.666,3.666,0,0,1-.943-2.642v-.232a4.438,4.438,0,0,1,.42-1.965,3.28,3.28,0,0,1,1.176-1.354,2.956,2.956,0,0,1,1.637-.489,2.77,2.77,0,0,1,2.242.95,4.114,4.114,0,0,1,.8,2.721v.526H71.21a2.629,2.629,0,0,0,.639,1.767A2.009,2.009,0,0,0,73.4-.9a2.2,2.2,0,0,0,1.135-.273,2.851,2.851,0,0,0,.813-.725l.772.6A3.106,3.106,0,0,1,73.336.137Zm-.157-6.631a1.687,1.687,0,0,0-1.285.557,2.708,2.708,0,0,0-.643,1.562h3.705v-.1a2.409,2.409,0,0,0-.52-1.494A1.588,1.588,0,0,0,73.179-6.494Z" transform="translate(-8875 -5026.645)" fill="#12263f"/>
    <path id="Trazado_627781" data-name="Trazado 627781" d="M455.27,2968.915a24.5,24.5,0,0,1-21.971-25.5,1.259,1.259,0,0,1,2.516.1,21.955,21.955,0,0,0,43.622,4.434,1.259,1.259,0,0,1,2.486.4A24.5,24.5,0,0,1,455.27,2968.915Z" transform="translate(-9333.797 -7956.692)" fill="#434444"/>
    <path id="Trazado_627782" data-name="Trazado 627782" d="M457.51,2970.675a15.007,15.007,0,0,1-13.14-16.489l.266-2.615a1.259,1.259,0,0,1,1.38-1.125h0a1.259,1.259,0,0,1,1.125,1.379l-.266,2.617a12.361,12.361,0,1,0,24.574,2.7l.286-2.812a1.259,1.259,0,0,1,1.379-1.125h0a1.259,1.259,0,0,1,1.125,1.38l-.285,2.812A14.9,14.9,0,0,1,457.51,2970.675Z" transform="translate(-9336.175 -7958.466)" fill="#585959"/>
    <path id="Trazado_627783" data-name="Trazado 627783" d="M460.089,2972.816a6.753,6.753,0,0,1-6.388-7.516l.407-4.009a1.259,1.259,0,0,1,1.38-1.125h0a1.26,1.26,0,0,1,1.125,1.379l-.412,4.047a4.251,4.251,0,0,0,3.571,4.671,4.183,4.183,0,0,0,4.731-3.716l.423-4.156a1.258,1.258,0,0,1,1.379-1.125h0a1.259,1.259,0,0,1,1.125,1.38l-.423,4.156A6.7,6.7,0,0,1,460.089,2972.816Z" transform="translate(-9338.197 -7960.563)" fill="#7c7c7c"/>
    <path id="Trazado_627784" data-name="Trazado 627784" d="M451.139,2980.111l-.907-.228a8.291,8.291,0,0,1-3.573-1.167,5.516,5.516,0,0,1-1.735-1.644c-.082-.116-.16-.233-.231-.349a9.763,9.763,0,0,1-1.048-2.379.8.8,0,0,1,.58-1,7.505,7.505,0,0,1,5.293.435,9.16,9.16,0,0,1,2,1.542,4.442,4.442,0,0,0-.36,1.093,3.91,3.91,0,0,0-.06.4c-.005.05-.01.1-.013.151Z" transform="translate(-9336.028 -7963.347)" fill="#d37863"/>
    <path id="Trazado_627785" data-name="Trazado 627785" d="M451.516,2980.954l-.906-.227a8.294,8.294,0,0,1-3.573-1.167,5.509,5.509,0,0,1-1.736-1.644,6.308,6.308,0,0,1,5.4-.6,5.541,5.541,0,0,1,.769.345c-.005.051-.01.1-.014.15Z" transform="translate(-9336.393 -7964.189)" fill="#934532"/>
    <path id="Trazado_627786" data-name="Trazado 627786" d="M468.105,2981.878l.933-.04a8.293,8.293,0,0,0,3.735-.425,5.5,5.5,0,0,0,2.03-1.261c.1-.1.2-.2.3-.295a9.822,9.822,0,0,0,1.5-2.12.8.8,0,0,0-.368-1.1,7.5,7.5,0,0,0-5.272-.638,9.2,9.2,0,0,0-2.27,1.106,4.414,4.414,0,0,1,.133,1.143,3.926,3.926,0,0,1-.021.4c-.005.05-.01.1-.017.15Z" transform="translate(-9341.313 -7963.927)" fill="#d37863"/>
    <path id="Trazado_627787" data-name="Trazado 627787" d="M468.105,2982.612l.933-.04a8.294,8.294,0,0,0,3.735-.425,5.5,5.5,0,0,0,2.03-1.261,6.305,6.305,0,0,0-5.172-1.678,5.482,5.482,0,0,0-.823.183c-.005.05-.01.1-.016.149Z" transform="translate(-9341.313 -7964.661)" fill="#934532"/>
    <path id="Trazado_627788" data-name="Trazado 627788" d="M518.532,3010.173l-.678,6.675-5.306-.54,1.5-14.772a.581.581,0,0,1,.673-.467.664.664,0,0,1,.4.184,12.36,12.36,0,0,1,1.461,1.729A10.641,10.641,0,0,1,518.532,3010.173Z" transform="translate(-9350.902 -7969.39)" fill="#f2c59e"/>
    <path id="Trazado_627789" data-name="Trazado 627789" d="M518.532,3010.7l-.678,6.675-5.306-.54.778-7.651a2.668,2.668,0,0,0,2.924-2.384l.334-3.291A10.641,10.641,0,0,1,518.532,3010.7Z" transform="translate(-9350.902 -7969.918)" fill="#934532"/>
    <path id="Trazado_627790" data-name="Trazado 627790" d="M505.257,3039.545c-1.554-1.485-2.259-3.868-2.568-6.031a28.526,28.526,0,0,1-4,1.013l-1.23.18a11.2,11.2,0,0,0,2.857,6.247,6.651,6.651,0,0,1,2.135,5.533l-4.635,12.081-.932-.095a3.288,3.288,0,0,0-3.6,2.938l6.933.7,7.235-17.853h0A7.067,7.067,0,0,0,505.257,3039.545Z" transform="translate(-9346.746 -7976.392)" fill="#d37863"/>
    <path id="Trazado_627791" data-name="Trazado 627791" d="M499.873,3031.832a.083.083,0,0,1,0-.026,22.973,22.973,0,0,1-.216-2.772c-.013-.626,0-1.152.018-1.524a.4.4,0,0,0-.533-.393,17.492,17.492,0,0,1-7.624.936,28.127,28.127,0,0,1-7.42-1.666,18.044,18.044,0,0,1-2.594-1.247l-.041-.024c-.544-.319-1.027-.634-1.436-.921a.4.4,0,0,0-.621.412,12.646,12.646,0,0,1-.029,5.6c-.029.125-.061.249-.093.37l-.009.036,0,0a32.567,32.567,0,0,0,10.077,2.474,23.853,23.853,0,0,0,6.508-.226,28.232,28.232,0,0,0,3.83-.959c.059-.021.116-.038.173-.056l.01,0A.01.01,0,0,1,499.873,3031.832Z" transform="translate(-9343.723 -7974.365)" fill="#f2c59e"/>
    <path id="Trazado_627792" data-name="Trazado 627792" d="M457.037,3023.754a19.052,19.052,0,0,1-4.38-3.851l.039.206,0,.023,1.274,6.869,1.588,8.562-2.6,16.43-.276-.029a3.336,3.336,0,0,0-3.656,2.982l7.573.77,3.726-17.265.684-6.727a7.465,7.465,0,0,0-.031-1.652h0c-.393-.558-1.164-2.76-2.317-4.539A7.38,7.38,0,0,0,457.037,3023.754Z" transform="translate(-9337.198 -7973.455)" fill="#d37863"/>
    <path id="Trazado_627793" data-name="Trazado 627793" d="M503.817,3028.921l-2.186,9.793-1.14,11.212-7.408-.753a3.287,3.287,0,0,1,3.6-2.94l.257.027,1.394-13.7a6.96,6.96,0,0,0-2.152-5.729,6.271,6.271,0,0,1-.839-1c-1.975-2.909-1.972-7.57-1.9-9.218a.394.394,0,0,0-.526-.391,17.243,17.243,0,0,1-7.54.926,23.842,23.842,0,0,1-9.9-2.879c-.557-.326-1.044-.643-1.462-.936a.388.388,0,0,0-.463.009.3.3,0,0,0-.06.052.38.38,0,0,0-.089.346c.011.045.02.091.03.14a12.456,12.456,0,0,1-.061,5.393,12.218,12.218,0,0,1-.564,1.782,12.635,12.635,0,0,1-3.06,4.483.393.393,0,0,0-.121.254,20.9,20.9,0,0,0,1.275,9.02l.009.026,4.408,12.533-9.6-.976a3.287,3.287,0,0,1,3.44-2.946l-5.336-16.095-1.515-4.566-.838-2.53c-.386-.549-1.147-2.719-2.284-4.472-.064-.1-.13-.2-.2-.293a.275.275,0,0,0-.035-.046c-.027-.04-.056-.078-.085-.115s-.058-.076-.089-.112-.044-.057-.068-.085c-.046-.056-.093-.111-.143-.165l0,0c-.025-.034-.052-.062-.079-.094-.079-.085-.156-.166-.237-.247-.048-.047-.095-.094-.145-.14q-.252-.241-.524-.455c-.082-.054-.161-.109-.239-.161-.045-.032-.093-.068-.137-.1q-.927-.645-1.714-1.294l-.223-.187c-.416-.354-.8-.711-1.151-1.075-.067-.069-.133-.138-.2-.212-.1-.11-.2-.223-.3-.338-.056-.061-.113-.127-.164-.195s-.126-.154-.188-.233a9.3,9.3,0,0,1-1.332-2.292c-.02-.017-.043-.033-.063-.05a9.328,9.328,0,0,1-.424-1.594l-.008-.036c-.042-.238-.073-.481-.1-.729-.007-.08-.015-.161-.02-.241,0-.039-.007-.078-.009-.118-.005-.08-.011-.16-.014-.241,0-.046,0-.095-.006-.142,0-.073-.006-.147-.006-.218,0-.025,0-.05,0-.078-.006-.167,0-.337,0-.514,0-.066,0-.133.005-.2a1.1,1.1,0,0,1,.005-.112c0-.1.009-.2.016-.306,0-.058.008-.118.013-.177.01-.135.022-.27.036-.406l1.632-16.053a10.852,10.852,0,0,1-.276-2.185l-.135-7.686a4.556,4.556,0,0,1,5-4.21l3.974.4a4.553,4.553,0,0,1,4.054,5.13l-1.677,7.5a5.2,5.2,0,0,1-.251,1.037c-.033.094-.066.191-.1.287l0,.007,0,.008a.064.064,0,0,0-.008.017v.017c-.013.246-.02.42-.02.42l.107.4.9,3.375a.7.7,0,0,1,.02.073l.238.889a7.476,7.476,0,0,0,6.47,5.516l23.169,2.356a11.4,11.4,0,0,1,9.781,14.582l-.585,1.983-1.974,4.442c-.229,2.255.13,4.421,1.87,5.875C503.917,3027.283,504.067,3027.928,503.817,3028.921Z" transform="translate(-9337.682 -7963.252)" fill="#c16a48"/>
    <path id="Trazado_627794" data-name="Trazado 627794" d="M462.865,2991.991a4.587,4.587,0,0,1-3.869,1.981l-1.559-.158a4.43,4.43,0,0,1-3.21-2.388c-.074-.129-.145-.26-.209-.394a4.466,4.466,0,0,1,8.847.959Z" transform="translate(-9338.273 -7966.446)" fill="#f2c59e"/>
    <path id="Trazado_627795" data-name="Trazado 627795" d="M456.125,3001.54l-.612,6.027a3.7,3.7,0,0,0,.932,2.849,8.618,8.618,0,0,1,1.5,2.189,8.265,8.265,0,0,1,.373.963l.943,3.162,2.2,7.406c-.386-.549-1.147-2.72-2.283-4.474-.064-.1-.131-.2-.2-.292a.277.277,0,0,0-.034-.047c-.027-.04-.056-.077-.086-.115s-.058-.075-.089-.112a.774.774,0,0,0-.069-.085c-.046-.059-.093-.115-.142-.166l0,0c-.026-.033-.053-.062-.08-.093-.078-.085-.156-.167-.237-.247-.048-.048-.095-.095-.145-.141q-.252-.24-.523-.455l-.24-.161-.137-.1q-.927-.645-1.713-1.293c-.075-.063-.149-.124-.224-.188q-.625-.531-1.151-1.074c-.067-.069-.134-.138-.2-.212-.1-.109-.2-.223-.3-.336-.056-.062-.114-.128-.165-.2s-.126-.153-.188-.232a9.311,9.311,0,0,1-1.332-2.292c-.02-.017-.043-.033-.063-.051a9.339,9.339,0,0,1-.423-1.594c0-.012-.005-.024-.009-.036-.042-.237-.073-.48-.1-.729-.007-.08-.014-.161-.02-.24,0-.04-.008-.079-.01-.118,0-.08-.01-.16-.014-.242,0-.046,0-.1,0-.141,0-.073-.007-.147-.007-.218,0-.025,0-.051,0-.078-.006-.167,0-.338,0-.515,0-.066,0-.132.005-.2a1.1,1.1,0,0,1,.005-.111c0-.1.009-.2.016-.307,0-.058.009-.118.014-.177.01-.135.021-.27.035-.406l1.632-16.053.021.074a7.393,7.393,0,0,0,.419,1.042c.066.133.136.264.21.392a4.429,4.429,0,0,0,3.209,2.39l1.558.158a4.585,4.585,0,0,0,3.869-1.981,16.158,16.158,0,0,0,1.291-1.763.068.068,0,0,0-.006.021l0-.01v.006a2.753,2.753,0,0,0,.087.82l.9,3.375a.733.733,0,0,1,.02.074,1.456,1.456,0,0,1-.01.789c-.245.824-.849,1.089-1.613,1.713a4.549,4.549,0,0,1-3.337,1A3.175,3.175,0,0,0,456.125,3001.54Z" transform="translate(-9337.682 -7967.133)" fill="#934532"/>
  </g>
</svg>
