<svg xmlns="http://www.w3.org/2000/svg" width="125" height="125" viewBox="0 0 125 125">
  <g id="Grupo_950152" data-name="Grupo 950152" transform="translate(-274 -6735)">
    <circle id="Elipse_7692" data-name="Elipse 7692" cx="62.5" cy="62.5" r="62.5" transform="translate(274 6735)" fill="#ef8b53"/>
    <g id="ciervo_1_" data-name="ciervo(1)" transform="translate(296.667 6747.022)">
      <g id="Grupo_950154" data-name="Grupo 950154" transform="translate(33.319 62.36)">
        <path id="Trazado_627804" data-name="Trazado 627804" d="M356.154,330.723a46.965,46.965,0,0,1-4.562-5.6c-1.575-.915-3.27-.381-6.5-.065h0s2.887,6.564,4.029,8.4l-4.029,16.426h5.171l3.541-15.077,2.351-4.082Z" transform="translate(-324.714 -322.55)" fill="#512807"/>
        <path id="Trazado_627805" data-name="Trazado 627805" d="M216.795,311.376l-2.664,10.918V338.71h4.3V322.161l3.013-9.118h0A14.673,14.673,0,0,1,216.795,311.376Z" transform="translate(-214.131 -311.376)" fill="#512807"/>
      </g>
      <path id="Trazado_627806" data-name="Trazado 627806" d="M92,118.813s.747.034,2.452-5.83,1.194-13.47-6.225-17.5-17.738,1.1-22.854-.733-13.421-.641-13.421-.641L45.792,82.725h0a15.427,15.427,0,0,0,.608-4.857c-4.361.476-5.853,2.578-6.362,3.866l.451-1.768c-8.433-1.039-9.308,5.4-9.308,5.4l-6.1,2.2,2.055,4.459S31.966,92,35.9,92.006h0s4.393,12.179,6.761,15.041,7.991,8.586,7.991,8.586v25.9h3.847V125.12L57.158,114.2s2.812,1.957,10.95,2.568,10.842-1.406,13.264,0h0a53.894,53.894,0,0,0,8.1,9.063l-4.559,15.7h4.559l5.787-17.616Z" transform="translate(-21.175 -51.841)" fill="#a86b38"/>
      <g id="Grupo_950155" data-name="Grupo 950155" transform="translate(29.801 42.051)">
        <path id="Trazado_627807" data-name="Trazado 627807" d="M385.63,205.771s.747.034,2.452-5.83,1.194-13.47-6.225-17.5a16.438,16.438,0,0,0-9.041-1.527,13.649,13.649,0,0,1,5.523,1.527c7.419,4.032,7.931,11.637,6.225,17.5s-2.452,5.83-2.452,5.83l3.263,5.105-5.787,17.616h3.518l5.787-17.616Z" transform="translate(-344.607 -180.85)" fill="#8c4a14"/>
        <path id="Trazado_627808" data-name="Trazado 627808" d="M193.615,312.976l-2.089,8.564v16.415h3.518V321.54l2.664-10.918-.068-.019A3.253,3.253,0,0,0,193.615,312.976Z" transform="translate(-191.526 -290.312)" fill="#8c4a14"/>
      </g>
      <g id="Grupo_950156" data-name="Grupo 950156" transform="translate(14.72 39.35)">
        <path id="Trazado_627809" data-name="Trazado 627809" d="M101.946,171.825H104.5l-4.526-8.331h0a4.071,4.071,0,0,1-2.62.831c-1.177-.013-1.2-.016-2.749-.017h0s4.393,12.179,6.761,15.041c1.122,1.357,2.975,3.355,4.615,5.084C106.524,177.724,101.946,171.825,101.946,171.825Z" transform="translate(-94.601 -163.494)" fill="#ffdcaf"/>
      </g>
      <path id="Trazado_627810" data-name="Trazado 627810" d="M453.978,208.6h0a12.689,12.689,0,0,1,3.291,7.03h0c1.857,4.29,4.4,3.436,4.4,3.436C462.157,210.52,453.978,208.6,453.978,208.6Z" transform="translate(-383.339 -162.236)" fill="#b99c80"/>
      <path id="Trazado_627811" data-name="Trazado 627811" d="M75.478,47.356A13.269,13.269,0,0,0,71.34,45.2a15.717,15.717,0,0,0-3.659-2.716c-4.724-2.567-10.284-1.758-15.189-1.044-1.711.249-3.327.484-4.746.546a1.319,1.319,0,1,0,.115,2.636c1.552-.068,3.232-.312,5.011-.571,4.5-.655,9.6-1.4,13.55.751A13.055,13.055,0,0,1,69.6,47.185a1.311,1.311,0,0,0,.177.185,11.168,11.168,0,0,1,2.588,4.7,15.521,15.521,0,0,1-.349,8.673c-1.318,4.139-2.037,5.175-2.137,5.306a1.319,1.319,0,0,0-.17,1.635l2.925,4.578L67.345,88.375H65.5l4.069-14.015a1.32,1.32,0,0,0-.4-1.365c-.888-.769-2.071-1.89-3.333-3.227a1.314,1.314,0,0,0-.234-.25c-4.142-4.445-8.972-11.11-6.944-15.381A1.319,1.319,0,0,0,56.27,53c-1.309,2.756-.879,6.145,1.269,10.112-.633.034-1.31.119-2.06.213a38.5,38.5,0,0,1-8.447.283c-7.545-.567-10.282-2.327-10.3-2.336a1.319,1.319,0,0,0-2.035.77L32.037,72.966a1.319,1.319,0,1,0,2.563.625l2.275-9.323a20.318,20.318,0,0,0,2.061.693l-2.568,7.77a1.318,1.318,0,0,0-.067.414V88.375H34.638V77.7A1.319,1.319,0,0,0,32,77.7V88.375H30.791V63.791a1.32,1.32,0,0,0-.378-.924c-.027-.028-1.35-1.376-2.967-3.073A20.691,20.691,0,0,0,24.5,49h.122a1.319,1.319,0,0,0,1.159-1.949L21.727,39.6a6.994,6.994,0,0,0,1.534-3.372,1.319,1.319,0,0,0-2.61-.385c-.049.311-.548,3.021-3.126,3.021h-.041c-3.082-.034-8.581-.014-10.685,0L5.7,36.476l4.751-1.711a1.3,1.3,0,0,0,.859-1.054,5.391,5.391,0,0,1,1.259-2.5c1.208-1.344,3.039-1.97,5.451-1.871a9.036,9.036,0,0,0-.638,1.861,1.319,1.319,0,0,0,2.575.572A5.456,5.456,0,0,1,23.884,27.5a8.574,8.574,0,0,1-1.216,4.348A1.318,1.318,0,0,0,24.6,33.629l5.014,9.265a1.319,1.319,0,0,0,1.347.678c.08-.011,8.035-1.125,12.789.578a1.319,1.319,0,0,0,.89-2.484c-4.388-1.572-10.765-1.078-13.133-.818l-5.468-10.1a16.7,16.7,0,0,0,.5-4.781,1.316,1.316,0,0,0-.13-.508h6.261a10.381,10.381,0,0,0,6.372-2.178c2.14-1.674,3.316-3.476,3.494-5.358a1.319,1.319,0,0,0-2.627-.249c-.134,1.409-1.429,2.7-2.493,3.529a7.553,7.553,0,0,1-1.853,1.061A18.635,18.635,0,0,0,37.479,18.2a1.319,1.319,0,0,0-2.512-.8,17.665,17.665,0,0,1-1.144,2.63,6.28,6.28,0,0,1-2.422,2.8H30.253a7.376,7.376,0,0,0,1.25-3.849,1.319,1.319,0,0,0-2.638-.042,4.189,4.189,0,0,1-2.9,3.891H24.617a1.32,1.32,0,0,0-.874.331l-3.828,3.383a1.314,1.314,0,0,0-.264.321c-.035-.009-.07-.017-.105-.023l-.689-1.7a13.867,13.867,0,0,0,2.188-.733c2.771-1.212,4.2-3.2,4.036-5.6a1.319,1.319,0,0,0-2.632.185c.031.439.122,1.743-2.147,2.85a8.69,8.69,0,0,0,.571-3.7,1.319,1.319,0,0,0-2.625.263,5.767,5.767,0,0,1-1.706,4.425H14.3c-.582-.467-1.308-2.413-1.51-4.668a1.319,1.319,0,0,0-2.628.232,15.4,15.4,0,0,0,1.06,4.436H9.12a14.247,14.247,0,0,1-1.671-4.791,1.319,1.319,0,0,0-2.595.476A21.12,21.12,0,0,0,6.12,22.786a3.88,3.88,0,0,1-3.389-3.14,5.32,5.32,0,0,1-.047-1.677,1.319,1.319,0,1,0-2.615-.354,7.954,7.954,0,0,0,.067,2.507,6.526,6.526,0,0,0,6.433,5.329h9.575l.513,1.268a8.163,8.163,0,0,0-7.755,5.8L3.455,34.48A1.319,1.319,0,0,0,2.7,36.274l2.055,4.459a1.324,1.324,0,0,0,1.205.767c.056,0,4.146-.023,7.833-.019,1.107,3,4.52,11.969,6.667,14.565,2.045,2.473,6.375,6.938,7.688,8.283V89.694a1.319,1.319,0,0,0,1.319,1.319H37.62a1.319,1.319,0,0,0,1.319-1.319V73.359l2.575-7.794a47.286,47.286,0,0,0,5.319.681,39.717,39.717,0,0,0,6.038.015c.756,1.692,2.441,5.41,3.445,7.212l-3.9,15.907A1.319,1.319,0,0,0,53.7,91.013h5.171A1.319,1.319,0,0,0,60.151,90l3.5-14.888,1.38-2.4c.728.731,1.347,1.315,1.774,1.708L62.474,89.326a1.319,1.319,0,0,0,1.267,1.687H68.3a1.319,1.319,0,0,0,1.253-.908L75.34,72.489a1.318,1.318,0,0,0-.142-1.122l-2.8-4.378a32.536,32.536,0,0,0,2.133-5.447,19.826,19.826,0,0,0,.851-4.173,4.053,4.053,0,0,0,2.433.848,3,3,0,0,0,.958-.141,1.319,1.319,0,0,0,.869-1.165A10.784,10.784,0,0,0,75.478,47.356ZM16.617,41.492l.837.008h.075a5.685,5.685,0,0,0,2.034-.357L22.4,46.362h-.334a1.319,1.319,0,0,0-1.042,2.128,21.013,21.013,0,0,1,3.587,8.274c-.812-.888-1.558-1.728-2.114-2.4C20.94,52.482,18.146,45.545,16.617,41.492ZM61.265,73.959a1.323,1.323,0,0,0-.141.357l-3.3,14.059H55.378l3.628-14.792a1.32,1.32,0,0,0-.16-1.01c-.737-1.187-2.29-4.559-3.212-6.6l.175-.022c1.809-.229,2.733-.324,3.488,0q.536.77,1.146,1.565c.893,1.161,1.816,2.242,2.688,3.2ZM75.316,52.875a1.321,1.321,0,0,0-.111-.2c-.08-.441-.176-.876-.292-1.3a14.334,14.334,0,0,0-.479-1.443A7.9,7.9,0,0,1,77,55.283,5.548,5.548,0,0,1,75.316,52.875Z" transform="translate(0)"/>
      <path id="Trazado_627812" data-name="Trazado 627812" d="M81.335,114.284a1.529,1.529,0,1,0,1.246-1.244A1.529,1.529,0,0,0,81.335,114.284Z" transform="translate(-68.661 -81.522)"/>
    </g>
  </g>
</svg>
