<svg xmlns="http://www.w3.org/2000/svg" width="820" height="820" viewBox="0 0 820 820">
  <g id="Grupo_981736" data-name="Grupo 981736" transform="translate(-390 -9570.101)">
    <g id="Grupo_963137" data-name="Grupo 963137" transform="translate(390 9570.101)">
      <circle id="Elipse_7710" data-name="Elipse 7710" cx="410" cy="410" r="410" fill="#463091"/>
      <circle id="Elipse_7711" data-name="Elipse 7711" cx="388.126" cy="388.126" r="388.126" transform="translate(21.874 21.874)" fill="#e6e2f4"/>
    </g>
    <g id="Grupo_963138" data-name="Grupo 963138" transform="translate(506.242 9686.342)">
      <circle id="Elipse_7712" data-name="Elipse 7712" cx="293.759" cy="293.759" r="293.759" fill="#367c58"/>
      <circle id="Elipse_7713" data-name="Elipse 7713" cx="278.086" cy="278.086" r="278.086" transform="translate(15.672 15.672)" fill="#e3f0e9"/>
    </g>
    <path id="Trazado_655046" data-name="Trazado 655046" d="M182.706,0A182.706,182.706,0,1,1,0,182.706,182.706,182.706,0,0,1,182.706,0Z" transform="translate(617.294 9797.395)" fill="#bf6f42"/>
    <path id="Trazado_655047" data-name="Trazado 655047" d="M172.959,0A172.959,172.959,0,1,1,0,172.959,172.959,172.959,0,0,1,172.959,0Z" transform="translate(627.042 9807.142)" fill="#fad6c3"/>
    <g id="Grupo_963139" data-name="Grupo 963139" transform="translate(712.933 9893.033)">
      <circle id="Elipse_7716" data-name="Elipse 7716" cx="87.068" cy="87.068" r="87.068" fill="#c09740"/>
      <circle id="Elipse_7717" data-name="Elipse 7717" cx="75.753" cy="75.753" r="75.753" transform="translate(11.315 11.315)" fill="#fae8c2"/>
    </g>
    <g id="persona" transform="translate(787.396 9935.513)">
      <path id="Trazado_630427" data-name="Trazado 630427" d="M669.6,1540.088v-11.793a2.443,2.443,0,0,0,3.263-2.3v-13.8a4.08,4.08,0,0,0-4.078-4.077h-11.41a4.08,4.08,0,0,0-4.075,4.075v13.8a2.443,2.443,0,0,0,3.263,2.3v15.978a2.852,2.852,0,1,0,5.7,0v-3.329c.543-.016,1.087-.016,1.63,0v3.329a2.852,2.852,0,1,0,5.7,0v-2.493c2.7.786,4.455,2.032,4.455,3.227,0,1.927-4.507,4.075-10.975,4.075s-10.975-2.144-10.975-4.075c0-.822.862-1.713,2.366-2.443a.815.815,0,0,0-.711-1.467h0c-2.715,1.317-3.284,2.853-3.284,3.909,0,1.657,1.4,3.152,3.956,4.21a25.765,25.765,0,0,0,17.3,0c2.551-1.058,3.956-2.554,3.956-4.21C675.687,1542.908,673.425,1541.094,669.6,1540.088Zm-5.7-.776c-.543-.015-1.087-.015-1.63,0V1526.8h1.63Zm4.89-27.937a.815.815,0,0,0-.815.815v32.082a1.222,1.222,0,1,1-2.444.006V1525.99a.815.815,0,0,0-.815-.815H661.45a.815.815,0,0,0-.815.815v18.282a1.222,1.222,0,1,1-2.445.006V1512.19a.815.815,0,0,0-1.63,0v13.8a.815.815,0,1,1-1.63,0v-13.8a2.448,2.448,0,0,1,2.444-2.444h11.409a2.448,2.448,0,0,1,2.445,2.444v13.8a.815.815,0,1,1-1.63,0v-13.8a.815.815,0,0,0-.813-.812Z" transform="translate(-650.48 -1495.076)"/>
      <path id="Trazado_630428" data-name="Trazado 630428" d="M663.546,1505.538a5.7,5.7,0,1,0-5.7-5.7A5.7,5.7,0,0,0,663.546,1505.538Zm0-9.78a4.075,4.075,0,1,1-4.075,4.075A4.075,4.075,0,0,1,663.546,1495.759Z" transform="translate(-650.978 -1494.129)"/>
    </g>
    <path id="Trazado_655048" data-name="Trazado 655048" d="M-54.547-10.664l2.739,7.734,2.725-7.734H-46.2V0h-2.2V-2.915l.22-5.032L-51.061,0H-52.57l-2.871-7.939.22,5.024V0h-2.2V-10.664ZM-38.258-2.2h-3.853L-42.843,0h-2.336l3.97-10.664h2.036L-35.182,0h-2.336Zm-3.259-1.78h2.666l-1.34-3.992Zm15.7.425a3.774,3.774,0,0,1-1.271,2.71,4.463,4.463,0,0,1-3.021.989,4.013,4.013,0,0,1-3.226-1.381,5.661,5.661,0,0,1-1.176-3.79v-.652a6.393,6.393,0,0,1,.542-2.71,4.062,4.062,0,0,1,1.549-1.8,4.339,4.339,0,0,1,2.34-.626,4.348,4.348,0,0,1,2.974.989,4.055,4.055,0,0,1,1.3,2.776H-28a2.227,2.227,0,0,0-.575-1.5,2.129,2.129,0,0,0-1.505-.465,1.867,1.867,0,0,0-1.644.787,4.413,4.413,0,0,0-.56,2.443v.806a4.723,4.723,0,0,0,.524,2.527,1.832,1.832,0,0,0,1.652.8,2.169,2.169,0,0,0,1.52-.465,2.1,2.1,0,0,0,.575-1.439Zm5.391-.352h-1.75V0h-2.2V-10.664h3.962a4.479,4.479,0,0,1,2.915.842,2.907,2.907,0,0,1,1.025,2.38,3.281,3.281,0,0,1-.472,1.82A3.222,3.222,0,0,1-18.373-4.46L-16.066-.1V0h-2.358Zm-1.75-1.78H-20.4A1.815,1.815,0,0,0-19.12-6.1a1.505,1.505,0,0,0,.454-1.161,1.611,1.611,0,0,0-.428-1.187,1.781,1.781,0,0,0-1.315-.432h-1.765Zm16.135.593A6.438,6.438,0,0,1-6.6-2.329,4.192,4.192,0,0,1-8.188-.5a4.407,4.407,0,0,1-2.377.645,4.437,4.437,0,0,1-2.366-.637,4.233,4.233,0,0,1-1.611-1.82,6.253,6.253,0,0,1-.579-2.721v-.527a6.4,6.4,0,0,1,.568-2.772,4.226,4.226,0,0,1,1.6-1.838,4.412,4.412,0,0,1,2.369-.641,4.412,4.412,0,0,1,2.369.641,4.226,4.226,0,0,1,1.6,1.838,6.386,6.386,0,0,1,.568,2.765Zm-2.227-.483a4.488,4.488,0,0,0-.6-2.549,1.957,1.957,0,0,0-1.714-.872,1.958,1.958,0,0,0-1.707.861,4.436,4.436,0,0,0-.608,2.523v.52a4.544,4.544,0,0,0,.6,2.534,1.952,1.952,0,0,0,1.729.9,1.935,1.935,0,0,0,1.7-.868,4.517,4.517,0,0,0,.6-2.531ZM1.088-2.8a1.128,1.128,0,0,0-.439-.956,5.764,5.764,0,0,0-1.582-.7,11.215,11.215,0,0,1-1.809-.729A2.956,2.956,0,0,1-4.559-7.83a2.575,2.575,0,0,1,.487-1.542,3.177,3.177,0,0,1,1.4-1.058,5.265,5.265,0,0,1,2.047-.381A4.793,4.793,0,0,1,1.41-10.4,3.242,3.242,0,0,1,2.8-9.229a3.057,3.057,0,0,1,.494,1.714h-2.2A1.438,1.438,0,0,0,.634-8.654a1.9,1.9,0,0,0-1.3-.406,2.026,2.026,0,0,0-1.252.341,1.074,1.074,0,0,0-.447.9,1.029,1.029,0,0,0,.524.872A5.916,5.916,0,0,0-.3-6.292a6.661,6.661,0,0,1,2.732,1.4,2.786,2.786,0,0,1,.857,2.08A2.566,2.566,0,0,1,2.245-.641,4.585,4.585,0,0,1-.575.146,5.445,5.445,0,0,1-2.816-.3,3.546,3.546,0,0,1-4.358-1.538a3.161,3.161,0,0,1-.531-1.816h2.2q0,1.765,2.109,1.765A2.052,2.052,0,0,0,.648-1.908,1.037,1.037,0,0,0,1.088-2.8ZM7.115,0h-2.2V-10.664h2.2Zm7.566-2.8a1.128,1.128,0,0,0-.439-.956,5.764,5.764,0,0,0-1.582-.7,11.215,11.215,0,0,1-1.809-.729A2.956,2.956,0,0,1,9.034-7.83a2.575,2.575,0,0,1,.487-1.542,3.177,3.177,0,0,1,1.4-1.058,5.265,5.265,0,0,1,2.047-.381A4.793,4.793,0,0,1,15-10.4a3.242,3.242,0,0,1,1.388,1.168,3.057,3.057,0,0,1,.494,1.714h-2.2a1.438,1.438,0,0,0-.461-1.139,1.9,1.9,0,0,0-1.3-.406,2.026,2.026,0,0,0-1.252.341,1.074,1.074,0,0,0-.447.9,1.029,1.029,0,0,0,.524.872,5.916,5.916,0,0,0,1.542.659,6.661,6.661,0,0,1,2.732,1.4,2.786,2.786,0,0,1,.857,2.08A2.566,2.566,0,0,1,15.839-.641a4.585,4.585,0,0,1-2.82.787A5.445,5.445,0,0,1,10.778-.3,3.546,3.546,0,0,1,9.236-1.538,3.161,3.161,0,0,1,8.7-3.354h2.2q0,1.765,2.109,1.765a2.052,2.052,0,0,0,1.223-.319A1.037,1.037,0,0,0,14.681-2.8ZM26.4-8.884H23.134V0h-2.2V-8.884H17.714v-1.78H26.4Zm7.668,4.263H29.85v2.856H34.8V0H27.653V-10.664h7.134v1.78H29.85v2.542h4.219Zm4.893-6.042L41.7-2.93l2.725-7.734h2.886V0h-2.2V-2.915l.22-5.032L42.448,0H40.939L38.068-7.939l.22,5.024V0h-2.2V-10.664ZM55.25-2.2H51.4L50.665,0H48.329L52.3-10.664h2.036L58.326,0H55.99Zm-3.259-1.78h2.666l-1.34-3.992Z" transform="translate(796.469 9636.634)"/>
    <path id="Trazado_655049" data-name="Trazado 655049" d="M-38.584-4.622H-42.8v2.856h4.951V0H-45V-10.664h7.134v1.78H-42.8v2.542h4.219Zm5.837-2.366,2-3.677h2.527l-3.105,5.288L-28.14,0H-30.7l-2.051-3.735L-34.8,0h-2.556l3.186-5.376-3.105-5.288h2.527Zm14.29,1.9a6.438,6.438,0,0,1-.557,2.761A4.192,4.192,0,0,1-20.607-.5a4.407,4.407,0,0,1-2.377.645,4.437,4.437,0,0,1-2.366-.637,4.233,4.233,0,0,1-1.611-1.82,6.253,6.253,0,0,1-.579-2.721v-.527a6.4,6.4,0,0,1,.568-2.772,4.226,4.226,0,0,1,1.6-1.838A4.412,4.412,0,0,1-23-10.811a4.412,4.412,0,0,1,2.369.641,4.226,4.226,0,0,1,1.6,1.838,6.386,6.386,0,0,1,.568,2.765Zm-2.227-.483a4.488,4.488,0,0,0-.6-2.549A1.957,1.957,0,0,0-23-8.994a1.958,1.958,0,0,0-1.707.861,4.436,4.436,0,0,0-.608,2.523v.52a4.544,4.544,0,0,0,.6,2.534,1.952,1.952,0,0,0,1.729.9,1.935,1.935,0,0,0,1.7-.868,4.517,4.517,0,0,0,.6-2.531ZM-11.331-2.8a1.128,1.128,0,0,0-.439-.956,5.764,5.764,0,0,0-1.582-.7,11.215,11.215,0,0,1-1.809-.729A2.956,2.956,0,0,1-16.978-7.83a2.575,2.575,0,0,1,.487-1.542,3.177,3.177,0,0,1,1.4-1.058,5.265,5.265,0,0,1,2.047-.381,4.793,4.793,0,0,1,2.036.414A3.242,3.242,0,0,1-9.62-9.229a3.057,3.057,0,0,1,.494,1.714h-2.2a1.438,1.438,0,0,0-.461-1.139,1.9,1.9,0,0,0-1.3-.406,2.026,2.026,0,0,0-1.252.341,1.074,1.074,0,0,0-.447.9,1.029,1.029,0,0,0,.524.872,5.916,5.916,0,0,0,1.542.659,6.661,6.661,0,0,1,2.732,1.4,2.786,2.786,0,0,1,.857,2.08A2.566,2.566,0,0,1-10.173-.641a4.585,4.585,0,0,1-2.82.787A5.445,5.445,0,0,1-15.234-.3a3.546,3.546,0,0,1-1.542-1.234,3.161,3.161,0,0,1-.531-1.816h2.2q0,1.765,2.109,1.765a2.052,2.052,0,0,0,1.223-.319A1.037,1.037,0,0,0-11.331-2.8ZM-5.3,0H-7.5V-10.664h2.2ZM2.263-2.8a1.128,1.128,0,0,0-.439-.956,5.764,5.764,0,0,0-1.582-.7,11.215,11.215,0,0,1-1.809-.729A2.956,2.956,0,0,1-3.384-7.83,2.575,2.575,0,0,1-2.9-9.371,3.177,3.177,0,0,1-1.5-10.43a5.265,5.265,0,0,1,2.047-.381,4.793,4.793,0,0,1,2.036.414A3.242,3.242,0,0,1,3.973-9.229a3.057,3.057,0,0,1,.494,1.714h-2.2a1.438,1.438,0,0,0-.461-1.139,1.9,1.9,0,0,0-1.3-.406A2.026,2.026,0,0,0-.74-8.719a1.074,1.074,0,0,0-.447.9,1.029,1.029,0,0,0,.524.872,5.916,5.916,0,0,0,1.542.659,6.661,6.661,0,0,1,2.732,1.4,2.786,2.786,0,0,1,.857,2.08A2.566,2.566,0,0,1,3.42-.641,4.585,4.585,0,0,1,.6.146,5.445,5.445,0,0,1-1.641-.3,3.546,3.546,0,0,1-3.182-1.538a3.161,3.161,0,0,1-.531-1.816h2.2q0,1.765,2.109,1.765a2.052,2.052,0,0,0,1.223-.319A1.037,1.037,0,0,0,2.263-2.8ZM13.982-8.884H10.715V0h-2.2V-8.884H5.3v-1.78h8.687ZM21.65-4.622H17.432v2.856h4.951V0H15.234V-10.664h7.134v1.78H17.432v2.542H21.65Zm4.893-6.042L29.282-2.93l2.725-7.734h2.886V0h-2.2V-2.915l.22-5.032L30.029,0H28.521L25.649-7.939l.22,5.024V0h-2.2V-10.664ZM42.832-2.2H38.979L38.247,0H35.911l3.97-10.664h2.036L45.908,0H43.572Zm-3.259-1.78h2.666L40.9-7.969Z" transform="translate(797.521 9751.166)"/>
    <path id="Trazado_655050" data-name="Trazado 655050" d="M-48.636-10.664-45.9-2.93l2.725-7.734h2.886V0h-2.2V-2.915l.22-5.032L-45.15,0h-1.509L-49.53-7.939l.22,5.024V0h-2.2V-10.664Zm16.685,6.042h-4.219v2.856h4.951V0h-7.148V-10.664h7.134v1.78h-4.937v2.542h4.219ZM-24.4-2.8a1.128,1.128,0,0,0-.439-.956,5.764,5.764,0,0,0-1.582-.7,11.215,11.215,0,0,1-1.809-.729A2.956,2.956,0,0,1-30.048-7.83a2.575,2.575,0,0,1,.487-1.542,3.177,3.177,0,0,1,1.4-1.058,5.265,5.265,0,0,1,2.047-.381,4.793,4.793,0,0,1,2.036.414A3.242,3.242,0,0,1-22.69-9.229,3.057,3.057,0,0,1-22.2-7.515h-2.2a1.438,1.438,0,0,0-.461-1.139,1.9,1.9,0,0,0-1.3-.406,2.026,2.026,0,0,0-1.252.341,1.074,1.074,0,0,0-.447.9,1.029,1.029,0,0,0,.524.872,5.916,5.916,0,0,0,1.542.659,6.661,6.661,0,0,1,2.732,1.4,2.786,2.786,0,0,1,.857,2.08A2.566,2.566,0,0,1-23.243-.641a4.585,4.585,0,0,1-2.82.787A5.445,5.445,0,0,1-28.3-.3a3.546,3.546,0,0,1-1.542-1.234,3.161,3.161,0,0,1-.531-1.816h2.2q0,1.765,2.109,1.765a2.052,2.052,0,0,0,1.223-.319A1.037,1.037,0,0,0-24.4-2.8ZM-11.949-5.09a6.438,6.438,0,0,1-.557,2.761A4.192,4.192,0,0,1-14.1-.5a4.407,4.407,0,0,1-2.377.645,4.437,4.437,0,0,1-2.366-.637,4.233,4.233,0,0,1-1.611-1.82,6.253,6.253,0,0,1-.579-2.721v-.527a6.4,6.4,0,0,1,.568-2.772,4.226,4.226,0,0,1,1.6-1.838,4.412,4.412,0,0,1,2.369-.641,4.412,4.412,0,0,1,2.369.641,4.226,4.226,0,0,1,1.6,1.838,6.386,6.386,0,0,1,.568,2.765Zm-2.227-.483a4.488,4.488,0,0,0-.6-2.549,1.957,1.957,0,0,0-1.714-.872,1.958,1.958,0,0,0-1.707.861A4.436,4.436,0,0,0-18.8-5.61v.52a4.544,4.544,0,0,0,.6,2.534,1.952,1.952,0,0,0,1.729.9,1.935,1.935,0,0,0,1.7-.868,4.517,4.517,0,0,0,.6-2.531ZM-4.823-2.8a1.128,1.128,0,0,0-.439-.956,5.764,5.764,0,0,0-1.582-.7,11.215,11.215,0,0,1-1.809-.729A2.956,2.956,0,0,1-10.47-7.83a2.575,2.575,0,0,1,.487-1.542,3.177,3.177,0,0,1,1.4-1.058,5.265,5.265,0,0,1,2.047-.381A4.793,4.793,0,0,1-4.5-10.4,3.242,3.242,0,0,1-3.113-9.229a3.057,3.057,0,0,1,.494,1.714h-2.2a1.438,1.438,0,0,0-.461-1.139,1.9,1.9,0,0,0-1.3-.406,2.026,2.026,0,0,0-1.252.341,1.074,1.074,0,0,0-.447.9,1.029,1.029,0,0,0,.524.872,5.916,5.916,0,0,0,1.542.659,6.661,6.661,0,0,1,2.732,1.4,2.786,2.786,0,0,1,.857,2.08A2.566,2.566,0,0,1-3.666-.641a4.585,4.585,0,0,1-2.82.787A5.445,5.445,0,0,1-8.727-.3a3.546,3.546,0,0,1-1.542-1.234A3.161,3.161,0,0,1-10.8-3.354h2.2q0,1.765,2.109,1.765a2.052,2.052,0,0,0,1.223-.319A1.037,1.037,0,0,0-4.823-2.8ZM1.2,0h-2.2V-10.664H1.2ZM8.771-2.8a1.128,1.128,0,0,0-.439-.956,5.764,5.764,0,0,0-1.582-.7A11.215,11.215,0,0,1,4.94-5.186,2.956,2.956,0,0,1,3.124-7.83a2.575,2.575,0,0,1,.487-1.542,3.177,3.177,0,0,1,1.4-1.058,5.265,5.265,0,0,1,2.047-.381,4.793,4.793,0,0,1,2.036.414,3.242,3.242,0,0,1,1.388,1.168,3.057,3.057,0,0,1,.494,1.714h-2.2a1.438,1.438,0,0,0-.461-1.139,1.9,1.9,0,0,0-1.3-.406,2.026,2.026,0,0,0-1.252.341,1.074,1.074,0,0,0-.447.9,1.029,1.029,0,0,0,.524.872,5.916,5.916,0,0,0,1.542.659,6.661,6.661,0,0,1,2.732,1.4,2.786,2.786,0,0,1,.857,2.08A2.566,2.566,0,0,1,9.928-.641a4.585,4.585,0,0,1-2.82.787A5.445,5.445,0,0,1,4.867-.3,3.546,3.546,0,0,1,3.325-1.538a3.161,3.161,0,0,1-.531-1.816H5Q5-1.589,7.108-1.589a2.052,2.052,0,0,0,1.223-.319A1.037,1.037,0,0,0,8.771-2.8ZM20.49-8.884H17.223V0h-2.2V-8.884H11.8v-1.78H20.49Zm7.668,4.263H23.939v2.856H28.89V0H21.742V-10.664h7.134v1.78H23.939v2.542h4.219Zm4.893-6.042L35.79-2.93l2.725-7.734H41.4V0H39.2V-2.915l.22-5.032L36.537,0H35.028L32.157-7.939l.22,5.024V0h-2.2V-10.664ZM49.34-2.2H45.487L44.755,0H42.418l3.97-10.664h2.036L52.416,0H50.079ZM46.08-3.977h2.666l-1.34-3.992Z" transform="translate(797.063 9836.899)"/>
    <path id="Trazado_655051" data-name="Trazado 655051" d="M-51.687-10.664l2.739,7.734,2.725-7.734h2.886V0h-2.2V-2.915l.22-5.032L-48.2,0h-1.509l-2.871-7.939.22,5.024V0h-2.2V-10.664ZM-39.082,0h-2.2V-10.664h2.2Zm10.408-3.552a3.774,3.774,0,0,1-1.271,2.71,4.463,4.463,0,0,1-3.021.989,4.013,4.013,0,0,1-3.226-1.381,5.661,5.661,0,0,1-1.176-3.79v-.652a6.393,6.393,0,0,1,.542-2.71,4.062,4.062,0,0,1,1.549-1.8,4.339,4.339,0,0,1,2.34-.626,4.348,4.348,0,0,1,2.974.989,4.055,4.055,0,0,1,1.3,2.776h-2.2a2.227,2.227,0,0,0-.575-1.5,2.129,2.129,0,0,0-1.505-.465,1.867,1.867,0,0,0-1.644.787,4.413,4.413,0,0,0-.56,2.443v.806a4.723,4.723,0,0,0,.524,2.527,1.832,1.832,0,0,0,1.652.8,2.169,2.169,0,0,0,1.52-.465,2.1,2.1,0,0,0,.575-1.439Zm5.391-.352h-1.75V0h-2.2V-10.664h3.962a4.479,4.479,0,0,1,2.915.842,2.907,2.907,0,0,1,1.025,2.38,3.281,3.281,0,0,1-.472,1.82A3.222,3.222,0,0,1-21.233-4.46L-18.926-.1V0h-2.358Zm-1.75-1.78h1.772A1.815,1.815,0,0,0-21.98-6.1a1.505,1.505,0,0,0,.454-1.161,1.611,1.611,0,0,0-.428-1.187,1.781,1.781,0,0,0-1.315-.432h-1.765ZM-8.9-5.09a6.438,6.438,0,0,1-.557,2.761A4.192,4.192,0,0,1-11.049-.5a4.407,4.407,0,0,1-2.377.645,4.437,4.437,0,0,1-2.366-.637A4.233,4.233,0,0,1-17.4-2.311a6.253,6.253,0,0,1-.579-2.721v-.527a6.4,6.4,0,0,1,.568-2.772,4.226,4.226,0,0,1,1.6-1.838,4.412,4.412,0,0,1,2.369-.641,4.412,4.412,0,0,1,2.369.641,4.226,4.226,0,0,1,1.6,1.838A6.386,6.386,0,0,1-8.9-5.566Zm-2.227-.483a4.488,4.488,0,0,0-.6-2.549,1.957,1.957,0,0,0-1.714-.872,1.958,1.958,0,0,0-1.707.861,4.436,4.436,0,0,0-.608,2.523v.52a4.544,4.544,0,0,0,.6,2.534,1.952,1.952,0,0,0,1.729.9,1.935,1.935,0,0,0,1.7-.868,4.517,4.517,0,0,0,.6-2.531ZM-1.772-2.8a1.128,1.128,0,0,0-.439-.956,5.764,5.764,0,0,0-1.582-.7A11.215,11.215,0,0,1-5.6-5.186,2.956,2.956,0,0,1-7.419-7.83a2.575,2.575,0,0,1,.487-1.542,3.177,3.177,0,0,1,1.4-1.058,5.265,5.265,0,0,1,2.047-.381A4.793,4.793,0,0,1-1.45-10.4,3.242,3.242,0,0,1-.062-9.229,3.057,3.057,0,0,1,.432-7.515h-2.2a1.438,1.438,0,0,0-.461-1.139,1.9,1.9,0,0,0-1.3-.406,2.026,2.026,0,0,0-1.252.341,1.074,1.074,0,0,0-.447.9,1.029,1.029,0,0,0,.524.872,5.916,5.916,0,0,0,1.542.659,6.661,6.661,0,0,1,2.732,1.4,2.786,2.786,0,0,1,.857,2.08A2.566,2.566,0,0,1-.615-.641a4.585,4.585,0,0,1-2.82.787A5.445,5.445,0,0,1-5.676-.3,3.546,3.546,0,0,1-7.218-1.538a3.161,3.161,0,0,1-.531-1.816h2.2q0,1.765,2.109,1.765a2.052,2.052,0,0,0,1.223-.319A1.037,1.037,0,0,0-1.772-2.8ZM4.255,0h-2.2V-10.664h2.2Zm7.566-2.8a1.128,1.128,0,0,0-.439-.956,5.764,5.764,0,0,0-1.582-.7,11.215,11.215,0,0,1-1.809-.729A2.956,2.956,0,0,1,6.174-7.83a2.575,2.575,0,0,1,.487-1.542,3.177,3.177,0,0,1,1.4-1.058,5.265,5.265,0,0,1,2.047-.381,4.793,4.793,0,0,1,2.036.414,3.242,3.242,0,0,1,1.388,1.168,3.057,3.057,0,0,1,.494,1.714h-2.2a1.438,1.438,0,0,0-.461-1.139,1.9,1.9,0,0,0-1.3-.406,2.026,2.026,0,0,0-1.252.341,1.074,1.074,0,0,0-.447.9,1.029,1.029,0,0,0,.524.872,5.916,5.916,0,0,0,1.542.659,6.661,6.661,0,0,1,2.732,1.4,2.786,2.786,0,0,1,.857,2.08A2.566,2.566,0,0,1,12.979-.641a4.585,4.585,0,0,1-2.82.787A5.445,5.445,0,0,1,7.917-.3,3.546,3.546,0,0,1,6.376-1.538a3.161,3.161,0,0,1-.531-1.816h2.2q0,1.765,2.109,1.765a2.052,2.052,0,0,0,1.223-.319A1.037,1.037,0,0,0,11.821-2.8ZM23.54-8.884H20.273V0h-2.2V-8.884H14.854v-1.78H23.54Zm7.668,4.263H26.99v2.856h4.951V0H24.792V-10.664h7.134v1.78H26.99v2.542h4.219ZM36.1-10.664,38.84-2.93l2.725-7.734h2.886V0h-2.2V-2.915l.22-5.032L39.587,0H38.079L35.208-7.939l.22,5.024V0h-2.2V-10.664ZM52.39-2.2H48.538L47.805,0H45.469l3.97-10.664h2.036L55.466,0H53.13Zm-3.259-1.78H51.8l-1.34-3.992Z" transform="translate(797.266 10009.253)"/>
    <path id="Trazado_655052" data-name="Trazado 655052" d="M-36.812-3.158A3.662,3.662,0,0,1-37.977-.721a3.82,3.82,0,0,1-2.608.858,3.507,3.507,0,0,1-2.827-1.265,5.088,5.088,0,0,1-1.063-3.384v-.957a5.671,5.671,0,0,1,.5-2.44,3.7,3.7,0,0,1,1.4-1.617,3.911,3.911,0,0,1,2.105-.564,3.6,3.6,0,0,1,2.543.885,3.706,3.706,0,0,1,1.114,2.451h-1.319a2.86,2.86,0,0,0-.742-1.728,2.244,2.244,0,0,0-1.6-.535,2.348,2.348,0,0,0-1.972.93,4.271,4.271,0,0,0-.714,2.648v.965a4.391,4.391,0,0,0,.677,2.579,2.187,2.187,0,0,0,1.894.958,2.526,2.526,0,0,0,1.678-.5,2.75,2.75,0,0,0,.776-1.726ZM-32.149.137A3.232,3.232,0,0,1-34.6-.851a3.666,3.666,0,0,1-.943-2.642v-.232a4.438,4.438,0,0,1,.42-1.965,3.28,3.28,0,0,1,1.176-1.354,2.956,2.956,0,0,1,1.637-.489,2.77,2.77,0,0,1,2.242.95,4.114,4.114,0,0,1,.8,2.721v.526h-5.011a2.629,2.629,0,0,0,.639,1.767A2.009,2.009,0,0,0-32.081-.9a2.2,2.2,0,0,0,1.135-.273,2.851,2.851,0,0,0,.813-.725l.772.6A3.106,3.106,0,0,1-32.149.137Zm-.157-6.631a1.687,1.687,0,0,0-1.285.557,2.708,2.708,0,0,0-.643,1.562h3.705v-.1a2.409,2.409,0,0,0-.52-1.494A1.588,1.588,0,0,0-32.307-6.494Zm5.7-.9.041.93A2.7,2.7,0,0,1-24.35-7.533q2.345,0,2.365,2.646V0h-1.265V-4.895a1.7,1.7,0,0,0-.366-1.183,1.466,1.466,0,0,0-1.118-.383,1.825,1.825,0,0,0-1.08.328,2.228,2.228,0,0,0-.725.861V0H-27.8V-7.4Zm8.244-1.791V-7.4h1.381v.978h-1.381v4.593a1.027,1.027,0,0,0,.185.667.777.777,0,0,0,.629.222,3.062,3.062,0,0,0,.6-.082V0a3.688,3.688,0,0,1-.971.136A1.575,1.575,0,0,1-19.2-.376a2.2,2.2,0,0,1-.431-1.456V-6.419h-1.347V-7.4h1.347V-9.187Zm6.433,2.926a3.79,3.79,0,0,0-.622-.048,1.667,1.667,0,0,0-1.688,1.06V0H-15.5V-7.4h1.23l.021.854a1.969,1.969,0,0,1,1.764-.991,1.292,1.292,0,0,1,.561.1Zm.69,2.5a4.369,4.369,0,0,1,.427-1.955,3.187,3.187,0,0,1,1.189-1.34,3.238,3.238,0,0,1,1.74-.472A3.119,3.119,0,0,1-5.438-6.487,4.024,4.024,0,0,1-4.5-3.705v.089a4.407,4.407,0,0,1-.414,1.938A3.14,3.14,0,0,1-6.1-.342,3.275,3.275,0,0,1-7.868.137,3.111,3.111,0,0,1-10.305-.909a4,4,0,0,1-.933-2.769Zm1.271.15A3.164,3.164,0,0,0-9.4-1.641,1.827,1.827,0,0,0-7.868-.9a1.816,1.816,0,0,0,1.531-.755A3.46,3.46,0,0,0-5.77-3.767a3.159,3.159,0,0,0-.578-1.972,1.836,1.836,0,0,0-1.535-.755,1.816,1.816,0,0,0-1.511.745A3.434,3.434,0,0,0-9.967-3.616ZM3.616.137A3.232,3.232,0,0,1,1.169-.851,3.666,3.666,0,0,1,.226-3.493v-.232a4.438,4.438,0,0,1,.42-1.965A3.28,3.28,0,0,1,1.822-7.044a2.956,2.956,0,0,1,1.637-.489,2.77,2.77,0,0,1,2.242.95,4.114,4.114,0,0,1,.8,2.721v.526H1.49a2.629,2.629,0,0,0,.639,1.767A2.009,2.009,0,0,0,3.685-.9a2.2,2.2,0,0,0,1.135-.273,2.851,2.851,0,0,0,.813-.725l.772.6A3.106,3.106,0,0,1,3.616.137ZM3.459-6.494a1.687,1.687,0,0,0-1.285.557,2.708,2.708,0,0,0-.643,1.562H5.236v-.1a2.409,2.409,0,0,0-.52-1.494A1.588,1.588,0,0,0,3.459-6.494Zm8.812,4.532a.931.931,0,0,0-.386-.8,3.718,3.718,0,0,0-1.347-.489,6.367,6.367,0,0,1-1.524-.492,2.169,2.169,0,0,1-.834-.684,1.635,1.635,0,0,1-.27-.943A1.919,1.919,0,0,1,8.678-6.9a3,3,0,0,1,1.965-.629,3.091,3.091,0,0,1,2.041.649,2.063,2.063,0,0,1,.783,1.661H12.2a1.142,1.142,0,0,0-.441-.9,1.652,1.652,0,0,0-1.111-.376,1.729,1.729,0,0,0-1.08.3.947.947,0,0,0-.39.786.767.767,0,0,0,.362.69,4.458,4.458,0,0,0,1.309.444,6.821,6.821,0,0,1,1.535.506,2.239,2.239,0,0,1,.872.708,1.74,1.74,0,0,1,.284,1.008,1.893,1.893,0,0,1-.793,1.589,3.326,3.326,0,0,1-2.058.6A3.725,3.725,0,0,1,9.112-.178a2.557,2.557,0,0,1-1.07-.878,2.117,2.117,0,0,1-.386-1.22H8.921A1.309,1.309,0,0,0,9.43-1.268,1.976,1.976,0,0,0,10.685-.9a2.039,2.039,0,0,0,1.152-.291A.893.893,0,0,0,12.271-1.962ZM18.149-.9a1.822,1.822,0,0,0,1.183-.41,1.443,1.443,0,0,0,.561-1.025h1.2a2.293,2.293,0,0,1-.437,1.21,2.881,2.881,0,0,1-1.077.916,3.107,3.107,0,0,1-1.425.342,3.047,3.047,0,0,1-2.4-1.008,4.016,4.016,0,0,1-.892-2.758v-.212a4.453,4.453,0,0,1,.4-1.921,3.02,3.02,0,0,1,1.138-1.306,3.233,3.233,0,0,1,1.753-.465,2.966,2.966,0,0,1,2.068.745,2.663,2.663,0,0,1,.878,1.935h-1.2a1.743,1.743,0,0,0-.543-1.179,1.691,1.691,0,0,0-1.207-.461,1.77,1.77,0,0,0-1.494.694,3.259,3.259,0,0,0-.53,2.006v.239a3.194,3.194,0,0,0,.526,1.969A1.779,1.779,0,0,0,18.149-.9Zm4.026-2.871A4.369,4.369,0,0,1,22.6-5.722a3.187,3.187,0,0,1,1.189-1.34,3.238,3.238,0,0,1,1.74-.472,3.119,3.119,0,0,1,2.444,1.046,4.024,4.024,0,0,1,.933,2.782v.089A4.407,4.407,0,0,1,28.5-1.678,3.14,3.14,0,0,1,27.313-.342a3.275,3.275,0,0,1-1.767.479A3.111,3.111,0,0,1,23.109-.909a4,4,0,0,1-.933-2.769Zm1.271.15a3.164,3.164,0,0,0,.571,1.976A1.827,1.827,0,0,0,25.546-.9a1.816,1.816,0,0,0,1.531-.755,3.46,3.46,0,0,0,.567-2.116,3.159,3.159,0,0,0-.578-1.972,1.836,1.836,0,0,0-1.535-.755,1.816,1.816,0,0,0-1.511.745A3.434,3.434,0,0,0,23.447-3.616ZM31.869,0H30.6V-10.5h1.265Zm6.59,0a2.657,2.657,0,0,1-.178-.779,2.822,2.822,0,0,1-2.105.916,2.611,2.611,0,0,1-1.794-.619,2,2,0,0,1-.7-1.569,2.091,2.091,0,0,1,.878-1.794,4.142,4.142,0,0,1,2.471-.639h1.23v-.581a1.42,1.42,0,0,0-.4-1.056A1.593,1.593,0,0,0,36.7-6.515a1.844,1.844,0,0,0-1.135.342,1.007,1.007,0,0,0-.458.827H33.831a1.745,1.745,0,0,1,.393-1.07,2.683,2.683,0,0,1,1.066-.817,3.588,3.588,0,0,1,1.48-.3,2.924,2.924,0,0,1,2,.639,2.306,2.306,0,0,1,.752,1.76v3.4a4.162,4.162,0,0,0,.26,1.62V0Zm-2.1-.964a2.223,2.223,0,0,0,1.128-.308,1.861,1.861,0,0,0,.772-.8V-3.589H37.27q-2.324,0-2.324,1.36a1.151,1.151,0,0,0,.4.93A1.524,1.524,0,0,0,36.36-.964Zm8.723-5.3a3.79,3.79,0,0,0-.622-.048,1.667,1.667,0,0,0-1.688,1.06V0H41.508V-7.4h1.23l.021.854a1.969,1.969,0,0,1,1.764-.991,1.292,1.292,0,0,1,.561.1Z" transform="translate(872.274 10086.279)"/>
    <path id="Trazado_655053" data-name="Trazado 655053" d="M-28.752-1.743l2.844-8.21h1.436L-28.164,0h-1.162l-3.685-9.953h1.429Zm8.483,1.88a3.232,3.232,0,0,1-2.447-.988,3.666,3.666,0,0,1-.943-2.642v-.232a4.438,4.438,0,0,1,.42-1.965,3.28,3.28,0,0,1,1.176-1.354,2.956,2.956,0,0,1,1.637-.489,2.77,2.77,0,0,1,2.242.95,4.114,4.114,0,0,1,.8,2.721v.526h-5.011a2.629,2.629,0,0,0,.639,1.767A2.009,2.009,0,0,0-20.2-.9a2.2,2.2,0,0,0,1.135-.273,2.851,2.851,0,0,0,.813-.725l.772.6A3.106,3.106,0,0,1-20.269.137Zm-.157-6.631a1.687,1.687,0,0,0-1.285.557,2.708,2.708,0,0,0-.643,1.562h3.705v-.1a2.409,2.409,0,0,0-.52-1.494A1.588,1.588,0,0,0-20.426-6.494Zm7.472,5.6a1.822,1.822,0,0,0,1.183-.41,1.443,1.443,0,0,0,.561-1.025h1.2a2.293,2.293,0,0,1-.437,1.21,2.881,2.881,0,0,1-1.077.916,3.107,3.107,0,0,1-1.425.342,3.047,3.047,0,0,1-2.4-1.008,4.016,4.016,0,0,1-.892-2.758v-.212a4.453,4.453,0,0,1,.4-1.921,3.02,3.02,0,0,1,1.138-1.306,3.233,3.233,0,0,1,1.753-.465,2.966,2.966,0,0,1,2.068.745,2.663,2.663,0,0,1,.878,1.935h-1.2a1.743,1.743,0,0,0-.543-1.179,1.691,1.691,0,0,0-1.207-.461,1.77,1.77,0,0,0-1.494.694,3.259,3.259,0,0,0-.53,2.006v.239a3.194,3.194,0,0,0,.526,1.969A1.779,1.779,0,0,0-12.954-.9Zm5.735.9H-8.483V-7.4h1.265ZM-8.586-9.358a.755.755,0,0,1,.188-.52.706.706,0,0,1,.557-.212.717.717,0,0,1,.561.212.747.747,0,0,1,.191.52.722.722,0,0,1-.191.513.73.73,0,0,1-.561.205A.718.718,0,0,1-8.4-8.846.73.73,0,0,1-8.586-9.358ZM-4-7.4l.041.93A2.7,2.7,0,0,1-1.743-7.533Q.6-7.533.622-4.888V0H-.643V-4.895a1.7,1.7,0,0,0-.366-1.183A1.466,1.466,0,0,0-2.126-6.46a1.825,1.825,0,0,0-1.08.328,2.228,2.228,0,0,0-.725.861V0H-5.2V-7.4ZM2.222-3.76A4.333,4.333,0,0,1,3.028-6.5,2.551,2.551,0,0,1,5.141-7.533,2.565,2.565,0,0,1,7.2-6.645V-10.5H8.463V0H7.3L7.239-.793a2.575,2.575,0,0,1-2.112.93,2.526,2.526,0,0,1-2.1-1.053,4.382,4.382,0,0,1-.81-2.748Zm1.265.144a3.281,3.281,0,0,0,.52,1.969,1.68,1.68,0,0,0,1.436.711A1.845,1.845,0,0,0,7.2-2.017v-3.4A1.859,1.859,0,0,0,5.455-6.46a1.687,1.687,0,0,0-1.449.718A3.612,3.612,0,0,0,3.486-3.616ZM14.991,0a2.657,2.657,0,0,1-.178-.779,2.822,2.822,0,0,1-2.105.916,2.611,2.611,0,0,1-1.794-.619,2,2,0,0,1-.7-1.569,2.091,2.091,0,0,1,.878-1.794,4.142,4.142,0,0,1,2.471-.639h1.23v-.581a1.42,1.42,0,0,0-.4-1.056,1.593,1.593,0,0,0-1.169-.393,1.844,1.844,0,0,0-1.135.342,1.007,1.007,0,0,0-.458.827H10.363a1.745,1.745,0,0,1,.393-1.07,2.683,2.683,0,0,1,1.066-.817,3.588,3.588,0,0,1,1.48-.3,2.924,2.924,0,0,1,2,.639,2.306,2.306,0,0,1,.752,1.76v3.4a4.162,4.162,0,0,0,.26,1.62V0Zm-2.1-.964a2.223,2.223,0,0,0,1.128-.308,1.861,1.861,0,0,0,.772-.8V-3.589H13.8q-2.324,0-2.324,1.36a1.151,1.151,0,0,0,.4.93A1.524,1.524,0,0,0,12.893-.964Zm8.723-5.3a3.79,3.79,0,0,0-.622-.048A1.667,1.667,0,0,0,19.3-5.25V0H18.04V-7.4h1.23l.021.854a1.969,1.969,0,0,1,1.764-.991,1.292,1.292,0,0,1,.561.1ZM24.151,0H22.887V-7.4h1.265ZM22.784-9.358a.755.755,0,0,1,.188-.52.706.706,0,0,1,.557-.212.717.717,0,0,1,.561.212.747.747,0,0,1,.191.52.722.722,0,0,1-.191.513.73.73,0,0,1-.561.205.718.718,0,0,1-.557-.205A.73.73,0,0,1,22.784-9.358ZM25.84-3.767a4.369,4.369,0,0,1,.427-1.955,3.187,3.187,0,0,1,1.189-1.34,3.238,3.238,0,0,1,1.74-.472A3.119,3.119,0,0,1,31.64-6.487a4.024,4.024,0,0,1,.933,2.782v.089a4.407,4.407,0,0,1-.414,1.938A3.14,3.14,0,0,1,30.977-.342,3.275,3.275,0,0,1,29.21.137,3.111,3.111,0,0,1,26.773-.909a4,4,0,0,1-.933-2.769Zm1.271.15a3.164,3.164,0,0,0,.571,1.976A1.827,1.827,0,0,0,29.21-.9a1.816,1.816,0,0,0,1.531-.755,3.46,3.46,0,0,0,.567-2.116,3.159,3.159,0,0,0-.578-1.972A1.836,1.836,0,0,0,29.2-6.494a1.816,1.816,0,0,0-1.511.745A3.434,3.434,0,0,0,27.111-3.616Z" transform="translate(721.82 10086.279)"/>
    <path id="Trazado_655054" data-name="Trazado 655054" d="M-15.955-4.4h-4.177V0h-1.312V-9.953h6.166V-8.88h-4.854v3.411h4.177ZM-9.57,0a2.657,2.657,0,0,1-.178-.779,2.822,2.822,0,0,1-2.105.916,2.611,2.611,0,0,1-1.794-.619,2,2,0,0,1-.7-1.569,2.091,2.091,0,0,1,.878-1.794A4.142,4.142,0,0,1-11-4.484h1.23v-.581a1.42,1.42,0,0,0-.4-1.056,1.593,1.593,0,0,0-1.169-.393,1.844,1.844,0,0,0-1.135.342,1.007,1.007,0,0,0-.458.827H-14.2a1.745,1.745,0,0,1,.393-1.07,2.683,2.683,0,0,1,1.066-.817,3.588,3.588,0,0,1,1.48-.3,2.924,2.924,0,0,1,2,.639A2.306,2.306,0,0,1-8.5-5.134v3.4a4.162,4.162,0,0,0,.26,1.62V0Zm-2.1-.964a2.223,2.223,0,0,0,1.128-.308,1.861,1.861,0,0,0,.772-.8V-3.589h-.991q-2.324,0-2.324,1.36a1.151,1.151,0,0,0,.4.93A1.524,1.524,0,0,0-11.669-.964ZM-5.332-7.4l.034.82A2.732,2.732,0,0,1-3.1-7.533,2.115,2.115,0,0,1-.991-6.344a2.8,2.8,0,0,1,.96-.861,2.837,2.837,0,0,1,1.4-.328q2.434,0,2.475,2.577V0H2.577V-4.881a1.7,1.7,0,0,0-.362-1.186A1.6,1.6,0,0,0,1-6.46a1.677,1.677,0,0,0-1.169.42,1.706,1.706,0,0,0-.54,1.131V0H-1.982V-4.847A1.411,1.411,0,0,0-3.562-6.46a1.692,1.692,0,0,0-1.7,1.06V0H-6.528V-7.4ZM7.123,0H5.858V-7.4H7.123ZM5.756-9.358a.755.755,0,0,1,.188-.52A.706.706,0,0,1,6.5-10.09a.717.717,0,0,1,.561.212.747.747,0,0,1,.191.52.722.722,0,0,1-.191.513.73.73,0,0,1-.561.205.718.718,0,0,1-.557-.205A.73.73,0,0,1,5.756-9.358ZM10.521,0H9.256V-10.5h1.265Zm3.4,0H12.653V-7.4h1.265ZM12.551-9.358a.755.755,0,0,1,.188-.52.706.706,0,0,1,.557-.212.717.717,0,0,1,.561.212.747.747,0,0,1,.191.52.722.722,0,0,1-.191.513.73.73,0,0,1-.561.205.718.718,0,0,1-.557-.205A.73.73,0,0,1,12.551-9.358ZM20.508,0a2.657,2.657,0,0,1-.178-.779,2.822,2.822,0,0,1-2.105.916A2.611,2.611,0,0,1,16.43-.482a2,2,0,0,1-.7-1.569,2.091,2.091,0,0,1,.878-1.794,4.142,4.142,0,0,1,2.471-.639h1.23v-.581a1.42,1.42,0,0,0-.4-1.056,1.593,1.593,0,0,0-1.169-.393,1.844,1.844,0,0,0-1.135.342,1.007,1.007,0,0,0-.458.827H15.88a1.745,1.745,0,0,1,.393-1.07,2.683,2.683,0,0,1,1.066-.817,3.588,3.588,0,0,1,1.48-.3,2.924,2.924,0,0,1,2,.639,2.306,2.306,0,0,1,.752,1.76v3.4a4.162,4.162,0,0,0,.26,1.62V0Zm-2.1-.964a2.223,2.223,0,0,0,1.128-.308,1.861,1.861,0,0,0,.772-.8V-3.589h-.991q-2.324,0-2.324,1.36a1.151,1.151,0,0,0,.4.93A1.524,1.524,0,0,0,18.409-.964Z" transform="translate(671.169 9951.635)"/>
    <path id="Trazado_655055" data-name="Trazado 655055" d="M-23.044-4.437A6.172,6.172,0,0,1-25.5-5.629a2.279,2.279,0,0,1-.769-1.747,2.408,2.408,0,0,1,.94-1.945,3.736,3.736,0,0,1,2.444-.769,4.078,4.078,0,0,1,1.829.4A3.007,3.007,0,0,1-19.814-8.6a2.8,2.8,0,0,1,.441,1.524h-1.319A1.82,1.82,0,0,0-21.267-8.5a2.335,2.335,0,0,0-1.62-.518,2.391,2.391,0,0,0-1.514.428A1.428,1.428,0,0,0-24.944-7.4a1.285,1.285,0,0,0,.516,1.031,5.062,5.062,0,0,0,1.757.77,8.152,8.152,0,0,1,1.941.77,2.946,2.946,0,0,1,1.039.981,2.5,2.5,0,0,1,.338,1.319A2.326,2.326,0,0,1-20.3-.591a4.022,4.022,0,0,1-2.522.728,4.678,4.678,0,0,1-1.914-.393A3.221,3.221,0,0,1-26.1-1.333a2.627,2.627,0,0,1-.482-1.552h1.319A1.714,1.714,0,0,0-24.6-1.459a2.806,2.806,0,0,0,1.781.523,2.58,2.58,0,0,0,1.593-.424,1.377,1.377,0,0,0,.554-1.155,1.351,1.351,0,0,0-.513-1.131A5.911,5.911,0,0,0-23.044-4.437ZM-16.5,0H-17.76V-7.4H-16.5Zm-1.367-9.358a.755.755,0,0,1,.188-.52.706.706,0,0,1,.557-.212.717.717,0,0,1,.561.212.747.747,0,0,1,.191.52.722.722,0,0,1-.191.513.73.73,0,0,1-.561.205.718.718,0,0,1-.557-.205A.73.73,0,0,1-17.862-9.358Zm7.7,7.4a.931.931,0,0,0-.386-.8A3.718,3.718,0,0,0-11.9-3.247a6.367,6.367,0,0,1-1.524-.492,2.169,2.169,0,0,1-.834-.684,1.635,1.635,0,0,1-.27-.943A1.919,1.919,0,0,1-13.757-6.9a3,3,0,0,1,1.965-.629,3.091,3.091,0,0,1,2.041.649,2.063,2.063,0,0,1,.783,1.661H-10.24a1.142,1.142,0,0,0-.441-.9,1.652,1.652,0,0,0-1.111-.376,1.729,1.729,0,0,0-1.08.3.947.947,0,0,0-.39.786.767.767,0,0,0,.362.69,4.458,4.458,0,0,0,1.309.444,6.821,6.821,0,0,1,1.535.506,2.239,2.239,0,0,1,.872.708A1.74,1.74,0,0,1-8.9-2.051,1.893,1.893,0,0,1-9.693-.461a3.326,3.326,0,0,1-2.058.6,3.725,3.725,0,0,1-1.572-.314,2.557,2.557,0,0,1-1.07-.878,2.117,2.117,0,0,1-.386-1.22h1.265a1.309,1.309,0,0,0,.509,1.008A1.976,1.976,0,0,0-11.751-.9,2.039,2.039,0,0,0-10.6-1.186.893.893,0,0,0-10.165-1.962Zm4.628-7.226V-7.4h1.381v.978H-5.537v4.593a1.027,1.027,0,0,0,.185.667.777.777,0,0,0,.629.222,3.062,3.062,0,0,0,.6-.082V0a3.688,3.688,0,0,1-.971.136A1.575,1.575,0,0,1-6.371-.376,2.2,2.2,0,0,1-6.8-1.832V-6.419H-8.148V-7.4H-6.8V-9.187ZM.39.137A3.232,3.232,0,0,1-2.058-.851,3.666,3.666,0,0,1-3-3.493v-.232a4.438,4.438,0,0,1,.42-1.965A3.28,3.28,0,0,1-1.4-7.044,2.956,2.956,0,0,1,.232-7.533a2.77,2.77,0,0,1,2.242.95,4.114,4.114,0,0,1,.8,2.721v.526H-1.736A2.629,2.629,0,0,0-1.1-1.569,2.009,2.009,0,0,0,.458-.9a2.2,2.2,0,0,0,1.135-.273,2.851,2.851,0,0,0,.813-.725l.772.6A3.106,3.106,0,0,1,.39.137ZM.232-6.494a1.687,1.687,0,0,0-1.285.557A2.708,2.708,0,0,0-1.7-4.375H2.01v-.1a2.409,2.409,0,0,0-.52-1.494A1.588,1.588,0,0,0,.232-6.494Zm5.694-.9.034.82a2.732,2.732,0,0,1,2.194-.957,2.115,2.115,0,0,1,2.112,1.189,2.8,2.8,0,0,1,.96-.861,2.837,2.837,0,0,1,1.4-.328q2.434,0,2.475,2.577V0H13.836V-4.881a1.7,1.7,0,0,0-.362-1.186,1.6,1.6,0,0,0-1.217-.393,1.677,1.677,0,0,0-1.169.42,1.706,1.706,0,0,0-.54,1.131V0H9.276V-4.847A1.411,1.411,0,0,0,7.7-6.46,1.692,1.692,0,0,0,6-5.4V0H4.73V-7.4ZM21.574,0A2.657,2.657,0,0,1,21.4-.779a2.822,2.822,0,0,1-2.105.916A2.611,2.611,0,0,1,17.5-.482a2,2,0,0,1-.7-1.569,2.091,2.091,0,0,1,.878-1.794,4.142,4.142,0,0,1,2.471-.639h1.23v-.581a1.42,1.42,0,0,0-.4-1.056,1.593,1.593,0,0,0-1.169-.393,1.844,1.844,0,0,0-1.135.342,1.007,1.007,0,0,0-.458.827H16.946a1.745,1.745,0,0,1,.393-1.07,2.683,2.683,0,0,1,1.066-.817,3.588,3.588,0,0,1,1.48-.3,2.924,2.924,0,0,1,2,.639,2.306,2.306,0,0,1,.752,1.76v3.4a4.162,4.162,0,0,0,.26,1.62V0Zm-2.1-.964A2.223,2.223,0,0,0,20.6-1.271a1.861,1.861,0,0,0,.772-.8V-3.589h-.991q-2.324,0-2.324,1.36a1.151,1.151,0,0,0,.4.93A1.524,1.524,0,0,0,19.476-.964Zm-41.638,11.7a3.79,3.79,0,0,0-.622-.048,1.667,1.667,0,0,0-1.688,1.06V17h-1.265V9.6h1.23l.021.854a1.969,1.969,0,0,1,1.764-.991,1.292,1.292,0,0,1,.561.1Zm4.231,6.4a3.232,3.232,0,0,1-2.447-.988,3.666,3.666,0,0,1-.943-2.642v-.232a4.438,4.438,0,0,1,.42-1.965,3.28,3.28,0,0,1,1.176-1.354,2.956,2.956,0,0,1,1.637-.489,2.77,2.77,0,0,1,2.242.95,4.114,4.114,0,0,1,.8,2.721v.526h-5.011a2.629,2.629,0,0,0,.639,1.767,2.009,2.009,0,0,0,1.555.673,2.2,2.2,0,0,0,1.135-.273,2.851,2.851,0,0,0,.813-.725l.772.6A3.106,3.106,0,0,1-17.931,17.137Zm-.157-6.631a1.687,1.687,0,0,0-1.285.557,2.708,2.708,0,0,0-.643,1.562h3.705v-.1a2.409,2.409,0,0,0-.52-1.494A1.588,1.588,0,0,0-18.088,10.506ZM-12.209,17h-1.265V6.5h1.265Zm3.4,0h-1.265V9.6h1.265Zm-1.367-9.358a.755.755,0,0,1,.188-.52.706.706,0,0,1,.557-.212.717.717,0,0,1,.561.212.747.747,0,0,1,.191.52.722.722,0,0,1-.191.513.73.73,0,0,1-.561.205.718.718,0,0,1-.557-.205A.73.73,0,0,1-10.179,7.642Zm3.09,5.6a4.347,4.347,0,0,1,.8-2.751A2.558,2.558,0,0,1-4.17,9.467a2.544,2.544,0,0,1,2.112.957L-2,9.6H-.841v7.219a3.009,3.009,0,0,1-.851,2.263,3.141,3.141,0,0,1-2.287.827,3.8,3.8,0,0,1-1.565-.342,2.7,2.7,0,0,1-1.169-.937l.656-.759a2.473,2.473,0,0,0,1.989,1,1.938,1.938,0,0,0,1.439-.52A1.986,1.986,0,0,0-2.112,16.9v-.636a2.6,2.6,0,0,1-2.071.875,2.527,2.527,0,0,1-2.1-1.046A4.571,4.571,0,0,1-7.089,13.24Zm1.271.144A3.316,3.316,0,0,0-5.3,15.349a1.666,1.666,0,0,0,1.436.714,1.852,1.852,0,0,0,1.757-1.087V11.6a1.874,1.874,0,0,0-1.743-1.06,1.681,1.681,0,0,0-1.442.718A3.612,3.612,0,0,0-5.817,13.384ZM2.44,17H1.176V9.6H2.44ZM1.073,7.642a.755.755,0,0,1,.188-.52.706.706,0,0,1,.557-.212.717.717,0,0,1,.561.212.747.747,0,0,1,.191.52.722.722,0,0,1-.191.513.73.73,0,0,1-.561.205.718.718,0,0,1-.557-.205A.73.73,0,0,1,1.073,7.642Zm3.056,5.592a4.369,4.369,0,0,1,.427-1.955,3.187,3.187,0,0,1,1.189-1.34,3.238,3.238,0,0,1,1.74-.472,3.119,3.119,0,0,1,2.444,1.046,4.024,4.024,0,0,1,.933,2.782v.089a4.407,4.407,0,0,1-.414,1.938,3.14,3.14,0,0,1-1.183,1.336,3.275,3.275,0,0,1-1.767.479,3.111,3.111,0,0,1-2.437-1.046,4,4,0,0,1-.933-2.769Zm1.271.15a3.164,3.164,0,0,0,.571,1.976A1.827,1.827,0,0,0,7.5,16.1a1.816,1.816,0,0,0,1.531-.755A3.46,3.46,0,0,0,9.6,13.233a3.159,3.159,0,0,0-.578-1.972,1.836,1.836,0,0,0-1.535-.755,1.816,1.816,0,0,0-1.511.745A3.435,3.435,0,0,0,5.4,13.384Zm11.354,1.654a.931.931,0,0,0-.386-.8,3.718,3.718,0,0,0-1.347-.489,6.367,6.367,0,0,1-1.524-.492,2.169,2.169,0,0,1-.834-.684,1.635,1.635,0,0,1-.27-.943,1.919,1.919,0,0,1,.769-1.538,3,3,0,0,1,1.965-.629,3.091,3.091,0,0,1,2.041.649,2.063,2.063,0,0,1,.783,1.661H16.68a1.142,1.142,0,0,0-.441-.9,1.652,1.652,0,0,0-1.111-.376,1.729,1.729,0,0,0-1.08.3.947.947,0,0,0-.39.786.767.767,0,0,0,.362.69,4.458,4.458,0,0,0,1.309.444,6.821,6.821,0,0,1,1.535.506,2.239,2.239,0,0,1,.872.708,1.74,1.74,0,0,1,.284,1.008,1.893,1.893,0,0,1-.793,1.589,3.326,3.326,0,0,1-2.058.6,3.725,3.725,0,0,1-1.572-.314,2.557,2.557,0,0,1-1.07-.878,2.117,2.117,0,0,1-.386-1.22h1.265a1.309,1.309,0,0,0,.509,1.008,1.976,1.976,0,0,0,1.254.373,2.039,2.039,0,0,0,1.152-.291A.893.893,0,0,0,16.755,15.038Zm2.577-1.8a4.369,4.369,0,0,1,.427-1.955,3.187,3.187,0,0,1,1.189-1.34,3.238,3.238,0,0,1,1.74-.472,3.119,3.119,0,0,1,2.444,1.046,4.024,4.024,0,0,1,.933,2.782v.089a4.407,4.407,0,0,1-.414,1.938,3.14,3.14,0,0,1-1.183,1.336,3.275,3.275,0,0,1-1.767.479,3.111,3.111,0,0,1-2.437-1.046,4,4,0,0,1-.933-2.769Zm1.271.15a3.164,3.164,0,0,0,.571,1.976,1.934,1.934,0,0,0,3.059-.01,3.46,3.46,0,0,0,.567-2.116,3.159,3.159,0,0,0-.578-1.972,1.836,1.836,0,0,0-1.535-.755,1.816,1.816,0,0,0-1.511.745A3.435,3.435,0,0,0,20.6,13.384Z" transform="translate(1142.375 9990.162)"/>
    <path id="Trazado_655056" data-name="Trazado 655056" d="M-19.814-1.306A3.032,3.032,0,0,1-21.226-.222a5.7,5.7,0,0,1-2.109.359,4.09,4.09,0,0,1-2.16-.571,3.8,3.8,0,0,1-1.459-1.624,5.607,5.607,0,0,1-.53-2.44v-.868a5.234,5.234,0,0,1,1.049-3.486,3.656,3.656,0,0,1,2.95-1.237,3.777,3.777,0,0,1,2.509.8,3.469,3.469,0,0,1,1.162,2.259h-1.312a2.17,2.17,0,0,0-2.352-1.982,2.323,2.323,0,0,0-2,.927A4.526,4.526,0,0,0-26.165-5.4v.814A4.242,4.242,0,0,0-25.4-1.925a2.482,2.482,0,0,0,2.071.989A4.575,4.575,0,0,0-22.036-1.1a2,2,0,0,0,.916-.552v-2.23h-2.3V-4.956h3.609Zm1.654-2.461a4.369,4.369,0,0,1,.427-1.955,3.187,3.187,0,0,1,1.189-1.34,3.238,3.238,0,0,1,1.74-.472,3.119,3.119,0,0,1,2.444,1.046,4.024,4.024,0,0,1,.933,2.782v.089a4.407,4.407,0,0,1-.414,1.938A3.14,3.14,0,0,1-13.022-.342,3.275,3.275,0,0,1-14.79.137,3.111,3.111,0,0,1-17.227-.909a4,4,0,0,1-.933-2.769Zm1.271.15a3.164,3.164,0,0,0,.571,1.976A1.827,1.827,0,0,0-14.79-.9a1.816,1.816,0,0,0,1.531-.755,3.46,3.46,0,0,0,.567-2.116,3.159,3.159,0,0,0-.578-1.972A1.836,1.836,0,0,0-14.8-6.494a1.816,1.816,0,0,0-1.511.745A3.434,3.434,0,0,0-16.888-3.616Zm13.31,0A4.4,4.4,0,0,1-4.358-.892,2.49,2.49,0,0,1-6.45.137,2.578,2.578,0,0,1-8.617-.854L-8.678,0H-9.84V-10.5h1.265v3.917a2.564,2.564,0,0,1,2.112-.95A2.505,2.505,0,0,1-4.348-6.515a4.53,4.53,0,0,1,.769,2.789ZM-4.843-3.76a3.417,3.417,0,0,0-.5-2,1.652,1.652,0,0,0-1.436-.7A1.857,1.857,0,0,0-8.576-5.3v3.2A1.909,1.909,0,0,0-6.764-.937a1.643,1.643,0,0,0,1.415-.7A3.634,3.634,0,0,0-4.843-3.76ZM-.612,0H-1.876V-7.4H-.612ZM-1.979-9.358a.755.755,0,0,1,.188-.52.706.706,0,0,1,.557-.212.717.717,0,0,1,.561.212.747.747,0,0,1,.191.52.722.722,0,0,1-.191.513.73.73,0,0,1-.561.205.718.718,0,0,1-.557-.205A.73.73,0,0,1-1.979-9.358Zm6.46,9.5A3.232,3.232,0,0,1,2.034-.851,3.666,3.666,0,0,1,1.09-3.493v-.232a4.438,4.438,0,0,1,.42-1.965A3.28,3.28,0,0,1,2.687-7.044a2.956,2.956,0,0,1,1.637-.489,2.77,2.77,0,0,1,2.242.95,4.114,4.114,0,0,1,.8,2.721v.526H2.355a2.629,2.629,0,0,0,.639,1.767A2.009,2.009,0,0,0,4.549-.9a2.2,2.2,0,0,0,1.135-.273A2.851,2.851,0,0,0,6.5-1.894l.772.6A3.106,3.106,0,0,1,4.481.137ZM4.324-6.494a1.687,1.687,0,0,0-1.285.557A2.708,2.708,0,0,0,2.4-4.375H6.1v-.1a2.409,2.409,0,0,0-.52-1.494A1.588,1.588,0,0,0,4.324-6.494Zm8.08.232a3.79,3.79,0,0,0-.622-.048,1.667,1.667,0,0,0-1.688,1.06V0H8.829V-7.4h1.23l.021.854a1.969,1.969,0,0,1,1.764-.991,1.292,1.292,0,0,1,.561.1ZM14.762-7.4l.041.93a2.7,2.7,0,0,1,2.215-1.066q2.345,0,2.365,2.646V0H18.119V-4.895a1.7,1.7,0,0,0-.366-1.183,1.466,1.466,0,0,0-1.118-.383,1.825,1.825,0,0,0-1.08.328,2.228,2.228,0,0,0-.725.861V0H13.566V-7.4Zm6.193,3.63a4.369,4.369,0,0,1,.427-1.955,3.187,3.187,0,0,1,1.189-1.34,3.238,3.238,0,0,1,1.74-.472,3.119,3.119,0,0,1,2.444,1.046,4.024,4.024,0,0,1,.933,2.782v.089a4.407,4.407,0,0,1-.414,1.938A3.14,3.14,0,0,1,26.093-.342a3.275,3.275,0,0,1-1.767.479A3.111,3.111,0,0,1,21.889-.909a4,4,0,0,1-.933-2.769Zm1.271.15A3.164,3.164,0,0,0,22.8-1.641,1.827,1.827,0,0,0,24.326-.9a1.816,1.816,0,0,0,1.531-.755,3.46,3.46,0,0,0,.567-2.116,3.159,3.159,0,0,0-.578-1.972,1.836,1.836,0,0,0-1.535-.755,1.816,1.816,0,0,0-1.511.745A3.434,3.434,0,0,0,22.227-3.616Z" transform="translate(457.903 9990.162)"/>
    <path id="Trazado_655057" data-name="Trazado 655057" d="M-19.031-1.743l2.844-8.21h1.436L-18.443,0h-1.162L-23.29-9.953h1.429ZM-9.365,0a2.657,2.657,0,0,1-.178-.779,2.822,2.822,0,0,1-2.105.916,2.611,2.611,0,0,1-1.794-.619,2,2,0,0,1-.7-1.569,2.091,2.091,0,0,1,.878-1.794,4.142,4.142,0,0,1,2.471-.639h1.23v-.581a1.42,1.42,0,0,0-.4-1.056,1.593,1.593,0,0,0-1.169-.393,1.844,1.844,0,0,0-1.135.342,1.007,1.007,0,0,0-.458.827h-1.271a1.745,1.745,0,0,1,.393-1.07,2.683,2.683,0,0,1,1.066-.817,3.588,3.588,0,0,1,1.48-.3,2.924,2.924,0,0,1,2,.639A2.306,2.306,0,0,1-8.3-5.134v3.4a4.162,4.162,0,0,0,.26,1.62V0Zm-2.1-.964a2.223,2.223,0,0,0,1.128-.308,1.861,1.861,0,0,0,.772-.8V-3.589h-.991q-2.324,0-2.324,1.36a1.151,1.151,0,0,0,.4.93A1.524,1.524,0,0,0-11.464-.964ZM-4.942,0H-6.207V-10.5h1.265Zm1.688-3.767a4.369,4.369,0,0,1,.427-1.955,3.187,3.187,0,0,1,1.189-1.34A3.238,3.238,0,0,1,.1-7.533,3.119,3.119,0,0,1,2.546-6.487a4.024,4.024,0,0,1,.933,2.782v.089a4.407,4.407,0,0,1-.414,1.938A3.14,3.14,0,0,1,1.883-.342,3.275,3.275,0,0,1,.116.137,3.111,3.111,0,0,1-2.321-.909a4,4,0,0,1-.933-2.769Zm1.271.15a3.164,3.164,0,0,0,.571,1.976A1.827,1.827,0,0,0,.116-.9a1.816,1.816,0,0,0,1.531-.755,3.46,3.46,0,0,0,.567-2.116,3.159,3.159,0,0,0-.578-1.972A1.836,1.836,0,0,0,.1-6.494a1.816,1.816,0,0,0-1.511.745A3.434,3.434,0,0,0-1.982-3.616ZM8.641-6.262a3.79,3.79,0,0,0-.622-.048A1.667,1.667,0,0,0,6.33-5.25V0H5.065V-7.4H6.3l.021.854A1.969,1.969,0,0,1,8.08-7.533a1.292,1.292,0,0,1,.561.1Zm4.231,6.4a3.232,3.232,0,0,1-2.447-.988,3.666,3.666,0,0,1-.943-2.642v-.232A4.438,4.438,0,0,1,9.9-5.691a3.28,3.28,0,0,1,1.176-1.354,2.956,2.956,0,0,1,1.637-.489,2.77,2.77,0,0,1,2.242.95,4.114,4.114,0,0,1,.8,2.721v.526H10.746a2.629,2.629,0,0,0,.639,1.767A2.009,2.009,0,0,0,12.94-.9a2.2,2.2,0,0,0,1.135-.273,2.851,2.851,0,0,0,.813-.725l.772.6A3.106,3.106,0,0,1,12.872.137Zm-.157-6.631a1.687,1.687,0,0,0-1.285.557,2.708,2.708,0,0,0-.643,1.562h3.705v-.1a2.409,2.409,0,0,0-.52-1.494A1.588,1.588,0,0,0,12.715-6.494Zm8.812,4.532a.931.931,0,0,0-.386-.8,3.718,3.718,0,0,0-1.347-.489,6.367,6.367,0,0,1-1.524-.492,2.169,2.169,0,0,1-.834-.684,1.635,1.635,0,0,1-.27-.943A1.919,1.919,0,0,1,17.934-6.9,3,3,0,0,1,19.9-7.533a3.091,3.091,0,0,1,2.041.649,2.063,2.063,0,0,1,.783,1.661H21.451a1.142,1.142,0,0,0-.441-.9A1.652,1.652,0,0,0,19.9-6.494a1.729,1.729,0,0,0-1.08.3.947.947,0,0,0-.39.786.767.767,0,0,0,.362.69,4.458,4.458,0,0,0,1.309.444,6.821,6.821,0,0,1,1.535.506,2.239,2.239,0,0,1,.872.708,1.74,1.74,0,0,1,.284,1.008A1.893,1.893,0,0,1,22-.461a3.326,3.326,0,0,1-2.058.6,3.725,3.725,0,0,1-1.572-.314,2.557,2.557,0,0,1-1.07-.878,2.117,2.117,0,0,1-.386-1.22h1.265a1.309,1.309,0,0,0,.509,1.008A1.976,1.976,0,0,0,19.94-.9a2.039,2.039,0,0,0,1.152-.291A.893.893,0,0,0,21.526-1.962Zm-42.051,17a.931.931,0,0,0-.386-.8,3.718,3.718,0,0,0-1.347-.489,6.367,6.367,0,0,1-1.524-.492,2.169,2.169,0,0,1-.834-.684,1.635,1.635,0,0,1-.27-.943,1.919,1.919,0,0,1,.769-1.538,3,3,0,0,1,1.965-.629,3.091,3.091,0,0,1,2.041.649,2.063,2.063,0,0,1,.783,1.661H-20.6a1.142,1.142,0,0,0-.441-.9,1.652,1.652,0,0,0-1.111-.376,1.729,1.729,0,0,0-1.08.3.947.947,0,0,0-.39.786.767.767,0,0,0,.362.69,4.458,4.458,0,0,0,1.309.444,6.821,6.821,0,0,1,1.535.506,2.239,2.239,0,0,1,.872.708,1.74,1.74,0,0,1,.284,1.008,1.893,1.893,0,0,1-.793,1.589,3.326,3.326,0,0,1-2.058.6,3.725,3.725,0,0,1-1.572-.314,2.557,2.557,0,0,1-1.07-.878,2.117,2.117,0,0,1-.386-1.22h1.265a1.309,1.309,0,0,0,.509,1.008,1.976,1.976,0,0,0,1.254.373,2.039,2.039,0,0,0,1.152-.291A.893.893,0,0,0-20.525,15.038Zm2.577-1.8a4.369,4.369,0,0,1,.427-1.955,3.187,3.187,0,0,1,1.189-1.34,3.238,3.238,0,0,1,1.74-.472,3.119,3.119,0,0,1,2.444,1.046,4.024,4.024,0,0,1,.933,2.782v.089a4.407,4.407,0,0,1-.414,1.938,3.14,3.14,0,0,1-1.183,1.336,3.275,3.275,0,0,1-1.767.479,3.111,3.111,0,0,1-2.437-1.046,4,4,0,0,1-.933-2.769Zm1.271.15a3.164,3.164,0,0,0,.571,1.976,1.827,1.827,0,0,0,1.528.745,1.816,1.816,0,0,0,1.531-.755,3.46,3.46,0,0,0,.567-2.116,3.159,3.159,0,0,0-.578-1.972,1.836,1.836,0,0,0-1.535-.755,1.816,1.816,0,0,0-1.511.745A3.435,3.435,0,0,0-16.676,13.384ZM-6.662,16.1a1.822,1.822,0,0,0,1.183-.41,1.443,1.443,0,0,0,.561-1.025h1.2a2.293,2.293,0,0,1-.437,1.21,2.881,2.881,0,0,1-1.077.916,3.107,3.107,0,0,1-1.425.342,3.047,3.047,0,0,1-2.4-1.008,4.016,4.016,0,0,1-.892-2.758v-.212a4.453,4.453,0,0,1,.4-1.921A3.02,3.02,0,0,1-8.422,9.932a3.233,3.233,0,0,1,1.753-.465,2.966,2.966,0,0,1,2.068.745,2.663,2.663,0,0,1,.878,1.935h-1.2a1.743,1.743,0,0,0-.543-1.179,1.691,1.691,0,0,0-1.207-.461,1.77,1.77,0,0,0-1.494.694,3.259,3.259,0,0,0-.53,2.006v.239a3.194,3.194,0,0,0,.526,1.969A1.779,1.779,0,0,0-6.662,16.1Zm5.735.9H-2.191V9.6H-.926ZM-2.293,7.642a.755.755,0,0,1,.188-.52.706.706,0,0,1,.557-.212.717.717,0,0,1,.561.212.747.747,0,0,1,.191.52.722.722,0,0,1-.191.513.73.73,0,0,1-.561.205.718.718,0,0,1-.557-.205A.73.73,0,0,1-2.293,7.642ZM5.664,17a2.657,2.657,0,0,1-.178-.779,2.822,2.822,0,0,1-2.105.916,2.611,2.611,0,0,1-1.794-.619,2,2,0,0,1-.7-1.569,2.091,2.091,0,0,1,.878-1.794,4.142,4.142,0,0,1,2.471-.639h1.23v-.581a1.42,1.42,0,0,0-.4-1.056A1.593,1.593,0,0,0,3.9,10.485a1.844,1.844,0,0,0-1.135.342,1.007,1.007,0,0,0-.458.827H1.036a1.745,1.745,0,0,1,.393-1.07A2.683,2.683,0,0,1,2.5,9.768a3.588,3.588,0,0,1,1.48-.3,2.924,2.924,0,0,1,2,.639,2.306,2.306,0,0,1,.752,1.76v3.4a4.162,4.162,0,0,0,.26,1.62V17Zm-2.1-.964a2.223,2.223,0,0,0,1.128-.308,1.861,1.861,0,0,0,.772-.8V13.411H4.474q-2.324,0-2.324,1.36a1.151,1.151,0,0,0,.4.93A1.524,1.524,0,0,0,3.565,16.036ZM10.086,17H8.822V6.5h1.265Zm5.093.137a3.232,3.232,0,0,1-2.447-.988,3.666,3.666,0,0,1-.943-2.642v-.232a4.438,4.438,0,0,1,.42-1.965,3.28,3.28,0,0,1,1.176-1.354,2.956,2.956,0,0,1,1.637-.489,2.77,2.77,0,0,1,2.242.95,4.114,4.114,0,0,1,.8,2.721v.526H13.053a2.629,2.629,0,0,0,.639,1.767,2.009,2.009,0,0,0,1.555.673,2.2,2.2,0,0,0,1.135-.273,2.851,2.851,0,0,0,.813-.725l.772.6A3.106,3.106,0,0,1,15.179,17.137Zm-.157-6.631a1.687,1.687,0,0,0-1.285.557,2.708,2.708,0,0,0-.643,1.562H16.8v-.1a2.409,2.409,0,0,0-.52-1.494A1.588,1.588,0,0,0,15.022,10.506Zm8.812,4.532a.931.931,0,0,0-.386-.8,3.718,3.718,0,0,0-1.347-.489,6.367,6.367,0,0,1-1.524-.492,2.169,2.169,0,0,1-.834-.684,1.635,1.635,0,0,1-.27-.943,1.919,1.919,0,0,1,.769-1.538,3,3,0,0,1,1.965-.629,3.091,3.091,0,0,1,2.041.649,2.063,2.063,0,0,1,.783,1.661H23.758a1.142,1.142,0,0,0-.441-.9,1.652,1.652,0,0,0-1.111-.376,1.729,1.729,0,0,0-1.08.3.947.947,0,0,0-.39.786.767.767,0,0,0,.362.69,4.458,4.458,0,0,0,1.309.444,6.821,6.821,0,0,1,1.535.506,2.239,2.239,0,0,1,.872.708,1.74,1.74,0,0,1,.284,1.008,1.893,1.893,0,0,1-.793,1.589,3.326,3.326,0,0,1-2.058.6,3.725,3.725,0,0,1-1.572-.314,2.557,2.557,0,0,1-1.07-.878,2.117,2.117,0,0,1-.386-1.22h1.265a1.309,1.309,0,0,0,.509,1.008,1.976,1.976,0,0,0,1.254.373,2.039,2.039,0,0,0,1.152-.291A.893.893,0,0,0,23.833,15.038Z" transform="translate(786.359 10305.183)"/>
    <path id="Trazado_655058" data-name="Trazado 655058" d="M-29.171-2.933A3.4,3.4,0,0,1-30.253-.67a3.547,3.547,0,0,1-2.422.8A3.257,3.257,0,0,1-35.3-1.047a4.724,4.724,0,0,1-.987-3.142v-.889a5.266,5.266,0,0,1,.46-2.266,3.438,3.438,0,0,1,1.3-1.5,3.632,3.632,0,0,1,1.955-.524,3.34,3.34,0,0,1,2.361.822,3.441,3.441,0,0,1,1.035,2.276H-30.4a2.655,2.655,0,0,0-.689-1.6,2.084,2.084,0,0,0-1.482-.5,2.181,2.181,0,0,0-1.831.864,3.966,3.966,0,0,0-.663,2.459v.9a4.077,4.077,0,0,0,.628,2.4,2.031,2.031,0,0,0,1.758.889,2.345,2.345,0,0,0,1.558-.46,2.554,2.554,0,0,0,.72-1.6ZM-28-3.5a4.057,4.057,0,0,1,.4-1.815,2.96,2.96,0,0,1,1.1-1.244A3.007,3.007,0,0,1-24.886-7a2.9,2.9,0,0,1,2.269.971A3.736,3.736,0,0,1-21.75-3.44v.083a4.092,4.092,0,0,1-.384,1.8,2.916,2.916,0,0,1-1.1,1.241,3.041,3.041,0,0,1-1.641.444,2.889,2.889,0,0,1-2.263-.971A3.718,3.718,0,0,1-28-3.415Zm1.181.14a2.938,2.938,0,0,0,.53,1.834,1.7,1.7,0,0,0,1.419.692,1.686,1.686,0,0,0,1.422-.7A3.213,3.213,0,0,0-22.925-3.5a2.933,2.933,0,0,0-.536-1.831,1.705,1.705,0,0,0-1.425-.7,1.686,1.686,0,0,0-1.4.692A3.189,3.189,0,0,0-26.822-3.358Zm7.649-3.51.032.762A2.536,2.536,0,0,1-17.1-7a1.964,1.964,0,0,1,1.961,1.1,2.6,2.6,0,0,1,.892-.8,2.634,2.634,0,0,1,1.3-.3q2.26,0,2.3,2.393V0h-1.174V-4.532a1.577,1.577,0,0,0-.336-1.1A1.482,1.482,0,0,0-13.3-6a1.557,1.557,0,0,0-1.085.39,1.584,1.584,0,0,0-.5,1.051V0h-1.181V-4.5A1.31,1.31,0,0,0-17.529-6a1.571,1.571,0,0,0-1.581.984V0h-1.174V-6.868Zm16.091,3.51A4.113,4.113,0,0,1-3.8-.832,2.3,2.3,0,0,1-5.741.127,2.519,2.519,0,0,1-7.709-.667V2.641H-8.884V-6.868h1.073l.057.762A2.419,2.419,0,0,1-5.76-7,2.342,2.342,0,0,1-3.8-6.062a4.157,4.157,0,0,1,.72,2.6Zm-1.174-.133a3.035,3.035,0,0,0-.5-1.834A1.6,1.6,0,0,0-6.11-6a1.726,1.726,0,0,0-1.6.946v3.282A1.73,1.73,0,0,0-6.1-.832,1.587,1.587,0,0,0-4.754-1.5,3.312,3.312,0,0,0-4.256-3.491ZM2.65,0a2.467,2.467,0,0,1-.165-.724A2.62,2.62,0,0,1,.53.127,2.424,2.424,0,0,1-1.136-.448,1.859,1.859,0,0,1-1.787-1.9,1.942,1.942,0,0,1-.971-3.571a3.846,3.846,0,0,1,2.295-.594H2.466V-4.7A1.319,1.319,0,0,0,2.1-5.684a1.48,1.48,0,0,0-1.085-.365,1.712,1.712,0,0,0-1.054.317.935.935,0,0,0-.425.768H-1.647a1.621,1.621,0,0,1,.365-.993,2.491,2.491,0,0,1,.99-.759A3.331,3.331,0,0,1,1.082-7a2.715,2.715,0,0,1,1.86.594,2.141,2.141,0,0,1,.7,1.635v3.161A3.865,3.865,0,0,0,3.882-.1V0ZM.7-.9a2.064,2.064,0,0,0,1.047-.286,1.728,1.728,0,0,0,.717-.743V-3.333h-.92q-2.158,0-2.158,1.263a1.069,1.069,0,0,0,.368.863A1.415,1.415,0,0,0,.7-.9ZM6.592-6.868,6.63-6A2.5,2.5,0,0,1,8.687-7q2.177,0,2.2,2.457V0H9.709V-4.545a1.581,1.581,0,0,0-.34-1.1A1.361,1.361,0,0,0,8.331-6a1.7,1.7,0,0,0-1,.3,2.069,2.069,0,0,0-.673.8V0H5.481V-6.868Zm3.885-2.679a1.578,1.578,0,0,1-.39,1.111,1.268,1.268,0,0,1-.974.425,1.43,1.43,0,0,1-.451-.063,2.432,2.432,0,0,1-.5-.26,2.158,2.158,0,0,0-.444-.238A1.087,1.087,0,0,0,7.4-8.614a.582.582,0,0,0-.444.2.725.725,0,0,0-.184.511l-.787-.044a1.657,1.657,0,0,1,.384-1.124,1.232,1.232,0,0,1,.974-.444,1.184,1.184,0,0,1,.4.063A2.914,2.914,0,0,1,8.23-9.2a2.839,2.839,0,0,0,.467.241,1.072,1.072,0,0,0,.359.057.568.568,0,0,0,.454-.216.757.757,0,0,0,.181-.5ZM15.5.127A3,3,0,0,1,13.232-.79a3.4,3.4,0,0,1-.876-2.453v-.216a4.121,4.121,0,0,1,.39-1.825,3.045,3.045,0,0,1,1.092-1.257A2.745,2.745,0,0,1,15.358-7a2.572,2.572,0,0,1,2.082.882,3.82,3.82,0,0,1,.743,2.526V-3.1H13.53a2.441,2.441,0,0,0,.594,1.641,1.866,1.866,0,0,0,1.444.625,2.045,2.045,0,0,0,1.054-.254,2.648,2.648,0,0,0,.755-.673l.717.559A2.884,2.884,0,0,1,15.5.127ZM15.358-6.03a1.566,1.566,0,0,0-1.193.517,2.515,2.515,0,0,0-.6,1.45h3.44v-.089a2.237,2.237,0,0,0-.482-1.387A1.475,1.475,0,0,0,15.358-6.03Zm7.5.216a3.519,3.519,0,0,0-.578-.044,1.547,1.547,0,0,0-1.568.984V0H19.541V-6.868h1.143l.019.793A1.829,1.829,0,0,1,22.341-7a1.2,1.2,0,0,1,.521.089ZM23.5-3.5a4.057,4.057,0,0,1,.4-1.815A2.96,2.96,0,0,1,25-6.557,3.007,3.007,0,0,1,26.619-7a2.9,2.9,0,0,1,2.269.971,3.736,3.736,0,0,1,.866,2.583v.083a4.092,4.092,0,0,1-.384,1.8,2.916,2.916,0,0,1-1.1,1.241,3.041,3.041,0,0,1-1.641.444,2.889,2.889,0,0,1-2.263-.971A3.718,3.718,0,0,1,23.5-3.415Zm1.181.14a2.938,2.938,0,0,0,.53,1.834,1.7,1.7,0,0,0,1.419.692,1.686,1.686,0,0,0,1.422-.7A3.213,3.213,0,0,0,28.58-3.5a2.933,2.933,0,0,0-.536-1.831,1.705,1.705,0,0,0-1.425-.7,1.686,1.686,0,0,0-1.4.692A3.189,3.189,0,0,0,24.683-3.358ZM35.226-1.822a.865.865,0,0,0-.359-.74,3.452,3.452,0,0,0-1.25-.454A5.912,5.912,0,0,1,32.2-3.472a2.014,2.014,0,0,1-.774-.635,1.518,1.518,0,0,1-.251-.876,1.782,1.782,0,0,1,.714-1.428A2.789,2.789,0,0,1,33.716-7a2.87,2.87,0,0,1,1.895.6,1.915,1.915,0,0,1,.727,1.542H35.156a1.06,1.06,0,0,0-.409-.832,1.534,1.534,0,0,0-1.031-.349,1.605,1.605,0,0,0-1,.279.879.879,0,0,0-.362.73.712.712,0,0,0,.336.641,4.139,4.139,0,0,0,1.216.413,6.334,6.334,0,0,1,1.425.47,2.079,2.079,0,0,1,.809.657A1.615,1.615,0,0,1,36.4-1.9a1.758,1.758,0,0,1-.736,1.476,3.089,3.089,0,0,1-1.911.555,3.459,3.459,0,0,1-1.46-.292A2.375,2.375,0,0,1,31.3-.981a1.966,1.966,0,0,1-.359-1.133h1.174a1.216,1.216,0,0,0,.473.936,1.835,1.835,0,0,0,1.165.346,1.894,1.894,0,0,0,1.07-.27A.829.829,0,0,0,35.226-1.822Z" transform="translate(923.43 9955.998)"/>
    <path id="Trazado_655059" data-name="Trazado 655059" d="M-21.792-8.246h-2.971V0h-1.212V-8.246h-2.964v-1h7.147ZM-17.754.127A3,3,0,0,1-20.027-.79,3.4,3.4,0,0,1-20.9-3.244v-.216a4.121,4.121,0,0,1,.39-1.825,3.045,3.045,0,0,1,1.092-1.257A2.745,2.745,0,0,1-17.9-7a2.572,2.572,0,0,1,2.082.882,3.82,3.82,0,0,1,.743,2.526V-3.1h-4.653a2.441,2.441,0,0,0,.594,1.641,1.866,1.866,0,0,0,1.444.625,2.045,2.045,0,0,0,1.054-.254,2.648,2.648,0,0,0,.755-.673l.717.559A2.884,2.884,0,0,1-17.754.127ZM-17.9-6.03a1.566,1.566,0,0,0-1.193.517,2.515,2.515,0,0,0-.6,1.45h3.44v-.089a2.237,2.237,0,0,0-.482-1.387A1.475,1.475,0,0,0-17.9-6.03ZM-12.441,0h-1.174V-9.75h1.174Zm4.729.127A3,3,0,0,1-9.985-.79a3.4,3.4,0,0,1-.876-2.453v-.216a4.121,4.121,0,0,1,.39-1.825A3.045,3.045,0,0,1-9.379-6.541,2.745,2.745,0,0,1-7.858-7a2.572,2.572,0,0,1,2.082.882,3.82,3.82,0,0,1,.743,2.526V-3.1H-9.687a2.441,2.441,0,0,0,.594,1.641,1.866,1.866,0,0,0,1.444.625A2.045,2.045,0,0,0-6.6-1.085a2.648,2.648,0,0,0,.755-.673l.717.559A2.884,2.884,0,0,1-7.712.127ZM-7.858-6.03a1.566,1.566,0,0,0-1.193.517,2.515,2.515,0,0,0-.6,1.45h3.44v-.089A2.237,2.237,0,0,0-6.69-5.538,1.475,1.475,0,0,0-7.858-6.03Zm6.367,4.437,1.7-5.275h1.2L-1.054,0h-.9L-4.437-6.868h1.2ZM3.815,0H2.641V-6.868H3.815ZM2.545-8.69a.7.7,0,0,1,.175-.482.655.655,0,0,1,.517-.2.666.666,0,0,1,.521.2.694.694,0,0,1,.178.482.671.671,0,0,1-.178.476.678.678,0,0,1-.521.19.667.667,0,0,1-.517-.19A.678.678,0,0,1,2.545-8.69ZM9.693-1.822a.865.865,0,0,0-.359-.74,3.452,3.452,0,0,0-1.25-.454,5.912,5.912,0,0,1-1.416-.457,2.014,2.014,0,0,1-.774-.635,1.518,1.518,0,0,1-.251-.876,1.782,1.782,0,0,1,.714-1.428A2.789,2.789,0,0,1,8.182-7a2.87,2.87,0,0,1,1.895.6A1.915,1.915,0,0,1,10.8-4.85H9.623a1.06,1.06,0,0,0-.409-.832A1.534,1.534,0,0,0,8.182-6.03a1.605,1.605,0,0,0-1,.279.879.879,0,0,0-.362.73.712.712,0,0,0,.336.641,4.139,4.139,0,0,0,1.216.413,6.334,6.334,0,0,1,1.425.47,2.079,2.079,0,0,1,.809.657,1.615,1.615,0,0,1,.263.936,1.758,1.758,0,0,1-.736,1.476A3.089,3.089,0,0,1,8.22.127,3.459,3.459,0,0,1,6.76-.165a2.375,2.375,0,0,1-.993-.816,1.966,1.966,0,0,1-.359-1.133H6.583a1.216,1.216,0,0,0,.473.936A1.835,1.835,0,0,0,8.22-.832,1.894,1.894,0,0,0,9.29-1.1.829.829,0,0,0,9.693-1.822ZM13.673,0H12.5V-6.868h1.174ZM12.4-8.69a.7.7,0,0,1,.175-.482.655.655,0,0,1,.517-.2.666.666,0,0,1,.521.2.694.694,0,0,1,.178.482.671.671,0,0,1-.178.476.678.678,0,0,1-.521.19.667.667,0,0,1-.517-.19A.678.678,0,0,1,12.4-8.69ZM15.241-3.5a4.057,4.057,0,0,1,.4-1.815,2.96,2.96,0,0,1,1.1-1.244A3.007,3.007,0,0,1,18.357-7a2.9,2.9,0,0,1,2.269.971,3.736,3.736,0,0,1,.866,2.583v.083a4.092,4.092,0,0,1-.384,1.8,2.916,2.916,0,0,1-1.1,1.241A3.041,3.041,0,0,1,18.37.127a2.889,2.889,0,0,1-2.263-.971,3.718,3.718,0,0,1-.866-2.571Zm1.181.14a2.938,2.938,0,0,0,.53,1.834,1.7,1.7,0,0,0,1.419.692,1.686,1.686,0,0,0,1.422-.7A3.213,3.213,0,0,0,20.319-3.5a2.933,2.933,0,0,0-.536-1.831,1.705,1.705,0,0,0-1.425-.7,1.686,1.686,0,0,0-1.4.692A3.189,3.189,0,0,0,16.421-3.358ZM18.891-9.75h1.422l-1.7,1.866-.946,0Zm5.186,2.882L24.115-6A2.5,2.5,0,0,1,26.171-7q2.177,0,2.2,2.457V0H27.193V-4.545a1.581,1.581,0,0,0-.34-1.1A1.361,1.361,0,0,0,25.816-6a1.7,1.7,0,0,0-1,.3,2.069,2.069,0,0,0-.673.8V0H22.966V-6.868Z" transform="translate(964.629 9831.385)"/>
    <path id="Trazado_655060" data-name="Trazado 655060" d="M-16.52,0h-1.219V-9.242h1.219Zm1.765-3.491a4.037,4.037,0,0,1,.743-2.555A2.375,2.375,0,0,1-12.045-7a2.363,2.363,0,0,1,1.961.889l.057-.762h1.073v6.7a2.794,2.794,0,0,1-.79,2.1,2.916,2.916,0,0,1-2.123.768,3.532,3.532,0,0,1-1.454-.317,2.5,2.5,0,0,1-1.085-.87l.609-.7a2.3,2.3,0,0,0,1.847.933,1.8,1.8,0,0,0,1.336-.482A1.844,1.844,0,0,0-10.134-.1v-.59a2.414,2.414,0,0,1-1.923.813,2.346,2.346,0,0,1-1.952-.971A4.244,4.244,0,0,1-14.755-3.491Zm1.181.133A3.08,3.08,0,0,0-13.1-1.533a1.547,1.547,0,0,0,1.333.663,1.72,1.72,0,0,0,1.631-1.009V-5.015A1.74,1.74,0,0,0-11.753-6a1.561,1.561,0,0,0-1.339.667A3.354,3.354,0,0,0-13.574-3.358ZM-5.906,0H-7.081V-9.75h1.174Zm4.729.127A3,3,0,0,1-3.45-.79a3.4,3.4,0,0,1-.876-2.453v-.216a4.121,4.121,0,0,1,.39-1.825A3.045,3.045,0,0,1-2.844-6.541,2.745,2.745,0,0,1-1.323-7a2.572,2.572,0,0,1,2.082.882A3.82,3.82,0,0,1,1.5-3.586V-3.1H-3.152a2.441,2.441,0,0,0,.594,1.641,1.866,1.866,0,0,0,1.444.625A2.045,2.045,0,0,0-.06-1.085,2.648,2.648,0,0,0,.7-1.758l.717.559A2.884,2.884,0,0,1-1.177.127ZM-1.323-6.03a1.566,1.566,0,0,0-1.193.517,2.515,2.515,0,0,0-.6,1.45H.327v-.089A2.237,2.237,0,0,0-.156-5.538,1.475,1.475,0,0,0-1.323-6.03ZM6.859-1.822a.865.865,0,0,0-.359-.74,3.452,3.452,0,0,0-1.25-.454,5.912,5.912,0,0,1-1.416-.457,2.014,2.014,0,0,1-.774-.635,1.518,1.518,0,0,1-.251-.876,1.782,1.782,0,0,1,.714-1.428A2.789,2.789,0,0,1,5.348-7a2.87,2.87,0,0,1,1.895.6A1.915,1.915,0,0,1,7.969-4.85H6.789a1.06,1.06,0,0,0-.409-.832A1.534,1.534,0,0,0,5.348-6.03a1.605,1.605,0,0,0-1,.279.879.879,0,0,0-.362.73.712.712,0,0,0,.336.641,4.139,4.139,0,0,0,1.216.413A6.334,6.334,0,0,1,6.96-3.5a2.079,2.079,0,0,1,.809.657,1.615,1.615,0,0,1,.263.936A1.758,1.758,0,0,1,7.3-.428,3.089,3.089,0,0,1,5.386.127a3.459,3.459,0,0,1-1.46-.292,2.375,2.375,0,0,1-.993-.816,1.966,1.966,0,0,1-.359-1.133H3.748a1.216,1.216,0,0,0,.473.936,1.835,1.835,0,0,0,1.165.346,1.894,1.894,0,0,0,1.07-.27A.829.829,0,0,0,6.859-1.822ZM10.839,0H9.664V-6.868h1.174ZM9.569-8.69a.7.7,0,0,1,.175-.482.655.655,0,0,1,.517-.2.666.666,0,0,1,.521.2.694.694,0,0,1,.178.482.671.671,0,0,1-.178.476.678.678,0,0,1-.521.19.667.667,0,0,1-.517-.19A.678.678,0,0,1,9.569-8.69ZM16.958,0a2.467,2.467,0,0,1-.165-.724,2.62,2.62,0,0,1-1.955.851,2.424,2.424,0,0,1-1.666-.574A1.859,1.859,0,0,1,12.521-1.9a1.942,1.942,0,0,1,.816-1.666,3.846,3.846,0,0,1,2.295-.594h1.143V-4.7a1.319,1.319,0,0,0-.368-.981,1.48,1.48,0,0,0-1.085-.365,1.712,1.712,0,0,0-1.054.317.935.935,0,0,0-.425.768H12.66a1.621,1.621,0,0,1,.365-.993,2.491,2.491,0,0,1,.99-.759A3.331,3.331,0,0,1,15.39-7a2.715,2.715,0,0,1,1.86.594,2.141,2.141,0,0,1,.7,1.635v3.161a3.865,3.865,0,0,0,.241,1.5V0ZM15.009-.9a2.064,2.064,0,0,0,1.047-.286,1.728,1.728,0,0,0,.717-.743V-3.333h-.92q-2.158,0-2.158,1.263a1.069,1.069,0,0,0,.368.863A1.415,1.415,0,0,0,15.009-.9Z" transform="translate(981.196 10134.443)"/>
    <path id="Trazado_655061" data-name="Trazado 655061" d="M-16.425-4.082H-20.3V0h-1.219V-9.242H-15.8v1H-20.3v3.167h3.878ZM-10.5,0a2.467,2.467,0,0,1-.165-.724,2.62,2.62,0,0,1-1.955.851,2.424,2.424,0,0,1-1.666-.574A1.859,1.859,0,0,1-14.933-1.9a1.942,1.942,0,0,1,.816-1.666,3.846,3.846,0,0,1,2.295-.594h1.143V-4.7a1.319,1.319,0,0,0-.368-.981,1.48,1.48,0,0,0-1.085-.365,1.712,1.712,0,0,0-1.054.317.935.935,0,0,0-.425.768h-1.181a1.621,1.621,0,0,1,.365-.993,2.491,2.491,0,0,1,.99-.759A3.331,3.331,0,0,1-12.064-7,2.715,2.715,0,0,1-10.2-6.4a2.141,2.141,0,0,1,.7,1.635v3.161A3.865,3.865,0,0,0-9.264-.1V0Zm-1.949-.9A2.064,2.064,0,0,0-11.4-1.181a1.728,1.728,0,0,0,.717-.743V-3.333h-.92q-2.158,0-2.158,1.263a1.069,1.069,0,0,0,.368.863A1.415,1.415,0,0,0-12.445-.9ZM-6.56-6.868l.032.762A2.536,2.536,0,0,1-4.491-7a1.964,1.964,0,0,1,1.961,1.1,2.6,2.6,0,0,1,.892-.8A2.634,2.634,0,0,1-.34-7Q1.92-7,1.958-4.6V0H.784V-4.532a1.577,1.577,0,0,0-.336-1.1A1.482,1.482,0,0,0-.682-6a1.557,1.557,0,0,0-1.085.39,1.584,1.584,0,0,0-.5,1.051V0H-3.45V-4.5A1.31,1.31,0,0,0-4.916-6,1.571,1.571,0,0,0-6.5-5.015V0H-7.671V-6.868ZM5.005,0H3.831V-6.868H5.005ZM3.736-8.69a.7.7,0,0,1,.175-.482.655.655,0,0,1,.517-.2.666.666,0,0,1,.521.2.694.694,0,0,1,.178.482.671.671,0,0,1-.178.476.678.678,0,0,1-.521.19.667.667,0,0,1-.517-.19A.678.678,0,0,1,3.736-8.69ZM8.16,0H6.986V-9.75H8.16Zm3.155,0H10.14V-6.868h1.174Zm-1.27-8.69a.7.7,0,0,1,.175-.482.655.655,0,0,1,.517-.2.666.666,0,0,1,.521.2.694.694,0,0,1,.178.482.671.671,0,0,1-.178.476.678.678,0,0,1-.521.19.667.667,0,0,1-.517-.19A.678.678,0,0,1,10.045-8.69ZM17.434,0a2.467,2.467,0,0,1-.165-.724,2.62,2.62,0,0,1-1.955.851,2.424,2.424,0,0,1-1.666-.574A1.859,1.859,0,0,1,13-1.9a1.942,1.942,0,0,1,.816-1.666,3.846,3.846,0,0,1,2.295-.594H17.25V-4.7a1.319,1.319,0,0,0-.368-.981A1.48,1.48,0,0,0,15.8-6.049a1.712,1.712,0,0,0-1.054.317.935.935,0,0,0-.425.768H13.136a1.621,1.621,0,0,1,.365-.993,2.491,2.491,0,0,1,.99-.759A3.331,3.331,0,0,1,15.866-7a2.715,2.715,0,0,1,1.86.594,2.141,2.141,0,0,1,.7,1.635v3.161a3.865,3.865,0,0,0,.241,1.5V0ZM15.485-.9a2.064,2.064,0,0,0,1.047-.286,1.728,1.728,0,0,0,.717-.743V-3.333h-.92q-2.158,0-2.158,1.263a1.069,1.069,0,0,0,.368.863A1.415,1.415,0,0,0,15.485-.9ZM-24.524,16.127A3,3,0,0,1-26.8,15.21a3.4,3.4,0,0,1-.876-2.453v-.216a4.121,4.121,0,0,1,.39-1.825A3.045,3.045,0,0,1-26.19,9.459,2.745,2.745,0,0,1-24.67,9a2.572,2.572,0,0,1,2.082.882,3.82,3.82,0,0,1,.743,2.526V12.9H-26.5a2.441,2.441,0,0,0,.594,1.641,1.866,1.866,0,0,0,1.444.625,2.045,2.045,0,0,0,1.054-.254,2.648,2.648,0,0,0,.755-.673l.717.559A2.884,2.884,0,0,1-24.524,16.127ZM-24.67,9.97a1.566,1.566,0,0,0-1.193.517,2.515,2.515,0,0,0-.6,1.45h3.44v-.089a2.237,2.237,0,0,0-.482-1.387A1.475,1.475,0,0,0-24.67,9.97Zm6.487,1.669,1.523-2.507h1.371l-2.247,3.4L-15.219,16h-1.358l-1.587-2.571L-19.751,16h-1.365l2.317-3.472-2.247-3.4h1.358Zm5.732-4.17V9.132h1.282v.908h-1.282V14.3a.953.953,0,0,0,.171.62.721.721,0,0,0,.584.207,2.843,2.843,0,0,0,.559-.076V16a3.424,3.424,0,0,1-.9.126,1.462,1.462,0,0,1-1.187-.476,2.045,2.045,0,0,1-.4-1.352V10.04h-1.25V9.132h1.25V7.469Zm5.5,8.658A3,3,0,0,1-9.22,15.21a3.4,3.4,0,0,1-.876-2.453v-.216a4.121,4.121,0,0,1,.39-1.825A3.045,3.045,0,0,1-8.614,9.459,2.745,2.745,0,0,1-7.094,9a2.572,2.572,0,0,1,2.082.882,3.82,3.82,0,0,1,.743,2.526V12.9H-8.922a2.441,2.441,0,0,0,.594,1.641,1.866,1.866,0,0,0,1.444.625,2.045,2.045,0,0,0,1.054-.254,2.648,2.648,0,0,0,.755-.673l.717.559A2.884,2.884,0,0,1-6.948,16.127ZM-7.094,9.97a1.566,1.566,0,0,0-1.193.517,2.515,2.515,0,0,0-.6,1.45h3.44v-.089a2.237,2.237,0,0,0-.482-1.387A1.475,1.475,0,0,0-7.094,9.97ZM-1.8,9.132l.038.863A2.5,2.5,0,0,1,.3,9q2.177,0,2.2,2.457V16H1.317V11.455a1.581,1.581,0,0,0-.34-1.1A1.361,1.361,0,0,0-.06,10a1.7,1.7,0,0,0-1,.3,2.069,2.069,0,0,0-.673.8V16H-2.91V9.132Zm5.776,3.377a4.023,4.023,0,0,1,.749-2.542A2.369,2.369,0,0,1,6.687,9,2.382,2.382,0,0,1,8.6,9.83V6.25H9.772V16H8.693l-.057-.736a2.391,2.391,0,0,1-1.961.863,2.346,2.346,0,0,1-1.946-.978A4.069,4.069,0,0,1,3.977,12.6Zm1.174.133a3.046,3.046,0,0,0,.482,1.828,1.56,1.56,0,0,0,1.333.66,1.713,1.713,0,0,0,1.631-1V10.973A1.726,1.726,0,0,0,6.979,10a1.567,1.567,0,0,0-1.346.667A3.354,3.354,0,0,0,5.151,12.642ZM12.87,16H11.7V9.132H12.87ZM11.6,7.31a.7.7,0,0,1,.175-.482.655.655,0,0,1,.517-.2.666.666,0,0,1,.521.2.694.694,0,0,1,.178.482.671.671,0,0,1-.178.476.678.678,0,0,1-.521.19.667.667,0,0,1-.517-.19A.678.678,0,0,1,11.6,7.31Zm2.863,5.2a4.023,4.023,0,0,1,.749-2.542,2.548,2.548,0,0,1,3.872-.136V6.25h1.174V16H19.179l-.057-.736a2.391,2.391,0,0,1-1.961.863,2.346,2.346,0,0,1-1.946-.978,4.069,4.069,0,0,1-.752-2.552Zm1.174.133a3.046,3.046,0,0,0,.482,1.828,1.56,1.56,0,0,0,1.333.66,1.713,1.713,0,0,0,1.631-1V10.973A1.726,1.726,0,0,0,17.466,10a1.567,1.567,0,0,0-1.346.667A3.354,3.354,0,0,0,15.637,12.642ZM26.321,16a2.467,2.467,0,0,1-.165-.724,2.62,2.62,0,0,1-1.955.851,2.424,2.424,0,0,1-1.666-.574,1.859,1.859,0,0,1-.651-1.457,1.942,1.942,0,0,1,.816-1.666,3.846,3.846,0,0,1,2.295-.594h1.143V11.3a1.319,1.319,0,0,0-.368-.981,1.48,1.48,0,0,0-1.085-.365,1.712,1.712,0,0,0-1.054.317.935.935,0,0,0-.425.768H22.023a1.621,1.621,0,0,1,.365-.993,2.491,2.491,0,0,1,.99-.759A3.331,3.331,0,0,1,24.753,9a2.715,2.715,0,0,1,1.86.594,2.141,2.141,0,0,1,.7,1.635v3.161a3.865,3.865,0,0,0,.241,1.5V16Zm-1.949-.9a2.064,2.064,0,0,0,1.047-.286,1.728,1.728,0,0,0,.717-.743V12.667h-.92q-2.158,0-2.158,1.263a1.069,1.069,0,0,0,.368.863A1.415,1.415,0,0,0,24.372,15.1Z" transform="translate(614.528 10134.443)"/>
    <path id="Trazado_655062" data-name="Trazado 655062" d="M-18.4-1.212A2.815,2.815,0,0,1-19.709-.206a5.3,5.3,0,0,1-1.958.333A3.8,3.8,0,0,1-23.674-.4a3.531,3.531,0,0,1-1.355-1.508,5.207,5.207,0,0,1-.492-2.266v-.806a4.861,4.861,0,0,1,.974-3.237,3.4,3.4,0,0,1,2.739-1.149,3.507,3.507,0,0,1,2.33.74,3.222,3.222,0,0,1,1.079,2.1h-1.219A2.015,2.015,0,0,0-21.8-8.373a2.157,2.157,0,0,0-1.857.861A4.2,4.2,0,0,0-24.3-5.018v.756a3.939,3.939,0,0,0,.711,2.474,2.3,2.3,0,0,0,1.923.918,4.248,4.248,0,0,0,1.2-.152,1.855,1.855,0,0,0,.851-.513V-3.605H-21.75v-1H-18.4ZM-16.863-3.5a4.057,4.057,0,0,1,.4-1.815,2.96,2.96,0,0,1,1.1-1.244A3.007,3.007,0,0,1-13.746-7a2.9,2.9,0,0,1,2.269.971A3.736,3.736,0,0,1-10.61-3.44v.083a4.092,4.092,0,0,1-.384,1.8,2.916,2.916,0,0,1-1.1,1.241,3.041,3.041,0,0,1-1.641.444A2.889,2.889,0,0,1-16-.844a3.718,3.718,0,0,1-.866-2.571Zm1.181.14a2.938,2.938,0,0,0,.53,1.834,1.7,1.7,0,0,0,1.419.692,1.686,1.686,0,0,0,1.422-.7A3.213,3.213,0,0,0-11.784-3.5a2.933,2.933,0,0,0-.536-1.831,1.705,1.705,0,0,0-1.425-.7,1.686,1.686,0,0,0-1.4.692A3.189,3.189,0,0,0-15.682-3.358Zm12.359,0a4.084,4.084,0,0,1-.724,2.53A2.312,2.312,0,0,1-5.989.127,2.394,2.394,0,0,1-8-.793L-8.058,0H-9.137V-9.75h1.174v3.637A2.381,2.381,0,0,1-6-7a2.326,2.326,0,0,1,1.965.946,4.206,4.206,0,0,1,.714,2.59ZM-4.5-3.491a3.173,3.173,0,0,0-.463-1.854A1.534,1.534,0,0,0-6.294-6,1.724,1.724,0,0,0-7.963-4.919v2.971A1.772,1.772,0,0,0-6.281-.87a1.526,1.526,0,0,0,1.314-.654A3.375,3.375,0,0,0-4.5-3.491ZM-.568,0H-1.742V-6.868H-.568Zm-1.27-8.69a.7.7,0,0,1,.175-.482.655.655,0,0,1,.517-.2.666.666,0,0,1,.521.2.694.694,0,0,1,.178.482.671.671,0,0,1-.178.476.678.678,0,0,1-.521.19.667.667,0,0,1-.517-.19A.678.678,0,0,1-1.838-8.69Zm6,8.817A3,3,0,0,1,1.888-.79a3.4,3.4,0,0,1-.876-2.453v-.216A4.121,4.121,0,0,1,1.4-5.284,3.045,3.045,0,0,1,2.495-6.541,2.745,2.745,0,0,1,4.015-7,2.572,2.572,0,0,1,6.1-6.113,3.82,3.82,0,0,1,6.84-3.586V-3.1H2.187A2.441,2.441,0,0,0,2.78-1.457a1.866,1.866,0,0,0,1.444.625,2.045,2.045,0,0,0,1.054-.254,2.648,2.648,0,0,0,.755-.673l.717.559A2.884,2.884,0,0,1,4.161.127ZM4.015-6.03a1.566,1.566,0,0,0-1.193.517,2.515,2.515,0,0,0-.6,1.45h3.44v-.089a2.237,2.237,0,0,0-.482-1.387A1.475,1.475,0,0,0,4.015-6.03Zm7.5.216a3.519,3.519,0,0,0-.578-.044,1.547,1.547,0,0,0-1.568.984V0H8.2V-6.868H9.341l.019.793A1.829,1.829,0,0,1,11-7a1.2,1.2,0,0,1,.521.089Zm2.19-1.054L13.746-6A2.5,2.5,0,0,1,15.8-7Q17.98-7,18-4.539V0H16.824V-4.545a1.581,1.581,0,0,0-.34-1.1A1.361,1.361,0,0,0,15.447-6a1.7,1.7,0,0,0-1,.3,2.069,2.069,0,0,0-.673.8V0H12.6V-6.868ZM19.459-3.5a4.057,4.057,0,0,1,.4-1.815,2.96,2.96,0,0,1,1.1-1.244A3.007,3.007,0,0,1,22.575-7a2.9,2.9,0,0,1,2.269.971,3.736,3.736,0,0,1,.866,2.583v.083a4.092,4.092,0,0,1-.384,1.8,2.916,2.916,0,0,1-1.1,1.241,3.041,3.041,0,0,1-1.641.444,2.889,2.889,0,0,1-2.263-.971,3.718,3.718,0,0,1-.866-2.571Zm1.181.14a2.938,2.938,0,0,0,.53,1.834,1.7,1.7,0,0,0,1.419.692,1.686,1.686,0,0,0,1.422-.7A3.213,3.213,0,0,0,24.537-3.5,2.933,2.933,0,0,0,24-5.329a1.705,1.705,0,0,0-1.425-.7,1.686,1.686,0,0,0-1.4.692A3.189,3.189,0,0,0,20.639-3.358ZM-11.635,16H-12.81V6.25h1.174Zm1.568-3.5a4.057,4.057,0,0,1,.4-1.815,2.96,2.96,0,0,1,1.1-1.244A3.007,3.007,0,0,1-6.951,9a2.9,2.9,0,0,1,2.269.971,3.736,3.736,0,0,1,.866,2.583v.083a4.092,4.092,0,0,1-.384,1.8,2.916,2.916,0,0,1-1.1,1.241,3.041,3.041,0,0,1-1.641.444A2.889,2.889,0,0,1-9.2,15.156a3.718,3.718,0,0,1-.866-2.571Zm1.181.14a2.938,2.938,0,0,0,.53,1.834,1.7,1.7,0,0,0,1.419.692,1.686,1.686,0,0,0,1.422-.7A3.213,3.213,0,0,0-4.989,12.5a2.933,2.933,0,0,0-.536-1.831,1.705,1.705,0,0,0-1.425-.7,1.686,1.686,0,0,0-1.4.692A3.189,3.189,0,0,0-8.887,12.642Zm9.3,2.526a1.692,1.692,0,0,0,1.1-.381,1.34,1.34,0,0,0,.521-.952H3.142a2.13,2.13,0,0,1-.406,1.124,2.676,2.676,0,0,1-1,.851,2.885,2.885,0,0,1-1.323.317,2.829,2.829,0,0,1-2.231-.936,3.729,3.729,0,0,1-.828-2.561v-.2a4.135,4.135,0,0,1,.368-1.784A2.8,2.8,0,0,1-1.222,9.437,3,3,0,0,1,.406,9a2.755,2.755,0,0,1,1.92.692,2.473,2.473,0,0,1,.816,1.8H2.031a1.618,1.618,0,0,0-.5-1.095A1.57,1.57,0,0,0,.406,9.97a1.644,1.644,0,0,0-1.387.644,3.026,3.026,0,0,0-.492,1.863V12.7a2.965,2.965,0,0,0,.489,1.828A1.651,1.651,0,0,0,.413,15.168ZM8.7,16a2.467,2.467,0,0,1-.165-.724,2.62,2.62,0,0,1-1.955.851,2.424,2.424,0,0,1-1.666-.574A1.859,1.859,0,0,1,4.266,14.1a1.942,1.942,0,0,1,.816-1.666,3.846,3.846,0,0,1,2.295-.594H8.519V11.3a1.319,1.319,0,0,0-.368-.981,1.48,1.48,0,0,0-1.085-.365,1.712,1.712,0,0,0-1.054.317.935.935,0,0,0-.425.768H4.405a1.621,1.621,0,0,1,.365-.993,2.491,2.491,0,0,1,.99-.759A3.331,3.331,0,0,1,7.135,9a2.715,2.715,0,0,1,1.86.594,2.141,2.141,0,0,1,.7,1.635v3.161a3.865,3.865,0,0,0,.241,1.5V16Zm-1.949-.9A2.064,2.064,0,0,0,7.8,14.819a1.728,1.728,0,0,0,.717-.743V12.667H7.6q-2.158,0-2.158,1.263a1.069,1.069,0,0,0,.368.863A1.415,1.415,0,0,0,6.754,15.1Zm6.056.9H11.635V6.25H12.81Z" transform="translate(607.35 9831.386)"/>
    <g id="Grupo_963141" data-name="Grupo 963141" transform="translate(883.636 10007.328)">
      <g id="Grupo_963140" data-name="Grupo 963140">
        <path id="Trazado_630453" data-name="Trazado 630453" d="M808.3,1571.16H753.978a.285.285,0,0,0-.268.267v34.484a.286.286,0,0,0,.268.268h13.4l.178,4.734c0,.179.09.358.269.358l-.626,15.9a2.582,2.582,0,0,0,2.591,2.769h.089a2.731,2.731,0,0,0,2.68-2.591l.626-12.864.447,12.953a2.73,2.73,0,0,0,2.679,2.591h.09a2.814,2.814,0,0,0,2.591-2.769l-.625-15.9c.179-.089.268-.179.268-.358l.089-2.769c-.536-.179-.447-.089-.536-.179a35.94,35.94,0,0,0-5.271-.893h-.893c.089-2.234.268-11.346.268-11.435l.536-.089v-.536a14.329,14.329,0,0,1,4.468.269c.089.089.357,0,1.876.447-.269-.447-6.075-3.663-12.061-.179l-.089.089a1.958,1.958,0,0,0-.894.8l-1.608,2.949-3.752-3.663a1.733,1.733,0,0,0-1.162-.536l-1.251-12.508c0-.268-.268-.447-.447-.357-.268,0-.447.267-.357.446l1.251,12.686a1.571,1.571,0,0,0-.448.358,1.728,1.728,0,0,0,0,2.5l5.45,5.36a1.76,1.76,0,0,0,1.25.536h.268a2.018,2.018,0,0,0,1.34-.893l.626-1.072.09,2.234H755.5v-31.626h51.369v31.536h-4.11l-.179.8-.268.179c-.179.179-.626.447-1.072.8H808.3a.237.237,0,0,0,.268-.268v-34.574a.237.237,0,0,0-.268-.267Z" transform="translate(-753.71 -1571.16)"/>
        <path id="Trazado_630454" data-name="Trazado 630454" d="M768.755,1588.882a5.36,5.36,0,1,0,5.361-5.361A5.376,5.376,0,0,0,768.755,1588.882Z" transform="translate(-754.729 -1571.997)"/>
        <path id="Trazado_630455" data-name="Trazado 630455" d="M793.568,1593.858a5.36,5.36,0,1,0-5.36-5.36A5.376,5.376,0,0,0,793.568,1593.858Z" transform="translate(-756.046 -1571.971)"/>
        <path id="Trazado_630456" data-name="Trazado 630456" d="M782.718,1596.456l-.536,2.77a15.953,15.953,0,0,0-6.969-1.43c0,.447-.536.536-.536.536,0,.983.09-3.663-.268,9.738a38.58,38.58,0,0,1,4.913.715v.089c.09,0,.8.178.894.178a2.764,2.764,0,0,1,.625.179l.626-1.25h.179v-.179a5.52,5.52,0,0,1,.268-1.608,10.172,10.172,0,0,1,.447-1.162c.179-2.769.447-9.023.447-8.576Z" transform="translate(-755.112 -1572.871)"/>
        <path id="Trazado_630457" data-name="Trazado 630457" d="M798.161,1612.892c.09-1.072.358-3.127.358-3.037a11.536,11.536,0,0,0-2.591-.268h-.536a1.3,1.3,0,0,1-.8.536,41.67,41.67,0,0,1-4.646,1.787,29.294,29.294,0,0,0,.447,3.841c-.357,2.591-1.429,9.381-3.931,13.847a2.682,2.682,0,0,0,4.646,2.68,34.6,34.6,0,0,0,3.394-9.2l1.341,7.683a2.681,2.681,0,1,0,5.27-.983c-.535-3.127-2.858-16.438-2.948-16.885Z" transform="translate(-755.904 -1573.762)"/>
        <path id="Trazado_630458" data-name="Trazado 630458" d="M804.649,1606.234l1.786-8.04a.67.67,0,0,1-.536-.269l-1.965.983.626-1.25c.447-.715.089-.625.089-.625l-1.608,2.948c-1.608-1.162-4.467-1.162-6.164-1.25a.555.555,0,0,1-.536.447l-.179,6.075a2.644,2.644,0,0,1,.358,2.591c.626,0,1.161.089,1.7.089v.089a11.245,11.245,0,0,1,3.663.983,10.133,10.133,0,0,1,2.591-2.5Z" transform="translate(-756.584 -1572.912)"/>
        <path id="Trazado_630459" data-name="Trazado 630459" d="M790.108,1610.024c.178,0,.268-.09.447-.179a26.3,26.3,0,0,0,3.484-1.429c.179-.089.268-.179.447-.269.09-.089.179-.089.179-.178a1.765,1.765,0,0,0-2.055-2.77,22.952,22.952,0,0,1-2.413.983,20.673,20.673,0,0,1-3.215.983,18.976,18.976,0,0,1,2.143-3.3l.179,1.7c.8-.268,2.234-.893,3.037-1.25a2.643,2.643,0,0,1,2.323.089l.089-6.164.536-.089.089-.448a23.227,23.227,0,0,1,2.591,0c-3.216-2.233-6.521-1.876-9.291,1.072v.089l-.268.268c-1.787,1.965-3.931,4.556-4.825,7.057a3.256,3.256,0,0,0-.268,1.787c0,1.519,1.072,2.769,3.216,2.769a14.078,14.078,0,0,0,3.574-.714Z" transform="translate(-755.713 -1572.859)"/>
      </g>
    </g>
    <g id="Grupo_963146" data-name="Grupo 963146" transform="translate(651.201 10001.592)">
      <g id="Grupo_963145" data-name="Grupo 963145">
        <g id="Grupo_963144" data-name="Grupo 963144">
          <g id="Grupo_963143" data-name="Grupo 963143">
            <g id="Grupo_963142" data-name="Grupo 963142">
              <path id="Trazado_630460" data-name="Trazado 630460" d="M547.449,1598.049a.658.658,0,0,0-.816,0L532.2,1609.4a1.047,1.047,0,0,1-.643.223,1.043,1.043,0,0,1-.646-1.862l16.128-12.687,16.127,12.688a1.042,1.042,0,1,1-1.289,1.638Z" transform="translate(-506.162 -1567.043)"/>
              <path id="Trazado_630461" data-name="Trazado 630461" d="M544.809,1617.447h6.4V1628.4h-6.4Z" transform="translate(-507.13 -1568.558)"/>
              <path id="Trazado_630462" data-name="Trazado 630462" d="M548.113,1605.727a1.772,1.772,0,1,1-1.772,1.772,1.773,1.773,0,0,1,1.772-1.772Z" transform="translate(-507.233 -1567.764)"/>
              <path id="Trazado_630463" data-name="Trazado 630463" d="M535.109,1609.354l12.244-9.632,12.244,9.632V1627.2h-7.724v-11.611a.66.66,0,0,0-.66-.659h-7.719a.66.66,0,0,0-.659.659V1627.2h-7.725Zm15.335-2.261a3.091,3.091,0,1,0-3.091,3.091A3.1,3.1,0,0,0,550.444,1607.093Z" transform="translate(-506.473 -1567.358)"/>
              <path id="Trazado_630464" data-name="Trazado 630464" d="M537.045,1592.983a1.042,1.042,0,0,1-.645,1.862,1.046,1.046,0,0,1-.644-.224l-14.43-11.352a.661.661,0,0,0-.816,0l-14.43,11.352a1.041,1.041,0,0,1-1.464-.174,1.041,1.041,0,0,1,.174-1.464l16.127-12.687Z" transform="translate(-504.393 -1566.042)"/>
              <path id="Trazado_630465" data-name="Trazado 630465" d="M521.99,1590.946a1.772,1.772,0,1,1-1.772,1.772A1.774,1.774,0,0,1,521.99,1590.946Z" transform="translate(-505.465 -1566.763)"/>
              <path id="Trazado_630466" data-name="Trazado 630466" d="M518.687,1599.917h6.4v13.513h-6.4Z" transform="translate(-505.361 -1567.371)"/>
              <path id="Trazado_630467" data-name="Trazado 630467" d="M533.472,1594.573v7.665l-4.832,3.8a2.362,2.362,0,0,0,2.921,3.712l.459-.361v3.025h-6.272v-14.174a.66.66,0,0,0-.659-.659H517.37a.659.659,0,0,0-.659.659v14.174h-7.726v-17.843l12.245-9.632Zm-9.151-2.261a3.091,3.091,0,1,0-3.091,3.091A3.1,3.1,0,0,0,524.321,1592.312Z" transform="translate(-504.704 -1566.357)"/>
              <path id="Trazado_630468" data-name="Trazado 630468" d="M547.449,1567.98a.661.661,0,0,0-.816,0l-12.89,10.141-1.539,1.211a1.05,1.05,0,0,1-.644.224,1.042,1.042,0,0,1-.645-1.862l16.127-12.687,16.127,12.687a1.043,1.043,0,0,1-.645,1.862,1.044,1.044,0,0,1-.644-.224Z" transform="translate(-506.162 -1565.007)"/>
              <path id="Trazado_630469" data-name="Trazado 630469" d="M548.113,1575.658a1.772,1.772,0,1,1-1.772,1.772A1.774,1.774,0,0,1,548.113,1575.658Z" transform="translate(-507.233 -1565.728)"/>
              <path id="Trazado_630470" data-name="Trazado 630470" d="M551.209,1584.628v10.579l-2.792-2.2a.656.656,0,0,0-.815,0l-2.792,2.2v-10.579Z" transform="translate(-507.13 -1566.336)"/>
              <path id="Trazado_630471" data-name="Trazado 630471" d="M559.6,1579.284v17.844h-5.311l-2.413-1.9v-12.275a.659.659,0,0,0-.66-.659h-7.719a.659.659,0,0,0-.659.659v12.275l-6.273,4.935v-5.59l.459.362a2.371,2.371,0,0,0,1.46.505,2.362,2.362,0,0,0,1.461-4.218l-4.833-3.8v-8.138l12.245-9.632Zm-9.152-2.261a3.091,3.091,0,1,0-3.091,3.092A3.1,3.1,0,0,0,550.444,1577.024Z" transform="translate(-506.473 -1565.322)"/>
            </g>
          </g>
        </g>
      </g>
    </g>
    <g id="Grupo_963157" data-name="Grupo 963157" transform="translate(656.45 9881.419)">
      <g id="Grupo_963148" data-name="Grupo 963148" transform="translate(35.447 9.205)">
        <g id="Grupo_963147" data-name="Grupo 963147">
          <path id="Trazado_630472" data-name="Trazado 630472" d="M566.856,1450.227a4.279,4.279,0,0,0-4.27-4.248h-9.033a4.932,4.932,0,0,0-4.34,2.584l-.628,1.158a2.722,2.722,0,0,0,1.281,5.211l2.519-4.649a.292.292,0,0,1,.549.139v30.037a2.165,2.165,0,0,0,4.329,0v-17.306h.935v17.306a2.165,2.165,0,0,0,4.33,0c0-27.96-.038-13.148-.039-30.2a.378.378,0,0,1,.755-.01l.066,13.256a1.8,1.8,0,0,0,1.8,1.795h.009a1.8,1.8,0,0,0,1.8-1.813Z" transform="translate(-548.045 -1445.979)"/>
        </g>
      </g>
      <g id="Grupo_963150" data-name="Grupo 963150" transform="translate(0 8.751)">
        <g id="Grupo_963149" data-name="Grupo 963149">
          <path id="Trazado_630473" data-name="Trazado 630473" d="M548.147,1459.126a3.089,3.089,0,0,0-3.082-3.066h-6.99a3.089,3.089,0,0,0-3.082,3.066c0,.526,0,.078-.014,2.557l-1.436-.3s-3.214-8.843-4.363-12.189c-.846-2.458-2.262-3.706-4.211-3.706h-6.31c-1.949,0-3.366,1.247-4.211,3.706-1.309,3.81-4.283,11.946-4.313,12.027a1.821,1.821,0,1,0,3.421,1.251c.025-.069,2.161-5.912,3.619-10.041-.1.8.212-.884-2.586,13.562a1.012,1.012,0,0,0,.993,1.2h1.389v13.211a2.186,2.186,0,0,0,4.372,0V1467.2h.944v13.211a2.185,2.185,0,1,0,4.37,0V1467.2h1.39a1.012,1.012,0,0,0,.993-1.2c-2.8-14.448-2.489-12.761-2.587-13.562,1.459,4.129,3.594,9.972,3.619,10.041a1.82,1.82,0,0,0,1.644,1.193l4.294.883a1.3,1.3,0,0,0,1.563-1.268s.022-3.657.024-4.092a.252.252,0,0,1,.5,0v21.833a1.563,1.563,0,0,0,3.126,0v-12.491h.674v12.491a1.563,1.563,0,0,0,3.126,0c0-8.982-.022-19.543-.028-21.888a.272.272,0,0,1,.544,0l.048,9.566a1.3,1.3,0,0,0,1.3,1.3h.007a1.3,1.3,0,0,0,1.3-1.3v0C548.184,1466.7,548.156,1460.913,548.147,1459.126Z" transform="translate(-510.024 -1445.493)"/>
        </g>
      </g>
      <g id="Grupo_963152" data-name="Grupo 963152" transform="translate(41.42 0.095)">
        <g id="Grupo_963151" data-name="Grupo 963151">
          <circle id="Elipse_7718" data-name="Elipse 7718" cx="3.739" cy="3.739" r="3.739"/>
        </g>
      </g>
      <g id="Grupo_963154" data-name="Grupo 963154" transform="translate(28.162 11.412)">
        <g id="Grupo_963153" data-name="Grupo 963153">
          <circle id="Elipse_7719" data-name="Elipse 7719" cx="3.395" cy="3.395" r="3.395"/>
        </g>
      </g>
      <g id="Grupo_963156" data-name="Grupo 963156" transform="translate(8.016)">
        <g id="Grupo_963155" data-name="Grupo 963155">
          <path id="Trazado_630474" data-name="Trazado 630474" d="M522.4,1436.106a3.774,3.774,0,1,0,3.775,3.775A3.774,3.774,0,0,0,522.4,1436.106Z" transform="translate(-518.622 -1436.106)"/>
        </g>
      </g>
    </g>
    <g id="Grupo_963159" data-name="Grupo 963159" transform="translate(888.506 9879.89)">
      <g id="Grupo_963158" data-name="Grupo 963158">
        <path id="Trazado_630475" data-name="Trazado 630475" d="M764.78,1468.49a2.437,2.437,0,0,1-.858-.7,18.578,18.578,0,0,1-3.118-6.392,2.3,2.3,0,0,1,.468-2.026,15.969,15.969,0,0,0,3.273,8.028,1.568,1.568,0,0,0,2.572-1.793c-2.26-3.2-3.82-7.015-1.636-10.21.077,1.013.077,2.338.077,3.741l-.077.624.077-.156a10.431,10.431,0,0,0,1.871-6.158,15.178,15.178,0,0,0-.468-3.43c-3.352,1.87-5.69,4.989-5.612,8.886a7.352,7.352,0,0,0-1.48,4.209l-.936,3.2c.312,3.663,5.378,2.494,5.846,2.182Z" transform="translate(-758.934 -1435.519)"/>
        <path id="Trazado_630476" data-name="Trazado 630476" d="M795.754,1463.728h-.7l.234.7a2.729,2.729,0,0,1,.467-.7Z" transform="translate(-761.38 -1436.447)"/>
        <circle id="Elipse_7720" data-name="Elipse 7720" cx="4.677" cy="4.677" r="4.677" transform="translate(6.08 2.027)"/>
        <circle id="Elipse_7721" data-name="Elipse 7721" cx="5.144" cy="5.144" r="5.144" transform="translate(23.462)"/>
        <path id="Trazado_630477" data-name="Trazado 630477" d="M773.554,1467.553a1.55,1.55,0,0,0,2.182-.39c2.26-3.2,3.429-6.236,3.273-8.964-.077-3.352-1.948-6.547-6.547-8.886a4.388,4.388,0,0,0-3.82-.078,1.824,1.824,0,0,0-.623.156,14.412,14.412,0,0,1,.545,3.273,11.05,11.05,0,0,1-2.572,7.951v.311a16.086,16.086,0,0,0,2.182,4.054,2.347,2.347,0,0,1-.546,3.274,2.013,2.013,0,0,1-1.636.39,2.875,2.875,0,0,0,.39.857c-2.417,17.3-2.183,15.356-2.183,15.511a2.359,2.359,0,1,0,4.676.624l1.793-12.627,1.559,12.315a2.353,2.353,0,0,0,2.339,2.026,2.378,2.378,0,0,0,2.338-2.65c0-.156.234,1.793-2.182-15.59a1.113,1.113,0,0,0,.156-.467,2.46,2.46,0,0,1-1.793-.39,2.347,2.347,0,0,1-.545-3.274,17.44,17.44,0,0,0,2.728-5.378v-.077c0-1.4-.078-2.651-.078-3.742a5.618,5.618,0,0,1,.7,2.651c.078,2.417-1.247,4.989-2.728,6.937a1.608,1.608,0,0,0-.157,1.559,1.445,1.445,0,0,0,.546.624Z" transform="translate(-759.289 -1435.439)"/>
        <path id="Trazado_630478" data-name="Trazado 630478" d="M794.68,1468.173c0-.077-.468-2.338-.468-2.26a14.425,14.425,0,0,0-1.169-3.352h-.234a2.3,2.3,0,0,1-2.338-2.338,2.211,2.211,0,0,1,1.4-2.1,18.94,18.94,0,0,1,.935-10.367A6.126,6.126,0,0,0,790,1446.5c-3.353-.234-4.365,2.572-5.768,3.9l-1.4,1.714-2.261-1.871a1.552,1.552,0,0,0-1.948,2.417l3.507,2.806a1.513,1.513,0,0,0,2.182-.234l.078-.077.779-.936c.078,2.65.234,6.547.468,9.588a5.019,5.019,0,0,0,.467,1.637c-.467,24.865-.311,16.291-.311,18.161a2.4,2.4,0,0,0,2.26,2.417h.078a2.33,2.33,0,0,0,2.338-2.26l.156-8.574.468,8.028a2.344,2.344,0,0,0,4.677-.312c-.234-3.2-1.013-14.654-1.092-14.732Z" transform="translate(-760.227 -1435.28)"/>
        <path id="Trazado_630479" data-name="Trazado 630479" d="M800.868,1459.58c-1.637-2.806-6.236-10.523-5.924-10.055a4.22,4.22,0,0,0-.546-1.013c-.545.935-1.559,5.223-.779,9.509h1.948c0-.468-.077-.935-.077-1.4.077.078,1.325,2.338,1.325,2.182h-3.04a1.56,1.56,0,0,0,.078,3.118h5.69a1.555,1.555,0,0,0,1.326-2.338Z" transform="translate(-761.193 -1435.417)"/>
        <path id="Trazado_630480" data-name="Trazado 630480" d="M796.755,1464.037c-1.326.545-.468,2.884-.468,3.118a14.43,14.43,0,0,0,.624,2.728c.858.624,2.027-.857,2.494-1.714a11.455,11.455,0,0,0-.467-3.586c-.312-1.637-2.105-.545-2.182-.545Z" transform="translate(-761.445 -1436.444)"/>
      </g>
    </g>
    <g id="Grupo_963162" data-name="Grupo 963162" transform="translate(972.959 9841.063)">
      <g id="Grupo_963161" data-name="Grupo 963161">
        <g id="Grupo_963160" data-name="Grupo 963160">
          <path id="Trazado_630481" data-name="Trazado 630481" d="M899.3,1404.286H880.016l9.767-9.64-1.765-1.764-10.144,9.955-10.144-10.018-1.764,1.764,9.767,9.641H854.561a5.055,5.055,0,0,0-5.04,5.04v29.614a5.055,5.055,0,0,0,5.04,5.041H899.3a5.056,5.056,0,0,0,5.041-5.041v-29.614A5.043,5.043,0,0,0,899.3,1404.286Zm-15.752,28.1a3.792,3.792,0,0,1-3.78,3.78H860.232a3.792,3.792,0,0,1-3.78-3.78v-16.382a3.792,3.792,0,0,1,3.78-3.78h19.532a3.792,3.792,0,0,1,3.78,3.78Zm9.452,2.268a4.411,4.411,0,1,1,4.41-4.411A4.383,4.383,0,0,1,893,1434.656Zm5.04-12.791H887.956v-2.52h10.081Zm0-6.3H887.956v-2.52h10.081Z" transform="translate(-849.521 -1392.819)"/>
        </g>
      </g>
    </g>
    <g id="Grupo_963164" data-name="Grupo 963164" transform="translate(562.077 9861.289)">
      <g id="Grupo_963163" data-name="Grupo 963163">
        <path id="Trazado_630482" data-name="Trazado 630482" d="M408.8,1462.347h58.248v6.826H408.8Z" transform="translate(-408.797 -1417.753)"/>
        <path id="Trazado_630483" data-name="Trazado 630483" d="M456.38,1445.787a1.745,1.745,0,0,0-3.49,0v11.907h3.49Z" transform="translate(-411.783 -1416.514)"/>
        <path id="Trazado_630484" data-name="Trazado 630484" d="M426.93,1445.787a1.744,1.744,0,0,0-3.489,0v11.907h3.489Z" transform="translate(-409.789 -1416.514)"/>
        <path id="Trazado_630485" data-name="Trazado 630485" d="M441.655,1445.787a1.744,1.744,0,0,0-3.489,0v11.907h3.489Z" transform="translate(-410.786 -1416.514)"/>
        <path id="Trazado_630486" data-name="Trazado 630486" d="M463.88,1428.391v-3.226l-25.711-10.651-25.712,10.651v3.226Z" transform="translate(-409.045 -1414.514)"/>
        <path id="Trazado_630487" data-name="Trazado 630487" d="M419.036,1456.951v-11.907a5.157,5.157,0,0,1,10.315,0v11.907h3.413v-11.907a5.157,5.157,0,0,1,10.315,0v11.907h3.413v-11.907a5.157,5.157,0,1,1,10.314,0v11.907h6.826v-20.478h3.413v-3.413H408.8v3.413h3.413v20.478Z" transform="translate(-408.797 -1415.77)"/>
      </g>
    </g>
    <g id="Grupo_963165" data-name="Grupo 963165" transform="translate(431.055 9916.077)">
      <g id="Government_Building" data-name="Government Building">
        <rect id="Rectngulo_306686" data-name="Rectngulo 306686" width="57.362" height="6.146" rx="1.099" transform="translate(0 51.216)"/>
        <rect id="Rectngulo_306687" data-name="Rectngulo 306687" width="57.362" height="6.146" rx="1.099" transform="translate(0 20.486)"/>
        <path id="Trazado_630488" data-name="Trazado 630488" d="M298.949,1483.525a1.025,1.025,0,0,1-1.025-1.025v-8.195a1.024,1.024,0,0,1,2.048,0v8.195A1.024,1.024,0,0,1,298.949,1483.525Z" transform="translate(-270.267 -1473.282)"/>
        <rect id="Rectngulo_306688" data-name="Rectngulo 306688" width="8.195" height="6.146" rx="1.099" transform="translate(27.657)"/>
        <path id="Trazado_630489" data-name="Trazado 630489" d="M298.874,1519.428a2.051,2.051,0,0,0-2.049,2.048v4.1h4.1v-4.1A2.05,2.05,0,0,0,298.874,1519.428Z" transform="translate(-270.193 -1476.406)"/>
        <path id="Trazado_630490" data-name="Trazado 630490" d="M310.01,1508.44h2.048v2.049H310.01Z" transform="translate(-271.086 -1475.662)"/>
        <path id="Trazado_630491" data-name="Trazado 630491" d="M310.01,1517.23h2.048v2.049H310.01Z" transform="translate(-271.086 -1476.257)"/>
        <path id="Trazado_630492" data-name="Trazado 630492" d="M285.838,1517.23h2.049v2.049h-2.049Z" transform="translate(-269.449 -1476.257)"/>
        <path id="Trazado_630493" data-name="Trazado 630493" d="M277.048,1508.44H279.1v2.049h-2.049Z" transform="translate(-268.854 -1475.662)"/>
        <path id="Trazado_630494" data-name="Trazado 630494" d="M318.8,1517.23h2.048v2.049H318.8Z" transform="translate(-271.681 -1476.257)"/>
        <path id="Trazado_630495" data-name="Trazado 630495" d="M270.456,1504.046v20.486h22.535v-4.1a4.1,4.1,0,1,1,8.195,0v4.1H323.72v-20.486ZM280.7,1519.41a1.024,1.024,0,0,1-1.024,1.025h-4.1a1.024,1.024,0,0,1-1.025-1.025v-4.1a1.025,1.025,0,0,1,1.025-1.025h4.1a1.024,1.024,0,0,1,1.024,1.025Zm0-8.194a1.024,1.024,0,0,1-1.024,1.023h-4.1a1.024,1.024,0,0,1-1.025-1.023v-4.1a1.024,1.024,0,0,1,1.025-1.025h4.1a1.024,1.024,0,0,1,1.024,1.025Zm8.195,8.194a1.025,1.025,0,0,1-1.025,1.025h-4.1a1.024,1.024,0,0,1-1.024-1.025v-4.1a1.024,1.024,0,0,1,1.024-1.025h4.1a1.025,1.025,0,0,1,1.025,1.025Zm0-8.194a1.024,1.024,0,0,1-1.025,1.023h-4.1a1.024,1.024,0,0,1-1.024-1.023v-4.1a1.024,1.024,0,0,1,1.024-1.025h4.1a1.025,1.025,0,0,1,1.025,1.025Zm22.535,8.194a1.025,1.025,0,0,1-1.025,1.025h-4.1a1.024,1.024,0,0,1-1.025-1.025v-4.1a1.025,1.025,0,0,1,1.025-1.025h4.1a1.025,1.025,0,0,1,1.025,1.025Zm0-8.194a1.024,1.024,0,0,1-1.025,1.023h-4.1a1.024,1.024,0,0,1-1.025-1.023v-4.1a1.024,1.024,0,0,1,1.025-1.025h4.1a1.025,1.025,0,0,1,1.025,1.025Zm8.194,8.194a1.024,1.024,0,0,1-1.024,1.025h-4.1a1.025,1.025,0,0,1-1.025-1.025v-4.1a1.025,1.025,0,0,1,1.025-1.025h4.1a1.024,1.024,0,0,1,1.024,1.025Zm-1.024-7.17h-4.1a1.024,1.024,0,0,1-1.025-1.023v-4.1a1.025,1.025,0,0,1,1.025-1.025h4.1a1.024,1.024,0,0,1,1.024,1.025v4.1A1.023,1.023,0,0,1,318.6,1512.24Z" transform="translate(-268.407 -1475.365)"/>
        <path id="Trazado_630496" data-name="Trazado 630496" d="M277.048,1517.23H279.1v2.049h-2.049Z" transform="translate(-268.854 -1476.257)"/>
        <path id="Trazado_630497" data-name="Trazado 630497" d="M285.838,1508.44h2.049v2.049h-2.049Z" transform="translate(-269.449 -1475.662)"/>
        <path id="Trazado_630498" data-name="Trazado 630498" d="M318.8,1508.44h2.048v2.049H318.8Z" transform="translate(-271.681 -1475.662)"/>
        <path id="Trazado_630499" data-name="Trazado 630499" d="M319.028,1492.314,297.9,1482.173a1.019,1.019,0,0,0-.887,0l-21.128,10.141Z" transform="translate(-268.775 -1473.877)"/>
      </g>
    </g>
    <g id="Grupo_963167" data-name="Grupo 963167" transform="translate(972.959 10047.643)">
      <g id="Grupo_963166" data-name="Grupo 963166">
        <path id="Trazado_630500" data-name="Trazado 630500" d="M893.646,1675.718a1.472,1.472,0,0,0-2.943,0v8.25h2.943Z" transform="translate(-852.31 -1618.455)"/>
        <path id="Trazado_630501" data-name="Trazado 630501" d="M910.118,1675.718a1.472,1.472,0,0,0-2.943,0v8.25h2.943Z" transform="translate(-853.425 -1618.455)"/>
        <path id="Trazado_630502" data-name="Trazado 630502" d="M880.766,1658.664h34.187l-7.6-7.549H880.766Z" transform="translate(-851.637 -1616.889)"/>
        <path id="Trazado_630503" data-name="Trazado 630503" d="M880.766,1683.23h5.425v-8.251a5.311,5.311,0,0,1,10.622,0v8.251h4.735v-8.251a5.311,5.311,0,0,1,10.622,0v8.251h4.878v-19.9H880.766Z" transform="translate(-851.637 -1617.716)"/>
        <path id="Trazado_630504" data-name="Trazado 630504" d="M864.683,1667.071a1.472,1.472,0,1,0-2.943,0v16.189h2.943Z" transform="translate(-850.348 -1617.87)"/>
        <path id="Trazado_630505" data-name="Trazado 630505" d="M874.94,1651.115H849.521v31.165h7.552V1666.09a5.311,5.311,0,1,1,10.622,0v16.189h7.245v-31.165Z" transform="translate(-849.521 -1616.889)"/>
        <path id="Trazado_630506" data-name="Trazado 630506" d="M860.512,1625.726l-10.985,11.323.007,7.751,25.419-.021-.007-7.735-10.594-11.2,0-4.693,2.212,0,0-3.839-2.212,0,0-2.909-3.839,0,0,2.909-2.212,0,0,3.839,2.212,0Zm4.784,11.083a2.834,2.834,0,1,1-2.834-2.834A2.837,2.837,0,0,1,865.3,1636.809Z" transform="translate(-849.521 -1614.403)"/>
      </g>
    </g>
    <g id="Grupo_963169" data-name="Grupo 963169" transform="translate(1114.361 10018.852)">
      <g id="Grupo_963168" data-name="Grupo 963168">
        <path id="Trazado_630507" data-name="Trazado 630507" d="M1001.193,1623.111v16.877h13.356v-24.805Zm5.319,9.409v-5.984h3.173v5.984Z" transform="translate(-1001.193 -1585.665)"/>
        <path id="Trazado_630508" data-name="Trazado 630508" d="M1058.678,1623.11l-13.365-7.927v24.805h13.365Zm-4.99,9.41h-3.173v-5.984h3.173Z" transform="translate(-1004.18 -1585.665)"/>
        <path id="Trazado_630509" data-name="Trazado 630509" d="M1018.066,1637.845h6.043v-10.92a4.759,4.759,0,1,1,9.518,0v10.92h6.043v-31.019l8.812,5.551,1.69-2.684-19.806-12.477v-7.1h3.464v-3.173h-3.464v-3.422h-3.173v3.422h-3.288v3.173h3.288v7.209l-19.63,12.367,1.691,2.684,8.811-5.551Zm9.216-30.064h3.172v6.345h-3.172Z" transform="translate(-1001.624 -1583.521)"/>
        <path id="Trazado_630510" data-name="Trazado 630510" d="M1031.886,1629.962a1.586,1.586,0,0,0-3.172,0v10.92h3.172v-10.92Z" transform="translate(-1003.057 -1586.558)"/>
      </g>
    </g>
    <g id="Grupo_963170" data-name="Grupo 963170" transform="translate(575.091 10058.946)">
      <path id="Trazado_630511" data-name="Trazado 630511" d="M447.181,1638.6a6.06,6.06,0,0,0,6.06-6.061c-.283-8.02-11.833-8.019-12.121,0A6.066,6.066,0,0,0,447.181,1638.6Z" transform="translate(-423.999 -1626.527)"/>
      <path id="Trazado_630512" data-name="Trazado 630512" d="M463.511,1643.74a5.6,5.6,0,0,0,5.595-5.595c-.263-7.4-10.923-7.4-11.189,0A5.6,5.6,0,0,0,463.511,1643.74Z" transform="translate(-425.137 -1626.938)"/>
      <path id="Trazado_630513" data-name="Trazado 630513" d="M430.915,1643.655a5.6,5.6,0,0,0,5.595-5.595c-.262-7.4-10.923-7.4-11.188,0A5.6,5.6,0,0,0,430.915,1643.655Z" transform="translate(-422.93 -1626.932)"/>
      <path id="Trazado_630514" data-name="Trazado 630514" d="M466.822,1647.04h-7.664V1661.2a4.733,4.733,0,0,1-2.788,4.289,2.764,2.764,0,0,0,1.79.643.809.809,0,0,1,.858.755v10.927a.934.934,0,0,0,.932.932h6.919a.935.935,0,0,0,.932-.932V1666.89a.808.808,0,0,1,.858-.755,2.67,2.67,0,0,0,2.732-2.608v-12.152a4.464,4.464,0,0,0-4.568-4.335Z" transform="translate(-425.032 -1627.916)"/>
      <path id="Trazado_630515" data-name="Trazado 630515" d="M434.989,1661.2v-14.042a1.681,1.681,0,0,1,.009-.2h-7.674a4.466,4.466,0,0,0-4.568,4.336v12.149a2.67,2.67,0,0,0,2.728,2.611h0a.814.814,0,0,1,.858.755v10.927a.935.935,0,0,0,.932.932H434.2a.934.934,0,0,0,.932-.932V1666.8a.815.815,0,0,1,.858-.755,2.818,2.818,0,0,0,1.726-.587,4.737,4.737,0,0,1-2.723-4.261Z" transform="translate(-422.756 -1627.91)"/>
      <path id="Trazado_630516" data-name="Trazado 630516" d="M456.041,1660.857v-14.042a5.03,5.03,0,0,0-5.138-4.876h-7.888a5.025,5.025,0,0,0-5.137,4.876v14.042a2.876,2.876,0,0,0,1.827,2.649c.811.38,2.261-.021,2.321,1.24v12.643a.934.934,0,0,0,.932.932h8a.934.934,0,0,0,.932-.932v-12.643c.061-1.251,1.5-.869,2.312-1.23a2.9,2.9,0,0,0,1.838-2.658Z" transform="translate(-423.78 -1627.57)"/>
    </g>
    <g id="Grupo_963171" data-name="Grupo 963171" transform="translate(690.465 10277.605)">
      <g id="Skills-Human_Resource-Document-Checklist-Worker" data-name="Skills-Human Resource-Document-Checklist-Worker">
        <path id="Trazado_630517" data-name="Trazado 630517" d="M597.987,1885.792a3.53,3.53,0,0,0,3.53-3.53,3.468,3.468,0,0,0-.353-1.511l-3.519,3.519-1.663-1.663,3.518-3.521a3.472,3.472,0,0,0-1.512-.353,3.529,3.529,0,0,0,0,7.059Z" transform="translate(-549.756 -1862.264)"/>
        <path id="Trazado_630518" data-name="Trazado 630518" d="M597.987,1917.337a3.529,3.529,0,0,0,3.53-3.529,3.469,3.469,0,0,0-.353-1.512l-3.519,3.519-1.663-1.663,3.518-3.52a3.468,3.468,0,0,0-1.512-.353,3.529,3.529,0,0,0,0,7.058Z" transform="translate(-549.756 -1864.4)"/>
        <path id="Trazado_630519" data-name="Trazado 630519" d="M597.987,1902.2a3.529,3.529,0,0,0,3.53-3.529,3.473,3.473,0,0,0-.353-1.512l-3.519,3.52-1.663-1.663,3.518-3.521a3.485,3.485,0,0,0-1.512-.353,3.529,3.529,0,0,0,0,7.058Z" transform="translate(-549.756 -1863.375)"/>
        <path id="Trazado_630520" data-name="Trazado 630520" d="M565.844,1894.71a5.882,5.882,0,0,0-11.764,0v2.247a5.932,5.932,0,0,0,1.176.106,10.142,10.142,0,0,0,4.247-1.082,12.2,12.2,0,0,1,5.164-1.271,9.01,9.01,0,0,1,1.177.083Z" transform="translate(-547.022 -1862.948)"/>
        <path id="Trazado_630521" data-name="Trazado 630521" d="M562.571,1913.587v-2.412a8.286,8.286,0,0,1-4.706,0v2.412l2.353,4.705Z" transform="translate(-547.278 -1864.461)"/>
        <path id="Trazado_630522" data-name="Trazado 630522" d="M567.3,1917.547l-.811,4.047a1.178,1.178,0,0,1-.753.871,1.146,1.146,0,0,1-.4.07,1.235,1.235,0,0,1-.741-.258l-3.059-2.459-1.035,2.07a1.176,1.176,0,0,1-2.094,0l-1.035-2.07-3.059,2.459a1.235,1.235,0,0,1-.741.258,1.146,1.146,0,0,1-.4-.07,1.182,1.182,0,0,1-.753-.871l-.811-4.047a9.412,9.412,0,0,0-5.094,8.34v4.882h25.88v-4.882A9.41,9.41,0,0,0,567.3,1917.547Z" transform="translate(-546.509 -1864.892)"/>
        <path id="Trazado_630523" data-name="Trazado 630523" d="M563.783,1917.54l1.941,1.565.542-2.707-1.564-.694Z" transform="translate(-547.679 -1864.768)"/>
        <path id="Trazado_630524" data-name="Trazado 630524" d="M565.844,1897.767a5.916,5.916,0,0,0-1.177-.106,10.144,10.144,0,0,0-4.247,1.082,12.2,12.2,0,0,1-5.164,1.271,9.029,9.029,0,0,1-1.176-.083v2.435a5.882,5.882,0,0,0,11.764,0Z" transform="translate(-547.022 -1863.546)"/>
        <path id="Trazado_630525" data-name="Trazado 630525" d="M604,1861.186v8.117a1.161,1.161,0,0,1-.729,1.082.987.987,0,0,1-.448.094,1.187,1.187,0,0,1-.835-.341l-2.693-2.706-2.694,2.706a1.175,1.175,0,0,1-1.282.247,1.161,1.161,0,0,1-.729-1.082v-8.235H567.533a5.882,5.882,0,0,0-5.882,5.883v17.74a8.234,8.234,0,0,1,7.058,8.14v2.353a3.529,3.529,0,0,1,0,7.058h-.341a8.323,8.323,0,0,1-3.188,4.4v3.07l3.6,1.6a11.781,11.781,0,0,1,6.988,10.752v4.882h27.056a5.882,5.882,0,0,0,5.882-5.882v-54.113a5.9,5.9,0,0,0-4.705-5.765Zm-37.644,4.588h2.353v2.352h-2.353Zm9.411,7.058h-9.411v-2.353h9.411Zm0-4.706h-4.706v-2.352h4.706Zm11.764,45.879H578.12v-2.353h9.411Zm0-4.705H578.12v-2.353h9.411Zm0-9.411H578.12v-2.352h9.411Zm0-4.705H578.12v-2.353h9.411Zm0-10.587H578.12v-2.353h9.411Zm0-4.706H578.12v-2.352h9.411Zm14.116,30.586a5.9,5.9,0,1,1-2.647-4.906l1.812-1.812,1.67,1.67-1.811,1.812A5.845,5.845,0,0,1,601.647,1910.476Zm-.976-17.352a5.9,5.9,0,1,1-1.671-1.671l1.812-1.811,1.67,1.671Zm0-15.293a5.9,5.9,0,1,1-1.671-1.67l1.812-1.812,1.67,1.671Z" transform="translate(-547.534 -1861.068)"/>
        <path id="Trazado_630526" data-name="Trazado 630526" d="M556.815,1917.54l-.917-1.835-1.565.694.542,2.707Z" transform="translate(-547.039 -1864.768)"/>
        <path id="Trazado_630527" data-name="Trazado 630527" d="M550.295,1901.361a1.176,1.176,0,0,0,1.176,1.177v-2.352A1.176,1.176,0,0,0,550.295,1901.361Z" transform="translate(-546.765 -1863.717)"/>
        <path id="Trazado_630528" data-name="Trazado 630528" d="M569.222,1900.185v2.352a1.176,1.176,0,1,0,0-2.352Z" transform="translate(-548.047 -1863.717)"/>
        <path id="Trazado_630529" data-name="Trazado 630529" d="M601.023,1864.939a1.186,1.186,0,0,1,1.671,0l1.517,1.529v-5.4h-4.705v5.4Z" transform="translate(-550.097 -1861.068)"/>
      </g>
    </g>
  </g>
</svg>
