<svg xmlns="http://www.w3.org/2000/svg" xmlns:xlink="http://www.w3.org/1999/xlink" width="926.978" height="650.331" viewBox="0 0 926.978 650.331">
  <defs>
    <linearGradient id="linear-gradient" x1="79.809" y1="-6.139" x2="80.809" y2="-6.139" gradientUnits="objectBoundingBox">
      <stop offset="0" stop-color="#fff"/>
      <stop offset="0.49" stop-color="#f4f4f4"/>
      <stop offset="1" stop-color="#e5e5e5"/>
    </linearGradient>
    <linearGradient id="linear-gradient-2" x1="76.295" y1="-4.513" x2="77.295" y2="-4.513" xlink:href="#linear-gradient"/>
    <radialGradient id="radial-gradient" cx="0.5" cy="0.5" r="0.5" xlink:href="#linear-gradient"/>
  </defs>
  <g id="Grupo_981736" data-name="Grupo 981736" transform="translate(-338 -8751.85)">
    <g id="Grupo_950734" data-name="Grupo 950734" transform="translate(118.065 4001.677)">
      <path id="Trazado_630380" data-name="Trazado 630380" d="M427.846,5063.346c2.08-86.093,48.607-161.36,117.457-203.7l-6.043-10.43c-72.44,44.432-121.38,123.591-123.466,214.129Z" fill="#fae8c2" stroke="#fae8c2" stroke-miterlimit="10" stroke-width="23"/>
      <path id="Trazado_630381" data-name="Trazado 630381" d="M919.752,5075.4c-2.081,86.1-48.611,161.367-117.466,203.7l6.043,10.43C880.773,5245.1,929.718,5165.941,931.8,5075.4Z" fill="#fae8c2" stroke="#fae8c2" stroke-miterlimit="10" stroke-width="23"/>
      <path id="Trazado_630382" data-name="Trazado 630382" d="M427.846,5075.4H415.794c2.084,90.432,50.913,169.508,123.212,213.97l6.055-10.423C476.345,5236.58,429.924,5161.391,427.846,5075.4Z" fill="#fae8c2" stroke="#fae8c2" stroke-miterlimit="10" stroke-width="23"/>
      <path id="Trazado_630383" data-name="Trazado 630383" d="M808.584,4849.371l-6.055,10.422c68.721,42.366,115.145,117.558,117.223,203.553H931.8C929.72,4972.911,880.888,4893.831,808.584,4849.371Z" fill="#fae8c2" stroke="#fae8c2" stroke-miterlimit="10" stroke-width="23"/>
      <path id="Trazado_630384" data-name="Trazado 630384" d="M555.72,4853.586a245.613,245.613,0,0,1,236.4.135l6.054-10.419a257.634,257.634,0,0,0-248.495-.142Z" fill="#fae8c2" stroke="#fae8c2" stroke-miterlimit="10" stroke-width="23"/>
      <path id="Trazado_630385" data-name="Trazado 630385" d="M791.87,5285.163a245.62,245.62,0,0,1-236.4-.144l-6.054,10.419a257.634,257.634,0,0,0,248.494.151Z" fill="#fae8c2" stroke="#fae8c2" stroke-miterlimit="10" stroke-width="23"/>
      <line id="Línea_344" data-name="Línea 344" x2="465.328" transform="translate(465.808 5069.372)" fill="none" stroke="#00263d" stroke-miterlimit="10" stroke-width="1"/>
      <line id="Línea_345" data-name="Línea 345" x2="182.806" y2="309.45" transform="translate(548.209 4852.639)" fill="none" stroke="#00263d" stroke-miterlimit="10" stroke-width="1"/>
      <line id="Línea_346" data-name="Línea 346" y1="328.979" x2="191.138" transform="translate(615.387 4840.923)" fill="none" stroke="#00263d" stroke-miterlimit="10" stroke-width="1"/>
      <line id="Línea_347" data-name="Línea 347" x2="465.328" transform="translate(465.808 5069.372)" fill="none" stroke="#00263d" stroke-miterlimit="10" stroke-width="1"/>
      <path id="Trazado_630386" data-name="Trazado 630386" d="M533.9,5065.944a140,140,0,0,1,66.809-115.862l-3.438-5.933a146.864,146.864,0,0,0-70.226,121.795Z" fill="#f0bd51"/>
      <path id="Trazado_630387" data-name="Trazado 630387" d="M813.7,5072.8a140,140,0,0,1-66.814,115.866l3.438,5.932a146.863,146.863,0,0,0,70.231-121.8Z" fill="#f0bd51"/>
      <path id="Trazado_630388" data-name="Trazado 630388" d="M533.9,5072.8h-6.855a146.86,146.86,0,0,0,70.082,121.7l3.444-5.928A140,140,0,0,1,533.9,5072.8Z" fill="#f0bd51"/>
      <path id="Trazado_630389" data-name="Trazado 630389" d="M750.464,4944.237l-3.444,5.928A140,140,0,0,1,813.7,5065.944h6.855A146.858,146.858,0,0,0,750.464,4944.237Z" fill="#f0bd51"/>
      <path id="Trazado_630390" data-name="Trazado 630390" d="M606.636,4946.634a139.711,139.711,0,0,1,134.463.077l3.443-5.926A146.538,146.538,0,0,0,603.2,4940.7Z" fill="#f0bd51"/>
      <g id="Grupo_950732" data-name="Grupo 950732">
        <g id="Grupo_950730" data-name="Grupo 950730" opacity="0.25" style="mix-blend-mode: multiply;isolation: isolate">
          <path id="Trazado_630391" data-name="Trazado 630391" d="M823.571,5295.611"/>
        </g>
        <g id="Grupo_950731" data-name="Grupo 950731">
          <path id="Trazado_630392" data-name="Trazado 630392" d="M820.768,5291.875" fill="#fff"/>
        </g>
      </g>
      <rect id="Rectángulo_306676" data-name="Rectángulo 306676" width="310.252" height="118.901" rx="59.451" transform="translate(836.661 5009.922)" fill="#f0bd51"/>
      <circle id="Elipse_7695" data-name="Elipse 7695" cx="49.965" cy="49.965" r="49.965" transform="translate(850.354 5019.407)" fill="#fff"/>
      <circle id="Elipse_7696" data-name="Elipse 7696" cx="38.033" cy="38.033" r="38.033" transform="matrix(0.987, -0.159, 0.159, 0.987, 856.728, 5037.862)" fill="#ffe4b9" stroke="#fae8c2" stroke-miterlimit="10" stroke-width="1"/>
      <rect id="Rectángulo_306677" data-name="Rectángulo 306677" width="278.252" height="118.901" rx="59.451" transform="translate(751.51 4750.172)" fill="#f0bd51"/>
      <rect id="Rectángulo_306678" data-name="Rectángulo 306678" width="287.481" height="118.901" rx="59.451" transform="translate(320.322 4753.045)" fill="#f0bd51"/>
      <rect id="Rectángulo_306679" data-name="Rectángulo 306679" width="292.481" height="118.901" rx="59.451" transform="translate(219.935 5009.922)" fill="#f0bd51"/>
      <circle id="Elipse_7697" data-name="Elipse 7697" cx="49.965" cy="49.965" r="49.965" transform="translate(763.439 4759.657)" fill="#fff"/>
      <circle id="Elipse_7698" data-name="Elipse 7698" cx="38.033" cy="38.033" r="38.033" transform="translate(775.371 4771.589)" fill="#ffe4b9" stroke="#fae8c2" stroke-miterlimit="10" stroke-width="1"/>
      <circle id="Elipse_7699" data-name="Elipse 7699" cx="49.965" cy="49.965" r="49.965" transform="translate(386.615 5098.531) rotate(-69.372)" fill="url(#linear-gradient)"/>
      <circle id="Elipse_7700" data-name="Elipse 7700" cx="38.033" cy="38.033" r="38.033" transform="translate(412.946 5031.339)" fill="#ffe4b9" stroke="#fae8c2" stroke-miterlimit="10" stroke-width="1"/>
      <path id="Trazado_630393" data-name="Trazado 630393" d="M597.051,5194.5l5.985,3.482,3.438-5.932-5.986-3.48Z" fill="#f0bd51"/>
      <circle id="Elipse_7701" data-name="Elipse 7701" cx="49.965" cy="49.965" r="49.965" transform="translate(485.075 4775.571) rotate(-13.497)" fill="url(#linear-gradient-2)"/>
      <circle id="Elipse_7702" data-name="Elipse 7702" cx="38.033" cy="38.033" r="38.033" transform="translate(506.294 4849.507) rotate(-88.481)" fill="#ffe4b9" stroke="#fae8c2" stroke-miterlimit="10" stroke-width="1"/>
      <path id="Trazado_630394" data-name="Trazado 630394" d="M740.949,5192.119l5.925-3.447,3.437,5.933-5.926,3.445Z" fill="#f0bd51"/>
      <g id="Grupo_950733" data-name="Grupo 950733">
        <path id="Trazado_630395" data-name="Trazado 630395" d="M677.369,5209.29l.011,6.819a145.835,145.835,0,0,0,67.013-18.067l-3.436-5.93a138.991,138.991,0,0,1-62.714,17.12C677.034,5209.269,677.369,5209.29,677.369,5209.29Z" fill="#f0bd51"/>
        <path id="Trazado_630396" data-name="Trazado 630396" d="M673.285,5216.158c.172,0,.342.009.514.009.252,0,.5-.011.752-.013Z" fill="#f0bd51"/>
        <path id="Trazado_630397" data-name="Trazado 630397" d="M670.514,5209.313s.453-.032-.7-.065a138.992,138.992,0,0,1-63.324-17.218l-3.443,5.926a145.809,145.809,0,0,0,67.473,18.158Z" fill="#f0bd51"/>
      </g>
      <line id="Línea_348" data-name="Línea 348" x2="0.296" y2="275.212" transform="translate(673.799 5069.372)" fill="none" stroke="#00263d" stroke-miterlimit="10" stroke-width="1"/>
      <rect id="Rectángulo_306680" data-name="Rectángulo 306680" width="268.133" height="118.901" rx="59.451" transform="translate(613.801 5281.603)" fill="#f0bd51"/>
      <circle id="Elipse_7703" data-name="Elipse 7703" cx="49.965" cy="49.965" r="49.965" transform="translate(625.73 5290.302)" fill="#fff"/>
      <circle id="Elipse_7704" data-name="Elipse 7704" cx="38.033" cy="38.033" r="38.033" transform="translate(637.662 5302.234)" fill="#ffe4b9" stroke="#fae8c2" stroke-miterlimit="10" stroke-width="1"/>
      <circle id="Elipse_7705" data-name="Elipse 7705" cx="127.676" cy="127.676" r="127.676" transform="translate(546.123 4941.696)" fill="url(#radial-gradient)"/>
    </g>
    <path id="Trazado_655049" data-name="Trazado 655049" d="M22.961,14.016A1.2,1.2,0,0,0,22.492,13a6.148,6.148,0,0,0-1.687-.75,11.963,11.963,0,0,1-1.93-.777,3.153,3.153,0,0,1-1.937-2.82A2.747,2.747,0,0,1,17.457,7a3.389,3.389,0,0,1,1.492-1.129,5.616,5.616,0,0,1,2.184-.406A5.112,5.112,0,0,1,23.3,5.91a3.458,3.458,0,0,1,1.48,1.246,3.261,3.261,0,0,1,.527,1.828H22.969a1.534,1.534,0,0,0-.492-1.215,2.023,2.023,0,0,0-1.383-.434,2.162,2.162,0,0,0-1.336.363,1.146,1.146,0,0,0-.477.957,1.1,1.1,0,0,0,.559.93,6.311,6.311,0,0,0,1.645.7A7.106,7.106,0,0,1,24.4,11.781,2.972,2.972,0,0,1,25.313,14,2.737,2.737,0,0,1,24.2,16.316a4.891,4.891,0,0,1-3.008.84,5.808,5.808,0,0,1-2.391-.48,3.783,3.783,0,0,1-1.645-1.316,3.371,3.371,0,0,1-.566-1.937h2.352q0,1.883,2.25,1.883a2.189,2.189,0,0,0,1.3-.34A1.106,1.106,0,0,0,22.961,14.016ZM29.133,17H26.867V8.547h2.266Zm-2.4-10.641a1.112,1.112,0,0,1,.34-.836,1.465,1.465,0,0,1,1.848,0,1.105,1.105,0,0,1,.344.836,1.108,1.108,0,0,1-.348.844,1.448,1.448,0,0,1-1.836,0A1.108,1.108,0,0,1,26.734,6.359Zm8.836,8.3a.727.727,0,0,0-.41-.652,4.659,4.659,0,0,0-1.316-.426q-3.016-.633-3.016-2.562a2.323,2.323,0,0,1,.934-1.879A3.766,3.766,0,0,1,34.2,8.391a4.053,4.053,0,0,1,2.574.758,2.388,2.388,0,0,1,.965,1.969H35.484a1.092,1.092,0,0,0-.312-.8A1.322,1.322,0,0,0,34.2,10a1.351,1.351,0,0,0-.883.258.814.814,0,0,0-.312.656.7.7,0,0,0,.355.605,3.657,3.657,0,0,0,1.2.4,9.8,9.8,0,0,1,1.422.379,2.336,2.336,0,0,1,1.789,2.273,2.2,2.2,0,0,1-.992,1.871,4.28,4.28,0,0,1-2.562.715,4.47,4.47,0,0,1-1.887-.379,3.166,3.166,0,0,1-1.293-1.039,2.414,2.414,0,0,1-.469-1.426H32.7a1.179,1.179,0,0,0,.445.922,1.766,1.766,0,0,0,1.109.32,1.635,1.635,0,0,0,.98-.246A.766.766,0,0,0,35.57,14.664Zm6.352-8.2V8.547h1.445V10.2H41.922v4.219a1.007,1.007,0,0,0,.18.672.9.9,0,0,0,.688.2,3.6,3.6,0,0,0,.664-.055v1.711a4.648,4.648,0,0,1-1.367.2,2.156,2.156,0,0,1-2.422-2.4V10.2H38.43V8.547h1.234V6.469Zm6.594,10.688a4.15,4.15,0,0,1-3.027-1.141,4.054,4.054,0,0,1-1.168-3.039v-.219a5.106,5.106,0,0,1,.492-2.277,3.612,3.612,0,0,1,1.395-1.547,3.914,3.914,0,0,1,2.059-.543A3.508,3.508,0,0,1,51,9.484a4.444,4.444,0,0,1,1,3.1v.922H46.609a2.1,2.1,0,0,0,.66,1.328,2,2,0,0,0,1.395.5,2.437,2.437,0,0,0,2.039-.945l1.109,1.242a3.389,3.389,0,0,1-1.375,1.121A4.511,4.511,0,0,1,48.516,17.156Zm-.258-6.945a1.411,1.411,0,0,0-1.09.455,2.357,2.357,0,0,0-.535,1.3h3.141v-.181a1.681,1.681,0,0,0-.406-1.165A1.456,1.456,0,0,0,48.258,10.211Zm7.133-1.664.07.945a2.971,2.971,0,0,1,2.43-1.1A2.255,2.255,0,0,1,60.133,9.68a2.9,2.9,0,0,1,2.539-1.289,2.521,2.521,0,0,1,2.047.8,3.681,3.681,0,0,1,.672,2.41V17H63.125V11.609a1.61,1.61,0,0,0-.281-1.051,1.246,1.246,0,0,0-.992-.332,1.409,1.409,0,0,0-1.406.969l.008,5.8H58.2V11.617a1.59,1.59,0,0,0-.289-1.062,1.259,1.259,0,0,0-.984-.328,1.463,1.463,0,0,0-1.391.8V17H53.273V8.547ZM72.023,17a2.507,2.507,0,0,1-.227-.758,2.732,2.732,0,0,1-2.133.914,3,3,0,0,1-2.059-.719,2.312,2.312,0,0,1-.816-1.812,2.389,2.389,0,0,1,1-2.062,4.915,4.915,0,0,1,2.879-.727H71.7v-.484a1.393,1.393,0,0,0-.3-.937,1.183,1.183,0,0,0-.949-.352,1.345,1.345,0,0,0-.895.273.929.929,0,0,0-.324.75H66.977a2.268,2.268,0,0,1,.453-1.359,3,3,0,0,1,1.281-.98,4.669,4.669,0,0,1,1.859-.355,3.689,3.689,0,0,1,2.48.785,2.747,2.747,0,0,1,.918,2.207v3.664a4.041,4.041,0,0,0,.336,1.82V17Zm-1.867-1.57a1.945,1.945,0,0,0,.922-.223,1.462,1.462,0,0,0,.625-.6V13.156h-.844q-1.7,0-1.8,1.172l-.008.133a.9.9,0,0,0,.3.7A1.153,1.153,0,0,0,70.156,15.43Zm10.125-.766a.727.727,0,0,0-.41-.652,4.659,4.659,0,0,0-1.316-.426q-3.016-.633-3.016-2.562a2.323,2.323,0,0,1,.934-1.879,3.766,3.766,0,0,1,2.441-.754,4.053,4.053,0,0,1,2.574.758,2.388,2.388,0,0,1,.965,1.969H80.2a1.092,1.092,0,0,0-.312-.8A1.322,1.322,0,0,0,78.906,10a1.351,1.351,0,0,0-.883.258.814.814,0,0,0-.312.656.7.7,0,0,0,.355.605,3.657,3.657,0,0,0,1.2.4,9.8,9.8,0,0,1,1.422.379,2.336,2.336,0,0,1,1.789,2.273,2.2,2.2,0,0,1-.992,1.871,4.28,4.28,0,0,1-2.562.715,4.47,4.47,0,0,1-1.887-.379,3.166,3.166,0,0,1-1.293-1.039,2.414,2.414,0,0,1-.469-1.426h2.141a1.179,1.179,0,0,0,.445.922,1.766,1.766,0,0,0,1.109.32,1.635,1.635,0,0,0,.98-.246A.766.766,0,0,0,80.281,14.664Zm7.281-1.953a5.094,5.094,0,0,1,.887-3.148,2.877,2.877,0,0,1,2.426-1.172,2.589,2.589,0,0,1,2.039.922V5H95.18V17H93.141l-.109-.9a2.657,2.657,0,0,1-2.172,1.055,2.869,2.869,0,0,1-2.395-1.176A5.258,5.258,0,0,1,87.563,12.711Zm2.258.168a3.337,3.337,0,0,0,.414,1.823,1.349,1.349,0,0,0,1.2.634,1.511,1.511,0,0,0,1.477-.884V11.111a1.489,1.489,0,0,0-1.461-.884Q89.82,10.227,89.82,12.879Zm11,4.277a4.15,4.15,0,0,1-3.027-1.141,4.054,4.054,0,0,1-1.168-3.039v-.219a5.106,5.106,0,0,1,.492-2.277,3.612,3.612,0,0,1,1.395-1.547,3.914,3.914,0,0,1,2.059-.543,3.508,3.508,0,0,1,2.73,1.094,4.444,4.444,0,0,1,1,3.1v.922H98.914a2.1,2.1,0,0,0,.66,1.328,2,2,0,0,0,1.395.5,2.437,2.437,0,0,0,2.039-.945l1.109,1.242a3.389,3.389,0,0,1-1.375,1.121A4.511,4.511,0,0,1,100.82,17.156Zm-.258-6.945a1.411,1.411,0,0,0-1.09.455,2.357,2.357,0,0,0-.535,1.3h3.141v-.181a1.681,1.681,0,0,0-.406-1.165A1.456,1.456,0,0,0,100.563,10.211Zm7.4,6.789H105.7V5h2.266Zm9.055-11.375,2.922,8.25,2.906-8.25h3.078V17H123.57V13.891l.234-5.367L120.734,17h-1.609l-3.062-8.469.234,5.359V17h-2.344V5.625Zm10.453,7.07a5.013,5.013,0,0,1,.484-2.242,3.546,3.546,0,0,1,1.395-1.523,4.069,4.069,0,0,1,2.113-.539,3.849,3.849,0,0,1,2.793,1.047,4.2,4.2,0,0,1,1.207,2.844l.016.578a4.418,4.418,0,0,1-1.086,3.121,4.209,4.209,0,0,1-5.832,0,4.5,4.5,0,0,1-1.09-3.187Zm2.258.16a3.16,3.16,0,0,0,.453,1.843,1.628,1.628,0,0,0,2.578.008,3.457,3.457,0,0,0,.461-2.015,3.128,3.128,0,0,0-.461-1.831,1.5,1.5,0,0,0-1.3-.649,1.474,1.474,0,0,0-1.281.646A3.516,3.516,0,0,0,129.727,12.856Zm6.789-.145a5.094,5.094,0,0,1,.887-3.148,2.877,2.877,0,0,1,2.426-1.172,2.589,2.589,0,0,1,2.039.922V5h2.266V17h-2.039l-.109-.9a2.657,2.657,0,0,1-2.172,1.055,2.869,2.869,0,0,1-2.395-1.176A5.258,5.258,0,0,1,136.516,12.711Zm2.258.168a3.337,3.337,0,0,0,.414,1.823,1.349,1.349,0,0,0,1.2.634,1.511,1.511,0,0,0,1.477-.884V11.111a1.489,1.489,0,0,0-1.461-.884Q138.773,10.227,138.773,12.879Zm11,4.277a4.15,4.15,0,0,1-3.027-1.141,4.054,4.054,0,0,1-1.168-3.039v-.219a5.106,5.106,0,0,1,.492-2.277,3.612,3.612,0,0,1,1.395-1.547,3.914,3.914,0,0,1,2.059-.543,3.508,3.508,0,0,1,2.73,1.094,4.444,4.444,0,0,1,1,3.1v.922h-5.383a2.1,2.1,0,0,0,.66,1.328,2,2,0,0,0,1.395.5,2.437,2.437,0,0,0,2.039-.945l1.109,1.242a3.389,3.389,0,0,1-1.375,1.121A4.511,4.511,0,0,1,149.773,17.156Zm-.258-6.945a1.411,1.411,0,0,0-1.09.455,2.357,2.357,0,0,0-.535,1.3h3.141v-.181a1.681,1.681,0,0,0-.406-1.165A1.456,1.456,0,0,0,149.516,10.211Zm7.4,6.789h-2.266V5h2.266Zm1.508-4.3a5.013,5.013,0,0,1,.484-2.242A3.546,3.546,0,0,1,160.3,8.93a4.069,4.069,0,0,1,2.113-.539,3.849,3.849,0,0,1,2.793,1.047,4.2,4.2,0,0,1,1.207,2.844l.016.578a4.418,4.418,0,0,1-1.086,3.121,4.209,4.209,0,0,1-5.832,0,4.5,4.5,0,0,1-1.09-3.187Zm2.258.16a3.16,3.16,0,0,0,.453,1.843,1.628,1.628,0,0,0,2.578.008,3.457,3.457,0,0,0,.461-2.015,3.128,3.128,0,0,0-.461-1.831,1.5,1.5,0,0,0-1.3-.649,1.474,1.474,0,0,0-1.281.646A3.516,3.516,0,0,0,160.68,12.856ZM53.387,31.07h-4.5v3.047h5.281V36H46.543V24.625h7.609v1.9H48.887v2.711h4.5Zm5.375,3.266a1.481,1.481,0,0,0,1.016-.344,1.2,1.2,0,0,0,.406-.914H62.3a2.9,2.9,0,0,1-.469,1.574,3.093,3.093,0,0,1-1.262,1.109,3.949,3.949,0,0,1-1.77.395A3.67,3.67,0,0,1,55.941,35a4.56,4.56,0,0,1-1.047-3.184v-.148a4.508,4.508,0,0,1,1.039-3.117,3.627,3.627,0,0,1,2.852-1.164,3.555,3.555,0,0,1,2.543.9,3.2,3.2,0,0,1,.973,2.4H60.184a1.551,1.551,0,0,0-.406-1.072,1.51,1.51,0,0,0-2.223.163,3.333,3.333,0,0,0-.4,1.866v.235a3.375,3.375,0,0,0,.4,1.878A1.377,1.377,0,0,0,58.762,34.336ZM63.238,31.7a5.013,5.013,0,0,1,.484-2.242,3.546,3.546,0,0,1,1.395-1.523,4.069,4.069,0,0,1,2.113-.539,3.849,3.849,0,0,1,2.793,1.047,4.2,4.2,0,0,1,1.207,2.844l.016.578A4.418,4.418,0,0,1,70.16,34.98a4.209,4.209,0,0,1-5.832,0,4.5,4.5,0,0,1-1.09-3.187Zm2.258.16a3.16,3.16,0,0,0,.453,1.843,1.628,1.628,0,0,0,2.578.008,3.457,3.457,0,0,0,.461-2.015,3.128,3.128,0,0,0-.461-1.831,1.5,1.5,0,0,0-1.3-.649,1.474,1.474,0,0,0-1.281.646A3.516,3.516,0,0,0,65.5,31.856ZM75.02,36H72.754V24H75.02Zm1.508-4.3a5.013,5.013,0,0,1,.484-2.242,3.546,3.546,0,0,1,1.395-1.523,4.069,4.069,0,0,1,2.113-.539,3.849,3.849,0,0,1,2.793,1.047,4.2,4.2,0,0,1,1.207,2.844l.016.578a4.418,4.418,0,0,1-1.086,3.121,4.209,4.209,0,0,1-5.832,0,4.5,4.5,0,0,1-1.09-3.187Zm2.258.16a3.16,3.16,0,0,0,.453,1.843,1.628,1.628,0,0,0,2.578.008,3.457,3.457,0,0,0,.461-2.015,3.128,3.128,0,0,0-.461-1.831,1.5,1.5,0,0,0-1.3-.649,1.474,1.474,0,0,0-1.281.646A3.516,3.516,0,0,0,78.785,31.856ZM80.965,24h2.461l-2.164,2.422H79.426ZM85.6,31.711a4.954,4.954,0,0,1,.926-3.133,3,3,0,0,1,2.5-1.187,2.631,2.631,0,0,1,2.164.953l.094-.8h2.047v8.172a3.613,3.613,0,0,1-.5,1.93A3.236,3.236,0,0,1,91.4,38.9a4.985,4.985,0,0,1-2.141.43,4.635,4.635,0,0,1-1.812-.371A3.217,3.217,0,0,1,86.113,38l1-1.375a2.645,2.645,0,0,0,2.047.945,1.936,1.936,0,0,0,1.4-.48,1.8,1.8,0,0,0,.5-1.363v-.453A2.612,2.612,0,0,1,89,36.156a2.992,2.992,0,0,1-2.465-1.191A4.953,4.953,0,0,1,85.6,31.8Zm2.258.168a3.085,3.085,0,0,0,.461,1.8,1.466,1.466,0,0,0,1.266.653,1.568,1.568,0,0,0,1.477-.775V30a1.564,1.564,0,0,0-1.461-.775,1.476,1.476,0,0,0-1.277.665A3.477,3.477,0,0,0,87.855,31.879ZM97.441,36H95.176V27.547h2.266Zm-2.4-10.641a1.112,1.112,0,0,1,.34-.836,1.465,1.465,0,0,1,1.848,0,1.193,1.193,0,0,1,0,1.68,1.448,1.448,0,0,1-1.836,0A1.108,1.108,0,0,1,95.043,25.359Zm7.773,8.977a1.481,1.481,0,0,0,1.016-.344,1.2,1.2,0,0,0,.406-.914h2.117a2.9,2.9,0,0,1-.469,1.574,3.093,3.093,0,0,1-1.262,1.109,3.949,3.949,0,0,1-1.77.395A3.67,3.67,0,0,1,100,35a4.56,4.56,0,0,1-1.047-3.184v-.148a4.508,4.508,0,0,1,1.039-3.117,3.627,3.627,0,0,1,2.852-1.164,3.555,3.555,0,0,1,2.543.9,3.2,3.2,0,0,1,.973,2.4h-2.117a1.551,1.551,0,0,0-.406-1.072,1.51,1.51,0,0,0-2.223.163,3.333,3.333,0,0,0-.4,1.866v.235a3.375,3.375,0,0,0,.4,1.878A1.377,1.377,0,0,0,102.816,34.336Zm4.477-2.641a5.013,5.013,0,0,1,.484-2.242,3.546,3.546,0,0,1,1.395-1.523,4.069,4.069,0,0,1,2.113-.539,3.849,3.849,0,0,1,2.793,1.047,4.2,4.2,0,0,1,1.207,2.844l.016.578a4.418,4.418,0,0,1-1.086,3.121,4.209,4.209,0,0,1-5.832,0,4.5,4.5,0,0,1-1.09-3.187Zm2.258.16A3.16,3.16,0,0,0,110,33.7a1.628,1.628,0,0,0,2.578.008,3.457,3.457,0,0,0,.461-2.015,3.128,3.128,0,0,0-.461-1.831,1.5,1.5,0,0,0-1.3-.649,1.474,1.474,0,0,0-1.281.646A3.516,3.516,0,0,0,109.551,31.856Zm10.773-.145a5.094,5.094,0,0,1,.887-3.148,2.877,2.877,0,0,1,2.426-1.172,2.589,2.589,0,0,1,2.039.922V24h2.266V36H125.9l-.109-.9a2.657,2.657,0,0,1-2.172,1.055,2.869,2.869,0,0,1-2.395-1.176A5.258,5.258,0,0,1,120.324,31.711Zm2.258.168A3.337,3.337,0,0,0,123,33.7a1.349,1.349,0,0,0,1.2.634,1.511,1.511,0,0,0,1.477-.884V30.111a1.489,1.489,0,0,0-1.461-.884Q122.582,29.227,122.582,31.879Zm11,4.277a4.15,4.15,0,0,1-3.027-1.141,4.054,4.054,0,0,1-1.168-3.039v-.219a5.106,5.106,0,0,1,.492-2.277,3.612,3.612,0,0,1,1.395-1.547,3.914,3.914,0,0,1,2.059-.543,3.508,3.508,0,0,1,2.73,1.094,4.444,4.444,0,0,1,1,3.1v.922h-5.383a2.1,2.1,0,0,0,.66,1.328,2,2,0,0,0,1.395.5,2.437,2.437,0,0,0,2.039-.945l1.109,1.242a3.389,3.389,0,0,1-1.375,1.121A4.511,4.511,0,0,1,133.582,36.156Zm-.258-6.945a1.411,1.411,0,0,0-1.09.455,2.357,2.357,0,0,0-.535,1.3h3.141v-.181a1.681,1.681,0,0,0-.406-1.165A1.456,1.456,0,0,0,133.324,29.211ZM36.008,55V43.625h3.984a5.232,5.232,0,0,1,3.141.793,2.712,2.712,0,0,1,1.07,2.324,2.57,2.57,0,0,1-.43,1.473,2.482,2.482,0,0,1-1.2.934,2.4,2.4,0,0,1,1.379.883,2.61,2.61,0,0,1,.5,1.625,3,3,0,0,1-1.047,2.484A4.713,4.713,0,0,1,40.43,55Zm2.344-4.953v3.07h2.008a1.938,1.938,0,0,0,1.293-.395,1.353,1.353,0,0,0,.465-1.09A1.428,1.428,0,0,0,40.5,50.047Zm0-1.656h1.734q1.773-.031,1.773-1.414a1.307,1.307,0,0,0-.449-1.113,2.363,2.363,0,0,0-1.418-.34H38.352Zm12.469.273a6.134,6.134,0,0,0-.812-.062,1.654,1.654,0,0,0-1.68.867V55H46.07V46.547H48.2l.063,1.008a2.092,2.092,0,0,1,1.883-1.164,2.366,2.366,0,0,1,.7.1Zm.453,2.031a5.013,5.013,0,0,1,.484-2.242,3.546,3.546,0,0,1,1.395-1.523,4.069,4.069,0,0,1,2.113-.539,3.849,3.849,0,0,1,2.793,1.047,4.2,4.2,0,0,1,1.207,2.844l.016.578A4.418,4.418,0,0,1,58.2,53.98a4.209,4.209,0,0,1-5.832,0,4.5,4.5,0,0,1-1.09-3.187Zm2.258.16a3.16,3.16,0,0,0,.453,1.843,1.628,1.628,0,0,0,2.578.008,3.457,3.457,0,0,0,.461-2.015,3.128,3.128,0,0,0-.461-1.831,1.5,1.5,0,0,0-1.3-.649,1.474,1.474,0,0,0-1.281.646A3.516,3.516,0,0,0,53.531,50.856Zm9.219-4.309.07.977a2.951,2.951,0,0,1,2.43-1.133,2.453,2.453,0,0,1,2,.789,3.682,3.682,0,0,1,.672,2.359V55H65.664V49.594a1.465,1.465,0,0,0-.312-1.043,1.4,1.4,0,0,0-1.039-.324,1.553,1.553,0,0,0-1.43.813V55H60.625V46.547ZM70.25,55V48.2H68.992V46.547H70.25v-.719a2.918,2.918,0,0,1,.816-2.207,3.162,3.162,0,0,1,2.285-.785,5.278,5.278,0,0,1,1.148.156l-.023,1.75a2.878,2.878,0,0,0-.687-.07q-1.273,0-1.273,1.2v.68H74.2V48.2h-1.68V55Zm9.008.156a4.15,4.15,0,0,1-3.027-1.141,4.054,4.054,0,0,1-1.168-3.039v-.219a5.106,5.106,0,0,1,.492-2.277,3.612,3.612,0,0,1,1.395-1.547,3.914,3.914,0,0,1,2.059-.543,3.508,3.508,0,0,1,2.73,1.094,4.444,4.444,0,0,1,1,3.1v.922H77.352a2.1,2.1,0,0,0,.66,1.328,2,2,0,0,0,1.395.5,2.437,2.437,0,0,0,2.039-.945l1.109,1.242a3.389,3.389,0,0,1-1.375,1.121A4.511,4.511,0,0,1,79.258,55.156ZM79,48.211a1.411,1.411,0,0,0-1.09.455,2.357,2.357,0,0,0-.535,1.3h3.141v-.181a1.681,1.681,0,0,0-.406-1.165A1.456,1.456,0,0,0,79,48.211Zm7.094-1.664.07.977a2.951,2.951,0,0,1,2.43-1.133,2.453,2.453,0,0,1,2,.789,3.682,3.682,0,0,1,.672,2.359V55H89.008V49.594a1.465,1.465,0,0,0-.312-1.043,1.4,1.4,0,0,0-1.039-.324,1.553,1.553,0,0,0-1.43.813V55H83.969V46.547Zm14.5,4.3a5.119,5.119,0,0,1-.867,3.168A2.872,2.872,0,0,1,97.3,55.156a2.639,2.639,0,0,1-2.2-1.055l-.1.9H92.977V43h2.258v4.3a2.571,2.571,0,0,1,2.055-.914,2.9,2.9,0,0,1,2.426,1.137,5.126,5.126,0,0,1,.879,3.2Zm-2.258-.164a3.363,3.363,0,0,0-.406-1.871,1.374,1.374,0,0,0-1.211-.59,1.489,1.489,0,0,0-1.484.883v3.336a1.509,1.509,0,0,0,1.5.891,1.394,1.394,0,0,0,1.438-1.078A5.562,5.562,0,0,0,98.336,50.688Zm8.4-2.023a6.134,6.134,0,0,0-.812-.062,1.654,1.654,0,0,0-1.68.867V55h-2.258V46.547h2.133l.063,1.008a2.092,2.092,0,0,1,1.883-1.164,2.366,2.366,0,0,1,.7.1Zm4.977,6.492a4.15,4.15,0,0,1-3.027-1.141,4.054,4.054,0,0,1-1.168-3.039v-.219a5.106,5.106,0,0,1,.492-2.277,3.612,3.612,0,0,1,1.395-1.547,3.914,3.914,0,0,1,2.059-.543,3.508,3.508,0,0,1,2.73,1.094,4.444,4.444,0,0,1,1,3.1v.922H109.8a2.1,2.1,0,0,0,.66,1.328,2,2,0,0,0,1.395.5,2.437,2.437,0,0,0,2.039-.945l1.109,1.242a3.389,3.389,0,0,1-1.375,1.121A4.511,4.511,0,0,1,111.711,55.156Zm-.258-6.945a1.411,1.411,0,0,0-1.09.455,2.357,2.357,0,0,0-.535,1.3h3.141v-.181a1.681,1.681,0,0,0-.406-1.165A1.456,1.456,0,0,0,111.453,48.211Zm7.094-1.664.07.977a2.951,2.951,0,0,1,2.43-1.133,2.453,2.453,0,0,1,2,.789,3.682,3.682,0,0,1,.672,2.359V55h-2.258V49.594a1.465,1.465,0,0,0-.312-1.043,1.4,1.4,0,0,0-1.039-.324,1.553,1.553,0,0,0-1.43.813V55h-2.258V46.547Zm8.961,0,.07.977a2.951,2.951,0,0,1,2.43-1.133,2.453,2.453,0,0,1,2,.789,3.682,3.682,0,0,1,.672,2.359V55h-2.258V49.594a1.465,1.465,0,0,0-.312-1.043,1.4,1.4,0,0,0-1.039-.324,1.553,1.553,0,0,0-1.43.813V55h-2.258V46.547Zm10.773,8.609a4.15,4.15,0,0,1-3.027-1.141,4.054,4.054,0,0,1-1.168-3.039v-.219a5.106,5.106,0,0,1,.492-2.277,3.612,3.612,0,0,1,1.395-1.547,3.914,3.914,0,0,1,2.059-.543,3.508,3.508,0,0,1,2.73,1.094,4.444,4.444,0,0,1,1,3.1v.922h-5.383a2.1,2.1,0,0,0,.66,1.328,2,2,0,0,0,1.395.5,2.437,2.437,0,0,0,2.039-.945l1.109,1.242a3.389,3.389,0,0,1-1.375,1.121A4.511,4.511,0,0,1,138.281,55.156Zm-.258-6.945a1.411,1.411,0,0,0-1.09.455,2.357,2.357,0,0,0-.535,1.3h3.141v-.181a1.681,1.681,0,0,0-.406-1.165A1.456,1.456,0,0,0,138.023,48.211Zm9.766.453a6.134,6.134,0,0,0-.812-.062,1.654,1.654,0,0,0-1.68.867V55h-2.258V46.547h2.133l.063,1.008a2.092,2.092,0,0,1,1.883-1.164,2.366,2.366,0,0,1,.7.1Z" transform="translate(705 9110.753)" fill="#12263f"/>
    <path id="Trazado_655046" data-name="Trazado 655046" d="M24.316,13.211A4.025,4.025,0,0,1,22.961,16.1a4.76,4.76,0,0,1-3.223,1.055A4.28,4.28,0,0,1,16.3,15.684a6.038,6.038,0,0,1-1.254-4.043v-.7a6.819,6.819,0,0,1,.578-2.891,4.332,4.332,0,0,1,1.652-1.918,4.629,4.629,0,0,1,2.5-.668,4.637,4.637,0,0,1,3.172,1.055,4.326,4.326,0,0,1,1.391,2.961H21.988a2.376,2.376,0,0,0-.613-1.6,2.271,2.271,0,0,0-1.605-.5,1.991,1.991,0,0,0-1.754.84,4.707,4.707,0,0,0-.6,2.605V11.7a5.038,5.038,0,0,0,.559,2.7,1.954,1.954,0,0,0,1.762.852,2.314,2.314,0,0,0,1.621-.5,2.241,2.241,0,0,0,.613-1.535Zm6.141-2.547a6.134,6.134,0,0,0-.812-.062,1.654,1.654,0,0,0-1.68.867V17H25.707V8.547H27.84L27.9,9.555a2.092,2.092,0,0,1,1.883-1.164,2.366,2.366,0,0,1,.7.1ZM30.91,12.7a5.013,5.013,0,0,1,.484-2.242A3.546,3.546,0,0,1,32.789,8.93,4.069,4.069,0,0,1,34.9,8.391,3.849,3.849,0,0,1,37.7,9.438,4.2,4.2,0,0,1,38.9,12.281l.016.578a4.418,4.418,0,0,1-1.086,3.121,4.209,4.209,0,0,1-5.832,0A4.5,4.5,0,0,1,30.91,12.8Zm2.258.16a3.16,3.16,0,0,0,.453,1.843,1.628,1.628,0,0,0,2.578.008,3.457,3.457,0,0,0,.461-2.015A3.128,3.128,0,0,0,36.2,10.86a1.5,1.5,0,0,0-1.3-.649,1.474,1.474,0,0,0-1.281.646A3.516,3.516,0,0,0,33.168,12.856Zm9.219-4.309.07.977a2.951,2.951,0,0,1,2.43-1.133,2.453,2.453,0,0,1,2,.789,3.682,3.682,0,0,1,.672,2.359V17H45.3V11.594a1.465,1.465,0,0,0-.312-1.043,1.4,1.4,0,0,0-1.039-.324,1.553,1.553,0,0,0-1.43.813V17H40.262V8.547ZM48.918,12.7a5.013,5.013,0,0,1,.484-2.242A3.546,3.546,0,0,1,50.8,8.93a4.069,4.069,0,0,1,2.113-.539A3.849,3.849,0,0,1,55.7,9.438a4.2,4.2,0,0,1,1.207,2.844l.016.578A4.418,4.418,0,0,1,55.84,15.98a4.209,4.209,0,0,1-5.832,0,4.5,4.5,0,0,1-1.09-3.187Zm2.258.16a3.16,3.16,0,0,0,.453,1.843,1.628,1.628,0,0,0,2.578.008,3.457,3.457,0,0,0,.461-2.015,3.128,3.128,0,0,0-.461-1.831,1.5,1.5,0,0,0-1.3-.649,1.474,1.474,0,0,0-1.281.646A3.516,3.516,0,0,0,51.176,12.856Zm11.719,1.808a.727.727,0,0,0-.41-.652,4.659,4.659,0,0,0-1.316-.426q-3.016-.633-3.016-2.562a2.323,2.323,0,0,1,.934-1.879,3.766,3.766,0,0,1,2.441-.754,4.053,4.053,0,0,1,2.574.758,2.388,2.388,0,0,1,.965,1.969H62.809a1.092,1.092,0,0,0-.312-.8A1.322,1.322,0,0,0,61.52,10a1.351,1.351,0,0,0-.883.258.814.814,0,0,0-.312.656.7.7,0,0,0,.355.605,3.657,3.657,0,0,0,1.2.4A9.8,9.8,0,0,1,63.3,12.3,2.336,2.336,0,0,1,65.09,14.57a2.2,2.2,0,0,1-.992,1.871,4.28,4.28,0,0,1-2.562.715,4.47,4.47,0,0,1-1.887-.379,3.166,3.166,0,0,1-1.293-1.039,2.414,2.414,0,0,1-.469-1.426h2.141a1.179,1.179,0,0,0,.445.922,1.766,1.766,0,0,0,1.109.32,1.635,1.635,0,0,0,.98-.246A.766.766,0,0,0,62.895,14.664ZM68.926,17H66.66V8.547h2.266Zm-2.4-10.641a1.112,1.112,0,0,1,.34-.836,1.465,1.465,0,0,1,1.848,0,1.105,1.105,0,0,1,.344.836,1.108,1.108,0,0,1-.348.844,1.448,1.448,0,0,1-1.836,0A1.108,1.108,0,0,1,66.527,6.359Zm8.836,8.3a.727.727,0,0,0-.41-.652,4.659,4.659,0,0,0-1.316-.426q-3.016-.633-3.016-2.562a2.323,2.323,0,0,1,.934-1.879A3.766,3.766,0,0,1,74,8.391a4.053,4.053,0,0,1,2.574.758,2.388,2.388,0,0,1,.965,1.969H75.277a1.092,1.092,0,0,0-.312-.8A1.322,1.322,0,0,0,73.988,10a1.351,1.351,0,0,0-.883.258.814.814,0,0,0-.312.656.7.7,0,0,0,.355.605,3.657,3.657,0,0,0,1.2.4,9.8,9.8,0,0,1,1.422.379,2.336,2.336,0,0,1,1.789,2.273,2.2,2.2,0,0,1-.992,1.871A4.28,4.28,0,0,1,74,17.156a4.47,4.47,0,0,1-1.887-.379,3.166,3.166,0,0,1-1.293-1.039,2.414,2.414,0,0,1-.469-1.426H72.5a1.179,1.179,0,0,0,.445.922,1.766,1.766,0,0,0,1.109.32,1.635,1.635,0,0,0,.98-.246A.766.766,0,0,0,75.363,14.664Zm6.352-8.2V8.547H83.16V10.2H81.715v4.219a1.007,1.007,0,0,0,.18.672.9.9,0,0,0,.688.2,3.6,3.6,0,0,0,.664-.055v1.711a4.648,4.648,0,0,1-1.367.2,2.156,2.156,0,0,1-2.422-2.4V10.2H78.223V8.547h1.234V6.469Zm6.594,10.688a4.15,4.15,0,0,1-3.027-1.141,4.054,4.054,0,0,1-1.168-3.039v-.219a5.106,5.106,0,0,1,.492-2.277A3.612,3.612,0,0,1,86,8.934a3.914,3.914,0,0,1,2.059-.543,3.508,3.508,0,0,1,2.73,1.094,4.444,4.444,0,0,1,1,3.1v.922H86.4a2.1,2.1,0,0,0,.66,1.328,2,2,0,0,0,1.395.5,2.437,2.437,0,0,0,2.039-.945l1.109,1.242a3.389,3.389,0,0,1-1.375,1.121A4.511,4.511,0,0,1,88.309,17.156Zm-.258-6.945a1.411,1.411,0,0,0-1.09.455,2.357,2.357,0,0,0-.535,1.3h3.141v-.181a1.681,1.681,0,0,0-.406-1.165A1.456,1.456,0,0,0,88.051,10.211Zm7.133-1.664.07.945a2.971,2.971,0,0,1,2.43-1.1A2.255,2.255,0,0,1,99.926,9.68a2.9,2.9,0,0,1,2.539-1.289,2.521,2.521,0,0,1,2.047.8,3.681,3.681,0,0,1,.672,2.41V17h-2.266V11.609a1.61,1.61,0,0,0-.281-1.051,1.246,1.246,0,0,0-.992-.332,1.409,1.409,0,0,0-1.406.969l.008,5.8H97.988V11.617a1.59,1.59,0,0,0-.289-1.062,1.259,1.259,0,0,0-.984-.328,1.463,1.463,0,0,0-1.391.8V17H93.066V8.547ZM111.816,17a2.507,2.507,0,0,1-.227-.758,2.732,2.732,0,0,1-2.133.914,3,3,0,0,1-2.059-.719,2.312,2.312,0,0,1-.816-1.812,2.389,2.389,0,0,1,1-2.062,4.915,4.915,0,0,1,2.879-.727H111.5v-.484a1.393,1.393,0,0,0-.3-.937,1.183,1.183,0,0,0-.949-.352,1.345,1.345,0,0,0-.895.273.929.929,0,0,0-.324.75H106.77a2.268,2.268,0,0,1,.453-1.359,3,3,0,0,1,1.281-.98,4.669,4.669,0,0,1,1.859-.355,3.689,3.689,0,0,1,2.48.785,2.747,2.747,0,0,1,.918,2.207v3.664a4.041,4.041,0,0,0,.336,1.82V17Zm-1.867-1.57a1.945,1.945,0,0,0,.922-.223,1.462,1.462,0,0,0,.625-.6V13.156h-.844q-1.7,0-1.8,1.172l-.008.133a.9.9,0,0,0,.3.7A1.153,1.153,0,0,0,109.949,15.43Z" transform="translate(475 8805.219)" fill="#12263f"/>
    <path id="Trazado_655047" data-name="Trazado 655047" d="M17.219,5.625l2.922,8.25,2.906-8.25h3.078V17H23.773V13.891l.234-5.367L20.938,17H19.328L16.266,8.531l.234,5.359V17H14.156V5.625ZM32.922,17a2.507,2.507,0,0,1-.227-.758,2.732,2.732,0,0,1-2.133.914,3,3,0,0,1-2.059-.719,2.312,2.312,0,0,1-.816-1.812,2.389,2.389,0,0,1,1-2.062,4.915,4.915,0,0,1,2.879-.727H32.6v-.484a1.393,1.393,0,0,0-.3-.937,1.183,1.183,0,0,0-.949-.352,1.345,1.345,0,0,0-.895.273.929.929,0,0,0-.324.75H27.875a2.268,2.268,0,0,1,.453-1.359,3,3,0,0,1,1.281-.98,4.669,4.669,0,0,1,1.859-.355,3.689,3.689,0,0,1,2.48.785,2.747,2.747,0,0,1,.918,2.207v3.664a4.041,4.041,0,0,0,.336,1.82V17Zm-1.867-1.57a1.945,1.945,0,0,0,.922-.223,1.462,1.462,0,0,0,.625-.6V13.156h-.844q-1.7,0-1.8,1.172l-.008.133a.9.9,0,0,0,.3.7A1.153,1.153,0,0,0,31.055,15.43Zm9.063-.094a1.481,1.481,0,0,0,1.016-.344,1.2,1.2,0,0,0,.406-.914h2.117a2.9,2.9,0,0,1-.469,1.574,3.093,3.093,0,0,1-1.262,1.109,3.949,3.949,0,0,1-1.77.395A3.67,3.67,0,0,1,37.3,16,4.56,4.56,0,0,1,36.25,12.82v-.148a4.508,4.508,0,0,1,1.039-3.117,3.627,3.627,0,0,1,2.852-1.164,3.555,3.555,0,0,1,2.543.9,3.2,3.2,0,0,1,.973,2.4H41.539a1.551,1.551,0,0,0-.406-1.072,1.51,1.51,0,0,0-2.223.163,3.333,3.333,0,0,0-.4,1.866v.235a3.375,3.375,0,0,0,.4,1.878A1.377,1.377,0,0,0,40.117,15.336ZM49.7,10.664a6.134,6.134,0,0,0-.812-.062,1.654,1.654,0,0,0-1.68.867V17H44.945V8.547h2.133l.063,1.008a2.092,2.092,0,0,1,1.883-1.164,2.366,2.366,0,0,1,.7.1Zm.453,2.031a5.013,5.013,0,0,1,.484-2.242A3.546,3.546,0,0,1,52.027,8.93a4.069,4.069,0,0,1,2.113-.539,3.849,3.849,0,0,1,2.793,1.047,4.2,4.2,0,0,1,1.207,2.844l.016.578A4.418,4.418,0,0,1,57.07,15.98a4.209,4.209,0,0,1-5.832,0,4.5,4.5,0,0,1-1.09-3.187Zm2.258.16a3.16,3.16,0,0,0,.453,1.843,1.628,1.628,0,0,0,2.578.008,3.457,3.457,0,0,0,.461-2.015,3.128,3.128,0,0,0-.461-1.831,1.5,1.5,0,0,0-1.3-.649,1.474,1.474,0,0,0-1.281.646A3.516,3.516,0,0,0,52.406,12.856Zm11.719,1.808a.727.727,0,0,0-.41-.652,4.659,4.659,0,0,0-1.316-.426q-3.016-.633-3.016-2.562a2.323,2.323,0,0,1,.934-1.879,3.766,3.766,0,0,1,2.441-.754,4.053,4.053,0,0,1,2.574.758,2.388,2.388,0,0,1,.965,1.969H64.039a1.092,1.092,0,0,0-.312-.8A1.322,1.322,0,0,0,62.75,10a1.351,1.351,0,0,0-.883.258.814.814,0,0,0-.312.656.7.7,0,0,0,.355.605,3.657,3.657,0,0,0,1.2.4,9.8,9.8,0,0,1,1.422.379A2.336,2.336,0,0,1,66.32,14.57a2.2,2.2,0,0,1-.992,1.871,4.28,4.28,0,0,1-2.562.715,4.47,4.47,0,0,1-1.887-.379,3.166,3.166,0,0,1-1.293-1.039,2.414,2.414,0,0,1-.469-1.426h2.141a1.179,1.179,0,0,0,.445.922,1.766,1.766,0,0,0,1.109.32,1.635,1.635,0,0,0,.98-.246A.766.766,0,0,0,64.125,14.664ZM70.156,17H67.891V8.547h2.266Zm-2.4-10.641a1.112,1.112,0,0,1,.34-.836,1.465,1.465,0,0,1,1.848,0,1.105,1.105,0,0,1,.344.836,1.108,1.108,0,0,1-.348.844,1.448,1.448,0,0,1-1.836,0A1.108,1.108,0,0,1,67.758,6.359Zm8.836,8.3a.727.727,0,0,0-.41-.652,4.659,4.659,0,0,0-1.316-.426q-3.016-.633-3.016-2.562a2.323,2.323,0,0,1,.934-1.879,3.766,3.766,0,0,1,2.441-.754,4.053,4.053,0,0,1,2.574.758,2.388,2.388,0,0,1,.965,1.969H76.508a1.092,1.092,0,0,0-.312-.8A1.322,1.322,0,0,0,75.219,10a1.351,1.351,0,0,0-.883.258.814.814,0,0,0-.312.656.7.7,0,0,0,.355.605,3.657,3.657,0,0,0,1.2.4A9.8,9.8,0,0,1,77,12.3a2.336,2.336,0,0,1,1.789,2.273,2.2,2.2,0,0,1-.992,1.871,4.28,4.28,0,0,1-2.562.715,4.47,4.47,0,0,1-1.887-.379,3.166,3.166,0,0,1-1.293-1.039,2.414,2.414,0,0,1-.469-1.426h2.141a1.179,1.179,0,0,0,.445.922,1.766,1.766,0,0,0,1.109.32,1.635,1.635,0,0,0,.98-.246A.766.766,0,0,0,76.594,14.664Zm6.352-8.2V8.547h1.445V10.2H82.945v4.219a1.007,1.007,0,0,0,.18.672.9.9,0,0,0,.688.2,3.6,3.6,0,0,0,.664-.055v1.711a4.648,4.648,0,0,1-1.367.2,2.156,2.156,0,0,1-2.422-2.4V10.2H79.453V8.547h1.234V6.469Zm6.594,10.688a4.15,4.15,0,0,1-3.027-1.141,4.054,4.054,0,0,1-1.168-3.039v-.219a5.106,5.106,0,0,1,.492-2.277A3.612,3.612,0,0,1,87.23,8.934a3.914,3.914,0,0,1,2.059-.543,3.508,3.508,0,0,1,2.73,1.094,4.444,4.444,0,0,1,1,3.1v.922H87.633a2.1,2.1,0,0,0,.66,1.328,2,2,0,0,0,1.395.5,2.437,2.437,0,0,0,2.039-.945l1.109,1.242a3.389,3.389,0,0,1-1.375,1.121A4.511,4.511,0,0,1,89.539,17.156Zm-.258-6.945a1.411,1.411,0,0,0-1.09.455,2.357,2.357,0,0,0-.535,1.3H90.8v-.181a1.681,1.681,0,0,0-.406-1.165A1.456,1.456,0,0,0,89.281,10.211Zm7.133-1.664.07.945a2.971,2.971,0,0,1,2.43-1.1,2.255,2.255,0,0,1,2.242,1.289A2.9,2.9,0,0,1,103.7,8.391a2.521,2.521,0,0,1,2.047.8,3.681,3.681,0,0,1,.672,2.41V17h-2.266V11.609a1.61,1.61,0,0,0-.281-1.051,1.246,1.246,0,0,0-.992-.332,1.409,1.409,0,0,0-1.406.969l.008,5.8H99.219V11.617a1.59,1.59,0,0,0-.289-1.062,1.259,1.259,0,0,0-.984-.328,1.463,1.463,0,0,0-1.391.8V17H94.3V8.547ZM113.047,17a2.507,2.507,0,0,1-.227-.758,2.732,2.732,0,0,1-2.133.914,3,3,0,0,1-2.059-.719,2.312,2.312,0,0,1-.816-1.812,2.389,2.389,0,0,1,1-2.062,4.915,4.915,0,0,1,2.879-.727h1.039v-.484a1.393,1.393,0,0,0-.3-.937,1.183,1.183,0,0,0-.949-.352,1.345,1.345,0,0,0-.895.273.929.929,0,0,0-.324.75H108a2.268,2.268,0,0,1,.453-1.359,3,3,0,0,1,1.281-.98,4.669,4.669,0,0,1,1.859-.355,3.689,3.689,0,0,1,2.48.785,2.747,2.747,0,0,1,.918,2.207v3.664a4.041,4.041,0,0,0,.336,1.82V17Zm-1.867-1.57a1.945,1.945,0,0,0,.922-.223,1.462,1.462,0,0,0,.625-.6V13.156h-.844q-1.7,0-1.8,1.172l-.008.133a.9.9,0,0,0,.3.7A1.153,1.153,0,0,0,111.18,15.43Z" transform="translate(991 8805.219)" fill="#12263f"/>
    <path id="Trazado_655048" data-name="Trazado 655048" d="M30.832,12.07h-4.5v3.047h5.281V17H23.988V5.625H31.6v1.9H26.332v2.711h4.5Zm5.227-1L37.48,8.547h2.414l-2.406,4.141L40,17H37.574l-1.508-2.656L34.566,17h-2.43l2.508-4.312-2.4-4.141h2.422ZM40.316,12.7a5.013,5.013,0,0,1,.484-2.242A3.546,3.546,0,0,1,42.2,8.93a4.069,4.069,0,0,1,2.113-.539A3.849,3.849,0,0,1,47.1,9.438a4.2,4.2,0,0,1,1.207,2.844l.016.578a4.418,4.418,0,0,1-1.086,3.121,4.209,4.209,0,0,1-5.832,0,4.5,4.5,0,0,1-1.09-3.187Zm2.258.16a3.16,3.16,0,0,0,.453,1.843,1.628,1.628,0,0,0,2.578.008,3.457,3.457,0,0,0,.461-2.015,3.128,3.128,0,0,0-.461-1.831,1.5,1.5,0,0,0-1.3-.649,1.474,1.474,0,0,0-1.281.646A3.516,3.516,0,0,0,42.574,12.856Zm11.719,1.808a.727.727,0,0,0-.41-.652,4.659,4.659,0,0,0-1.316-.426q-3.016-.633-3.016-2.562a2.323,2.323,0,0,1,.934-1.879,3.766,3.766,0,0,1,2.441-.754,4.053,4.053,0,0,1,2.574.758,2.388,2.388,0,0,1,.965,1.969H54.207a1.092,1.092,0,0,0-.312-.8A1.322,1.322,0,0,0,52.918,10a1.351,1.351,0,0,0-.883.258.814.814,0,0,0-.312.656.7.7,0,0,0,.355.605,3.657,3.657,0,0,0,1.2.4A9.8,9.8,0,0,1,54.7,12.3a2.336,2.336,0,0,1,1.789,2.273,2.2,2.2,0,0,1-.992,1.871,4.28,4.28,0,0,1-2.562.715,4.47,4.47,0,0,1-1.887-.379,3.166,3.166,0,0,1-1.293-1.039,2.414,2.414,0,0,1-.469-1.426h2.141a1.179,1.179,0,0,0,.445.922,1.766,1.766,0,0,0,1.109.32,1.635,1.635,0,0,0,.98-.246A.766.766,0,0,0,54.293,14.664ZM60.324,17H58.059V8.547h2.266Zm-2.4-10.641a1.112,1.112,0,0,1,.34-.836,1.465,1.465,0,0,1,1.848,0,1.105,1.105,0,0,1,.344.836,1.108,1.108,0,0,1-.348.844,1.448,1.448,0,0,1-1.836,0A1.108,1.108,0,0,1,57.926,6.359Zm8.836,8.3a.727.727,0,0,0-.41-.652,4.659,4.659,0,0,0-1.316-.426q-3.016-.633-3.016-2.562a2.323,2.323,0,0,1,.934-1.879,3.766,3.766,0,0,1,2.441-.754,4.053,4.053,0,0,1,2.574.758,2.388,2.388,0,0,1,.965,1.969H66.676a1.092,1.092,0,0,0-.312-.8A1.322,1.322,0,0,0,65.387,10a1.351,1.351,0,0,0-.883.258.814.814,0,0,0-.312.656.7.7,0,0,0,.355.605,3.657,3.657,0,0,0,1.2.4,9.8,9.8,0,0,1,1.422.379,2.336,2.336,0,0,1,1.789,2.273,2.2,2.2,0,0,1-.992,1.871,4.28,4.28,0,0,1-2.562.715,4.47,4.47,0,0,1-1.887-.379,3.166,3.166,0,0,1-1.293-1.039,2.414,2.414,0,0,1-.469-1.426h2.141a1.179,1.179,0,0,0,.445.922,1.766,1.766,0,0,0,1.109.32,1.635,1.635,0,0,0,.98-.246A.766.766,0,0,0,66.762,14.664Zm6.352-8.2V8.547h1.445V10.2H73.113v4.219a1.007,1.007,0,0,0,.18.672.9.9,0,0,0,.688.2,3.6,3.6,0,0,0,.664-.055v1.711a4.648,4.648,0,0,1-1.367.2,2.156,2.156,0,0,1-2.422-2.4V10.2H69.621V8.547h1.234V6.469Zm6.594,10.688a4.15,4.15,0,0,1-3.027-1.141,4.054,4.054,0,0,1-1.168-3.039v-.219A5.106,5.106,0,0,1,76,10.48,3.612,3.612,0,0,1,77.4,8.934a3.914,3.914,0,0,1,2.059-.543,3.508,3.508,0,0,1,2.73,1.094,4.444,4.444,0,0,1,1,3.1v.922H77.8a2.1,2.1,0,0,0,.66,1.328,2,2,0,0,0,1.395.5,2.437,2.437,0,0,0,2.039-.945L83,15.633a3.389,3.389,0,0,1-1.375,1.121A4.511,4.511,0,0,1,79.707,17.156Zm-.258-6.945a1.411,1.411,0,0,0-1.09.455,2.357,2.357,0,0,0-.535,1.3h3.141v-.181a1.681,1.681,0,0,0-.406-1.165A1.456,1.456,0,0,0,79.449,10.211Zm7.133-1.664.07.945a2.971,2.971,0,0,1,2.43-1.1A2.255,2.255,0,0,1,91.324,9.68a2.9,2.9,0,0,1,2.539-1.289,2.521,2.521,0,0,1,2.047.8,3.681,3.681,0,0,1,.672,2.41V17H94.316V11.609a1.61,1.61,0,0,0-.281-1.051,1.246,1.246,0,0,0-.992-.332,1.409,1.409,0,0,0-1.406.969l.008,5.8H89.387V11.617a1.59,1.59,0,0,0-.289-1.062,1.259,1.259,0,0,0-.984-.328,1.463,1.463,0,0,0-1.391.8V17H84.465V8.547ZM103.215,17a2.507,2.507,0,0,1-.227-.758,2.732,2.732,0,0,1-2.133.914,3,3,0,0,1-2.059-.719,2.312,2.312,0,0,1-.816-1.812,2.389,2.389,0,0,1,1-2.062,4.915,4.915,0,0,1,2.879-.727h1.039v-.484a1.393,1.393,0,0,0-.3-.937,1.183,1.183,0,0,0-.949-.352,1.345,1.345,0,0,0-.895.273.929.929,0,0,0-.324.75H98.168a2.268,2.268,0,0,1,.453-1.359,3,3,0,0,1,1.281-.98,4.669,4.669,0,0,1,1.859-.355,3.689,3.689,0,0,1,2.48.785,2.747,2.747,0,0,1,.918,2.207v3.664a4.041,4.041,0,0,0,.336,1.82V17Zm-1.867-1.57a1.945,1.945,0,0,0,.922-.223,1.462,1.462,0,0,0,.625-.6V13.156h-.844q-1.7,0-1.8,1.172l-.008.133a.9.9,0,0,0,.3.7A1.153,1.153,0,0,0,101.348,15.43Z" transform="translate(1081 9064.219)" fill="#12263f"/>
    <path id="Trazado_655051" data-name="Trazado 655051" d="M15.02,5.625l2.922,8.25,2.906-8.25h3.078V17H21.574V13.891l.234-5.367L18.738,17H17.129L14.066,8.531l.234,5.359V17H11.957V5.625Zm14.7,11.531a4.15,4.15,0,0,1-3.027-1.141,4.054,4.054,0,0,1-1.168-3.039v-.219a5.106,5.106,0,0,1,.492-2.277,3.612,3.612,0,0,1,1.395-1.547,3.914,3.914,0,0,1,2.059-.543A3.508,3.508,0,0,1,32.2,9.484a4.444,4.444,0,0,1,1,3.1v.922H27.809a2.1,2.1,0,0,0,.66,1.328,2,2,0,0,0,1.395.5,2.437,2.437,0,0,0,2.039-.945l1.109,1.242a3.389,3.389,0,0,1-1.375,1.121A4.511,4.511,0,0,1,29.715,17.156Zm-.258-6.945a1.411,1.411,0,0,0-1.09.455,2.357,2.357,0,0,0-.535,1.3h3.141v-.181a1.681,1.681,0,0,0-.406-1.165A1.456,1.456,0,0,0,29.457,10.211Zm9.594,4.453a.727.727,0,0,0-.41-.652,4.659,4.659,0,0,0-1.316-.426q-3.016-.633-3.016-2.562a2.323,2.323,0,0,1,.934-1.879,3.766,3.766,0,0,1,2.441-.754,4.053,4.053,0,0,1,2.574.758,2.388,2.388,0,0,1,.965,1.969H38.965a1.092,1.092,0,0,0-.312-.8A1.322,1.322,0,0,0,37.676,10a1.351,1.351,0,0,0-.883.258.814.814,0,0,0-.312.656.7.7,0,0,0,.355.605,3.657,3.657,0,0,0,1.2.4,9.8,9.8,0,0,1,1.422.379,2.336,2.336,0,0,1,1.789,2.273,2.2,2.2,0,0,1-.992,1.871,4.28,4.28,0,0,1-2.562.715,4.47,4.47,0,0,1-1.887-.379,3.166,3.166,0,0,1-1.293-1.039,2.414,2.414,0,0,1-.469-1.426h2.141a1.179,1.179,0,0,0,.445.922,1.766,1.766,0,0,0,1.109.32,1.635,1.635,0,0,0,.98-.246A.766.766,0,0,0,39.051,14.664Zm3.3-1.969a5.013,5.013,0,0,1,.484-2.242A3.546,3.546,0,0,1,44.227,8.93a4.069,4.069,0,0,1,2.113-.539,3.849,3.849,0,0,1,2.793,1.047,4.2,4.2,0,0,1,1.207,2.844l.016.578A4.418,4.418,0,0,1,49.27,15.98a4.209,4.209,0,0,1-5.832,0,4.5,4.5,0,0,1-1.09-3.187Zm2.258.16a3.16,3.16,0,0,0,.453,1.843,1.628,1.628,0,0,0,2.578.008,3.457,3.457,0,0,0,.461-2.015,3.128,3.128,0,0,0-.461-1.831,1.5,1.5,0,0,0-1.3-.649,1.474,1.474,0,0,0-1.281.646A3.516,3.516,0,0,0,44.605,12.856Zm11.719,1.808a.727.727,0,0,0-.41-.652,4.659,4.659,0,0,0-1.316-.426q-3.016-.633-3.016-2.562a2.323,2.323,0,0,1,.934-1.879,3.766,3.766,0,0,1,2.441-.754,4.053,4.053,0,0,1,2.574.758,2.388,2.388,0,0,1,.965,1.969H56.238a1.092,1.092,0,0,0-.312-.8A1.322,1.322,0,0,0,54.949,10a1.351,1.351,0,0,0-.883.258.814.814,0,0,0-.312.656.7.7,0,0,0,.355.605,3.657,3.657,0,0,0,1.2.4,9.8,9.8,0,0,1,1.422.379A2.336,2.336,0,0,1,58.52,14.57a2.2,2.2,0,0,1-.992,1.871,4.28,4.28,0,0,1-2.562.715,4.47,4.47,0,0,1-1.887-.379,3.166,3.166,0,0,1-1.293-1.039,2.414,2.414,0,0,1-.469-1.426h2.141a1.179,1.179,0,0,0,.445.922,1.766,1.766,0,0,0,1.109.32,1.635,1.635,0,0,0,.98-.246A.766.766,0,0,0,56.324,14.664ZM62.355,17H60.09V8.547h2.266Zm-2.4-10.641a1.112,1.112,0,0,1,.34-.836,1.465,1.465,0,0,1,1.848,0,1.105,1.105,0,0,1,.344.836,1.108,1.108,0,0,1-.348.844,1.448,1.448,0,0,1-1.836,0A1.108,1.108,0,0,1,59.957,6.359Zm8.836,8.3a.727.727,0,0,0-.41-.652,4.659,4.659,0,0,0-1.316-.426q-3.016-.633-3.016-2.562a2.323,2.323,0,0,1,.934-1.879,3.766,3.766,0,0,1,2.441-.754A4.053,4.053,0,0,1,70,9.148a2.388,2.388,0,0,1,.965,1.969H68.707a1.092,1.092,0,0,0-.312-.8A1.322,1.322,0,0,0,67.418,10a1.351,1.351,0,0,0-.883.258.814.814,0,0,0-.312.656.7.7,0,0,0,.355.605,3.657,3.657,0,0,0,1.2.4A9.8,9.8,0,0,1,69.2,12.3a2.336,2.336,0,0,1,1.789,2.273A2.2,2.2,0,0,1,70,16.441a4.28,4.28,0,0,1-2.562.715,4.47,4.47,0,0,1-1.887-.379,3.166,3.166,0,0,1-1.293-1.039,2.414,2.414,0,0,1-.469-1.426h2.141a1.179,1.179,0,0,0,.445.922,1.766,1.766,0,0,0,1.109.32,1.635,1.635,0,0,0,.98-.246A.766.766,0,0,0,68.793,14.664Zm6.352-8.2V8.547H76.59V10.2H75.145v4.219a1.007,1.007,0,0,0,.18.672.9.9,0,0,0,.688.2,3.6,3.6,0,0,0,.664-.055v1.711a4.648,4.648,0,0,1-1.367.2,2.156,2.156,0,0,1-2.422-2.4V10.2H71.652V8.547h1.234V6.469Zm6.594,10.688a4.15,4.15,0,0,1-3.027-1.141,4.054,4.054,0,0,1-1.168-3.039v-.219a5.106,5.106,0,0,1,.492-2.277A3.612,3.612,0,0,1,79.43,8.934a3.914,3.914,0,0,1,2.059-.543,3.508,3.508,0,0,1,2.73,1.094,4.444,4.444,0,0,1,1,3.1v.922H79.832a2.1,2.1,0,0,0,.66,1.328,2,2,0,0,0,1.395.5,2.437,2.437,0,0,0,2.039-.945l1.109,1.242a3.389,3.389,0,0,1-1.375,1.121A4.511,4.511,0,0,1,81.738,17.156Zm-.258-6.945a1.411,1.411,0,0,0-1.09.455,2.357,2.357,0,0,0-.535,1.3H83v-.181a1.681,1.681,0,0,0-.406-1.165A1.456,1.456,0,0,0,81.48,10.211Zm7.133-1.664.07.945a2.971,2.971,0,0,1,2.43-1.1A2.255,2.255,0,0,1,93.355,9.68a2.9,2.9,0,0,1,2.539-1.289,2.521,2.521,0,0,1,2.047.8,3.681,3.681,0,0,1,.672,2.41V17H96.348V11.609a1.61,1.61,0,0,0-.281-1.051,1.246,1.246,0,0,0-.992-.332,1.409,1.409,0,0,0-1.406.969l.008,5.8H91.418V11.617a1.59,1.59,0,0,0-.289-1.062,1.259,1.259,0,0,0-.984-.328,1.463,1.463,0,0,0-1.391.8V17H86.5V8.547ZM105.246,17a2.507,2.507,0,0,1-.227-.758,2.732,2.732,0,0,1-2.133.914,3,3,0,0,1-2.059-.719,2.312,2.312,0,0,1-.816-1.812,2.389,2.389,0,0,1,1-2.062,4.915,4.915,0,0,1,2.879-.727h1.039v-.484a1.393,1.393,0,0,0-.3-.937,1.183,1.183,0,0,0-.949-.352,1.345,1.345,0,0,0-.895.273.929.929,0,0,0-.324.75H100.2a2.268,2.268,0,0,1,.453-1.359,3,3,0,0,1,1.281-.98,4.669,4.669,0,0,1,1.859-.355,3.689,3.689,0,0,1,2.48.785,2.747,2.747,0,0,1,.918,2.207v3.664a4.041,4.041,0,0,0,.336,1.82V17Zm-1.867-1.57a1.945,1.945,0,0,0,.922-.223,1.462,1.462,0,0,0,.625-.6V13.156h-.844q-1.7,0-1.8,1.172l-.008.133a.9.9,0,0,0,.3.7A1.153,1.153,0,0,0,103.379,15.43Z" transform="translate(397 9064.219)" fill="#12263f"/>
    <path id="Trazado_655050" data-name="Trazado 655050" d="M19.387,5.625l2.922,8.25,2.906-8.25h3.078V17H25.941V13.891l.234-5.367L23.105,17H21.5L18.434,8.531l.234,5.359V17H16.324V5.625ZM32.574,17H30.309V8.547h2.266Zm-2.4-10.641a1.112,1.112,0,0,1,.34-.836,1.465,1.465,0,0,1,1.848,0,1.105,1.105,0,0,1,.344.836,1.108,1.108,0,0,1-.348.844,1.448,1.448,0,0,1-1.836,0A1.108,1.108,0,0,1,30.176,6.359Zm7.773,8.977a1.481,1.481,0,0,0,1.016-.344,1.2,1.2,0,0,0,.406-.914h2.117a2.9,2.9,0,0,1-.469,1.574,3.093,3.093,0,0,1-1.262,1.109,3.949,3.949,0,0,1-1.77.395A3.67,3.67,0,0,1,35.129,16a4.56,4.56,0,0,1-1.047-3.184v-.148a4.508,4.508,0,0,1,1.039-3.117,3.627,3.627,0,0,1,2.852-1.164,3.555,3.555,0,0,1,2.543.9,3.2,3.2,0,0,1,.973,2.4H39.371a1.551,1.551,0,0,0-.406-1.072,1.51,1.51,0,0,0-2.223.163,3.333,3.333,0,0,0-.4,1.866v.235a3.375,3.375,0,0,0,.4,1.878A1.377,1.377,0,0,0,37.949,15.336Zm9.578-4.672a6.134,6.134,0,0,0-.812-.062,1.654,1.654,0,0,0-1.68.867V17H42.777V8.547H44.91l.063,1.008a2.092,2.092,0,0,1,1.883-1.164,2.366,2.366,0,0,1,.7.1ZM47.98,12.7a5.013,5.013,0,0,1,.484-2.242A3.546,3.546,0,0,1,49.859,8.93a4.069,4.069,0,0,1,2.113-.539,3.849,3.849,0,0,1,2.793,1.047,4.2,4.2,0,0,1,1.207,2.844l.016.578A4.418,4.418,0,0,1,54.9,15.98a4.209,4.209,0,0,1-5.832,0A4.5,4.5,0,0,1,47.98,12.8Zm2.258.16a3.16,3.16,0,0,0,.453,1.843,1.628,1.628,0,0,0,2.578.008,3.457,3.457,0,0,0,.461-2.015,3.128,3.128,0,0,0-.461-1.831,1.5,1.5,0,0,0-1.3-.649,1.474,1.474,0,0,0-1.281.646A3.516,3.516,0,0,0,50.238,12.856Zm11.719,1.808a.727.727,0,0,0-.41-.652,4.659,4.659,0,0,0-1.316-.426q-3.016-.633-3.016-2.562a2.323,2.323,0,0,1,.934-1.879,3.766,3.766,0,0,1,2.441-.754,4.053,4.053,0,0,1,2.574.758,2.388,2.388,0,0,1,.965,1.969H61.871a1.092,1.092,0,0,0-.312-.8A1.322,1.322,0,0,0,60.582,10a1.351,1.351,0,0,0-.883.258.814.814,0,0,0-.312.656.7.7,0,0,0,.355.605,3.657,3.657,0,0,0,1.2.4,9.8,9.8,0,0,1,1.422.379,2.336,2.336,0,0,1,1.789,2.273,2.2,2.2,0,0,1-.992,1.871,4.28,4.28,0,0,1-2.562.715,4.47,4.47,0,0,1-1.887-.379,3.166,3.166,0,0,1-1.293-1.039,2.414,2.414,0,0,1-.469-1.426H59.09a1.179,1.179,0,0,0,.445.922,1.766,1.766,0,0,0,1.109.32,1.635,1.635,0,0,0,.98-.246A.766.766,0,0,0,61.957,14.664ZM67.988,17H65.723V8.547h2.266ZM65.59,6.359a1.112,1.112,0,0,1,.34-.836,1.465,1.465,0,0,1,1.848,0,1.105,1.105,0,0,1,.344.836,1.108,1.108,0,0,1-.348.844,1.448,1.448,0,0,1-1.836,0A1.108,1.108,0,0,1,65.59,6.359Zm8.836,8.3a.727.727,0,0,0-.41-.652,4.659,4.659,0,0,0-1.316-.426q-3.016-.633-3.016-2.562a2.323,2.323,0,0,1,.934-1.879,3.766,3.766,0,0,1,2.441-.754,4.053,4.053,0,0,1,2.574.758,2.388,2.388,0,0,1,.965,1.969H74.34a1.092,1.092,0,0,0-.312-.8A1.322,1.322,0,0,0,73.051,10a1.351,1.351,0,0,0-.883.258.814.814,0,0,0-.312.656.7.7,0,0,0,.355.605,3.657,3.657,0,0,0,1.2.4,9.8,9.8,0,0,1,1.422.379,2.336,2.336,0,0,1,1.789,2.273,2.2,2.2,0,0,1-.992,1.871,4.28,4.28,0,0,1-2.562.715,4.47,4.47,0,0,1-1.887-.379,3.166,3.166,0,0,1-1.293-1.039,2.414,2.414,0,0,1-.469-1.426h2.141a1.179,1.179,0,0,0,.445.922,1.766,1.766,0,0,0,1.109.32,1.635,1.635,0,0,0,.98-.246A.766.766,0,0,0,74.426,14.664Zm6.352-8.2V8.547h1.445V10.2H80.777v4.219a1.007,1.007,0,0,0,.18.672.9.9,0,0,0,.688.2,3.6,3.6,0,0,0,.664-.055v1.711a4.648,4.648,0,0,1-1.367.2,2.156,2.156,0,0,1-2.422-2.4V10.2H77.285V8.547H78.52V6.469Zm6.594,10.688a4.15,4.15,0,0,1-3.027-1.141,4.054,4.054,0,0,1-1.168-3.039v-.219a5.106,5.106,0,0,1,.492-2.277,3.612,3.612,0,0,1,1.395-1.547,3.914,3.914,0,0,1,2.059-.543,3.508,3.508,0,0,1,2.73,1.094,4.444,4.444,0,0,1,1,3.1v.922H85.465a2.1,2.1,0,0,0,.66,1.328,2,2,0,0,0,1.395.5,2.437,2.437,0,0,0,2.039-.945l1.109,1.242a3.389,3.389,0,0,1-1.375,1.121A4.511,4.511,0,0,1,87.371,17.156Zm-.258-6.945a1.411,1.411,0,0,0-1.09.455,2.357,2.357,0,0,0-.535,1.3h3.141v-.181a1.681,1.681,0,0,0-.406-1.165A1.456,1.456,0,0,0,87.113,10.211Zm7.133-1.664.07.945a2.971,2.971,0,0,1,2.43-1.1A2.255,2.255,0,0,1,98.988,9.68a2.9,2.9,0,0,1,2.539-1.289,2.521,2.521,0,0,1,2.047.8,3.681,3.681,0,0,1,.672,2.41V17H101.98V11.609a1.61,1.61,0,0,0-.281-1.051,1.246,1.246,0,0,0-.992-.332A1.409,1.409,0,0,0,99.3,11.2l.008,5.8H97.051V11.617a1.59,1.59,0,0,0-.289-1.062,1.259,1.259,0,0,0-.984-.328,1.463,1.463,0,0,0-1.391.8V17H92.129V8.547ZM110.879,17a2.507,2.507,0,0,1-.227-.758,2.732,2.732,0,0,1-2.133.914,3,3,0,0,1-2.059-.719,2.312,2.312,0,0,1-.816-1.812,2.389,2.389,0,0,1,1-2.062,4.915,4.915,0,0,1,2.879-.727h1.039v-.484a1.393,1.393,0,0,0-.3-.937,1.183,1.183,0,0,0-.949-.352,1.345,1.345,0,0,0-.895.273.929.929,0,0,0-.324.75h-2.258a2.268,2.268,0,0,1,.453-1.359,3,3,0,0,1,1.281-.98,4.669,4.669,0,0,1,1.859-.355,3.689,3.689,0,0,1,2.48.785,2.747,2.747,0,0,1,.918,2.207v3.664a4.041,4.041,0,0,0,.336,1.82V17Zm-1.867-1.57a1.945,1.945,0,0,0,.922-.223,1.462,1.462,0,0,0,.625-.6V13.156h-.844q-1.7,0-1.8,1.172l-.008.133a.9.9,0,0,0,.3.7A1.153,1.153,0,0,0,109.012,15.43Z" transform="translate(851.163 9332.971)" fill="#12263f"/>
    <g id="ecologia" transform="translate(741.837 8983.443)">
      <circle id="Elipse_7706" data-name="Elipse 7706" cx="8.799" cy="8.799" r="8.799" transform="translate(73.904 28.825)" fill="#ffd54f"/>
      <path id="Trazado_630398" data-name="Trazado 630398" d="M375.134,134.993a8.77,8.77,0,0,0-3.3.638,8.8,8.8,0,0,1-.022,16.314,8.8,8.8,0,1,0,3.323-16.951Z" transform="translate(-292.419 -106.168)" fill="#ffc328"/>
      <g id="Grupo_963104" data-name="Grupo 963104" transform="translate(67.205 19.964)">
        <path id="Trazado_630399" data-name="Trazado 630399" d="M381.515,93.5h0a1.6,1.6,0,0,0-1.6,1.6l0,1.639a1.6,1.6,0,0,0,1.6,1.6h0a1.6,1.6,0,0,0,1.6-1.6l0-1.639A1.6,1.6,0,0,0,381.515,93.5Z" transform="translate(-365.993 -93.497)" fill="#ffd54f"/>
        <path id="Trazado_630400" data-name="Trazado 630400" d="M345.294,104.323a1.6,1.6,0,0,0-2.776,1.6l.817,1.42a1.6,1.6,0,0,0,2.776-1.6Z" transform="translate(-336.418 -101.38)" fill="#ffd54f"/>
        <path id="Trazado_630401" data-name="Trazado 630401" d="M318.561,132.045l-1.418-.821A1.6,1.6,0,0,0,315.538,134l1.418.821a1.6,1.6,0,1,0,1.605-2.772Z" transform="translate(-314.739 -122.998)" fill="#ffd54f"/>
        <path id="Trazado_630402" data-name="Trazado 630402" d="M442.073,203.581l-1.418-.821a1.6,1.6,0,1,0-1.606,2.772l1.418.821a1.6,1.6,0,0,0,1.606-2.772Z" transform="translate(-411.877 -179.259)" fill="#ffd54f"/>
        <path id="Trazado_630403" data-name="Trazado 630403" d="M450.587,168.8l-1.639,0h0a1.6,1.6,0,0,0,0,3.2l1.639,0h0a1.6,1.6,0,0,0,0-3.2Z" transform="translate(-419.03 -152.715)" fill="#ffd54f"/>
        <path id="Trazado_630404" data-name="Trazado 630404" d="M439.947,135.209a1.594,1.594,0,0,0,.8-.214l1.42-.817a1.6,1.6,0,1,0-1.6-2.776l-1.42.817a1.6,1.6,0,0,0,.8,2.99Z" transform="translate(-411.951 -123.14)" fill="#ffd54f"/>
        <path id="Trazado_630405" data-name="Trazado 630405" d="M416.886,103.839a1.6,1.6,0,0,0-2.189.583l-.821,1.418a1.6,1.6,0,1,0,2.772,1.606l.821-1.418A1.6,1.6,0,0,0,416.886,103.839Z" transform="translate(-392.537 -101.461)" fill="#ffd54f"/>
      </g>
      <path id="Trazado_630406" data-name="Trazado 630406" d="M240.547,112.535h6.6v13.594h-6.6Z" transform="translate(-189.184 -88.506)" fill="#a35418"/>
      <path id="Trazado_630407" data-name="Trazado 630407" d="M54.207,103.881c-.067-25.353-9.13-47.532-20.3-47.532S13.67,78.528,13.6,103.881Z" transform="translate(-10.698 -44.317)" fill="#329c9d"/>
      <path id="Trazado_630408" data-name="Trazado 630408" d="M96.529,56.349a8.838,8.838,0,0,0-3.3.657c9.6,3.84,16.942,24.072,17,46.875h6.6C116.763,78.529,107.7,56.349,96.529,56.349Z" transform="translate(-73.322 -44.317)" fill="#2d8b8c"/>
      <path id="Trazado_630409" data-name="Trazado 630409" d="M66.592,74.2c-.921.73-1.663,1.61-3.452,1.61-3.059,0-3.059-2.569-6.117-2.569s-3.058,2.569-6.117,2.569-3.058-2.569-6.115-2.569-3.058,2.569-6.117,2.569c-1.791,0-2.533-.88-3.454-1.611,3.724-10.751,9.367-17.846,15.686-17.846S62.87,63.447,66.592,74.2Z" transform="translate(-27.7 -44.319)" fill="#f3f3f3"/>
      <path id="Trazado_630410" data-name="Trazado 630410" d="M96.532,56.35a8.838,8.838,0,0,0-3.3.657c5.03,2.012,9.437,8.522,12.5,17.541a4.222,4.222,0,0,0,3.029,1.259c1.789,0,2.531-.88,3.452-1.61C108.5,63.446,102.85,56.35,96.532,56.35Z" transform="translate(-73.325 -44.318)" fill="#e4e4e4"/>
      <path id="Trazado_630411" data-name="Trazado 630411" d="M195.833,24.029H183.971A12.015,12.015,0,0,1,183.97,0h11.863a12.015,12.015,0,0,1,0,24.029Z" transform="translate(-135.239 0)" fill="#6de470"/>
      <path id="Trazado_630412" data-name="Trazado 630412" d="M259.472,0h-6.6a12.015,12.015,0,1,1,0,24.029h6.6a12.015,12.015,0,0,0,0-24.029Z" transform="translate(-198.878)" fill="#4dcc68"/>
      <ellipse id="Elipse_7707" data-name="Elipse 7707" cx="38.715" cy="18.258" rx="38.715" ry="18.258" transform="translate(15.948 35.305)" fill="#6de470"/>
      <path id="Trazado_630413" data-name="Trazado 630413" d="M243.847,165.344q-1.667,0-3.3.067c19.837.79,35.415,8.632,35.415,18.191s-15.579,17.4-35.415,18.191q1.632.065,3.3.067c21.382,0,38.715-8.174,38.715-18.258S265.228,165.344,243.847,165.344Z" transform="translate(-189.184 -130.039)" fill="#4dcc68"/>
      <path id="Trazado_630414" data-name="Trazado 630414" d="M109.326,236.1a.669.669,0,0,0-.732-.667c-3.839.386-4.082,3.791-8.38,3.791-4.556,0-4.556-3.827-9.112-3.827s-4.555,3.827-9.111,3.827-4.555-3.827-9.111-3.827-4.555,3.827-9.111,3.827-4.555-3.827-9.11-3.827-4.555,3.827-9.109,3.827S41,235.4,36.44,235.4s-4.555,3.827-9.111,3.827-4.555-3.827-9.11-3.827-4.555,3.827-9.11,3.827c-4.3,0-4.54-3.405-8.378-3.791A.669.669,0,0,0,0,236.1v3.7a54.663,54.663,0,1,0,109.326,0Z" transform="translate(0 -185.133)" fill="#bdf9ff"/>
      <g id="Grupo_963105" data-name="Grupo 963105" transform="translate(0 50.263)">
        <path id="Trazado_630415" data-name="Trazado 630415" d="M246.344,239.223a5.691,5.691,0,0,0,3.3-.944c-1.732-1.133-2.73-2.882-5.811-2.882a5.689,5.689,0,0,0-3.3.944C242.266,237.474,243.264,239.223,246.344,239.223Z" transform="translate(-189.173 -235.396)" fill="#8bf0ff"/>
        <path id="Trazado_630416" data-name="Trazado 630416" d="M417.015,239.223a5.7,5.7,0,0,0,3.3-.943c-1.733-1.133-2.731-2.883-5.813-2.883a5.692,5.692,0,0,0-3.3.944C412.935,237.473,413.934,239.223,417.015,239.223Z" transform="translate(-323.4 -235.396)" fill="#8bf0ff"/>
        <path id="Trazado_630417" data-name="Trazado 630417" d="M331.676,239.223a5.69,5.69,0,0,0,3.3-.944c-1.732-1.133-2.73-2.882-5.811-2.882a5.69,5.69,0,0,0-3.3.944C327.6,237.473,328.6,239.223,331.676,239.223Z" transform="translate(-256.284 -235.396)" fill="#8bf0ff"/>
        <path id="Trazado_630418" data-name="Trazado 630418" d="M161.018,239.223a5.689,5.689,0,0,0,3.3-.944c-1.732-1.133-2.73-2.882-5.811-2.882a5.691,5.691,0,0,0-3.3.944c1.732,1.133,2.73,2.882,5.811,2.882Z" transform="translate(-122.066 -235.396)" fill="#8bf0ff"/>
        <path id="Trazado_630419" data-name="Trazado 630419" d="M297.778,235.55c-2.911.293-3.756,2.32-5.867,3.284v1.08a54.663,54.663,0,0,1-51.363,54.561c1.092.065,2.191.1,3.3.1a54.663,54.663,0,0,0,54.663-54.663v-3.7A.669.669,0,0,0,297.778,235.55Z" transform="translate(-189.184 -235.514)" fill="#8bf0ff"/>
        <path id="Trazado_630420" data-name="Trazado 630420" d="M2.511,239.341a5.691,5.691,0,0,0,3.3-.944C4.223,237.359,3.253,235.8.732,235.55a.67.67,0,0,0-.732.667v2.617a5.888,5.888,0,0,0,2.511.506Z" transform="translate(0 -235.514)" fill="#8bf0ff"/>
        <path id="Trazado_630421" data-name="Trazado 630421" d="M75.685,239.223a5.691,5.691,0,0,0,3.3-.944c-1.732-1.133-2.73-2.882-5.811-2.882a5.69,5.69,0,0,0-3.3.944c1.732,1.133,2.73,2.882,5.811,2.882Z" transform="translate(-54.954 -235.396)" fill="#8bf0ff"/>
      </g>
      <g id="Grupo_963106" data-name="Grupo 963106" transform="translate(15.844 64.156)">
        <path id="Trazado_630422" data-name="Trazado 630422" d="M84.916,304.707a6.316,6.316,0,0,0,8.821,0,3.166,3.166,0,0,1,4.7,0,6.316,6.316,0,0,0,8.821,0,3.166,3.166,0,0,1,4.7,0,6.292,6.292,0,0,0,4.411,1.8,1.6,1.6,0,1,0,0-3.2,3.158,3.158,0,0,1-2.351-1.045,6.316,6.316,0,0,0-8.821,0,3.166,3.166,0,0,1-4.7,0,6.317,6.317,0,0,0-8.821,0,3.166,3.166,0,0,1-4.7,0,6.316,6.316,0,0,0-8.821,0A3.157,3.157,0,0,1,75.8,303.3a1.6,1.6,0,1,0,0,3.2,6.291,6.291,0,0,0,4.41-1.8,3.167,3.167,0,0,1,4.7,0Z" transform="translate(-74.203 -300.459)" fill="#29b6f6"/>
        <path id="Trazado_630423" data-name="Trazado 630423" d="M151.754,357.492a3.158,3.158,0,0,1-2.35-1.045,6.315,6.315,0,0,0-8.821,0,3.165,3.165,0,0,1-4.7,0,6.316,6.316,0,0,0-8.821,0,3.166,3.166,0,0,1-4.7,0,6.316,6.316,0,0,0-8.821,0,3.157,3.157,0,0,1-2.35,1.045,1.6,1.6,0,0,0,0,3.2,6.291,6.291,0,0,0,4.41-1.8,3.166,3.166,0,0,1,4.7,0,6.316,6.316,0,0,0,8.821,0,3.166,3.166,0,0,1,4.7,0,6.315,6.315,0,0,0,8.821,0,3.166,3.166,0,0,1,4.7,0,6.292,6.292,0,0,0,4.411,1.8,1.6,1.6,0,0,0,0-3.2Z" transform="translate(-102.032 -343.08)" fill="#29b6f6"/>
        <path id="Trazado_630424" data-name="Trazado 630424" d="M198.353,415.291A3.158,3.158,0,0,1,196,414.246a6.316,6.316,0,0,0-8.821,0,3.166,3.166,0,0,1-4.7,0,6.316,6.316,0,0,0-8.821,0,3.157,3.157,0,0,1-2.35,1.045,1.6,1.6,0,1,0,0,3.2,6.291,6.291,0,0,0,4.41-1.8,3.166,3.166,0,0,1,4.7,0,6.316,6.316,0,0,0,8.821,0,3.166,3.166,0,0,1,4.7,0,6.292,6.292,0,0,0,4.411,1.8,1.6,1.6,0,0,0,0-3.2Z" transform="translate(-149.315 -388.538)" fill="#29b6f6"/>
      </g>
      <path id="Trazado_630425" data-name="Trazado 630425" d="M356.779,329.4c0,2.176-2.935,3.941-5.882,3.941s-4.788-1.764-4.788-3.941,1.842-3.941,4.788-3.941S356.779,327.224,356.779,329.4Z" transform="translate(-272.205 -255.965)" fill="#f75632"/>
      <path id="Trazado_630426" data-name="Trazado 630426" d="M400.745,335.062c-2.577,0-4.666-1.477-4.666-3.3s2.089-3.3,4.666-3.3S403.322,335.062,400.745,335.062Z" transform="translate(-311.505 -258.327)" fill="#e33629"/>
    </g>
    <g id="persona" transform="translate(510 8784.882)">
      <path id="Trazado_630427" data-name="Trazado 630427" d="M160.513,154.295v-12.65a2.622,2.622,0,0,0,3.5-2.472v-14.8A4.376,4.376,0,0,0,159.639,120H147.4a4.376,4.376,0,0,0-4.371,4.371v14.8a2.622,2.622,0,0,0,3.5,2.472v17.138a3.059,3.059,0,1,0,6.119,0v-3.571c.582-.017,1.166-.017,1.748,0v3.571a3.059,3.059,0,1,0,6.119,0v-2.674c2.9.843,4.779,2.18,4.779,3.461,0,2.067-4.834,4.371-11.772,4.371s-11.772-2.3-11.772-4.371c0-.882.925-1.837,2.538-2.62a.874.874,0,0,0-.763-1.573c-2.912,1.413-3.523,3.06-3.523,4.193,0,1.777,1.507,3.381,4.243,4.516a27.646,27.646,0,0,0,18.554,0c2.736-1.135,4.243-2.739,4.243-4.516C167.04,157.32,164.614,155.374,160.513,154.295Zm-6.119-.832c-.582-.016-1.166-.016-1.748,0V140.047h1.748Zm5.245-29.966a.874.874,0,0,0-.874.874v34.412a1.311,1.311,0,1,1-2.622,0v-19.61a.874.874,0,0,0-.874-.874h-3.5a.874.874,0,0,0-.874.874v19.61a1.311,1.311,0,1,1-2.622,0V124.371a.874.874,0,1,0-1.748,0v14.8a.874.874,0,0,1-1.748,0v-14.8a2.625,2.625,0,0,1,2.622-2.622h12.238a2.625,2.625,0,0,1,2.622,2.622v14.8a.874.874,0,0,1-1.748,0v-14.8A.874.874,0,0,0,159.639,123.5Z" transform="translate(0 -106.014)"/>
      <path id="Trazado_630428" data-name="Trazado 630428" d="M209.29,12.238a6.119,6.119,0,1,0-6.119-6.119A6.126,6.126,0,0,0,209.29,12.238Zm0-10.49a4.371,4.371,0,1,1-4.371,4.371A4.376,4.376,0,0,1,209.29,1.748Z" transform="translate(-55.808)"/>
    </g>
    <g id="palenquera" transform="translate(820.863 8785.43)">
      <path id="Trazado_630429" data-name="Trazado 630429" d="M110.546,54.58a20.585,20.585,0,0,1-10.316-2.469.8.8,0,0,1,.792-1.389,19.016,19.016,0,0,0,9.524,2.259c5.537,0,9.872-1.668,12.886-4.959a13.409,13.409,0,0,0,2.641-4.23c-.377-.158-.9-.371-1.515-.615a12.163,12.163,0,0,1-4.552,5.627.8.8,0,0,1-.9-1.324,10.664,10.664,0,0,0,3.953-4.877c-.936-.348-1.976-.715-3.028-1.048a9.185,9.185,0,0,1-1.672,2.347,10.583,10.583,0,0,1-7.863,3,10.7,10.7,0,0,1-7.533-2.683,9.218,9.218,0,0,1-2-2.667c-1.022.323-2.032.679-2.946,1.017a10.352,10.352,0,0,0,2.157,3.377c2.416,2.543,5.9,3.832,10.371,3.832a17.029,17.029,0,0,0,6.086-1.02.8.8,0,0,1,.571,1.494,18.613,18.613,0,0,1-6.657,1.126c-6.182,0-9.717-2.392-11.595-4.4a11.884,11.884,0,0,1-2.428-3.838c-.65.255-1.2.479-1.59.644a13.847,13.847,0,0,0,3.823,5.336.8.8,0,1,1-1.044,1.212,14.7,14.7,0,0,1-4.55-6.793.8.8,0,0,1,.453-.932,75.746,75.746,0,0,1,7.572-2.8c3.364-1.009,3.962-1.6,4.054-2.709a11.878,11.878,0,0,1-1.085-.885,11.415,11.415,0,0,1-1.309-1.421,3.2,3.2,0,1,1-2.279-5.979c-1.392-3.2-2.058-5.258-2.058-7.579a9.118,9.118,0,0,1,2.31-5.537,3.456,3.456,0,0,1-2.428-2.171c-.447-.868-.693-1.346-1.791-1.346a2.4,2.4,0,0,1,0-4.8h.733A7.134,7.134,0,0,1,99.108.233a.8.8,0,0,1,1.131,0l1.832,1.832a2.576,2.576,0,0,1,.4-1.347l.02-.028L102.5.675h0A1.671,1.671,0,0,1,103.9,0h.007c.493,0,1.263.18,2.621,1.445a2.038,2.038,0,0,1,.4-.84,1.682,1.682,0,0,1,1.352-.6c.7,0,1.929.369,4.5,3.482a4.742,4.742,0,0,1,1.3.125C117.049,1.13,119.921,0,121.372,0a3.392,3.392,0,0,1,3.307,3.215A17.155,17.155,0,0,1,123.5,7.391h.9a2.4,2.4,0,0,1,0,4.8c-1.1,0-1.345.478-1.791,1.346a3.455,3.455,0,0,1-2.43,2.171,11.668,11.668,0,0,1,1.584,2.47.8.8,0,0,1-1.451.673,10.939,10.939,0,0,0-2.225-3.059H107.838c5.228,2.014,8.208,4.531,9.863,6.488a9.01,9.01,0,0,1,2.1,3.871,13.3,13.3,0,0,0,1.084-4.906.8.8,0,1,1,1.6,0c0,2.32-.665,4.38-2.058,7.579a3.2,3.2,0,1,1-2.29,5.974,11.555,11.555,0,0,1-2.382,2.312c.067.767.374,1.247,1.484,1.781a.8.8,0,0,1-.693,1.441A3.737,3.737,0,0,1,114.306,38a7.688,7.688,0,0,1-7.609,0c-.427,1.52-1.737,2.283-4.181,3.076.751,1.384,2.912,4.232,7.983,4.232,6.673,0,8.3-4.918,8.319-4.968a.8.8,0,0,1,.992-.525,75.788,75.788,0,0,1,7.572,2.8.8.8,0,0,1,.455.926,14.137,14.137,0,0,1-3.226,5.565c-2.289,2.5-6.586,5.478-14.065,5.478ZM102.5,29.413c0,4.562,4.85,8,8,8a8.371,8.371,0,0,0,5.26-2.365,7.751,7.751,0,0,0,2.736-5.63c0-2.776-.288-4.051-1.985-6.068a2.635,2.635,0,0,0-1.554-.4,2.439,2.439,0,0,0-1.6.419.8.8,0,0,1-1.131-1.131,3.64,3.64,0,0,1,2.269-.871,22.474,22.474,0,0,0-4-2.628,22.383,22.383,0,0,0-4,2.627,3.644,3.644,0,0,1,2.274.871.8.8,0,0,1-1.131,1.131,2.428,2.428,0,0,0-1.6-.419,2.634,2.634,0,0,0-1.554.4C102.791,25.362,102.5,26.637,102.5,29.413Zm16.544,3.979a1.619,1.619,0,0,0,.246.019,1.6,1.6,0,0,0,.737-3.019A8.7,8.7,0,0,1,119.047,33.392Zm-18.082-3a1.6,1.6,0,0,0,.739,3.018,1.636,1.636,0,0,0,.231-.017A8.618,8.618,0,0,1,100.965,30.392Zm1.866-14.519c-.758.756-2.721,2.946-2.721,5.369a13.3,13.3,0,0,0,1.084,4.906,9.012,9.012,0,0,1,2.1-3.871,20.371,20.371,0,0,1,5.425-4.4A38.665,38.665,0,0,0,102.831,15.873Zm16.463-1.683c1.175,0,1.444-.522,1.889-1.388a3.291,3.291,0,0,1,3.213-2.213.8.8,0,1,0,0-1.6H114.3a.8.8,0,1,1,0-1.6h1.689a3.115,3.115,0,0,0-6.022,0H111.1a.8.8,0,1,1,0,1.6H96.6a.8.8,0,0,0,0,1.6A3.291,3.291,0,0,1,99.815,12.8c.445.866.714,1.388,1.889,1.388Zm-.681-6.8h3.172a19.359,19.359,0,0,0,1.3-4.177A1.828,1.828,0,0,0,121.372,1.6c-.935,0-3.209.86-5.662,2.751a4.741,4.741,0,0,1,1.636,2.063l2.118-2.518a.8.8,0,1,1,1.224,1.029Zm-11.216,0h.938a4.671,4.671,0,0,1,.294-1.012c-.359-.5-1.044-1.413-1.822-2.319-2.058-2.394-2.817-2.577-3.031-2.419s-.154,1.188.159,2.287Zm-8.364,0h6.1L99.714,1.97A5.534,5.534,0,0,0,99.033,7.391Zm9.092-4.248c.563.662,1.065,1.31,1.437,1.806A4.735,4.735,0,0,1,111.035,3.9c-1.983-2.27-2.658-2.4-2.875-2.274-.12.071-.206.561-.035,1.52ZM110.5,34a5.248,5.248,0,0,1-3.9-1.691.8.8,0,0,1,1.23-1.022A3.632,3.632,0,0,0,110.5,32.4a3.684,3.684,0,0,0,2.663-1.11.8.8,0,0,1,1.233,1.018A5.249,5.249,0,0,1,110.5,34Zm0-4.8a1.4,1.4,0,0,0,.98-.391.8.8,0,0,1,1.233,1.018,2.941,2.941,0,0,1-2.213.972m0,0a2.941,2.941,0,0,1-2.213-.972.8.8,0,1,1,1.233-1.018,1.4,1.4,0,0,0,.98.391m3.8-1.165a.8.8,0,0,1-.8-.8v-1.7a.8.8,0,1,1,1.6,0v1.7A.8.8,0,0,1,114.3,28.035Zm-7.462,0a.8.8,0,0,1-.8-.8v-1.7a.8.8,0,1,1,1.6,0v1.7A.8.8,0,0,1,106.84,28.035Z"/>
    </g>
    <g id="relaciones" transform="translate(996 9046.784)">
      <path id="Trazado_630430" data-name="Trazado 630430" d="M199.061,36.543a6.307,6.307,0,1,0-11.4,3.722,6.315,6.315,0,0,0,11.4-3.722Zm-8.34-1.059a2.032,2.032,0,1,1,2.273,2.017h-.481A2.035,2.035,0,0,1,190.72,35.484Zm-.056,3.379h4.177a1.955,1.955,0,0,1,1.648.916,4.938,4.938,0,0,1-7.472,0,1.955,1.955,0,0,1,1.648-.916Zm2.088-7.268a4.944,4.944,0,0,1,4.512,6.97,3.337,3.337,0,0,0-1.829-1.007,3.392,3.392,0,1,0-5.366,0,3.336,3.336,0,0,0-1.829,1.007,4.95,4.95,0,0,1,4.512-6.97Zm0,0" transform="translate(-169.517 -27.49)"/>
      <path id="Trazado_630431" data-name="Trazado 630431" d="M353.428,315.21a6.306,6.306,0,1,0-10.666-4.555,6.311,6.311,0,0,0,10.666,4.555Zm-8.094-1.318a1.954,1.954,0,0,1,1.648-.917h4.176a1.954,1.954,0,0,1,1.648.917A4.938,4.938,0,0,1,345.334,313.892Zm1.7-4.3a2.032,2.032,0,1,1,2.273,2.017h-.481A2.035,2.035,0,0,1,347.038,309.6Zm2.032-3.888a4.95,4.95,0,0,1,4.512,6.97,3.337,3.337,0,0,0-1.829-1.007,3.394,3.394,0,1,0-5.366,0,3.336,3.336,0,0,0-1.829,1.007A4.95,4.95,0,0,1,349.07,305.709Zm0,0" transform="translate(-311.651 -276.723)"/>
      <path id="Trazado_630432" data-name="Trazado 630432" d="M42.851,310.656a6.308,6.308,0,1,0-6.309,6.308A6.315,6.315,0,0,0,42.851,310.656Zm-6.309-4.947a4.943,4.943,0,0,1,4.512,6.97,3.335,3.335,0,0,0-1.829-1.007,3.394,3.394,0,1,0-5.366,0,3.337,3.337,0,0,0-1.829,1.007,4.944,4.944,0,0,1,4.512-6.97Zm0,9.893a4.971,4.971,0,0,1-3.736-1.71h0a1.954,1.954,0,0,1,1.648-.917h4.176a1.954,1.954,0,0,1,1.648.917,4.971,4.971,0,0,1-3.736,1.71ZM34.51,309.6a2.032,2.032,0,1,1,2.273,2.017H36.3A2.035,2.035,0,0,1,34.51,309.6Zm0,0" transform="translate(-27.49 -276.724)"/>
      <path id="Trazado_630433" data-name="Trazado 630433" d="M229.038,262.889l-2.268,2.268-1.313-1.313a.681.681,0,0,0-.963.963l1.794,1.794a.681.681,0,0,0,.963,0L230,263.852a.681.681,0,1,0-.963-.963Zm0,0" transform="translate(-203.937 -238.846)"/>
      <path id="Trazado_630434" data-name="Trazado 630434" d="M39.975,25.248a16.871,16.871,0,0,0-7.832-14.574,9.053,9.053,0,1,0-17.841-.16A16.873,16.873,0,0,0,6.215,25.336,9.051,9.051,0,1,0,15.673,40.1,16.911,16.911,0,0,0,30.709,40,9.024,9.024,0,0,0,35.7,42.821a.681.681,0,1,0,.258-1.337,7.691,7.691,0,1,1,2.919,0,.681.681,0,0,0,.258,1.337,9.053,9.053,0,0,0,.838-17.573ZM23.236,1.362a7.691,7.691,0,1,1-7.691,7.691,7.7,7.7,0,0,1,7.691-7.691ZM9.052,41.623a7.7,7.7,0,1,1,5.938-2.808l-.007.009a7.678,7.678,0,0,1-5.93,2.8ZM29.859,38.9a15.537,15.537,0,0,1-13.313.1A9.049,9.049,0,0,0,7.572,25a15.569,15.569,0,0,1,7.073-13.094,9.053,9.053,0,0,0,17.128.153,15.612,15.612,0,0,1,6.844,12.9A9.058,9.058,0,0,0,29.859,38.9Zm0,0"/>
      <path id="Trazado_630435" data-name="Trazado 630435" d="M198.115,215.01a6.164,6.164,0,1,0,1.886,7,.681.681,0,1,0-1.271-.486A4.8,4.8,0,1,1,194.243,215a4.775,4.775,0,0,1,4.683,3.736.681.681,0,1,0,1.328-.3,6.19,6.19,0,0,0-2.138-3.427Zm0,0" transform="translate(-171.007 -194.246)"/>
    </g>
    <g id="negocio" transform="translate(547.653 9049.638)">
      <path id="Trazado_630436" data-name="Trazado 630436" d="M38.829,16.327a4.531,4.531,0,0,0,2.518-4.074V8.809A4.561,4.561,0,0,0,37.07,4.262L35.523,2.715A5.817,5.817,0,0,0,31.382,1h-3a4.606,4.606,0,0,0-2.878,8.2l1.107.886a30.094,30.094,0,0,0-.233,3.275v.651h1.3v.454a3.451,3.451,0,0,0,3.451,3.451h.176c.093,0,.185-.02.277-.027v2.357l-1.209.242a1.3,1.3,0,0,0-.732.43l-.782.912a12.991,12.991,0,0,0-1.971,3.115l-3.766,3.765V26.259a8.991,8.991,0,0,0-8.99-8.99h-.12V16.6a3.941,3.941,0,0,0,3.391-2.474,7.131,7.131,0,0,0,.513-2.664V8.809a3.224,3.224,0,0,0-.271-1.293,5.037,5.037,0,0,0,1.573-3.644A2.873,2.873,0,0,0,16.349,1H11.11A6.216,6.216,0,0,0,6.672,2.868,6.645,6.645,0,0,0,4.9,7.508a5.524,5.524,0,0,0,1.969,4.235,3.763,3.763,0,0,0,1.095,2.352l.191.19v2.992A7.343,7.343,0,0,0,1,24.623v5.661A7.147,7.147,0,0,0,3.6,35.8v5.545H19.221v-3.9H20.97a5.818,5.818,0,0,0,4.141-1.715l.618-.618v6.238H41.348V24.983a5.763,5.763,0,0,0-3.185-5.153l-.72-.36V17.02ZM26.318,8.187A3.3,3.3,0,0,1,28.383,2.3h3A4.527,4.527,0,0,1,34.6,3.636l1.919,1.92h.269a3.257,3.257,0,0,1,3.254,3.254v3.444a3.236,3.236,0,0,1-1.8,2.91l-1.3.649a3.537,3.537,0,0,1-.662-1.339,5.145,5.145,0,0,1-.129-.761,2.879,2.879,0,0,0,1.285-2.3,2.606,2.606,0,0,0-2.6-2.6h-.089a2.535,2.535,0,0,0-.8-1.211,5.487,5.487,0,0,0-3.67-1.392,7.384,7.384,0,0,0-2.894.719l-.285.143-.062.312c-.083.416-.156.821-.219,1.212Zm5.516,14.288h-.9l0-.768,1.427-.285Zm-.714,7.454L30.3,28.46l.558-4.684h.852l.93,4.184A12.288,12.288,0,0,1,31.12,29.929Zm2.455-3.778-.653-2.941L33.978,21.1l1.205-.241L34.057,24.8A12.508,12.508,0,0,1,33.575,26.151Zm-.688-8.479,2.08-.416-.256-1.276-2.982.6a2.168,2.168,0,0,1-.421.041h-.176a2.15,2.15,0,0,1-2.149-2.149V12.714H27.7a34.459,34.459,0,0,1,.555-4.749,5.746,5.746,0,0,1,2.029-.457,4.2,4.2,0,0,1,2.81,1.067,1.121,1.121,0,0,1,.444.885v.651h1.3a1.3,1.3,0,0,1,1.3,1.3,1.771,1.771,0,0,1-.942,1.37l-.36.18v.4a6.012,6.012,0,0,0,.182,1.417,4.866,4.866,0,0,0,1.119,2.1v2.461l-3.254.651Zm-3.254,5.285v.13l-.409,3.43-.879-1.583A11.659,11.659,0,0,1,29.633,22.957Zm-7.809,3.3v3.756l-.348.348a1.967,1.967,0,0,1-1.382.572h-.873v-3.9h-1.3v3.9H12.714V29.111L16.85,19.066a7.688,7.688,0,0,1,4.974,7.193Zm-2.6,8a1.884,1.884,0,0,1-1.87,1.882H15.317V32.236h1.956a1.976,1.976,0,0,1,1.948,2.023ZM12.962,18.57l-.651,1.3H11.164l-.651-1.3Zm.834,4.492-.406-2.438,1.021-2.041a7.7,7.7,0,0,1,1.177.129ZM9.058,18.57l1.027,2.054-.323,1.939L7.9,18.606c.152-.012.3-.035.456-.035Zm2.255,2.6h.849l.7,4.17-.834,2.026-1.287-2.736Zm5.306-9.716a5.835,5.835,0,0,1-.42,2.181,2.67,2.67,0,0,1-3.961,1.231l-1.115-.744L10.4,15.208l1.115.744a3.965,3.965,0,0,0,1.2.53v.787H9.459V13.746l-.572-.572a2.478,2.478,0,0,1-.729-1.762.652.652,0,0,1,.651-.651H9.46V8.809a1.955,1.955,0,0,1,1.952-1.952h3.254a1.955,1.955,0,0,1,1.952,1.952Zm-9.389-1.19A4.192,4.192,0,0,1,6.206,7.508,5.347,5.347,0,0,1,7.634,3.746,4.889,4.889,0,0,1,11.11,2.3h5.239A1.571,1.571,0,0,1,17.92,3.872a3.724,3.724,0,0,1-1.04,2.567,3.232,3.232,0,0,0-2.214-.884H11.412A3.257,3.257,0,0,0,8.158,8.809v.762a1.96,1.96,0,0,0-.929.7ZM2.3,30.284V24.623a6.038,6.038,0,0,1,4.27-5.781l4.84,10.287v1.807h-3.9v-3.9h-1.3v3.9a1.3,1.3,0,0,0,1.3,1.3h6.511v3.905H8.158A5.864,5.864,0,0,1,2.3,30.284ZM17.92,40.046H4.9V36.652a7.1,7.1,0,0,0,3.254.79H17.92Zm6.271-5.239a4.526,4.526,0,0,1-3.221,1.334H19.892a3.252,3.252,0,0,0-.04-3.9h.243a3.28,3.28,0,0,0,2.3-.953l3.612-3.612a12.934,12.934,0,0,0-.28,2.632v2.966Zm2.84-4.5a11.706,11.706,0,0,1,.663-3.862l2.449,4.408c-.089.075-.173.156-.265.229l-.244.2v8.772h-2.6ZM37.58,20.994a4.461,4.461,0,0,1,2.466,3.989V40.046h-3.9V29.633h-1.3V40.046h-3.9V31.894a13.632,13.632,0,0,0,4.374-6.739l1.31-4.585.082-.016Z" transform="translate(0 0)"/>
      <circle id="Elipse_7708" data-name="Elipse 7708" cx="0.5" cy="0.5" r="0.5" transform="translate(32.347 36)"/>
      <circle id="Elipse_7709" data-name="Elipse 7709" cx="0.5" cy="0.5" r="0.5" transform="translate(32.347 34)"/>
    </g>
    <g id="padre-e-hijo" transform="translate(762.966 9316.569)">
      <g id="Grupo_963134" data-name="Grupo 963134" transform="translate(12.406 0)">
        <g id="Grupo_963120" data-name="Grupo 963120" transform="translate(3.936 0)">
          <g id="Grupo_963117" data-name="Grupo 963117">
            <g id="Grupo_963108" data-name="Grupo 963108" transform="translate(12.834 22.714)">
              <path id="Trazado_630437" data-name="Trazado 630437" d="M184.545,225.018q-.04,0-.079,0c-.111-.01-.222-.016-.335-.016h-6a.842.842,0,1,1,0-1.685h6q.248,0,.491.023a.842.842,0,0,1-.077,1.681Z" transform="translate(-177.287 -223.314)"/>
            </g>
            <g id="Grupo_963109" data-name="Grupo 963109" transform="translate(6.345 19.086)">
              <path id="Trazado_630438" data-name="Trazado 630438" d="M117.606,195.047c-1.347,0-2.671-.81-3.938-2.41a.842.842,0,0,1-.182-.523v-3.628a.842.842,0,0,1,1.685,0v3.328a3.5,3.5,0,0,0,2.436,1.548h.016a3.36,3.36,0,0,0,2.353-1.539v-3.31a.842.842,0,0,1,1.685,0v3.6a.841.841,0,0,1-.172.51c-1.213,1.594-2.508,2.409-3.85,2.423Z" transform="translate(-113.486 -187.644)"/>
            </g>
            <g id="Grupo_963116" data-name="Grupo 963116">
              <g id="Grupo_963110" data-name="Grupo 963110" transform="translate(0.587 8.187)">
                <path id="Trazado_630439" data-name="Trazado 630439" d="M66.764,93.641c-5.45,0-9.884-4.113-9.884-9.169V82.731a.842.842,0,1,1,1.685,0v1.741c0,4.127,3.678,7.484,8.2,7.484s8.2-3.357,8.2-7.484V81.333a.842.842,0,0,1,1.685,0v3.138C76.646,89.527,72.213,93.641,66.764,93.641Z" transform="translate(-56.88 -80.491)"/>
              </g>
              <g id="Grupo_963113" data-name="Grupo 963113" transform="translate(5.471 11.036)">
                <g id="Grupo_963111" data-name="Grupo 963111">
                  <path id="Trazado_630440" data-name="Trazado 630440" d="M105.738,111.581a.842.842,0,0,1-.842-.842v-1.4a.842.842,0,0,1,1.685,0v1.4A.842.842,0,0,1,105.738,111.581Z" transform="translate(-104.896 -108.498)"/>
                </g>
                <g id="Grupo_963112" data-name="Grupo 963112" transform="translate(8.314)">
                  <path id="Trazado_630441" data-name="Trazado 630441" d="M187.479,111.581a.842.842,0,0,1-.842-.842v-1.4a.842.842,0,0,1,1.685,0v1.4A.842.842,0,0,1,187.479,111.581Z" transform="translate(-186.637 -108.498)"/>
                </g>
              </g>
              <g id="Grupo_963114" data-name="Grupo 963114">
                <path id="Trazado_630442" data-name="Trazado 630442" d="M51.949,11.315a.843.843,0,0,1-.842-.842A10.473,10.473,0,0,1,68.985,3.066h0a10.51,10.51,0,0,1,2.978,6.038.841.841,0,0,1-1.109.905,11.711,11.711,0,0,1-5.129-3.193c-5.832,4.065-13.4,4.481-13.735,4.5ZM61.58,1.685a8.79,8.79,0,0,0-8.741,7.862c2.261-.254,8.168-1.213,12.534-4.558a.843.843,0,0,1,1.2.187,8.3,8.3,0,0,0,3.388,2.664A8.788,8.788,0,0,0,61.58,1.685Z" transform="translate(-51.107 0)"/>
              </g>
              <g id="Grupo_963115" data-name="Grupo 963115" transform="translate(6.818 14.686)">
                <path id="Trazado_630443" data-name="Trazado 630443" d="M124.528,147.453a.822.822,0,0,1-.144-.012,6.057,6.057,0,0,1-2.627-1.074,6.056,6.056,0,0,1-2.628,1.074.842.842,0,1,1-.285-1.66A3.772,3.772,0,0,0,121.1,144.7a.854.854,0,0,1,.656-.315h.013a.846.846,0,0,1,.66.325,3.789,3.789,0,0,0,2.245,1.067.842.842,0,0,1-.142,1.672Z" transform="translate(-118.143 -144.389)"/>
              </g>
            </g>
          </g>
          <g id="Grupo_963118" data-name="Grupo 963118" transform="translate(17.648 33.098)">
            <path id="Trazado_630444" data-name="Trazado 630444" d="M225.458,331.918a.842.842,0,0,1-.842-.842V326.25a.842.842,0,0,1,1.685,0v4.826A.842.842,0,0,1,225.458,331.918Z" transform="translate(-224.616 -325.408)"/>
          </g>
          <g id="Grupo_963119" data-name="Grupo 963119" transform="translate(1.608 33.098)">
            <path id="Trazado_630445" data-name="Trazado 630445" d="M67.758,336.112a.842.842,0,0,1-.842-.842V326.25a.842.842,0,0,1,1.685,0v9.019A.842.842,0,0,1,67.758,336.112Z" transform="translate(-66.916 -325.408)"/>
          </g>
        </g>
        <g id="Grupo_963122" data-name="Grupo 963122" transform="translate(19.576 36.736)">
          <g id="Grupo_963121" data-name="Grupo 963121">
            <path id="Trazado_630446" data-name="Trazado 630446" d="M225.728,368.238H205.709a.842.842,0,0,1-.842-.842,6.232,6.232,0,0,1,6.225-6.224h2.1a.842.842,0,0,1,0,1.685h-2.1a4.548,4.548,0,0,0-4.462,3.7h18.177a4.548,4.548,0,0,0-4.462-3.7h-2.1a.842.842,0,0,1,0-1.685h2.1a6.232,6.232,0,0,1,6.225,6.224A.842.842,0,0,1,225.728,368.238Z" transform="translate(-204.867 -361.171)"/>
          </g>
        </g>
        <g id="Grupo_963133" data-name="Grupo 963133" transform="translate(0 16.512)">
          <g id="Grupo_963129" data-name="Grupo 963129">
            <g id="Grupo_963128" data-name="Grupo 963128">
              <g id="Grupo_963123" data-name="Grupo 963123" transform="translate(23.022 7.954)">
                <path id="Trazado_630447" data-name="Trazado 630447" d="M246.158,252.275a7.412,7.412,0,0,1-7.413-7.4V243.81a6.285,6.285,0,0,1,.647-2.792.842.842,0,1,1,1.512.742,4.617,4.617,0,0,0-.475,2.05v1.062a5.72,5.72,0,0,0,11.439,0V243.81a4.628,4.628,0,0,0-.307-1.668.842.842,0,0,1,1.573-.6,6.31,6.31,0,0,1,.419,2.272v1.062a7.408,7.408,0,0,1-7.4,7.4Z" transform="translate(-238.746 -240.546)"/>
              </g>
              <g id="Grupo_963124" data-name="Grupo 963124" transform="translate(0 6.198)">
                <path id="Trazado_630448" data-name="Trazado 630448" d="M40.3,244.367H13.248a.842.842,0,0,1-.842-.842V228.4a5.131,5.131,0,0,1,5.122-5.13h6.006a.842.842,0,1,1,0,1.685H17.528a3.445,3.445,0,0,0-3.437,3.445v14.278H40.3a.842.842,0,0,1,0,1.685Z" transform="translate(-12.406 -223.274)"/>
              </g>
              <g id="Grupo_963125" data-name="Grupo 963125" transform="translate(27.055 17.495)">
                <path id="Trazado_630449" data-name="Trazado 630449" d="M281.8,340.387a4.261,4.261,0,0,1-3.216-1.95.842.842,0,0,1-.182-.523v-2.729a.843.843,0,0,1,1.663-.193.908.908,0,0,1,.024.2v2.421A2.634,2.634,0,0,0,281.8,338.7h.01a2.4,2.4,0,0,0,1.651-1.08v-2.436a.842.842,0,1,1,1.685,0v2.728a.838.838,0,0,1-.172.51,4.145,4.145,0,0,1-3.147,1.963Z" transform="translate(-278.398 -334.343)"/>
              </g>
              <g id="Grupo_963127" data-name="Grupo 963127" transform="translate(22.824)">
                <g id="Grupo_963126" data-name="Grupo 963126">
                  <path id="Trazado_630450" data-name="Trazado 630450" d="M251.324,173.033a.843.843,0,0,1-.593-.244,5.916,5.916,0,0,0-3.669-1.617l-9.3.874a.846.846,0,0,1-.9-.651,4.565,4.565,0,0,1,1.271-3.705,7.241,7.241,0,0,1,6.044-2.522c1.926.131,2.467-.227,2.613-.385.171-.186.135-.529.066-.994a3.41,3.41,0,0,1-.057-.63.842.842,0,0,1,1.3-.682c.832.532,4.065,3.166,4.7,6.333a4.87,4.87,0,0,1-.785,3.861.841.841,0,0,1-.615.36C251.376,173.031,251.35,173.033,251.324,173.033Zm-4.33-3.543a7.407,7.407,0,0,1,4.064,1.392,3.262,3.262,0,0,0,.092-1.742,8.743,8.743,0,0,0-2.623-4.132,2.071,2.071,0,0,1-.492.913c-.7.763-1.966,1.058-3.963.926a5.576,5.576,0,0,0-4.652,1.934,4.153,4.153,0,0,0-.85,1.5l8.414-.787Z" transform="translate(-236.805 -162.342)"/>
                </g>
              </g>
            </g>
          </g>
          <g id="Grupo_963132" data-name="Grupo 963132" transform="translate(26.93 10.724)">
            <g id="Grupo_963130" data-name="Grupo 963130">
              <path id="Trazado_630451" data-name="Trazado 630451" d="M278.011,270.568a.842.842,0,0,1-.842-.842v-1.108a.842.842,0,1,1,1.685,0v1.108A.842.842,0,0,1,278.011,270.568Z" transform="translate(-277.169 -267.775)"/>
            </g>
            <g id="Grupo_963131" data-name="Grupo 963131" transform="translate(5.31)">
              <path id="Trazado_630452" data-name="Trazado 630452" d="M330.216,270.568a.842.842,0,0,1-.842-.842v-1.108a.842.842,0,1,1,1.685,0v1.108A.842.842,0,0,1,330.216,270.568Z" transform="translate(-329.374 -267.775)"/>
            </g>
          </g>
        </g>
      </g>
    </g>
  </g>
</svg>
