<svg xmlns="http://www.w3.org/2000/svg" xmlns:xlink="http://www.w3.org/1999/xlink" width="236" height="236" viewBox="0 0 236 236">
  <defs>
    <clipPath id="clip-path">
      <rect id="Rectángulo_309596" data-name="Rectángulo 309596" width="236" height="236" transform="translate(945 1441)" fill="#fff" stroke="#707070" stroke-width="1"/>
    </clipPath>
    <clipPath id="clip-path-2">
      <rect id="Rectángulo_306477" data-name="Rectángulo 306477" width="203.896" height="104.972" fill="none"/>
    </clipPath>
    <clipPath id="clip-path-3">
      <circle id="Elipse_4713" data-name="Elipse 4713" cx="100.791" cy="100.791" r="100.791" transform="translate(0 142.54) rotate(-45)" fill="none"/>
    </clipPath>
  </defs>
  <g id="Enmascarar_grupo_878410" data-name="Enmascarar grupo 878410" transform="translate(-945 -1441)" clip-path="url(#clip-path)">
    <g id="Grupo_949744" data-name="Grupo 949744" transform="translate(363.986 889.666)">
      <g id="Grupo_949690" data-name="Grupo 949690" transform="translate(596.566 661.016)">
        <g id="Grupo_949689" data-name="Grupo 949689" transform="translate(0 10.173)">
          <g id="Grupo_949688" data-name="Grupo 949688" clip-path="url(#clip-path-2)">
            <g id="Grupo_949687" data-name="Grupo 949687" transform="translate(-40.395 -140.542)">
              <g id="Grupo_949686" data-name="Grupo 949686" transform="translate(0 0)">
                <circle id="Elipse_4712" data-name="Elipse 4712" cx="100.791" cy="100.791" r="100.791" transform="translate(41.749 41.748)" fill="#358eb8"/>
                <g id="Grupo_949685" data-name="Grupo 949685">
                  <g id="Grupo_949684" data-name="Grupo 949684" clip-path="url(#clip-path-3)">
                    <g id="Grupo_949683" data-name="Grupo 949683" transform="translate(57.707 47.823)">
                      <g id="Grupo_949682" data-name="Grupo 949682">
                        <path id="Trazado_626591" data-name="Trazado 626591" d="M820.287,651.3a9.535,9.535,0,0,0,4.654-2.09,3.01,3.01,0,0,0,.594-2.112c-.18-.5-1.237-1.054-1.746-1.2a5.457,5.457,0,0,0-2.8.094,7.856,7.856,0,0,0-2.613,2.791c-.24.468-.7,1.628-.406,2.065C818.3,651.338,819.7,651.37,820.287,651.3Z" transform="translate(-681.549 -603.927)" fill="#b7e88c"/>
                        <path id="Trazado_626592" data-name="Trazado 626592" d="M726.669,605.043c.176.79-1.278,2.244-2.049,2.516-.809.293-2.536-.5-3.384-.663-.206-.039-.635-.244-.82-.166-.81.351-1.043,2.721-1.882,2.975-2.419.732-9.355-1.648-9.189-4.165.146-2.176,7.716-.459,8.359-2.546.293-.916-1.551-2.565-2.4-3.014a12.385,12.385,0,0,0-6.692-.459c-.2.059-.478.488-.693.478,0,0-.01-.019-.019-.01-.039,0-.1.088-.126.117a9.025,9.025,0,0,1-2.263,1.581c-.771.2-2.555-.868-3.161-.341-.3.253-.234,1.238-.049,1.59.137.274.888.38.985.664a.593.593,0,0,1-.137.507c-.526.371-2.058-.507-2.594-.136-.312.214-.156,1.229-.478,1.424a2.641,2.641,0,0,1-2.438-.342c-.488-.585.673-2.487.136-3-.839-.791-3.473.214-4.6.468-2.555.566-8.437,1.258-9.881,3.453-.527.8-.127,2.965.283,3.843a7.011,7.011,0,0,0,2.156,2.1c1.092.673,4.195.556,4.828,1.658.711,1.249-2,4.517-1.112,5.638.371.458,1.834.332,2.36.078,1.122-.536,1.9-3.365,2.975-3.979,1.219-.7,4.565.312,5.6-.644,1.268-1.161.273-5.384,1.327-6.75a5.875,5.875,0,0,1,3.366-1.638c1.853-.03,6,1.366,6.76,3.062.468,1.044-1.961,3.385-1.376,4.37.244.41,1.425.39,1.9.371,1.483-.049,4.6-2.526,5.707-1.541,1.122,1-1.395,4.507-.9,5.921.176.488,1.141,1.043,1.522,1.395.459.41,1.639,1.073,1.815,1.659a4.626,4.626,0,0,1-.839,3.443c-.381.342-1.522.2-2.029.273-.458.059-1.541-.107-1.854.254a1.489,1.489,0,0,0,.019,1.19c.2.371,1.025.732,1.365.975.654.468,2.342,1.122,2.624,1.883a2.812,2.812,0,0,1-.556,2.38,1.345,1.345,0,0,1-1.287-.146c-.03-.029.01-.049,0-.068-.205-.351-1.073-.576-1.434-.771-.936-.5-3.239-1.083-3.756-2.019-.224-.39.391-1.453.117-1.814h-.01c-.058-.5,1.522-.41,1.834-.79a2.143,2.143,0,0,0,.312-1.62,1.931,1.931,0,0,0-1.648-.771c-.371.127-.38,1.2-.722,1.405-.683.39-2.381.087-3.141-.127-.078-.029-.2-.2-.283-.166-.029.019,0,.127-.029.156a1.244,1.244,0,0,1-1.083-.049c-.39-.312-.234-1.5-.526-1.912a2.7,2.7,0,0,0-.907-.625,5.578,5.578,0,0,0-2.165-.429,2.324,2.324,0,0,0-1.151.614,2.464,2.464,0,0,0-.351,1.8c.2.458,1.277.78,1.736.985.429.2,1.8.146,1.785.614-.01.117-.342.049-.448.1-.576.273-1.415,1.667-2.039,1.531-.292-.069-.342-.868-.556-1.073a2.791,2.791,0,0,0-1.531-.741c-1.531.078-4.965,1.756-5.209,3.277-.029.185.527.4.478.585-.537,1.815-5.511,1.473-7.209,2.321-2.019,1-6.008,3.366-7.364,5.16-.439.576-.469,2.224-.975,2.751-1.288,1.356-5.277,1.941-6.926,2.819-.966.517-3.053,1.531-3.628,2.458-.83,1.327.566,5.57-.868,6.184-1.093.459-3.4-1.688-3.833-2.789-.332-.849,1.239-2.81.732-3.57-1.649-2.487-8.74-2.419-11.725-2.3a17.551,17.551,0,0,0-6.672,1.883c-1.19.771-2.839,3.16-3.6,4.341a12.064,12.064,0,0,0-1.8,3.658,6.88,6.88,0,0,0,.975,4.068c.839.907,3.443,1.57,4.672,1.522,2.332-.088,6.624-4.819,8.6-3.59.566.351.371,2.019.166,2.653-.38,1.209-3.511,2.712-3.18,3.931.39,1.444,4.828.839,5.6,2.126,1.171,1.951-2.351,7.092-1.18,9.053,1.053,1.756,5.638,3.209,7.667,2.9,1.941-.293,4.243-4.565,6.184-4.828,1.58-.215,4.73,1.336,5.872,2.438.673.654.81,2.858,1.561,3.414,1.2.888,4.673,1.619,5.931.81.38-.244.088-1.57.508-1.707.868-.283,2.36,1.473,2.916,2.2,1.034,1.375,1.2,5.3,2.516,6.408,1.22,1.034,5.063.264,6.263,1.317.887.79,1.395,3.326,1.522,4.506.117,1.259-1.19,3.883-.644,5.024.517,1.1,3.092,1.931,4.127,2.575a20.951,20.951,0,0,0,2.292,1.434c2.078.829,7.053.351,8.74,1.8.956.819.927,3.755,1.746,4.712.673.78,3.3,1.024,3.629,2,.293.858-.887,2.6-1.424,3.336-1.044,1.405-4.36,3.1-5.316,4.565-1.677,2.565-1.629,9.374-3.6,11.725a9.242,9.242,0,0,1-4.429,2.283c-1.443.185-4.292-1.746-5.667-1.288-.927.293-1.912,2.185-2.546,2.917a.01.01,0,0,0-.01.01v.019c.049,1.619.848,4.984.2,6.457-.235.537-1.317,1.141-1.756,1.522-1.5,1.3-4.614,3.775-6.009,5.189-.732.761-1.795,2.682-2.692,3.248-1.4.9-4.809,1.512-6.467,1.688-.995.1-3.189-.761-4-.176a1.874,1.874,0,0,0-.488,1.619c.283.664,2.322.635,2.576,1.317.156.43-.391,1.356-.683,1.707-.546.673-2.682,1.044-2.907,1.873-.156.585.644,1.785,1.122,2.156.595.459,2.536.019,2.926.664.292.5-.39,1.707-.614,2.243-.235.556-.966,1.522-1.22,2.078a4.153,4.153,0,0,0-.6,1.765c.244,1.425,3.492,3.073,3.629,4.517a2.5,2.5,0,0,1-.956,1.785c-1.366.635-4.614-.468-5.892-1.278-1.687-1.053-3.94-4.535-4.877-6.291-1.122-2.088-2.955-6.6-3.014-8.964-.039-1.99,2.351-5.677,2.176-7.657-.127-1.463-2.507-3.833-2.556-5.306-.088-2.029,3.668-5.677,2.946-7.57-.2-.517-1.717-.5-1.952-.985-1.911-3.9,4.488-12.847,3.337-17.022-.508-1.853-4.917-5.52-5.248-5.589s-2.5-.653-2.907-1.336c-.439-.712.235-2.526.049-3.336-.712-2.995-5.56-7.833-5.668-10.9-.029-.888,1.132-2.409,1.405-3.248.448-1.336.429-4.4,1.336-5.491,1.034-1.239,4.985-1.288,5.911-2.6s1.4-5.053.478-6.35c-1.122-1.59-5.95-.878-7.482-2.068-1.824-1.395-2.946-6.37-4.624-7.94a17.737,17.737,0,0,0-3.99-1.981c-.644-.292-2.321-.4-2.624-1.034-.263-.585,1.093-1.844.819-2.419-.4-.8-2.6-1.62-3.375-1.181-.312.185.039,1.249-.273,1.405-2.038,1.034-6.691-2.2-8.262-3.843-1.111-1.18-2.692-4.428-2.438-6.038.117-.741,1.824-1.561,1.931-2.3.361-2.458-3.463-6.662-3.922-9.1-.283-1.483,1.151-4.867.2-6.048a2.281,2.281,0,0,0-2.224-.439c-1.161.888-.614,4.4-.38,5.843.282,1.756,2.634,4.828,2.644,6.613.01.595-.322,1.99-.868,2.234-.751.351-2.536-.537-3.121-1.122-1.4-1.425-2.5-5.55-2.634-7.54s2.263-6,1.541-7.872c-.419-1.083-3.316-1.707-3.736-2.79-.488-1.278.946-5.2,1.1-5.618l.01-.04v-.029a101.5,101.5,0,0,1,41.388-34.94,24.2,24.2,0,0,1,4.857.927c.585.283,1.434,1.336,1.99,1.678.927.575,3.423.819,4.029,1.736.234.351-.264,1.375,0,1.717,1.063,1.336,5.423,2.75,6.652,1.561.42-.41-.068-1.9-.487-2.321-1.064-1.083-5.658.156-5.921-1.336-.078-.488,1.454-.6,1.668-1.043a2.11,2.11,0,0,0-.185-1.668c-.927-1.015-5.209.3-5.375-1.064-.234-1.843,4.877-2.984,6.721-3.218,1.424-.185,4.5.214,5.628,1.1.9.7,1.043,3.424,1.922,4.156a7.443,7.443,0,0,0,4.341,1.112c.926-.156,2.2-2.088,3.141-2.049.566.019,1.814.819,1.795,1.385-.049,1.288-3.063,2.576-4.34,2.839-1.112.224-4.556-.761-4.8-.848.224.1-.79,2.828-.273,3.541.917,1.259,4.721,1.658,6.145,1.034.41-.185.576-1.337.986-1.522.975-.449,3.326,1.111,4.263.576a2.755,2.755,0,0,0,.985-2.381c-.254-.585-2.2-.292-2.4-.9-.2-.576.751-1.747,1.268-2.068a4.315,4.315,0,0,1,2.009-.2c1.678.117,6.292-.04,6.546,1.629.185,1.239-3.7,1.483-4.292,2.585a3.431,3.431,0,0,0,.088,2.673c.576.8,2.848,1.833,3.687,1.326,1-.6-.117-3.774.653-4.672.683-.79,2.975-1.082,4.009-1.19a20.266,20.266,0,0,1,6.6.527c1.942.7,5.082,3.57,6.78,4.75.439.3,1.531.722,1.736,1.22.331.839-1.112,2.741-.7,3.55C724.181,604.409,726.493,604.282,726.669,605.043Z" transform="translate(-621.503 -585.5)" fill="#b7e88c"/>
                        <path id="Trazado_626593" data-name="Trazado 626593" d="M843.767,635.336c-1.087.627-3.786.4-4.939.9a5.873,5.873,0,0,0-2.346,1.721,3.4,3.4,0,0,0-.037,2.531c.349.5,1.9.334,2.3.794.64.741-.079,3.3.73,3.847.927.63,3.557-1.581,4.4-.845.925.807.707,4.149-.262,4.9-.247.193-.929-.159-1.232-.242-.832-.228-2.406-1-3.255-1.155a9.571,9.571,0,0,0-3.838-.107c-1.481.568-3.111,3.814-4.594,4.374-1.241.468-4.195-.938-5.3-.205-.948.629-2.042,3.206-1.608,4.258.217.525,1.865.408,2.069.939a3,3,0,0,1-1.176,2.707c-1.232.5-3.605-1.786-4.912-2.031-1.2-.225-3.825-.5-4.887.105a5.3,5.3,0,0,0-1.5,2.414c-.419,1.345-.871,4.358-.264,5.628a6.061,6.061,0,0,0,2.5,1.828,23.909,23.909,0,0,0,4.611.875c.787.115,2.451.676,3.167.328.608-.3,1-1.775,1.44-2.29,1.319-1.548,4.1-5.042,6.111-5.371.822-.135,2.241,1.346,3.071,1.286,1.081-.078,2.755-2.735,3.714-2.232.521.272-.09,1.811.152,2.346.982,2.174,6.794,4.377,6.735,6.762-.01.4-.8.991-1.2,1.089-.866.217-2.889-1.558-3.464-.875-.383.455.546,1.754.968,2.172a4.6,4.6,0,0,0,2.065.9,4.422,4.422,0,0,0,2.727-.559c.541-.553.032-2.474.554-3.046.215-.236,1.115-.044,1.23-.342s-.494-.878-.713-1.131c-.991-1.141-3.877-2.585-4.612-3.905-.5-.907-1.361-3.387-.611-4.1.794-.757,3.392.24,4.307.846.41.271.813,1.232,1.1,1.63.735,1.008,2.767,2.716,3.084,3.924.25.953-.8,2.93-.6,3.9.289,1.4,1.611,4.927,3.037,4.844,1.472-.086,1.421-4.358,2.533-5.325.582-.507,2.343-1.413,2.946-.93.917.735-.671,3.539-.4,4.683a7.4,7.4,0,0,0,2.041,3.363c1.088.746,4.52-.425,4.944.741a101.334,101.334,0,0,0-19.343-43.6A7.757,7.757,0,0,1,843.767,635.336Z" transform="translate(-680.004 -600.229)" fill="#b7e88c"/>
                        <path id="Trazado_626594" data-name="Trazado 626594" d="M828.813,644.957c.482.471,1.716,1.219,1.962,1.846a2.079,2.079,0,0,1-.113,1.65c-.455.429-2-.351-2.5.026-.7.528-1.452,2.614-1,3.364.381.63,2.162.461,2.891.568.973.143,2.973.667,3.915.385.752-.224,2.488-1.187,2.443-1.971-.033-.575-1.547-.818-1.946-1.234a7.515,7.515,0,0,1-.892-1.552,17.671,17.671,0,0,1-1.188-3.15c-.19-1.015.692-3.406-.044-4.13-.6-.595-2.612-.312-3.393.02A3.436,3.436,0,0,0,827.763,642a2.9,2.9,0,0,0-.309,1.575C827.593,644.04,828.467,644.618,828.813,644.957Z" transform="translate(-684.346 -602.291)" fill="#b7e88c"/>
                        <path id="Trazado_626595" data-name="Trazado 626595" d="M735.819,648.669c-.376-.03-.952.655-1.156.973s-.6,1.112-.393,1.416a2.176,2.176,0,0,0,2.1.233,1.845,1.845,0,0,0,.494-1.4C736.792,649.493,736.219,648.7,735.819,648.669Z" transform="translate(-655.966 -604.815)" fill="#b7e88c"/>
                        <path id="Trazado_626596" data-name="Trazado 626596" d="M745.523,648.484c-.277-.081-.873-.316-1.137-.2-.379.167-.508,1.238-.889,1.4-.666.286-2.244-.964-2.846-.56a1.512,1.512,0,0,0-.289,1.47c.1.143.571,0,.676.133s-.313.421-.041.741c.289.34,1.33.253,1.773.2a2.812,2.812,0,0,0,1.222-.464c.256-.247.248-1.131.555-1.311s1.107.3,1.439.156c.3-.13.864-.728.778-1.042S745.846,648.579,745.523,648.484Z" transform="translate(-657.82 -604.688)" fill="#b7e88c"/>
                        <path id="Trazado_626597" data-name="Trazado 626597" d="M857.24,701.872c-.088.162-.266.169-.451.2a4.84,4.84,0,0,1-.509.058h0a16.966,16.966,0,0,1-7.42-1.615c-1.338-.755-2.759-3.859-4.132-4.547-1.161-.583-4.133-1.28-5.175-.5-.634.472.046,2.662-.61,3.1-.341.229-1.252-.118-1.612-.317-.476-.262-1.052-1.261-1.491-1.579-1.872-1.36-7.323-1.9-8.365-3.961-.655-1.3,1.977-4.528,1.12-5.7-1.681-2.3-8.489-1.582-11.329-1.322-1,.091-2.826,1.127-3.826,1.179a20.484,20.484,0,0,1-4.429-.87,12.053,12.053,0,0,0-2.132-.645c-1.568.015-4.924.759-5.964,1.932-.95,1.071-.218,4.494-1.1,5.618-2.137,2.714-10.79,2.8-12.552,5.771a4.247,4.247,0,0,0,.247,3.566c.376.426,1.956-.06,2.229.438.4.732-.566,2.586-1.216,3.11-.332.267-1.375-.026-1.684.268-1.552,1.484-2.078,6.3-1.731,8.415.591,3.62,4.387,10.558,7.374,12.686.857.611,3.167,1.232,4.132.812.165-.072.214-.539.38-.612,1.738-.757,5.573,1.8,7.438,1.461.732-.133,1.8-1.429,2.534-1.561a7.817,7.817,0,0,1,4.217.828c.694.462,1.186,2.271,1.855,2.768,1.292.959,5.4.468,6.154,1.888,1.007,1.886-2.5,6.051-2.468,8.188.052,3.605,5.2,10.134,4.56,13.683-.357,1.988-4.276,4.44-5.058,6.3a7.333,7.333,0,0,0-.4,3.357c.246,1.013,2.126,2.434,2.334,3.455.4,1.985-1.814,5.94-1.561,7.949.2,1.609,2.584,4.247,2.787,5.856.21,1.671-2.238,5.212-1.3,6.61.394.586,2.459.641,3.091.645a101.2,101.2,0,0,0,36.066-86.914Z" transform="translate(-671.497 -616.032)" fill="#b7e88c"/>
                      </g>
                    </g>
                  </g>
                </g>
              </g>
              <path id="Trazado_626598" data-name="Trazado 626598" d="M800.1,716.344a100.792,100.792,0,1,1-200.787-12.7,100.8,100.8,0,0,0,199.991,0A101.132,101.132,0,0,1,800.1,716.344Z" transform="translate(-556.766 -573.803)" fill="#358eb8" opacity="0.2" style="mix-blend-mode: multiply;isolation: isolate"/>
            </g>
          </g>
        </g>
        <ellipse id="Elipse_4714" data-name="Elipse 4714" cx="100.791" cy="10.173" rx="100.791" ry="10.173" transform="translate(1.373)" fill="#68300a"/>
      </g>
      <g id="Grupo_949717" data-name="Grupo 949717" transform="translate(722.71 562.507)">
        <g id="Grupo_949692" data-name="Grupo 949692" transform="translate(8.614)">
          <g id="Grupo_949691" data-name="Grupo 949691">
            <path id="Trazado_626599" data-name="Trazado 626599" d="M845.613,580.576c-.37-5.547-6.531-5.685-6.531-5.685s-1.008-6.333-7.459-7.442a8.238,8.238,0,0,0-6.576,1.522,3.8,3.8,0,0,0-5.283-.821,9.29,9.29,0,0,0-7.658-3.537c-9.326,0-10.436,8.875-10.436,8.875-3.945-1.726-11.464.246-10.97,7.026s5.177,7.026,8.011,9.491a5.972,5.972,0,0,1,2.219,5.423H810.3s-.247-5.423,4.191-5.053a15.67,15.67,0,0,0,2.034.039,3.814,3.814,0,0,0,7.057,1.651c1.33,1.532,3.534,2.841,7.241,2.932a7.207,7.207,0,0,0,6.794-3.959,3.819,3.819,0,0,0,5.531-5.235A5.627,5.627,0,0,0,845.613,580.576Z" transform="translate(-790.678 -563.151)" fill="#79ca54"/>
            <circle id="Elipse_4715" data-name="Elipse 4715" cx="2.116" cy="2.116" r="2.116" transform="translate(6.391 4.668)" fill="#79ca54"/>
            <path id="Trazado_626600" data-name="Trazado 626600" d="M863.274,577.155a1.469,1.469,0,1,0-1.469-1.469A1.469,1.469,0,0,0,863.274,577.155Z" transform="translate(-812.427 -566.088)" fill="#79ca54"/>
            <path id="Trazado_626601" data-name="Trazado 626601" d="M860.643,568.643a3.068,3.068,0,1,0-3.069-3.068A3.068,3.068,0,0,0,860.643,568.643Z" transform="translate(-811.133 -562.507)" fill="#79ca54"/>
            <path id="Trazado_626602" data-name="Trazado 626602" d="M872.9,598.31a3.068,3.068,0,1,0-3.068-3.068A3.069,3.069,0,0,0,872.9,598.31Z" transform="translate(-814.881 -571.578)" fill="#79ca54"/>
          </g>
        </g>
        <g id="Grupo_949700" data-name="Grupo 949700" transform="translate(0 30.329)">
          <path id="Trazado_626603" data-name="Trazado 626603" d="M814.139,631.934c-1.5-9.025-1.273-23.257-1.273-23.257H790.072s.231,14.232-1.273,23.257-9.835,42.926-10.529,53.34h46.4C823.973,674.86,815.642,640.959,814.139,631.934Z" transform="translate(-778.27 -606.953)" fill="#3f7482"/>
          <path id="Trazado_626604" data-name="Trazado 626604" d="M814.139,631.934c-1.5-9.025-1.273-23.257-1.273-23.257H790.072s.231,14.232-1.273,23.257-9.835,42.926-10.529,53.34h46.4C823.973,674.86,815.642,640.959,814.139,631.934Z" transform="translate(-778.27 -606.953)" fill="#3f7482"/>
          <path id="Trazado_626605" data-name="Trazado 626605" d="M835.862,685.271h-9.178c-.694-10.413-9.025-44.312-10.531-53.337s-1.27-23.257-1.27-23.257h9.178s-.236,14.232,1.271,23.257S835.167,674.858,835.862,685.271Z" transform="translate(-789.461 -606.953)" fill="#326470" opacity="0.7"/>
          <path id="Trazado_626606" data-name="Trazado 626606" d="M817.939,607.918h-23.7a.862.862,0,0,1-.862-.862h0a.862.862,0,0,1,.862-.862h23.7a.862.862,0,0,1,.862.862h0A.862.862,0,0,1,817.939,607.918Z" transform="translate(-782.888 -606.194)" fill="#10404f"/>
          <path id="Trazado_626607" data-name="Trazado 626607" d="M817.939,620.65h-23.7a.862.862,0,0,1-.862-.862h0a.862.862,0,0,1,.862-.862h23.7a.862.862,0,0,1,.862.862h0A.862.862,0,0,1,817.939,620.65Z" transform="translate(-782.888 -610.087)" fill="#10404f"/>
          <g id="Grupo_949699" data-name="Grupo 949699" transform="translate(11.583 40.221)">
            <g id="Grupo_949698" data-name="Grupo 949698">
              <g id="Grupo_949693" data-name="Grupo 949693" transform="translate(13.585 11.32)">
                <path id="Trazado_626608" data-name="Trazado 626608" d="M822.916,680.794a10.327,10.327,0,0,1-4.864,8.71.2.2,0,0,1-.225-.119c-1.1-1.692-2.207-3.384-3.3-5.075a4.082,4.082,0,0,0,2.115-3.582,2.067,2.067,0,0,0-.013-.291C818.726,680.543,820.814,680.662,822.916,680.794Z" transform="translate(-814.523 -680.437)" fill="#79ca54"/>
              </g>
              <g id="Grupo_949694" data-name="Grupo 949694" transform="translate(6.581 1.262)">
                <path id="Trazado_626609" data-name="Trazado 626609" d="M814.4,667.192c-.952,1.863-1.876,3.74-2.841,5.617a4.029,4.029,0,0,0-2.088-.582,4.139,4.139,0,0,0-2.194.634c-.965-1.863-1.89-3.74-2.841-5.6a10.372,10.372,0,0,1,9.965-.065Z" transform="translate(-804.434 -665.949)" fill="#79ca54"/>
              </g>
              <g id="Grupo_949695" data-name="Grupo 949695" transform="translate(1.254 11.42)">
                <path id="Trazado_626610" data-name="Trazado 626610" d="M805.193,684.38a.1.1,0,0,1-.026.053q-1.646,2.517-3.291,5.048a.352.352,0,0,1-.158.132,10.378,10.378,0,0,1-4.956-8.631,1.17,1.17,0,0,1,.608-.106c1.758-.092,3.516-.2,5.273-.29.132-.013.264,0,.41,0a.811.811,0,0,0-.013.185A4.092,4.092,0,0,0,805.193,684.38Z" transform="translate(-796.761 -680.581)" fill="#79ca54"/>
              </g>
              <g id="Grupo_949696" data-name="Grupo 949696" transform="translate(8.733 8.733)">
                <path id="Trazado_626611" data-name="Trazado 626611" d="M813.3,679.593a2.883,2.883,0,1,1-2.882-2.883A2.883,2.883,0,0,1,813.3,679.593Z" transform="translate(-807.534 -676.71)" fill="#79ca54"/>
              </g>
              <g id="Grupo_949697" data-name="Grupo 949697">
                <path id="Trazado_626612" data-name="Trazado 626612" d="M818.186,675.747a11.615,11.615,0,1,1-11.615-11.617A11.616,11.616,0,0,1,818.186,675.747Z" transform="translate(-794.955 -664.131)" fill="none" stroke="#79ca54" stroke-miterlimit="10" stroke-width="0.788"/>
              </g>
            </g>
          </g>
        </g>
        <g id="Grupo_949709" data-name="Grupo 949709" transform="translate(61.431 88.871)">
          <rect id="Rectángulo_306478" data-name="Rectángulo 306478" width="12.314" height="19.193" transform="translate(0.291 0.291)" fill="#3f7482"/>
          <rect id="Rectángulo_306479" data-name="Rectángulo 306479" width="0.667" height="19.193" transform="translate(0.291 0.291)" fill="#64a1af"/>
          <rect id="Rectángulo_306480" data-name="Rectángulo 306480" width="3.381" height="19.193" transform="translate(9.223 0.291)" fill="#326470"/>
          <g id="Grupo_949701" data-name="Grupo 949701">
            <path id="Trazado_626613" data-name="Trazado 626613" d="M879.364,691.1H867.05a.291.291,0,0,1,0-.582h12.314a.291.291,0,1,1,0,.582Z" transform="translate(-866.759 -690.522)" fill="#10404f"/>
            <path id="Trazado_626614" data-name="Trazado 626614" d="M879.364,696.633H867.05a.291.291,0,0,1,0-.582h12.314a.291.291,0,1,1,0,.582Z" transform="translate(-866.759 -692.213)" fill="#326470"/>
            <path id="Trazado_626615" data-name="Trazado 626615" d="M879.364,702.163H867.05a.291.291,0,0,1,0-.582h12.314a.291.291,0,1,1,0,.582Z" transform="translate(-866.759 -693.904)" fill="#326470"/>
            <path id="Trazado_626616" data-name="Trazado 626616" d="M879.364,707.692H867.05a.291.291,0,0,1,0-.582h12.314a.291.291,0,1,1,0,.582Z" transform="translate(-866.759 -695.594)" fill="#326470"/>
            <path id="Trazado_626617" data-name="Trazado 626617" d="M879.364,713.221H867.05a.291.291,0,0,1,0-.582h12.314a.291.291,0,1,1,0,.582Z" transform="translate(-866.759 -697.285)" fill="#326470"/>
            <path id="Trazado_626618" data-name="Trazado 626618" d="M879.364,718.751H867.05a.291.291,0,0,1,0-.582h12.314a.291.291,0,1,1,0,.582Z" transform="translate(-866.759 -698.976)" fill="#10404f"/>
          </g>
          <g id="Grupo_949708" data-name="Grupo 949708" transform="translate(1.982 5.849)">
            <g id="Grupo_949707" data-name="Grupo 949707">
              <g id="Grupo_949702" data-name="Grupo 949702" transform="translate(5.223 4.353)">
                <path id="Trazado_626619" data-name="Trazado 626619" d="M880.365,705.354a3.972,3.972,0,0,1-1.87,3.349.078.078,0,0,1-.086-.046c-.422-.65-.849-1.3-1.27-1.951a1.57,1.57,0,0,0,.813-1.377.819.819,0,0,0,0-.112C878.754,705.258,879.557,705.3,880.365,705.354Z" transform="translate(-877.138 -705.217)" fill="#79ca54"/>
              </g>
              <g id="Grupo_949703" data-name="Grupo 949703" transform="translate(2.53 0.485)">
                <path id="Trazado_626620" data-name="Trazado 626620" d="M877.09,700.124c-.366.716-.722,1.438-1.093,2.16a1.553,1.553,0,0,0-.8-.224,1.588,1.588,0,0,0-.843.244c-.371-.716-.727-1.438-1.093-2.155a3.986,3.986,0,0,1,3.832-.025Z" transform="translate(-873.258 -699.646)" fill="#79ca54"/>
              </g>
              <g id="Grupo_949704" data-name="Grupo 949704" transform="translate(0.482 4.391)">
                <path id="Trazado_626621" data-name="Trazado 626621" d="M873.55,706.733a.041.041,0,0,1-.01.021q-.633.967-1.266,1.941a.136.136,0,0,1-.061.051,3.99,3.99,0,0,1-1.906-3.318.448.448,0,0,1,.234-.04c.675-.036,1.352-.076,2.027-.112a1.491,1.491,0,0,1,.158,0,.32.32,0,0,0,0,.071A1.572,1.572,0,0,0,873.55,706.733Z" transform="translate(-870.308 -705.272)" fill="#79ca54"/>
              </g>
              <g id="Grupo_949705" data-name="Grupo 949705" transform="translate(3.357 3.358)">
                <path id="Trazado_626622" data-name="Trazado 626622" d="M876.667,704.893a1.109,1.109,0,1,1-1.109-1.109A1.109,1.109,0,0,1,876.667,704.893Z" transform="translate(-874.45 -703.784)" fill="#79ca54"/>
              </g>
              <g id="Grupo_949706" data-name="Grupo 949706">
                <path id="Trazado_626623" data-name="Trazado 626623" d="M878.546,703.414a4.466,4.466,0,1,1-4.466-4.467A4.466,4.466,0,0,1,878.546,703.414Z" transform="translate(-869.614 -698.947)" fill="none" stroke="#79ca54" stroke-miterlimit="10" stroke-width="0.303"/>
              </g>
            </g>
          </g>
        </g>
        <g id="Grupo_949711" data-name="Grupo 949711" transform="translate(46.401 70.351)">
          <g id="Grupo_949710" data-name="Grupo 949710">
            <path id="Trazado_626624" data-name="Trazado 626624" d="M871.281,671.449c-.176-2.642-3.112-2.709-3.112-2.709a4.439,4.439,0,0,0-3.554-3.545,3.929,3.929,0,0,0-3.133.726,1.81,1.81,0,0,0-2.517-.391,4.427,4.427,0,0,0-3.649-1.685,4.894,4.894,0,0,0-4.972,4.228c-1.879-.822-5.461.117-5.226,3.347s2.467,3.348,3.817,4.522a2.846,2.846,0,0,1,1.057,2.584h4.463s-.118-2.584,2-2.408a7.384,7.384,0,0,0,.968.019,1.817,1.817,0,0,0,3.362.787,4.45,4.45,0,0,0,3.45,1.4,3.433,3.433,0,0,0,3.237-1.886,1.819,1.819,0,0,0,2.635-2.494A2.681,2.681,0,0,0,871.281,671.449Z" transform="translate(-845.108 -663.844)" fill="#79ca54"/>
            <path id="Trazado_626625" data-name="Trazado 626625" d="M850.5,668.059a1.008,1.008,0,1,0-1.008-1.008A1.008,1.008,0,0,0,850.5,668.059Z" transform="translate(-846.449 -664.516)" fill="#79ca54"/>
            <path id="Trazado_626626" data-name="Trazado 626626" d="M867.214,686.169a1.008,1.008,0,1,0-1.008-1.008A1.008,1.008,0,0,0,867.214,686.169Z" transform="translate(-851.559 -670.054)" fill="#79ca54"/>
            <circle id="Elipse_4716" data-name="Elipse 4716" cx="0.7" cy="0.7" r="0.7" transform="translate(23.525 3.176)" fill="#79ca54"/>
          </g>
        </g>
        <g id="Grupo_949716" data-name="Grupo 949716" transform="translate(28.33 84.523)">
          <g id="Grupo_949712" data-name="Grupo 949712" transform="translate(21.119)">
            <path id="Trazado_626627" data-name="Trazado 626627" d="M849.5,710.969h8.167l-1.388-25.364h-5.39Z" transform="translate(-849.5 -684.67)" fill="#b77b3e"/>
            <path id="Trazado_626628" data-name="Trazado 626628" d="M855.338,685.6V710.97h4.117L858.067,685.6Z" transform="translate(-851.285 -684.669)" fill="#9b6a35"/>
            <path id="Trazado_626629" data-name="Trazado 626629" d="M851.369,685.192H856.6a.467.467,0,0,0,.467-.467h0a.467.467,0,0,0-.467-.467h-5.228a.467.467,0,0,0-.467.467h0A.467.467,0,0,0,851.369,685.192Z" transform="translate(-849.928 -684.258)" fill="#10404f"/>
          </g>
          <path id="Trazado_626630" data-name="Trazado 626630" d="M819.078,713.849H851.3v-2.727a16.111,16.111,0,0,0-16.111-16.111h0a16.111,16.111,0,0,0-16.111,16.111Z" transform="translate(-819.078 -687.546)" fill="#709bb8"/>
          <path id="Trazado_626631" data-name="Trazado 626631" d="M856.746,711.12v2.728h-7.484V711.12A16.106,16.106,0,0,0,836.9,695.451a15.824,15.824,0,0,1,3.742-.444A16.11,16.11,0,0,1,856.746,711.12Z" transform="translate(-824.527 -687.545)" fill="#588aa5"/>
          <g id="Grupo_949713" data-name="Grupo 949713" transform="translate(23.572 20.812)">
            <path id="Trazado_626632" data-name="Trazado 626632" d="M853.147,715.786a1.55,1.55,0,1,0,1.55-1.55A1.549,1.549,0,0,0,853.147,715.786Z" transform="translate(-853.067 -714.236)" fill="#70451b"/>
            <path id="Trazado_626633" data-name="Trazado 626633" d="M853.37,720.509h2.793v-4.624a1.4,1.4,0,0,0-1.4-1.4h0a1.4,1.4,0,0,0-1.4,1.4Z" transform="translate(-853.135 -714.313)" fill="#b77b3e"/>
            <path id="Trazado_626634" data-name="Trazado 626634" d="M855.338,714.486v6.024h1.427v-4.625a1.4,1.4,0,0,0-1.394-1.4Z" transform="translate(-853.737 -714.313)" fill="#9b6a35"/>
            <path id="Trazado_626635" data-name="Trazado 626635" d="M853.171,723.287h2.924a.139.139,0,0,0,.14-.139h0a.139.139,0,0,0-.14-.139h-2.924a.139.139,0,0,0-.139.139h0A.139.139,0,0,0,853.171,723.287Z" transform="translate(-853.032 -716.919)" fill="#70451b"/>
            <path id="Trazado_626636" data-name="Trazado 626636" d="M855.338,723.013v.278H856.8a.139.139,0,0,0,0-.278Z" transform="translate(-853.737 -716.92)" fill="#70451b"/>
          </g>
          <g id="Grupo_949714" data-name="Grupo 949714" transform="translate(14.509 20.812)">
            <path id="Trazado_626637" data-name="Trazado 626637" d="M840.091,715.786a1.55,1.55,0,1,0,1.55-1.55A1.55,1.55,0,0,0,840.091,715.786Z" transform="translate(-840.012 -714.236)" fill="#70451b"/>
            <path id="Trazado_626638" data-name="Trazado 626638" d="M840.315,720.509h2.793v-4.624a1.4,1.4,0,0,0-1.4-1.4h0a1.4,1.4,0,0,0-1.4,1.4Z" transform="translate(-840.08 -714.313)" fill="#b77b3e"/>
            <path id="Trazado_626639" data-name="Trazado 626639" d="M842.283,714.486v6.024h1.427v-4.625a1.4,1.4,0,0,0-1.394-1.4Z" transform="translate(-840.682 -714.313)" fill="#9b6a35"/>
            <path id="Trazado_626640" data-name="Trazado 626640" d="M840.116,723.287h2.924a.138.138,0,0,0,.139-.139h0a.138.138,0,0,0-.139-.139h-2.924a.139.139,0,0,0-.139.139h0A.139.139,0,0,0,840.116,723.287Z" transform="translate(-839.977 -716.919)" fill="#70451b"/>
            <path id="Trazado_626641" data-name="Trazado 626641" d="M842.283,723.013v.278h1.465a.139.139,0,1,0,0-.278Z" transform="translate(-840.682 -716.92)" fill="#70451b"/>
          </g>
          <g id="Grupo_949715" data-name="Grupo 949715" transform="translate(5.446 20.812)">
            <path id="Trazado_626642" data-name="Trazado 626642" d="M827.036,715.786a1.55,1.55,0,1,0,1.55-1.55A1.55,1.55,0,0,0,827.036,715.786Z" transform="translate(-826.957 -714.236)" fill="#70451b"/>
            <path id="Trazado_626643" data-name="Trazado 626643" d="M827.259,720.509h2.794v-4.624a1.4,1.4,0,0,0-1.4-1.4h0a1.4,1.4,0,0,0-1.4,1.4Z" transform="translate(-827.025 -714.313)" fill="#b77b3e"/>
            <path id="Trazado_626644" data-name="Trazado 626644" d="M829.228,714.486v6.024h1.427v-4.625a1.4,1.4,0,0,0-1.395-1.4Z" transform="translate(-827.627 -714.313)" fill="#9b6a35"/>
            <path id="Trazado_626645" data-name="Trazado 626645" d="M827.061,723.287h2.924a.138.138,0,0,0,.139-.139h0a.138.138,0,0,0-.139-.139h-2.924a.138.138,0,0,0-.139.139h0A.138.138,0,0,0,827.061,723.287Z" transform="translate(-826.922 -716.919)" fill="#70451b"/>
            <path id="Trazado_626646" data-name="Trazado 626646" d="M829.228,723.013v.278h1.465a.139.139,0,0,0,0-.278Z" transform="translate(-827.627 -716.92)" fill="#70451b"/>
          </g>
        </g>
      </g>
      <g id="Grupo_949734" data-name="Grupo 949734" transform="translate(600.943 577.042)">
        <rect id="Rectángulo_306481" data-name="Rectángulo 306481" width="20.829" height="70.985" transform="translate(48.695 23.162)" fill="#debc73"/>
        <g id="Grupo_949728" data-name="Grupo 949728" transform="translate(17.285 0)">
          <g id="Grupo_949722" data-name="Grupo 949722" transform="translate(24.162 25.495)">
            <g id="Grupo_949718" data-name="Grupo 949718">
              <rect id="Rectángulo_306482" data-name="Rectángulo 306482" width="26.494" height="0.478" fill="#bc944d"/>
              <rect id="Rectángulo_306483" data-name="Rectángulo 306483" width="26.494" height="0.478" transform="translate(0 2.821)" fill="#bc944d"/>
              <rect id="Rectángulo_306484" data-name="Rectángulo 306484" width="26.494" height="0.478" transform="translate(0 5.641)" fill="#bc944d"/>
              <rect id="Rectángulo_306485" data-name="Rectángulo 306485" width="26.494" height="0.478" transform="translate(0 8.461)" fill="#bc944d"/>
              <rect id="Rectángulo_306486" data-name="Rectángulo 306486" width="26.494" height="0.478" transform="translate(0 11.282)" fill="#bc944d"/>
              <rect id="Rectángulo_306487" data-name="Rectángulo 306487" width="26.494" height="0.478" transform="translate(0 14.102)" fill="#bc944d"/>
            </g>
            <g id="Grupo_949719" data-name="Grupo 949719" transform="translate(0 17.246)">
              <rect id="Rectángulo_306488" data-name="Rectángulo 306488" width="26.494" height="0.478" fill="#bc944d"/>
              <rect id="Rectángulo_306489" data-name="Rectángulo 306489" width="26.494" height="0.478" transform="translate(0 2.82)" fill="#bc944d"/>
              <rect id="Rectángulo_306490" data-name="Rectángulo 306490" width="26.494" height="0.478" transform="translate(0 5.641)" fill="#bc944d"/>
              <rect id="Rectángulo_306491" data-name="Rectángulo 306491" width="26.494" height="0.478" transform="translate(0 8.461)" fill="#bc944d"/>
              <rect id="Rectángulo_306492" data-name="Rectángulo 306492" width="26.494" height="0.478" transform="translate(0 11.282)" fill="#bc944d"/>
              <rect id="Rectángulo_306493" data-name="Rectángulo 306493" width="26.494" height="0.478" transform="translate(0 14.102)" fill="#bc944d"/>
            </g>
            <g id="Grupo_949720" data-name="Grupo 949720" transform="translate(0 34.493)">
              <rect id="Rectángulo_306494" data-name="Rectángulo 306494" width="26.494" height="0.478" fill="#bc944d"/>
              <rect id="Rectángulo_306495" data-name="Rectángulo 306495" width="26.494" height="0.478" transform="translate(0 2.82)" fill="#bc944d"/>
              <rect id="Rectángulo_306496" data-name="Rectángulo 306496" width="26.494" height="0.478" transform="translate(0 5.641)" fill="#bc944d"/>
              <rect id="Rectángulo_306497" data-name="Rectángulo 306497" width="26.494" height="0.478" transform="translate(0 8.461)" fill="#bc944d"/>
              <rect id="Rectángulo_306498" data-name="Rectángulo 306498" width="26.494" height="0.478" transform="translate(0 11.282)" fill="#bc944d"/>
              <rect id="Rectángulo_306499" data-name="Rectángulo 306499" width="26.494" height="0.478" transform="translate(0 14.102)" fill="#bc944d"/>
            </g>
            <g id="Grupo_949721" data-name="Grupo 949721" transform="translate(0 51.739)">
              <rect id="Rectángulo_306500" data-name="Rectángulo 306500" width="26.494" height="0.478" fill="#bc944d"/>
              <rect id="Rectángulo_306501" data-name="Rectángulo 306501" width="26.494" height="0.478" transform="translate(0 2.82)" fill="#bc944d"/>
              <rect id="Rectángulo_306502" data-name="Rectángulo 306502" width="26.494" height="0.478" transform="translate(0 5.641)" fill="#bc944d"/>
              <rect id="Rectángulo_306503" data-name="Rectángulo 306503" width="26.494" height="0.478" transform="translate(0 8.461)" fill="#bc944d"/>
              <rect id="Rectángulo_306504" data-name="Rectángulo 306504" width="26.494" height="0.478" transform="translate(0 11.282)" fill="#bc944d"/>
              <rect id="Rectángulo_306505" data-name="Rectángulo 306505" width="26.494" height="0.478" transform="translate(0 14.102)" fill="#bc944d"/>
            </g>
          </g>
          <path id="Trazado_626647" data-name="Trazado 626647" d="M659.583,677.59H629.09V598.94l30.493-15.5Z" transform="translate(-628.173 -583.443)" fill="#709bb8"/>
          <g id="Grupo_949723" data-name="Grupo 949723" transform="translate(4.582 50.614)">
            <rect id="Rectángulo_306506" data-name="Rectángulo 306506" width="4.457" height="1.756" fill="#d3f3fd"/>
            <rect id="Rectángulo_306507" data-name="Rectángulo 306507" width="4.332" height="1.756" transform="translate(9.456)" fill="#d3f3fd"/>
            <rect id="Rectángulo_306508" data-name="Rectángulo 306508" width="4.457" height="1.756" transform="translate(0 2.963)" fill="#debc73"/>
            <rect id="Rectángulo_306509" data-name="Rectángulo 306509" width="4.332" height="1.756" transform="translate(9.456 2.963)" fill="#d3f3fd"/>
            <rect id="Rectángulo_306510" data-name="Rectángulo 306510" width="4.457" height="1.756" transform="translate(0 5.926)" fill="#d3f3fd"/>
            <rect id="Rectángulo_306511" data-name="Rectángulo 306511" width="4.332" height="1.756" transform="translate(9.456 5.926)" fill="#d3f3fd"/>
            <rect id="Rectángulo_306512" data-name="Rectángulo 306512" width="4.457" height="1.756" transform="translate(0 8.889)" fill="#d3f3fd"/>
            <rect id="Rectángulo_306513" data-name="Rectángulo 306513" width="4.332" height="1.756" transform="translate(9.456 8.889)" fill="#d3f3fd"/>
            <rect id="Rectángulo_306514" data-name="Rectángulo 306514" width="4.457" height="1.756" transform="translate(0 11.852)" fill="#d3f3fd"/>
            <rect id="Rectángulo_306515" data-name="Rectángulo 306515" width="4.332" height="1.756" transform="translate(9.456 11.852)" fill="#debc73"/>
            <rect id="Rectángulo_306516" data-name="Rectángulo 306516" width="4.332" height="1.756" transform="translate(18.871)" fill="#d3f3fd"/>
            <rect id="Rectángulo_306517" data-name="Rectángulo 306517" width="4.332" height="1.756" transform="translate(18.871 2.963)" fill="#d3f3fd"/>
            <rect id="Rectángulo_306518" data-name="Rectángulo 306518" width="4.332" height="1.756" transform="translate(18.871 5.926)" fill="#debc73"/>
            <rect id="Rectángulo_306519" data-name="Rectángulo 306519" width="4.332" height="1.756" transform="translate(18.871 8.889)" fill="#d3f3fd"/>
            <rect id="Rectángulo_306520" data-name="Rectángulo 306520" width="4.332" height="1.756" transform="translate(18.871 11.852)" fill="#d3f3fd"/>
            <rect id="Rectángulo_306521" data-name="Rectángulo 306521" width="4.457" height="1.756" transform="translate(0 15.352)" fill="#d3f3fd"/>
            <rect id="Rectángulo_306522" data-name="Rectángulo 306522" width="4.332" height="1.756" transform="translate(9.456 15.352)" fill="#d3f3fd"/>
            <rect id="Rectángulo_306523" data-name="Rectángulo 306523" width="4.332" height="1.756" transform="translate(18.871 15.352)" fill="#d3f3fd"/>
            <rect id="Rectángulo_306524" data-name="Rectángulo 306524" width="4.457" height="1.756" transform="translate(0 18.851)" fill="#debc73"/>
            <rect id="Rectángulo_306525" data-name="Rectángulo 306525" width="4.332" height="1.756" transform="translate(9.456 18.851)" fill="#debc73"/>
            <rect id="Rectángulo_306526" data-name="Rectángulo 306526" width="4.332" height="1.756" transform="translate(18.871 18.851)" fill="#d3f3fd"/>
            <rect id="Rectángulo_306527" data-name="Rectángulo 306527" width="4.457" height="1.756" transform="translate(0 22.35)" fill="#d3f3fd"/>
            <rect id="Rectángulo_306528" data-name="Rectángulo 306528" width="4.332" height="1.756" transform="translate(9.456 22.35)" fill="#d3f3fd"/>
            <rect id="Rectángulo_306529" data-name="Rectángulo 306529" width="4.332" height="1.756" transform="translate(18.871 22.35)" fill="#d3f3fd"/>
          </g>
          <g id="Grupo_949724" data-name="Grupo 949724" transform="translate(4.603 9.373)">
            <path id="Trazado_626648" data-name="Trazado 626648" d="M638.649,639.652H634.4V609.117l4.249-1.791Z" transform="translate(-634.4 -600.119)" fill="#36738e"/>
            <path id="Trazado_626649" data-name="Trazado 626649" d="M652.241,638.12h-4.249V604.107l4.249-1.791Z" transform="translate(-638.556 -598.587)" fill="#36738e"/>
            <path id="Trazado_626650" data-name="Trazado 626650" d="M652.241,602.317v35.8h-4.249V604.106l3.624-1.527Z" transform="translate(-638.556 -598.587)" fill="#36738e"/>
            <path id="Trazado_626651" data-name="Trazado 626651" d="M665.832,636.478h-4.249V598.736l4.249-1.791Z" transform="translate(-642.712 -596.945)" fill="#36738e"/>
          </g>
          <g id="Grupo_949725" data-name="Grupo 949725" transform="translate(4.603 9.373)" opacity="0.32" style="mix-blend-mode: multiply;isolation: isolate">
            <path id="Trazado_626652" data-name="Trazado 626652" d="M638.649,607.325v32.328H634.4v-.835h3.249V607.747Z" transform="translate(-634.4 -600.119)" fill="#709bb8"/>
            <path id="Trazado_626653" data-name="Trazado 626653" d="M665.832,596.945v39.534h-4.249v-.835h3.249V597.367Z" transform="translate(-642.712 -596.945)" fill="#709bb8"/>
            <path id="Trazado_626654" data-name="Trazado 626654" d="M652.24,602.345V638.13h-4.249V637.3h3.249V602.768Z" transform="translate(-638.556 -598.596)" fill="#709bb8"/>
          </g>
          <rect id="Rectángulo_306530" data-name="Rectángulo 306530" width="16.696" height="16.914" transform="translate(7.815 77.234)" fill="#d3f3fd"/>
          <g id="Grupo_949726" data-name="Grupo 949726" transform="translate(14.521 85.19)">
            <path id="Trazado_626655" data-name="Trazado 626655" d="M648.891,708.364h0a.2.2,0,0,1-.205-.2v-1.8a.2.2,0,0,1,.205-.206h0a.2.2,0,0,1,.2.206v1.8A.2.2,0,0,1,648.891,708.364Z" transform="translate(-648.686 -706.156)" fill="#628fa8"/>
            <path id="Trazado_626656" data-name="Trazado 626656" d="M653.032,708.364h0a.2.2,0,0,1-.2-.2v-1.8a.2.2,0,0,1,.2-.206h0a.205.205,0,0,1,.206.206v1.8A.205.205,0,0,1,653.032,708.364Z" transform="translate(-649.952 -706.156)" fill="#628fa8"/>
          </g>
          <g id="Grupo_949727" data-name="Grupo 949727" transform="translate(0 20.329)">
            <rect id="Rectángulo_306531" data-name="Rectángulo 306531" width="32.326" height="0.833" fill="#d3f3fd"/>
            <rect id="Rectángulo_306532" data-name="Rectángulo 306532" width="32.326" height="0.833" transform="translate(0 4.916)" fill="#d3f3fd"/>
            <rect id="Rectángulo_306533" data-name="Rectángulo 306533" width="32.326" height="0.833" transform="translate(0 9.831)" fill="#d3f3fd"/>
            <rect id="Rectángulo_306534" data-name="Rectángulo 306534" width="32.326" height="0.833" transform="translate(0 14.747)" fill="#d3f3fd"/>
            <rect id="Rectángulo_306535" data-name="Rectángulo 306535" width="32.326" height="0.833" transform="translate(0 19.662)" fill="#d3f3fd"/>
            <rect id="Rectángulo_306536" data-name="Rectángulo 306536" width="32.326" height="0.833" transform="translate(0 24.578)" fill="#d3f3fd"/>
          </g>
          <path id="Trazado_626657" data-name="Trazado 626657" d="M647.747,698.742v1.035l-.745.59-7.976,6.316v-1.037L647,699.332Z" transform="translate(-631.212 -618.699)" fill="#f8fdff"/>
          <path id="Trazado_626658" data-name="Trazado 626658" d="M647.747,701.683v1.035l-.745.59-7.976,6.314v-1.035L647,702.273Z" transform="translate(-631.212 -619.598)" fill="#f8fdff"/>
          <path id="Trazado_626659" data-name="Trazado 626659" d="M659.236,704.34v1.037l-7.976,6.314-.745.59v-1.035l.745-.59Z" transform="translate(-634.725 -620.411)" fill="#f8fdff"/>
          <path id="Trazado_626660" data-name="Trazado 626660" d="M659.236,707.282v1.037l-7.976,6.314-.745.59v-1.035l.745-.59Z" transform="translate(-634.725 -621.31)" fill="#f8fdff"/>
          <rect id="Rectángulo_306537" data-name="Rectángulo 306537" width="18.962" height="0.812" transform="translate(6.682 77.162)" fill="#628fa8"/>
          <rect id="Rectángulo_306538" data-name="Rectángulo 306538" width="0.745" height="16.262" transform="translate(15.791 77.884)" fill="#628fa8"/>
          <path id="Trazado_626661" data-name="Trazado 626661" d="M655.784,591.557l-20.2,10.43a.566.566,0,0,1-.764-.244h0a.567.567,0,0,1,.244-.764l20.2-10.43a.567.567,0,0,1,.764.244h0A.568.568,0,0,1,655.784,591.557Z" transform="translate(-629.905 -585.597)" fill="#d3f3fd" opacity="0.22"/>
        </g>
        <g id="Grupo_949733" data-name="Grupo 949733" transform="translate(0 37.777)">
          <rect id="Rectángulo_306539" data-name="Rectángulo 306539" width="18.2" height="56.37" fill="#d3f3fd"/>
          <rect id="Rectángulo_306540" data-name="Rectángulo 306540" width="14.309" height="1.814" transform="translate(1.945 34.208)" fill="#709bb8"/>
          <rect id="Rectángulo_306541" data-name="Rectángulo 306541" width="14.309" height="1.814" transform="translate(1.945 37.207)" fill="#709bb8"/>
          <rect id="Rectángulo_306542" data-name="Rectángulo 306542" width="14.309" height="1.814" transform="translate(1.945 40.165)" fill="#709bb8"/>
          <rect id="Rectángulo_306543" data-name="Rectángulo 306543" width="14.309" height="1.814" transform="translate(1.945 43.164)" fill="#709bb8"/>
          <rect id="Rectángulo_306544" data-name="Rectángulo 306544" width="14.309" height="5.999" transform="translate(1.945 1.714)" fill="#709bb8"/>
          <path id="Trazado_626662" data-name="Trazado 626662" d="M619.982,640.329v6h-14.31v-.655h13.59v-5.344Z" transform="translate(-603.727 -638.615)" fill="#bf9160" opacity="0.26" style="mix-blend-mode: multiply;isolation: isolate"/>
          <g id="Grupo_949729" data-name="Grupo 949729" transform="translate(1.945 9.025)">
            <rect id="Rectángulo_306545" data-name="Rectángulo 306545" width="2.178" height="4.091" fill="#709bb8"/>
            <rect id="Rectángulo_306546" data-name="Rectángulo 306546" width="2.178" height="4.091" transform="translate(0 4.943)" fill="#709bb8"/>
            <rect id="Rectángulo_306547" data-name="Rectángulo 306547" width="2.178" height="4.091" transform="translate(0 9.886)" fill="#709bb8"/>
            <rect id="Rectángulo_306548" data-name="Rectángulo 306548" width="2.178" height="4.091" transform="translate(0 14.829)" fill="#709bb8"/>
            <rect id="Rectángulo_306549" data-name="Rectángulo 306549" width="2.178" height="4.091" transform="translate(0 19.772)" fill="#debc73"/>
          </g>
          <g id="Grupo_949730" data-name="Grupo 949730" transform="translate(5.989 9.025)">
            <rect id="Rectángulo_306550" data-name="Rectángulo 306550" width="2.178" height="4.091" fill="#709bb8"/>
            <rect id="Rectángulo_306551" data-name="Rectángulo 306551" width="2.178" height="4.091" transform="translate(0 4.943)" fill="#debc73"/>
            <rect id="Rectángulo_306552" data-name="Rectángulo 306552" width="2.178" height="4.091" transform="translate(0 9.886)" fill="#709bb8"/>
            <rect id="Rectángulo_306553" data-name="Rectángulo 306553" width="2.178" height="4.091" transform="translate(0 14.829)" fill="#709bb8"/>
            <rect id="Rectángulo_306554" data-name="Rectángulo 306554" width="2.178" height="4.091" transform="translate(0 19.772)" fill="#709bb8"/>
          </g>
          <g id="Grupo_949731" data-name="Grupo 949731" transform="translate(10.033 9.025)">
            <rect id="Rectángulo_306555" data-name="Rectángulo 306555" width="2.178" height="4.091" fill="#debc73"/>
            <rect id="Rectángulo_306556" data-name="Rectángulo 306556" width="2.178" height="4.091" transform="translate(0 4.943)" fill="#709bb8"/>
            <rect id="Rectángulo_306557" data-name="Rectángulo 306557" width="2.178" height="4.091" transform="translate(0 9.886)" fill="#709bb8"/>
            <rect id="Rectángulo_306558" data-name="Rectángulo 306558" width="2.178" height="4.091" transform="translate(0 14.829)" fill="#709bb8"/>
            <rect id="Rectángulo_306559" data-name="Rectángulo 306559" width="2.178" height="4.091" transform="translate(0 19.772)" fill="#709bb8"/>
          </g>
          <g id="Grupo_949732" data-name="Grupo 949732" transform="translate(14.077 9.025)">
            <rect id="Rectángulo_306560" data-name="Rectángulo 306560" width="2.178" height="4.091" fill="#709bb8"/>
            <rect id="Rectángulo_306561" data-name="Rectángulo 306561" width="2.178" height="4.091" transform="translate(0 4.943)" fill="#709bb8"/>
            <rect id="Rectángulo_306562" data-name="Rectángulo 306562" width="2.178" height="4.091" transform="translate(0 9.886)" fill="#709bb8"/>
            <rect id="Rectángulo_306563" data-name="Rectángulo 306563" width="2.178" height="4.091" transform="translate(0 14.829)" fill="#debc73"/>
            <rect id="Rectángulo_306564" data-name="Rectángulo 306564" width="2.178" height="4.091" transform="translate(0 19.772)" fill="#709bb8"/>
          </g>
        </g>
      </g>
      <g id="Grupo_949743" data-name="Grupo 949743" transform="translate(666.513 570.284)">
        <g id="Grupo_949735" data-name="Grupo 949735" transform="translate(1.112)">
          <path id="Trazado_626663" data-name="Trazado 626663" d="M737.6,584.948c-.26-3.905-4.6-4-4.6-4a6.558,6.558,0,0,0-5.251-5.239,5.8,5.8,0,0,0-4.629,1.072,2.674,2.674,0,0,0-3.72-.578,6.54,6.54,0,0,0-5.391-2.49c-6.566,0-7.347,6.248-7.347,6.248-2.777-1.215-8.07.174-7.723,4.946s3.645,4.946,5.641,6.682a4.205,4.205,0,0,1,1.562,3.818h6.6s-.174-3.818,2.951-3.558a10.937,10.937,0,0,0,1.432.028,2.685,2.685,0,0,0,4.968,1.162,6.575,6.575,0,0,0,5.1,2.065,5.073,5.073,0,0,0,4.783-2.788,2.688,2.688,0,0,0,3.895-3.685A3.964,3.964,0,0,0,737.6,584.948Z" transform="translate(-698.924 -573.71)" fill="#777"/>
          <path id="Trazado_626664" data-name="Trazado 626664" d="M706.895,579.94a1.49,1.49,0,1,0-1.49-1.49A1.49,1.49,0,0,0,706.895,579.94Z" transform="translate(-700.905 -574.704)" fill="#777"/>
          <path id="Trazado_626665" data-name="Trazado 626665" d="M750.033,582.539A1.034,1.034,0,1,0,749,581.5,1.034,1.034,0,0,0,750.033,582.539Z" transform="translate(-714.235 -575.777)" fill="#777"/>
        </g>
        <g id="Grupo_949736" data-name="Grupo 949736" transform="translate(4.628 20.614)">
          <path id="Trazado_626666" data-name="Trazado 626666" d="M770.39,679.806V629.38l-19.9,15.706v34.721Z" transform="translate(-718.207 -611.346)" fill="#709bb8"/>
          <path id="Trazado_626667" data-name="Trazado 626667" d="M741.723,679.806V629.38l-19.9,15.706.192,34.7Z" transform="translate(-709.442 -611.346)" fill="#709bb8"/>
          <path id="Trazado_626668" data-name="Trazado 626668" d="M717.873,671.866H703.989l2.083-68.462h9.719Z" transform="translate(-703.989 -603.404)" fill="#b77b3e"/>
          <path id="Trazado_626669" data-name="Trazado 626669" d="M717.322,603.4v68.462h4.628L719.867,603.4Z" transform="translate(-708.066 -603.404)" fill="#9b6a35"/>
          <path id="Trazado_626670" data-name="Trazado 626670" d="M716.049,610.594h-9.141a1.129,1.129,0,0,1-1.128-1.128h0a1.128,1.128,0,0,1,1.128-1.128h9.141a1.128,1.128,0,0,1,1.128,1.128h0A1.129,1.129,0,0,1,716.049,610.594Z" transform="translate(-704.536 -604.912)" fill="#84501c"/>
          <path id="Trazado_626671" data-name="Trazado 626671" d="M716.195,627.156h-9.661a1.128,1.128,0,0,1-1.128-1.128h0a1.129,1.129,0,0,1,1.128-1.128h9.661a1.128,1.128,0,0,1,1.128,1.128h0A1.128,1.128,0,0,1,716.195,627.156Z" transform="translate(-704.422 -609.977)" fill="#84501c"/>
          <path id="Trazado_626672" data-name="Trazado 626672" d="M716.389,646.281H706.033a1.128,1.128,0,0,1-1.128-1.128h0a1.129,1.129,0,0,1,1.128-1.128h10.356a1.129,1.129,0,0,1,1.128,1.128h0A1.128,1.128,0,0,1,716.389,646.281Z" transform="translate(-704.269 -615.825)" fill="#84501c"/>
          <rect id="Rectángulo_306565" data-name="Rectángulo 306565" width="11.802" height="1.851" transform="translate(35.984 39.12)" fill="#d3f3fd"/>
          <rect id="Rectángulo_306566" data-name="Rectángulo 306566" width="11.802" height="1.851" transform="translate(35.984 42.321)" fill="#d3f3fd"/>
          <rect id="Rectángulo_306567" data-name="Rectángulo 306567" width="11.802" height="1.851" transform="translate(35.984 45.522)" fill="#d3f3fd"/>
          <rect id="Rectángulo_306568" data-name="Rectángulo 306568" width="11.802" height="1.851" transform="translate(16.43 39.12)" fill="#d3f3fd"/>
          <rect id="Rectángulo_306569" data-name="Rectángulo 306569" width="11.802" height="1.851" transform="translate(16.43 42.321)" fill="#d3f3fd"/>
          <rect id="Rectángulo_306570" data-name="Rectángulo 306570" width="11.802" height="1.851" transform="translate(16.43 45.522)" fill="#d3f3fd"/>
          <rect id="Rectángulo_306571" data-name="Rectángulo 306571" width="11.802" height="1.851" transform="translate(16.43 48.722)" fill="#d3f3fd"/>
          <rect id="Rectángulo_306572" data-name="Rectángulo 306572" width="11.802" height="1.851" transform="translate(16.43 51.923)" fill="#d3f3fd"/>
          <path id="Trazado_626673" data-name="Trazado 626673" d="M750.489,652" transform="translate(-718.207 -618.264)" fill="#709bb8"/>
          <path id="Trazado_626674" data-name="Trazado 626674" d="M750.489,651.5v34.721h1.461V650.342Z" transform="translate(-718.207 -617.756)" fill="#4c7c91"/>
          <path id="Trazado_626675" data-name="Trazado 626675" d="M722.452,651.009l1.067,35.068h1.793l-1.43-36.2Z" transform="translate(-709.634 -617.615)" fill="#4c7c91"/>
        </g>
        <rect id="Rectángulo_306573" data-name="Rectángulo 306573" width="61.786" height="12.184" transform="translate(0 88.687)" fill="#bd9562"/>
        <rect id="Rectángulo_306574" data-name="Rectángulo 306574" width="2.719" height="2.719" transform="translate(3.486 90.886)" fill="#d3f3fd"/>
        <rect id="Rectángulo_306575" data-name="Rectángulo 306575" width="2.719" height="2.719" transform="translate(7.969 90.886)" fill="#d3f3fd"/>
        <rect id="Rectángulo_306576" data-name="Rectángulo 306576" width="2.719" height="2.719" transform="translate(12.453 90.886)" fill="#d3f3fd"/>
        <rect id="Rectángulo_306577" data-name="Rectángulo 306577" width="2.719" height="2.719" transform="translate(16.936 90.886)" fill="#d3f3fd"/>
        <rect id="Rectángulo_306578" data-name="Rectángulo 306578" width="2.719" height="2.719" transform="translate(55.683 90.886)" fill="#d3f3fd"/>
        <g id="Grupo_949739" data-name="Grupo 949739" transform="translate(24.124 90.857)">
          <rect id="Rectángulo_306579" data-name="Rectángulo 306579" width="8.736" height="10.014" fill="#d3f3fd"/>
          <path id="Trazado_626676" data-name="Trazado 626676" d="M736.44,708.341l-4.368,1.634v-.46l4.368-1.634Z" transform="translate(-732.072 -705.593)" fill="#fff"/>
          <path id="Trazado_626677" data-name="Trazado 626677" d="M736.44,709.685l-4.368,1.634v-.46l4.368-1.634Z" transform="translate(-732.072 -706.004)" fill="#fff"/>
          <path id="Trazado_626678" data-name="Trazado 626678" d="M742.732,710.452l-4.368,1.634v-.46l4.368-1.634Z" transform="translate(-733.996 -706.238)" fill="#fff"/>
          <g id="Grupo_949738" data-name="Grupo 949738" transform="translate(4.108)">
            <g id="Grupo_949737" data-name="Grupo 949737">
              <rect id="Rectángulo_306580" data-name="Rectángulo 306580" width="0.521" height="10.015" fill="#bd9562"/>
            </g>
          </g>
        </g>
        <g id="Grupo_949742" data-name="Grupo 949742" transform="translate(44.835 90.857)">
          <rect id="Rectángulo_306581" data-name="Rectángulo 306581" width="8.736" height="10.014" fill="#d3f3fd"/>
          <path id="Trazado_626679" data-name="Trazado 626679" d="M766.273,708.341l-4.368,1.634v-.46l4.368-1.634Z" transform="translate(-761.905 -705.593)" fill="#fff"/>
          <path id="Trazado_626680" data-name="Trazado 626680" d="M766.273,709.685l-4.368,1.634v-.46l4.368-1.634Z" transform="translate(-761.905 -706.004)" fill="#fff"/>
          <path id="Trazado_626681" data-name="Trazado 626681" d="M772.565,710.452l-4.368,1.634v-.46l4.368-1.634Z" transform="translate(-763.829 -706.238)" fill="#fff"/>
          <g id="Grupo_949741" data-name="Grupo 949741" transform="translate(4.107)">
            <g id="Grupo_949740" data-name="Grupo 949740">
              <rect id="Rectángulo_306582" data-name="Rectángulo 306582" width="0.521" height="10.015" fill="#bd9562"/>
            </g>
          </g>
        </g>
      </g>
    </g>
  </g>
</svg>
