<svg id="ecosistema" xmlns="http://www.w3.org/2000/svg" width="104.188" height="104.188" viewBox="0 0 104.188 104.188">
  <path id="Trazado_626928" data-name="Trazado 626928" d="M88.117,31.89v.179a50.453,50.453,0,0,1-28.8,45.582H49.047A3.265,3.265,0,0,1,45.791,74.4V71.139a3.265,3.265,0,0,0-3.256-3.256H35.209a5.725,5.725,0,0,1-5.7-5.7,5.7,5.7,0,0,1,5.7-5.7h1.628a4.07,4.07,0,1,0,0-8.14H31.221a8.229,8.229,0,0,1,0-16.458Z" transform="translate(14.442 20.025)" fill="#81cc50"/>
  <path id="Trazado_626929" data-name="Trazado 626929" d="M101.932,26v9.589H45.446c-4.646,0-8.745,3.8-8.63,8.447a8.225,8.225,0,0,0,8.218,8.011H50.39a4.248,4.248,0,0,1,4.322,4.317,4.055,4.055,0,0,1-4.06,3.822H49.343A5.941,5.941,0,0,0,43.329,66.1a5.728,5.728,0,0,0,5.694,5.485H56.35a3.265,3.265,0,0,1,3.256,3.256v3.256a3.265,3.265,0,0,0,3.256,3.256H73.134a50.05,50.05,0,0,1-21.668,4.884A50.438,50.438,0,0,1,6.437,58.559h14.1A3.265,3.265,0,0,0,23.791,55.3V53.675a3.265,3.265,0,0,0-3.256-3.256H17.279a3.276,3.276,0,0,1-3.243-3.544,3.378,3.378,0,0,1,3.425-2.968H24.6A5.728,5.728,0,0,0,30.3,38.423a5.941,5.941,0,0,0-6.014-5.911H1V26H101.932Z" transform="translate(0.628 16.326)" fill="#5fb8d3"/>
  <path id="Trazado_626930" data-name="Trazado 626930" d="M69.261,26H53.029c.075,3.14.2,6.383.085,9.589H69.261Z" transform="translate(33.298 16.326)" fill="#34889b"/>
  <path id="Trazado_626931" data-name="Trazado 626931" d="M79.157,31.89v.179a50.453,50.453,0,0,1-28.8,45.582H40.086a3.277,3.277,0,0,1-1.27-.26,1.64,1.64,0,0,1-.374-.2,1.785,1.785,0,0,1-.342-.228,1.641,1.641,0,0,1-.309-.277,2.913,2.913,0,0,1-.212-.228c-.049-.065-.1-.114-.147-.179-.049-.081-.114-.179-.163-.26A50.4,50.4,0,0,0,62.942,32.069V31.89Z" transform="translate(23.403 20.025)" fill="#61993c"/>
  <path id="Trazado_626932" data-name="Trazado 626932" d="M46.516,60.628H56.789a50.05,50.05,0,0,1-21.668,4.884,51.029,51.029,0,0,1-8.091-.651,49.551,49.551,0,0,0,13.544-4.233c1.058-.5,2.1-1.042,3.126-1.628.049.081.114.179.163.26.049.065.1.114.147.179a2.91,2.91,0,0,0,.212.228,1.641,1.641,0,0,0,.309.277,1.785,1.785,0,0,0,.342.228,1.64,1.64,0,0,0,.374.2,3.277,3.277,0,0,0,1.27.26Z" transform="translate(16.973 37.048)" fill="#34889b"/>
  <path id="Trazado_626933" data-name="Trazado 626933" d="M28.85,53.794a5.061,5.061,0,0,1-.537-.472,5,5,0,0,1-.733-.912,3.073,3.073,0,0,1,1.27,1.384Z" transform="translate(17.318 32.91)" fill="#81cc50"/>
  <path id="Trazado_626934" data-name="Trazado 626934" d="M28.85,53.794a5.061,5.061,0,0,1-.537-.472,5,5,0,0,1-.733-.912,3.073,3.073,0,0,1,1.27,1.384Z" transform="translate(17.318 32.91)" fill="#5fb8d3"/>
  <path id="Trazado_626935" data-name="Trazado 626935" d="M68.661,11.512a6.512,6.512,0,0,1,0,13.023c0,3.6-2.914,4.884-6.512,4.884a5.953,5.953,0,0,1-1.628-.212V24.535a3.28,3.28,0,0,0-3.256-3.256,3.265,3.265,0,0,0-3.256,3.256v4a6.333,6.333,0,0,1-3.256.879c-3.6,0-6.512-4.884-6.512-4.884a6.472,6.472,0,0,1-5.812-3.6,4.524,4.524,0,0,0,.928-2.914,6.51,6.51,0,0,0,6.512-6.512,6.4,6.4,0,0,0-.814-3.142,6.5,6.5,0,0,1,11.4,0,6.508,6.508,0,0,1,12.209,3.142Z" transform="translate(24.131 3.14)" fill="#81cc50"/>
  <path id="Trazado_626936" data-name="Trazado 626936" d="M66.959,18.023a6.51,6.51,0,0,1-6.512,6.512c0,3.6-2.914,4.884-6.512,4.884a5.953,5.953,0,0,1-1.628-.212v-.244a4.324,4.324,0,0,0,3.272-4.428,6.512,6.512,0,1,0,0-13.023,6.459,6.459,0,0,0-4.07-6.023A6.036,6.036,0,0,1,53.936,5a6.51,6.51,0,0,1,6.512,6.512,6.51,6.51,0,0,1,6.512,6.512Z" transform="translate(32.345 3.14)" fill="#61993c"/>
  <path id="Trazado_626937" data-name="Trazado 626937" d="M54.512,22.928v9.979H48V18.256A3.265,3.265,0,0,1,51.256,15a3.28,3.28,0,0,1,3.256,3.256Z" transform="translate(30.141 9.419)" fill="#d9ab82"/>
  <path id="Trazado_626938" data-name="Trazado 626938" d="M56.628,10.882a6.4,6.4,0,0,1,.814,3.142,6.51,6.51,0,0,1-6.512,6.512A4.524,4.524,0,0,1,50,23.449c-1.14,1.416-3.207,1.97-5.584,1.97a5.953,5.953,0,0,1-1.628-.212V20.535a3.28,3.28,0,0,0-3.256-3.256,3.265,3.265,0,0,0-3.256,3.256v4a6.333,6.333,0,0,1-3.256.879c-2.1,0-3.972-1.66-5.161-3.044a15.058,15.058,0,0,1-1.351-1.84A6.51,6.51,0,0,1,20,14.023a6.4,6.4,0,0,1,.814-3.142,6.476,6.476,0,0,1,5.7-3.37A6.508,6.508,0,0,1,38.721,4.37,6.508,6.508,0,0,1,50.931,7.512a6.476,6.476,0,0,1,5.7,3.37Z" transform="translate(12.559 0.628)" fill="#81cc50"/>
  <path id="Trazado_626939" data-name="Trazado 626939" d="M49.417,14.023a6.51,6.51,0,0,1-6.512,6.512,4.524,4.524,0,0,1-.928,2.914c-1.14,1.416-3.207,1.97-5.584,1.97a5.953,5.953,0,0,1-1.628-.212V23.351a4.468,4.468,0,0,0,.863-2.816,6.51,6.51,0,0,0,6.512-6.512,6.4,6.4,0,0,0-.814-3.142,6.476,6.476,0,0,0-5.7-3.37,6.537,6.537,0,0,0-2.849-5.4A6.407,6.407,0,0,1,36.394,1a6.51,6.51,0,0,1,6.512,6.512,6.476,6.476,0,0,1,5.7,3.37A6.4,6.4,0,0,1,49.417,14.023Z" transform="translate(20.584 0.628)" fill="#61993c"/>
  <path id="Trazado_626940" data-name="Trazado 626940" d="M53.931,29.084H23c3.207-2.719,5.665-6.691,11.4-7.733a16.735,16.735,0,0,1,3.386-.26,22.776,22.776,0,0,1,3.126.244C48.086,22.344,50.61,26.284,53.931,29.084Z" transform="translate(14.442 13.242)" fill="#a38062"/>
  <path id="Trazado_626941" data-name="Trazado 626941" d="M36.512,18.928V27.67a22.777,22.777,0,0,0-3.126-.244,16.736,16.736,0,0,0-3.386.26V14.256A3.265,3.265,0,0,1,33.256,11a3.28,3.28,0,0,1,3.256,3.256Z" transform="translate(18.838 6.907)" fill="#d9ab82"/>
  <path id="Trazado_626942" data-name="Trazado 626942" d="M37.814,18.023a15.057,15.057,0,0,0,1.351,1.84,6.48,6.48,0,0,1-6.235,4.672c0,3.6-2.914,4.884-6.512,4.884a5.953,5.953,0,0,1-1.628-.212V24.535a3.28,3.28,0,0,0-3.256-3.256,3.265,3.265,0,0,0-3.256,3.256v4a6.333,6.333,0,0,1-3.256.879c-3.6,0-6.512-4.884-6.512-4.884a6.512,6.512,0,1,1,0-13.023A6.508,6.508,0,0,1,20.721,8.37a6.5,6.5,0,0,1,11.4,0,6.4,6.4,0,0,0-.814,3.142A6.51,6.51,0,0,0,37.814,18.023Z" transform="translate(1.256 3.14)" fill="#81cc50"/>
  <path id="Trazado_626943" data-name="Trazado 626943" d="M30.375,19.863a6.48,6.48,0,0,1-6.235,4.672c0,3.6-2.914,4.884-6.512,4.884A5.953,5.953,0,0,1,16,29.207V27.824a4.418,4.418,0,0,0,3.63-4.542A6.483,6.483,0,0,0,25.2,20.14a2.292,2.292,0,0,0-.112-2.522l-.018-.024a2.131,2.131,0,0,0-1.433-.882,6.517,6.517,0,0,1-5.423-8.1,3.226,3.226,0,0,0-.962-3.371c-.08-.065-.16-.127-.243-.187A4,4,0,0,1,17.628,5a6.476,6.476,0,0,1,5.7,3.37,6.4,6.4,0,0,0-.814,3.142,6.51,6.51,0,0,0,6.512,6.512A15.057,15.057,0,0,0,30.375,19.863Z" transform="translate(10.047 3.14)" fill="#61993c"/>
  <path id="Trazado_626944" data-name="Trazado 626944" d="M24.6,30a5.7,5.7,0,0,1,5.7,5.7,5.725,5.725,0,0,1-5.7,5.7H17.279a3.265,3.265,0,0,0-3.256,3.256,3.28,3.28,0,0,0,3.256,3.256h3.256a3.265,3.265,0,0,1,3.256,3.256v1.628a3.265,3.265,0,0,1-3.256,3.256H6.437A50.06,50.06,0,0,1,1,33.256V30H24.6Z" transform="translate(0.628 18.838)" fill="#81cc50"/>
  <path id="Trazado_626945" data-name="Trazado 626945" d="M18.512,22.928v9.979H12V18.256A3.265,3.265,0,0,1,15.256,15a3.28,3.28,0,0,1,3.256,3.256Z" transform="translate(7.535 9.419)" fill="#d9ab82"/>
  <g id="Grupo_949856" data-name="Grupo 949856" transform="translate(0 0)">
    <path id="Trazado_626946" data-name="Trazado 626946" d="M102.56,40.7H86.28V34.187c4.441,0,7.321-1.848,7.99-5.019a8.14,8.14,0,0,0,.013-16.007,8.139,8.139,0,0,0-13.7-4.321,8.12,8.12,0,0,0-11.412.029,8.115,8.115,0,0,0-4.19-2.22,8.14,8.14,0,0,0-13.7-4.321,8.14,8.14,0,0,0-13.7,4.321,8.085,8.085,0,0,0-4.19,2.22A8.12,8.12,0,0,0,21.977,8.84a8.14,8.14,0,0,0-13.7,4.321,8.141,8.141,0,0,0,.576,16.092c1.1,1.574,3.858,4.934,7.427,4.934a8.216,8.216,0,0,0,1.628-.181V40.7H1.628A1.627,1.627,0,0,0,0,42.326v9.768a52.1,52.1,0,0,0,52.079,52.094q.737,0,1.477-.021a50.306,50.306,0,0,0,20.2-4.863h.508v-.249a53.611,53.611,0,0,0,29.923-48.011V42.326A1.627,1.627,0,0,0,102.56,40.7Zm-22.791,0V27.675A1.63,1.63,0,0,1,81.4,26.047a1.592,1.592,0,0,1,1.161.5,1.57,1.57,0,0,1,.467,1.13V40.7ZM27.675,34.187c4.441,0,7.322-1.848,7.99-5.021a8.186,8.186,0,0,0,5.221-3.419,7.493,7.493,0,0,0,4.7,1.927,8.216,8.216,0,0,0,1.628-.181v5.8c-4,1.087-6.44,3.521-8.656,5.74-.594.593-1.164,1.146-1.74,1.667H27.675Zm26.047-1.41c-.472-.033-.959-.055-1.464-.065-.138,0-.275,0-.412,0-.49,0-.925.052-1.38.085V21.163a1.63,1.63,0,0,1,1.628-1.628,1.592,1.592,0,0,1,1.161.5,1.57,1.57,0,0,1,.467,1.13ZM52.2,35.967c6.4.117,9.447,2.331,12.035,4.731H41.5c2.6-2.566,5.315-4.841,10.7-4.731ZM69.006,40.7c-.5-.444-.993-.9-1.488-1.371-2.375-2.279-5.219-4.994-10.541-6.1V27.675a10.223,10.223,0,0,0,5.216-1.221,8.049,8.049,0,0,0,5.266,2.8c1.1,1.576,3.858,4.934,7.425,4.934a8.216,8.216,0,0,0,1.628-.181V40.7ZM74.885,9.768a4.864,4.864,0,0,1,4.27,2.525,1.7,1.7,0,0,0,2.855,0,4.88,4.88,0,0,1,9.154,2.359,1.627,1.627,0,0,0,1.628,1.628,4.884,4.884,0,1,1,0,9.768,1.627,1.627,0,0,0-1.628,1.628c0,.806,0,3.256-4.884,3.256V27.675A4.908,4.908,0,0,0,81.4,22.791a4.89,4.89,0,0,0-4.884,4.884v2.942a4.76,4.76,0,0,1-1.628.314c-2.165,0-4.477-3.031-5.117-4.093a1.631,1.631,0,0,0-1.4-.791,4.821,4.821,0,0,1-3.914-1.984,5.854,5.854,0,0,0,.51-1.407,8.152,8.152,0,0,0,6.66-8,8.07,8.07,0,0,0-.57-2.961A4.836,4.836,0,0,1,74.885,9.768Zm-35.814,0A1.627,1.627,0,0,0,40.7,8.14a4.88,4.88,0,0,1,9.154-2.359,1.7,1.7,0,0,0,2.855,0A4.88,4.88,0,0,1,61.861,8.14a1.627,1.627,0,0,0,1.628,1.628,4.884,4.884,0,1,1,0,9.768,1.627,1.627,0,0,0-1.628,1.628c0,.806,0,3.256-4.884,3.256V21.163a4.908,4.908,0,0,0-4.884-4.884,4.89,4.89,0,0,0-4.884,4.884V24.1a4.76,4.76,0,0,1-1.628.314c-2.165,0-4.477-3.031-5.117-4.093a1.631,1.631,0,0,0-1.4-.791,4.884,4.884,0,0,1,0-9.768ZM16.279,30.931c-2.165,0-4.477-3.031-5.117-4.093a1.631,1.631,0,0,0-1.4-.791,4.884,4.884,0,0,1,0-9.768A1.627,1.627,0,0,0,11.4,14.651a4.88,4.88,0,0,1,9.154-2.359,1.7,1.7,0,0,0,2.855,0,4.825,4.825,0,0,1,8.1-.6,8.07,8.07,0,0,0-.57,2.961,8.151,8.151,0,0,0,7.225,8.089c.116.166.26.361.412.562a4.887,4.887,0,0,1-4.381,2.745,1.627,1.627,0,0,0-1.628,1.628c0,.806,0,3.256-4.884,3.256V27.675a4.908,4.908,0,0,0-4.884-4.884,4.89,4.89,0,0,0-4.884,4.884v2.942A4.76,4.76,0,0,1,16.279,30.931Zm4.884-3.256a1.63,1.63,0,0,1,1.628-1.628,1.592,1.592,0,0,1,1.161.5,1.57,1.57,0,0,1,.467,1.13V40.7H21.163ZM3.256,50.466H25.233a4.07,4.07,0,1,1,0,8.14H17.907a4.884,4.884,0,0,0,0,9.768h3.256A1.63,1.63,0,0,1,22.791,70v1.628a1.63,1.63,0,0,1-1.628,1.628H8.045A48.634,48.634,0,0,1,3.256,52.094Zm50.212,50.446A48.629,48.629,0,0,1,18.039,87.1,49.182,49.182,0,0,1,9.785,76.513H21.163a4.89,4.89,0,0,0,4.884-4.884V70a4.89,4.89,0,0,0-4.884-4.884H17.907a1.628,1.628,0,1,1,0-3.256h7.326a7.326,7.326,0,0,0,0-14.651H3.256V43.954h97.676v6.333H45.663a9.869,9.869,0,0,0-9.849,9.865A9.857,9.857,0,0,0,45.663,70H51.28a2.442,2.442,0,1,1,0,4.884H49.652a7.335,7.335,0,0,0-7.326,7.326,7.351,7.351,0,0,0,7.326,7.326h7.326a1.63,1.63,0,0,1,1.628,1.628V94.42A4.89,4.89,0,0,0,63.489,99.3h.889A46.827,46.827,0,0,1,53.468,100.912Zm19.55-4.864H63.489a1.63,1.63,0,0,1-1.628-1.628V91.164a4.89,4.89,0,0,0-4.884-4.884H49.652a4.1,4.1,0,0,1-4.07-4.07,4.074,4.074,0,0,1,4.07-4.07H51.28a5.732,5.732,0,0,0,4.032-1.665,5.7,5.7,0,0,0-4.032-9.73H45.663a6.6,6.6,0,0,1-6.593-6.593,6.608,6.608,0,0,1,6.593-6.609H100.87A50.351,50.351,0,0,1,73.018,96.048Z" transform="translate(0 0)"/>
  </g>
</svg>
