<svg xmlns="http://www.w3.org/2000/svg" width="448.894" height="250.281" viewBox="0 0 448.894 250.281">
  <g id="Grupo_949848" data-name="Grupo 949848" transform="translate(6334.759 6808.522)">
    <path id="Trazado_135088" data-name="Trazado 135088" d="M492.352,431.8H65.226a10.833,10.833,0,0,1-10.8-10.8V359.465a10.832,10.832,0,0,1,10.8-10.8H492.352a10.832,10.832,0,0,1,10.8,10.8V421a10.833,10.833,0,0,1-10.8,10.8" transform="translate(-6389.019 -6990.042)" fill="#048c66"/>
    <path id="Trazado_135092" data-name="Trazado 135092" d="M528.939,371.383H414.805a134.986,134.986,0,0,0-64.621,16.13l-.025.014q-3.174,1.709-6.085,3.482l-.084.05q-.639.389-1.264.779l-.3.188q-.6.375-1.186.751l-.287.185c-18.805,12.113-28.449,24.819-28.449,24.819h42.866a36.078,36.078,0,0,1,3.859,0H528.79c0-15.907.149-29.892.149-46.4" transform="translate(-6414.804 -6992.312)" fill="#038e44"/>
    <path id="Trazado_135093" data-name="Trazado 135093" d="M219.71,316.706H54.241c.166,23.756,0,44.17.166,71.577H313.935A135.991,135.991,0,0,1,340.208,374.8a104.083,104.083,0,0,0-13.217-15.43c-44.955-44.955-107.282-42.663-107.282-42.663" transform="translate(-6389 -6986.847)" fill="#6aad3e"/>
    <path id="Trazado_135094" data-name="Trazado 135094" d="M54.407,420.262H286.7s9.229-12.161,27.238-24.03H54.407c-.373,8.316,0,15.913,0,24.03" transform="translate(-6389 -6994.794)" fill="#6bd9fe"/>
    <path id="Trazado_135095" data-name="Trazado 135095" d="M432.2,367.291l-27.156,1.132s-10.926-2.809-10.926-9.049,7.36-6.38,7.36-6.38-1.912-13.7,15.718-13.7c0-9.5,8.931-8.759,8.931-8.759h13.259s8.242-1.677,8.242,8.083c8.717,0,9.572,9.621,9.572,9.621s7.339-1.817,7.339,7.2c5.344,0,5.059,11.469,0,11.469s-31.688.382-32.34.382" transform="translate(-6422.959 -6988.22)" fill="#6aad3e"/>
    <path id="Trazado_135096" data-name="Trazado 135096" d="M294.76,392.118c-.553,1.7-1.263,2.645-3.487,2.645H263.55v4.058s-.335,9.58,8.049,9.58h24.465s7.107,1.027,7.107-8.64a12.579,12.579,0,0,0-.365-3.3,8.817,8.817,0,0,1-8.046-4.347" transform="translate(-6409.913 -6994.383)" fill="#fee09e"/>
    <path id="Trazado_135097" data-name="Trazado 135097" d="M307.607,390.986a6.4,6.4,0,1,0-5.321-9.954,9.331,9.331,0,0,0-.7,1c-2.291,3.757-2.719,6.732-3.356,8.695a8.817,8.817,0,0,0,8.046,4.347c-.638-2.361-1.888-2.611-1.8-4.913a6.364,6.364,0,0,0,3.136.825" transform="translate(-6413.378 -6992.992)" fill="#a3897b"/>
    <path id="Trazado_135098" data-name="Trazado 135098" d="M313.556,385.552h5.08a1.392,1.392,0,1,1,0,2.784h-5.08a1.392,1.392,0,1,1,0-2.784" transform="translate(-6414.771 -6993.728)" fill="#f29101"/>
    <path id="Trazado_135099" data-name="Trazado 135099" d="M311.376,383.549a1.048,1.048,0,1,1-1.049-1.049,1.048,1.048,0,0,1,1.049,1.049" transform="translate(-6414.482 -6993.422)" fill="#683c11"/>
    <path id="Trazado_135100" data-name="Trazado 135100" d="M293.35,394.824a1.854,1.854,0,0,0-2.1-2.1H269.718a11.607,11.607,0,0,0,.178,4.859h23.486c-.014-1.446-.032-2.761-.032-2.761" transform="translate(-6410.512 -6994.444)" fill="#f7c445"/>
    <path id="Trazado_135101" data-name="Trazado 135101" d="M269.937,398.124c.679,2.429,2.537,4.859,7.254,4.859h14.293s1.96-.2,1.96-1.959c0-.738-.01-1.853-.021-2.9Z" transform="translate(-6410.552 -6994.983)" fill="#f8c067"/>
    <path id="Trazado_135102" data-name="Trazado 135102" d="M237.871,411.055a1.268,1.268,0,0,1-1.41,1.069H225.254v1.64s-.135,3.873,3.254,3.873h9.89s2.873.416,2.873-3.492a5.1,5.1,0,0,0-.147-1.332,3.566,3.566,0,0,1-3.253-1.758" transform="translate(-6406.087 -6996.275)" fill="#fee09e"/>
    <path id="Trazado_135103" data-name="Trazado 135103" d="M243.065,410.6a2.587,2.587,0,1,0-2.151-4.024,3.958,3.958,0,0,0-.284.4,12.721,12.721,0,0,0-1.357,3.515,3.565,3.565,0,0,0,3.253,1.758c-.258-.954-.763-1.056-.727-1.986a2.568,2.568,0,0,0,1.267.333" transform="translate(-6407.488 -6995.713)" fill="#a3897b"/>
    <path id="Trazado_135104" data-name="Trazado 135104" d="M245.47,408.4h2.054a.563.563,0,1,1,0,1.125H245.47a.563.563,0,1,1,0-1.125" transform="translate(-6408.051 -6996.01)" fill="#f29101"/>
    <path id="Trazado_135105" data-name="Trazado 135105" d="M244.589,407.591a.423.423,0,1,1-.424-.424.424.424,0,0,1,.424.424" transform="translate(-6407.934 -6995.887)" fill="#683c11"/>
    <path id="Trazado_135106" data-name="Trazado 135106" d="M237.3,412.15a.749.749,0,0,0-.848-.848h-8.706a4.688,4.688,0,0,0,.072,1.964h9.495c-.006-.585-.013-1.116-.013-1.116" transform="translate(-6406.329 -6996.3)" fill="#f7c445"/>
    <path id="Trazado_135107" data-name="Trazado 135107" d="M227.837,413.483a2.677,2.677,0,0,0,2.932,1.964h5.779s.791-.081.791-.792c0-.3,0-.749-.008-1.172Z" transform="translate(-6406.345 -6996.518)" fill="#f8c067"/>
    <path id="Trazado_135108" data-name="Trazado 135108" d="M263.327,413.481c0-2.367-.347-2.119-.3-3.392a2.644,2.644,0,1,0-.9-3.773,3.714,3.714,0,0,0-.291.413c-1.768,2.9-.849,4.687-2.828,4.687H248.441v1.677s-.139,3.959,3.326,3.959h8.623s2.937.424,2.937-3.571" transform="translate(-6408.404 -6995.685)" fill="#f7c445"/>
    <path id="Trazado_135109" data-name="Trazado 135109" d="M268.115,408.184h2.1a.575.575,0,0,1,0,1.15h-2.1a.575.575,0,0,1,0-1.15" transform="translate(-6410.312 -6995.989)" fill="#e84e1b"/>
    <path id="Trazado_135110" data-name="Trazado 135110" d="M267.214,407.355a.433.433,0,1,1-.433-.433.433.433,0,0,1,.433.433" transform="translate(-6410.193 -6995.863)" fill="#683c11"/>
    <path id="Trazado_135111" data-name="Trazado 135111" d="M259.765,412.016a.767.767,0,0,0-.868-.868H250a4.793,4.793,0,0,0,.074,2.008h9.706c-.006-.6-.013-1.14-.013-1.14" transform="translate(-6408.552 -6996.285)" fill="#f3582f"/>
    <path id="Trazado_135112" data-name="Trazado 135112" d="M250.087,413.379a2.738,2.738,0,0,0,3,2.008h5.907s.81-.083.81-.809c0-.305,0-.766-.009-1.2Z" transform="translate(-6408.568 -6996.508)" fill="#e84e1b"/>
    <path id="Trazado_135113" data-name="Trazado 135113" d="M217.43,413.481c0-2.367-.347-2.119-.3-3.392a2.644,2.644,0,1,0-.9-3.773,3.722,3.722,0,0,0-.291.413c-1.768,2.9-.849,4.687-2.828,4.687H202.544v1.677s-.139,3.959,3.326,3.959h8.622s2.938.424,2.938-3.571" transform="translate(-6403.818 -6995.685)" fill="#f7c445"/>
    <path id="Trazado_135114" data-name="Trazado 135114" d="M222.218,408.184h2.1a.575.575,0,1,1,0,1.15h-2.1a.575.575,0,0,1,0-1.15" transform="translate(-6405.726 -6995.989)" fill="#e84e1b"/>
    <path id="Trazado_135115" data-name="Trazado 135115" d="M221.317,407.355a.433.433,0,1,1-.433-.433.433.433,0,0,1,.433.433" transform="translate(-6405.607 -6995.863)" fill="#683c11"/>
    <path id="Trazado_135116" data-name="Trazado 135116" d="M213.867,412.016a.766.766,0,0,0-.867-.868h-8.9a4.793,4.793,0,0,0,.074,2.008h9.706c-.006-.6-.014-1.14-.014-1.14" transform="translate(-6403.966 -6996.285)" fill="#f3582f"/>
    <path id="Trazado_135117" data-name="Trazado 135117" d="M204.19,413.379a2.738,2.738,0,0,0,3,2.008H213.1s.809-.083.809-.809c0-.305,0-.766-.008-1.2Z" transform="translate(-6403.982 -6996.508)" fill="#e84e1b"/>
    <path id="Trazado_135118" data-name="Trazado 135118" d="M524.474,409.832h-7.9s-5.717.364-1.828-8.14,17.634,8.14,9.731,8.14" transform="translate(-6434.876 -6995.098)" fill="#7b6a58"/>
    <path id="Trazado_135119" data-name="Trazado 135119" d="M468.446,366.526H430.725s-13.62-.966-13.62-13.62,11.978-11.978,11.978-11.978-1.449-13.041,13.04-13.041c0,0-.887-5.062,5.063-5.062h26.482s10.522-1.406,10.522,10.522c0,0,15.359-3.041,15.359,15.359H501.1a9.417,9.417,0,0,1,9.417,9.417,8.4,8.4,0,0,1-8.4,8.4Z" transform="translate(-6425.256 -6987.455)" fill="#a9ca2a"/>
    <path id="Trazado_135120" data-name="Trazado 135120" d="M116.336,329.827l-23.055.961S84,328.4,84,323.105s6.249-5.416,6.249-5.416S88.63,306.06,103.6,306.06c0-8.068,7.582-7.436,7.582-7.436h11.257s7-1.424,7,6.862c7.4,0,8.127,8.168,8.127,8.168s6.23-1.543,6.23,6.111c4.537,0,4.3,9.737,0,9.737s-26.9.324-27.456.324" transform="translate(-6391.974 -6985.033)" fill="#038e44"/>
    <path id="Trazado_135121" data-name="Trazado 135121" d="M258.371,327.241H220.65s-13.62-.966-13.62-13.62,11.978-11.978,11.978-11.978-1.449-13.041,13.04-13.041c0,0-.887-5.062,5.063-5.062h26.482s10.522-1.406,10.522,10.522c0,0,15.359-3.041,15.359,15.359h1.549a9.417,9.417,0,0,1,9.417,9.417,8.4,8.4,0,0,1-8.4,8.4Z" transform="translate(-6404.266 -6983.53)" fill="#a9ca2a"/>
    <path id="Trazado_135122" data-name="Trazado 135122" d="M293.483,351.168H321.39s10.076-.715,10.076-10.076-8.862-8.862-8.862-8.862,1.073-9.648-9.648-9.648c0,0,.656-3.745-3.745-3.745H289.619s-7.785-1.04-7.785,7.784c0,0-11.363-2.249-11.363,11.364h-1.147a6.967,6.967,0,0,0-6.967,6.967,6.218,6.218,0,0,0,6.218,6.218Z" transform="translate(-6409.794 -6987.058)" fill="#398e65"/>
    <path id="Trazado_135123" data-name="Trazado 135123" d="M460.636,244.481H428.653s-11.548-.819-11.548-11.548,10.156-10.157,10.156-10.157-1.229-11.058,11.058-11.058c0,0-.752-4.292,4.292-4.292h22.453s8.922-1.192,8.922,8.922c0,0,13.023-2.579,13.023,13.023h1.313a7.983,7.983,0,0,1,7.984,7.984,7.125,7.125,0,0,1-7.125,7.126Z" transform="translate(-6425.256 -6975.925)" fill="#6aad3e"/>
    <path id="Trazado_135124" data-name="Trazado 135124" d="M395.266,254.013H358.807S349,251.935,349,244.206s8.941-7.9,8.941-7.9-2.323-16.967,19.1-16.967c0-11.774,10.85-10.851,10.85-10.851H404s10.013-2.078,10.013,10.013c10.59,0,11.629,11.918,11.629,11.918s8.917-2.251,8.917,8.916c6.492,0,6.147,14.209,0,14.209s-38.5.473-39.29.473" transform="translate(-6418.451 -6976.022)" fill="#038e44"/>
    <path id="Trazado_135125" data-name="Trazado 135125" d="M421.713,377.042V291.678s-34.373-2.3-34.373-34.373h6.232s7.127,25,28.141,25v-41h17.8v19.024s12.459,1.875,12.459-12.46h5.493s1.875,21.3-18.22,21.3V377.042Z" transform="translate(-6422.282 -6979.315)" fill="#756343"/>
    <path id="Trazado_135126" data-name="Trazado 135126" d="M426.3,236.566H384.207s-11.323-2.4-11.323-11.323,10.324-9.125,10.324-9.125-2.682-19.589,22.047-19.589c0-13.593,12.527-12.527,12.527-12.527h18.6s11.562-2.4,11.562,11.561c12.227,0,13.426,13.76,13.426,13.76s10.3-2.6,10.3,10.3c7.5,0,7.1,16.4,0,16.4s-44.448.545-45.362.545" transform="translate(-6420.838 -6973.574)" fill="#a9ca2a"/>
    <path id="Trazado_135127" data-name="Trazado 135127" d="M293.282,189.94a26.976,26.976,0,1,1-26.976-26.975,26.975,26.975,0,0,1,26.976,26.975" transform="translate(-6407.494 -6971.487)" fill="#feda62"/>
    <path id="Trazado_135128" data-name="Trazado 135128" d="M402.457,376.671h-4.9s-3.441-.265-3.441-3.441,3.838-6.486,6.617-5.427,6.237,2.117,6.237,5.559-4.516,3.309-4.516,3.309" transform="translate(-6422.959 -6991.934)" fill="#7b6a58"/>
    <path id="Trazado_135129" data-name="Trazado 135129" d="M507.591,368.485s-6.5-18.813-.753-32.373a1.331,1.331,0,0,1,2.46.019c5.673,13.887-1.707,32.354-1.707,32.354" transform="translate(-6433.985 -6988.707)" fill="#058c36"/>
    <path id="Trazado_135130" data-name="Trazado 135130" d="M512.7,372.831s-6.5-18.813-.753-32.373a1.331,1.331,0,0,1,2.46.019c5.673,13.887-1.707,32.354-1.707,32.354" transform="translate(-6434.496 -6989.141)" fill="#33a23e"/>
    <path id="Trazado_135131" data-name="Trazado 135131" d="M521.29,366.756s-6.5-18.813-.753-32.373a1.331,1.331,0,0,1,2.46.019c5.673,13.887-1.707,32.354-1.707,32.354" transform="translate(-6435.354 -6988.534)" fill="#036633"/>
    <path id="Trazado_135132" data-name="Trazado 135132" d="M524.419,366.231s-4.945-14.319-.573-24.641a1.013,1.013,0,0,1,1.872.014c4.318,10.57-1.3,24.626-1.3,24.626" transform="translate(-6435.741 -6989.273)" fill="#058c36"/>
    <path id="Trazado_135133" data-name="Trazado 135133" d="M504.574,370.1s-4.486-12.991-.52-22.356a.92.92,0,0,1,1.7.013c3.917,9.59-1.179,22.343-1.179,22.343" transform="translate(-6433.78 -6989.894)" fill="#036633"/>
    <path id="Trazado_135134" data-name="Trazado 135134" d="M470.192,391.13h-4.9s-3.441-.265-3.441-3.441,3.838-6.486,6.617-5.427,6.237,2.117,6.237,5.559-4.516,3.309-4.516,3.309" transform="translate(-6429.727 -6993.378)" fill="#af7f4a"/>
    <path id="Trazado_135135" data-name="Trazado 135135" d="M525.407,375.143h-6s-4.219-.324-4.219-4.219,4.7-7.95,8.112-6.652,7.644,2.6,7.644,6.815-5.535,4.056-5.535,4.056" transform="translate(-6435.056 -6991.577)" fill="#af7f4a"/>
    <path id="Trazado_135136" data-name="Trazado 135136" d="M88.362,352.019h-6s-4.219-.324-4.219-4.218,4.7-7.95,8.112-6.653,7.644,2.6,7.644,6.815-5.536,4.056-5.536,4.056" transform="translate(-6391.388 -6989.266)" fill="#af7f4a"/>
    <path id="Trazado_135137" data-name="Trazado 135137" d="M254.018,356.391h-6s-4.219-.324-4.219-4.218,4.7-7.95,8.112-6.652,7.644,2.6,7.644,6.815-5.536,4.056-5.536,4.056" transform="translate(-6407.94 -6989.703)" fill="#af7f4a"/>
    <path id="Trazado_135138" data-name="Trazado 135138" d="M271.051,359.818H260.166s-7.876.5-2.518-11.212,24.288,11.212,13.4,11.212" transform="translate(-6409.137 -6989.703)" fill="#7b6a58"/>
    <path id="Trazado_135139" data-name="Trazado 135139" d="M188.122,404.405c0-2.715-8.822-4.914-19.7-4.914s-19.7,2.2-19.7,4.914,8.822,4.915,19.7,4.915a65.137,65.137,0,0,0,12.125-1.043l-3.963-3.872,9.092,2.374c1.559-.7,2.449-1.512,2.449-2.374" transform="translate(-6398.439 -6995.12)" fill="#038e44"/>
    <path id="Trazado_135140" data-name="Trazado 135140" d="M249.915,229.387H223.077s-9.691-.688-9.691-9.691,8.522-8.522,8.522-8.522-1.031-9.279,9.279-9.279c0,0-.631-3.6,3.6-3.6h18.841s7.487-1,7.487,7.487c0,0,10.928-2.164,10.928,10.928h1.1a6.7,6.7,0,0,1,6.7,6.7,5.98,5.98,0,0,1-5.98,5.979Z" transform="translate(-6404.901 -6975.014)" fill="#036633"/>
    <path id="Trazado_135141" data-name="Trazado 135141" d="M195.059,219.709H164.464s-8.229-1.743-8.229-8.23,7.5-6.632,7.5-6.632-1.949-14.238,16.025-14.238c0-9.879,9.105-9.105,9.105-9.105h13.517s8.4-1.743,8.4,8.4c8.887,0,9.758,10,9.758,10s7.483-1.889,7.483,7.482c5.448,0,5.157,11.923,0,11.923s-32.307.4-32.971.4" transform="translate(-6399.191 -6973.328)" fill="#038e44"/>
    <path id="Trazado_135142" data-name="Trazado 135142" d="M218.448,331.632V260s28.971-1.748,28.971-28.665h-5.747s-5.59,20.8-23.224,20.8v-34.4H203.512v15.964s-10.455,1.573-10.455-10.455h-4.609s-1.573,17.875,15.29,17.875v90.521Z" transform="translate(-6402.406 -6976.959)" fill="#756343"/>
    <path id="Trazado_135143" data-name="Trazado 135143" d="M221.1,213.751H185.78s-9.5-2.013-9.5-9.5,8.663-7.657,8.663-7.657-2.251-16.438,18.5-16.438c0-11.407,10.513-10.513,10.513-10.513h15.607s9.7-2.013,9.7,9.7c10.26,0,11.266,11.546,11.266,11.546s8.639-2.181,8.639,8.639c6.291,0,5.955,13.765,0,13.765s-37.3.458-38.065.458" transform="translate(-6401.193 -6972.141)" fill="#6aad3e"/>
    <path id="Trazado_135144" data-name="Trazado 135144" d="M141.356,408.14c0-4.7-15.277-8.512-34.123-8.512s-34.122,3.811-34.122,8.512,15.277,8.512,34.122,8.512a112.784,112.784,0,0,0,21-1.806l-6.862-6.707,15.745,4.111c2.7-1.219,4.241-2.619,4.241-4.111" transform="translate(-6390.885 -6995.134)" fill="#6aad3e"/>
    <path id="Trazado_135145" data-name="Trazado 135145" d="M107.031,407.566H93.216v-5.728a4.742,4.742,0,0,1,4.742-4.742h4.287a4.787,4.787,0,0,1,4.787,4.787Z" transform="translate(-6392.894 -6994.881)" fill="#359d31"/>
    <path id="Trazado_135146" data-name="Trazado 135146" d="M110.878,403.035c-.671,2.826-2.392,4.838-3.848,4.493s-2.093-2.915-1.423-5.742,2.392-4.838,3.847-4.493,2.093,2.915,1.424,5.742" transform="translate(-6394.106 -6994.897)" fill="#058c36"/>
    <path id="Trazado_135147" data-name="Trazado 135147" d="M90.259,403.035c.67,2.826,2.392,4.838,3.847,4.493s2.093-2.915,1.423-5.742-2.392-4.838-3.847-4.493-2.093,2.915-1.423,5.742" transform="translate(-6392.572 -6994.897)" fill="#058c36"/>
    <path id="Trazado_135148" data-name="Trazado 135148" d="M95.125,408.545H90.689a.57.57,0,0,1-.568-.569v-.511a.57.57,0,0,1,.568-.568h4.437a.57.57,0,0,1,.569.568v.511a.571.571,0,0,1-.569.569" transform="translate(-6392.585 -6995.86)" fill="#058c36"/>
    <path id="Trazado_135149" data-name="Trazado 135149" d="M110.473,408.545h-4.437a.57.57,0,0,1-.568-.569v-.511a.57.57,0,0,1,.568-.568h4.437a.57.57,0,0,1,.569.568v.511a.571.571,0,0,1-.569.569" transform="translate(-6394.119 -6995.86)" fill="#058c36"/>
    <path id="Trazado_135150" data-name="Trazado 135150" d="M99.277,406.9H98.254a1.137,1.137,0,0,0-1.137,1.137v.511h3.3v-.511a1.136,1.136,0,0,0-1.137-1.137" transform="translate(-6393.284 -6995.86)" fill="#058c36"/>
    <path id="Trazado_135151" data-name="Trazado 135151" d="M100.46,395.055c-4.8,0-4.871,3.4-4.871,3.4a3.77,3.77,0,0,0,1.669.392h6.4a3.777,3.777,0,0,0,1.67-.392s-.07-3.4-4.872-3.4" transform="translate(-6393.131 -6994.677)" fill="#33a23e"/>
    <path id="Trazado_135152" data-name="Trazado 135152" d="M103.425,389.935h-6.4a3.818,3.818,0,0,0-3.807,3.806v.788a3.813,3.813,0,0,0,2.138,3.414s.07-3.4,4.872-3.4,4.871,3.4,4.871,3.4a3.813,3.813,0,0,0,2.138-3.414v-.788a3.818,3.818,0,0,0-3.806-3.806" transform="translate(-6392.894 -6994.166)" fill="#058c36"/>
    <path id="Trazado_135153" data-name="Trazado 135153" d="M103.16,406.9h-1.023A1.137,1.137,0,0,0,101,408.034v.511h3.3v-.511a1.136,1.136,0,0,0-1.137-1.137" transform="translate(-6393.672 -6995.86)" fill="#058c36"/>
    <path id="Trazado_135154" data-name="Trazado 135154" d="M98.964,389.933a2.25,2.25,0,1,1-2.25-2.25,2.25,2.25,0,0,1,2.25,2.25" transform="translate(-6393.019 -6993.94)" fill="#058c36"/>
    <path id="Trazado_135155" data-name="Trazado 135155" d="M107.038,389.933a2.25,2.25,0,1,1-2.25-2.25,2.25,2.25,0,0,1,2.25,2.25" transform="translate(-6393.826 -6993.94)" fill="#058c36"/>
    <path id="Trazado_135156" data-name="Trazado 135156" d="M98.163,389.785a1.348,1.348,0,1,1-1.348-1.348,1.349,1.349,0,0,1,1.348,1.348" transform="translate(-6393.119 -6994.016)" fill="#f7c445"/>
    <path id="Trazado_135157" data-name="Trazado 135157" d="M106.237,389.785a1.348,1.348,0,1,1-1.348-1.348,1.349,1.349,0,0,1,1.348,1.348" transform="translate(-6393.926 -6994.016)" fill="#f7c445"/>
    <path id="Trazado_135158" data-name="Trazado 135158" d="M97.863,389.823a1.012,1.012,0,1,1-1.012-1.012,1.011,1.011,0,0,1,1.012,1.012" transform="translate(-6393.156 -6994.053)" fill="#432918"/>
    <path id="Trazado_135159" data-name="Trazado 135159" d="M105.937,389.823a1.012,1.012,0,1,1-1.012-1.012,1.011,1.011,0,0,1,1.012,1.012" transform="translate(-6393.963 -6994.053)" fill="#432918"/>
    <path id="Trazado_135160" data-name="Trazado 135160" d="M100.439,393.352a.184.184,0,0,1-.1-.028l-.818-.5a.188.188,0,0,1,.2-.32l.817.5a.188.188,0,0,1-.1.348" transform="translate(-6393.516 -6994.419)" fill="#33a23e"/>
    <path id="Trazado_135161" data-name="Trazado 135161" d="M101.429,393.352a.186.186,0,0,1-.16-.09.188.188,0,0,1,.062-.258l.817-.5a.188.188,0,1,1,.2.32l-.818.5a.187.187,0,0,1-.1.028" transform="translate(-6393.696 -6994.419)" fill="#33a23e"/>
    <path id="Trazado_135162" data-name="Trazado 135162" d="M100.751,395.484a5.84,5.84,0,0,1-2.106-.231.25.25,0,0,1,.2-.457,9.753,9.753,0,0,0,3.8,0,.252.252,0,0,1,.329.13.248.248,0,0,1-.124.328,5.84,5.84,0,0,1-2.106.231" transform="translate(-6393.422 -6994.649)" fill="#432918"/>
    <path id="Trazado_135163" data-name="Trazado 135163" d="M512.871,379.719h-7.684a8.875,8.875,0,0,1-5.085-1.51,5.28,5.28,0,0,1-2.509-4.391c0-4.608,4.808-10.024,10.024-10.024s12.185,4.242,12.185,12.185c0,0,.788,3.719-3.718,3.719h-4.506" transform="translate(-6433.298 -6991.554)" fill="#634e42"/>
    <path id="Trazado_135164" data-name="Trazado 135164" d="M106.691,361.435h-4.419a5.1,5.1,0,0,1-2.923-.869,3.033,3.033,0,0,1-1.443-2.525c0-2.649,2.765-5.763,5.763-5.763a7.09,7.09,0,0,1,7.007,7.006s.452,2.139-2.139,2.139h-2.59" transform="translate(-6393.363 -6990.403)" fill="#634e42"/>
    <path id="Trazado_135165" data-name="Trazado 135165" d="M328.769,376.711H324.35a5.1,5.1,0,0,1-2.923-.869,3.033,3.033,0,0,1-1.443-2.525c0-2.649,2.765-5.763,5.763-5.763a7.09,7.09,0,0,1,7.007,7.006s.452,2.139-2.139,2.139h-2.59" transform="translate(-6415.552 -6991.929)" fill="#634e42"/>
    <path id="Trazado_135166" data-name="Trazado 135166" d="M194.063,343.548s-.477,13.928,2.393,23.581h3.777s-1.02-13.914,1-24.336-7.171.755-7.171.755" transform="translate(-6402.967 -6989.011)" fill="#e84e1b"/>
    <path id="Trazado_135167" data-name="Trazado 135167" d="M159.26,352.829a24.2,24.2,0,0,0-1.36,14.391h3.224s-1.5-9.581,5.342-14.391,6.386-11.305,6.386-11.305l-5.747-2.266Z" transform="translate(-6399.307 -6989.102)" fill="#e84e1b"/>
    <path id="Trazado_135168" data-name="Trazado 135168" d="M189,368.868h3.474a90.006,90.006,0,0,1,1.131-13.118c-2.2.227-4.222.343-6.167.4A126.071,126.071,0,0,0,189,368.868" transform="translate(-6402.309 -6990.75)" fill="#432918"/>
    <path id="Trazado_135169" data-name="Trazado 135169" d="M151.535,354.464c-4.762,6.345-1.582,14.064-1.582,14.064h3.776s-3.626-6.662,3.173-10.741a18.928,18.928,0,0,0,3.4-2.229,19.008,19.008,0,0,1-7.871-3.209,4.838,4.838,0,0,1-.9,2.114" transform="translate(-6398.459 -6990.41)" fill="#432918"/>
    <path id="Trazado_135170" data-name="Trazado 135170" d="M151.314,311.967c-3.2-8.941-10.366-16.3-14.038-12.556-3.177,3.24-3.464,12.58-.225,20.134,3.049.154,9.328-.53,14.263-7.578" transform="translate(-6397.044 -6985.021)" fill="#fee09e"/>
    <path id="Trazado_135171" data-name="Trazado 135171" d="M198.943,318.121a79.638,79.638,0,0,0-1.293,13.854,46.51,46.51,0,0,1-1.932,12.282c20.166-4.951,21.123-20.616,20.695-26.7-11.584-2.183-17.471.566-17.471.566" transform="translate(-6403.136 -6986.849)" fill="#fee09e"/>
    <path id="Trazado_135172" data-name="Trazado 135172" d="M217.633,313.868s.906-8.157-1.359-9.32-5.288,3.892-5.288,3.892h-.046c2.914.445,5.156,2.04,6.693,5.428" transform="translate(-6404.657 -6985.616)" fill="#432918"/>
    <path id="Trazado_135173" data-name="Trazado 135173" d="M210.276,314.319c-1.537-3.388-3.779-4.984-6.693-5.428H199.55c-4.94.59-6.043,5.428-6.043,5.428.151,3.474-1.057,5.891-7.144,6.647s-22.615-2.266-33.642,4.532c.959-3.872.328-8.347-1.152-12.484-4.934,7.048-11.212,7.732-14.263,7.578,2.234,5.21,6.144,9.571,11.94,10.5-.767,6.264,2.793,12.636,2.026,16.919a19,19,0,0,0,7.871,3.21,25.564,25.564,0,0,0,7.778-11.971s4.078,3.323,15.409,3.323a68.782,68.782,0,0,0,.1,8.9c1.946-.054,3.972-.17,6.167-.4.327-2.262.745-4.8,1.286-7.592a46.558,46.558,0,0,0,1.932-12.282,79.638,79.638,0,0,1,1.293-13.854s5.886-2.749,17.471-.567a19.974,19.974,0,0,0-.3-2.453" transform="translate(-6397.299 -6986.068)" fill="#f29101"/>
    <path id="Trazado_135174" data-name="Trazado 135174" d="M205.67,308.48s-4.811-5.04-6.042-3.365c-2.418,2.989,0,8.794,0,8.794s1.1-4.837,6.042-5.428" transform="translate(-6403.419 -6985.656)" fill="#432918"/>
    <path id="Trazado_135175" data-name="Trazado 135175" d="M200.711,311.989a6.6,6.6,0,0,1-.347-4.608.769.769,0,0,1,1.061-.443,9.581,9.581,0,0,1,2.719,2.152,6.442,6.442,0,0,1-3.433,2.9" transform="translate(-6403.571 -6985.865)" fill="#fee09e"/>
    <path id="Trazado_135176" data-name="Trazado 135176" d="M212.574,308.983a10.217,10.217,0,0,1,2.264-2.472.781.781,0,0,1,1.191.338,8.788,8.788,0,0,1,.546,5.09,5.566,5.566,0,0,1-4-2.957" transform="translate(-6404.82 -6985.815)" fill="#fee09e"/>
    <path id="Trazado_135177" data-name="Trazado 135177" d="M206,315.623a.7.7,0,1,1-.7-.7.7.7,0,0,1,.7.7" transform="translate(-6404.023 -6986.67)" fill="#432918"/>
    <path id="Trazado_135178" data-name="Trazado 135178" d="M209.526,316.634c0,.387-.44.7-.982.7s-.983-.313-.983-.7.44-.7.983-.7.982.313.982.7" transform="translate(-6404.319 -6986.771)" fill="#432918"/>
    <path id="Trazado_135179" data-name="Trazado 135179" d="M213.2,315.623a.7.7,0,1,1-.7-.7.7.7,0,0,1,.7.7" transform="translate(-6404.742 -6986.67)" fill="#432918"/>
    <path id="Trazado_135180" data-name="Trazado 135180" d="M207.4,319.728c-.032,0-.062,0-.093,0a1.554,1.554,0,0,1-1.04-.588.215.215,0,0,1,.345-.257,1.134,1.134,0,0,0,.73.417,1.158,1.158,0,0,0,.858-.38v-1.765a.215.215,0,1,1,.429,0V319.1l-.063.063a1.669,1.669,0,0,1-1.167.567" transform="translate(-6404.186 -6986.872)" fill="#432918"/>
    <path id="Trazado_135181" data-name="Trazado 135181" d="M209.639,319.728a1.669,1.669,0,0,1-1.166-.567l-.063-.063v-1.946a.215.215,0,1,1,.429,0v1.766a1.181,1.181,0,0,0,.858.379,1.13,1.13,0,0,0,.73-.417.215.215,0,0,1,.345.257,1.56,1.56,0,0,1-1.04.588c-.032,0-.062,0-.093,0" transform="translate(-6404.404 -6986.872)" fill="#432918"/>
    <path id="Trazado_135182" data-name="Trazado 135182" d="M185.612,345.6l.826-6.345-16.28,1.53.045,1.491s4.527,3.924,15.409,3.323" transform="translate(-6400.582 -6989.102)" fill="#fee09e"/>
    <path id="Trazado_135183" data-name="Trazado 135183" d="M407.922,401.757H375.09s-11.855-.841-11.855-11.855,10.426-10.427,10.426-10.427-1.261-11.351,11.351-11.351c0,0-.771-4.406,4.407-4.406h23.05s9.158-1.224,9.158,9.158c0,0,13.369-2.647,13.369,13.369h1.348a8.2,8.2,0,0,1,8.2,8.2,7.315,7.315,0,0,1-7.315,7.315Z" transform="translate(-6419.874 -6991.542)" fill="#036633"/>
    <path id="Trazado_135184" data-name="Trazado 135184" d="M262.35,260.2h51.478a2.208,2.208,0,0,0,1.791-3.5c-1.99-2.754-7.623-6.141-23.277-6.206a2.225,2.225,0,0,1-.854-.174c-3.328-1.406-26.409-10.445-31.262,7.065a2.214,2.214,0,0,0,2.123,2.816" transform="translate(-6409.573 -6979.857)" fill="#fff"/>
    <path id="Trazado_135185" data-name="Trazado 135185" d="M365.821,203.1H309.1a3.193,3.193,0,0,1-2.136-5.576c3.192-2.749,10.143-5.5,25.16-5.574a3.209,3.209,0,0,0,1.217-.244c4.1-1.718,29.444-11.463,35.526,7.214a3.2,3.2,0,0,1-3.046,4.18" transform="translate(-6414.143 -6973.952)" fill="#fff"/>
    <path id="Trazado_135186" data-name="Trazado 135186" d="M492.815,281.772H456.322a1.661,1.661,0,0,1-1.334-2.662c1.523-1.936,5.624-4.227,16.494-4.274a1.69,1.69,0,0,0,.638-.129c2.4-1.013,18.76-7.4,22.3,4.931a1.67,1.67,0,0,1-1.6,2.134" transform="translate(-6429.007 -6982.397)" fill="#fff"/>
    <path id="Trazado_135187" data-name="Trazado 135187" d="M308.123,244.93h26.206a1.442,1.442,0,0,0,.773-2.66c-6.325-4.031-19.33-10.176-28.094.3a1.442,1.442,0,0,0,1.115,2.358" transform="translate(-6414.222 -6978.862)" fill="#fff"/>
    <path id="Trazado_135188" data-name="Trazado 135188" d="M134.818,254.491h45.848a1.745,1.745,0,0,0,.979-3.191c-9.622-6.51-33.12-19.138-48.2.365a1.75,1.75,0,0,0,1.374,2.826" transform="translate(-6396.876 -6979.308)" fill="#fff"/>
    <path id="Trazado_135189" data-name="Trazado 135189" d="M260.869,311.582H234.3a5.986,5.986,0,0,1,0-11.971h26.567a5.986,5.986,0,1,1,0,11.971" transform="translate(-6406.393 -6985.141)" fill="#94c120"/>
    <path id="Trazado_135190" data-name="Trazado 135190" d="M484.407,352.636H471.993a5.986,5.986,0,1,1,0-11.971h12.415a5.986,5.986,0,1,1,0,11.971" transform="translate(-6430.142 -6989.243)" fill="#94c120"/>
    <path id="Trazado_135191" data-name="Trazado 135191" d="M473.848,361.78H461.434a5.986,5.986,0,0,1,0-11.972h12.415a5.986,5.986,0,0,1,0,11.972" transform="translate(-6429.087 -6990.156)" fill="#94c120"/>
    <path id="Trazado_135192" data-name="Trazado 135192" d="M272.881,322.033H260.467a5.986,5.986,0,0,1,0-11.972h12.415a5.986,5.986,0,0,1,0,11.972" transform="translate(-6409.007 -6986.185)" fill="#94c120"/>
  </g>
</svg>
