<svg xmlns="http://www.w3.org/2000/svg" width="610" height="353.929" viewBox="0 0 610 353.929">
  <g id="Grupo_980068" data-name="Grupo 980068" transform="translate(-354.407 -4793.819)">
    <g id="Grupo_980071" data-name="Grupo 980071" transform="translate(364.8 5028.802)">
      <g id="Grupo_980070" data-name="Grupo 980070">
        <rect id="Rectángulo_309467" data-name="Rectángulo 309467" width="121.619" height="93.803" transform="translate(0 0.253)" fill="#ebebeb"/>
        <g id="Grupo_980069" data-name="Grupo 980069" transform="translate(90.907)">
          <path id="Trazado_654122" data-name="Trazado 654122" d="M464.034,5140.951c-.133,0-.242-20.908-.242-46.695s.108-46.7.242-46.7.241,20.9.241,46.7S464.166,5140.951,464.034,5140.951Z" transform="translate(-463.792 -5047.557)" fill="#e0e0e0"/>
        </g>
        <rect id="Rectángulo_309468" data-name="Rectángulo 309468" width="9.324" height="10.54" transform="translate(101.983 72.705)" fill="#fafafa"/>
        <rect id="Rectángulo_309469" data-name="Rectángulo 309469" width="13.814" height="20.015" transform="translate(37.102 0.495)" fill="#e0e0e0"/>
        <rect id="Rectángulo_309470" data-name="Rectángulo 309470" width="13.814" height="20.015" transform="translate(37.102 73.762)" fill="#e0e0e0"/>
      </g>
    </g>
    <g id="Grupo_980074" data-name="Grupo 980074" transform="translate(383.82 4935.214)">
      <g id="Grupo_980073" data-name="Grupo 980073">
        <rect id="Rectángulo_309471" data-name="Rectángulo 309471" width="121.619" height="93.803" transform="translate(0 0.254)" fill="#ebebeb"/>
        <g id="Grupo_980072" data-name="Grupo 980072" transform="translate(90.907)">
          <path id="Trazado_654123" data-name="Trazado 654123" d="M484.571,5039.894c-.133,0-.241-20.909-.241-46.7s.107-46.7.241-46.7.241,20.9.241,46.7S484.7,5039.894,484.571,5039.894Z" transform="translate(-484.33 -4946.499)" fill="#e0e0e0"/>
        </g>
        <rect id="Rectángulo_309472" data-name="Rectángulo 309472" width="9.324" height="10.54" transform="translate(101.983 72.705)" fill="#fafafa"/>
        <rect id="Rectángulo_309473" data-name="Rectángulo 309473" width="13.814" height="20.015" transform="translate(37.102 0.496)" fill="#e0e0e0"/>
        <rect id="Rectángulo_309474" data-name="Rectángulo 309474" width="13.814" height="20.015" transform="translate(37.102 73.762)" fill="#e0e0e0"/>
      </g>
    </g>
    <g id="Grupo_980077" data-name="Grupo 980077" transform="translate(399.29 4860.081)">
      <g id="Grupo_980076" data-name="Grupo 980076">
        <rect id="Rectángulo_309475" data-name="Rectángulo 309475" width="97.791" height="75.425" transform="translate(0 0.204)" fill="#f5f5f5"/>
        <g id="Grupo_980075" data-name="Grupo 980075" transform="translate(73.096)">
          <path id="Trazado_654124" data-name="Trazado 654124" d="M482,4940.465c-.107,0-.194-16.812-.194-37.546s.087-37.55.194-37.55.194,16.809.194,37.55S482.1,4940.465,482,4940.465Z" transform="translate(-481.802 -4865.369)" fill="#e0e0e0"/>
        </g>
        <rect id="Rectángulo_309476" data-name="Rectángulo 309476" width="7.497" height="8.475" transform="translate(82.002 58.461)" fill="#fafafa"/>
        <rect id="Rectángulo_309477" data-name="Rectángulo 309477" width="11.108" height="16.094" transform="translate(29.833 0.398)" fill="#e0e0e0"/>
        <rect id="Rectángulo_309478" data-name="Rectángulo 309478" width="11.108" height="16.094" transform="translate(29.833 59.31)" fill="#e0e0e0"/>
      </g>
    </g>
    <g id="Grupo_980080" data-name="Grupo 980080" transform="translate(841.76 4912.461)">
      <g id="Grupo_980079" data-name="Grupo 980079">
        <rect id="Rectángulo_309479" data-name="Rectángulo 309479" width="91.858" height="70.849" transform="translate(0 0.191)" fill="#f5f5f5"/>
        <g id="Grupo_980078" data-name="Grupo 980078" transform="translate(68.662)">
          <path id="Trazado_654125" data-name="Trazado 654125" d="M954.981,4992.47c-.1,0-.182-15.793-.182-35.268s.081-35.272.182-35.272.182,15.789.182,35.272S955.081,4992.47,954.981,4992.47Z" transform="translate(-954.799 -4921.93)" fill="#e0e0e0"/>
        </g>
        <rect id="Rectángulo_309480" data-name="Rectángulo 309480" width="7.042" height="7.961" transform="translate(77.027 54.914)" fill="#fafafa"/>
        <rect id="Rectángulo_309481" data-name="Rectángulo 309481" width="10.434" height="15.118" transform="translate(28.023 0.374)" fill="#e0e0e0"/>
        <rect id="Rectángulo_309482" data-name="Rectángulo 309482" width="10.434" height="15.118" transform="translate(28.023 55.712)" fill="#e0e0e0"/>
      </g>
    </g>
    <g id="Grupo_980083" data-name="Grupo 980083" transform="translate(858.533 5064.729)">
      <g id="Grupo_980082" data-name="Grupo 980082">
        <rect id="Rectángulo_309483" data-name="Rectángulo 309483" width="105.874" height="81.659" transform="translate(0 0.221)" fill="#ebebeb"/>
        <g id="Grupo_980081" data-name="Grupo 980081" transform="translate(79.138)">
          <path id="Trazado_654126" data-name="Trazado 654126" d="M984.433,5167.655c-.117,0-.21-18.2-.21-40.65s.094-40.654.21-40.654.209,18.2.209,40.654S984.549,5167.655,984.433,5167.655Z" transform="translate(-984.223 -5086.351)" fill="#e0e0e0"/>
        </g>
        <rect id="Rectángulo_309484" data-name="Rectángulo 309484" width="8.117" height="9.175" transform="translate(88.78 63.293)" fill="#fafafa"/>
        <rect id="Rectángulo_309485" data-name="Rectángulo 309485" width="12.026" height="17.424" transform="translate(32.299 0.431)" fill="#e0e0e0"/>
        <rect id="Rectángulo_309486" data-name="Rectángulo 309486" width="12.026" height="17.424" transform="translate(32.299 64.213)" fill="#e0e0e0"/>
      </g>
    </g>
    <g id="Grupo_980086" data-name="Grupo 980086" transform="translate(843.908 4983.28)">
      <g id="Grupo_980085" data-name="Grupo 980085">
        <rect id="Rectángulo_309487" data-name="Rectángulo 309487" width="105.874" height="81.659" transform="translate(0 0.221)" fill="#ebebeb"/>
        <g id="Grupo_980084" data-name="Grupo 980084" transform="translate(79.138)">
          <path id="Trazado_654127" data-name="Trazado 654127" d="M968.64,5079.7c-.116,0-.209-18.2-.209-40.649s.094-40.653.209-40.653.21,18.2.21,40.653S968.757,5079.7,968.64,5079.7Z" transform="translate(-968.431 -4998.402)" fill="#e0e0e0"/>
        </g>
        <rect id="Rectángulo_309488" data-name="Rectángulo 309488" width="8.117" height="9.175" transform="translate(88.78 63.293)" fill="#fafafa"/>
        <rect id="Rectángulo_309489" data-name="Rectángulo 309489" width="12.026" height="17.424" transform="translate(32.299 0.431)" fill="#e0e0e0"/>
        <rect id="Rectángulo_309490" data-name="Rectángulo 309490" width="12.026" height="17.424" transform="translate(32.299 64.213)" fill="#e0e0e0"/>
      </g>
    </g>
    <g id="Grupo_980089" data-name="Grupo 980089" transform="translate(662.669 4913.6)">
      <g id="Grupo_980088" data-name="Grupo 980088">
        <rect id="Rectángulo_309491" data-name="Rectángulo 309491" width="91.858" height="70.849" transform="translate(0 0.191)" fill="#f5f5f5"/>
        <g id="Grupo_980087" data-name="Grupo 980087" transform="translate(68.661)">
          <path id="Trazado_654128" data-name="Trazado 654128" d="M761.6,4993.7c-.1,0-.182-15.793-.182-35.269s.081-35.271.182-35.271.182,15.789.182,35.271S761.7,4993.7,761.6,4993.7Z" transform="translate(-761.414 -4923.16)" fill="#e0e0e0"/>
        </g>
        <rect id="Rectángulo_309492" data-name="Rectángulo 309492" width="7.042" height="7.961" transform="translate(77.027 54.914)" fill="#fafafa"/>
        <rect id="Rectángulo_309493" data-name="Rectángulo 309493" width="10.434" height="15.118" transform="translate(28.023 0.374)" fill="#e0e0e0"/>
        <rect id="Rectángulo_309494" data-name="Rectángulo 309494" width="10.434" height="15.118" transform="translate(28.023 55.712)" fill="#e0e0e0"/>
      </g>
    </g>
    <g id="Grupo_980092" data-name="Grupo 980092" transform="translate(670.815 4842.933)">
      <g id="Grupo_980091" data-name="Grupo 980091">
        <rect id="Rectángulo_309495" data-name="Rectángulo 309495" width="91.858" height="70.849" transform="translate(0 0.192)" fill="#ebebeb"/>
        <g id="Grupo_980090" data-name="Grupo 980090" transform="translate(68.661)">
          <path id="Trazado_654129" data-name="Trazado 654129" d="M770.392,4917.393c-.1,0-.182-15.792-.182-35.269s.081-35.271.182-35.271.182,15.789.182,35.271S770.493,4917.393,770.392,4917.393Z" transform="translate(-770.21 -4846.853)" fill="#e0e0e0"/>
        </g>
        <rect id="Rectángulo_309496" data-name="Rectángulo 309496" width="7.042" height="7.961" transform="translate(77.027 54.914)" fill="#fafafa"/>
        <rect id="Rectángulo_309497" data-name="Rectángulo 309497" width="10.434" height="15.118" transform="translate(28.023 0.374)" fill="#e0e0e0"/>
        <rect id="Rectángulo_309498" data-name="Rectángulo 309498" width="10.434" height="15.118" transform="translate(28.023 55.712)" fill="#e0e0e0"/>
      </g>
    </g>
    <g id="Grupo_980095" data-name="Grupo 980095" transform="translate(693.507 4793.819)">
      <g id="Grupo_980094" data-name="Grupo 980094">
        <rect id="Rectángulo_309499" data-name="Rectángulo 309499" width="65.729" height="50.696" transform="translate(0 0.137)" fill="#ebebeb"/>
        <g id="Grupo_980093" data-name="Grupo 980093" transform="translate(49.131)">
          <path id="Trazado_654130" data-name="Trazado 654130" d="M773.755,4844.293c-.072,0-.131-11.3-.131-25.236s.058-25.239.131-25.239.13,11.3.13,25.239S773.826,4844.293,773.755,4844.293Z" transform="translate(-773.624 -4793.819)" fill="#e0e0e0"/>
        </g>
        <rect id="Rectángulo_309500" data-name="Rectángulo 309500" width="5.039" height="5.696" transform="translate(55.117 39.294)" fill="#fafafa"/>
        <rect id="Rectángulo_309501" data-name="Rectángulo 309501" width="7.466" height="10.817" transform="translate(20.052 0.268)" fill="#e0e0e0"/>
        <rect id="Rectángulo_309502" data-name="Rectángulo 309502" width="7.466" height="10.817" transform="translate(20.052 39.865)" fill="#e0e0e0"/>
      </g>
    </g>
    <g id="Grupo_980098" data-name="Grupo 980098" transform="translate(679.442 5065.868)">
      <g id="Grupo_980097" data-name="Grupo 980097">
        <rect id="Rectángulo_309503" data-name="Rectángulo 309503" width="105.874" height="81.659" transform="translate(0 0.221)" fill="#ebebeb"/>
        <g id="Grupo_980096" data-name="Grupo 980096" transform="translate(79.138)">
          <path id="Trazado_654131" data-name="Trazado 654131" d="M791.048,5168.885c-.116,0-.21-18.2-.21-40.65s.094-40.654.21-40.654.21,18.2.21,40.654S791.164,5168.885,791.048,5168.885Z" transform="translate(-790.838 -5087.581)" fill="#e0e0e0"/>
        </g>
        <rect id="Rectángulo_309504" data-name="Rectángulo 309504" width="8.117" height="9.176" transform="translate(88.78 63.293)" fill="#fafafa"/>
        <rect id="Rectángulo_309505" data-name="Rectángulo 309505" width="12.026" height="17.424" transform="translate(32.299 0.431)" fill="#e0e0e0"/>
        <rect id="Rectángulo_309506" data-name="Rectángulo 309506" width="12.026" height="17.424" transform="translate(32.299 64.213)" fill="#e0e0e0"/>
      </g>
    </g>
    <g id="Grupo_980101" data-name="Grupo 980101" transform="translate(664.817 4984.419)">
      <g id="Grupo_980100" data-name="Grupo 980100">
        <rect id="Rectángulo_309507" data-name="Rectángulo 309507" width="105.874" height="81.659" transform="translate(0 0.221)" fill="#ebebeb"/>
        <g id="Grupo_980099" data-name="Grupo 980099" transform="translate(79.138)">
          <path id="Trazado_654132" data-name="Trazado 654132" d="M775.256,5080.935c-.116,0-.21-18.2-.21-40.649s.094-40.653.21-40.653.209,18.2.209,40.653S775.372,5080.935,775.256,5080.935Z" transform="translate(-775.046 -4999.632)" fill="#e0e0e0"/>
        </g>
        <rect id="Rectángulo_309508" data-name="Rectángulo 309508" width="8.117" height="9.176" transform="translate(88.78 63.293)" fill="#fafafa"/>
        <rect id="Rectángulo_309509" data-name="Rectángulo 309509" width="12.026" height="17.424" transform="translate(32.299 0.431)" fill="#e0e0e0"/>
        <rect id="Rectángulo_309510" data-name="Rectángulo 309510" width="12.026" height="17.424" transform="translate(32.299 64.213)" fill="#e0e0e0"/>
      </g>
    </g>
    <path id="Trazado_654133" data-name="Trazado 654133" d="M540.866,5157.838v-8.718H362.6a2.384,2.384,0,0,0-2.384,2.384v3.949a2.384,2.384,0,0,0,2.384,2.385h4.964v3.968a2.348,2.348,0,0,1-2.347,2.347h-2.654a2.346,2.346,0,0,0-2.347,2.346v4.025a2.346,2.346,0,0,0,2.347,2.346h178.3v-8.717H499.311v-6.315Zm-130.573,0h10.682v6.315H410.293Zm-7.122,6.315H392.489v-6.315h10.682Zm24.925-6.315h10.682v6.315H428.1Zm17.8,0h10.682v6.315H445.9Zm17.8,0h10.681v6.315H463.7Zm-89.019,0h10.682v6.315H374.685Zm117.5,6.315H481.507v-6.315H492.19Z" transform="translate(-0.429 -26.262)" fill="#e0e0e0"/>
    <g id="Grupo_980193" data-name="Grupo 980193" transform="translate(420.284 4831.408)">
      <g id="Grupo_980105" data-name="Grupo 980105" transform="translate(17.666 118.295)">
        <g id="Grupo_980103" data-name="Grupo 980103">
          <rect id="Rectángulo_309511" data-name="Rectángulo 309511" width="96.483" height="74.416" transform="translate(0 0.201)" fill="#9b5eff"/>
          <rect id="Rectángulo_309512" data-name="Rectángulo 309512" width="96.483" height="74.416" transform="translate(0 0.201)" opacity="0.3"/>
          <g id="Grupo_980102" data-name="Grupo 980102" transform="translate(72.154)">
            <path id="Trazado_654134" data-name="Trazado 654134" d="M522.687,5036.237c-.086,0-.156-16.588-.156-37.044s.069-37.048.156-37.048.156,16.583.156,37.048S522.773,5036.237,522.687,5036.237Z" transform="translate(-522.531 -4962.145)" fill="#263238"/>
          </g>
          <rect id="Rectángulo_309513" data-name="Rectángulo 309513" width="7.397" height="8.362" transform="translate(80.906 57.679)" fill="#f5f5f5"/>
          <rect id="Rectángulo_309514" data-name="Rectángulo 309514" width="10.959" height="15.879" transform="translate(29.434 0.393)" fill="#263238"/>
          <rect id="Rectángulo_309515" data-name="Rectángulo 309515" width="10.959" height="15.879" transform="translate(29.434 58.517)" fill="#263238"/>
        </g>
        <g id="Grupo_980104" data-name="Grupo 980104" transform="translate(0 0.044)">
          <path id="Trazado_654135" data-name="Trazado 654135" d="M540.26,4962.35a1.381,1.381,0,0,1-.247.016l-.725.016c-.654.006-1.589.017-2.787.03l-10.248.049-33.812.044-33.818-.044-10.247-.049c-1.2-.014-2.133-.024-2.787-.03l-.724-.016a.124.124,0,1,1,0-.031l.724-.016,2.787-.029,10.247-.05,33.818-.047,33.812.047,10.248.05,2.787.029.725.016A1.381,1.381,0,0,1,540.26,4962.35Z" transform="translate(-444.618 -4962.192)" fill="#263238"/>
        </g>
      </g>
      <g id="Grupo_980109" data-name="Grupo 980109" transform="translate(97.983 118.205)">
        <g id="Grupo_980107" data-name="Grupo 980107">
          <rect id="Rectángulo_309516" data-name="Rectángulo 309516" width="96.483" height="74.416" transform="translate(0 0.201)" fill="#9b5eff"/>
          <g id="Grupo_980106" data-name="Grupo 980106" transform="translate(72.154)">
            <path id="Trazado_654136" data-name="Trazado 654136" d="M609.414,5036.14c-.086,0-.156-16.587-.156-37.044s.069-37.047.156-37.047.156,16.583.156,37.047S609.5,5036.14,609.414,5036.14Z" transform="translate(-609.258 -4962.048)" fill="#263238"/>
          </g>
          <rect id="Rectángulo_309517" data-name="Rectángulo 309517" width="7.397" height="8.362" transform="translate(80.906 57.679)" fill="#f5f5f5"/>
          <rect id="Rectángulo_309518" data-name="Rectángulo 309518" width="10.959" height="15.879" transform="translate(29.434 0.393)" fill="#fff" opacity="0.5"/>
          <rect id="Rectángulo_309519" data-name="Rectángulo 309519" width="10.959" height="15.879" transform="translate(29.434 58.517)" fill="#fff" opacity="0.5"/>
        </g>
        <g id="Grupo_980108" data-name="Grupo 980108" transform="translate(0 0.045)">
          <path id="Trazado_654137" data-name="Trazado 654137" d="M626.987,4962.252a1.446,1.446,0,0,1-.246.016l-.725.015-2.787.03-10.248.049-33.812.045-33.818-.045-10.248-.05-2.786-.029-.725-.015a1.447,1.447,0,0,1-.246-.016,1.425,1.425,0,0,1,.246-.016l.725-.016,2.786-.029,10.248-.049,33.818-.046,33.812.046,10.248.05,2.787.028.725.016A1.307,1.307,0,0,1,626.987,4962.252Z" transform="translate(-531.345 -4962.096)" fill="#263238"/>
        </g>
      </g>
      <g id="Grupo_980113" data-name="Grupo 980113" transform="translate(103.399 43.786)">
        <g id="Grupo_980111" data-name="Grupo 980111">
          <rect id="Rectángulo_309520" data-name="Rectángulo 309520" width="96.483" height="74.416" transform="translate(0 0.201)" fill="#9b5eff"/>
          <g id="Grupo_980110" data-name="Grupo 980110" transform="translate(72.154)">
            <path id="Trazado_654138" data-name="Trazado 654138" d="M615.263,4955.781c-.086,0-.156-16.588-.156-37.044s.069-37.048.156-37.048.156,16.583.156,37.048S615.349,4955.781,615.263,4955.781Z" transform="translate(-615.107 -4881.689)" fill="#263238"/>
          </g>
          <rect id="Rectángulo_309521" data-name="Rectángulo 309521" width="7.397" height="8.362" transform="translate(80.906 57.68)" fill="#f5f5f5"/>
          <rect id="Rectángulo_309522" data-name="Rectángulo 309522" width="10.959" height="15.879" transform="translate(29.434 0.393)" fill="#263238"/>
          <rect id="Rectángulo_309523" data-name="Rectángulo 309523" width="10.959" height="15.879" transform="translate(29.434 58.518)" fill="#263238"/>
        </g>
        <g id="Grupo_980112" data-name="Grupo 980112" transform="translate(0 0.044)">
          <path id="Trazado_654139" data-name="Trazado 654139" d="M632.836,4881.893a1.345,1.345,0,0,1-.246.017l-.725.015-2.787.03-10.248.049-33.812.045L551.2,4882l-10.248-.049-2.786-.03-.725-.015a1.346,1.346,0,0,1-.246-.017,1.565,1.565,0,0,1,.246-.016l.725-.016,2.786-.029,10.248-.05,33.818-.047,33.812.047,10.248.05,2.787.029.725.016A1.564,1.564,0,0,1,632.836,4881.893Z" transform="translate(-537.194 -4881.736)" fill="#263238"/>
        </g>
      </g>
      <path id="Trazado_654140" data-name="Trazado 654140" d="M615.82,5131.5v-8.718H437.555a2.385,2.385,0,0,0-2.385,2.385v3.949a2.384,2.384,0,0,0,2.385,2.384h4.963v3.969a2.346,2.346,0,0,1-2.346,2.346h-2.655a2.347,2.347,0,0,0-2.347,2.347v4.025a2.346,2.346,0,0,0,2.347,2.346h178.3v-8.718H574.264V5131.5Zm-130.573,0h10.682v6.314H485.246Zm-7.121,6.314H467.443V5131.5h10.682Zm24.925-6.314h10.682v6.314H503.05Zm17.8,0h10.681v6.314H520.854Zm17.8,0H549.34v6.314H538.657Zm-89.018,0h10.682v6.314H449.639Zm117.5,6.314H556.461V5131.5h10.682Z" transform="translate(-426.254 -4855.722)" fill="#455a64"/>
      <g id="Grupo_980181" data-name="Grupo 980181" transform="translate(92.917)">
        <path id="Trazado_654141" data-name="Trazado 654141" d="M778.885,4967.377a3.149,3.149,0,0,0-.1-4.483l-30.071-28.419a3.237,3.237,0,0,0-4.434.018h0a3.237,3.237,0,0,0-.12,4.58l11.995,12.62-6.244,6-3.256-2.555-22.679,25.976-12.122-11.661-14.615,42.984,2.9,58.37h33.62l-2.347-69.332,22.52-32.147.171-7.644,6.452-6.632,13.971,12.477a3.149,3.149,0,0,0,4.356-.155Z" transform="translate(-538.541 -4841.74)" fill="#263238"/>
        <g id="Grupo_980114" data-name="Grupo 980114" transform="translate(149.393 2.074)">
          <path id="Trazado_654142" data-name="Trazado 654142" d="M687.432,5074.425c-.133,0-.241-53.232-.241-118.883,0-65.672.107-118.894.241-118.894s.242,53.221.242,118.894C687.673,5021.192,687.565,5074.425,687.432,5074.425Z" transform="translate(-687.191 -4836.648)" fill="#263238"/>
        </g>
        <path id="Trazado_654143" data-name="Trazado 654143" d="M768.738,5064.8l20.447-56.779-7.682-3.111V4993.9l55.908-.866a5.434,5.434,0,0,0,5.289-4.826l8.209-72.989a6.683,6.683,0,0,1,6.643-5.937h0a6.684,6.684,0,0,1,6.679,6.959l-3.092,75.213,29.195.157.995,13.718-86.337,3.377-22.512,55.278Z" transform="translate(-543.826 -4839.942)" fill="#455a64"/>
        <path id="Trazado_654144" data-name="Trazado 654144" d="M776.827,5070.767l-72.676.578v4.839l30.1-.387,47.958-.364,116.254-16.418-13.177-50.164H806.6a8.377,8.377,0,0,0-6.964,3.54Z" transform="translate(-539.052 -4847.301)" fill="#263238"/>
        <path id="Trazado_654145" data-name="Trazado 654145" d="M740.8,4848.658l-52.828,168.486.37,46.863h16.807v-46.569l43.284-168.331,117.28-.655,22.431,175.333h13.234l-27.289-174.107a9.947,9.947,0,0,0-9.775-8.109H750.324A9.947,9.947,0,0,0,740.8,4848.658Z" transform="translate(-537.856 -4834.938)" fill="#455a64"/>
        <path id="Trazado_654146" data-name="Trazado 654146" d="M677.729,5132.571V5087.56l9.854-9.123,92.581-1.191,16.706-13.559a19.036,19.036,0,0,1,10.922-4.226l17.83-1.006s8-5.514,15.721-10.978a58.05,58.05,0,0,1,33.542-10.682h51.329a7.028,7.028,0,0,1,7.027,7.028v88.747Z" transform="translate(-537.099 -4849.368)" fill="#583cb6"/>
        <rect id="Rectángulo_309524" data-name="Rectángulo 309524" width="256.42" height="14.797" transform="translate(139.722 268.698)" fill="#263238"/>
        <g id="Grupo_980145" data-name="Grupo 980145" transform="translate(152.99 251.79)">
          <g id="Grupo_980120" data-name="Grupo 980120">
            <g id="Grupo_980119" data-name="Grupo 980119">
              <g id="Grupo_980118" data-name="Grupo 980118">
                <g id="Grupo_980117" data-name="Grupo 980117">
                  <g id="Grupo_980116" data-name="Grupo 980116">
                    <g id="Grupo_980115" data-name="Grupo 980115">
                      <path id="Trazado_654147" data-name="Trazado 654147" d="M691.079,5137.543a31.706,31.706,0,1,0,32.159-31.246A31.706,31.706,0,0,0,691.079,5137.543Z" transform="translate(-691.075 -5106.294)" fill="#263238"/>
                    </g>
                  </g>
                </g>
              </g>
            </g>
          </g>
          <g id="Grupo_980126" data-name="Grupo 980126" transform="translate(0 31.166)">
            <g id="Grupo_980125" data-name="Grupo 980125">
              <g id="Grupo_980124" data-name="Grupo 980124">
                <g id="Grupo_980123" data-name="Grupo 980123">
                  <g id="Grupo_980122" data-name="Grupo 980122">
                    <g id="Grupo_980121" data-name="Grupo 980121">
                      <path id="Trazado_654148" data-name="Trazado 654148" d="M691.084,5139.948c0,.028-.006.054-.006.083a31.706,31.706,0,1,0,63.4.914c0-.027,0-.055,0-.081Z" transform="translate(-691.075 -5139.948)" fill="#263238"/>
                    </g>
                  </g>
                </g>
              </g>
            </g>
          </g>
          <g id="Grupo_980132" data-name="Grupo 980132" transform="translate(9.446 9.446)">
            <g id="Grupo_980131" data-name="Grupo 980131">
              <g id="Grupo_980130" data-name="Grupo 980130">
                <g id="Grupo_980129" data-name="Grupo 980129">
                  <g id="Grupo_980128" data-name="Grupo 980128">
                    <g id="Grupo_980127" data-name="Grupo 980127">
                      <path id="Trazado_654149" data-name="Trazado 654149" d="M701.278,5138.433a22.259,22.259,0,1,0,22.578-21.937A22.259,22.259,0,0,0,701.278,5138.433Z" transform="translate(-701.275 -5116.494)" fill="#fafafa"/>
                    </g>
                  </g>
                </g>
              </g>
            </g>
          </g>
          <g id="Grupo_980138" data-name="Grupo 980138" transform="translate(9.449 9.446)">
            <g id="Grupo_980137" data-name="Grupo 980137">
              <g id="Grupo_980136" data-name="Grupo 980136">
                <g id="Grupo_980135" data-name="Grupo 980135">
                  <g id="Grupo_980134" data-name="Grupo 980134">
                    <g id="Grupo_980133" data-name="Grupo 980133">
                      <path id="Trazado_654150" data-name="Trazado 654150" d="M723.856,5116.5a22.259,22.259,0,0,0-22.578,21.937l44.514.642A22.259,22.259,0,0,0,723.856,5116.5Z" transform="translate(-701.278 -5116.494)" fill="#e0e0e0"/>
                    </g>
                  </g>
                </g>
              </g>
            </g>
          </g>
          <g id="Grupo_980144" data-name="Grupo 980144" transform="translate(18.147 18.146)">
            <g id="Grupo_980143" data-name="Grupo 980143">
              <g id="Grupo_980142" data-name="Grupo 980142">
                <g id="Grupo_980141" data-name="Grupo 980141">
                  <g id="Grupo_980140" data-name="Grupo 980140">
                    <g id="Grupo_980139" data-name="Grupo 980139">
                      <path id="Trazado_654151" data-name="Trazado 654151" d="M710.672,5139.252a13.559,13.559,0,1,0,13.753-13.362A13.558,13.558,0,0,0,710.672,5139.252Z" transform="translate(-710.67 -5125.888)" fill="#263238"/>
                    </g>
                  </g>
                </g>
              </g>
            </g>
          </g>
        </g>
        <g id="Grupo_980176" data-name="Grupo 980176" transform="translate(308.147 251.79)">
          <g id="Grupo_980151" data-name="Grupo 980151">
            <g id="Grupo_980150" data-name="Grupo 980150">
              <g id="Grupo_980149" data-name="Grupo 980149">
                <g id="Grupo_980148" data-name="Grupo 980148">
                  <g id="Grupo_980147" data-name="Grupo 980147">
                    <g id="Grupo_980146" data-name="Grupo 980146">
                      <path id="Trazado_654152" data-name="Trazado 654152" d="M858.62,5137.543a31.706,31.706,0,1,0,32.159-31.246A31.706,31.706,0,0,0,858.62,5137.543Z" transform="translate(-858.616 -5106.294)" fill="#263238"/>
                    </g>
                  </g>
                </g>
              </g>
            </g>
          </g>
          <g id="Grupo_980157" data-name="Grupo 980157" transform="translate(0 31.166)">
            <g id="Grupo_980156" data-name="Grupo 980156">
              <g id="Grupo_980155" data-name="Grupo 980155">
                <g id="Grupo_980154" data-name="Grupo 980154">
                  <g id="Grupo_980153" data-name="Grupo 980153">
                    <g id="Grupo_980152" data-name="Grupo 980152">
                      <path id="Trazado_654153" data-name="Trazado 654153" d="M858.625,5139.948c0,.028-.006.054-.006.083a31.706,31.706,0,1,0,63.4.914c0-.027,0-.055,0-.081Z" transform="translate(-858.616 -5139.948)" fill="#263238"/>
                    </g>
                  </g>
                </g>
              </g>
            </g>
          </g>
          <g id="Grupo_980163" data-name="Grupo 980163" transform="translate(9.446 9.446)">
            <g id="Grupo_980162" data-name="Grupo 980162">
              <g id="Grupo_980161" data-name="Grupo 980161">
                <g id="Grupo_980160" data-name="Grupo 980160">
                  <g id="Grupo_980159" data-name="Grupo 980159">
                    <g id="Grupo_980158" data-name="Grupo 980158">
                      <path id="Trazado_654154" data-name="Trazado 654154" d="M868.819,5138.433A22.259,22.259,0,1,0,891.4,5116.5,22.259,22.259,0,0,0,868.819,5138.433Z" transform="translate(-868.816 -5116.494)" fill="#fafafa"/>
                    </g>
                  </g>
                </g>
              </g>
            </g>
          </g>
          <g id="Grupo_980169" data-name="Grupo 980169" transform="translate(9.449 9.446)">
            <g id="Grupo_980168" data-name="Grupo 980168">
              <g id="Grupo_980167" data-name="Grupo 980167">
                <g id="Grupo_980166" data-name="Grupo 980166">
                  <g id="Grupo_980165" data-name="Grupo 980165">
                    <g id="Grupo_980164" data-name="Grupo 980164">
                      <path id="Trazado_654155" data-name="Trazado 654155" d="M891.4,5116.5a22.26,22.26,0,0,0-22.578,21.937l44.514.642A22.259,22.259,0,0,0,891.4,5116.5Z" transform="translate(-868.819 -5116.494)" fill="#e0e0e0"/>
                    </g>
                  </g>
                </g>
              </g>
            </g>
          </g>
          <g id="Grupo_980175" data-name="Grupo 980175" transform="translate(18.147 18.146)">
            <g id="Grupo_980174" data-name="Grupo 980174">
              <g id="Grupo_980173" data-name="Grupo 980173">
                <g id="Grupo_980172" data-name="Grupo 980172">
                  <g id="Grupo_980171" data-name="Grupo 980171">
                    <g id="Grupo_980170" data-name="Grupo 980170">
                      <path id="Trazado_654156" data-name="Trazado 654156" d="M878.213,5139.252a13.559,13.559,0,1,0,13.752-13.362A13.558,13.558,0,0,0,878.213,5139.252Z" transform="translate(-878.211 -5125.888)" fill="#263238"/>
                    </g>
                  </g>
                </g>
              </g>
            </g>
          </g>
        </g>
        <g id="Grupo_980177" data-name="Grupo 980177" transform="translate(298.782 236.275)">
          <path id="Trazado_654157" data-name="Trazado 654157" d="M930.836,5114.193a1.137,1.137,0,0,1-.154-.221l-.407-.666-.649-1.091a14.878,14.878,0,0,0-.93-1.457,44.859,44.859,0,0,0-7.148-8.34c-.819-.826-1.808-1.545-2.774-2.364-.989-.792-2.087-1.528-3.2-2.314-1.175-.693-2.333-1.512-3.642-2.15-.646-.334-1.29-.7-1.962-1.021l-2.077-.922a43.939,43.939,0,0,0-38.5,1.837l-1.98,1.116c-.639.388-1.246.81-1.857,1.2-1.244.76-2.317,1.685-3.422,2.488-1.034.889-2.057,1.726-2.966,2.609-.884.908-1.8,1.717-2.537,2.617a44.94,44.94,0,0,0-6.321,8.982,14.984,14.984,0,0,0-.785,1.54l-.543,1.147c-.141.288-.253.52-.343.7a1.129,1.129,0,0,1-.131.233,1.045,1.045,0,0,1,.086-.252l.3-.722.5-1.169a14.425,14.425,0,0,1,.75-1.566,43.128,43.128,0,0,1,6.234-9.122c.733-.914,1.648-1.737,2.533-2.659.909-.9,1.935-1.748,2.972-2.652,1.109-.815,2.187-1.755,3.437-2.528.615-.4,1.225-.829,1.868-1.223l1.994-1.135a44.047,44.047,0,0,1,38.885-1.856l2.093.94c.678.331,1.325.7,1.975,1.039,1.318.651,2.481,1.483,3.662,2.19,1.119.8,2.22,1.55,3.211,2.356.969.833,1.957,1.566,2.775,2.406a43.034,43.034,0,0,1,7.074,8.487,14.185,14.185,0,0,1,.9,1.486l.61,1.117.367.69A1.046,1.046,0,0,1,930.836,5114.193Z" transform="translate(-848.503 -5089.541)" fill="#263238"/>
        </g>
        <g id="Grupo_980178" data-name="Grupo 980178" transform="translate(143.292 237.376)">
          <path id="Trazado_654158" data-name="Trazado 654158" d="M763.405,5120.117a1.22,1.22,0,0,1-.122-.252c-.081-.2-.184-.444-.313-.757l-.5-1.232-.744-1.656a50.814,50.814,0,0,0-6-9.845,39.356,39.356,0,0,0-12.907-11,38.093,38.093,0,0,0-9.537-3.176,48.553,48.553,0,0,0-10.773-.981,47.841,47.841,0,0,0-10.729,1.38,39.914,39.914,0,0,0-9.372,3.662,46.929,46.929,0,0,0-13.324,10.583,53.219,53.219,0,0,0-6.53,9.5c-.645,1.2-1.133,2.146-1.442,2.8l-.37.731a1.21,1.21,0,0,1-.142.241,1.228,1.228,0,0,1,.1-.262c.085-.194.193-.442.328-.752.282-.665.744-1.621,1.364-2.842a50.813,50.813,0,0,1,6.437-9.638,46.665,46.665,0,0,1,13.37-10.75,39.991,39.991,0,0,1,9.468-3.729,47.894,47.894,0,0,1,10.836-1.4,48.611,48.611,0,0,1,10.876,1,38.293,38.293,0,0,1,9.645,3.243A39.291,39.291,0,0,1,756,5106.166a48.613,48.613,0,0,1,5.9,9.976l.706,1.679.457,1.253.269.775A1.139,1.139,0,0,1,763.405,5120.117Z" transform="translate(-680.604 -5090.729)" fill="#263238"/>
        </g>
        <rect id="Rectángulo_309525" data-name="Rectángulo 309525" width="140.566" height="16.439" transform="translate(0 267.056)" fill="#263238"/>
        <path id="Trazado_654159" data-name="Trazado 654159" d="M672.893,5129.982a4.094,4.094,0,1,1-4.093-4.093A4.093,4.093,0,0,1,672.893,5129.982Z" transform="translate(-536.136 -4855.953)" fill="#455a64"/>
        <rect id="Rectángulo_309526" data-name="Rectángulo 309526" width="11.734" height="233.081" transform="translate(126.99 5.344)" fill="#455a64"/>
        <g id="Grupo_980179" data-name="Grupo 980179" transform="translate(217.236 251.464)">
          <path id="Trazado_654160" data-name="Trazado 654160" d="M848.793,5106.184c0,.133-19.778.24-44.17.24s-44.174-.107-44.174-.24,19.774-.242,44.174-.242S848.793,5106.05,848.793,5106.184Z" transform="translate(-760.449 -5105.942)" fill="#263238"/>
        </g>
        <g id="Grupo_980180" data-name="Grupo 980180" transform="translate(287.335 209.786)">
          <path id="Trazado_654161" data-name="Trazado 654161" d="M836.384,5099.364c-.132,0-.241-8.6-.241-19.213s.108-19.213.241-19.213.242,8.6.242,19.213S836.517,5099.364,836.384,5099.364Z" transform="translate(-836.143 -5060.938)" fill="#263238"/>
        </g>
        <rect id="Rectángulo_309527" data-name="Rectángulo 309527" width="23.946" height="10.687" transform="translate(125.724)" fill="#263238"/>
        <rect id="Rectángulo_309528" data-name="Rectángulo 309528" width="15.418" height="30.766" transform="translate(125.147 236.502)" fill="#263238"/>
      </g>
      <g id="Grupo_980185" data-name="Grupo 980185" transform="translate(101.197 192.651)">
        <g id="Grupo_980183" data-name="Grupo 980183">
          <rect id="Rectángulo_309529" data-name="Rectángulo 309529" width="96.483" height="74.416" transform="translate(0 0.202)" fill="#9b5eff"/>
          <rect id="Rectángulo_309530" data-name="Rectángulo 309530" width="96.483" height="74.416" transform="translate(0 0.202)" opacity="0.3"/>
          <g id="Grupo_980182" data-name="Grupo 980182" transform="translate(72.154)">
            <path id="Trazado_654162" data-name="Trazado 654162" d="M612.885,5116.527c-.086,0-.156-16.587-.156-37.044s.07-37.048.156-37.048.156,16.584.156,37.048S612.971,5116.527,612.885,5116.527Z" transform="translate(-612.729 -5042.435)" fill="#263238"/>
          </g>
          <rect id="Rectángulo_309531" data-name="Rectángulo 309531" width="7.397" height="8.362" transform="translate(80.906 57.68)" fill="#f5f5f5"/>
          <rect id="Rectángulo_309532" data-name="Rectángulo 309532" width="10.959" height="15.879" transform="translate(29.434 0.393)" fill="#263238"/>
          <rect id="Rectángulo_309533" data-name="Rectángulo 309533" width="10.959" height="15.879" transform="translate(29.434 58.518)" fill="#263238"/>
        </g>
        <g id="Grupo_980184" data-name="Grupo 980184" transform="translate(0 0.044)">
          <path id="Trazado_654163" data-name="Trazado 654163" d="M630.458,5042.641a1.491,1.491,0,0,1-.246.016l-.725.016-2.787.028-10.248.05-33.812.045-33.818-.045-10.248-.05-2.786-.028-.725-.016a1.491,1.491,0,0,1-.246-.016,1.256,1.256,0,0,1,.246-.016c.178,0,.419-.01.725-.016l2.786-.03,10.248-.05,33.818-.047,33.812.047,10.248.05,2.787.03c.307.006.546.011.725.016A1.256,1.256,0,0,1,630.458,5042.641Z" transform="translate(-534.816 -5042.482)" fill="#263238"/>
        </g>
      </g>
      <g id="Grupo_980189" data-name="Grupo 980189" transform="translate(0 192.651)">
        <g id="Grupo_980187" data-name="Grupo 980187" transform="translate(0)">
          <rect id="Rectángulo_309534" data-name="Rectángulo 309534" width="96.483" height="74.416" transform="translate(0 0.202)" fill="#9b5eff"/>
          <g id="Grupo_980186" data-name="Grupo 980186" transform="translate(72.154)">
            <path id="Trazado_654164" data-name="Trazado 654164" d="M503.611,5116.527c-.086,0-.156-16.587-.156-37.044s.069-37.048.156-37.048.157,16.584.157,37.048S503.7,5116.527,503.611,5116.527Z" transform="translate(-503.455 -5042.435)" fill="#263238"/>
          </g>
          <rect id="Rectángulo_309535" data-name="Rectángulo 309535" width="7.397" height="8.362" transform="translate(80.906 57.68)" fill="#f5f5f5"/>
          <rect id="Rectángulo_309536" data-name="Rectángulo 309536" width="10.959" height="15.879" transform="translate(29.434 0.393)" fill="#fff" opacity="0.5"/>
          <rect id="Rectángulo_309537" data-name="Rectángulo 309537" width="10.959" height="15.879" transform="translate(29.434 58.518)" fill="#fff" opacity="0.5"/>
        </g>
        <g id="Grupo_980188" data-name="Grupo 980188" transform="translate(0 0.044)">
          <path id="Trazado_654165" data-name="Trazado 654165" d="M521.184,5042.641a1.511,1.511,0,0,1-.247.016l-.724.016-2.787.028-10.249.05-33.811.045-33.818-.045-10.248-.05-2.787-.028-.724-.016a1.511,1.511,0,0,1-.247-.016,1.272,1.272,0,0,1,.247-.016c.178,0,.418-.01.724-.016l2.787-.03,10.248-.05,33.818-.047,33.811.047,10.249.05,2.787.03c.307.006.546.011.724.016A1.272,1.272,0,0,1,521.184,5042.641Z" transform="translate(-425.542 -5042.482)" fill="#263238"/>
        </g>
      </g>
      <g id="Grupo_980192" data-name="Grupo 980192" transform="translate(489.059 210.207)">
        <path id="Trazado_654166" data-name="Trazado 654166" d="M958.007,5064.5c4.975,1.2,9.147,6.249,9.064,11.366a11.718,11.718,0,0,1-9.064,10.945" transform="translate(-953.957 -5061.622)" fill="#9b5eff"/>
        <g id="Grupo_980190" data-name="Grupo 980190" transform="translate(4.05 2.875)" opacity="0.6">
          <path id="Trazado_654167" data-name="Trazado 654167" d="M958.007,5064.5c4.975,1.2,9.147,6.249,9.064,11.366a11.718,11.718,0,0,1-9.064,10.945" transform="translate(-958.007 -5064.497)" fill="#fff"/>
        </g>
        <g id="Grupo_980191" data-name="Grupo 980191">
          <rect id="Rectángulo_309538" data-name="Rectángulo 309538" width="4.254" height="28.166" fill="#9b5eff"/>
          <rect id="Rectángulo_309539" data-name="Rectángulo 309539" width="4.254" height="28.166" opacity="0.3"/>
        </g>
      </g>
    </g>
    <path id="Trazado_654168" data-name="Trazado 654168" d="M760.282,4928.359" transform="translate(-30 -9.944)" fill="#ff9a6c"/>
    <g id="Grupo_980381" data-name="Grupo 980381" transform="translate(710.304 4853.833)">
      <g id="Grupo_980197" data-name="Grupo 980197" transform="translate(0 63.966)">
        <path id="Trazado_654169" data-name="Trazado 654169" d="M739.755,4938.662a2.688,2.688,0,0,1-.7-3.455c.708-1.248,1.547-2.71,1.927-3.316a21.98,21.98,0,0,0,1.266-2.245,2.527,2.527,0,0,1,1.945-1.852,10.8,10.8,0,0,1,3.4.1l11.583,2.5,5.393,2.674-5.251,4.627-2.914-.89c-.875.765-4.313,1.163-5.478,1.019-1.492-.183-4.479-1.152-6.174-.828l-1.633.225.777.654a7.708,7.708,0,0,1,4.114.841,1.173,1.173,0,0,1-.568,2.15l-3.808.249a21.839,21.839,0,0,1-2.966-1.691A11.593,11.593,0,0,0,739.755,4938.662Z" transform="translate(-738.71 -4927.694)" fill="#ffbf9d"/>
        <g id="Grupo_980194" data-name="Grupo 980194" transform="translate(0.425 4.61)">
          <path id="Trazado_654170" data-name="Trazado 654170" d="M743.163,4937.587a1.461,1.461,0,0,1-.629.258,3.268,3.268,0,0,1-1.873-.023,2.333,2.333,0,0,1-1.107-.769,1.955,1.955,0,0,1-.347-1.543,1.4,1.4,0,0,1,.481-.773,2.6,2.6,0,0,1,.8-.4,12.928,12.928,0,0,1,1.688-.44,27.2,27.2,0,0,1,3.307-.423c.511-.034,1-.058,1.459-.055.112,0,.237.007.351.015a1.541,1.541,0,0,0,.276-.011c.2-.027.389-.064.573-.109,1.472-.375,2.374-.71,2.4-.637a8.476,8.476,0,0,1-2.311.967,5.8,5.8,0,0,1-.607.147,1.9,1.9,0,0,1-.364.028c-.1,0-.2,0-.315,0-.442.013-.922.051-1.424.1-1.006.1-2.111.23-3.25.454a13.664,13.664,0,0,0-1.627.413c-.541.157-.895.4-1,.829a1.576,1.576,0,0,0,.238,1.2,2.032,2.032,0,0,0,.9.686,3.445,3.445,0,0,0,1.719.159C742.919,4937.609,743.151,4937.548,743.163,4937.587Z" transform="translate(-739.169 -4932.672)" fill="#ff9a6c"/>
        </g>
        <g id="Grupo_980195" data-name="Grupo 980195" transform="translate(5.129 3.486)">
          <path id="Trazado_654171" data-name="Trazado 654171" d="M744.98,4931.459c.124-.033.35.578.123,1.312s-.75,1.115-.835,1.018.195-.549.374-1.16S744.843,4931.483,744.98,4931.459Z" transform="translate(-744.247 -4931.458)" fill="#ff9a6c"/>
        </g>
        <g id="Grupo_980196" data-name="Grupo 980196" transform="translate(6.703 4.221)">
          <path id="Trazado_654172" data-name="Trazado 654172" d="M746.918,4932.253c.13.013.166.465-.153.879s-.764.5-.809.374.194-.356.427-.668S746.783,4932.231,746.918,4932.253Z" transform="translate(-745.947 -4932.252)" fill="#ff9a6c"/>
        </g>
      </g>
      <path id="Trazado_654173" data-name="Trazado 654173" d="M793.371,4929.457c1.6-.661-9.153,10.382-9.153,10.382l-19.855-7.4-7.01,4.305,21.354,15.033a11.245,11.245,0,0,0,14.566-1.386l12.6-14.566Z" transform="translate(-740.088 -4863.856)" fill="#ffbf9d"/>
      <g id="Grupo_980314" data-name="Grupo 980314" transform="translate(60.347)">
        <g id="Grupo_980198" data-name="Grupo 980198" transform="translate(0 13.676)">
          <path id="Trazado_654174" data-name="Trazado 654174" d="M808.453,4881.049c-2.769-.531-4.5-1.386-4.577-2.452-.149-2.2,6.845-4.468,15.62-5.062s16.011.708,16.16,2.909c.072,1.06-1.516,2.136-4.163,3.034" transform="translate(-803.873 -4873.39)" fill="#9b5eff"/>
        </g>
        <g id="Grupo_980199" data-name="Grupo 980199" transform="translate(2.033 14.367)" opacity="0.4">
          <path id="Trazado_654175" data-name="Trazado 654175" d="M810.125,4880.924c-2.453-.47-4.053-1.226-4.056-2.173-.007-2.638,6.067-3.96,13.845-4.487s14.191.627,14.324,2.579c.063.94-1.344,1.894-3.69,2.688" transform="translate(-806.069 -4874.136)"/>
        </g>
        <g id="Grupo_980200" data-name="Grupo 980200" transform="translate(2.117 1.041)">
          <path id="Trazado_654176" data-name="Trazado 654176" d="M806.16,4876.405s1.639-9.5,1.8-9.963,2.549-4.738,8.833-6.338l5.259-.356s7.63,1.9,9.116,3.622,2.67,10.517,2.67,10.517l-14.966-2.207-9.865,3.126Z" transform="translate(-806.16 -4859.747)" fill="#9b5eff"/>
        </g>
        <g id="Grupo_980201" data-name="Grupo 980201" transform="translate(11.408)">
          <path id="Trazado_654177" data-name="Trazado 654177" d="M819.186,4858.833c-.2.015-2.258.153-2.258.153a3.661,3.661,0,0,0-.736,2.435c.006,1.642.4,12.884.4,12.884l6.572-.747-1.15-13.84,2.273.346-.123-.781-.641-.659Z" transform="translate(-816.192 -4858.623)" fill="#9b5eff"/>
        </g>
        <g id="Grupo_980294" data-name="Grupo 980294" transform="translate(4.964 11.679)">
          <g id="Grupo_980293" data-name="Grupo 980293">
            <g id="Grupo_980292" data-name="Grupo 980292">
              <g id="Grupo_980291" data-name="Grupo 980291">
                <g id="Grupo_980290" data-name="Grupo 980290">
                  <g id="Grupo_980216" data-name="Grupo 980216">
                    <g id="Grupo_980215" data-name="Grupo 980215">
                      <g id="Grupo_980214" data-name="Grupo 980214">
                        <g id="Grupo_980207" data-name="Grupo 980207">
                          <g id="Grupo_980206" data-name="Grupo 980206">
                            <g id="Grupo_980205" data-name="Grupo 980205">
                              <g id="Grupo_980204" data-name="Grupo 980204">
                                <g id="Grupo_980203" data-name="Grupo 980203">
                                  <g id="Grupo_980202" data-name="Grupo 980202">
                                    <path id="Trazado_654178" data-name="Trazado 654178" d="M832.418,4911.519l-16.115.351c-.207-1.7-.051-12.3-.051-12.3s-6.136-.532-6.622-6.6-.387-18.25-.387-18.25l.068-.537c6.823-3.5,14.945-4.318,21.323-.062l.946.631Z" transform="translate(-809.234 -4871.234)" fill="#ffbf9d"/>
                                  </g>
                                </g>
                              </g>
                            </g>
                          </g>
                        </g>
                        <g id="Grupo_980213" data-name="Grupo 980213" transform="translate(6.997 25.461)">
                          <g id="Grupo_980212" data-name="Grupo 980212">
                            <g id="Grupo_980211" data-name="Grupo 980211">
                              <g id="Grupo_980210" data-name="Grupo 980210">
                                <g id="Grupo_980209" data-name="Grupo 980209">
                                  <g id="Grupo_980208" data-name="Grupo 980208">
                                    <path id="Trazado_654179" data-name="Trazado 654179" d="M816.81,4901.6a14.7,14.7,0,0,0,7.747-2.872s-1.672,4.586-7.767,4.45Z" transform="translate(-816.79 -4898.727)" fill="#ff9a6c"/>
                                  </g>
                                </g>
                              </g>
                            </g>
                          </g>
                        </g>
                      </g>
                    </g>
                  </g>
                  <g id="Grupo_980230" data-name="Grupo 980230" transform="translate(22.024 9.564)">
                    <g id="Grupo_980222" data-name="Grupo 980222">
                      <g id="Grupo_980221" data-name="Grupo 980221">
                        <g id="Grupo_980220" data-name="Grupo 980220">
                          <g id="Grupo_980219" data-name="Grupo 980219">
                            <g id="Grupo_980218" data-name="Grupo 980218">
                              <g id="Grupo_980217" data-name="Grupo 980217">
                                <path id="Trazado_654180" data-name="Trazado 654180" d="M833.016,4881.853c.1-.052,4.088-1.517,4.236,2.643s-4.058,3.451-4.069,3.333S833.016,4881.853,833.016,4881.853Z" transform="translate(-833.016 -4881.561)" fill="#ffbf9d"/>
                              </g>
                            </g>
                          </g>
                        </g>
                      </g>
                    </g>
                    <g id="Grupo_980229" data-name="Grupo 980229" transform="translate(1.377 1.326)">
                      <g id="Grupo_980228" data-name="Grupo 980228">
                        <g id="Grupo_980227" data-name="Grupo 980227">
                          <g id="Grupo_980226" data-name="Grupo 980226">
                            <g id="Grupo_980225" data-name="Grupo 980225">
                              <g id="Grupo_980224" data-name="Grupo 980224">
                                <g id="Grupo_980223" data-name="Grupo 980223">
                                  <path id="Trazado_654181" data-name="Trazado 654181" d="M834.507,4886.313c.018-.014.074.048.2.1a.728.728,0,0,0,.542-.008,1.8,1.8,0,0,0,.772-1.638,2.4,2.4,0,0,0-.24-1.03.839.839,0,0,0-.565-.537.369.369,0,0,0-.42.214c-.052.119-.022.2-.044.208s-.092-.067-.064-.24a.463.463,0,0,1,.154-.266.547.547,0,0,1,.4-.12,1.017,1.017,0,0,1,.78.618,2.454,2.454,0,0,1,.293,1.15,1.881,1.881,0,0,1-.993,1.834.774.774,0,0,1-.667-.087C834.518,4886.413,834.493,4886.32,834.507,4886.313Z" transform="translate(-834.503 -4882.994)" fill="#ff9a6c"/>
                                </g>
                              </g>
                            </g>
                          </g>
                        </g>
                      </g>
                    </g>
                  </g>
                  <g id="Grupo_980289" data-name="Grupo 980289" transform="translate(1.728 5.202)">
                    <g id="Grupo_980288" data-name="Grupo 980288">
                      <g id="Grupo_980275" data-name="Grupo 980275" transform="translate(0 3.438)">
                        <g id="Grupo_980274" data-name="Grupo 980274">
                          <g id="Grupo_980273" data-name="Grupo 980273">
                            <g id="Grupo_980244" data-name="Grupo 980244" transform="translate(0 0.448)">
                              <g id="Grupo_980236" data-name="Grupo 980236" transform="translate(0.297 1.045)">
                                <g id="Grupo_980235" data-name="Grupo 980235">
                                  <g id="Grupo_980234" data-name="Grupo 980234">
                                    <g id="Grupo_980233" data-name="Grupo 980233">
                                      <g id="Grupo_980232" data-name="Grupo 980232">
                                        <g id="Grupo_980231" data-name="Grupo 980231">
                                          <path id="Trazado_654182" data-name="Trazado 654182" d="M811.421,4883.019a.869.869,0,0,0,.9.818.831.831,0,0,0,.841-.842.87.87,0,0,0-.895-.82A.833.833,0,0,0,811.421,4883.019Z" transform="translate(-811.421 -4882.175)" fill="#263238"/>
                                        </g>
                                      </g>
                                    </g>
                                  </g>
                                </g>
                              </g>
                              <g id="Grupo_980243" data-name="Grupo 980243">
                                <g id="Grupo_980242" data-name="Grupo 980242">
                                  <g id="Grupo_980241" data-name="Grupo 980241">
                                    <g id="Grupo_980240" data-name="Grupo 980240">
                                      <g id="Grupo_980239" data-name="Grupo 980239">
                                        <g id="Grupo_980238" data-name="Grupo 980238">
                                          <g id="Grupo_980237" data-name="Grupo 980237">
                                            <path id="Trazado_654183" data-name="Trazado 654183" d="M811.117,4882.078c.115.106.739-.424,1.672-.485s1.648.359,1.742.238c.046-.054-.077-.25-.39-.447a2.38,2.38,0,0,0-1.4-.331,2.284,2.284,0,0,0-1.321.528C811.143,4881.82,811.06,4882.031,811.117,4882.078Z" transform="translate(-811.1 -4881.046)" fill="#263238"/>
                                          </g>
                                        </g>
                                      </g>
                                    </g>
                                  </g>
                                </g>
                              </g>
                            </g>
                            <g id="Grupo_980258" data-name="Grupo 980258" transform="translate(9.183)">
                              <g id="Grupo_980250" data-name="Grupo 980250" transform="translate(0.306 1.152)">
                                <g id="Grupo_980249" data-name="Grupo 980249">
                                  <g id="Grupo_980248" data-name="Grupo 980248">
                                    <g id="Grupo_980247" data-name="Grupo 980247">
                                      <g id="Grupo_980246" data-name="Grupo 980246">
                                        <g id="Grupo_980245" data-name="Grupo 980245">
                                          <path id="Trazado_654184" data-name="Trazado 654184" d="M821.346,4882.649a.869.869,0,0,0,.9.818.832.832,0,0,0,.841-.842.869.869,0,0,0-.895-.818A.831.831,0,0,0,821.346,4882.649Z" transform="translate(-821.346 -4881.807)" fill="#263238"/>
                                        </g>
                                      </g>
                                    </g>
                                  </g>
                                </g>
                              </g>
                              <g id="Grupo_980257" data-name="Grupo 980257">
                                <g id="Grupo_980256" data-name="Grupo 980256">
                                  <g id="Grupo_980255" data-name="Grupo 980255">
                                    <g id="Grupo_980254" data-name="Grupo 980254">
                                      <g id="Grupo_980253" data-name="Grupo 980253">
                                        <g id="Grupo_980252" data-name="Grupo 980252">
                                          <g id="Grupo_980251" data-name="Grupo 980251">
                                            <path id="Trazado_654185" data-name="Trazado 654185" d="M821.032,4881.594c.116.107.74-.423,1.672-.485s1.648.359,1.742.238c.046-.054-.076-.25-.39-.448a2.386,2.386,0,0,0-1.4-.331,2.294,2.294,0,0,0-1.322.528C821.059,4881.337,820.976,4881.548,821.032,4881.594Z" transform="translate(-821.015 -4880.563)" fill="#263238"/>
                                          </g>
                                        </g>
                                      </g>
                                    </g>
                                  </g>
                                </g>
                              </g>
                            </g>
                            <g id="Grupo_980265" data-name="Grupo 980265" transform="translate(3.857 0.378)">
                              <g id="Grupo_980264" data-name="Grupo 980264">
                                <g id="Grupo_980263" data-name="Grupo 980263">
                                  <g id="Grupo_980262" data-name="Grupo 980262">
                                    <g id="Grupo_980261" data-name="Grupo 980261">
                                      <g id="Grupo_980260" data-name="Grupo 980260">
                                        <g id="Grupo_980259" data-name="Grupo 980259">
                                          <path id="Trazado_654186" data-name="Trazado 654186" d="M817.689,4888.773a6.245,6.245,0,0,0-1.534-.17c-.24-.008-.469-.041-.52-.2a1.206,1.206,0,0,1,.111-.717q.276-.887.582-1.862a31.229,31.229,0,0,0,1.26-4.853,31.432,31.432,0,0,0-1.648,4.74c-.192.653-.376,1.275-.551,1.871a1.387,1.387,0,0,0-.06.943.6.6,0,0,0,.415.322,1.677,1.677,0,0,0,.408.029A6.069,6.069,0,0,0,817.689,4888.773Z" transform="translate(-815.265 -4880.97)" fill="#263238"/>
                                        </g>
                                      </g>
                                    </g>
                                  </g>
                                </g>
                              </g>
                            </g>
                            <g id="Grupo_980272" data-name="Grupo 980272" transform="translate(6.266 8.639)">
                              <g id="Grupo_980271" data-name="Grupo 980271">
                                <g id="Grupo_980270" data-name="Grupo 980270">
                                  <g id="Grupo_980269" data-name="Grupo 980269">
                                    <g id="Grupo_980268" data-name="Grupo 980268">
                                      <g id="Grupo_980267" data-name="Grupo 980267">
                                        <g id="Grupo_980266" data-name="Grupo 980266">
                                          <path id="Trazado_654187" data-name="Trazado 654187" d="M820.671,4889.892c-.152,0-.085,1.015-.9,1.792s-1.9.739-1.9.881c-.01.064.254.181.71.162a2.526,2.526,0,0,0,1.591-.679,2.2,2.2,0,0,0,.693-1.5C820.87,4890.125,820.74,4889.882,820.671,4889.892Z" transform="translate(-817.866 -4889.892)" fill="#263238"/>
                                        </g>
                                      </g>
                                    </g>
                                  </g>
                                </g>
                              </g>
                            </g>
                          </g>
                        </g>
                      </g>
                      <g id="Grupo_980281" data-name="Grupo 980281" transform="translate(8.703)">
                        <g id="Grupo_980280" data-name="Grupo 980280">
                          <g id="Grupo_980279" data-name="Grupo 980279">
                            <g id="Grupo_980278" data-name="Grupo 980278">
                              <g id="Grupo_980277" data-name="Grupo 980277">
                                <g id="Grupo_980276" data-name="Grupo 980276">
                                  <path id="Trazado_654188" data-name="Trazado 654188" d="M820.505,4877.681c.109.248,1.033.064,2.136.122,1.1.036,2.01.3,2.139.059.057-.113-.113-.341-.486-.563a3.721,3.721,0,0,0-3.257-.138C820.646,4877.35,820.457,4877.563,820.505,4877.681Z" transform="translate(-820.498 -4876.851)" fill="#263238"/>
                                </g>
                              </g>
                            </g>
                          </g>
                        </g>
                      </g>
                      <g id="Grupo_980287" data-name="Grupo 980287" transform="translate(0.147 1.112)">
                        <g id="Grupo_980286" data-name="Grupo 980286">
                          <g id="Grupo_980285" data-name="Grupo 980285">
                            <g id="Grupo_980284" data-name="Grupo 980284">
                              <g id="Grupo_980283" data-name="Grupo 980283">
                                <g id="Grupo_980282" data-name="Grupo 980282">
                                  <path id="Trazado_654189" data-name="Trazado 654189" d="M811.289,4879.134c.178.2.806-.063,1.578-.126.77-.09,1.437.045,1.572-.187.058-.111-.058-.317-.358-.5a2.29,2.29,0,0,0-2.538.251C811.284,4878.811,811.209,4879.035,811.289,4879.134Z" transform="translate(-811.258 -4878.052)" fill="#263238"/>
                                </g>
                              </g>
                            </g>
                          </g>
                        </g>
                      </g>
                    </g>
                  </g>
                </g>
              </g>
            </g>
          </g>
        </g>
        <g id="Grupo_980295" data-name="Grupo 980295" transform="translate(20.889 15.992)">
          <path id="Trazado_654190" data-name="Trazado 654190" d="M832.947,4877.482c-.046,1.694.121,3.4.074,5.092a5.77,5.77,0,0,1-.481,1.857,1.674,1.674,0,0,1-3.166.229,4.968,4.968,0,0,1-.517-2.149,6.99,6.99,0,0,0-.377-2.187,11.879,11.879,0,0,0-1.4-2.061,2.689,2.689,0,0,1-.55-2.342,12.383,12.383,0,0,1,6.419,1.562" transform="translate(-826.43 -4875.891)" fill="#263238"/>
        </g>
        <g id="Grupo_980296" data-name="Grupo 980296" transform="translate(4.876 11.307)">
          <path id="Trazado_654191" data-name="Trazado 654191" d="M809.24,4877.865l-.1-3.4,9.722-3.627,12.639,2.811.247,3.652A30.54,30.54,0,0,0,809.24,4877.865Z" transform="translate(-809.139 -4870.833)" fill="#455a64"/>
        </g>
        <g id="Grupo_980297" data-name="Grupo 980297" transform="translate(1.621 11.056)">
          <path id="Trazado_654192" data-name="Trazado 654192" d="M809.451,4873.679l-.407.453-3.419,2.484a56.664,56.664,0,0,1,13.834-2.8,66.3,66.3,0,0,1,15.39,1.44l-4.9-2.51h0a8.122,8.122,0,0,0-5.932-2.177l-8.925.43A8.114,8.114,0,0,0,809.451,4873.679Z" transform="translate(-805.624 -4870.562)" fill="#9b5eff"/>
        </g>
        <g id="Grupo_980299" data-name="Grupo 980299" transform="translate(11.4 1.711)">
          <g id="Grupo_980298" data-name="Grupo 980298">
            <path id="Trazado_654193" data-name="Trazado 654193" d="M816.437,4869.976a60.756,60.756,0,0,0-.115-9.506,60.478,60.478,0,0,0,.115,9.506Z" transform="translate(-816.184 -4860.47)" fill="#263238"/>
          </g>
        </g>
        <g id="Grupo_980301" data-name="Grupo 980301" transform="translate(17.123 1.07)">
          <g id="Grupo_980300" data-name="Grupo 980300">
            <path id="Trazado_654194" data-name="Trazado 654194" d="M824.739,4860.148a6.509,6.509,0,0,0-1.7-.37.733.733,0,0,0-.671.715c.021.323.043.656.064,1,.057.713.116,1.47.178,2.265.136,1.605.28,3.058.4,4.107a7.819,7.819,0,0,0,.277,1.694,7.834,7.834,0,0,0-.013-1.712c-.056-1.055-.158-2.511-.294-4.117-.072-.794-.142-1.551-.207-2.264q-.05-.5-.1-.976a.451.451,0,0,1,.388-.451A9.079,9.079,0,0,0,824.739,4860.148Z" transform="translate(-822.363 -4859.778)" fill="#263238"/>
          </g>
        </g>
        <g id="Grupo_980303" data-name="Grupo 980303" transform="translate(1.396 10.666)">
          <g id="Grupo_980302" data-name="Grupo 980302">
            <path id="Trazado_654195" data-name="Trazado 654195" d="M805.381,4876.557c.017.026.4-.2,1.151-.521.37-.167.832-.36,1.346-.644a3.969,3.969,0,0,0,1.491-1.335c.439-.645.467-1.508.956-2.155.45-.685,1.424-.748,2.365-.848,1.91-.208,4.016-.368,6.231-.458s4.331-.108,6.252-.09a3.8,3.8,0,0,1,2.485.646,6.744,6.744,0,0,1,.81.9l.377.453.193.213a.891.891,0,0,0,.274.176c1.371.553,2.487.888,3.252,1.175a12.544,12.544,0,0,0,1.2.413,1.047,1.047,0,0,0-.285-.165c-.194-.095-.482-.226-.858-.383-.744-.327-1.874-.711-3.191-1.279a.632.632,0,0,1-.188-.12l-.182-.209-.361-.453a6.781,6.781,0,0,0-.834-.951,4.074,4.074,0,0,0-2.68-.757c-1.929-.037-4.049-.031-6.273.062s-4.34.262-6.255.49a9.9,9.9,0,0,0-1.413.227,1.989,1.989,0,0,0-1.166.782c-.536.762-.539,1.624-.928,2.2a3.819,3.819,0,0,1-1.372,1.293c-.49.292-.941.5-1.3.692s-.64.342-.823.456A1.162,1.162,0,0,0,805.381,4876.557Z" transform="translate(-805.381 -4870.14)" fill="#263238"/>
          </g>
        </g>
        <g id="Grupo_980305" data-name="Grupo 980305" transform="translate(2.759 14.305)">
          <g id="Grupo_980304" data-name="Grupo 980304">
            <path id="Trazado_654196" data-name="Trazado 654196" d="M806.854,4877.285a.953.953,0,0,0,.256-.148,5.589,5.589,0,0,1,.712-.431,14.5,14.5,0,0,1,2.859-1.084,35.8,35.8,0,0,1,10.038-1.169c1.994.008,3.886-.033,5.6.074,1.7.126,3.252.342,4.526.557.639.113,1.211.241,1.709.373a2.9,2.9,0,0,1,1.174.508,1.184,1.184,0,0,1,.436.957c.008,0,.059-.095.049-.3a1.205,1.205,0,0,0-.388-.769,2.914,2.914,0,0,0-1.214-.6c-.5-.153-1.074-.3-1.716-.433a42.93,42.93,0,0,0-4.553-.64c-1.73-.127-3.633-.1-5.619-.1a33.27,33.27,0,0,0-10.114,1.29,12.716,12.716,0,0,0-2.858,1.212,4.06,4.06,0,0,0-.685.5C806.917,4877.2,806.845,4877.275,806.854,4877.285Z" transform="translate(-806.853 -4874.07)" fill="#263238"/>
          </g>
        </g>
        <g id="Grupo_980307" data-name="Grupo 980307" transform="translate(13.113 0.286)">
          <g id="Grupo_980306" data-name="Grupo 980306">
            <path id="Trazado_654197" data-name="Trazado 654197" d="M818.033,4859.233a5.782,5.782,0,0,0,.931.007l2.242-.089c.872-.024,1.673-.136,2.228-.081a1.085,1.085,0,0,1,.782.4c.006,0-.019-.095-.135-.216a1.128,1.128,0,0,0-.631-.287,16,16,0,0,0-2.251.036l-2.24.132A5.6,5.6,0,0,0,818.033,4859.233Z" transform="translate(-818.033 -4858.932)" fill="#fafafa"/>
          </g>
        </g>
        <g id="Grupo_980309" data-name="Grupo 980309" transform="translate(12.73 11.417)">
          <g id="Grupo_980308" data-name="Grupo 980308">
            <path id="Trazado_654198" data-name="Trazado 654198" d="M817.62,4871.121a2.793,2.793,0,0,0,.47.01l1.281-.019c1.081-.016,2.575-.028,4.223,0l2.324.057a10.691,10.691,0,0,1,1.879.147,1.839,1.839,0,0,1,1.053.634,2.054,2.054,0,0,1,.224.4.888.888,0,0,0-.177-.438,1.843,1.843,0,0,0-1.073-.7,9.951,9.951,0,0,0-1.9-.183c-.715-.032-1.5-.057-2.327-.07-1.651-.025-3.147,0-4.229.046l-1.28.065A2.77,2.77,0,0,0,817.62,4871.121Z" transform="translate(-817.62 -4870.951)" fill="#fafafa"/>
          </g>
        </g>
        <g id="Grupo_980311" data-name="Grupo 980311" transform="translate(16.753 1.422)">
          <g id="Grupo_980310" data-name="Grupo 980310">
            <path id="Trazado_654199" data-name="Trazado 654199" d="M822.817,4868.673a1.515,1.515,0,0,0-.028-.336c-.041-.3-.081-.6-.123-.91-.1-.767-.24-1.828-.355-3s-.187-2.242-.232-3.016c-.019-.311-.037-.613-.055-.915a.17.17,0,1,0-.058,0c0,.216,0,.531.007.919.019.775.075,1.846.189,3.025s.268,2.241.4,3.005c.066.381.124.69.17.9A1.45,1.45,0,0,0,822.817,4868.673Z" transform="translate(-821.964 -4860.158)" fill="#fafafa"/>
          </g>
        </g>
        <g id="Grupo_980313" data-name="Grupo 980313" transform="translate(25.316 13.617)">
          <g id="Grupo_980312" data-name="Grupo 980312">
            <path id="Trazado_654200" data-name="Trazado 654200" d="M831.21,4873.329a1.291,1.291,0,0,0,.292.132l.814.306,2.7.958a11.337,11.337,0,0,1,1.462.56,1.8,1.8,0,0,1,.867.863,1.26,1.26,0,0,1,.078.821c-.057.191-.132.281-.12.289a.658.658,0,0,0,.176-.271,1.263,1.263,0,0,0-.036-.878,1.859,1.859,0,0,0-.9-.944,10.168,10.168,0,0,0-1.479-.582l-2.719-.916-.829-.261A1.388,1.388,0,0,0,831.21,4873.329Z" transform="translate(-831.21 -4873.327)" fill="#fafafa"/>
          </g>
        </g>
      </g>
      <g id="Grupo_980380" data-name="Grupo 980380" transform="translate(2.927 42.797)">
        <g id="Grupo_980339" data-name="Grupo 980339" transform="translate(0 66.344)">
          <g id="Grupo_980334" data-name="Grupo 980334" transform="translate(0 69.657)">
            <g id="Grupo_980328" data-name="Grupo 980328">
              <g id="Grupo_980315" data-name="Grupo 980315" transform="translate(0.015)">
                <path id="Trazado_654201" data-name="Trazado 654201" d="M756.162,5052.02l.838,15.033s-15,5.9-15.115,8.694l29.207-.579-.345-23.477Z" transform="translate(-741.886 -5051.691)" fill="#9b5eff"/>
              </g>
              <g id="Grupo_980316" data-name="Grupo 980316" transform="translate(0.015)" opacity="0.4">
                <path id="Trazado_654202" data-name="Trazado 654202" d="M756.162,5052.02l.838,15.033s-15,5.9-15.115,8.694l29.207-.579-.345-23.477Z" transform="translate(-741.886 -5051.691)"/>
              </g>
              <g id="Grupo_980318" data-name="Grupo 980318" transform="translate(22.729 13.872)">
                <g id="Grupo_980317" data-name="Grupo 980317">
                  <path id="Trazado_654203" data-name="Trazado 654203" d="M767.82,5066.715a1.193,1.193,0,0,1,.851,1.346,1.147,1.147,0,0,1-1.325.856,1.26,1.26,0,0,1-.895-1.429,1.19,1.19,0,0,1,1.478-.737" transform="translate(-766.413 -5066.671)" fill="#e0e0e0"/>
                </g>
              </g>
              <g id="Grupo_980319" data-name="Grupo 980319" transform="translate(0 21.112)">
                <path id="Trazado_654204" data-name="Trazado 654204" d="M771.092,5076.854l-.128-2.366-27.955,1.439s-1.289.591-1.124,1.5Z" transform="translate(-741.87 -5074.488)" fill="#e0e0e0"/>
              </g>
              <g id="Grupo_980321" data-name="Grupo 980321" transform="translate(14.652 15.081)">
                <g id="Grupo_980320" data-name="Grupo 980320">
                  <path id="Trazado_654205" data-name="Trazado 654205" d="M757.693,5068.118c.007.143.721.193,1.433.638.722.426,1.1,1.036,1.226.977.131-.031-.1-.879-.969-1.4S757.659,5067.987,757.693,5068.118Z" transform="translate(-757.692 -5067.976)" fill="#263238"/>
                </g>
              </g>
              <g id="Grupo_980323" data-name="Grupo 980323" transform="translate(11.614 16.489)">
                <g id="Grupo_980322" data-name="Grupo 980322">
                  <path id="Trazado_654206" data-name="Trazado 654206" d="M754.412,5069.557c-.031.139.593.37,1.089.963.513.579.648,1.229.79,1.219.135.021.217-.817-.414-1.543S754.412,5069.422,754.412,5069.557Z" transform="translate(-754.411 -5069.497)" fill="#263238"/>
                </g>
              </g>
              <g id="Grupo_980325" data-name="Grupo 980325" transform="translate(8.758 17.811)">
                <g id="Grupo_980324" data-name="Grupo 980324">
                  <path id="Trazado_654207" data-name="Trazado 654207" d="M752.517,5073.364c.13.028.314-.689-.068-1.462s-1.055-1.071-1.113-.952c-.078.119.363.529.667,1.169S752.374,5073.353,752.517,5073.364Z" transform="translate(-751.327 -5070.924)" fill="#263238"/>
                </g>
              </g>
              <g id="Grupo_980327" data-name="Grupo 980327" transform="translate(14.837 11.234)">
                <g id="Grupo_980326" data-name="Grupo 980326">
                  <path id="Trazado_654208" data-name="Trazado 654208" d="M757.9,5064.364c.062.128.712-.082,1.52-.043.807.022,1.441.281,1.512.157.081-.1-.542-.621-1.494-.652S757.824,5064.253,757.9,5064.364Z" transform="translate(-757.891 -5063.823)" fill="#263238"/>
                </g>
              </g>
            </g>
            <g id="Grupo_980329" data-name="Grupo 980329" transform="translate(14.46 3.154)" opacity="0.3">
              <path id="Trazado_654209" data-name="Trazado 654209" d="M757.485,5055.249l.146,2.679,14.352-.415-.03-2.416Z" transform="translate(-757.485 -5055.097)"/>
            </g>
            <g id="Grupo_980331" data-name="Grupo 980331" transform="translate(14.728 6.313)">
              <g id="Grupo_980330" data-name="Grupo 980330">
                <path id="Trazado_654210" data-name="Trazado 654210" d="M757.774,5060.934a2.742,2.742,0,0,0,1.463-.036,6.6,6.6,0,0,0,1.521-.5,6.819,6.819,0,0,0,.832-.463,1.767,1.767,0,0,0,.434-.353.62.62,0,0,0,.051-.759.785.785,0,0,0-.632-.314,1.955,1.955,0,0,0-.547.086,5.356,5.356,0,0,0-.9.331,5.17,5.17,0,0,0-1.332.912c-.665.641-.885,1.178-.836,1.205.066.045.386-.407,1.066-.939a5.813,5.813,0,0,1,1.29-.761,5.43,5.43,0,0,1,.834-.275c.307-.088.571-.1.653.041.03.052.034.073-.029.165a1.484,1.484,0,0,1-.319.257,7.842,7.842,0,0,1-.764.457,8.079,8.079,0,0,1-1.4.57A10.248,10.248,0,0,0,757.774,5060.934Z" transform="translate(-757.774 -5058.508)" fill="#263238"/>
              </g>
            </g>
            <g id="Grupo_980333" data-name="Grupo 980333" transform="translate(12.936 4.321)">
              <g id="Grupo_980332" data-name="Grupo 980332">
                <path id="Trazado_654211" data-name="Trazado 654211" d="M757.821,5060.977a2.331,2.331,0,0,0,.358-1.421,4.773,4.773,0,0,0-.232-1.6,4.876,4.876,0,0,0-.39-.881,1.21,1.21,0,0,0-.948-.719.682.682,0,0,0-.6.419,1.942,1.942,0,0,0-.14.54,3.225,3.225,0,0,0,.018.984,3.354,3.354,0,0,0,.655,1.5c.585.745,1.184.9,1.195.855.046-.073-.456-.338-.907-1.057a3.369,3.369,0,0,1-.491-1.366,3.05,3.05,0,0,1,.01-.845c.04-.312.151-.564.269-.534.144-.005.4.223.52.468a4.881,4.881,0,0,1,.379.787,5.314,5.314,0,0,1,.312,1.454C757.885,5060.419,757.743,5060.956,757.821,5060.977Z" transform="translate(-755.838 -5056.358)" fill="#263238"/>
              </g>
            </g>
          </g>
          <g id="Grupo_980338" data-name="Grupo 980338" transform="translate(4.819)">
            <g id="Grupo_980337" data-name="Grupo 980337">
              <g id="Grupo_980336" data-name="Grupo 980336">
                <g id="Grupo_980335" data-name="Grupo 980335">
                  <path id="Trazado_654212" data-name="Trazado 654212" d="M835.4,4982.589s-3.192,16.366-8.493,16.6c-6.5.285-53.578.928-53.578.928l2.868,52.431-20.546-.5-8.211-51.663a19.792,19.792,0,0,1,2.185-13.562c.056-.1.112-.193.168-.289a19.731,19.731,0,0,1,16.81-9.474l39.1-.587Z" transform="translate(-747.073 -4976.475)" fill="#263238"/>
                </g>
              </g>
            </g>
          </g>
        </g>
        <g id="Grupo_980378" data-name="Grupo 980378" transform="translate(7.984)">
          <g id="Grupo_980358" data-name="Grupo 980358" transform="translate(0 136.001)">
            <g id="Grupo_980352" data-name="Grupo 980352">
              <g id="Grupo_980340" data-name="Grupo 980340" transform="translate(0.015)">
                <path id="Trazado_654213" data-name="Trazado 654213" d="M764.783,5052.02l.839,15.033s-15,5.9-15.115,8.694l29.206-.579-.345-23.477Z" transform="translate(-750.507 -5051.691)" fill="#9b5eff"/>
              </g>
              <g id="Grupo_980342" data-name="Grupo 980342" transform="translate(22.729 13.872)">
                <g id="Grupo_980341" data-name="Grupo 980341">
                  <path id="Trazado_654214" data-name="Trazado 654214" d="M776.44,5066.715a1.194,1.194,0,0,1,.852,1.346,1.147,1.147,0,0,1-1.325.856,1.26,1.26,0,0,1-.895-1.429,1.189,1.189,0,0,1,1.477-.737" transform="translate(-775.034 -5066.671)" fill="#e0e0e0"/>
                </g>
              </g>
              <g id="Grupo_980343" data-name="Grupo 980343" transform="translate(0 21.112)">
                <path id="Trazado_654215" data-name="Trazado 654215" d="M779.712,5076.854l-.127-2.366-27.955,1.439s-1.289.591-1.124,1.5Z" transform="translate(-750.491 -5074.488)" fill="#e0e0e0"/>
              </g>
              <g id="Grupo_980345" data-name="Grupo 980345" transform="translate(14.651 15.081)">
                <g id="Grupo_980344" data-name="Grupo 980344">
                  <path id="Trazado_654216" data-name="Trazado 654216" d="M766.313,5068.118c.007.143.722.193,1.433.638.723.426,1.1,1.036,1.227.977.131-.031-.1-.879-.969-1.4S766.28,5067.987,766.313,5068.118Z" transform="translate(-766.312 -5067.976)" fill="#263238"/>
                </g>
              </g>
              <g id="Grupo_980347" data-name="Grupo 980347" transform="translate(11.614 16.489)">
                <g id="Grupo_980346" data-name="Grupo 980346">
                  <path id="Trazado_654217" data-name="Trazado 654217" d="M763.033,5069.557c-.031.139.592.37,1.088.963.514.579.649,1.229.791,1.219.134.021.217-.817-.414-1.543S763.033,5069.422,763.033,5069.557Z" transform="translate(-763.032 -5069.497)" fill="#263238"/>
                </g>
              </g>
              <g id="Grupo_980349" data-name="Grupo 980349" transform="translate(8.758 17.811)">
                <g id="Grupo_980348" data-name="Grupo 980348">
                  <path id="Trazado_654218" data-name="Trazado 654218" d="M761.137,5073.364c.131.028.315-.689-.067-1.462s-1.055-1.071-1.113-.952c-.078.119.363.529.667,1.169S761,5073.353,761.137,5073.364Z" transform="translate(-759.948 -5070.924)" fill="#263238"/>
                </g>
              </g>
              <g id="Grupo_980351" data-name="Grupo 980351" transform="translate(14.836 11.234)">
                <g id="Grupo_980350" data-name="Grupo 980350">
                  <path id="Trazado_654219" data-name="Trazado 654219" d="M766.517,5064.364c.063.128.713-.082,1.521-.043.808.022,1.44.281,1.512.157.081-.1-.543-.621-1.494-.652S766.444,5064.253,766.517,5064.364Z" transform="translate(-766.511 -5063.823)" fill="#263238"/>
                </g>
              </g>
            </g>
            <g id="Grupo_980353" data-name="Grupo 980353" transform="translate(14.46 3.154)" opacity="0.3">
              <path id="Trazado_654220" data-name="Trazado 654220" d="M766.106,5055.249l.146,2.679,14.352-.415-.029-2.416Z" transform="translate(-766.106 -5055.097)"/>
            </g>
            <g id="Grupo_980355" data-name="Grupo 980355" transform="translate(14.728 6.313)">
              <g id="Grupo_980354" data-name="Grupo 980354">
                <path id="Trazado_654221" data-name="Trazado 654221" d="M766.4,5060.934a2.741,2.741,0,0,0,1.463-.036,6.6,6.6,0,0,0,1.521-.5,6.809,6.809,0,0,0,.831-.463,1.771,1.771,0,0,0,.435-.353.622.622,0,0,0,.05-.759.783.783,0,0,0-.631-.314,1.956,1.956,0,0,0-.547.086,5.3,5.3,0,0,0-.9.331,5.153,5.153,0,0,0-1.332.912c-.665.641-.885,1.178-.836,1.205.066.045.386-.407,1.066-.939a5.8,5.8,0,0,1,1.289-.761,5.408,5.408,0,0,1,.835-.275c.307-.088.57-.1.653.041.03.052.034.073-.029.165a1.47,1.47,0,0,1-.32.257,7.734,7.734,0,0,1-.764.457,8.071,8.071,0,0,1-1.4.57A10.242,10.242,0,0,0,766.4,5060.934Z" transform="translate(-766.395 -5058.508)" fill="#263238"/>
              </g>
            </g>
            <g id="Grupo_980357" data-name="Grupo 980357" transform="translate(12.936 4.321)">
              <g id="Grupo_980356" data-name="Grupo 980356">
                <path id="Trazado_654222" data-name="Trazado 654222" d="M766.442,5060.977a2.326,2.326,0,0,0,.358-1.421,4.745,4.745,0,0,0-.231-1.6,4.822,4.822,0,0,0-.391-.881,1.209,1.209,0,0,0-.947-.719.684.684,0,0,0-.6.419,1.97,1.97,0,0,0-.139.54,3.227,3.227,0,0,0,.018.984,3.363,3.363,0,0,0,.654,1.5c.586.745,1.184.9,1.2.855.046-.073-.457-.338-.908-1.057a3.368,3.368,0,0,1-.49-1.366,3.011,3.011,0,0,1,.01-.845c.04-.312.151-.564.268-.534.145-.005.4.223.521.468a4.794,4.794,0,0,1,.378.787,5.247,5.247,0,0,1,.312,1.454C766.506,5060.419,766.364,5060.956,766.442,5060.977Z" transform="translate(-764.459 -5056.358)" fill="#263238"/>
              </g>
            </g>
          </g>
          <g id="Grupo_980362" data-name="Grupo 980362" transform="translate(2.022 66.344)">
            <g id="Grupo_980361" data-name="Grupo 980361">
              <g id="Grupo_980360" data-name="Grupo 980360">
                <g id="Grupo_980359" data-name="Grupo 980359">
                  <path id="Trazado_654223" data-name="Trazado 654223" d="M841,4982.589s-3.191,16.366-8.492,16.6c-6.5.285-53.579.928-53.579.928l2.869,52.431-20.547-.5-8.211-51.663a19.787,19.787,0,0,1,2.186-13.562c.055-.1.111-.193.168-.289a19.732,19.732,0,0,1,16.811-9.474l39.1-.587Z" transform="translate(-752.674 -4976.475)" fill="#263238"/>
                </g>
              </g>
            </g>
          </g>
          <g id="Grupo_980364" data-name="Grupo 980364" transform="translate(50.285)">
            <g id="Grupo_980363" data-name="Grupo 980363">
              <path id="Trazado_654224" data-name="Trazado 654224" d="M804.79,4911.554l6.153,41.191-4.191,18.5,38.1,11.216c3.44-4.921,3.575-20.568,3.454-31.634-.213-19.5.646-20.448-.194-27.289-.83-6.759-2.283-11.24-5.9-13.39l-10.337-5.317s-5.86,3.729-9.418,3.526c0,0-4.235.174-6.583-2.074C815.879,4906.289,807.322,4908.884,804.79,4911.554Z" transform="translate(-804.79 -4904.836)" fill="#9b5eff"/>
            </g>
          </g>
          <path id="Trazado_654225" data-name="Trazado 654225" d="M803.776,4912.09l-12.7,17.5,17.291,10.15-1.321-6.364Z" transform="translate(-753.491 -4905.372)" fill="#9b5eff"/>
          <g id="Grupo_980365" data-name="Grupo 980365" transform="translate(2.024 67.168)">
            <path id="Trazado_654226" data-name="Trazado 654226" d="M770.678,4977.385a.766.766,0,0,1-.219.033l-.643.05a9.7,9.7,0,0,0-1.039.121,12.915,12.915,0,0,0-1.4.264,18.289,18.289,0,0,0-7.926,4.2,20.913,20.913,0,0,0-3.956,4.805,16.293,16.293,0,0,0-2.232,6.728,32.492,32.492,0,0,0,.3,7.916c.374,2.738.911,5.571,1.208,8.507.657,5.84,1.539,11.376,2.365,16.4.849,5.017,1.614,9.539,2.26,13.354s1.132,6.885,1.437,9.02q.213,1.556.336,2.461c.03.258.054.468.074.642a.112.112,0,1,1-.049.008c-.032-.171-.072-.38-.121-.635q-.156-.9-.425-2.446l-1.588-8.992c-.674-3.81-1.474-8.327-2.362-13.339-.85-5.028-1.747-10.568-2.405-16.426-.3-2.919-.827-5.737-1.2-8.5a32.609,32.609,0,0,1-.271-8.028,16.635,16.635,0,0,1,2.33-6.883,21.05,21.05,0,0,1,4.074-4.857,18.065,18.065,0,0,1,8.112-4.129A12.119,12.119,0,0,1,770.678,4977.385Z" transform="translate(-752.677 -4977.364)" fill="#455a64"/>
          </g>
          <g id="Grupo_980377" data-name="Grupo 980377" transform="translate(15.064 8.079)">
            <g id="Grupo_980373" data-name="Grupo 980373" transform="translate(0 18.063)">
              <path id="Trazado_654227" data-name="Trazado 654227" d="M787.547,4961.391s14.694,4.747,26.124,8.886a12.518,12.518,0,0,0,11.7-1.7h0a12.519,12.519,0,0,0,4.493-6.281l7.825-24.654-13.065-4.573-8.737,22.161-32.5-4.274" transform="translate(-767.987 -4933.064)" fill="#ffbf9d"/>
              <g id="Grupo_980372" data-name="Grupo 980372" transform="translate(0 16.563)">
                <path id="Trazado_654228" data-name="Trazado 654228" d="M766.88,4957.627l-.122-1.166a3.977,3.977,0,0,1,1.022-2.319h0a3.976,3.976,0,0,1,1.1-.848l3.851-2a3.007,3.007,0,0,1,1.894-.3l7.886,1.34,9.041,1.188-1.871,10.291-4.181-1.388s-3.034,1.679-4.9,1.28c0,0-1.733,1.155-2.443.311,0,0-1.554,1.333-2.132,1.244s-1.732-.755-1.687-1.155l.044-.532a1.892,1.892,0,0,1-1.911-.089,2.734,2.734,0,0,1-.888-1.2,3.593,3.593,0,0,1-1.954-.844,4.476,4.476,0,0,1-.71-1.777S767.166,4958.833,766.88,4957.627Z" transform="translate(-766.758 -4950.95)" fill="#ffbf9d"/>
                <g id="Grupo_980366" data-name="Grupo 980366" transform="translate(2.07 2.948)">
                  <path id="Trazado_654229" data-name="Trazado 654229" d="M772.856,4954.134c.056,0,.151.421-.043,1.075a5.579,5.579,0,0,1-1.392,2.165c-.693.711-1.337,1.3-1.738,1.779s-.608.815-.674.785.039-.432.4-.99a13.407,13.407,0,0,1,1.663-1.908,7.185,7.185,0,0,0,1.421-1.95C772.747,4954.53,772.78,4954.132,772.856,4954.134Z" transform="translate(-768.994 -4954.134)" fill="#ff9a6c"/>
                </g>
                <g id="Grupo_980367" data-name="Grupo 980367" transform="translate(4.694 7.063)">
                  <path id="Trazado_654230" data-name="Trazado 654230" d="M774.566,4958.579a5.139,5.139,0,0,1-1.028,2.322c-.765,1.185-1.606,1.972-1.7,1.885a39.029,39.029,0,0,1,2.729-4.207Z" transform="translate(-771.826 -4958.576)" fill="#ff9a6c"/>
                </g>
                <g id="Grupo_980368" data-name="Grupo 980368" transform="translate(7.563 9.783)">
                  <path id="Trazado_654231" data-name="Trazado 654231" d="M776.81,4961.521c.111.072-.217.746-.733,1.5s-1.023,1.311-1.132,1.233.219-.75.734-1.5S776.7,4961.447,776.81,4961.521Z" transform="translate(-774.925 -4961.514)" fill="#ff9a6c"/>
                </g>
                <g id="Grupo_980369" data-name="Grupo 980369" transform="translate(8.03 6.444)">
                  <path id="Trazado_654232" data-name="Trazado 654232" d="M776.476,4960.17c-.022.058-.2.064-.445-.082a1.329,1.329,0,0,1-.31-1.946c.182-.214.357-.265.4-.217.088.095-.3.563-.2,1.183S776.53,4960.055,776.476,4960.17Z" transform="translate(-775.429 -4957.909)" fill="#ff9a6c"/>
                </g>
                <g id="Grupo_980370" data-name="Grupo 980370" transform="translate(10.353 9.742)">
                  <path id="Trazado_654233" data-name="Trazado 654233" d="M778.858,4963.2c-.023.058-.174.072-.375-.041a1.123,1.123,0,0,1-.515-.712.856.856,0,0,1,.247-.9c.24-.159.426-.048.4.012a.735.735,0,0,0-.181.772C778.543,4962.808,778.907,4963.08,778.858,4963.2Z" transform="translate(-777.937 -4961.469)" fill="#ff9a6c"/>
                </g>
                <g id="Grupo_980371" data-name="Grupo 980371" transform="translate(6.647 3.564)">
                  <path id="Trazado_654234" data-name="Trazado 654234" d="M775.087,4956.994c-.007.06-.2.109-.482-.02a1.192,1.192,0,0,1-.189-2.029c.252-.179.453-.166.47-.109.053.1-.52.475-.467,1.132C774.489,4956.624,775.119,4956.883,775.087,4956.994Z" transform="translate(-773.935 -4954.798)" fill="#ff9a6c"/>
                </g>
              </g>
            </g>
            <g id="Grupo_980375" data-name="Grupo 980375" transform="translate(52.546)">
              <path id="Trazado_654235" data-name="Trazado 654235" d="M840.748,4914.165c-2.982-1.3-6.657.011-8.815,2.254s-3.147,5.215-4.079,8.091c-.9,2.771-3.128,8.4-4.027,11.167l16.941,7.253q2.162-5.869,4.039-11.827c1.052-3.336,2.032-6.933.811-10.248" transform="translate(-823.522 -4913.566)" fill="#9b5eff"/>
              <g id="Grupo_980374" data-name="Grupo 980374">
                <path id="Trazado_654236" data-name="Trazado 654236" d="M845.593,4920.849a1.877,1.877,0,0,1,.175.408,7.2,7.2,0,0,1,.33,1.233,12.688,12.688,0,0,1-.12,4.74,53.189,53.189,0,0,1-2.048,6.981c-.893,2.648-1.889,5.6-2.962,8.785l-.078.23-.246-.106-11.923-5.09-5.022-2.153-.2-.086.065-.19c1.366-4.032,2.9-7.735,4.049-11.142a35.567,35.567,0,0,1,1.842-4.785,12.593,12.593,0,0,1,2.644-3.669,8.954,8.954,0,0,1,6.208-2.44,6.6,6.6,0,0,1,1.835.331,3.161,3.161,0,0,1,.583.262,8.137,8.137,0,0,0-2.419-.427,8.841,8.841,0,0,0-5.968,2.489,12.379,12.379,0,0,0-2.523,3.606,35.948,35.948,0,0,0-1.777,4.754c-1.126,3.435-2.646,7.147-3.993,11.156l-.137-.276,5.024,2.148c4.2,1.806,8.23,3.535,11.911,5.116l-.324.125c1.1-3.169,2.115-6.112,3.027-8.75a56.9,56.9,0,0,0,2.145-6.922,13.266,13.266,0,0,0,.254-4.669C845.781,4921.424,845.553,4920.859,845.593,4920.849Z" transform="translate(-823.498 -4913.56)" fill="#263238"/>
              </g>
            </g>
            <g id="Grupo_980376" data-name="Grupo 980376" transform="translate(1.679 34.561)">
              <path id="Trazado_654237" data-name="Trazado 654237" d="M819.83,4964.993c-.062.013-.193-.966-.767-2.619a12.915,12.915,0,0,0-1.393-2.838,8.35,8.35,0,0,0-2.949-2.826l.05.014-18.351-2.386-11.063-1.492-4.824-.67-4.192-.668-1.827-.3a2.286,2.286,0,0,0-1.507.271l-2.38,1.15-1.513.709a2.664,2.664,0,0,1-.543.218,2.736,2.736,0,0,1,.5-.306l1.472-.79,2.343-1.223a2.552,2.552,0,0,1,1.674-.333l1.831.261,4.2.611,4.83.625,11.067,1.455,18.334,2.5.032,0,.018.01a8.5,8.5,0,0,1,3.047,3,12.486,12.486,0,0,1,1.341,2.932,13.4,13.4,0,0,1,.482,1.979A3.58,3.58,0,0,1,819.83,4964.993Z" transform="translate(-768.571 -4950.879)" fill="#ff9a6c"/>
            </g>
          </g>
        </g>
        <g id="Grupo_980379" data-name="Grupo 980379" transform="translate(58.906 13.289)">
          <path id="Trazado_654238" data-name="Trazado 654238" d="M811.016,4953.19a7.312,7.312,0,0,1-.255-1.333l-.582-3.644c-.522-3.158-1.218-7.364-1.987-12.014s-1.47-8.858-1.994-12.018c-.229-1.475-.42-2.7-.566-3.648a7.317,7.317,0,0,1-.145-1.348,7.278,7.278,0,0,1,.33,1.316c.186.941.428,2.159.718,3.624.582,3.064,1.346,7.3,2.134,12s1.44,8.951,1.849,12.042c.208,1.545.348,2.8.43,3.669A7.428,7.428,0,0,1,811.016,4953.19Z" transform="translate(-805.478 -4919.185)" fill="#263238"/>
        </g>
      </g>
    </g>
    <g id="Grupo_980382" data-name="Grupo 980382" transform="translate(354.463 5146.368)">
      <path id="Trazado_654239" data-name="Trazado 654239" d="M953.2,5174.747c0,.133-134.043.241-299.354.241-165.368,0-299.382-.108-299.382-.241s134.014-.241,299.382-.241C819.161,5174.506,953.2,5174.614,953.2,5174.747Z" transform="translate(-354.468 -5174.506)" fill="#263238"/>
    </g>
    <g id="Grupo_980393" data-name="Grupo 980393" transform="translate(354.407 5094.337)">
      <g id="Grupo_980383" data-name="Grupo 980383" transform="translate(8.816)">
        <path id="Trazado_654240" data-name="Trazado 654240" d="M373.131,5139.713c-1.488,2.008-4.254,1.256-5.512-.027a10.418,10.418,0,0,1-2.206-4.849c-1.029-3.975-2.062-8.143-1.11-12.138a6.725,6.725,0,0,1,1.633-3.249,3.515,3.515,0,0,1,3.358-1.018c1.395.408,2.23,1.807,2.826,3.132a28.845,28.845,0,0,1,2.519,12.454,10.015,10.015,0,0,1-1.507,5.694" transform="translate(-363.927 -5118.322)" fill="#9b5eff"/>
      </g>
      <g id="Grupo_980384" data-name="Grupo 980384" transform="translate(8.816)" opacity="0.2">
        <path id="Trazado_654241" data-name="Trazado 654241" d="M373.131,5139.713c-1.488,2.008-4.254,1.256-5.512-.027a10.418,10.418,0,0,1-2.206-4.849c-1.029-3.975-2.062-8.143-1.11-12.138a6.725,6.725,0,0,1,1.633-3.249,3.515,3.515,0,0,1,3.358-1.018c1.395.408,2.23,1.807,2.826,3.132a28.845,28.845,0,0,1,2.519,12.454,10.015,10.015,0,0,1-1.507,5.694" transform="translate(-363.927 -5118.322)"/>
      </g>
      <g id="Grupo_980385" data-name="Grupo 980385" transform="translate(0 30.314)">
        <path id="Trazado_654242" data-name="Trazado 654242" d="M366.781,5152.353a12.424,12.424,0,0,0-7.679-1.143,6.4,6.4,0,0,0-3.851,1.6,2.738,2.738,0,0,0-.142,3.8,3.645,3.645,0,0,0,2.383.673c2.037.031,4.307-.268,5.9,1,.909.724,1.5,1.9,2.6,2.276a2.624,2.624,0,0,0,2.921-1.208,4.486,4.486,0,0,0,.416-3.3A5.056,5.056,0,0,0,366.781,5152.353Z" transform="translate(-354.407 -5151.056)" fill="#9b5eff"/>
      </g>
      <g id="Grupo_980386" data-name="Grupo 980386" transform="translate(20.481 7.174)">
        <path id="Trazado_654243" data-name="Trazado 654243" d="M377.918,5143.328a7.449,7.449,0,0,1-.974-6.884,13.2,13.2,0,0,1,4.216-5.778,21.862,21.862,0,0,1,7.383-4.094,7.778,7.778,0,0,1,3.283-.468,3.433,3.433,0,0,1,2.7,1.734c.726,1.479-.055,3.228-.887,4.651a55.315,55.315,0,0,1-4.968,7.141,12.923,12.923,0,0,1-5.37,4.357c-2.2.775-4.466.616-5.581-.927" transform="translate(-376.523 -5126.068)" fill="#9b5eff"/>
      </g>
      <g id="Grupo_980388" data-name="Grupo 980388" transform="translate(7.1 33.166)">
        <g id="Grupo_980387" data-name="Grupo 980387">
          <path id="Trazado_654244" data-name="Trazado 654244" d="M372.264,5173.233a4.409,4.409,0,0,1-.1-.933c-.048-.679-.108-1.531-.18-2.544a36.508,36.508,0,0,0-.47-3.738,28.84,28.84,0,0,0-1.235-4.43,16.222,16.222,0,0,0-2.137-4.035,8.386,8.386,0,0,0-2.774-2.434,7.947,7.947,0,0,0-2.368-.809,4.414,4.414,0,0,1-.922-.159,4.327,4.327,0,0,1,.942.01,7.254,7.254,0,0,1,2.474.716,8.353,8.353,0,0,1,2.928,2.458,15.838,15.838,0,0,1,2.217,4.118,26.848,26.848,0,0,1,1.223,4.5,31.58,31.58,0,0,1,.394,3.783c.052,1.08.058,1.953.057,2.557A4.4,4.4,0,0,1,372.264,5173.233Z" transform="translate(-362.073 -5154.135)" fill="#263238"/>
        </g>
      </g>
      <g id="Grupo_980390" data-name="Grupo 980390" transform="translate(13.538 8.231)">
        <g id="Grupo_980389" data-name="Grupo 980389">
          <path id="Trazado_654245" data-name="Trazado 654245" d="M372.654,5169.286a1.83,1.83,0,0,1-.013-.432c.009-.324.021-.732.036-1.234.031-1.071.073-2.62.067-4.535.008-3.83-.18-9.122-.66-14.946s-1.2-11.073-1.869-14.842c-.158-.945-.32-1.8-.473-2.541s-.27-1.39-.393-1.912c-.1-.491-.189-.89-.257-1.208a1.874,1.874,0,0,1-.064-.428,1.83,1.83,0,0,1,.139.409c.086.313.195.708.327,1.192.145.517.291,1.157.457,1.9s.355,1.591.531,2.535a140.17,140.17,0,0,1,1.985,14.861c.482,5.835.627,11.142.549,14.979-.029,1.919-.111,3.471-.189,4.542-.044.5-.08.908-.108,1.231A1.753,1.753,0,0,1,372.654,5169.286Z" transform="translate(-369.025 -5127.21)" fill="#263238"/>
        </g>
      </g>
      <g id="Grupo_980392" data-name="Grupo 980392" transform="translate(17.404 11.849)">
        <g id="Grupo_980391" data-name="Grupo 980391">
          <path id="Trazado_654246" data-name="Trazado 654246" d="M373.212,5159.354a8.091,8.091,0,0,1,.044-1.288c.069-.826.215-2.021.488-3.481a46.034,46.034,0,0,1,1.272-5.058,45.046,45.046,0,0,1,2.288-5.963,32.077,32.077,0,0,1,6.509-9.562,15.884,15.884,0,0,1,1.507-1.327c.231-.185.434-.369.642-.515l.581-.378a8.3,8.3,0,0,1,1.1-.665A38.716,38.716,0,0,0,384,5134.2a33.814,33.814,0,0,0-6.352,9.53,48.029,48.029,0,0,0-2.3,5.907c-.608,1.854-1.024,3.563-1.344,5s-.491,2.625-.606,3.443A8.307,8.307,0,0,1,373.212,5159.354Z" transform="translate(-373.199 -5131.117)" fill="#263238"/>
        </g>
      </g>
    </g>
  </g>
</svg>
