<svg xmlns="http://www.w3.org/2000/svg" width="106" height="106" viewBox="0 0 106 106">
  <g id="Grupo_980434" data-name="Grupo 980434" transform="translate(-258 -1219)">
    <rect id="Rectángulo_306248" data-name="Rectángulo 306248" width="106" height="106" transform="translate(258 1219)" fill="none"/>
    <g id="out_line" data-name="out line" transform="translate(199.071 1212.024)">
      <path id="Trazado_654310" data-name="Trazado 654310" d="M138.29,33.51l-3.14-10.466V17.451A1.451,1.451,0,0,0,133.7,16H90.159a1.451,1.451,0,0,0-1.451,1.451v5.592L85.568,33.51A131.94,131.94,0,0,0,80,71.447V95.822a1.451,1.451,0,0,0,.992,1.377L98.408,103a1.461,1.461,0,0,0,.459.074h0a1.485,1.485,0,0,0,.19-.015v0L142.6,97.261a1.451,1.451,0,0,0,1.26-1.439V71.447a131.968,131.968,0,0,0-5.571-37.95ZM89.848,90.715l5.466,8.2L84.382,95.269Zm1.763-57.57.36,1.2a129.042,129.042,0,0,1,5.446,37.1V96.834l-5.805-8.708Zm8.164,26.311,40.185-4.018a129.133,129.133,0,0,1,1,16.01V82.942l-40.637,5.418V71.447Q100.318,65.432,99.774,59.456Zm39.793-6.9-40.09,4.009A131.951,131.951,0,0,0,94.751,33.51l-2.641-8.8h11.484l4.044,13.479a1.451,1.451,0,0,0,1.535,1.027l14.513-1.451a1.451,1.451,0,0,0,1.232-1.9L121.2,24.708h11.42l2.891,9.636a129.1,129.1,0,0,1,4.057,18.216ZM118.139,24.708l3.449,10.347-11.516,1.152-3.45-11.5Zm-.405-2.9H106.124V18.9h11.611Zm14.513,0H120.637V18.9h11.611ZM91.611,18.9h11.611v2.9H91.611ZM88.348,34.344l.36-1.2V87.886L82.9,92.724V71.447a129.063,129.063,0,0,1,5.449-37.116Zm11.97,65.626V91.287l40.637-5.418v8.684Z" fill="#faebcd"/>
      <path id="Trazado_654311" data-name="Trazado 654311" d="M218.515,291.915a9.558,9.558,0,0,0,1.337.093,11.458,11.458,0,0,0,5.532-1.5h0a11.266,11.266,0,0,0,4.523-4.52c.05.1.1.2.152.3,1.889,3.508,5.21,5.614,8.324,5.613a6.315,6.315,0,0,0,3.017-.746c3.727-2.008,4.7-7.457,2.177-12.148s-7.614-6.876-11.341-4.868a6.62,6.62,0,0,0-3.086,3.7c-2.493-2.6-7.176-3-11.242-.735-4.654,2.594-6.764,7.713-4.7,11.411A6.966,6.966,0,0,0,218.515,291.915Zm5.456-3.939h0a8.176,8.176,0,0,1-5.05,1.065,4.139,4.139,0,0,1-3.179-1.944,3.378,3.378,0,0,1-.4-1.313l1.85-1.032a4.677,4.677,0,0,1,3.58-.416,7.563,7.563,0,0,0,5.786-.673l1.379-.768a5.374,5.374,0,0,1-.4,1.345A8.175,8.175,0,0,1,223.971,287.976Zm17.051-7.594c1.738,3.226,1.281,6.989-1,8.216a3.375,3.375,0,0,1-1.318.385l-1.005-1.867a4.672,4.672,0,0,1-.365-3.583,7.611,7.611,0,0,0-.589-5.8l-.742-1.379A7.611,7.611,0,0,1,241.022,280.383Zm-9.4-.537a4.4,4.4,0,0,1,1.458-2.794l1.111,2.063a4.707,4.707,0,0,1,.364,3.584,7.55,7.55,0,0,0,.135,4.783,8.82,8.82,0,0,1-2.077-2.571A8.164,8.164,0,0,1,231.624,279.845Zm-12.3-.211a8.569,8.569,0,0,1,4.118-1.115,4.83,4.83,0,0,1,3.744,1.469l-2.043,1.139a4.678,4.678,0,0,1-3.58.417,7.551,7.551,0,0,0-4.779.2A8.82,8.82,0,0,1,219.321,279.635Z" transform="translate(-108.393 -210.698)" fill="#faebcd"/>
    </g>
  </g>
</svg>
