<svg id="Grupo_975380" data-name="Grupo 975380" xmlns="http://www.w3.org/2000/svg" width="190" height="141" viewBox="0 0 190 141">
  <rect id="Rectángulo_305880" data-name="Rectángulo 305880" width="190" height="141" fill="none"/>
  <g id="Send_package" data-name="Send package" transform="translate(34.309 9.815)">
    <path id="Trazado_653550" data-name="Trazado 653550" d="M70.193,44.344a3.891,3.891,0,0,0-1.956.016L37.093,52.7A5.843,5.843,0,0,0,33,56.736L12.115,44.685A5.872,5.872,0,1,0,6.246,54.857L40.921,74.872a3.912,3.912,0,0,0,1.956.524H76.117a3.912,3.912,0,0,0,1.749-.413l7-3.5V48.01Z" transform="translate(0.959 40.061)" fill="#ffbcab"/>
    <path id="Trazado_653551" data-name="Trazado 653551" d="M5,18.649H32.386L36.3,3H12.825Z" transform="translate(2.577 0.956)" fill="#a97c50"/>
    <path id="Trazado_653552" data-name="Trazado 653552" d="M56.3,18.649,48.474,3H25l3.912,15.649Z" transform="translate(21.7 0.956)" fill="#a97c50"/>
    <path id="Trazado_653553" data-name="Trazado 653553" d="M60.649,43H45V78.211H60.649V43Z" transform="translate(40.823 39.203)" fill="#006df0"/>
    <path id="Trazado_653554" data-name="Trazado 653554" d="M53,45H68.649V72.386H53Z" transform="translate(48.472 41.115)" fill="#2488ff"/>
    <path id="Trazado_653555" data-name="Trazado 653555" d="M5,11H75.422V65.773H5Z" transform="translate(2.577 8.605)" fill="#bc9977"/>
    <path id="Trazado_653556" data-name="Trazado 653556" d="M26.825,30.562l7.825,3.912V11H19V34.474Z" transform="translate(15.963 8.605)" fill="#ff9811"/>
    <path id="Trazado_653557" data-name="Trazado 653557" d="M34.649,18.649,30.737,3H22.912L19,18.649Z" transform="translate(15.963 0.956)" fill="#ee8700"/>
    <path id="Trazado_653558" data-name="Trazado 653558" d="M71.51,11V46.211A11.737,11.737,0,0,1,59.773,57.948H5v7.825H75.422V11Z" transform="translate(2.577 8.605)" fill="#b38b63"/>
    <path id="Trazado_653559" data-name="Trazado 653559" d="M53,45h5.868V72.386H53Z" transform="translate(48.472 41.115)" fill="#005ece"/>
    <g id="Grupo_979518" data-name="Grupo 979518" transform="translate(2.305 2)">
      <path id="Trazado_653560" data-name="Trazado 653560" d="M117.122,45.912H103.429V43.956A1.956,1.956,0,0,0,101.472,42H85.823a1.956,1.956,0,0,0-1.956,1.956v3.363L71.629,44.259a5.892,5.892,0,0,0-2.934.025L37.545,52.63a7.754,7.754,0,0,0-4.419,3.187L14.048,44.8A7.829,7.829,0,0,0,6.223,58.365L40.9,78.385a5.868,5.868,0,0,0,2.934.782H77.075a5.9,5.9,0,0,0,2.623-.618l4.169-2.085v2.7a1.956,1.956,0,0,0,1.956,1.956h15.649a1.956,1.956,0,0,0,1.956-1.956V77.211h13.693a1.956,1.956,0,0,0,1.956-1.956V47.868a1.956,1.956,0,0,0-1.956-1.956ZM77.95,75.059a1.988,1.988,0,0,1-.874.2H43.836a1.956,1.956,0,0,1-.978-.262L8.187,54.979a3.926,3.926,0,0,1-1.416-5.35A3.979,3.979,0,0,1,12.1,48.2L31.8,59.576A7.789,7.789,0,0,0,41.6,67.751L64.923,61.5a1.956,1.956,0,1,0-1.011-3.779l-23.329,6.26a3.912,3.912,0,1,1-2.025-7.557L69.7,48.064a1.956,1.956,0,0,1,.978,0l13.185,3.288V72.088Zm21.567,2.152H87.779v-31.3H99.516ZM115.166,73.3H103.429V49.825h11.737Z" transform="translate(-2.305 36.247)" fill="#231f20"/>
      <path id="Trazado_653561" data-name="Trazado 653561" d="M78.139,18.731,70.314,3.082A1.956,1.956,0,0,0,68.553,2H13.781A1.956,1.956,0,0,0,12.03,3.082L4.205,18.731A3.482,3.482,0,0,0,4,19.605V74.378a1.956,1.956,0,0,0,1.956,1.956H76.378a1.956,1.956,0,0,0,1.956-1.956V19.605a3.482,3.482,0,0,0-.2-.874Zm-4.926-1.082h-22.7L47.583,5.912H67.341ZM35.3,21.562H47.036V39.914l-4.994-2.5a1.956,1.956,0,0,0-1.749,0l-4.994,2.5ZM43.552,5.912l2.934,11.737H35.848L38.783,5.912Zm-28.562,0H34.747L31.813,17.649H9.121Zm59.432,66.51H7.912V21.562H31.386V43.079a1.956,1.956,0,0,0,2.831,1.751l6.95-3.476,6.95,3.486a1.956,1.956,0,0,0,2.831-1.761V21.562H74.422Z" transform="translate(-0.685 -2)" fill="#231f20"/>
    </g>
  </g>
</svg>
