<svg xmlns="http://www.w3.org/2000/svg" xmlns:xlink="http://www.w3.org/1999/xlink" width="632.437" height="2074.461" viewBox="0 0 632.437 2074.461">
  <defs>
    <linearGradient id="linear-gradient" x1="0.505" x2="0.503" y2="0.208" gradientUnits="objectBoundingBox">
      <stop offset="0" stop-color="#fff"/>
      <stop offset="1" stop-color="#f9e3b4"/>
    </linearGradient>
    <clipPath id="clip-path">
      <rect id="Rect치ngulo_309600" data-name="Rect치ngulo 309600" width="632" height="234" transform="translate(2474 -6644)" fill="#fff" stroke="#707070" stroke-width="1"/>
    </clipPath>
    <clipPath id="clip-path-2">
      <ellipse id="Elipse_7848" data-name="Elipse 7848" cx="361.443" cy="239.807" rx="361.443" ry="239.807" fill="none"/>
    </clipPath>
  </defs>
  <g id="Grupo_981720" data-name="Grupo 981720" transform="translate(-2474 8045.461)">
    <rect id="Rect치ngulo_308980" data-name="Rect치ngulo 308980" width="625.875" height="2074.461" transform="translate(2480.563 -8045.461)" fill="url(#linear-gradient)"/>
    <g id="Grupo_980469" data-name="Grupo 980469" transform="translate(6.088 -808.716)">
      <g id="Grupo_975407" data-name="Grupo 975407" transform="translate(2913.042 -7212.546)">
        <path id="Trazado_652449" data-name="Trazado 652449" d="M1035.022,1747.373q6.764-2.036,13.409-4.428c1.413-.525,2.84-1.053,4.262-1.593q5.871-2.251,11.645-4.8,1.894-.84,3.774-1.716,4.17-1.917,8.259-4l-.316-.58-.312-.568c-.047.028-.085.039-.133.067q-3.9,1.976-7.858,3.809c-.533.257-1.084.505-1.621.75q-6.831,3.112-13.833,5.788l-1.559.6c-5.221,1.966-10.527,3.755-15.878,5.368-.626.191-1.255.368-1.88.558q-8.356,2.439-16.85,4.284c-.56.13-1.112.243-1.677.361q-7.771,1.653-15.657,2.785c-.722.111-1.459.214-2.189.3-5.505.754-11.054,1.332-16.616,1.7-1.038.085-2.072.142-3.121.191q-7.415.429-14.88.4c-3.4-.021-6.795-.1-10.2-.254l-.028.644-.041.648q5.061.226,10.126.249,6.746.039,13.465-.307c1.588-.077,3.185-.17,4.778-.276q7.206-.487,14.381-1.41c1.51-.189,3-.385,4.5-.6q6.509-.944,12.948-2.232c1.435-.288,2.883-.579,4.31-.891q7.249-1.575,14.388-3.576C1032.092,1748.236,1033.564,1747.8,1035.022,1747.373Z" transform="translate(-928.047 -1724.977)" fill="#a0c433"/>
        <path id="Trazado_652450" data-name="Trazado 652450" d="M938.414,1780.586c.754-.351,1.208-.6,1.293-.637l.009-.016c-.381-.222-.775-.441-1.161-.634-21.015-11.45-33.945-2-33.945-2l.017.008A33.887,33.887,0,0,0,938.414,1780.586Z" transform="translate(-904.61 -1747.631)" fill="#a0c433"/>
        <path id="Trazado_652451" data-name="Trazado 652451" d="M985.4,1785.424s-4.475,18.335-23.4,17.756C962,1803.18,966.611,1787.44,985.4,1785.424Z" transform="translate(-933.159 -1753.708)" fill="#a0c433"/>
        <path id="Trazado_652452" data-name="Trazado 652452" d="M984.26,1769.009l0-.013c-.037-.07-.122-.287-.29-.628-1.417-2.748-7.929-13.562-24.255-14.793,0,0,4.282,12.06,21.133,14.984,1.072.188,2.2.332,3.373.449C984.231,1769,984.248,1769.012,984.26,1769.009Z" transform="translate(-932.02 -1737.29)" fill="#a0c433"/>
        <path id="Trazado_652453" data-name="Trazado 652453" d="M1028.068,1781.287s.3,16.346-17.876,20.1C1010.192,1801.383,1010.847,1784.406,1028.068,1781.287Z" transform="translate(-957.131 -1751.576)" fill="#a0c433"/>
        <path id="Trazado_652454" data-name="Trazado 652454" d="M1024.467,1764.837s-.06-.225-.193-.631c-.9-2.539-5.289-12.092-21.335-14.828,0,0,3.374,12.458,19.146,15.128A23.786,23.786,0,0,0,1024.467,1764.837Z" transform="translate(-953.524 -1735.126)" fill="#a0c433"/>
        <path id="Trazado_652455" data-name="Trazado 652455" d="M1064.953,1774.8s-1.356,17.083-15.374,21.435C1049.579,1796.235,1047.431,1779.294,1064.953,1774.8Z" transform="translate(-976.682 -1748.231)" fill="#a0c433"/>
        <path id="Trazado_652456" data-name="Trazado 652456" d="M1061.3,1759.046l.013,0a6.55,6.55,0,0,0-.18-.635c-.8-2.407-4.666-11.091-18.945-14.175,0,0,2.847,12.049,17.269,14.536C1060.052,1758.884,1060.656,1758.97,1061.3,1759.046Z" transform="translate(-973.046 -1732.473)" fill="#a0c433"/>
        <path id="Trazado_652457" data-name="Trazado 652457" d="M1103.217,1764.705s-2.621,14.463-14.649,19.462C1088.568,1784.167,1086.982,1770.214,1103.217,1764.705Z" transform="translate(-996.098 -1743.027)" fill="#a0c433"/>
        <path id="Trazado_652458" data-name="Trazado 652458" d="M1095.352,1752.154l.013,0s-.1-.214-.3-.584c-1.347-2.444-7.483-11.723-22.318-11.188,0,0,5.741,11.116,20.439,11.747C1093.883,1752.168,1094.612,1752.163,1095.352,1752.154Z" transform="translate(-988.246 -1730.474)" fill="#a0c433"/>
        <path id="Trazado_652459" data-name="Trazado 652459" d="M1139.009,1752.294s.055,16.424-13.813,19.651C1125.2,1771.945,1124.661,1758.336,1139.009,1752.294Z" transform="translate(-1014.338 -1736.629)" fill="#a0c433"/>
        <path id="Trazado_652460" data-name="Trazado 652460" d="M1128.792,1741.719l0-.013c-.046-.054-.178-.243-.41-.524-1.732-2.165-9.123-10.048-23.712-9.358,0,0,8.266,9.956,22.153,9.954.634.01,1.287-.013,1.943-.063C1128.779,1741.724,1128.779,1741.724,1128.792,1741.719Z" transform="translate(-1004.126 -1726.055)" fill="#a0c433"/>
        <path id="Trazado_652461" data-name="Trazado 652461" d="M1172.716,1738.922s2.525,13.816-10.278,19.755A18.539,18.539,0,0,1,1172.716,1738.922Z" transform="translate(-1032.745 -1729.736)" fill="#a0c433"/>
        <path id="Trazado_652462" data-name="Trazado 652462" d="M1162.521,1729.15l.013,0a4.656,4.656,0,0,0-.265-.6c-1.09-2.13-5.84-9.274-20.539-8.538a22.277,22.277,0,0,0,18.918,9.287C1161.258,1729.278,1161.885,1729.223,1162.521,1729.15Z" transform="translate(-1022.564 -1719.961)" fill="#a0c433"/>
        <path id="Trazado_652463" data-name="Trazado 652463" d="M1011.716,1741.64l.013,0c5.925-1.788,11.781-3.785,17.518-6.016.017.009.017.009.026-.008q7.762-2.968,15.3-6.462l.013,0q4.056-1.883,8.038-3.9l-.445-.5q-3.9,1.976-7.858,3.809c-1.09-2.13-5.84-9.274-20.539-8.538a22.278,22.278,0,0,0,18.918,9.287q-6.831,3.112-13.833,5.788c-1.732-2.165-9.123-10.048-23.712-9.358,0,0,8.266,9.956,22.153,9.954-5.221,1.966-10.528,3.755-15.878,5.368-1.347-2.444-7.483-11.723-22.319-11.189,0,0,5.741,11.116,20.438,11.747q-8.356,2.439-16.85,4.284c-.8-2.407-4.666-11.091-18.945-14.175,0,0,2.847,12.05,17.269,14.536q-7.771,1.653-15.657,2.785c-.9-2.539-5.289-12.092-21.335-14.828,0,0,3.374,12.458,19.146,15.128-5.505.754-11.054,1.332-16.616,1.7-1.417-2.748-7.929-13.562-24.254-14.793,0,0,4.282,12.06,21.133,14.984q-7.415.429-14.88.4c-21.015-11.45-33.945-2-33.945-2l.017.008,23.7,2.383q5.7.254,11.378.26c5.721-.008,11.437-.2,17.1-.6l.038-.012,0,.013q9.4-.649,18.678-2l.026-.008q8.735-1.276,17.308-3.139l.013,0Q1002.418,1744.44,1011.716,1741.64Z" transform="translate(-904.61 -1719.961)" fill="#a0c433" style="mix-blend-mode: multiply;isolation: isolate"/>
      </g>
      <g id="Grupo_975408" data-name="Grupo 975408" transform="translate(2474.475 -7178.833)">
        <path id="Trazado_652464" data-name="Trazado 652464" d="M58.85,1827.058q-2.932-6.218-6.217-12.279c-.715-1.287-1.435-2.587-2.167-3.88q-3.044-5.338-6.38-10.547-1.1-1.707-2.233-3.4-2.489-3.752-5.138-7.406l-.558.374-.546.369c.034.042.051.077.086.119q2.516,3.484,4.893,7.046c.33.479.654.974.972,1.458q4.047,6.149,7.669,12.517c.265.465.535.941.806,1.418,2.67,4.751,5.168,9.606,7.49,14.525.273.575.534,1.155.807,1.73q3.545,7.692,6.495,15.589c.2.521.388,1.034.579,1.56q2.662,7.23,4.8,14.633c.2.676.4,1.37.579,2.057,1.457,5.173,2.738,10.41,3.8,15.686.217.982.4,1.963.583,2.962q1.358,7.039,2.251,14.185c.4,3.257.74,6.512,1,9.787l.666-.053.672-.041q-.394-4.871-1-9.718-.795-6.458-1.982-12.844c-.276-1.509-.569-3.026-.875-4.536q-1.393-6.833-3.231-13.583c-.38-1.421-.768-2.825-1.173-4.235q-1.778-6.11-3.9-12.11c-.473-1.337-.952-2.686-1.45-4.013q-2.518-6.739-5.461-13.321C60.1,1829.755,59.472,1828.4,58.85,1827.058Z" transform="translate(-33.766 -1789.548)" fill="#a0c433"/>
        <path id="Trazado_652465" data-name="Trazado 652465" d="M116.61,2007.513c-.454-.678-.764-1.081-.815-1.158l-.018-.006c-.181.392-.357.8-.509,1.189-9.185,21.52,2.14,32.72,2.14,32.72l.007-.017A30.713,30.713,0,0,0,116.61,2007.513Z" transform="translate(-71.603 -1901.313)" fill="#a0c433"/>
        <path id="Trazado_652466" data-name="Trazado 652466" d="M114.415,1972.657s19.427,2.012,21.173,20.19C135.588,1992.847,118.816,1990.386,114.415,1972.657Z" transform="translate(-72.966 -1883.944)" fill="#a0c433"/>
        <path id="Trazado_652467" data-name="Trazado 652467" d="M101.666,1972.666l-.012.005c-.067.044-.281.152-.611.355-2.653,1.7-12.979,9.263-12.226,25.033,0,0,11.884-5.589,12.809-22.07.061-1.049.07-2.145.044-3.282C101.665,1972.695,101.672,1972.677,101.666,1972.666Z" transform="translate(-60.214 -1883.949)" fill="#a0c433"/>
        <path id="Trazado_652468" data-name="Trazado 652468" d="M105.708,1936.149s16.789-2.307,22.9,14.614C128.606,1950.762,111.049,1952.237,105.708,1936.149Z" transform="translate(-68.635 -1865.069)" fill="#a0c433"/>
        <path id="Trazado_652469" data-name="Trazado 652469" d="M92.592,1936.248s-.225.085-.626.262c-2.5,1.176-11.793,6.555-12.624,22.244,0,0,12.406-4.769,13.2-20.187A21.511,21.511,0,0,0,92.592,1936.248Z" transform="translate(-55.52 -1865.175)" fill="#a0c433"/>
        <path id="Trazado_652470" data-name="Trazado 652470" d="M95,1902.826s17.752-.817,23.967,12.055C118.97,1914.881,101.8,1919.032,95,1902.826Z" transform="translate(-63.31 -1847.94)" fill="#a0c433"/>
        <path id="Trazado_652471" data-name="Trazado 652471" d="M82.265,1902.86l-.006-.012s-.23.074-.631.251c-2.379,1.064-10.839,5.836-12.246,19.878a20.635,20.635,0,0,0,12.826-18.318C82.252,1904.072,82.266,1903.484,82.265,1902.86Z" transform="translate(-50.565 -1847.956)" fill="#a0c433"/>
        <path id="Trazado_652472" data-name="Trazado 652472" d="M80.346,1866.869s15.211.718,21.845,11.605C102.191,1878.474,88.025,1881.719,80.346,1866.869Z" transform="translate(-56.019 -1829.408)" fill="#a0c433"/>
        <path id="Trazado_652473" data-name="Trazado 652473" d="M70.721,1866.884l-.006-.011s-.208.119-.564.361c-2.349,1.591-11.141,8.609-8.755,22.735a23.262,23.262,0,0,0,9.562-21.006C70.917,1868.288,70.821,1867.592,70.721,1866.884Z" transform="translate(-46.39 -1829.411)" fill="#a0c433"/>
        <path id="Trazado_652474" data-name="Trazado 652474" d="M63.709,1833.614s16.9-2.085,21.937,10.783A22.726,22.726,0,0,1,63.709,1833.614Z" transform="translate(-47.743 -1812.2)" fill="#a0c433"/>
        <path id="Trazado_652475" data-name="Trazado 652475" d="M56.062,1833.759l-.012.005c-.05.05-.229.2-.489.457-2.014,1.925-9.213,9.971-6.7,23.841,0,0,9.225-9.139,7.5-22.424a18.739,18.739,0,0,0-.306-1.851C56.068,1833.771,56.068,1833.771,56.062,1833.759Z" transform="translate(-40.096 -1812.34)" fill="#a0c433"/>
        <path id="Trazado_652476" data-name="Trazado 652476" d="M46.673,1804.428s13.909-4.125,21.607,7.387C68.28,1811.816,55.258,1816.047,46.673,1804.428Z" transform="translate(-39.269 -1796.848)" fill="#a0c433"/>
        <path id="Trazado_652477" data-name="Trazado 652477" d="M39.35,1805.206l-.006-.011a4.863,4.863,0,0,0-.58.327c-2.057,1.307-8.823,6.734-6.247,20.7,0,0,9.347-7.305,7.219-19.247C39.636,1806.4,39.5,1805.806,39.35,1805.206Z" transform="translate(-31.94 -1797.615)" fill="#a0c433"/>
        <path id="Trazado_652478" data-name="Trazado 652478" d="M56.27,1827.419l-.006-.011c-2.573-5.447-5.353-10.8-8.36-16.015.007-.016.007-.016-.011-.023q-4.016-7.058-8.544-13.833l-.006-.011q-2.439-3.648-5.014-7.207l-.46.487q2.516,3.484,4.893,7.046c-2.057,1.307-8.823,6.734-6.247,20.7,0,0,9.347-7.305,7.219-19.247q4.047,6.149,7.669,12.516c-2.014,1.925-9.213,9.971-6.7,23.841,0,0,9.225-9.139,7.5-22.423,2.67,4.751,5.168,9.606,7.49,14.525-2.349,1.591-11.141,8.609-8.755,22.735a23.261,23.261,0,0,0,9.562-21.005q3.545,7.692,6.495,15.589c-2.379,1.064-10.839,5.836-12.246,19.878a20.635,20.635,0,0,0,12.826-18.318q2.662,7.229,4.8,14.633c-2.5,1.176-11.793,6.556-12.624,22.244,0,0,12.406-4.769,13.2-20.187,1.457,5.173,2.738,10.41,3.8,15.686-2.653,1.7-12.979,9.263-12.226,25.033,0,0,11.884-5.589,12.809-22.07q1.358,7.039,2.251,14.185c-9.185,21.52,2.14,32.72,2.14,32.72l.007-.017-.48-22.97q-.443-5.485-1.14-10.916c-.716-5.472-1.625-10.916-2.734-16.285l-.017-.035.012-.005q-1.831-8.917-4.369-17.62l-.011-.023q-2.395-8.2-5.372-16.17l-.006-.012Q60.3,1835.967,56.27,1827.419Z" transform="translate(-31.94 -1789.946)" fill="#a0c433" style="mix-blend-mode: multiply;isolation: isolate"/>
      </g>
      <g id="Grupo_975409" data-name="Grupo 975409" transform="translate(3011.261 -7215.092)">
        <path id="Trazado_652479" data-name="Trazado 652479" d="M1136.443,1716.453c11.318-3,22.653-2.106,31.209,2.449,0,0,7.661,3.277,11.912,7.812s6.856,12.209,6.856,12.209c3.829,8.66,3.6,19.627-.634,30.188a18.881,18.881,0,0,1-3.359,5.8,8.942,8.942,0,0,1-5.931,3.17c-3.209.07-4.764-2.908-4.9-5.864s.692-6.173.129-8.979-3.3-5.115-6.568-3.846a7.937,7.937,0,0,0-4.6,6.508c-.194,2.48.783,4.6,1.6,6.717,1.18,3.085,2.024,6.64.45,10.3s-6.494,6.945-9.6,5.556c-2.084-.935-2.549-3.48-2.458-5.877s.569-4.965-.207-7.037a4.076,4.076,0,0,0-5.931-1.949,6.017,6.017,0,0,0-2.8,4.542,11.37,11.37,0,0,0,.85,4.554c1.038,3.228,1.815,6.865.181,10.589s-6.611,7.092-9.8,5.718c-2.093-.9-2.659-3.383-2.557-5.784s.709-4.92.31-7.159-2.225-4.181-4.835-3.684c-3.706.7-5.735,5.127-8.445,8.1a13.611,13.611,0,0,1-4.06,3.014,7.164,7.164,0,0,1-8.324-1.328,6.585,6.585,0,0,1-.987-8.6,13.528,13.528,0,0,1,3.519-3.579c3.348-2.308,8.112-3.8,9.21-7.291.79-2.453-1.039-4.405-3.307-5.016s-4.941-.281-7.422-.417-5-.931-5.716-3.037c-1.093-3.209,2.9-7.647,6.9-8.828s7.678-.072,10.909,1.252a12.42,12.42,0,0,0,4.613,1.266,6.365,6.365,0,0,0,4.967-2.223,3.807,3.807,0,0,0-1.411-5.888c-2.056-.956-4.764-.755-7.249-.9s-5.06-.863-5.808-2.957c-1.119-3.118,2.789-7.515,6.709-8.656s7.5.038,10.566,1.478c2.107,1,4.2,2.141,6.778,2.219s5.837-1.3,7.176-3.757c1.644-3.009-.47-5.851-3.307-6.677s-6.243-.369-9.284-.794-5.935-2.219-5.545-5.285c.25-2.006,1.909-4.031,3.862-5.37A20.458,20.458,0,0,1,1136.443,1716.453Z" transform="translate(-1100.049 -1714.707)" fill="#a0c433"/>
        <path id="Trazado_652480" data-name="Trazado 652480" d="M1184.4,1739.49c4.251,4.535,6.856,12.209,6.856,12.209,3.829,8.66,3.6,19.627-.634,30.188a18.883,18.883,0,0,1-3.359,5.8,8.942,8.942,0,0,1-5.931,3.17c-3.209.07-4.764-2.908-4.895-5.864s.692-6.173.129-8.979-3.3-5.115-6.568-3.846a7.937,7.937,0,0,0-4.6,6.508c-.194,2.481.783,4.6,1.6,6.717,1.18,3.085,2.024,6.64.45,10.3s-6.494,6.946-9.6,5.556c-2.084-.935-2.548-3.479-2.458-5.877s.569-4.965-.207-7.037a4.076,4.076,0,0,0-5.931-1.949,6.017,6.017,0,0,0-2.8,4.543,11.373,11.373,0,0,0,.85,4.553c1.038,3.228,1.815,6.866.181,10.589s-6.611,7.092-9.8,5.719c-2.093-.9-2.659-3.383-2.557-5.784s.709-4.92.31-7.159-2.225-4.181-4.835-3.684c-3.706.7-5.735,5.127-8.445,8.1a13.611,13.611,0,0,1-4.06,3.014,7.165,7.165,0,0,1-8.324-1.328Z" transform="translate(-1104.885 -1727.483)" fill="#a0c433" style="mix-blend-mode: multiply;isolation: isolate"/>
        <path id="Trazado_652481" data-name="Trazado 652481" d="M1163.778,1754.785q-4.168,3.56-8.307,7.151l-6.936-2.333c-2.405-.8-4.8-1.629-7.213-2.408l-7.229-2.365c-2.418-.765-4.829-1.552-7.254-2.3,2.373.887,4.762,1.735,7.142,2.6l7.166,2.537c2.386.855,4.788,1.661,7.182,2.494l6.571,2.265q-3.877,3.356-7.757,6.71-4.557,4.01-9.125,8.007c-2.07-.623-4.149-1.219-6.222-1.831-2.164-.628-4.323-1.277-6.492-1.888l-6.508-1.84c-2.177-.59-4.347-1.2-6.53-1.771,2.136.716,4.285,1.391,6.428,2.087l6.451,2.018c2.149.675,4.311,1.312,6.467,1.969,1.945.585,3.886,1.181,5.834,1.758q-3.406,2.991-6.8,6l-8.2,7.305c-2.711,2.458-5.442,4.9-8.134,7.373,2.829-2.332,5.619-4.706,8.43-7.057l8.367-7.125q3.435-2.933,6.847-5.889c.605,3.753,1.18,7.51,1.823,11.257l1.017,5.957c.361,1.983.7,3.968,1.082,5.947-.236-2-.512-3.995-.767-5.992l-.832-5.984c-.541-3.9-1.154-7.8-1.731-11.7q4.6-3.977,9.2-7.955,3.848-3.385,7.706-6.759l1.608,6.452c.591,2.356,1.163,4.716,1.781,7.066l1.824,7.056c.632,2.346,1.241,4.7,1.893,7.04-.5-2.375-1.049-4.742-1.573-7.113l-1.641-7.1c-.539-2.368-1.122-4.725-1.685-7.087l-1.638-6.814q4.12-3.613,8.221-7.247l8.2-7.306q1.85-1.678,3.708-3.348l1.826,7.778c.637,2.7,1.257,5.4,1.92,8.093l1.963,8.084c.677,2.69,1.333,5.384,2.031,8.069-.55-2.717-1.142-5.425-1.711-8.138l-1.78-8.124c-.585-2.709-1.212-5.41-1.823-8.114l-1.842-8.11-.012-.056q1.934-1.747,3.856-3.508-2.016,1.661-4.01,3.344l-.051-.017-8.344-2.76c-2.784-.913-5.558-1.852-8.351-2.742l-8.365-2.7c-2.8-.877-5.587-1.774-8.39-2.632,2.753,1,5.52,1.957,8.28,2.938l8.3,2.871c2.764.966,5.547,1.883,8.319,2.827l8.011,2.7q-1.916,1.611-3.834,3.221Z" transform="translate(-1106.126 -1724.189)" fill="#8a6340"/>
      </g>
      <g id="Grupo_975411" data-name="Grupo 975411" transform="translate(2507.002 -7205.886)">
        <path id="Trazado_652482" data-name="Trazado 652482" d="M291.048,1798.034s.01.009.029-.011c.1-.043.558-.276,1.349-.62,5.967-2.565,30.186-11.6,50.534,1.212l-.087.033-.01.01c-1.914.781-30.54,12.175-50.691.081C291.785,1798.511,291.417,1798.282,291.048,1798.034Z" transform="translate(-193.359 -1763.715)" fill="#a0c433"/>
        <path id="Trazado_652483" data-name="Trazado 652483" d="M265.935,1816.215s26.319,2.579,33.726,26.086C299.661,1842.3,275.851,1836.51,265.935,1816.215Z" transform="translate(-180.867 -1776.242)" fill="#a0c433"/>
        <path id="Trazado_652484" data-name="Trazado 652484" d="M249.484,1771.842s.351-.274,1.017-.746l.01-.01c4.672-3.31,24.436-16.013,43.076-8.689,0,0-22,14.672-42.339,9.909C250.658,1772.174,250.077,1772.013,249.484,1771.842Z" transform="translate(-172.683 -1747.344)" fill="#a0c433"/>
        <path id="Trazado_652485" data-name="Trazado 652485" d="M212.262,1810.2s21.005,3.029,25.9,28.291C238.158,1838.491,222.4,1835.932,212.262,1810.2Z" transform="translate(-154.167 -1773.141)" fill="#a0c433"/>
        <path id="Trazado_652486" data-name="Trazado 652486" d="M181.734,1750.422s.484-.376,1.368-1c5.147-3.657,23.925-15.606,39.728-8.3,0,0-15.123,14.87-39.576,9.648C182.745,1750.668,182.244,1750.54,181.734,1750.422Z" transform="translate(-138.981 -1736.332)" fill="#a0c433"/>
        <g id="Grupo_975410" data-name="Grupo 975410">
          <path id="Trazado_652487" data-name="Trazado 652487" d="M96.664,1734.788l.416-.544.426-.536a173.913,173.913,0,0,0,28.29,16.486q.989.48,2.006.928a184.469,184.469,0,0,0,29.854,10.495c.932.249,1.863.478,2.8.7a183.671,183.671,0,0,0,35.272,5.081c5.576.264,11.167.269,16.724-.009l.027.675.036.665c-5.665.274-11.355.273-17.04.005a183.114,183.114,0,0,1-24.142-2.743q-1.75-.3-3.444-.656l-.01.01c-3.412-.679-6.8-1.476-10.174-2.341l-.018,0,0-.01c-4.9-1.259-9.754-2.689-14.526-4.339-1.045-.347-2.084-.724-3.1-1.1a181.128,181.128,0,0,1-21.416-9.356c-.923-.458-1.839-.946-2.734-1.434A173.965,173.965,0,0,1,96.664,1734.788Z" transform="translate(-96.664 -1733.708)" fill="#8a6340"/>
          <path id="Trazado_652604" data-name="Trazado 652604" d="M0,0,1.361.023,1.75,22.954.389,22.931Z" transform="matrix(0.565, -0.825, 0.825, 0.565, 71.213, 31.636)" fill="#8a6340"/>
          <path id="Trazado_652488" data-name="Trazado 652488" d="M217.744,1786.11l-.184-.667-.173-.638.322-.083,16.826-4.157.009-.01,8.209-2.03.357,1.306-7.828,1.944-14.769,3.644-1.55.392Z" transform="translate(-156.717 -1756.812)" fill="#8a6340"/>
          <path id="Trazado_652605" data-name="Trazado 652605" d="M0,0,1.37.025l.521,28.434-1.37-.025Z" transform="matrix(0.706, -0.708, 0.708, 0.706, 43.383, 23.857)" fill="#8a6340"/>
          <path id="Trazado_652489" data-name="Trazado 652489" d="M154.287,1762.54l-.164-.668-.153-.64.332-.074,14.99-3.4,12.257-2.785.328,1.317-12.434,2.813-13.135,2.981-1.181.259Z" transform="translate(-125.171 -1744.672)" fill="#8a6340"/>
          <path id="Trazado_652606" data-name="Trazado 652606" d="M0,0,1.379.023,1.9,30.109.519,30.086Z" transform="matrix(0.822, -0.57, 0.57, 0.822, 19.197, 12.99)" fill="#8a6340"/>
        </g>
        <path id="Trazado_652490" data-name="Trazado 652490" d="M160.282,1794.762s19.462,4.075,21.763,29.6C182.045,1824.36,164.926,1818.68,160.282,1794.762Z" transform="translate(-128.31 -1765.183)" fill="#a0c433"/>
        <path id="Trazado_652491" data-name="Trazado 652491" d="M97.491,1734.244l.426-.536a173.913,173.913,0,0,0,28.29,16.486l14.99-3.4c5.147-3.657,23.925-15.606,39.728-8.3,0,0-15.123,14.87-39.576,9.647l-13.135,2.982a184.47,184.47,0,0,0,29.854,10.495l16.826-4.157.01-.01c4.672-3.31,24.436-16.013,43.076-8.689,0,0-22,14.672-42.339,9.909l-14.769,3.644a183.672,183.672,0,0,0,35.272,5.081c5.967-2.565,30.186-11.6,50.534,1.212l-.087.033-.01.01-33.687-.59a176.132,176.132,0,0,1-18.1-.046c-.019.02-.029.011-.029.011a183.793,183.793,0,0,1-24.328-2.906c-.588-.094-1.177-.208-1.747-.341-3.154-.6-6.263-1.3-9.368-2.073-.471-.12-.941-.239-1.4-.368q-7.814-2.009-15.407-4.714c-.522-.164-1.046-.348-1.55-.532q-7.088-2.573-13.93-5.711c-.324-.155-.668-.309-1-.473q-3.951-1.831-7.814-3.875c-.458-.234-.915-.468-1.362-.713l-.011-.009A174.935,174.935,0,0,1,97.491,1734.244Z" transform="translate(-97.075 -1733.708)" fill="#a0c433" style="mix-blend-mode: multiply;isolation: isolate"/>
      </g>
      <g id="Grupo_975412" data-name="Grupo 975412" transform="translate(2475.107 -7209.85)">
        <path id="Trazado_652492" data-name="Trazado 652492" d="M36.568,1779.962c-4.251-10.547-4.49-21.508-.665-30.18,0,0,2.6-7.682,6.843-12.222s11.9-7.823,11.9-7.823c8.544-4.558,19.884-5.462,31.216-2.479a20.188,20.188,0,0,1,6.324,2.629c1.962,1.326,3.616,3.359,3.878,5.363.4,3.071-2.514,4.866-5.551,5.294s-6.441-.032-9.278.795-4.941,3.683-3.3,6.692c1.355,2.456,4.611,3.819,7.185,3.742s4.667-1.221,6.768-2.222c3.063-1.447,6.645-2.619,10.578-1.484,3.917,1.13,7.831,5.518,6.715,8.641-.751,2.094-3.33,2.8-5.814,2.958s-5.182-.038-7.24.918a3.8,3.8,0,0,0-1.405,5.887,6.376,6.376,0,0,0,4.974,2.224,12.532,12.532,0,0,0,4.611-1.281c3.225-1.326,6.9-2.443,10.908-1.257,3.993,1.18,7.994,5.614,6.9,8.812-.71,2.1-3.218,2.9-5.707,3.044s-5.149-.177-7.418.435-4.087,2.561-3.307,5.014c1.1,3.482,5.877,4.975,9.217,7.271a13.377,13.377,0,0,1,3.525,3.586,6.536,6.536,0,0,1-.519,8.118,7.186,7.186,0,0,1-8.775,1.827,13.763,13.763,0,0,1-4.053-3.009c-2.723-2.975-4.751-7.391-8.465-8.088-2.612-.507-4.44,1.448-4.838,3.685s.215,4.767.328,7.16-.45,4.891-2.549,5.792c-3.2,1.376-8.187-2-9.815-5.714s-.859-7.355.176-10.589a11.272,11.272,0,0,0,.835-4.553,6.007,6.007,0,0,0-2.8-4.536,4.078,4.078,0,0,0-5.932,1.955c-.776,2.069-.291,4.646-.189,7.044s-.373,4.941-2.457,5.872c-3.1,1.392-8.04-1.906-9.618-5.548s-.728-7.2.444-10.283c.813-2.122,1.78-4.243,1.6-6.726a7.938,7.938,0,0,0-4.611-6.5c-3.273-1.269-5.989,1.049-6.551,3.854-.576,2.8.257,6.025.13,8.984s-1.682,5.918-4.886,5.858a8.953,8.953,0,0,1-5.936-3.154A19.162,19.162,0,0,1,36.568,1779.962Z" transform="translate(-33.197 -1725.527)" fill="#a0c433"/>
        <path id="Trazado_652493" data-name="Trazado 652493" d="M52.2,1737.559c4.245-4.54,11.9-7.823,11.9-7.823,8.544-4.558,19.884-5.462,31.216-2.479a20.188,20.188,0,0,1,6.324,2.629c1.962,1.326,3.616,3.359,3.878,5.363.4,3.071-2.514,4.866-5.551,5.294s-6.441-.032-9.278.795-4.941,3.683-3.3,6.692c1.355,2.456,4.611,3.819,7.185,3.742s4.667-1.221,6.768-2.222c3.063-1.447,6.645-2.619,10.578-1.484,3.917,1.13,7.831,5.518,6.715,8.641-.751,2.094-3.33,2.8-5.814,2.958s-5.182-.038-7.24.918a3.8,3.8,0,0,0-1.405,5.887,6.376,6.376,0,0,0,4.974,2.224,12.532,12.532,0,0,0,4.611-1.281c3.225-1.326,6.9-2.443,10.908-1.257,3.993,1.18,7.994,5.614,6.9,8.812-.71,2.1-3.218,2.9-5.707,3.044s-5.149-.177-7.418.435-4.087,2.561-3.307,5.014c1.1,3.482,5.877,4.975,9.217,7.271a13.377,13.377,0,0,1,3.525,3.586,6.536,6.536,0,0,1-.519,8.118Z" transform="translate(-42.649 -1725.527)" fill="#a0c433" style="mix-blend-mode: multiply;isolation: isolate"/>
        <path id="Trazado_652494" data-name="Trazado 652494" d="M74.762,1766.816q4.1,3.633,8.229,7.235l-1.7,6.89c-.581,2.388-1.19,4.77-1.747,7.164l-1.7,7.175c-.542,2.4-1.108,4.789-1.631,7.191.673-2.367,1.3-4.744,1.956-7.115l1.885-7.132c.638-2.375,1.225-4.761,1.839-7.142l1.664-6.534q3.86,3.375,7.718,6.753,4.6,3.96,9.195,7.932c-.432,2.049-.834,4.1-1.253,6.154-.427,2.14-.876,4.276-1.285,6.419l-1.232,6.429c-.387,2.147-.8,4.291-1.16,6.443.521-2.122,1-4.252,1.5-6.378l1.423-6.392c.477-2.13.913-4.268,1.371-6.4.4-1.925.821-3.848,1.217-5.775q3.434,2.961,6.883,5.9l8.376,7.115c2.814,2.348,5.608,4.718,8.439,7.047-2.7-2.475-5.43-4.908-8.144-7.363l-8.208-7.295q-3.376-2.994-6.776-5.964c3.81-.964,7.628-1.9,11.429-2.9l6.043-1.585c2.009-.549,4.023-1.079,6.027-1.646-2.04.431-4.07.9-6.106,1.349l-6.089,1.411c-3.973.918-7.928,1.9-11.892,2.855q-4.574-4-9.149-8.007-3.886-3.344-7.763-6.7l6.493-2.2c2.371-.808,4.747-1.6,7.109-2.43l7.094-2.471c2.357-.846,4.721-1.671,7.071-2.535-2.4.726-4.785,1.491-7.179,2.236l-7.156,2.3c-2.388.758-4.761,1.559-7.141,2.341l-6.864,2.268q-4.15-3.581-8.319-7.143l-8.376-7.115q-1.921-1.6-3.835-3.213l7.839-2.546c2.719-.887,5.444-1.758,8.155-2.668l8.141-2.71c2.706-.924,5.42-1.829,8.119-2.773-2.747.806-5.481,1.65-8.222,2.474l-8.2,2.537c-2.736.838-5.458,1.716-8.186,2.578l-8.18,2.6-.056.018q-2-1.677-4.014-3.339,1.92,1.764,3.861,3.5l-.013.051L60.265,1764c-.657,2.763-1.342,5.52-1.976,8.288l-1.929,8.3c-.618,2.772-1.259,5.538-1.857,8.315.75-2.742,1.455-5.494,2.185-8.24L58.8,1772.4c.714-2.75,1.376-5.512,2.067-8.267l1.971-7.959q1.858,1.673,3.715,3.348Z" transform="translate(-43.796 -1735.717)" fill="#8a6340"/>
      </g>
      <g id="Grupo_975418" data-name="Grupo 975418" transform="translate(3035.971 -7180.674)">
        <path id="Trazado_652515" data-name="Trazado 652515" d="M1210.358,1984.767s-.009.011.014.027c.052.09.327.516.743,1.25,3.105,5.541,14.28,28.138,2.572,48.667l-.041-.081-.011-.008c-.953-1.781-14.906-28.435-3.921-48.722C1209.92,1985.511,1210.129,1985.141,1210.358,1984.767Z" transform="translate(-1177.223 -1888.346)" fill="#a0c433"/>
        <path id="Trazado_652516" data-name="Trazado 652516" d="M1177.429,1960.61S1176.754,1986.1,1153,1995C1153,1995,1157.188,1971.679,1177.429,1960.61Z" transform="translate(-1151.099 -1875.893)" fill="#a0c433"/>
        <path id="Trazado_652517" data-name="Trazado 652517" d="M1231.423,1941.788s.31.317.849.921l.011.008c3.777,4.241,18.412,22.276,12.249,40.748,0,0-16.841-20.036-13.455-39.948C1231.169,1942.941,1231.291,1942.37,1231.423,1941.788Z" transform="translate(-1189.713 -1866.189)" fill="#a0c433"/>
        <path id="Trazado_652518" data-name="Trazado 652518" d="M1176.517,1906.636s-1.542,20.421-27.3,27.034C1149.216,1933.671,1150.671,1918.33,1176.517,1906.636Z" transform="translate(-1149.216 -1848.068)" fill="#a0c433"/>
        <path id="Trazado_652519" data-name="Trazado 652519" d="M1247.771,1872.606s.426.437,1.14,1.24c4.173,4.671,17.953,21.816,11.6,37.56a41.639,41.639,0,0,1-12.975-37.313C1247.595,1873.6,1247.689,1873.1,1247.771,1872.606Z" transform="translate(-1197.874 -1830.525)" fill="#a0c433"/>
        <g id="Grupo_975417" data-name="Grupo 975417" transform="translate(21.003)">
          <path id="Trazado_652520" data-name="Trazado 652520" d="M1241.427,1785.747l.594.358.586.368a164.1,164.1,0,0,0-14.91,28.443q-.421.987-.809,2a168.82,168.82,0,0,0-8.594,29.493c-.187.915-.354,1.828-.51,2.748a165.086,165.086,0,0,0-2.585,34.291,154.251,154.251,0,0,0,1.276,16.075l-.7.077-.685.085a159.971,159.971,0,0,1-1.3-16.38,164.229,164.229,0,0,1,1.009-23.414q.176-1.705.418-3.36l-.011-.008c.443-3.332,1.012-6.65,1.651-9.957l-.006-.017.01,0c.931-4.8,2.043-9.58,3.388-14.292.28-1.031.591-2.058.9-3.065a167.48,167.48,0,0,1,8.055-21.295c.4-.922.839-1.84,1.276-2.737A165.108,165.108,0,0,1,1241.427,1785.747Z" transform="translate(-1202.313 -1785.747)" fill="#8a6340"/>
          <path id="Trazado_652611" data-name="Trazado 652611" d="M0,0,22.573.362l.022,1.383L.022,1.383Z" transform="matrix(0.501, -0.865, 0.865, 0.501, 1.275, 90.119)" fill="#8a6340"/>
          <path id="Trazado_652521" data-name="Trazado 652521" d="M1219.957,1910.771l.676-.227.647-.214.11.3,5.573,15.859.011.008,2.721,7.737-1.323.442-2.6-7.377-4.887-13.921-.523-1.46Z" transform="translate(-1205.409 -1849.972)" fill="#8a6340"/>
          <path id="Trazado_652612" data-name="Trazado 652612" d="M0,0,28.353.515l.025,1.374L.025,1.374Z" transform="translate(0 64.621) rotate(-49.406)" fill="#8a6340"/>
          <path id="Trazado_652522" data-name="Trazado 652522" d="M1238.674,1845.712l.678-.209.65-.2.1.313,4.649,14.152,3.808,11.572-1.337.415-3.851-11.739-4.079-12.4-.357-1.116Z" transform="translate(-1214.719 -1816.452)" fill="#8a6340"/>
          <path id="Trazado_652613" data-name="Trazado 652613" d="M0,0,30.395.543l.025,1.365L.025,1.365Z" transform="translate(4.308 38.089) rotate(-39.066)" fill="#8a6340"/>
        </g>
        <path id="Trazado_652523" data-name="Trazado 652523" d="M1186.328,1853.635s-2.741,19.017-28.966,23.161C1157.362,1876.8,1161.941,1859.911,1186.328,1853.635Z" transform="translate(-1153.268 -1820.745)" fill="#a0c433"/>
        <path id="Trazado_652524" data-name="Trazado 652524" d="M1242.684,1786.486l.586.368a164.093,164.093,0,0,0-14.91,28.443l4.649,14.152c4.173,4.67,17.953,21.815,11.6,37.56a41.639,41.639,0,0,1-12.975-37.313l-4.079-12.4a168.8,168.8,0,0,0-8.594,29.493l5.573,15.859.011.008c3.777,4.241,18.412,22.276,12.249,40.749,0,0-16.841-20.036-13.456-39.948l-4.887-13.921a165.077,165.077,0,0,0-2.585,34.291c3.105,5.541,14.28,28.138,2.572,48.667l-.041-.081-.011-.008-1.941-32.427a157.95,157.95,0,0,1-1.323-17.4c-.022-.017-.014-.027-.014-.027a165.042,165.042,0,0,1,1.163-23.606c.053-.573.126-1.148.221-1.705.385-3.077.866-6.119,1.435-9.162.088-.461.176-.923.274-1.377q1.486-7.662,3.709-15.167c.13-.514.28-1.031.433-1.53q2.124-7.008,4.853-13.822c.136-.323.27-.666.414-1q1.6-3.937,3.417-7.806c.208-.458.416-.915.634-1.363l.009-.011A166.059,166.059,0,0,1,1242.684,1786.486Z" transform="translate(-1181.973 -1786.128)" fill="#a0c433" style="mix-blend-mode: multiply;isolation: isolate"/>
      </g>
    </g>
    <g id="Enmascarar_grupo_878412" data-name="Enmascarar grupo 878412" transform="translate(0 439)" clip-path="url(#clip-path)">
      <g id="Grupo_980468" data-name="Grupo 980468">
        <g id="Grupo_975405" data-name="Grupo 975405" transform="translate(3032.796 -6573.876)">
          <path id="Trazado_652443" data-name="Trazado 652443" d="M1167.781,3137.379c-11.431-6.929-22.219-24.394-27.16-46.253s-2.66-42.047,4.757-52.906c11.444,6.931,22.219,24.394,27.159,46.253S1175.211,3126.523,1167.781,3137.379Z" transform="translate(-1137.996 -3038.22)" fill="#a0c433"/>
          <path id="Trazado_652444" data-name="Trazado 652444" d="M1167.781,3137.379c-11.431-6.929-22.219-24.394-27.16-46.253s-2.66-42.047,4.757-52.906l11.4,50.191,8.226,36.553Z" transform="translate(-1137.996 -3038.22)" fill="#a0c433" style="mix-blend-mode: multiply;isolation: isolate"/>
          <path id="Trazado_652445" data-name="Trazado 652445" d="M1160.881,3107.784l-12.951-11.852,12.46,9.608c-.664-3.031-1.321-6.064-1.951-9.1-.019-.088-.036-.176-.055-.264l-.12-.027.067-.229q-.67-3.235-1.325-6.473l-.058.047-8.988-11.2,8.654,9.2c-.757-3.784-1.489-7.574-2.168-11.375,1.145,4.172,2.222,8.358,3.272,12.549l.111.117-.067.054q.61,2.438,1.211,4.878l3.883-13.322-3.1,16.082-.11-.025c1.6,6.545,3.079,13.115,4.623,19.672l4.739-13.919-4.113,16.761c1.046,4.775,2.106,9.548,3.124,14.329l5.316-14.8-4.669,17.5-.079-.023c.044.207.089.415.132.622l1.194,5.84.18.133-.125.138.824,4.032c.143.763.292,1.526.439,2.288l3.906-10.664-3.052,12.748-.48-.133c.381,1.976.758,3.952,1.1,5.936-.564-2.021-1.094-4.05-1.62-6.08l-.471-.131.255-.7c-.27-1.039-.538-2.079-.812-3.115l-.834-3.366-.136.151-8.98-8.453,8.633,6.352-1.174-4.74c-.1-.413-.2-.827-.3-1.241l-.069-.02.038-.108q-1.031-4.263-2.021-8.533l-13.9-10.814,13.422,8.748q-.95-4.1-1.908-8.2Q1161.869,3112.226,1160.881,3107.784Z" transform="translate(-1142.915 -3057.759)" fill="#734c2f"/>
        </g>
        <g id="Grupo_975406" data-name="Grupo 975406" transform="translate(2548.79 -6558.607)">
          <path id="Trazado_652446" data-name="Trazado 652446" d="M179.162,3141.483c-.116-12.976,9.347-31.134,25.825-46.952s35.4-24.9,48.927-24.794c.121,12.988-9.348,31.135-25.826,46.953S192.694,3141.6,179.162,3141.483Z" transform="translate(-179.161 -3069.736)" fill="#a0c433"/>
          <path id="Trazado_652447" data-name="Trazado 652447" d="M179.162,3141.483c-.116-12.976,9.347-31.134,25.825-46.952s35.4-24.9,48.927-24.794L216.108,3106.1l-27.573,26.421Z" transform="translate(-179.161 -3069.736)" fill="#a0c433" style="mix-blend-mode: multiply;isolation: isolate"/>
          <path id="Trazado_652448" data-name="Trazado 652448" d="M215.818,3115.174l3.374-16.867-1.675,15.256q3.445-3.265,6.92-6.5l.2-.187-.041-.111.237-.07q2.471-2.292,4.954-4.573l-.073-.021,4.947-13.315-3.379,11.964q4.359-3.989,8.793-7.907-4.554,4.774-9.224,9.434l-.043.153-.084-.026q-1.806,1.812-3.618,3.617l13.773-4.076-15.768,6.2-.038-.1c-4.868,4.835-9.824,9.582-14.733,14.377l14.76-3.709-16.912,5.752c-3.618,3.429-7.225,6.867-10.863,10.277l15.845-3.721-17.861,5.7-.023-.077c-.159.148-.315.3-.474.444l-4.47,4.124-.019.218-.189-.026-3.087,2.848c-.591.529-1.178,1.062-1.767,1.593l11.457-2.618-12.822,4.436-.143-.46c-1.524,1.377-3.052,2.752-4.6,4.1,1.465-1.55,2.957-3.075,4.45-4.6l-.14-.451.748-.171q1.147-1.169,2.29-2.342l2.5-2.494-.205-.029,2.547-11.823-.893,10.405,3.518-3.513c.307-.305.617-.608.925-.912l-.021-.067.116-.027q3.176-3.139,6.383-6.25l1.952-17.072-.4,15.566q3.076-2.984,6.148-5.974Q212.46,3118.375,215.818,3115.174Z" transform="translate(-179.166 -3079.557)" fill="#734c2f"/>
        </g>
        <g id="Grupo_975414" data-name="Grupo 975414" transform="translate(2949.45 -6582.697)">
          <path id="Trazado_652495" data-name="Trazado 652495" d="M1014.962,3067.038s0-.012-.029,0c-.1-.013-.6-.05-1.431-.158-6.232-.842-30.794-5.38-40.618-25.772l.089.016.013,0c1.977.3,31.391,5.083,41.432,24.8C1014.613,3066.288,1014.792,3066.655,1014.962,3067.038Z" transform="translate(-972.884 -3030.885)" fill="#a0c433"/>
          <path id="Trazado_652496" data-name="Trazado 652496" d="M1067.908,3057.76s-20.123-15.006-13.708-37.748C1054.2,3020.012,1070.57,3036.4,1067.908,3057.76Z" transform="translate(-1012.528 -3020.012)" fill="#a0c433"/>
          <path id="Trazado_652497" data-name="Trazado 652497" d="M1039.477,3117.388s-.432.051-1.226.108l-.013,0c-5.569.4-28.44,1.031-39.778-14.065,0,0,25.74-1.136,39.822,12.712C1038.695,3116.542,1039.084,3116.959,1039.477,3117.388Z" transform="translate(-985.55 -3063.006)" fill="#a0c433"/>
          <path id="Trazado_652498" data-name="Trazado 652498" d="M1114.173,3092.138s-15.545-12.765-6.146-35.7C1108.027,3056.438,1119.536,3066.247,1114.173,3092.138Z" transform="translate(-1038.313 -3038.79)" fill="#a0c433"/>
          <path id="Trazado_652499" data-name="Trazado 652499" d="M1086.1,3170.132s-.594.068-1.648.143c-6.142.448-27.808.951-36.839-12.738a43.612,43.612,0,0,1,37.428,11.571C1085.4,3169.438,1085.746,3169.786,1086.1,3170.132Z" transform="translate(-1009.891 -3090.588)" fill="#a0c433"/>
          <g id="Grupo_975413" data-name="Grupo 975413" transform="translate(26.959 26.675)">
            <path id="Trazado_652500" data-name="Trazado 652500" d="M1103.552,3159.486l-.628.238-.631.227a157.19,157.19,0,0,0-14.359-27.278q-.554-.874-1.146-1.738a167.551,167.551,0,0,0-18.813-23.175c-.629-.66-1.268-1.3-1.919-1.942a169.3,169.3,0,0,0-26.106-21.432c-4.413-2.949-8.975-5.7-13.66-8.2l.336-.562.323-.558q7.156,3.835,13.916,8.354a169.226,169.226,0,0,1,18.258,14.072q1.271,1.1,2.464,2.223l.012,0c2.427,2.225,4.772,4.536,7.066,6.894l.017.005,0,.009c3.333,3.427,6.538,6.971,9.56,10.652.67.795,1.318,1.61,1.949,2.417a164.088,164.088,0,0,1,12.527,18.111c.511.825,1,1.671,1.472,2.507A157.133,157.133,0,0,1,1103.552,3159.486Z" transform="translate(-1026.29 -3075.07)" fill="#8a6340"/>
            <path id="Trazado_652607" data-name="Trazado 652607" d="M0,0,1.335.02l.329,21.589-1.335-.02Z" transform="matrix(0.917, -0.399, 0.399, 0.917, 25.16, 5.5)" fill="#8a6340"/>
            <path id="Trazado_652501" data-name="Trazado 652501" d="M1086.293,3132.37l-.2.632-.2.6-.307-.09-15.942-4.874-.013,0-7.778-2.376.4-1.237,7.422,2.26,13.991,4.282,1.473.441Z" transform="translate(-1043.902 -3100.827)" fill="#8a6340"/>
            <path id="Trazado_652617" data-name="Trazado 652617" d="M0,0,1.342.012l.246,26.825L.246,26.825Z" transform="translate(46.321 18.832) rotate(-13.021)" fill="#8a6340"/>
            <path id="Trazado_652502" data-name="Trazado 652502" d="M1124.111,3182.667l-.22.624-.215.595-.31-.1-14.041-4.591-11.484-3.749.43-1.231,11.643,3.812,12.306,4.019,1.1.369Z" transform="translate(-1061.724 -3126.18)" fill="#8a6340"/>
            <path id="Trazado_652621" data-name="Trazado 652621" d="M0,0,1.344,0,1.4,28.512l-1.344,0Z" transform="matrix(0.999, -0.047, 0.047, 0.999, 65.169, 36.902)" fill="#8a6340"/>
          </g>
          <path id="Trazado_652503" data-name="Trazado 652503" d="M1150.924,3132.162s-13.731-12.859-2.078-34.735C1148.846,3097.427,1159.812,3110.441,1150.924,3132.162Z" transform="translate(-1057.7 -3059.921)" fill="#a0c433"/>
          <path id="Trazado_652504" data-name="Trazado 652504" d="M1076.476,3142.213l-.631.227a157.2,157.2,0,0,0-14.359-27.278l-14.041-4.59c-6.142.448-27.808.951-36.839-12.738a43.614,43.614,0,0,1,37.428,11.57l12.306,4.019a167.594,167.594,0,0,0-18.813-23.175l-15.942-4.874-.013,0c-5.569.4-28.44,1.03-39.778-14.066,0,0,25.74-1.136,39.822,12.712l13.991,4.282a169.286,169.286,0,0,0-26.106-21.431c-6.232-.842-30.794-5.38-40.618-25.772l.089.016.013,0,27.193,17a164.858,164.858,0,0,1,14.754,8.916c.026-.007.029,0,.029,0a169.821,169.821,0,0,1,18.324,14.3c.43.365.851.747,1.245,1.134,2.255,2.038,4.427,4.125,6.55,6.281.321.327.642.655.95.987q5.315,5.466,10.081,11.389c.339.39.67.8.984,1.193q4.423,5.568,8.346,11.475c.182.285.382.579.568.877q2.256,3.427,4.327,6.983c.249.415.5.829.734,1.247l0,.013A157.9,157.9,0,0,1,1076.476,3142.213Z" transform="translate(-972.884 -3030.885)" fill="#a0c433" style="mix-blend-mode: multiply;isolation: isolate"/>
        </g>
        <g id="Grupo_975416" data-name="Grupo 975416" transform="translate(2479.476 -6618.915)">
          <path id="Trazado_652505" data-name="Trazado 652505" d="M92.3,2993.115s.008-.01-.014-.026c-.051-.086-.321-.491-.73-1.191-3.055-5.28-14.08-26.83-3.041-46.641l.04.077.011.007c.939,1.7,14.686,27.108,4.341,46.679C92.717,2992.4,92.52,2992.754,92.3,2993.115Z" transform="translate(-62.581 -2945.256)" fill="#a0c433"/>
          <path id="Trazado_652506" data-name="Trazado 652506" d="M113.98,3031.681s.355-24.456,23.131-33.244C137.111,2998.437,133.348,3020.849,113.98,3031.681Z" transform="translate(-77.568 -2972.672)" fill="#a0c433"/>
          <path id="Trazado_652507" data-name="Trazado 652507" d="M70.674,3043.065s-.3-.3-.828-.874l-.011-.008c-3.687-4.026-17.993-21.165-12.27-38.945,0,0,16.452,19.033,13.422,38.164C70.905,3041.956,70.794,3042.5,70.674,3043.065Z" transform="translate(-48.97 -2975.147)" fill="#a0c433"/>
          <path id="Trazado_652508" data-name="Trazado 652508" d="M112.726,3090.937s1.249-19.6,25.983-26.217C138.709,3064.72,137.486,3079.445,112.726,3090.937Z" transform="translate(-76.947 -3006.842)" fill="#a0c433"/>
          <path id="Trazado_652509" data-name="Trazado 652509" d="M56.052,3112.52s-.415-.414-1.112-1.176c-4.073-4.434-17.545-20.728-11.6-35.894a39.889,39.889,0,0,1,12.929,35.641C56.211,3111.568,56.126,3112.04,56.052,3112.52Z" transform="translate(-41.846 -3012.374)" fill="#a0c433"/>
          <g id="Grupo_975415" data-name="Grupo 975415" transform="translate(3.704 31.071)">
            <path id="Trazado_652510" data-name="Trazado 652510" d="M50.328,3118.927l-.576-.337-.569-.347a156.936,156.936,0,0,0,14.032-27.434q.394-.951.756-1.926a161.181,161.181,0,0,0,7.937-28.373c.169-.879.32-1.756.459-2.641a157.615,157.615,0,0,0,2.093-32.91,147.435,147.435,0,0,0-1.414-15.4l.669-.081.659-.089a152.946,152.946,0,0,1,1.438,15.693,156.86,156.86,0,0,1-.7,22.464q-.15,1.637-.364,3.227l.011.008c-.389,3.2-.9,6.388-1.476,9.566l.006.016-.009,0c-.841,4.618-1.858,9.208-3.1,13.741-.257.992-.545,1.979-.835,2.949a160.016,160.016,0,0,1-7.512,20.507c-.379.889-.787,1.773-1.2,2.638A157.912,157.912,0,0,1,50.328,3118.927Z" transform="translate(-49.183 -3009.388)" fill="#8a6340"/>
            <path id="Trazado_652608" data-name="Trazado 652608" d="M0,0,21.663.385l.023,1.331L.023,1.331Z" transform="translate(24.404 40.763) rotate(-60.586)" fill="#8a6340"/>
            <path id="Trazado_652511" data-name="Trazado 652511" d="M87.464,3090.3l-.649.225-.621.212-.11-.289L80.533,3075.3l-.011-.008-2.71-7.39,1.27-.437,2.593,7.047,4.869,13.3.52,1.395Z" transform="translate(-63.361 -3039.328)" fill="#8a6340"/>
            <path id="Trazado_652609" data-name="Trazado 652609" d="M0,0,27.23.552l.027,1.322L.027,1.322Z" transform="translate(19.14 66.851) rotate(-50.071)" fill="#8a6340"/>
            <path id="Trazado_652512" data-name="Trazado 652512" d="M70.074,3150.753l-.651.208-.624.194-.1-.3-4.642-13.521-3.8-11.055,1.283-.412,3.845,11.216,4.072,11.848L69.81,3150Z" transform="translate(-54.665 -3069.435)" fill="#8a6340"/>
            <path id="Trazado_652610" data-name="Trazado 652610" d="M0,0,29.214.587,29.24,1.9.027,1.312Z" transform="matrix(0.769, -0.639, 0.639, 0.769, 10.528, 89.87)" fill="#8a6340"/>
          </g>
          <path id="Trazado_652513" data-name="Trazado 652513" d="M102.327,3145.822s2.42-18.266,27.632-22.52C129.959,3123.3,125.743,3139.542,102.327,3145.822Z" transform="translate(-71.797 -3037.042)" fill="#a0c433"/>
          <path id="Trazado_652514" data-name="Trazado 652514" d="M46.119,3085.529l-.569-.347a156.921,156.921,0,0,0,14.032-27.434l-4.642-13.521c-4.073-4.434-17.545-20.728-11.6-35.893a39.888,39.888,0,0,1,12.929,35.641l4.072,11.848a161.188,161.188,0,0,0,7.937-28.374L62.722,3012.3l-.011-.008c-3.687-4.025-17.993-21.165-12.27-38.945,0,0,16.452,19.032,13.422,38.163l4.869,13.3a157.616,157.616,0,0,0,2.093-32.91c-3.055-5.28-14.08-26.83-3.041-46.641l.04.077.011.007,2.245,31.075a150.931,150.931,0,0,1,1.475,16.674c.021.015.014.026.014.026a157.573,157.573,0,0,1-.847,22.649c-.045.55-.109,1.1-.193,1.638-.336,2.955-.763,5.877-1.277,8.8-.079.444-.159.887-.249,1.323q-1.342,7.365-3.4,14.584c-.119.495-.258.992-.4,1.472q-1.965,6.742-4.514,13.307c-.127.312-.251.642-.387.964q-1.491,3.792-3.2,7.521c-.195.441-.39.882-.6,1.314l-.008.01A158.855,158.855,0,0,1,46.119,3085.529Z" transform="translate(-41.846 -2945.256)" fill="#a0c433" style="mix-blend-mode: multiply;isolation: isolate"/>
        </g>
        <g id="Grupo_975420" data-name="Grupo 975420" transform="translate(3055.427 -6614.792)">
          <path id="Trazado_652525" data-name="Trazado 652525" d="M1232.946,2983.543s-4.007-22.321,6.121-19.324C1250.021,2967.461,1232.946,2983.543,1232.946,2983.543Z" transform="translate(-1207.26 -2959.011)" fill="#a0c433"/>
          <path id="Trazado_652526" data-name="Trazado 652526" d="M1197.473,3008.565c.246.737.379,1.171.379,1.171s-.7-.226-1.808-.639c-4.828-1.85-17.328-7.436-11.856-13.971C1189.961,2988.213,1195.925,3004.028,1197.473,3008.565Z" transform="translate(-1182.829 -2974.199)" fill="#a0c433"/>
          <path id="Trazado_652527" data-name="Trazado 652527" d="M1212.346,2974.636c-.232.833-.394,1.355-.434,1.478a.013.013,0,0,0-.008.017s-.339-.487-.889-1.312l0-.011c-3.02-4.622-12.2-19.868-2.624-20.989.042,0,.08-.014.123-.014C1217.848,2952.86,1213.815,2969.5,1212.346,2974.636Z" transform="translate(-1193.382 -2953.766)" fill="#a0c433"/>
          <path id="Trazado_652528" data-name="Trazado 652528" d="M1242.706,3017.407s-3.82-22.705,6.925-18.494C1260.8,3003.29,1242.706,3017.407,1242.706,3017.407Z" transform="translate(-1212.154 -2976.771)" fill="#a0c433"/>
          <path id="Trazado_652529" data-name="Trazado 652529" d="M1210.293,3054.733s-.6-.053-1.59-.208c-5.1-.714-20.506-3.633-14.524-11.823,6.176-8.476,13.773,6.82,15.661,11.008C1210.136,3054.349,1210.293,3054.733,1210.293,3054.733Z" transform="translate(-1187.777 -2998.316)" fill="#a0c433"/>
          <path id="Trazado_652530" data-name="Trazado 652530" d="M1260.938,3062.579s-10.485-23.587,2.476-22.524S1260.938,3062.579,1260.938,3062.579Z" transform="translate(-1219.526 -2998.231)" fill="#a0c433"/>
          <g id="Grupo_975419" data-name="Grupo 975419" transform="translate(9.195 14.903)">
            <path id="Trazado_652531" data-name="Trazado 652531" d="M1250.278,3056.76l-.513.422-.5.419c-.122-.137-.249-.284-.371-.42q-2.322-2.554-4.479-5.243c-.585-.689-1.137-1.4-1.689-2.119a129.4,129.4,0,0,1-11.286-17.153c-.421-.746-.833-1.509-1.233-2.276a128.12,128.12,0,0,1-7.626-17.519q-.422-1.19-.807-2.394-1.778-5.349-3.054-10.842c-.688-2.956-1.278-5.958-1.754-8.959l0-.011c-.317-2-.592-4-.807-6l.657-.075.005.013.669-.08c.211,1.983.485,3.984.811,5.968.467,2.977,1.052,5.926,1.73,8.858.395,1.673.819,3.349,1.277,5,.227.8.453,1.6.674,2.385a129.046,129.046,0,0,0,4.533,12.662c.257.652.539,1.3.822,1.938a128.782,128.782,0,0,0,11.787,21.3c.383.567.765,1.135,1.169,1.681A127.857,127.857,0,0,0,1250.278,3056.76Z" transform="translate(-1208.527 -2984.526)" fill="#a0c433"/>
            <path id="Trazado_652618" data-name="Trazado 652618" d="M0,0,21.9.241l.014,1.34L.014,1.34Z" transform="matrix(0.274, -0.962, 0.962, 0.274, 12.114, 22.038)" fill="#a0c433"/>
            <path id="Trazado_652532" data-name="Trazado 652532" d="M1216.093,3028.648l-.435.479-.457.5-.1-.088-10.033-8.35-4.02-3.36.879-.972,4.57,3.8,7.8,6.487.958.808Z" transform="translate(-1201.043 -3001.192)" fill="#a0c433"/>
            <path id="Trazado_652619" data-name="Trazado 652619" d="M0,0,16.082.175l.014,1.34L.014,1.34Z" transform="matrix(0.271, -0.963, 0.963, 0.271, 17.441, 36.717)" fill="#a0c433"/>
            <path id="Trazado_652533" data-name="Trazado 652533" d="M1231.679,3071.4l-.358.534-.366.55-.073-.043-11.18-6.833-4.672-2.848.711-1.08,5.1,3.113,8.81,5.373,1.086.655Z" transform="translate(-1207.97 -3024.299)" fill="#a0c433"/>
            <path id="Trazado_652620" data-name="Trazado 652620" d="M0,0,21.186.092l.006,1.344L.006,1.344Z" transform="translate(30.393 59.907) rotate(-83.985)" fill="#a0c433"/>
            <path id="Trazado_652534" data-name="Trazado 652534" d="M1251.513,3111.517l-.272.573-.276.6-.12-.054-13.467-5.693-8.236-3.488.543-1.186,7.828,3.313,11.644,4.936,1.253.529Z" transform="translate(-1214.958 -3045.225)" fill="#a0c433"/>
          </g>
          <path id="Trazado_652535" data-name="Trazado 652535" d="M1228.305,3100.7s-.535.06-1.431.107c-5,.321-21.415.748-18.624-7.47,2.718-8.029,14.765,2.357,18.76,6.108C1227.822,3100.21,1228.305,3100.7,1228.305,3100.7Z" transform="translate(-1195.261 -3024.187)" fill="#a0c433"/>
          <path id="Trazado_652536" data-name="Trazado 652536" d="M1233.261,3041.365h-.871q-2.321-2.553-4.479-5.244l-13.468-5.693c-5,.321-21.414.748-18.625-7.47,2.718-8.029,14.765,2.357,18.76,6.109l11.643,4.935a129.34,129.34,0,0,1-11.285-17.153l-11.18-6.834c-5.1-.714-20.506-3.632-14.524-11.822,6.176-8.476,13.773,6.82,15.661,11.008l8.809,5.373a128.074,128.074,0,0,1-7.626-17.519l-10.033-8.35c-4.828-1.85-17.328-7.436-11.856-13.971,5.774-6.913,11.737,8.9,13.285,13.439l7.8,6.488q-1.778-5.348-3.054-10.842c-.688-2.956-1.278-5.958-1.754-8.959l0-.011c-3.02-4.621-12.2-19.868-2.624-20.989.042,0,.08-.014.123-.014l2.351,14.931.005.013q.408,3.682,1.046,7.366c.422,2.513.925,5.011,1.517,7.52q.713,3.063,1.569,6.05c.107.4.227.8.346,1.2.455,1.528.936,3.049,1.438,4.548.132.392.264.786.409,1.174.919,2.7,1.953,5.356,3.066,7.961.127.339.279.671.431,1q2.12,4.943,4.655,9.621c.183.376.391.743.587,1.114a129.721,129.721,0,0,0,7.119,11.487c.194.29.387.58.6.848,1.388,2,2.856,3.951,4.379,5.854.263.361.547.7.831,1.043Q1230.7,3038.553,1233.261,3041.365Z" transform="translate(-1182.829 -2953.806)" fill="#a0c433" style="mix-blend-mode: multiply;isolation: isolate"/>
        </g>
        <g id="Grupo_975422" data-name="Grupo 975422" transform="translate(2518.87 -6572.196)">
          <path id="Trazado_652537" data-name="Trazado 652537" d="M201.951,3081.769s11.514-19.771,17.422-11.326C225.765,3079.576,201.951,3081.769,201.951,3081.769Z" transform="translate(-160.527 -3055.43)" fill="#a0c433"/>
          <path id="Trazado_652538" data-name="Trazado 652538" d="M166.365,3078.261c-.292.721-.472,1.139-.472,1.139s-.395-.6-.987-1.589c-2.541-4.353-8.6-16.241-.06-18.018C173.864,3057.9,168.135,3073.8,166.365,3078.261Z" transform="translate(-139.971 -3050.941)" fill="#a0c433"/>
          <path id="Trazado_652539" data-name="Trazado 652539" d="M195.053,3061.124c-.726.507-1.195.815-1.306.886a.013.013,0,0,0-.017.008s.056-.583.169-1.556l0-.012c.68-5.416,3.539-22.808,11.715-17.9.033.025.072.037.1.063C213.6,3047.516,199.56,3058.019,195.053,3061.124Z" transform="translate(-156.455 -3041.687)" fill="#a0c433"/>
          <path id="Trazado_652540" data-name="Trazado 652540" d="M188.536,3114.25s11.91-19.957,17.5-10.2C211.854,3114.2,188.536,3114.25,188.536,3114.25Z" transform="translate(-153.884 -3072.452)" fill="#a0c433"/>
          <path id="Trazado_652541" data-name="Trazado 652541" d="M146.877,3122.614s-.436-.406-1.1-1.121c-3.5-3.637-13.561-15.2-3.543-17.959,10.356-2.861,6.238,13.616,4.962,18.012C147.006,3122.22,146.877,3122.614,146.877,3122.614Z" transform="translate(-128.814 -3073.4)" fill="#a0c433"/>
          <path id="Trazado_652542" data-name="Trazado 652542" d="M174.475,3160.542s7.306-24.666,16.686-16.016S174.475,3160.542,174.475,3160.542Z" transform="translate(-146.921 -3093.754)" fill="#a0c433"/>
          <g id="Grupo_975421" data-name="Grupo 975421" transform="translate(7.777 13.614)">
            <path id="Trazado_652543" data-name="Trazado 652543" d="M158.165,3146.433l-.675.019-.664.023c-.006-.18-.007-.372-.013-.551q-.131-3.386-.046-6.78c0-.89.036-1.778.076-2.667a124.983,124.983,0,0,1,2.468-20.148c.162-.834.341-1.676.533-2.513a127.038,127.038,0,0,1,5.553-18.223q.452-1.18.942-2.348,2.122-5.231,4.731-10.272c1.4-2.713,2.911-5.4,4.508-8.024l0-.012c1.065-1.747,2.163-3.469,3.3-5.149l.56.338,0,.012.573.343c-1.136,1.668-2.234,3.389-3.281,5.128-1.588,2.6-3.066,5.242-4.46,7.931-.789,1.538-1.557,3.1-2.283,4.657-.348.758-.7,1.516-1.039,2.261a129.187,129.187,0,0,0-4.775,12.58c-.227.661-.429,1.332-.631,2a125.858,125.858,0,0,0-4.793,23.671c-.075.672-.149,1.344-.193,2.012A122,122,0,0,0,158.165,3146.433Z" transform="translate(-145.912 -3069.788)" fill="#a0c433"/>
            <path id="Trazado_652614" data-name="Trazado 652614" d="M0,0,22.441.431l.025,1.308L.025,1.308Z" transform="translate(22.11 19.73) rotate(-35.138)" fill="#a0c433"/>
            <path id="Trazado_652544" data-name="Trazado 652544" d="M172.063,3104.006l-.652.109-.682.113-.023-.131-2.327-12.548-.924-5.039,1.321-.225,1.062,5.714,1.81,9.751.215,1.207Z" transform="translate(-151.222 -3078.292)" fill="#a0c433"/>
            <path id="Trazado_652615" data-name="Trazado 652615" d="M0,0,16.48.317l.026,1.308L.026,1.308Z" transform="translate(16.631 34.358) rotate(-35.319)" fill="#a0c433"/>
            <path id="Trazado_652545" data-name="Trazado 652545" d="M157.276,3146.9l-.628.2-.645.207-.029-.078-4.213-12.062L150,3130.126l1.26-.41,1.924,5.5,3.327,9.5.415,1.164Z" transform="translate(-142.576 -3100.682)" fill="#a0c433"/>
            <path id="Trazado_652616" data-name="Trazado 652616" d="M0,0,21.62.444l.027,1.317L.027,1.317Z" transform="translate(11.502 60.205) rotate(-45.009)" fill="#a0c433"/>
            <path id="Trazado_652546" data-name="Trazado 652546" d="M147.4,3190.306l-.587.281-.608.3-.058-.115-6.738-12.556-4.116-7.684,1.2-.594,3.914,7.3,5.817,10.866.628,1.167Z" transform="translate(-135.296 -3121.418)" fill="#a0c433"/>
          </g>
          <path id="Trazado_652547" data-name="Trazado 652547" d="M132.964,3168.76s-.455-.276-1.182-.78c-4.1-2.772-17.137-12.347-9.583-17.051,7.374-4.6,9.933,10.746,10.58,16.074C132.911,3168.086,132.964,3168.76,132.964,3168.76Z" transform="translate(-119.889 -3097.566)" fill="#a0c433"/>
          <path id="Trazado_652548" data-name="Trazado 652548" d="M139.243,3131.965l-.676-.528q-.131-3.385-.046-6.78l-6.738-12.556c-4.1-2.771-17.137-12.347-9.583-17.051,7.374-4.6,9.933,10.746,10.58,16.074l5.817,10.866a124.978,124.978,0,0,1,2.468-20.148l-4.213-12.062c-3.5-3.637-13.561-15.2-3.543-17.959,10.356-2.86,6.238,13.617,4.962,18.012l3.327,9.5a127.036,127.036,0,0,1,5.553-18.223l-2.327-12.549c-2.541-4.353-8.6-16.241-.06-18.018,9.018-1.888,3.29,14.007,1.519,18.468l1.81,9.751q2.122-5.231,4.731-10.272c1.4-2.713,2.911-5.4,4.508-8.024l0-.012c.68-5.416,3.539-22.808,11.715-17.9.033.025.072.037.1.063L161.2,3055.64l0,.013q-2.1,3.108-4.015,6.358c-1.318,2.208-2.565,4.454-3.749,6.762q-1.453,2.812-2.746,5.65c-.18.377-.348.758-.515,1.139-.648,1.463-1.271,2.935-1.863,4.4-.154.385-.31.771-.452,1.16-1.053,2.652-1.992,5.344-2.834,8.04-.124.341-.224.69-.323,1.04q-1.592,5.123-2.686,10.289c-.1.4-.183.813-.274,1.22a125.932,125.932,0,0,0-1.993,13.229c-.039.342-.079.684-.088,1.022-.234,2.4-.369,4.8-.432,7.194-.033.44-.035.876-.038,1.313C139.126,3126.978,139.142,3129.471,139.243,3131.965Z" transform="translate(-119.889 -3041.687)" fill="#a0c433" style="mix-blend-mode: multiply;isolation: isolate"/>
        </g>
        <g id="Grupo_975425" data-name="Grupo 975425" transform="translate(2432.055 -6555.008)">
          <g id="Grupo_975424" data-name="Grupo 975424" clip-path="url(#clip-path-2)">
            <ellipse id="Elipse_7846" data-name="Elipse 7846" cx="361.443" cy="239.807" rx="361.443" ry="239.807" fill="#226ec8"/>
            <g id="Grupo_975423" data-name="Grupo 975423" transform="translate(-104.089 -20.034)">
              <path id="Trazado_652549" data-name="Trazado 652549" d="M585.824,3124.547l3.307-7.251,8.125,6.77,5.492.611.317-6.342-7.293-8.706,9.533.7,6.047-3.29,3.58-12.617-3.46-4.469,7.871.9,1.874-4.352-5.744-2.887,29.944-24.782-10.682-5.282-24.241,9.54,10.735-9.926-10.378,2.791,1.742-2.981-17.582.8,32.167-5.518-7.865-4.569-3.606-1.543-20.165,1.02,19.565-3.68-21.165-3.677-8.615,3.021-8.774-1.169-10.473,3.393s6.2,8.518,5.067,9.082-7.72-.17-7.72-.17l-1.388-9-4.754,6.671-6.977-.339,3.274-6.517-20.759,3.021-4.781,7.312-4.687-2.029-13.115,4.7,4.962,3.729-7.581,4.5-19.986,2.255,1.508,6.625,11.316,1.856-16.29,1.94,5.429,9.156,23.813,2.19-3.05,24.149,5.688,4.033-7.927,3.933-.246,4.92,10.291.227-7.765,8.131-7.484,2.521,3.729,21.078,7.006,7.053,10.378,5.847,19.582-23.558,16.7-2.8,11.43-7.81,30.922-7.479Z" transform="translate(-109.382 -3035.812)" fill="#a0c433"/>
              <path id="Trazado_652550" data-name="Trazado 652550" d="M132.726,3370.667l-18.586-3.708-11.23-3.542,1.273-3.389-5.775-5.316-6.184-5.692-.95-.021-11.94-.263-.346-.008-9.642-5.827-.649-.323-10.126-5.041,1.595-2.408-26.1-.575-5.43-3.043-1.366-.767-16.8,4.758-3.933,5.039-7.918-3.593-11.1,1.22-1.134-.95-4.566-3.815-.3-.249,3.446-10c.946-2.742-12.581,1.459-18.514-1.379a4.632,4.632,0,0,0-.722-.263l3.082-6.355.406-.836,5.56-8.178-2.511-1.276-11.139,1.952L-45.5,3314l-11.74-.746-8.838-7.276,3.682-12.032,2.479-8.1,13.759-2.873,9.483,1.674,4.488-1.367-.64-1.967,19.424,1.65,5.77,2.324-.62,5.115,4.412,7.424,4.117-1.377,1.03-5.918-2.324-12.34L18.9,3269.85l3.927-12.308.483-.282,1.5,4.816,3.484-3.463-1.082-3.666.708-.419.447,2.621,5.17-4.035-.608-1.551,1.275-.754,13-2.278,1.364-5.219L61.44,3239.7l1.683-.47,1.228,4.914,8.625-3.23,15.286-3.937-1.722-2.3-6.735,2.11-7.67-1.147-1.947-5.14,6.722-2.019-4.237-3.569-19.29,6.776,11.573-6.946,6.4-2.915,19.074,1.277,11.538-2.554,6.062-3.527-1.9-6.056-6.817-3.48-7.774-6.454,4.526-2.221-7.353-14.874L80.92,3192.5l-8.711-2.389,1.92-8.991-5.38-2.807-2.343-4.687-14.967-2.41-4.273,11.812-6.19,6.092,4.044,7.353-3.887,4.187-10.405,2.027-.194,11.168-7.792,1.294-3.06-5.074,4.483-8.632-10.235-1.382-14.24-9.656-8.549,1.705,3.088-10.248-4.764-.411,19.911-15.431,10.155-4.417,12.721-4.114,4.985-4.04L50.6,3151.3l4.214-3.324-1.2-5.4,4.23.094,2.93-3.354-9.735-4.123-3.88,4.066-9.57,7.36-1.212-5.153L37.8,3134.9l-6.5,4.742-1.22-4.912,3.965-5.771-1.347-9.8-10.861,3.8s-5.1,6.348-4.025,6.859,5.685,4.032,5.685,4.032l-5.071,5.749-6.861,4.73-2.918-7.875-7.142,3.017-12.036-2.219-2.991-6.414-8.82-.194-4.031,6.991-3.467-4.228-11.409-.005-4.634-3.031,5.921-.6-1.546-5.894-15.089-7.415-6.713,1.807-5.415-2.074.44-8.779-31.92,5.4-11.36-7.364-.4-.262-5.657-4.719-14.041-6.17-4.045-.089-2.293-5.667-7.867-4.569-18.512,2.277-17.989,6.444-6.543-1.609-4.976,3.8,1.338,10.04,6.369,5.023-8.562,2.009-5.8-1.838,4.168-2.351-3.948-2.041-17.45,3.034,1.024,8.947,5.435,1.7,12.58-1.3-5.14,7.08-16.627,1.343-12.462,6.316-.488,9.754,7.3,1.142-2.94,7.259,9.461,2.162,3.678.081-15.172,8.944-27.186,6.482,3.246,1.291,12.205-1.2,29.947-10.081,13.072-3.864-4.244-3.512,10.489-3.675,8.176-1.532-8.885,8.354,11.532-2.433,3.907-4.553,10.085,4.373,15.788,8.163,5.946,13.557,5.23,12.568.023.065,3.733,13.694,10.194,12.09.921,1.094-8.846.295-2.421,11.668-7.607,12.283-.6,11.951,4.907,12.195,9.653,5.708.676,2.184,1.856,6.01,5.066,9.064-4.776-.1,7.133,4.553,4.475,6.2,6.712,5.523,1.964-2.405-5.239-5.606-2.96-7.023-5.969-5.748.277-5.53,6.219.749,3.566,9.642,7.5,4.561,9.228,14.121-2.814,4.821,23.424,9.873,11.966,3.635,6.354-2.025L-50,3323.8l4.613,2.655,2.1.3c2.753,3.256,11.881,3.516,11.881,3.516h0l2.67,1.68.727,1.237,2.327,3.957,7.929,3.35,1.441.427,8.348,2.474,2.317-2.145,4.177-2.593,2.451,2.494,3.237,8.862L-3.6,3358.26l-.34.361-7,7.416,3.1,4.217-2.146,1.152-3.527,1.9,8.786,8.254,10.618,15.861,11.826,6.366,9.659,6.138,4.887-2.641-.422.225-4.465,2.416.677.438-1.227,31.957L23.2,3463.48l1.007,9.3,4.582,4.009-1.485,7.536-1.739,5.333-3.805,2.6,3.087,4.466,3.135,10.933,9.061,10.087,12.586,5.893,9.925.219,1.912-1.273,3.415-2.27-17-13.316,9.479-12.976-8.649-3.609,6.809-3.755,5.246-9.165-5.69-4.033,8.764,1.415.366-7.318,16.655-1.829,2.535-6.538-7.781-6.276,1.138.253,14.876,3.274,5.491-5.977,13.192-14.365.281-5.609,24.688-8,8.75-12.993.623-12.439L161.5,3384l-3.751-5.942Z" transform="translate(258.302 -3060.642)" fill="#a0c433"/>
              <path id="Trazado_652551" data-name="Trazado 652551" d="M451.393,3364.146l-4.1.888-5.2,4.738-7.137,6.588,1.786,1.079,4.043.089,6.467-.531,3.462.749-6.01,2.369,2.7,1.159,5.694-3.475-1.577,2.1,4.154,1.557s3.546-4.681,3-4.693-4-.944-4-.944l1.342-4.734-8.887-.2.1-1.95Z" transform="translate(-85.009 -3205.074)" fill="#a0c433"/>
              <path id="Trazado_652552" data-name="Trazado 652552" d="M1804.83,3348.465l-6.247-7.464-1.76-3.516-4.085-6.682-3.487,3.585,2.956,7.022,4.545,3.032,3.319,10.877,3.292,5.929,2.252,4.631,1.279-3.453,3.768,1.914.128-2.559-5.932-2.877-1.292-7.171,5.977,1.78Z" transform="translate(-755.677 -3187.885)" fill="#a0c433"/>
              <path id="Trazado_652553" data-name="Trazado 652553" d="M1147.374,3176.4l3.551-1.939-7.2-2.354-4.363-6.5,4.359-9.976,7.035-8.27,13.9-7.479-4.18-4.757-4.521,2.187s-4.592,3.469-4.87,3.463-10.917,3.239-10.917,3.239l-1.583,3.994-5.615,1.889,1.195,3.691-1.872,9.843-.164,3.292-3.316,2.858,8.695,5.5Z" transform="translate(-428.617 -3087.009)" fill="#a0c433"/>
              <path id="Trazado_652554" data-name="Trazado 652554" d="M1776.456,3782.371l-5.844-3.691-56.883-1.254.813-16.24-5.1,3.351-.153,3.047-4.183-.946-4.84-2.549-8.078,3.362-4.587,3.382-1.427,2.713-3.215-2.815-3.219,2.674-.116,2.317-4.04,3.573-22.619,3.409-6.183,2.248-3.151,7.8,1.275,3.938-1.532,1.187.932,7.1,1.287,8.873,112.63,2.482-1.249,24.949,5.292.234,2.886-2.5,3.061-6.036,14.222-12.138,8.21-13.247L1788.4,3797.4Z" transform="translate(-683.438 -3409.756)" fill="#a0c433"/>
              <path id="Trazado_652555" data-name="Trazado 652555" d="M1796.788,3700.8l5.542-.488.487,1.232-6.471.649,2.773,3.42,3.961-1.958,13.552,5.028,4,4.607-3.844,3.331,7.013-.454,4.8,2.782.564.327,2.681.357,4.63.1,1.521-4.111,4.806-.5,5.232,2.189,2.7,2.74,10.153.224-2.813-1.4-6.339-5.634,2.951-.177-.257-2.207-7.444-2,1.028-2.173-17.882-5.048-12.6-3.56-7.628,5.326-4.51-1.807-.884-4.414-6.534-1.731-6.147,1.452.66,1.418Z" transform="translate(-756.953 -3375.871)" fill="#a0c433"/>
              <path id="Trazado_652556" data-name="Trazado 652556" d="M1570.917,3681.146l-4.852-2.3-1.141-2.955-3.813-1.062,1.57-1.917-2.133-1.512-6.1-3.063-7.851-4.934-7.136-4.433-8.2-1.524-.086,1.709,3.978,3.262,7.378,5.166s6.75,8.571,6.908,8.944,2.778,3.357,2.778,3.357l11.573,7.822,4.961.109Z" transform="translate(-627.871 -3356.276)" fill="#a0c433"/>
              <path id="Trazado_652557" data-name="Trazado 652557" d="M1632.734,3727.924l6.981.154,3.973,1.553,7.193-.452s-.464,2.063-.1,2.07,7.633,2.121,7.633,2.121l.134-2.68-6.211-.991,1.343-1.071,4.942.6,7.92-.312.1-1.949-4.468,1.119-4.749-.713-6.648.462-7.507-.774-5.693-.125-3.79-.939-5.787-2.568-6.525-1.976-.838,1.934-6.714-.513-7.478-2.608-5.1,2.452,11.091,2.807,12.62,1.5Z" transform="translate(-662.62 -3388.659)" fill="#a0c433"/>
              <path id="Trazado_652558" data-name="Trazado 652558" d="M1664.424,3659.358l4.3-1.249-9.7-4.854-10.421,6.609-7.792,4.345-3.286,3.1-3.888-.715-2.131-.392s-4.413,3.686-3.211,3.591,6.236,9.537,6.236,9.537l13.936,1.041,1.74,1.992,4.876-1.846,2.254-4.588,4.522-5.763,5.175-.373-4.641-2.909.793-1.2-2.08-2.49,1.779-2.051Z" transform="translate(-675.868 -3354.116)" fill="#a0c433"/>
              <path id="Trazado_652559" data-name="Trazado 652559" d="M1819.774,3407.672l1.5,3.146-.165,3.3-2.758-.061-.192,3.837,2.018,3.891,3.951-1.742-3.165-3,3.33-.293,5.956,2.328,1.628-5,4.684.1.151-3.017-16.843-5.312Z" transform="translate(-769.991 -3226.573)" fill="#a0c433"/>
              <path id="Trazado_652560" data-name="Trazado 652560" d="M1768.59,3464.266l-.1,2.02-3.438,2.491,4.608,7.24,3.4-1.754.32-6.4-2.934-2.079,3.109-1.406,8.915-1.626,2.484,2.8,1.686,2.053,3.766-3.577.11-2.2,4.085,1.188,1.994-1.237,3.157-2.495,1.213,3.323,3.208-3.409-2.1-2.243-1.932-5.536,3.4-1.754-1.055-6.436-4.752-4.315-3.421,2.122-.174,3.476,1.4,5.156-1.881,4.537-6.064-.134-2.293,4.528-3.773.835-6.674.95Z" transform="translate(-743.692 -3243.619)" fill="#a0c433"/>
              <path id="Trazado_652561" data-name="Trazado 652561" d="M1319.074,3138.694l2.829-1.4,4.559.836,2.011-7.16-6.586-4.419,1.953-2.275,2.618,2.865,3.644.69.865-2.545,4.419-.023,2.47,2.129,10.383-1.6-5.032-6.091-3.963-1.674,4.953-3.432-3.652-4.232-8.41-1.039-4.716,2.34,4.565,4.37-4.233-.093-4.716-4.988-20.86-2.289-17-2.207-17.409,2.181,1.876,2.972,5.909,3.3-1.621,2.894-3.948-1.919-4.541-1.2-3.368-2.515-2.185,3.125-13.895,1.891.4,3.061-4.311-2.047-5.557.733-2.514-4.941-7.773-2.736-11.392,3.292-7.05,1.187-.46-1.84-3.437-1.178-2.464,1.413-6.126-2.579.678-2.548-9.593.521-1.741,5.335-1.078-4.174-4.656,1.118.308-2.436-15.845.384,4.465,2.662-3.967,1.99,3.827.814,2.948,3.607-4.054.156.02,3.294-7.076-2.106-3.357.9.48,1.473-5.508-.242-3.216-1.9,2.177,7.982-9.035-3.374-7.217-2.843,4.442-.514-2.622-2.741-2.778.3-.052-2.564-9.784-3.026-7.565.442-2.819,1.04,3.3,3.856-9.461,1.622-6.6-.391.335-3.043-14.438,1.635-5.4,1.345-5.435-1.705-.189,3.78-6.57,6.2-.522-4.163,5.092-9.9,2.029-7.4-10.774-5.364-5.439-1.707-6.346,1.814-2.373,3.365-1.754-5.41-7.8,1.415,1.3-3.754-6.019-1.112-3.053,5.915,6.349,5.511-8.03.435,4.679,4.01-4.783-1.937-4.266,2.593-2.153-1.145-7.413,1.056,3.257,1.173-9.784,4.3-4.112,4.913.19,3.543,5.97,2.086-2.823,1.162-14.687,3.093,4.12,5.952,7.037,2.714,2.9,1.213,1.428.593,2.358,4.327-3.229,2-1.154-6.254-6.251-.137-8.843-3.491-2.5,2.022,1.539,2.351-4.906-1.206,2.741,3.968,7.282,1.627-10.988-1.1-3.623-8.5-2.381-.178,2.329,4.936-3.026,1.644,1.666,3.455,4.833,2.668,1.885,6.512,2.316,1.517,5.415-1.592,7.574,3.1-.294,2.189-2.882-1.285-3.739-2.4-4.533,2.345,2.694,4.943-2.247,4.463-2.493,2.025-3.449-.931,3.248-9.817-4.976-3.529-4.333-9.006-3.395-2.031-1.092-7.591-10.268-.716-.011,7.569-2.945,3.719,5.681,7.814,2.924.433,4.642,2.789-.735,3.645-9.537-4.239-10.17-2.788-6.433-.018-.829,1.813,2.6,3.229-3.046,2.008-2.276-2.247-10.043,2.1-1.558,1.675-3.862.032-.233-2.808-12.977,5.694-1.9,1.057-.716,3.281-4.612.265-2.977-2.994,3.773-1.872-3.721-2.89-6.23-.5,1.857,7,2.549.544.154,4.28-6.18-1.481-7.032,4.486,3.516,3.252-2.476,1.654-9.047-3.13-1.4,2.287,5.794,1.837-2.478,1.777-6.329-2.213-3.271-4.59.722-3.4-8.813-3.977,1.493-.456,9.415,3.017,7.639,1.751,7.654-2.15,1.116-3.883-17.814-8.537-7.328.568-6.212-1.631-2.3-.547-5.856-1.39,5.108-1.554-10.2-3.883-16.549,3.419-14.192,7.867-13.589,17.891-8.782,6.279-11.629,4.384,1.332,13.824,6.335,2.214,10.754-5.38.992,1.886,7.071,13.43,10.686-3.916.582-7.92,4.873-1.725.946-4.253-4.457-2.785-.232-6.476,11.581-7.07.83-5.6,6.988-.271,2.966-.119-.147,2.928-10.888,8.06,1.013,9.179,7.947,2.981,14.48-2.608h.007l3.924,2.407-4.581,2.384-.146.074-9.171-.569-4.684,1.727.963,2.831,2.752.181-.015,1.656-.015,2.619-2.772.181-2.827-2.379-4,2.718-.171,3.415-.018.366,5.37,3.049.1,1.589-.552-.012-17.279-.381-8.761,2.369h0l-5.636-1.344-8.477.178-2.306-2.068-1.391-1.25,3.216-1.76,1.122-7.726-8.871,4.442L797,3222.49l1.233,4.534-5.516.974-8.315,1.468-2.164,4.59-.041.017-3.4,1.264-1.518.565-2.453,3-2.688.431-2.073,1.6-3.154-.132-2.709-1.036.3,3.179-3.323.108-8.54-.248,9.933,5.594,3.75,4.169-3.009,6.836-.052-.007-21.657-1.938-4.509,1.851,1.29,3.25.181.446-.019,4.029-3.531,4.44,1.754,1.746-.382,3.9,6.11.135,1.978.044,3.529,3.009,6.727-2.052,6.431.141,4.662-1.237,2.649-4.461-1.212-2.224,6.113-4.5,5.037-1.354.438-1.919.506-2.21,2.288-1.658,4.025.579,3.8,1.3,4.914-2.248,3.744-1.712,4.741.957,2.575,3.6,6.221,4.409,7.775,2.736,3.573,2.154,1.115,3.442-1.061,2.785,1.835.164,3.327-4.079-2.306-1.641,1.759-2.036,4.133,2.045,1.016-1.931-9.4-3.5,1.161-1.076-6.356-1.6-3.319-3.614-4.108-2.531.165-3.293,3.233-.356,1.4-2.859-.137.293-1.259,2.566.471-.053.495,1.108.665,1.481,3.362-1.022,2.391,3.712,6.652,3.162.356.169,3.054,1.537,3.491,1.753.815.412-.214,4.267,3.221,2.763,1.017.873,3.013,2.264-.666,2.305,3.545,2.641,3.835.574-.989-2.341,2.206.049-.1-1.591,2.012.168-4.4-3.883,1.327-.824-2.4-3.351,3.234,1.535,2.42-.557-1.937-1.753,8.293-.3.412.593.79,1.143,4.5-1.733,3.686-.161.42-.967-2.7-1.28-.55-1.135-.951-1.953,2.888-2.621.045-.9.138-2.758,2.969-.422.379-1.68.09-.387,5.152-3.67,4.867,1.939,2.911.794-3.216,1.764,3.27.8.276,1.837,9.467-1.623.085-1.706-4.988.379-3.391-2.029,4.3-1.37,5.206-1.107,5.126-.917,1.56-.278-1.205,1.925-2.391,3.731-2.383-.172.123,1.221,4.149,1.68,7.175,3.7,5.552,3.052-.754,2.192-.542,1.563-7.756.564-9.479-1.8-4.895-1.452-9.058.9-3.6,2-4.942-.476-1.882.813.5,1.112-7.2.574-3,1.152.474,1.6,1.821.407.071,2.2-1.868.572,6.556,5.026,6.932,1.251,2.655-1.651,6.68,2.591,5.012-.869,3.024-1.518,4.967-.014-.838,2.522-.246.75-.991,2.668-1.724,4.645-.476,1.284-3.462,3.214-.4.366-11.549-.99-4.869,1.723-14.231-2.386-1.136-.318-7.389-2.069-8.451-.31-3.063,2.378,1.372,1.981-3.8,2.482-7.948-2.984-4.94-.6-1.305-3.327-13.064-1.987-.086-.014-5.384-2.68,3.8-2.357-.638-1.969-1.769-1.38,2.154-2.64-2.967.422-1.581-1.375-3.612.389-8.6.927-11.974.227-13.957,3.11-3.262.429-2.294.3-6.975-.276-2.484-1.883-1.676.45-2.05,4.1-9.006,3.588-3.861,7.241-6.69,4.979-5.6,1.826-.014,0-2.115,1.841-10.235,9.607-2.736,4.091-.646.964,2.663,2.01-4.19,10.471-1.278,3.205,5.767,6.3,3.477,3.793.291.208,5.752,4.078.149.228,3.27,4.974,2.454,1.1,14.463,6.477.3-.057,11.4-2.128,5.161,1.123,3.577.78,11.452-2.511,2.9-.638,4.256-.934,1.117-.243,7.444,5.658,11.064-.443.737-.031,3.285,4.224-.967,2.267-1.3,3.057-1.9,4.475,8.275,7.506,1.935,1.754.483,1.257.656,1.7.322.835,4.888,12.706-4.686,5.392-4.358,10.125-.225.518,6.042,8.068,3.174,10.079,4.644,10.115.044.081,6.756,11.177-.445,5.121,6.911,1.614,22.389-2.438,21.227-12.348,4.827-6.49.895-1.2-.3-1.347,10.473-3.43.25-5-1.512-6.5,22.012-9.77,1.508-4.359.435-8.7.023-.454-5.334-10.981,3.307-3.65,4.285-4.729,4.229-2.477L938,3370.072l12.533-11.443,4.553-10.031-24.856,3.849-4.571-3.359-1.779,1.721.427-.414,1.353-1.306-.748-.544.259-1.85.031-.223-9.433-6.431-4.169-1.191-3.445-6.439-.259-.478-4.469-2.664-1.973-7.61-.032-.126-4.481-2.295-4.6-7.366-3.21-5.626-5.249-5.488,1.127-.338,6.158,5.5,1.162-1.193.883-1.99.716-1.615.065-.145-.062,1.231-.146,2.917,7.2,6.933,2.57,3.782,3.284.556,2.346,4.573.6,2.7,6.582,4.54,4.36,4.855,2.091,3.469.966,1.6,2.926,7.758,5.735-.607,2.284-1.538,3.81,1.062,4.324-1.859,7.1-2.041,9.455-1.5.116-2.317,2.66-.511,5.326-1.022,2.784-.429,1.179-1.558,2.969-.425,1.578-2.162,3.318-.049.165-3.294,2.278-1.412,4.453-4.42-4.611-3.521-6.214-.867-1.523-3.187-4.89,6.39.083-.109,4.807-6.281-1.64-3.421-7.088,5.648-8.478.238-1.287.036-.207-1.3-.356-2.192-.113-1.405-2.17-.781-.332,3.373-.042.4-3.232-5.2-6.117-5.335-.06-.048-1.571-1.622.751-1.285.655-1.127.24.009,5.634.241,5.254,5.368L967.1,3310.7l6.18-2.118,3.492,3.741,15.341,2.292.475-.013,11.68-.27,5.887.129,4.04,3.815,3.259.766.742.174,2.3,1.885,5.159-.256-3.592,2-2.921-.432,7.666,4.932,5.25-1.959,1.443-3.143,1.363,9.553,4.316,9.372,5.8,9.039,8.522,9.954,2.6-.553,6.123-4.745,1.875-8.019.311-6.218,10.177-4.9,6.872-4.854,6.04-3.039,3.474-3.22,4.2.656.361.055,4.344-2.221,3.322-.3,1.831,3.948,1.845,1.505,1.692,1.379,3.76,2.037-1.693.818,1.577,1.5,1.9-1.3,2.337,4.811-1.84,3.746,1.62.645,8.22-2.5.091-1.83,4.126,5.829,2.682,5.188,1.251,4.421-1.26,3.269-.075,1.5-.205,4.11,1.113-.34,5.151,4.813,1.005.938,1.228,4.789,3.5,3.741,9.722,4.24.992-1.321-3.325-3.49-.121-4.885-4.433-3.4-.092-.038-4.963-1.906-2.313-1.515.953-.588-1.186-2.1-2.479-2.009-1.614-.891,1.465-3.506,1.471-3.63.313-2.557,3.129.069-.109,2.2,6.347,1.724.237.206,2.939,2.551,1.75,1.748,2.959.065.173,0,1.823.284-1.507,4.363,2.405-.312,5-4.286,2.4-.066,6.417-3.277.2-4.026-2.589-7.139-8.41-4.7-.663-1.48-2.869-1.529.729-3.645,2.359-2.879,4.079-.844,3.916-.81,3.273.8,1.146,2.832,2.212-.072.128-2.562,9.484-1.988,11.364-2.8,5.169-3.976,4.9-5.936,4.288-4.911,2.29-5.2-5.062-1.82,3.973-2.234-4.116-2.292,2.817-1.156-6.841-6.621-4.528-1.441,1.11-3.76,4.556-2.832,4.441-.511.3-2.314-5.51-.122-2.148-1.146-2.452,1.045-1.747,1.915-2.21-.049-.784-2.579-2.03.074-3.213-2.02.5-2.555,3.848.33,1.073-3.152,2.78-.3,2.566-3.482,4.374.826-2.188,3.248,1.381,1.865-1.724,1.425,1.251.76,2.651-1.529.978-1.2,6.163-1.818.519.109,3.3.706-.275,5.491,1.761,1.623,3-1.276.4.418,2.574,2.7-1.884.814,2.969,3.239-1.211,2.17,2.064,2.855,4.906-2.458,4.879-1.844-3.361-6.422-3.489-3.608-.009-.011-1.592-1.254-3.433-1.3-.253-2.2,6.462-4.131-1.106-3.688,2.954-2.2.868-.649,1.791-2.645,2.567.179,1.2,1.734,4.078-.522,6.662-8.155,4.319-9.182,2-6.793-2.952-7.147-.97-6.37-1.371-2.105-1.287-3.691-9.945-3.394-1.608,2.653-2.71-1.037-2.792.673-2.017-3.83-5.875-.25,7.211-11.686,2.956-7.623,2.394-3.732,14.3-2.615h5.516l.892-3.031s8.6,1.04,9.14,1.178-1.018,1.928-1.018,1.928l.99,1.123,10.542-3.553-1.579-1.5-2.929-.307,1.453-6.931-.162-4.151,5.068-1.964,5.571-1.1.705,4.412,4.879,1.693,3.661-7-3.254-4.836,6.658-.706,1.874,10.418-4.172,2.473-.874,10.115-.956,4.373-3.781,1.993,1.117,3.445-.68,6.208,12.642,15.781,4.668,6.087,4.35-2.47-.964-6.491,3.585-1.749-1.968-4.806,3.809-2.6L1311.62,3192l4.235-.15-2.975-3-2.76-.061.406-4.387-3.275-.8-.826,1.814-2.474-2.009.521-6.7-2.176-4.317,6.23-3.16,2.423,2.983,3-4.815,4.632-.631,5.558,2.931.116-2.318,2.048-7.893,8.706-8.475,5.7.125.153-3.046-18.305-9.318Z" transform="translate(-216.884 -3066.938)" fill="#a0c433"/>
              <path id="Trazado_652562" data-name="Trazado 652562" d="M723.089,3268.288l3.082-2.744-1.073-4.293-4.29-2.535-7.823,1.9-5.495-.487-.324,2.8-3.157.542.469-2.065-3.521-3.129-3.2,1.457s-3.815,2.659-3.268,2.795,7.173.159,7.173.159l-.823,1.692-5.885-.129.644,1.842,3.651.081,1.963,1.754-3.155.539.99,1.732,4.988.11,5.442,1.583Z" transform="translate(-213.507 -3150.498)" fill="#a0c433"/>
              <path id="Trazado_652563" data-name="Trazado 652563" d="M801.523,3335.894l-1.223,2.445-.4,2.433,1.745.038,1.247-2.844-.116,2.319-1.31,2.354,1.927.042,3.617-.653s-1.177,1.5-1.094,1.684.593,1.113.593,1.113l2.018.045-.879,2.97-4.624-.528-.526,2.243,1.73.344-.258,1.463-3.637,1.019.581,1.293,2.587-.248,1.8.711,1.824.344,2.918-1.277L808,3355.358l-3.947-.087-1.7.937-4.18,2.6,1.72.585,3.557-1.261,2.187.474,2.294-1.783s3.217.071,3.491.139,8.288-.124,8.288-.124l3.5-2-3.1-.677,3.727-2.726-.909-2.094-4.78-.106.554-1.148-.9-1.058-2.053-3.034-1.172-.454-2.243-3.043-2.754-1.953-3.494-.077,3.072-.723-.321-.86,3.218-3.656-2.919-.55-3.885.4.253-1.336,2.631-1.042-.033-1.221-5.424-.12-1.242,2.782-1.359,1.435-.074,1.464-1.807,1.179.469,1.656Z" transform="translate(-264.878 -3187.14)" fill="#a0c433"/>
              <path id="Trazado_652564" data-name="Trazado 652564" d="M775.5,3354.312l1.531.707-1.6.572-4.958-.109-.067,1.344,1.439.642-1.518.942,2.8,1.039-2.945,1.888,3.583.079-3.626.777-2.13.255,1.368,2.107,2.716.852,3.835-1.257,4.819-.747,1.118-.222.762-2.365-.195-2.689-.268-.923.279-.1,2.157-.789-.684-2.854-2.42-.328-.616-.089-3.086-.451Z" transform="translate(-249.944 -3199.118)" fill="#a0c433"/>
              <path id="Trazado_652565" data-name="Trazado 652565" d="M1150.878,3746.118l-4.768,3.315-7.979,1.414-3.675,3.58,1.979,4.562-4.736,6.364-.22,4.392,5.984,5.381,7.623-1.539,12.78-23.649,1.817.405.116-2.316-2.743-7.631Z" transform="translate(-429.938 -3399.039)" fill="#a0c433"/>
            </g>
            <ellipse id="Elipse_7847" data-name="Elipse 7847" cx="361.443" cy="239.807" rx="361.443" ry="239.807" transform="translate(86.231 20.478)" fill="#fff" opacity="0.3" style="mix-blend-mode: soft-light;isolation: isolate"/>
          </g>
        </g>
        <g id="Grupo_975426" data-name="Grupo 975426" transform="translate(3054.57 -6543.47)">
          <path id="Trazado_652566" data-name="Trazado 652566" d="M1259.693,3170.547c-3.932,10.956-11.3,19.676-20.28,24.014,0,0-7.335,4.348-13.8,5.19s-14.734-1.472-14.734-1.472c-9.85-1.886-19.376-8.412-26.217-17.97a19.233,19.233,0,0,1-3.152-6.089c-.628-2.288-.524-4.932.652-6.666,1.8-2.655,5.328-2.2,8.007-.6s5.035,4.132,7.832,5.3,6.418.272,7.2-3.128c.628-2.784-.988-5.926-3.063-7.508s-4.506-2.021-6.845-2.579c-3.4-.823-7.022-2.191-9.328-5.586s-2.345-9.307.684-11.037c2.033-1.157,4.545-.065,6.6,1.4s4.042,3.335,6.318,3.9a4.11,4.11,0,0,0,5.161-3.706,6.1,6.1,0,0,0-2.372-4.911,12.807,12.807,0,0,0-4.5-1.939c-3.446-1.021-7.1-2.491-9.43-5.975s-2.406-9.487.655-11.29c2-1.188,4.523-.211,6.579,1.26s3.921,3.422,6.124,4.392,4.974.6,6.052-1.81c1.534-3.425-1.185-7.637-2.225-11.561a12.961,12.961,0,0,1-.3-5.052,7.028,7.028,0,0,1,6-6.014,7.288,7.288,0,0,1,8.149,4.169,13.173,13.173,0,0,1,1.108,4.936c.088,4.063-1.363,8.808,1.072,11.72,1.7,2.063,4.483,1.7,6.338.206s3.117-3.864,4.678-5.806,3.724-3.536,5.993-2.9c3.461.966,5.052,6.783,3.768,10.727s-4.4,6.3-7.437,8.165a12.324,12.324,0,0,0-3.794,3.026,5.983,5.983,0,0,0-.926,5.333,4.2,4.2,0,0,0,6,2.254c2.036-1.122,3.432-3.446,5-5.385s3.7-3.624,5.977-3.023c3.4.891,5,6.617,3.727,10.47s-4.389,6.088-7.437,7.755c-2.1,1.141-4.323,2.181-5.891,4.24s-2.243,5.509-.858,8.019c1.695,3.08,5.426,3,7.8,1.166s3.951-4.874,6.09-7.105,5.4-3.553,7.874-1.462c1.621,1.364,2.442,3.885,2.486,6.251A19.1,19.1,0,0,1,1259.693,3170.547Z" transform="translate(-1181.131 -3100.979)" fill="#a0c433"/>
          <path id="Trazado_652567" data-name="Trazado 652567" d="M1225.615,3199.882c-6.462.842-14.734-1.472-14.734-1.472-9.85-1.887-19.376-8.412-26.217-17.97a19.225,19.225,0,0,1-3.152-6.088c-.628-2.288-.524-4.932.652-6.666,1.8-2.655,5.328-2.2,8.007-.6s5.035,4.133,7.832,5.3,6.418.271,7.2-3.128c.628-2.784-.988-5.926-3.063-7.507s-4.506-2.022-6.845-2.58c-3.4-.822-7.022-2.191-9.328-5.586s-2.345-9.308.684-11.038c2.033-1.157,4.545-.065,6.6,1.4s4.042,3.335,6.318,3.9a4.11,4.11,0,0,0,5.161-3.706,6.1,6.1,0,0,0-2.372-4.911,12.812,12.812,0,0,0-4.5-1.94c-3.446-1.021-7.1-2.491-9.43-5.974s-2.406-9.487.655-11.29c2-1.189,4.523-.211,6.579,1.26s3.921,3.423,6.124,4.391,4.974.6,6.052-1.81c1.534-3.425-1.185-7.637-2.225-11.561a12.96,12.96,0,0,1-.3-5.052,7.026,7.026,0,0,1,6-6.014Z" transform="translate(-1181.131 -3101.111)" fill="#a0c433" style="mix-blend-mode: multiply;isolation: isolate"/>
          <path id="Trazado_652568" data-name="Trazado 652568" d="M1231.626,3176.225q-.714-5.454-1.473-10.9l6.083-4.3c2.1-1.5,4.222-2.97,6.309-4.486l6.28-4.523c2.078-1.528,4.171-3.037,6.237-4.581-2.16,1.42-4.293,2.877-6.44,4.315l-6.4,4.372c-2.138,1.45-4.244,2.941-6.367,4.411l-5.811,4.045q-.7-5.1-1.405-10.2-.885-6.031-1.751-12.065c1.751-1.326,3.483-2.675,5.225-4.011,1.81-1.4,3.635-2.784,5.433-4.2l5.4-4.239c1.784-1.432,3.583-2.847,5.352-4.3-1.871,1.326-3.714,2.688-5.571,4.032l-5.523,4.089c-1.843,1.361-3.659,2.755-5.49,4.131-1.644,1.247-3.3,2.484-4.936,3.738q-.656-4.5-1.334-9.006l-1.672-10.9c-.591-3.631-1.151-7.265-1.769-10.891.411,3.653.881,7.3,1.32,10.95l1.416,10.936q.588,4.495,1.21,8.984c-3.656-1.676-7.3-3.38-10.972-5.023l-5.837-2.616c-1.956-.852-3.9-1.722-5.866-2.557,1.9.965,3.815,1.893,5.723,2.84l5.753,2.781c3.752,1.817,7.537,3.567,11.306,5.352q.831,6.046,1.664,12.093.746,5.092,1.477,10.186l-6.616-2.42c-2.418-.88-4.829-1.779-7.256-2.635l-7.274-2.592c-2.433-.842-4.858-1.7-7.3-2.528,2.385.963,4.785,1.886,7.177,2.831l7.2,2.766c2.4.93,4.813,1.818,7.22,2.724l6.952,2.6q.79,5.447,1.608,10.889l1.672,10.9q.4,2.477.8,4.957l-7.91-3.009c-2.746-1.041-5.485-2.1-8.242-3.116l-8.259-3.073c-2.762-1-5.516-2.027-8.286-3.011,2.713,1.123,5.441,2.206,8.161,3.311l8.188,3.246c2.726,1.091,5.468,2.141,8.2,3.206l8.212,3.188.057.022c.276,1.724.556,3.448.85,5.17-.195-1.735-.4-3.469-.616-5.2l.045-.032,7.275-5.2c2.421-1.741,4.859-3.459,7.264-5.219l7.234-5.257c2.4-1.772,4.807-3.525,7.19-5.315-2.479,1.666-4.929,3.367-7.4,5.049l-7.351,5.106c-2.456,1.694-4.88,3.431-7.321,5.144l-7.033,4.965q-.307-2.493-.61-4.986Z" transform="translate(-1190.816 -3106.017)" fill="#8a6340"/>
        </g>
        <g id="Grupo_975427" data-name="Grupo 975427" transform="translate(2462.993 -6536.908)">
          <path id="Trazado_652569" data-name="Trazado 652569" d="M78.254,3197.934c-9.218,7.368-20.156,11.138-30.114,10.389,0,0-8.565.072-14.509-2.406s-11.731-8.53-11.731-8.53c-7.36-6.469-11.956-16.722-12.643-28.224a18.64,18.64,0,0,1,.586-6.732,8.724,8.724,0,0,1,4.129-5.343c2.956-1.366,5.708.762,7.126,3.447s2.063,6,3.816,8.37,5.308,3.4,7.8.9a7.817,7.817,0,0,0,1.423-7.893c-.907-2.377-2.745-3.944-4.434-5.574-2.45-2.379-4.793-5.331-4.931-9.355-.139-4.008,3-9.068,6.5-9.042,2.348.021,3.9,2.19,4.863,4.448s1.647,4.831,3.277,6.436a4.213,4.213,0,0,0,6.373-.6,5.944,5.944,0,0,0,.618-5.345,11.966,11.966,0,0,0-2.788-3.874c-2.381-2.57-4.7-5.625-4.81-9.736-.113-4.1,3.043-9.251,6.612-9.272,2.341-.019,3.957,2.055,4.915,4.321s1.5,4.845,2.849,6.757,3.9,2.97,6.114,1.452c3.14-2.153,3.089-7.076,4.31-10.924a13.226,13.226,0,0,1,2.457-4.44,7.322,7.322,0,0,1,8.328-2.146,6.861,6.861,0,0,1,4.689,7.568,13.192,13.192,0,0,1-1.706,4.743c-2.1,3.5-5.883,6.811-5.375,10.49.339,2.593,2.9,3.66,5.277,3.306s4.721-1.744,7.089-2.623,5.061-1.165,6.65.494c2.423,2.531.656,8.261-2.551,10.978s-7.113,3.18-10.7,3.264a12.826,12.826,0,0,0-4.847.7,6.23,6.23,0,0,0-3.647,4.074,3.984,3.984,0,0,0,3.894,4.883c2.332.052,4.764-1.233,7.141-2.1s5.087-1.253,6.7.383c2.408,2.435.7,8.094-2.448,10.74s-6.995,3.006-10.479,2.916c-2.4-.069-4.843-.282-7.28.693s-4.861,3.574-5.03,6.391c-.212,3.454,3,5.23,6,4.844,3-.37,5.971-2.189,8.986-3.03s6.5-.352,7.476,2.648c.647,1.959-.009,4.509-1.239,6.541A19.99,19.99,0,0,1,78.254,3197.934Z" transform="translate(-9.193 -3114.525)" fill="#83ad1d"/>
          <path id="Trazado_652570" data-name="Trazado 652570" d="M33.63,3205.917c-5.943-2.478-11.731-8.53-11.731-8.53-7.36-6.469-11.956-16.722-12.643-28.224a18.64,18.64,0,0,1,.586-6.732,8.724,8.724,0,0,1,4.129-5.343c2.956-1.366,5.708.762,7.126,3.447s2.063,6,3.816,8.37,5.308,3.4,7.8.9a7.817,7.817,0,0,0,1.423-7.893c-.907-2.377-2.745-3.944-4.434-5.574-2.45-2.379-4.793-5.331-4.931-9.355-.139-4.008,3-9.068,6.5-9.042,2.348.021,3.9,2.19,4.863,4.448s1.647,4.831,3.277,6.436a4.213,4.213,0,0,0,6.373-.6,5.944,5.944,0,0,0,.618-5.345,11.966,11.966,0,0,0-2.788-3.874c-2.381-2.57-4.7-5.625-4.81-9.736-.113-4.1,3.043-9.251,6.612-9.272,2.341-.019,3.957,2.055,4.915,4.321s1.5,4.845,2.849,6.757,3.9,2.97,6.114,1.452c3.14-2.153,3.089-7.076,4.31-10.924a13.226,13.226,0,0,1,2.457-4.44,7.322,7.322,0,0,1,8.328-2.146Z" transform="translate(-9.193 -3114.525)" fill="#83ad1d" style="mix-blend-mode: multiply;isolation: isolate"/>
          <path id="Trazado_652571" data-name="Trazado 652571" d="M54,3185.051q2.317-4.989,4.6-9.994l7.477-.652c2.589-.232,5.181-.437,7.768-.695l7.764-.741c2.586-.272,5.173-.52,7.757-.812-2.6.141-5.191.325-7.787.486l-7.78.556c-2.595.176-5.184.4-7.776.6l-7.107.567q2.137-4.682,4.277-9.363,2.482-5.562,4.982-11.118c2.2-.262,4.395-.553,6.592-.827,2.29-.3,4.582-.57,6.869-.884l6.862-.936c2.284-.336,4.571-.65,6.852-1.008-2.3.2-4.6.449-6.9.675l-6.887.747c-2.3.246-4.586.533-6.88.8-2.067.247-4.135.481-6.2.738q1.859-4.151,3.7-8.312l4.426-10.093c1.445-3.377,2.919-6.742,4.338-10.13-1.61,3.308-3.167,6.639-4.751,9.958l-4.663,9.994q-1.91,4.109-3.789,8.233c-2.208-3.231-4.39-6.478-6.631-9.689l-3.557-5.107c-1.2-1.69-2.392-3.391-3.614-5.071,1.1,1.757,2.227,3.493,3.341,5.24l3.4,5.206c2.214,3.4,4.492,6.755,6.737,10.133q-2.536,5.55-5.072,11.1-2.1,4.7-4.207,9.387l-4.325-5.325c-1.583-1.943-3.149-3.9-4.754-5.824l-4.791-5.8c-1.616-1.918-3.214-3.849-4.847-5.755,1.51,2,3.055,3.968,4.581,5.952l4.638,5.91c1.539,1.975,3.115,3.922,4.675,5.882l4.512,5.648q-2.25,5.018-4.473,10.048l-4.426,10.093q-.986,2.3-1.982,4.605l-5.108-6.464c-1.775-2.241-3.537-4.493-5.334-6.719l-5.37-6.693c-1.809-2.217-3.6-4.448-5.427-6.652,1.7,2.294,3.441,4.563,5.16,6.845l5.216,6.8c1.732,2.273,3.5,4.52,5.253,6.777l5.269,6.767.036.047q-1.034,2.4-2.05,4.814,1.148-2.357,2.266-4.725l.056-.005,8.974-.828c2.99-.284,5.984-.539,8.972-.846l8.967-.893c2.987-.323,5.976-.622,8.96-.965-3,.191-5.995.426-8.992.636l-8.985.708c-3,.227-5.987.506-8.981.756l-8.64.745q1.077-2.271,2.156-4.539Z" transform="translate(-17.369 -3119.747)" fill="#734c2f"/>
        </g>
      </g>
    </g>
  </g>
</svg>
