<svg xmlns="http://www.w3.org/2000/svg" xmlns:xlink="http://www.w3.org/1999/xlink" width="163.183" height="163.183" viewBox="0 0 163.183 163.183">
  <defs>
    <filter id="Elipse_7834" x="0" y="0" width="163.183" height="163.183" filterUnits="userSpaceOnUse">
      <feOffset dy="3" input="SourceAlpha"/>
      <feGaussianBlur stdDeviation="3" result="blur"/>
      <feFlood flood-opacity="0.161"/>
      <feComposite operator="in" in2="blur"/>
      <feComposite in="SourceGraphic"/>
    </filter>
  </defs>
  <g id="Grupo_981731" data-name="Grupo 981731" transform="translate(-466.746 -5488.784)">
    <g id="Grupo_975388" data-name="Grupo 975388" transform="translate(464.306 5494.784)">
      <g transform="matrix(1, 0, 0, 1, 2.44, -6)" filter="url(#Elipse_7834)">
        <circle id="Elipse_7834-2" data-name="Elipse 7834" cx="72.592" cy="72.592" r="72.592" transform="translate(9 6)" fill="#fff"/>
      </g>
      <circle id="Elipse_7835" data-name="Elipse 7835" cx="56.195" cy="56.195" r="56.195" transform="translate(27.836 16.396)" fill="#f0bd51"/>
    </g>
    <g id="cero-desperdicio" transform="translate(515 5528.069)">
      <path id="Trazado_652432" data-name="Trazado 652432" d="M275.863,40.965a15.517,15.517,0,1,0-15.517-15.517A15.535,15.535,0,0,0,275.863,40.965Zm0-29.182A13.665,13.665,0,1,1,262.2,25.448a13.68,13.68,0,0,1,13.665-13.665Z" transform="translate(-228.202)"/>
      <path id="Trazado_652433" data-name="Trazado 652433" d="M331.717,54.113a1.172,1.172,0,0,0,1.12.834,25.151,25.151,0,0,0,3.185-.72.926.926,0,0,0-.425-1.8l-1.053.248,2.767-4.792a.371.371,0,0,1,.642,0l1.761,3.051a.926.926,0,0,0,1.6-.926l-1.761-3.051a2.223,2.223,0,0,0-3.85,0l-2.767,4.792-.311-1.036a.926.926,0,1,0-1.774.533Z" transform="translate(-289.971 -31.479)"/>
      <path id="Trazado_652434" data-name="Trazado 652434" d="M308.032,140.941h5.534l-.741.787a.926.926,0,0,0,1.348,1.27l2.054-2.181a1.171,1.171,0,0,0,0-1.605l-2.054-2.18a.926.926,0,1,0-1.348,1.27l.741.787h-5.534a.37.37,0,0,1-.321-.556l1.761-3.051a.926.926,0,1,0-1.6-.926l-1.761,3.051a2.223,2.223,0,0,0,1.925,3.334Z" transform="translate(-268.048 -108.832)"/>
      <path id="Trazado_652435" data-name="Trazado 652435" d="M411.853,110.178a.926.926,0,0,0,1.153-.621l.311-1.036,2.767,4.792a.371.371,0,0,1-.321.556h-3.523a.926.926,0,1,0,0,1.852h3.523a2.223,2.223,0,0,0,1.925-3.334l-2.767-4.792,1.053.248a.926.926,0,0,0,.425-1.8l-2.915-.688a1.166,1.166,0,0,0-.847.122l-.007,0a1.167,1.167,0,0,0-.536.677l-.862,2.869A.926.926,0,0,0,411.853,110.178Z" transform="translate(-360.424 -83.614)"/>
      <path id="Trazado_652436" data-name="Trazado 652436" d="M61.756,118.041a5.577,5.577,0,0,1-2.942-1.11,7.389,7.389,0,0,0-3.712-1.391.926.926,0,0,0-.153,1.846,5.6,5.6,0,0,1,2.866,1.1,7.423,7.423,0,0,0,3.55,1.376v4.305a5.77,5.77,0,0,1-2.55-1.069,7.759,7.759,0,0,0-8.952,0,5.918,5.918,0,0,1-6.952,0,7.757,7.757,0,0,0-8.951,0,5.561,5.561,0,0,1-3.738,1.123v-4.319c.087,0,.173,0,.262,0a7.343,7.343,0,0,0,4.476-1.421,5.918,5.918,0,0,1,6.952,0,7.757,7.757,0,0,0,8.953,0c.161-.1.322-.206.487-.307a.926.926,0,0,0-.96-1.584c-.179.108-.353.22-.527.332a5.918,5.918,0,0,1-6.953,0,7.757,7.757,0,0,0-8.951,0,5.554,5.554,0,0,1-3.476,1.128c-.089,0-.176,0-.262,0V110.1h.931a1.565,1.565,0,0,0,1.563-1.563v-3.613a1.565,1.565,0,0,0-1.563-1.563H29.547V93.417a9.434,9.434,0,0,0-9.423-9.423H10v-.355a3.48,3.48,0,0,0-3.476-3.476H1.563A1.565,1.565,0,0,0,0,81.726v2.657a.926.926,0,1,0,1.852,0V82.015h4.67a1.626,1.626,0,0,1,1.624,1.624v12.61a1.626,1.626,0,0,1-1.624,1.624H1.852V88.7A.926.926,0,0,0,0,88.7v9.456a1.565,1.565,0,0,0,1.563,1.563H6.522A3.48,3.48,0,0,0,10,96.248v-.356h6.32a1.333,1.333,0,0,1,1.331,1.332v6.137h-1.6a1.565,1.565,0,0,0-1.563,1.563v3.613a1.565,1.565,0,0,0,1.563,1.563h.931v7.463a5.279,5.279,0,0,1-2.4.5,5.554,5.554,0,0,1-3.476-1.128,7.39,7.39,0,0,0-3.7-1.39A1.564,1.564,0,0,0,5.7,117.1v11.064a1.57,1.57,0,0,0,1.46,1.559,5.581,5.581,0,0,1,2.942,1.11,7.343,7.343,0,0,0,4.476,1.422,7.343,7.343,0,0,0,4.476-1.421,5.554,5.554,0,0,1,3.476-1.128,5.554,5.554,0,0,1,3.476,1.128,7.757,7.757,0,0,0,8.951,0,5.918,5.918,0,0,1,6.952,0,7.757,7.757,0,0,0,8.951,0,5.919,5.919,0,0,1,6.952,0,7.393,7.393,0,0,0,3.708,1.39,1.565,1.565,0,0,0,1.7-1.559V119.6a1.576,1.576,0,0,0-1.46-1.561Zm-45.438-24H10V85.846H20.124A7.58,7.58,0,0,1,27.7,93.417v9.945H19.5V97.225A3.187,3.187,0,0,0,16.318,94.04Zm.016,11.173h14.53v3.035H16.334ZM10.1,118.491a7.344,7.344,0,0,0,4.475,1.421,7.554,7.554,0,0,0,2.4-.354v4.178a5.2,5.2,0,0,1-2.4.5A5.554,5.554,0,0,1,11.1,123.1a7.429,7.429,0,0,0-3.55-1.373v-4.308a5.744,5.744,0,0,1,2.55,1.069Zm51.259,11.853a5.743,5.743,0,0,1-2.551-1.07,7.758,7.758,0,0,0-8.951,0,5.918,5.918,0,0,1-6.952,0,7.757,7.757,0,0,0-8.951,0,5.918,5.918,0,0,1-6.952,0,7.343,7.343,0,0,0-4.476-1.421,7.343,7.343,0,0,0-4.476,1.421A5.554,5.554,0,0,1,14.58,130.4a5.553,5.553,0,0,1-3.476-1.129,7.432,7.432,0,0,0-3.55-1.376v-4.306a5.766,5.766,0,0,1,2.55,1.07,7.343,7.343,0,0,0,4.476,1.421,6.975,6.975,0,0,0,3.789-.995.926.926,0,0,0,.458-.8V110.1h9.542v13.758a8.287,8.287,0,0,1-1.362-.756,10.61,10.61,0,0,0-1.489-.84.926.926,0,0,0-.747,1.694,9.045,9.045,0,0,1,1.236.7,7.757,7.757,0,0,0,8.951,0,5.918,5.918,0,0,1,6.952,0,7.757,7.757,0,0,0,8.951,0,5.919,5.919,0,0,1,6.953,0,7.42,7.42,0,0,0,3.55,1.375Z" transform="translate(0 -61.561)"/>
    </g>
  </g>
</svg>
