<svg xmlns="http://www.w3.org/2000/svg" width="295" height="273.064" viewBox="0 0 295 273.064">
  <g id="Grupo_975743" data-name="Grupo 975743" transform="translate(-215.246 -3417.781)">
    <g id="Grupo_975462" data-name="Grupo 975462" transform="translate(215.246 3517.766)">
      <g id="Grupo_975456" data-name="Grupo 975456">
        <rect id="Rectángulo_309015" data-name="Rectángulo 309015" width="19.006" height="19.006" transform="translate(21.674)" fill="#ebebeb"/>
        <rect id="Rectángulo_309016" data-name="Rectángulo 309016" width="19.006" height="19.006" transform="translate(21.674 21.838)" fill="#ebebeb"/>
        <rect id="Rectángulo_309017" data-name="Rectángulo 309017" width="19.006" height="19.006" transform="translate(21.674 43.399)" fill="#ebebeb"/>
        <rect id="Rectángulo_309018" data-name="Rectángulo 309018" width="19.006" height="19.006" fill="#ebebeb"/>
        <rect id="Rectángulo_309019" data-name="Rectángulo 309019" width="19.006" height="19.006" transform="translate(0 21.838)" fill="#ebebeb"/>
        <rect id="Rectángulo_309020" data-name="Rectángulo 309020" width="19.006" height="19.006" transform="translate(0 43.399)" fill="#ebebeb"/>
      </g>
      <g id="Grupo_975457" data-name="Grupo 975457" transform="translate(43.974)">
        <rect id="Rectángulo_309021" data-name="Rectángulo 309021" width="19.006" height="19.006" transform="translate(21.674)" fill="#ebebeb"/>
        <rect id="Rectángulo_309022" data-name="Rectángulo 309022" width="19.006" height="19.006" transform="translate(21.674 21.838)" fill="#ebebeb"/>
        <rect id="Rectángulo_309023" data-name="Rectángulo 309023" width="19.006" height="19.006" transform="translate(21.674 43.399)" fill="#ebebeb"/>
        <rect id="Rectángulo_309024" data-name="Rectángulo 309024" width="19.006" height="19.006" fill="#ebebeb"/>
        <rect id="Rectángulo_309025" data-name="Rectángulo 309025" width="19.006" height="19.006" transform="translate(0 21.838)" fill="#ebebeb"/>
        <rect id="Rectángulo_309026" data-name="Rectángulo 309026" width="19.006" height="19.006" transform="translate(0 43.399)" fill="#ebebeb"/>
      </g>
      <g id="Grupo_975458" data-name="Grupo 975458" transform="translate(87.948)">
        <rect id="Rectángulo_309027" data-name="Rectángulo 309027" width="19.006" height="19.006" transform="translate(21.674)" fill="#ebebeb"/>
        <rect id="Rectángulo_309028" data-name="Rectángulo 309028" width="19.006" height="19.006" transform="translate(21.674 21.838)" fill="#ebebeb"/>
        <rect id="Rectángulo_309029" data-name="Rectángulo 309029" width="19.006" height="19.006" transform="translate(21.674 43.399)" fill="#ebebeb"/>
        <rect id="Rectángulo_309030" data-name="Rectángulo 309030" width="19.006" height="19.006" fill="#ebebeb"/>
        <rect id="Rectángulo_309031" data-name="Rectángulo 309031" width="19.006" height="19.006" transform="translate(0 21.838)" fill="#ebebeb"/>
        <rect id="Rectángulo_309032" data-name="Rectángulo 309032" width="19.006" height="19.006" transform="translate(0 43.399)" fill="#ebebeb"/>
      </g>
      <g id="Grupo_975459" data-name="Grupo 975459" transform="translate(131.922)">
        <rect id="Rectángulo_309033" data-name="Rectángulo 309033" width="19.006" height="19.006" transform="translate(21.674)" fill="#ebebeb"/>
        <rect id="Rectángulo_309034" data-name="Rectángulo 309034" width="19.006" height="19.006" transform="translate(21.674 21.838)" fill="#ebebeb"/>
        <rect id="Rectángulo_309035" data-name="Rectángulo 309035" width="19.006" height="19.006" transform="translate(21.674 43.399)" fill="#ebebeb"/>
        <rect id="Rectángulo_309036" data-name="Rectángulo 309036" width="19.006" height="19.006" fill="#ebebeb"/>
        <rect id="Rectángulo_309037" data-name="Rectángulo 309037" width="19.006" height="19.006" transform="translate(0 21.838)" fill="#ebebeb"/>
        <rect id="Rectángulo_309038" data-name="Rectángulo 309038" width="19.006" height="19.006" transform="translate(0 43.399)" fill="#ebebeb"/>
      </g>
      <g id="Grupo_975460" data-name="Grupo 975460" transform="translate(175.896)">
        <rect id="Rectángulo_309039" data-name="Rectángulo 309039" width="19.006" height="19.006" transform="translate(21.674)" fill="#ebebeb"/>
        <rect id="Rectángulo_309040" data-name="Rectángulo 309040" width="19.006" height="19.006" transform="translate(21.674 21.838)" fill="#ebebeb"/>
        <rect id="Rectángulo_309041" data-name="Rectángulo 309041" width="19.006" height="19.006" transform="translate(21.674 43.399)" fill="#ebebeb"/>
        <rect id="Rectángulo_309042" data-name="Rectángulo 309042" width="19.006" height="19.006" fill="#ebebeb"/>
        <rect id="Rectángulo_309043" data-name="Rectángulo 309043" width="19.006" height="19.006" transform="translate(0 21.838)" fill="#ebebeb"/>
        <rect id="Rectángulo_309044" data-name="Rectángulo 309044" width="19.006" height="19.006" transform="translate(0 43.399)" fill="#ebebeb"/>
      </g>
      <g id="Grupo_975461" data-name="Grupo 975461" transform="translate(219.87)">
        <rect id="Rectángulo_309045" data-name="Rectángulo 309045" width="19.006" height="19.006" transform="translate(21.674)" fill="#ebebeb"/>
        <rect id="Rectángulo_309046" data-name="Rectángulo 309046" width="19.006" height="19.006" transform="translate(21.674 21.838)" fill="#ebebeb"/>
        <rect id="Rectángulo_309047" data-name="Rectángulo 309047" width="19.006" height="19.006" transform="translate(21.674 43.399)" fill="#ebebeb"/>
        <rect id="Rectángulo_309048" data-name="Rectángulo 309048" width="19.006" height="19.006" transform="translate(44.879)" fill="#ebebeb"/>
        <rect id="Rectángulo_309049" data-name="Rectángulo 309049" width="19.006" height="19.006" transform="translate(44.879 21.838)" fill="#ebebeb"/>
        <rect id="Rectángulo_309050" data-name="Rectángulo 309050" width="19.006" height="19.006" transform="translate(44.879 43.399)" fill="#ebebeb"/>
        <rect id="Rectángulo_309051" data-name="Rectángulo 309051" width="19.006" height="19.006" fill="#ebebeb"/>
        <rect id="Rectángulo_309052" data-name="Rectángulo 309052" width="19.006" height="19.006" transform="translate(0 21.838)" fill="#ebebeb"/>
        <rect id="Rectángulo_309053" data-name="Rectángulo 309053" width="19.006" height="19.006" transform="translate(0 43.399)" fill="#ebebeb"/>
      </g>
    </g>
    <g id="Grupo_975465" data-name="Grupo 975465" transform="translate(216.804 3644.52)">
      <circle id="Elipse_7850" data-name="Elipse 7850" cx="9.069" cy="9.069" r="9.069" transform="translate(17.918 6.879) rotate(-22.286)" fill="#e0e0e0"/>
      <circle id="Elipse_7851" data-name="Elipse 7851" cx="9.069" cy="9.069" r="9.069" transform="translate(38.375 2.612)" fill="#ebebeb"/>
      <circle id="Elipse_7852" data-name="Elipse 7852" cx="9.069" cy="9.069" r="9.069" transform="translate(2.985 2.612)" fill="#ebebeb"/>
      <path id="Trazado_652628" data-name="Trazado 652628" d="M217.81,3813.333h59.238s-.61,24.429-16.513,27.416l-.248,5.188H233.609v-5.281S217.809,3836.612,217.81,3813.333Z" transform="translate(-217.81 -3799.7)" fill="#e0e0e0"/>
      <g id="Grupo_975463" data-name="Grupo 975463" transform="translate(15.715 40.895)">
        <path id="Trazado_652629" data-name="Trazado 652629" d="M270.68,3858.349c0,.086-6.047.154-13.5.154s-13.505-.068-13.505-.154,6.045-.153,13.505-.153S270.68,3858.264,270.68,3858.349Z" transform="translate(-243.671 -3858.195)" fill="#fff"/>
      </g>
      <g id="Grupo_975464" data-name="Grupo 975464" transform="translate(2.569 17.178)">
        <path id="Trazado_652630" data-name="Trazado 652630" d="M276.413,3828.209s-.128.021-.379.047l-1.116.1a14.957,14.957,0,0,1-4.3-.209,8.58,8.58,0,0,1-2.9-1.158,6.593,6.593,0,0,1-2.457-2.764,4.871,4.871,0,0,1-.414-2.044,3.615,3.615,0,0,1,.75-2.087,2.543,2.543,0,0,1,.924-.738,2.213,2.213,0,0,1,1.209-.16,2.89,2.89,0,0,1,1.983,1.457,3.862,3.862,0,0,1,.341,2.569,7.276,7.276,0,0,1-1.02,2.512,8.941,8.941,0,0,1-4.411,3.563,8.547,8.547,0,0,1-6.053-.065,8.953,8.953,0,0,1-2.75-1.675,6.143,6.143,0,0,1-1.867-2.735,3.042,3.042,0,0,1,.009-1.725,2.3,2.3,0,0,1,1.087-1.378,2.825,2.825,0,0,1,3.294.749,6.222,6.222,0,0,1,1.382,3.264,9.976,9.976,0,0,1-.109,3.608,10.583,10.583,0,0,1-3.832,6.2,9.6,9.6,0,0,1-3.4,1.667,10.808,10.808,0,0,1-3.83.256,10.149,10.149,0,0,1-6.654-3.445,7.2,7.2,0,0,1-1.632-3.362,4.848,4.848,0,0,1,.757-3.583,3.667,3.667,0,0,1,3.125-1.723,3.434,3.434,0,0,1,2.913,1.935,2.584,2.584,0,0,1,.12,1.786,3.41,3.41,0,0,1-.936,1.494,6.792,6.792,0,0,1-3,1.58,12.375,12.375,0,0,1-11.782-2.944,6.814,6.814,0,0,1-1.6-2.455,4.827,4.827,0,0,1-.16-2.816,3.976,3.976,0,0,1,1.456-2.282,3.44,3.44,0,0,1,2.513-.613,3.361,3.361,0,0,1,2.162,1.19,3.592,3.592,0,0,1,.8,2.206,3.484,3.484,0,0,1-.693,2.1,5.241,5.241,0,0,1-1.56,1.379,12.268,12.268,0,0,1-3.475,1.307,22.247,22.247,0,0,1-3.077.512,21.472,21.472,0,0,1-4.309-.025,14.356,14.356,0,0,1-1.486-.226s.13.009.38.042.622.078,1.112.122a22.32,22.32,0,0,0,7.345-.567,12.222,12.222,0,0,0,3.42-1.312,5.072,5.072,0,0,0,1.5-1.34,3.29,3.29,0,0,0,.647-1.993,3.394,3.394,0,0,0-.764-2.077,3.149,3.149,0,0,0-2.031-1.105,3.213,3.213,0,0,0-2.349.581,3.747,3.747,0,0,0-1.36,2.154,4.586,4.586,0,0,0,.161,2.676,6.569,6.569,0,0,0,1.548,2.359,12.12,12.12,0,0,0,11.524,2.849,6.508,6.508,0,0,0,2.876-1.514,3.115,3.115,0,0,0,.857-1.366,2.284,2.284,0,0,0-.108-1.586,3.144,3.144,0,0,0-2.658-1.756,2.971,2.971,0,0,0-1.618.413,3.9,3.9,0,0,0-1.243,1.182,4.541,4.541,0,0,0-.706,3.363,6.891,6.891,0,0,0,1.567,3.216,9.849,9.849,0,0,0,6.452,3.335,10.521,10.521,0,0,0,3.718-.249,9.283,9.283,0,0,0,3.292-1.611,10.284,10.284,0,0,0,3.723-6.022,9.674,9.674,0,0,0,.109-3.5,5.947,5.947,0,0,0-1.3-3.11,2.54,2.54,0,0,0-2.942-.693,2.008,2.008,0,0,0-.949,1.207,2.759,2.759,0,0,0-.009,1.565,5.887,5.887,0,0,0,1.779,2.6,8.686,8.686,0,0,0,2.661,1.628,8.284,8.284,0,0,0,5.867.078,8.7,8.7,0,0,0,4.3-3.45,7.048,7.048,0,0,0,1-2.425,3.645,3.645,0,0,0-.306-2.422,2.685,2.685,0,0,0-1.827-1.359,2,2,0,0,0-1.094.14,2.336,2.336,0,0,0-.853.676,3.427,3.427,0,0,0-.718,1.973,4.69,4.69,0,0,0,.387,1.966,6.456,6.456,0,0,0,2.379,2.711,8.506,8.506,0,0,0,2.842,1.164,15.388,15.388,0,0,0,4.271.264l1.118-.065C276.283,3828.209,276.413,3828.209,276.413,3828.209Z" transform="translate(-222.038 -3819.167)" fill="#fff"/>
      </g>
    </g>
    <g id="Grupo_975479" data-name="Grupo 975479" transform="translate(442.363 3417.781)">
      <g id="Grupo_975478" data-name="Grupo 975478" transform="translate(0 10.455)">
        <path id="Trazado_652631" data-name="Trazado 652631" d="M591.419,3434.985c-.376,1.273-6.853,11.475-16.188,14.948s-16.282,7.3-13.688,11.879,14.063,2.08,14.063,2.08-23.27,25.3-1.363,39.754c26.717,17.629,54.634-45.473,54.634-45.473Z" transform="translate(-560.994 -3434.985)" fill="#ebebeb"/>
        <g id="Grupo_975466" data-name="Grupo 975466" transform="translate(24.407 7.968)">
          <path id="Trazado_652632" data-name="Trazado 652632" d="M640.238,3471.977c-.073.119-8.881-5.13-19.671-11.722s-19.481-12.036-19.408-12.155,8.879,5.128,19.672,11.723S640.31,3471.857,640.238,3471.977Z" transform="translate(-601.158 -3448.098)" fill="#e0e0e0"/>
        </g>
        <g id="Grupo_975467" data-name="Grupo 975467" transform="translate(17.112 14.038)">
          <path id="Trazado_652633" data-name="Trazado 652633" d="M631.392,3483.461c-.072.12-9.586-5.464-21.248-12.469s-21.061-12.785-20.99-12.9,9.584,5.462,21.25,12.471S631.464,3483.342,631.392,3483.461Z" transform="translate(-589.154 -3458.086)" fill="#e0e0e0"/>
        </g>
        <g id="Grupo_975468" data-name="Grupo 975468" transform="translate(6.898 18.072)">
          <path id="Trazado_652634" data-name="Trazado 652634" d="M619.806,3493.237c-.072.12-10.755-6.166-23.859-14.038s-23.672-14.354-23.6-14.473,10.753,6.165,23.861,14.04S619.878,3493.117,619.806,3493.237Z" transform="translate(-572.346 -3464.724)" fill="#e0e0e0"/>
        </g>
        <g id="Grupo_975469" data-name="Grupo 975469" transform="translate(11.411 32.471)">
          <path id="Trazado_652635" data-name="Trazado 652635" d="M616.487,3511.4c-.074.119-8.353-4.931-18.49-11.277s-18.3-11.589-18.224-11.707,8.352,4.93,18.493,11.278S616.561,3511.286,616.487,3511.4Z" transform="translate(-579.772 -3488.419)" fill="#e0e0e0"/>
        </g>
        <g id="Grupo_975470" data-name="Grupo 975470" transform="translate(6.644 41.382)">
          <path id="Trazado_652636" data-name="Trazado 652636" d="M606.087,3525.726c-.077.117-7.787-4.858-17.218-11.109s-17.017-11.416-16.94-11.533,7.786,4.857,17.219,11.111S606.164,3525.61,606.087,3525.726Z" transform="translate(-571.928 -3503.082)" fill="#e0e0e0"/>
        </g>
        <g id="Grupo_975471" data-name="Grupo 975471" transform="translate(3.914 52.312)">
          <path id="Trazado_652637" data-name="Trazado 652637" d="M594.974,3538.727a6.319,6.319,0,0,1-1.167-.549c-.736-.382-1.789-.956-3.08-1.683-2.582-1.455-6.1-3.545-9.913-5.985s-7.178-4.771-9.578-6.511c-1.2-.869-2.162-1.586-2.815-2.1a6.242,6.242,0,0,1-.986-.832,6.36,6.36,0,0,1,1.1.672l2.905,1.963c2.449,1.662,5.844,3.939,9.646,6.378s7.287,4.57,9.82,6.1l3,1.821A6.3,6.3,0,0,1,594.974,3538.727Z" transform="translate(-567.436 -3521.07)" fill="#e0e0e0"/>
        </g>
        <g id="Grupo_975472" data-name="Grupo 975472" transform="translate(0.049 23.433)">
          <path id="Trazado_652638" data-name="Trazado 652638" d="M570.57,3479.595a20.734,20.734,0,0,1-9.491-6.044c.1-.111,1.977,1.593,4.6,3.251C568.29,3478.476,570.627,3479.453,570.57,3479.595Z" transform="translate(-561.075 -3473.545)" fill="#e0e0e0"/>
        </g>
        <g id="Grupo_975473" data-name="Grupo 975473" transform="translate(27.031 21.871)">
          <path id="Trazado_652639" data-name="Trazado 652639" d="M644.594,3470.976a3.127,3.127,0,0,1-.334.547l-1.039,1.511c-.909,1.308-2.25,3.181-3.928,5.482-3.354,4.6-8.088,10.887-13.491,17.691s-10.458,12.84-14.181,17.149c-1.86,2.156-3.382,3.886-4.45,5.067l-1.237,1.354a3.128,3.128,0,0,1-.458.45,3.1,3.1,0,0,1,.38-.517l1.165-1.416,4.326-5.169c3.65-4.366,8.654-10.432,14.057-17.232s10.173-13.046,13.6-17.59l4.056-5.385,1.116-1.455A2.958,2.958,0,0,1,644.594,3470.976Z" transform="translate(-605.477 -3470.976)" fill="#e0e0e0"/>
        </g>
        <g id="Grupo_975474" data-name="Grupo 975474" transform="translate(16.725 16.473)">
          <path id="Trazado_652640" data-name="Trazado 652640" d="M630.366,3462.093c.111.086-9.169,12.2-20.724,27.043s-21.014,26.822-21.125,26.736,9.168-12.193,20.726-27.046S630.256,3462.006,630.366,3462.093Z" transform="translate(-588.516 -3462.092)" fill="#e0e0e0"/>
        </g>
        <g id="Grupo_975475" data-name="Grupo 975475" transform="translate(7.984 10.485)">
          <path id="Trazado_652641" data-name="Trazado 652641" d="M614.159,3452.24a3.354,3.354,0,0,1-.3.6l-.95,1.674c-.84,1.446-2.1,3.515-3.726,6.023-3.243,5.025-8.066,11.745-13.751,18.879s-11.055,13.414-14.932,17.959l-4.62,5.36-1.276,1.441a.337.337,0,1,1-.078-.065l1.2-1.5,4.5-5.464c3.807-4.6,9.135-10.911,14.809-18.043s10.535-13.8,13.849-18.762c1.664-2.478,2.965-4.515,3.856-5.927l1.031-1.625A3.343,3.343,0,0,1,614.159,3452.24Z" transform="translate(-574.133 -3452.24)" fill="#e0e0e0"/>
        </g>
        <g id="Grupo_975476" data-name="Grupo 975476" transform="translate(3.614 5.52)">
          <path id="Trazado_652642" data-name="Trazado 652642" d="M602.67,3444.069c.111.085-7.8,10.555-17.662,23.381s-17.955,23.16-18.065,23.075,7.8-10.552,17.664-23.384S602.56,3443.984,602.67,3444.069Z" transform="translate(-566.941 -3444.068)" fill="#e0e0e0"/>
        </g>
        <g id="Grupo_975477" data-name="Grupo 975477" transform="translate(0.252 1.273)">
          <path id="Trazado_652643" data-name="Trazado 652643" d="M593.979,3437.081a9.95,9.95,0,0,1-.832,1.4c-.278.445-.63.98-1.075,1.576s-.919,1.3-1.521,2.019a54.216,54.216,0,0,1-4.4,4.9,55.726,55.726,0,0,1-12.965,9.524,54.019,54.019,0,0,1-5.989,2.733c-.866.36-1.678.607-2.382.849s-1.319.422-1.825.553a9.964,9.964,0,0,1-1.582.376,10.048,10.048,0,0,1,1.523-.564c.5-.16,1.1-.363,1.791-.633s1.49-.535,2.342-.913a60.6,60.6,0,0,0,5.9-2.811,59.33,59.33,0,0,0,12.861-9.447,60.676,60.676,0,0,0,4.446-4.79c.616-.7,1.112-1.381,1.572-1.962s.838-1.094,1.139-1.52A10.04,10.04,0,0,1,593.979,3437.081Z" transform="translate(-561.409 -3437.08)" fill="#e0e0e0"/>
        </g>
      </g>
      <path id="Trazado_652644" data-name="Trazado 652644" d="M607.883,3430.761a17.442,17.442,0,0,1-4.652-3.535,4.645,4.645,0,0,1-1.438-2.612,3.62,3.62,0,0,1,.811-2.445,4.947,4.947,0,0,1,3.4-1.981,4.034,4.034,0,0,1,3.571,1.5c1.1,1.47.936,3.518.544,5.314a28.726,28.726,0,0,1-.8,2.93c-.165.5-.476,1.091-1,1.073a.877.877,0,0,1-.747-.758,2.91,2.91,0,0,1,.109-1.137,14.265,14.265,0,0,0,.322-3.353,3.982,3.982,0,0,0-.626-2.353,1.676,1.676,0,0,0-2.179-.516c-.8.564-.669,1.793-.289,2.7a8.361,8.361,0,0,0,2.835,3.54" transform="translate(-576.996 -3418.718)" fill="#ebebeb"/>
      <circle id="Elipse_7853" data-name="Elipse 7853" cx="2.885" cy="2.885" r="2.885" transform="translate(26.219)" fill="#e0e0e0"/>
    </g>
    <g id="Grupo_975480" data-name="Grupo 975480" transform="translate(222.674 3690.523)">
      <path id="Trazado_652645" data-name="Trazado 652645" d="M496.369,3866.758c0,.087-60.2.158-134.443.158-74.269,0-134.456-.071-134.456-.158s60.187-.158,134.456-.158C436.169,3866.6,496.369,3866.671,496.369,3866.758Z" transform="translate(-227.47 -3866.6)" fill="#263238"/>
    </g>
    <g id="Grupo_975504" data-name="Grupo 975504" transform="translate(355.09 3438.752)">
      <g id="Grupo_975501" data-name="Grupo 975501">
        <g id="Grupo_975500" data-name="Grupo 975500">
          <g id="Grupo_975499" data-name="Grupo 975499">
            <g id="Grupo_975498" data-name="Grupo 975498">
              <g id="Grupo_975497" data-name="Grupo 975497">
                <g id="Grupo_975496" data-name="Grupo 975496">
                  <g id="Grupo_975495" data-name="Grupo 975495">
                    <g id="Grupo_975494" data-name="Grupo 975494">
                      <g id="Grupo_975493" data-name="Grupo 975493">
                        <g id="Grupo_975492" data-name="Grupo 975492">
                          <g id="Grupo_975491" data-name="Grupo 975491">
                            <g id="Grupo_975490" data-name="Grupo 975490">
                              <g id="Grupo_975484" data-name="Grupo 975484" transform="translate(0.17 0.216)">
                                <g id="Grupo_975483" data-name="Grupo 975483">
                                  <g id="Grupo_975482" data-name="Grupo 975482">
                                    <g id="Grupo_975481" data-name="Grupo 975481">
                                      <path id="Trazado_652646" data-name="Trazado 652646" d="M448.729,3504.376l1.2-7.53a29.081,29.081,0,1,1,6.955,7.757l.01.013Z" transform="translate(-445.651 -3452.646)" fill="#fff"/>
                                    </g>
                                  </g>
                                </g>
                              </g>
                              <g id="Grupo_975489" data-name="Grupo 975489">
                                <g id="Grupo_975488" data-name="Grupo 975488">
                                  <g id="Grupo_975487" data-name="Grupo 975487">
                                    <g id="Grupo_975486" data-name="Grupo 975486">
                                      <g id="Grupo_975485" data-name="Grupo 975485">
                                        <path id="Trazado_652647" data-name="Trazado 652647" d="M448.619,3504.237s.194-.007.552,0l1.579.021,6.037.116-.088.17-.01-.013a.106.106,0,0,1,.02-.149.108.108,0,0,1,.131,0,28.988,28.988,0,0,0,12.732,5.582,29.654,29.654,0,0,0,9.166.106,28.89,28.89,0,0,0,9.835-3.378,29.434,29.434,0,0,0,8.677-7.513A28.158,28.158,0,0,0,502.6,3488a29.441,29.441,0,0,0-.067-13.173,28.179,28.179,0,0,0-6.363-12.239,29.572,29.572,0,0,0-5.286-4.741c-.993-.623-1.977-1.263-3-1.8l-1.57-.748-.783-.368-.814-.288a29.368,29.368,0,0,0-13.2-1.7,28.094,28.094,0,0,0-11.839,4.031,29.49,29.49,0,0,0-8.514,7.835,28.992,28.992,0,0,0-4.49,9.454q-.261,1.21-.512,2.381c-.15.784-.2,1.569-.3,2.333a26.118,26.118,0,0,0-.086,4.443,28.979,28.979,0,0,0,4.134,13.233.1.1,0,0,1,.014.07c-.408,2.395-.726,4.257-.946,5.546l-.257,1.458c-.06.331-.1.509-.1.509s.012-.156.056-.477c.049-.346.118-.824.205-1.44.194-1.308.476-3.2.837-5.629l.014.071a28.9,28.9,0,0,1-4.293-13.32,26.294,26.294,0,0,1,.058-4.5c.1-.774.141-1.57.288-2.365q.25-1.188.507-2.416a29.318,29.318,0,0,1,4.513-9.61,29.867,29.867,0,0,1,8.621-7.983,28.533,28.533,0,0,1,12.033-4.126,29.837,29.837,0,0,1,13.434,1.709l.828.293.8.374,1.6.76c1.046.549,2.049,1.2,3.06,1.834a30,30,0,0,1,5.383,4.826,28.651,28.651,0,0,1,6.473,12.464,29.91,29.91,0,0,1,.051,13.407,28.59,28.59,0,0,1-5.46,11.359,29.82,29.82,0,0,1-8.836,7.6,29.185,29.185,0,0,1-9.993,3.384,29.859,29.859,0,0,1-9.281-.161,28.916,28.916,0,0,1-12.805-5.748l.151-.148.01.013a.106.106,0,0,1-.019.149.113.113,0,0,1-.069.022l-6.1-.243-1.552-.07C448.784,3504.254,448.619,3504.237,448.619,3504.237Z" transform="translate(-445.371 -3452.291)" fill="#263238"/>
                                      </g>
                                    </g>
                                  </g>
                                </g>
                              </g>
                            </g>
                          </g>
                        </g>
                      </g>
                    </g>
                  </g>
                </g>
              </g>
            </g>
          </g>
        </g>
      </g>
      <g id="Grupo_975503" data-name="Grupo 975503" transform="translate(21.309 17.75)">
        <path id="Trazado_652648" data-name="Trazado 652648" d="M488.478,3481.8s-5.692,7.107-6.708,9.5c-.733,1.725-2.628,5.2.06,9.436,2.252,3.554,5.315,3.763,7.525,3.763a8.169,8.169,0,0,0,7.645-8.361,10.469,10.469,0,0,0-1.553-5.076c-1.136-1.571-6.652-9.556-6.652-9.556Z" transform="translate(-480.436 -3481.499)" fill="#29abe2"/>
        <g id="Grupo_975502" data-name="Grupo 975502" transform="translate(6.362 11.49)" opacity="0.5">
          <path id="Trazado_652649" data-name="Trazado 652649" d="M498.318,3500.414c.175-.085.769.606,1.015,2.014a6.789,6.789,0,0,1-6.235,7.838c-1.428.077-2.234-.346-2.191-.536.036-.234.848-.236,2.01-.568a6.965,6.965,0,0,0,5.3-6.661C498.279,3501.293,498.1,3500.5,498.318,3500.414Z" transform="translate(-490.905 -3500.406)" fill="#fff"/>
        </g>
      </g>
    </g>
    <g id="Grupo_975510" data-name="Grupo 975510" transform="translate(403.732 3622.697)">
      <path id="Trazado_652650" data-name="Trazado 652650" d="M528.271,3823.068l-2.6-67.82h40.971l-2.713,67.82Z" transform="translate(-525.513 -3755.089)" fill="#f5f5f5"/>
      <path id="Trazado_652651" data-name="Trazado 652651" d="M534.487,3829.97l-1.69-40.959,3.753-.582a31.823,31.823,0,0,1,12.4.524h0a31.826,31.826,0,0,0,11.049.7l5.386-.6-2.053,40.92a2.577,2.577,0,0,1-2.574,2.447H537.061A2.576,2.576,0,0,1,534.487,3829.97Z" transform="translate(-528.31 -3767.959)" fill="#fff"/>
      <g id="Grupo_975505" data-name="Grupo 975505">
        <path id="Trazado_652652" data-name="Trazado 652652" d="M528.172,3822.966s.221-.008.641-.012l1.858-.013,7.114-.03,26.041-.063-.118.114c.7-17.876,1.642-41.67,2.673-67.822l.158.164h-2.651l-38.32-.01.147-.153c.734,19.845,1.359,36.782,1.8,48.766.213,6,.382,10.752.5,14.018.055,1.627.1,2.882.125,3.74.012.421.021.743.028.968s0,.334,0,.334-.01-.1-.021-.316-.026-.537-.046-.95c-.037-.851-.091-2.095-.161-3.709-.134-3.258-.33-8-.577-13.982-.479-12.007-1.155-28.973-1.947-48.856l-.006-.153h.154l38.32-.011H566.7l-.007.164c-1.062,26.151-2.027,49.943-2.753,67.819l0,.114h-.113l-26.112-.062-7.087-.03-1.838-.013C528.376,3822.974,528.172,3822.966,528.172,3822.966Z" transform="translate(-525.414 -3754.987)" fill="#263238"/>
      </g>
      <g id="Grupo_975506" data-name="Grupo 975506" transform="translate(4.192 14.194)">
        <path id="Trazado_652653" data-name="Trazado 652653" d="M532.326,3778.344a2.577,2.577,0,0,1,.051.463c.021.335.049.778.084,1.332.061,1.191.146,2.856.251,4.9.182,4.168.432,9.87.708,16.168.24,6.3.457,12.006.616,16.175.063,2.045.114,3.711.15,4.9.01.555.018,1,.024,1.334a2.34,2.34,0,0,1-.013.462,2.559,2.559,0,0,1-.05-.46c-.021-.335-.049-.777-.084-1.332-.061-1.19-.146-2.855-.25-4.9-.182-4.167-.432-9.87-.708-16.171-.24-6.3-.457-12-.616-16.172-.063-2.045-.114-3.711-.151-4.9-.01-.555-.019-1-.025-1.334A2.542,2.542,0,0,1,532.326,3778.344Z" transform="translate(-532.313 -3778.344)" fill="#263238"/>
      </g>
      <g id="Grupo_975507" data-name="Grupo 975507" transform="translate(12.885 64.105)">
        <path id="Trazado_652654" data-name="Trazado 652654" d="M562.125,3860.635c0,.087-3.472.158-7.754.158s-7.755-.07-7.755-.158,3.471-.158,7.755-.158S562.125,3860.547,562.125,3860.635Z" transform="translate(-546.617 -3860.477)" fill="#263238"/>
      </g>
      <g id="Grupo_975508" data-name="Grupo 975508" transform="translate(35.231 24.921)">
        <path id="Trazado_652655" data-name="Trazado 652655" d="M584.952,3796c.087,0-.188,6.633-.615,14.8s-.844,14.792-.931,14.788.188-6.632.615-14.805S584.864,3795.991,584.952,3796Z" transform="translate(-583.39 -3795.996)" fill="#263238"/>
      </g>
      <g id="Grupo_975509" data-name="Grupo 975509" transform="translate(0.242 0.264)">
        <path id="Trazado_652656" data-name="Trazado 652656" d="M566.683,3755.54a2.123,2.123,0,0,1-.4.138c-.264.082-.655.2-1.164.324-1.015.263-2.5.59-4.354.879-3.709.6-8.883.926-14.589,1.228a80.5,80.5,0,0,1-8.069.043,40.972,40.972,0,0,1-6.541-.821,30.956,30.956,0,0,1-4.265-1.251c-.488-.194-.86-.362-1.113-.471a2.13,2.13,0,0,1-.378-.185,2.1,2.1,0,0,1,.4.126l1.13.414a35.636,35.636,0,0,0,4.268,1.148,43,43,0,0,0,6.51.749c2.468.113,5.187.073,8.039-.068,5.7-.3,10.872-.591,14.572-1.133,1.852-.26,3.337-.552,4.358-.777l1.175-.266A2.011,2.011,0,0,1,566.683,3755.54Z" transform="translate(-525.812 -3755.422)" fill="#263238"/>
      </g>
    </g>
    <g id="Grupo_975709" data-name="Grupo 975709" transform="translate(224.079 3448.889)">
      <g id="Grupo_975695" data-name="Grupo 975695">
        <g id="Grupo_975694" data-name="Grupo 975694">
          <g id="Grupo_975693" data-name="Grupo 975693">
            <path id="Trazado_652657" data-name="Trazado 652657" d="M347.049,3578.928c-8.666-26.546,4.866-50.028-4.56-83.311-5.786-20.432-35.756-26.49-35.756-26.49-36.666-2.391-43.214,23.285-46.915,46.672-1.741,11-16.9,51.758-18.672,68.332-1.906,16.54,7.08,20.619-5.224,34.748-2.524,2.9-6.722,9.5-6.072,13.151a10.441,10.441,0,0,0,7.118,8.3c-3.647,4.929-2.569,11.982,1.568,16.577s10.75,6.921,17.262,7.275,12.984-1.063,19.2-2.865c21.408-6.2,41.35-17.336,55.666-33.113S356.832,3601.907,347.049,3578.928Z" transform="translate(-229.782 -3468.972)" fill="#263238"/>
            <g id="Grupo_975666" data-name="Grupo 975666" transform="translate(48.212 7.539)">
              <g id="Grupo_975665" data-name="Grupo 975665">
                <g id="Grupo_975512" data-name="Grupo 975512">
                  <g id="Grupo_975511" data-name="Grupo 975511">
                    <path id="Trazado_652658" data-name="Trazado 652658" d="M342.736,3483.564l-2.294-2.187-24.789,9.991a6.92,6.92,0,0,0-6.534,6.7l3.172,48.2c-.031,5.477-.482,43.457-.482,43.457l5.383,8.3c7.938,10.48,24.267,9.618,30.552-1.93a8.8,8.8,0,0,0,.876-2.088,16.431,16.431,0,0,0,.369-1.806c.738-6.5,1.368-6.533,1.368-6.533.442-7.134,0-15.662,0-15.6,0,0,15.182-1.745,19.287-21.234,2.041-9.693,1.656-23.026,1.082-36.151C369.933,3494.519,357.335,3483.547,342.736,3483.564Z" transform="translate(-309.119 -3481.378)" fill="#ffbf9d"/>
                  </g>
                </g>
                <g id="Grupo_975664" data-name="Grupo 975664" transform="translate(15.279 21.792)">
                  <g id="Grupo_975663" data-name="Grupo 975663">
                    <g id="Grupo_975662" data-name="Grupo 975662">
                      <g id="Grupo_975633" data-name="Grupo 975633" transform="translate(0 11.53)">
                        <g id="Grupo_975632" data-name="Grupo 975632">
                          <g id="Grupo_975631" data-name="Grupo 975631">
                            <g id="Grupo_975556" data-name="Grupo 975556" transform="translate(11.335 0.269)">
                              <g id="Grupo_975526" data-name="Grupo 975526" transform="translate(0 9.292)">
                                <g id="Grupo_975525" data-name="Grupo 975525">
                                  <g id="Grupo_975524" data-name="Grupo 975524">
                                    <g id="Grupo_975523" data-name="Grupo 975523">
                                      <g id="Grupo_975522" data-name="Grupo 975522">
                                        <g id="Grupo_975521" data-name="Grupo 975521">
                                          <g id="Grupo_975520" data-name="Grupo 975520">
                                            <g id="Grupo_975519" data-name="Grupo 975519">
                                              <g id="Grupo_975518" data-name="Grupo 975518">
                                                <g id="Grupo_975517" data-name="Grupo 975517">
                                                  <g id="Grupo_975516" data-name="Grupo 975516">
                                                    <g id="Grupo_975515" data-name="Grupo 975515">
                                                      <g id="Grupo_975514" data-name="Grupo 975514">
                                                        <g id="Grupo_975513" data-name="Grupo 975513">
                                                          <path id="Trazado_652659" data-name="Trazado 652659" d="M357.955,3554.348a2.522,2.522,0,0,1-2.557,2.42,2.413,2.413,0,0,1-2.484-2.4,2.524,2.524,0,0,1,2.554-2.421A2.414,2.414,0,0,1,357.955,3554.348Z" transform="translate(-352.915 -3551.944)" fill="#263238"/>
                                                        </g>
                                                      </g>
                                                    </g>
                                                  </g>
                                                </g>
                                              </g>
                                            </g>
                                          </g>
                                        </g>
                                      </g>
                                    </g>
                                  </g>
                                </g>
                              </g>
                              <g id="Grupo_975540" data-name="Grupo 975540" transform="translate(24.929 9.292)">
                                <g id="Grupo_975539" data-name="Grupo 975539">
                                  <g id="Grupo_975538" data-name="Grupo 975538">
                                    <g id="Grupo_975537" data-name="Grupo 975537">
                                      <g id="Grupo_975536" data-name="Grupo 975536">
                                        <g id="Grupo_975535" data-name="Grupo 975535">
                                          <g id="Grupo_975534" data-name="Grupo 975534">
                                            <g id="Grupo_975533" data-name="Grupo 975533">
                                              <g id="Grupo_975532" data-name="Grupo 975532">
                                                <g id="Grupo_975531" data-name="Grupo 975531">
                                                  <g id="Grupo_975530" data-name="Grupo 975530">
                                                    <g id="Grupo_975529" data-name="Grupo 975529">
                                                      <g id="Grupo_975528" data-name="Grupo 975528">
                                                        <g id="Grupo_975527" data-name="Grupo 975527">
                                                          <path id="Trazado_652660" data-name="Trazado 652660" d="M398.977,3554.348a2.523,2.523,0,0,1-2.557,2.42,2.413,2.413,0,0,1-2.483-2.4,2.523,2.523,0,0,1,2.554-2.421A2.414,2.414,0,0,1,398.977,3554.348Z" transform="translate(-393.937 -3551.944)" fill="#263238"/>
                                                        </g>
                                                      </g>
                                                    </g>
                                                  </g>
                                                </g>
                                              </g>
                                            </g>
                                          </g>
                                        </g>
                                      </g>
                                    </g>
                                  </g>
                                </g>
                              </g>
                              <g id="Grupo_975555" data-name="Grupo 975555" transform="translate(22.45)">
                                <g id="Grupo_975554" data-name="Grupo 975554">
                                  <g id="Grupo_975553" data-name="Grupo 975553">
                                    <g id="Grupo_975552" data-name="Grupo 975552">
                                      <g id="Grupo_975551" data-name="Grupo 975551">
                                        <g id="Grupo_975550" data-name="Grupo 975550">
                                          <g id="Grupo_975549" data-name="Grupo 975549">
                                            <g id="Grupo_975548" data-name="Grupo 975548">
                                              <g id="Grupo_975547" data-name="Grupo 975547">
                                                <g id="Grupo_975546" data-name="Grupo 975546">
                                                  <g id="Grupo_975545" data-name="Grupo 975545">
                                                    <g id="Grupo_975544" data-name="Grupo 975544">
                                                      <g id="Grupo_975543" data-name="Grupo 975543">
                                                        <g id="Grupo_975542" data-name="Grupo 975542">
                                                          <g id="Grupo_975541" data-name="Grupo 975541">
                                                            <path id="Trazado_652661" data-name="Trazado 652661" d="M399.81,3539.557c-.329.314-2.167-1.195-4.879-1.324-2.707-.167-4.767,1.128-5.044.781-.137-.154.211-.731,1.108-1.319a6.929,6.929,0,0,1,4.058-1.031,6.651,6.651,0,0,1,3.862,1.464C399.718,3538.809,399.971,3539.417,399.81,3539.557Z" transform="translate(-389.858 -3536.653)" fill="#263238"/>
                                                          </g>
                                                        </g>
                                                      </g>
                                                    </g>
                                                  </g>
                                                </g>
                                              </g>
                                            </g>
                                          </g>
                                        </g>
                                      </g>
                                    </g>
                                  </g>
                                </g>
                              </g>
                            </g>
                            <g id="Grupo_975572" data-name="Grupo 975572" transform="translate(6.387)">
                              <g id="Grupo_975571" data-name="Grupo 975571">
                                <g id="Grupo_975570" data-name="Grupo 975570">
                                  <g id="Grupo_975569" data-name="Grupo 975569">
                                    <g id="Grupo_975568" data-name="Grupo 975568">
                                      <g id="Grupo_975567" data-name="Grupo 975567">
                                        <g id="Grupo_975566" data-name="Grupo 975566">
                                          <g id="Grupo_975565" data-name="Grupo 975565">
                                            <g id="Grupo_975564" data-name="Grupo 975564">
                                              <g id="Grupo_975563" data-name="Grupo 975563">
                                                <g id="Grupo_975562" data-name="Grupo 975562">
                                                  <g id="Grupo_975561" data-name="Grupo 975561">
                                                    <g id="Grupo_975560" data-name="Grupo 975560">
                                                      <g id="Grupo_975559" data-name="Grupo 975559">
                                                        <g id="Grupo_975558" data-name="Grupo 975558">
                                                          <g id="Grupo_975557" data-name="Grupo 975557">
                                                            <path id="Trazado_652662" data-name="Trazado 652662" d="M354.608,3539.665c-.36.277-2.036-1.412-4.718-1.818-2.674-.446-4.857.631-5.1.258-.12-.167.282-.706,1.239-1.2a6.924,6.924,0,0,1,4.143-.609,6.653,6.653,0,0,1,3.692,1.854C354.591,3538.91,354.782,3539.542,354.608,3539.665Z" transform="translate(-344.772 -3536.211)" fill="#263238"/>
                                                          </g>
                                                        </g>
                                                      </g>
                                                    </g>
                                                  </g>
                                                </g>
                                              </g>
                                            </g>
                                          </g>
                                        </g>
                                      </g>
                                    </g>
                                  </g>
                                </g>
                              </g>
                            </g>
                            <g id="Grupo_975587" data-name="Grupo 975587" transform="translate(25.551 0.537)">
                              <g id="Grupo_975586" data-name="Grupo 975586">
                                <g id="Grupo_975585" data-name="Grupo 975585">
                                  <g id="Grupo_975584" data-name="Grupo 975584">
                                    <g id="Grupo_975583" data-name="Grupo 975583">
                                      <g id="Grupo_975582" data-name="Grupo 975582">
                                        <g id="Grupo_975581" data-name="Grupo 975581">
                                          <g id="Grupo_975580" data-name="Grupo 975580">
                                            <g id="Grupo_975579" data-name="Grupo 975579">
                                              <g id="Grupo_975578" data-name="Grupo 975578">
                                                <g id="Grupo_975577" data-name="Grupo 975577">
                                                  <g id="Grupo_975576" data-name="Grupo 975576">
                                                    <g id="Grupo_975575" data-name="Grupo 975575">
                                                      <g id="Grupo_975574" data-name="Grupo 975574">
                                                        <g id="Grupo_975573" data-name="Grupo 975573">
                                                          <path id="Trazado_652663" data-name="Trazado 652663" d="M376.452,3559.748c-.005-.155,1.694-.361,4.443-.574.7-.037,1.358-.142,1.5-.608a3.524,3.524,0,0,0-.359-2.075q-.85-2.563-1.784-5.375c-2.466-7.648-4.216-13.923-3.907-14.02s2.56,6.024,5.026,13.672q.888,2.828,1.7,5.4a4.007,4.007,0,0,1,.223,2.735,1.739,1.739,0,0,1-1.189.956,4.7,4.7,0,0,1-1.184.1C378.161,3559.975,376.455,3559.9,376.452,3559.748Z" transform="translate(-376.309 -3537.095)" fill="#263238"/>
                                                        </g>
                                                      </g>
                                                    </g>
                                                  </g>
                                                </g>
                                              </g>
                                            </g>
                                          </g>
                                        </g>
                                      </g>
                                    </g>
                                  </g>
                                </g>
                              </g>
                            </g>
                            <g id="Grupo_975601" data-name="Grupo 975601" transform="translate(0 47.03)">
                              <g id="Grupo_975600" data-name="Grupo 975600">
                                <g id="Grupo_975599" data-name="Grupo 975599">
                                  <g id="Grupo_975598" data-name="Grupo 975598">
                                    <g id="Grupo_975597" data-name="Grupo 975597">
                                      <g id="Grupo_975596" data-name="Grupo 975596">
                                        <g id="Grupo_975595" data-name="Grupo 975595">
                                          <g id="Grupo_975594" data-name="Grupo 975594">
                                            <g id="Grupo_975593" data-name="Grupo 975593">
                                              <g id="Grupo_975592" data-name="Grupo 975592">
                                                <g id="Grupo_975591" data-name="Grupo 975591">
                                                  <g id="Grupo_975590" data-name="Grupo 975590">
                                                    <g id="Grupo_975589" data-name="Grupo 975589">
                                                      <g id="Grupo_975588" data-name="Grupo 975588">
                                                        <path id="Trazado_652664" data-name="Trazado 652664" d="M360.221,3621.939a50.047,50.047,0,0,1-25.959-8.337s6.363,13.969,26.118,13.116Z" transform="translate(-334.262 -3613.602)" fill="#ff9a6c"/>
                                                      </g>
                                                    </g>
                                                  </g>
                                                </g>
                                              </g>
                                            </g>
                                          </g>
                                        </g>
                                      </g>
                                    </g>
                                  </g>
                                </g>
                              </g>
                            </g>
                            <g id="Grupo_975615" data-name="Grupo 975615" transform="translate(16.044 27.624)">
                              <g id="Grupo_975614" data-name="Grupo 975614">
                                <g id="Grupo_975613" data-name="Grupo 975613">
                                  <g id="Grupo_975612" data-name="Grupo 975612">
                                    <g id="Grupo_975611" data-name="Grupo 975611">
                                      <g id="Grupo_975610" data-name="Grupo 975610">
                                        <g id="Grupo_975609" data-name="Grupo 975609">
                                          <g id="Grupo_975608" data-name="Grupo 975608">
                                            <g id="Grupo_975607" data-name="Grupo 975607">
                                              <g id="Grupo_975606" data-name="Grupo 975606">
                                                <g id="Grupo_975605" data-name="Grupo 975605">
                                                  <g id="Grupo_975604" data-name="Grupo 975604">
                                                    <g id="Grupo_975603" data-name="Grupo 975603">
                                                      <g id="Grupo_975602" data-name="Grupo 975602">
                                                        <path id="Trazado_652665" data-name="Trazado 652665" d="M368.84,3583.711a4.891,4.891,0,0,0-4.289-2.034,4.462,4.462,0,0,0-3.162,1.5,2.83,2.83,0,0,0-.377,3.221,3.284,3.284,0,0,0,3.509,1.077,10.3,10.3,0,0,0,3.57-1.895,2.993,2.993,0,0,0,.814-.763.907.907,0,0,0,.047-1.01" transform="translate(-360.664 -3581.669)" fill="#ff9a6c"/>
                                                      </g>
                                                    </g>
                                                  </g>
                                                </g>
                                              </g>
                                            </g>
                                          </g>
                                        </g>
                                      </g>
                                    </g>
                                  </g>
                                </g>
                              </g>
                            </g>
                            <g id="Grupo_975630" data-name="Grupo 975630" transform="translate(17.102 24.664)">
                              <g id="Grupo_975629" data-name="Grupo 975629">
                                <g id="Grupo_975628" data-name="Grupo 975628">
                                  <g id="Grupo_975627" data-name="Grupo 975627">
                                    <g id="Grupo_975626" data-name="Grupo 975626">
                                      <g id="Grupo_975625" data-name="Grupo 975625">
                                        <g id="Grupo_975624" data-name="Grupo 975624">
                                          <g id="Grupo_975623" data-name="Grupo 975623">
                                            <g id="Grupo_975622" data-name="Grupo 975622">
                                              <g id="Grupo_975621" data-name="Grupo 975621">
                                                <g id="Grupo_975620" data-name="Grupo 975620">
                                                  <g id="Grupo_975619" data-name="Grupo 975619">
                                                    <g id="Grupo_975618" data-name="Grupo 975618">
                                                      <g id="Grupo_975617" data-name="Grupo 975617">
                                                        <g id="Grupo_975616" data-name="Grupo 975616">
                                                          <path id="Trazado_652666" data-name="Trazado 652666" d="M362.925,3576.8c.442,0,.3,2.939,2.715,5.154s5.563,2.049,5.565,2.461c.032.188-.727.537-2.053.506a7.339,7.339,0,0,1-4.654-1.887,6.39,6.39,0,0,1-2.087-4.313C362.359,3577.485,362.724,3576.771,362.925,3576.8Z" transform="translate(-362.405 -3576.798)" fill="#263238"/>
                                                        </g>
                                                      </g>
                                                    </g>
                                                  </g>
                                                </g>
                                              </g>
                                            </g>
                                          </g>
                                        </g>
                                      </g>
                                    </g>
                                  </g>
                                </g>
                              </g>
                            </g>
                          </g>
                        </g>
                      </g>
                      <g id="Grupo_975647" data-name="Grupo 975647" transform="translate(6.387 1.48)">
                        <g id="Grupo_975646" data-name="Grupo 975646">
                          <g id="Grupo_975645" data-name="Grupo 975645">
                            <g id="Grupo_975644" data-name="Grupo 975644">
                              <g id="Grupo_975643" data-name="Grupo 975643">
                                <g id="Grupo_975642" data-name="Grupo 975642">
                                  <g id="Grupo_975641" data-name="Grupo 975641">
                                    <g id="Grupo_975640" data-name="Grupo 975640">
                                      <g id="Grupo_975639" data-name="Grupo 975639">
                                        <g id="Grupo_975638" data-name="Grupo 975638">
                                          <g id="Grupo_975637" data-name="Grupo 975637">
                                            <g id="Grupo_975636" data-name="Grupo 975636">
                                              <g id="Grupo_975635" data-name="Grupo 975635">
                                                <g id="Grupo_975634" data-name="Grupo 975634">
                                                  <path id="Trazado_652667" data-name="Trazado 652667" d="M357.2,3522.608c-.376.688-3-.068-6.208-.171-3.2-.168-5.884.365-6.2-.354-.139-.342.409-.96,1.544-1.509a10.8,10.8,0,0,1,9.455.4C356.877,3521.616,357.371,3522.278,357.2,3522.608Z" transform="translate(-344.772 -3519.673)" fill="#263238"/>
                                                </g>
                                              </g>
                                            </g>
                                          </g>
                                        </g>
                                      </g>
                                    </g>
                                  </g>
                                </g>
                              </g>
                            </g>
                          </g>
                        </g>
                      </g>
                      <g id="Grupo_975661" data-name="Grupo 975661" transform="translate(34.138)">
                        <g id="Grupo_975660" data-name="Grupo 975660">
                          <g id="Grupo_975659" data-name="Grupo 975659">
                            <g id="Grupo_975658" data-name="Grupo 975658">
                              <g id="Grupo_975657" data-name="Grupo 975657">
                                <g id="Grupo_975656" data-name="Grupo 975656">
                                  <g id="Grupo_975655" data-name="Grupo 975655">
                                    <g id="Grupo_975654" data-name="Grupo 975654">
                                      <g id="Grupo_975653" data-name="Grupo 975653">
                                        <g id="Grupo_975652" data-name="Grupo 975652">
                                          <g id="Grupo_975651" data-name="Grupo 975651">
                                            <g id="Grupo_975650" data-name="Grupo 975650">
                                              <g id="Grupo_975649" data-name="Grupo 975649">
                                                <g id="Grupo_975648" data-name="Grupo 975648">
                                                  <path id="Trazado_652668" data-name="Trazado 652668" d="M399.648,3520.292c-.507.591-2.344-.141-4.588-.284-2.239-.221-4.169.206-4.574-.46-.176-.323.154-.924,1.015-1.466a6.656,6.656,0,0,1,7.382.6C399.644,3519.354,399.873,3520,399.648,3520.292Z" transform="translate(-390.44 -3517.238)" fill="#263238"/>
                                                </g>
                                              </g>
                                            </g>
                                          </g>
                                        </g>
                                      </g>
                                    </g>
                                  </g>
                                </g>
                              </g>
                            </g>
                          </g>
                        </g>
                      </g>
                    </g>
                  </g>
                </g>
              </g>
            </g>
            <g id="Grupo_975667" data-name="Grupo 975667" transform="translate(44.844 6.214)">
              <path id="Trazado_652669" data-name="Trazado 652669" d="M307.44,3531.681s13.886,4.322,21.744-29.95c2.687-11.719,16.459-19.559,16.459-19.559l-7.315-2.976s-27.383,7.715-27.844,8.06-6.909,14.163-6.909,14.163Z" transform="translate(-303.576 -3479.197)" fill="#263238"/>
            </g>
            <g id="Grupo_975678" data-name="Grupo 975678" transform="translate(40.52 51.808)">
              <g id="Grupo_975677" data-name="Grupo 975677">
                <g id="Grupo_975676" data-name="Grupo 975676">
                  <g id="Grupo_975675" data-name="Grupo 975675">
                    <g id="Grupo_975674" data-name="Grupo 975674">
                      <g id="Grupo_975673" data-name="Grupo 975673">
                        <g id="Grupo_975672" data-name="Grupo 975672">
                          <g id="Grupo_975671" data-name="Grupo 975671">
                            <g id="Grupo_975670" data-name="Grupo 975670">
                              <g id="Grupo_975669" data-name="Grupo 975669">
                                <g id="Grupo_975668" data-name="Grupo 975668">
                                  <path id="Trazado_652670" data-name="Trazado 652670" d="M310.727,3559.839c.07-1.463-1.448-5-2.882-5.295-3.828-.795-10.8-.833-11.353,8.962-.76,13.39,12.84,11.391,12.885,11.008C309.412,3574.215,310.486,3564.892,310.727,3559.839Z" transform="translate(-296.46 -3554.226)" fill="#ffbf9d"/>
                                </g>
                              </g>
                            </g>
                          </g>
                        </g>
                      </g>
                    </g>
                  </g>
                </g>
              </g>
            </g>
            <g id="Grupo_975690" data-name="Grupo 975690" transform="translate(43.927 56.051)">
              <g id="Grupo_975689" data-name="Grupo 975689">
                <g id="Grupo_975688" data-name="Grupo 975688">
                  <g id="Grupo_975687" data-name="Grupo 975687">
                    <g id="Grupo_975686" data-name="Grupo 975686">
                      <g id="Grupo_975685" data-name="Grupo 975685">
                        <g id="Grupo_975684" data-name="Grupo 975684">
                          <g id="Grupo_975683" data-name="Grupo 975683">
                            <g id="Grupo_975682" data-name="Grupo 975682">
                              <g id="Grupo_975681" data-name="Grupo 975681">
                                <g id="Grupo_975680" data-name="Grupo 975680">
                                  <g id="Grupo_975679" data-name="Grupo 975679">
                                    <path id="Trazado_652671" data-name="Trazado 652671" d="M307.774,3571.949c-.057-.046-.242.15-.647.309a2.336,2.336,0,0,1-1.747-.063c-1.385-.6-2.448-2.913-2.377-5.33a7.715,7.715,0,0,1,.842-3.3,2.7,2.7,0,0,1,1.856-1.69,1.19,1.19,0,0,1,1.341.716c.158.385.058.648.128.674.035.037.3-.207.224-.766a1.494,1.494,0,0,0-.479-.87,1.764,1.764,0,0,0-1.271-.414,3.282,3.282,0,0,0-2.554,1.938,7.929,7.929,0,0,0-1.021,3.686c-.067,2.7,1.17,5.306,3.075,5.976a2.506,2.506,0,0,0,2.154-.233C307.731,3572.271,307.819,3571.975,307.774,3571.949Z" transform="translate(-302.067 -3561.209)" fill="#ff9a6c"/>
                                  </g>
                                </g>
                              </g>
                            </g>
                          </g>
                        </g>
                      </g>
                    </g>
                  </g>
                </g>
              </g>
            </g>
            <g id="Grupo_975692" data-name="Grupo 975692" transform="translate(54.789 14.009)">
              <g id="Grupo_975691" data-name="Grupo 975691">
                <path id="Trazado_652672" data-name="Trazado 652672" d="M319.941,3535.339a19.727,19.727,0,0,0,2.006-.4,12.108,12.108,0,0,0,4.769-2.767,16.593,16.593,0,0,0,2.487-2.913,22.4,22.4,0,0,0,2.024-3.914,84.192,84.192,0,0,0,2.884-9.738c.941-3.493,1.96-6.792,3.08-9.724a55.849,55.849,0,0,1,3.489-7.565,40.32,40.32,0,0,1,3.067-4.706c.4-.532.74-.917.96-1.187a2.946,2.946,0,0,1,.357-.4,3.058,3.058,0,0,1-.3.44c-.2.285-.527.682-.9,1.225a45.781,45.781,0,0,0-2.958,4.744,58.635,58.635,0,0,0-3.4,7.56c-1.1,2.925-2.1,6.214-3.043,9.7a80.491,80.491,0,0,1-2.925,9.77,22.3,22.3,0,0,1-2.082,3.954,16.581,16.581,0,0,1-2.563,2.935,11.859,11.859,0,0,1-4.9,2.713A7.392,7.392,0,0,1,319.941,3535.339Z" transform="translate(-319.941 -3492.026)" fill="#263238"/>
              </g>
            </g>
          </g>
        </g>
      </g>
      <g id="Grupo_975696" data-name="Grupo 975696" transform="translate(83.035 126.572)">
        <path id="Trazado_652673" data-name="Trazado 652673" d="M386.075,3677.433s-21.6-3.81-19.511,23.89c1.249,16.586,6.119,44.958,8.818,63.1.932,6.267,2.977,17.5,11.27,24.086l60.73-14.742.424-17.062-36.034-.043-8.341-50Z" transform="translate(-366.423 -3677.255)" fill="#263238"/>
      </g>
      <path id="Trazado_652674" data-name="Trazado 652674" d="M375.578,3686.768c-2.995-5.865-9.854-15.215-12.355-18.714l-24.441-28.4c0,8.144-24.064,3.018-38.552-2.238,0,0-13.084,10.1-19.743,17.528-6.993,7.8,16.919,105.423,16.919,105.423-3.486,6.947-7.309,9.949-10.947,16.489h92.715l-.316-3.392-5.6-25.81,6.3-26.771C381.759,3709.882,380.714,3696.829,375.578,3686.768Z" transform="translate(-249.171 -3535.055)" fill="#455a64"/>
      <g id="Grupo_975697" data-name="Grupo 975697" transform="translate(115.79 133.768)">
        <path id="Trazado_652675" data-name="Trazado 652675" d="M509.852,3733.861a44.764,44.764,0,1,1-44.764-44.764A44.764,44.764,0,0,1,509.852,3733.861Z" transform="translate(-420.324 -3689.097)" fill="#29abe2"/>
        <path id="Trazado_652676" data-name="Trazado 652676" d="M567.478,3767.129c.052-.52.1-1.034.126-1.551q.056-.817.081-1.631-.026.814-.081,1.631C567.574,3766.095,567.53,3766.609,567.478,3767.129Z" transform="translate(-478.054 -3718.461)" fill="#263238"/>
        <path id="Trazado_652677" data-name="Trazado 652677" d="M503.329,3778.423c-1.437,1.474-2.055,3.548-2.757,5.494s-1.649,3.975-3.424,5-4.538.394-5.006-1.615c-.254-1.091.211-2.226.177-3.348-.045-1.462-.924-2.757-1.178-4.194a11.042,11.042,0,0,1,.237-3.717c1.126-6.729.905-14.027-2.6-19.816a4.418,4.418,0,0,0-1.675-1.787,2.517,2.517,0,0,0-2.744.395c-.455.413-.762.994-1.283,1.316-1.131.7-2.673-.267-3.085-1.54a6.926,6.926,0,0,1,.321-3.953l1.364-4.808a4.246,4.246,0,0,1,1.189-2.272c.962-.765,2.371-.532,3.469-1.071,1.441-.708,1.968-2.5,3.029-3.717s3.648-1.312,3.707.309c3.74-5.182,7.841,4.427,11.4,4.469a9.644,9.644,0,0,1,3.08.059c1.723.6,2.245,2.774,2.509,4.61q.655,4.572,1.312,9.145c.167,1.161.421,2.465,1.394,3.091.746.479,1.733.421,2.488.885,2,1.225.613,4.542-1.423,5.728s-4.662,1.668-5.917,3.686c-.946,1.52-.831,3.542-1.821,5.033A20.468,20.468,0,0,1,503.329,3778.423Z" transform="translate(-443.663 -3708.11)" fill="#ff725e" opacity="0.3"/>
        <path id="Trazado_652678" data-name="Trazado 652678" d="M503.329,3778.423c-1.437,1.474-2.055,3.548-2.757,5.494s-1.649,3.975-3.424,5-4.538.394-5.006-1.615c-.254-1.091.211-2.226.177-3.348-.045-1.462-.924-2.757-1.178-4.194a11.042,11.042,0,0,1,.237-3.717c1.126-6.729.905-14.027-2.6-19.816a4.418,4.418,0,0,0-1.675-1.787,2.517,2.517,0,0,0-2.744.395c-.455.413-.762.994-1.283,1.316-1.131.7-2.673-.267-3.085-1.54a6.926,6.926,0,0,1,.321-3.953l1.364-4.808a4.246,4.246,0,0,1,1.189-2.272c.962-.765,2.371-.532,3.469-1.071,1.441-.708,1.968-2.5,3.029-3.717s3.648-1.312,3.707.309c3.74-5.182,7.841,4.427,11.4,4.469a9.644,9.644,0,0,1,3.08.059c1.723.6,2.245,2.774,2.509,4.61q.655,4.572,1.312,9.145c.167,1.161.421,2.465,1.394,3.091.746.479,1.733.421,2.488.885,2,1.225.613,4.542-1.423,5.728s-4.662,1.668-5.917,3.686c-.946,1.52-.831,3.542-1.821,5.033A20.468,20.468,0,0,1,503.329,3778.423Z" transform="translate(-443.663 -3708.11)" opacity="0.3"/>
        <path id="Trazado_652679" data-name="Trazado 652679" d="M527.459,3806.544c-.728-.039-1.494-.56-2.127-.187a2.426,2.426,0,0,0-.735,1.044,2.487,2.487,0,0,1-1.28,1.2,1.512,1.512,0,0,1-1.632-.354,1.166,1.166,0,0,1,.084-1.608,8.035,8.035,0,0,1,.712-.388c1.119-.719.808-2.524,1.735-3.459.547-.551,1.338-1.064,1.928-1.615.454-.424.662-.79,1.342-.792C530.465,3800.375,530.558,3806.71,527.459,3806.544Z" transform="translate(-459.979 -3732.756)" opacity="0.3"/>
        <path id="Trazado_652680" data-name="Trazado 652680" d="M441.74,3815.476q.479.491.975.965c.231.223.462.438.7.655-.239-.217-.471-.432-.7-.655Q442.219,3815.969,441.74,3815.476Z" transform="translate(-428.726 -3738.677)" fill="#263238" opacity="0.3"/>
        <path id="Trazado_652681" data-name="Trazado 652681" d="M566.063,3774.286q.186-.968.323-1.931-.138.964-.323,1.931c-.027.208-.067.414-.108.619-.2.992-.425,1.963-.673,2.93.249-.967.477-1.938.673-2.93C566,3774.7,566.036,3774.494,566.063,3774.286Z" transform="translate(-477.193 -3721.76)" fill="#263238"/>
        <path id="Trazado_652682" data-name="Trazado 652682" d="M566.935,3749.918q.145.911.252,1.828-.108-.917-.252-1.828s.008-.006,0-.008h0Z" transform="translate(-477.841 -3712.955)" fill="#263238"/>
        <path id="Trazado_652683" data-name="Trazado 652683" d="M539.017,3748.473q.186-.968.323-1.931t.23-1.927c.052-.52.1-1.034.126-1.551q.056-.817.081-1.632a45.051,45.051,0,0,0-.107-4.851q-.072-.926-.179-1.842t-.252-1.828l0-.008h0c-.139-.469-.292-.934-.469-1.4-1.661-4.422-4.6-8.212-6.536-12.512-.633-1.4-1.115-2.547-2.618-3.094-2.223-.815-3.648.287-4.837-2.253-.32-.681-.976-1.385-1.692-1.159.073.507.152,1.017.224,1.531a.7.7,0,0,1-.006.323c-.1.326-.605.322-.847.083a2.945,2.945,0,0,1-.454-.921,2.266,2.266,0,0,0-3.248-.93,1.312,1.312,0,0,0-.523-1.193,1.537,1.537,0,0,1-2.137.865c-.046-.458.727-.386,1.064-.7.312-.3.115-.839-.14-1.191a4.868,4.868,0,0,0-2.788-1.8,4.152,4.152,0,0,1-2.023-.658c-.313-.283-.493-.687-.814-.964a2.689,2.689,0,0,0-2.6-.094,5.056,5.056,0,0,0-3.041,2.041c-.615,1.1-.089,2.86,1.15,2.952a2.345,2.345,0,0,1,.946.077,1.164,1.164,0,0,1,.446,1.214,3.31,3.31,0,0,0-.06,1.365c.13.438.724.761,1.041.435a2.545,2.545,0,0,0,.8-2.2,3.135,3.135,0,0,1,.618-2.285c.594-.552,1.874-.086,1.627.69-.148.457-.737.693-.81,1.172s.453.855.93.927a5.122,5.122,0,0,1,1.426.208c.444.205.69.9.287,1.176-.709.552-1.985-.886-2.448-.116-.125.2-.089.453-.156.676-.193.683-1.1.769-1.8.719a3.76,3.76,0,0,1-1.994-.549,1.344,1.344,0,0,1-.348-1.858.783.783,0,0,0-1.142.187,2.353,2.353,0,0,0-.331,1.274c-.691-.306-1.461.189-1.993.725s-1.08,1.185-1.826,1.266-1.667-.411-2.165.168c-.648.755.53,2.107-.123,2.854-.372.42-1.037.273-1.6.318a2.383,2.383,0,0,0-1.643,3.415,2.751,2.751,0,0,0,3.869.751,12.929,12.929,0,0,0,2.016-2.34c.68-.771,1.8-1.375,2.7-.9a2.976,2.976,0,0,1,.868.833c.387.489.775.978,1.161,1.474a1.32,1.32,0,0,1,.407,1.088c-.091.314-.383.513-.547.791-.461.8.594,1.855,1.452,1.539a1.767,1.767,0,0,0,.8-2.337c-.521-1.163-2.055-2-1.764-3.249.972-.53,2.142.46,2.434,1.541s.078,2.239.287,3.333,1.178,2.228,2.236,1.921c-.077-.928-.148-1.847-.225-2.769.7-.346,1.138,1.153,1.913,1.071.473-.054.658-.695.549-1.172a6.328,6.328,0,0,1-.365-1.405,1.472,1.472,0,0,1,1.958-1.166,2.246,2.246,0,0,1,1.266,2.15,4.175,4.175,0,0,0,.022,1.057c.185.744.972,1.113,1.6,1.531s1.2,1.261.78,1.9c-.192.278-.562.507-.513.841.05.3.429.5.371.795-.047.2-.275.292-.471.334-.5.1-1.01.065-1.5.2a1.315,1.315,0,0,0-1.04.987c-.085.719.675,1.223.949,1.888a8.967,8.967,0,0,1,.173,2.052,7.1,7.1,0,0,0,.743,1.759c.837,1.83.7,3.945.888,5.955.081.907.351,1.954,1.181,2.288a2.658,2.658,0,0,0,1.446,0,8.52,8.52,0,0,0,3.816-1.395,3.02,3.02,0,0,0,1.008-3.673.716.716,0,0,0-.37-.36,1.283,1.283,0,0,0-.7.1,1.874,1.874,0,0,1-1.856-.809,5.69,5.69,0,0,1-.805-1.993c-.2-.769-.4-1.545-.61-2.322a1.221,1.221,0,0,1,1.46.436,8.32,8.32,0,0,1,.763,1.476,6.552,6.552,0,0,0,3.973,2.965,4.187,4.187,0,0,1,1.186.507c1.117.817,1.106,2.736,2.328,3.39a8.294,8.294,0,0,1,1.056.474,2.115,2.115,0,0,1,.647,1.585,23.107,23.107,0,0,0,.194,3.292,2.906,2.906,0,0,0,1.973,2.371,2.557,2.557,0,0,0,1.925-.452l0-.007c.249-.967.477-1.938.673-2.93C538.95,3748.886,538.99,3748.681,539.017,3748.473Z" transform="translate(-450.146 -3695.947)" fill="#ff725e" opacity="0.3"/>
        <path id="Trazado_652684" data-name="Trazado 652684" d="M539.017,3748.473q.186-.968.323-1.931t.23-1.927c.052-.52.1-1.034.126-1.551q.056-.817.081-1.632a45.051,45.051,0,0,0-.107-4.851q-.072-.926-.179-1.842t-.252-1.828l0-.008h0c-.139-.469-.292-.934-.469-1.4-1.661-4.422-4.6-8.212-6.536-12.512-.633-1.4-1.115-2.547-2.618-3.094-2.223-.815-3.648.287-4.837-2.253-.32-.681-.976-1.385-1.692-1.159.073.507.152,1.017.224,1.531a.7.7,0,0,1-.006.323c-.1.326-.605.322-.847.083a2.945,2.945,0,0,1-.454-.921,2.266,2.266,0,0,0-3.248-.93,1.312,1.312,0,0,0-.523-1.193,1.537,1.537,0,0,1-2.137.865c-.046-.458.727-.386,1.064-.7.312-.3.115-.839-.14-1.191a4.868,4.868,0,0,0-2.788-1.8,4.152,4.152,0,0,1-2.023-.658c-.313-.283-.493-.687-.814-.964a2.689,2.689,0,0,0-2.6-.094,5.056,5.056,0,0,0-3.041,2.041c-.615,1.1-.089,2.86,1.15,2.952a2.345,2.345,0,0,1,.946.077,1.164,1.164,0,0,1,.446,1.214,3.31,3.31,0,0,0-.06,1.365c.13.438.724.761,1.041.435a2.545,2.545,0,0,0,.8-2.2,3.135,3.135,0,0,1,.618-2.285c.594-.552,1.874-.086,1.627.69-.148.457-.737.693-.81,1.172s.453.855.93.927a5.122,5.122,0,0,1,1.426.208c.444.205.69.9.287,1.176-.709.552-1.985-.886-2.448-.116-.125.2-.089.453-.156.676-.193.683-1.1.769-1.8.719a3.76,3.76,0,0,1-1.994-.549,1.344,1.344,0,0,1-.348-1.858.783.783,0,0,0-1.142.187,2.353,2.353,0,0,0-.331,1.274c-.691-.306-1.461.189-1.993.725s-1.08,1.185-1.826,1.266-1.667-.411-2.165.168c-.648.755.53,2.107-.123,2.854-.372.42-1.037.273-1.6.318a2.383,2.383,0,0,0-1.643,3.415,2.751,2.751,0,0,0,3.869.751,12.929,12.929,0,0,0,2.016-2.34c.68-.771,1.8-1.375,2.7-.9a2.976,2.976,0,0,1,.868.833c.387.489.775.978,1.161,1.474a1.32,1.32,0,0,1,.407,1.088c-.091.314-.383.513-.547.791-.461.8.594,1.855,1.452,1.539a1.767,1.767,0,0,0,.8-2.337c-.521-1.163-2.055-2-1.764-3.249.972-.53,2.142.46,2.434,1.541s.078,2.239.287,3.333,1.178,2.228,2.236,1.921c-.077-.928-.148-1.847-.225-2.769.7-.346,1.138,1.153,1.913,1.071.473-.054.658-.695.549-1.172a6.328,6.328,0,0,1-.365-1.405,1.472,1.472,0,0,1,1.958-1.166,2.246,2.246,0,0,1,1.266,2.15,4.175,4.175,0,0,0,.022,1.057c.185.744.972,1.113,1.6,1.531s1.2,1.261.78,1.9c-.192.278-.562.507-.513.841.05.3.429.5.371.795-.047.2-.275.292-.471.334-.5.1-1.01.065-1.5.2a1.315,1.315,0,0,0-1.04.987c-.085.719.675,1.223.949,1.888a8.967,8.967,0,0,1,.173,2.052,7.1,7.1,0,0,0,.743,1.759c.837,1.83.7,3.945.888,5.955.081.907.351,1.954,1.181,2.288a2.658,2.658,0,0,0,1.446,0,8.52,8.52,0,0,0,3.816-1.395,3.02,3.02,0,0,0,1.008-3.673.716.716,0,0,0-.37-.36,1.283,1.283,0,0,0-.7.1,1.874,1.874,0,0,1-1.856-.809,5.69,5.69,0,0,1-.805-1.993c-.2-.769-.4-1.545-.61-2.322a1.221,1.221,0,0,1,1.46.436,8.32,8.32,0,0,1,.763,1.476,6.552,6.552,0,0,0,3.973,2.965,4.187,4.187,0,0,1,1.186.507c1.117.817,1.106,2.736,2.328,3.39a8.294,8.294,0,0,1,1.056.474,2.115,2.115,0,0,1,.647,1.585,23.107,23.107,0,0,0,.194,3.292,2.906,2.906,0,0,0,1.973,2.371,2.557,2.557,0,0,0,1.925-.452l0-.007c.249-.967.477-1.938.673-2.93C538.95,3748.886,538.99,3748.681,539.017,3748.473Z" transform="translate(-450.146 -3695.947)" opacity="0.3"/>
        <path id="Trazado_652685" data-name="Trazado 652685" d="M483.953,3698.526a10.273,10.273,0,0,0-2.461,1.909c-.825.642-2.138.956-2.8.154a1.92,1.92,0,0,1-.336-1.435,3.492,3.492,0,0,1,.879-1.958c.5-.554,1.178-.934,1.63-1.531a1.491,1.491,0,0,0-.018-2.019c-.322-.238-.782-.26-1.051-.56-.482-.537.122-1.462.831-1.585a5.025,5.025,0,0,1,2.092.4c2.515.669,4.724-.659,6.918-1.692,1.706-.8,5.134-1.472,6.637-.01a1.407,1.407,0,0,1-.108,2.164c-.335.169-.744.14-1.064.337-.383.236-.526.721-.792,1.088-.69.955-2.155,1.061-2.814,2.039-.4.588-.433,1.411-.958,1.884a2.432,2.432,0,0,1-1.572.44l-3.48.148A5.022,5.022,0,0,0,483.953,3698.526Z" transform="translate(-443.082 -3689.192)" opacity="0.3"/>
        <path id="Trazado_652686" data-name="Trazado 652686" d="M428.442,3716.771a2.045,2.045,0,0,1,2.854.661,3.2,3.2,0,0,1-.223,2.333q-.551,1.526-1.108,3.049a1.7,1.7,0,0,0-.145.95c.174.727,1.27.811,1.8.3a3.012,3.012,0,0,0,.679-2.082,4.193,4.193,0,0,1,.452-2.17c1.029-1.549,3.447-.806,5.1-1.62a8.115,8.115,0,0,0,2.372-2.461c.726-.894,1.807-1.719,2.91-1.449.372.089.713.3,1.091.363a1.561,1.561,0,0,0,1.448-2.275,2.844,2.844,0,0,1-.386-.606.957.957,0,0,1,.568-1.043,2.615,2.615,0,0,1,1.244-.152c.97.03,1.938.067,2.906.1,1.068.042,2.5-.241,2.567-1.325.055-.939-1.08-1.59-1.082-2.533a3.122,3.122,0,0,0,.013-.69c-.17-.637-1.072-.572-1.683-.369a1.376,1.376,0,0,0-1.932-1.082c-.648.358-.881,1.167-1.214,1.829a9.8,9.8,0,0,1-3.881,3.583,2.581,2.581,0,0,1-1.649.558c-.583-.086-1.063-.836-.7-1.3.25-.318.792-.425.822-.832.029-.51-.826-.642-.9-1.149.611-1.336,2.3-1.605,3.663-2.117a7.822,7.822,0,0,0,3.982-3.364,1.049,1.049,0,0,0,.2-.813c-.111-.391-.565-.539-.961-.618-.929-.2-2.116-.3-2.632.518a11.016,11.016,0,0,0-.458,1.478c-.618,1.409-2.633,1.18-4.016,1.819a11.28,11.28,0,0,1-1.576.807,5.136,5.136,0,0,1-1.91-.062c-.113-.015-.227-.022-.341-.03q-.735.7-1.434,1.437t-1.366,1.506a45.594,45.594,0,0,0-5.523,7.9q-.825,1.488-1.54,3.05t-1.32,3.194a13.08,13.08,0,0,0,1.35-2.663A5.308,5.308,0,0,1,428.442,3716.771Z" transform="translate(-422.211 -3693.494)" opacity="0.3"/>
        <path id="Trazado_652687" data-name="Trazado 652687" d="M431.238,3784.407h.007c.373.45.758.879,1.151,1.3q.464.506.942,1t.975.965c.231.222.462.438.7.655-.019-.085-.04-.163-.06-.248-.54-2.352.021-5.48,2.312-6.139a4.814,4.814,0,0,0,1.3-.4c1.1-.71.708-2.7,1.809-3.412.62-.393,1.426-.2,2.132-.366,1.269-.316,1.945-1.758,2.112-3.08a21.4,21.4,0,0,1,.4-3.955c.617-1.917,2.513-3.611,2-5.552-.575-2.168-3.455-2.407-5.261-3.684-2.523-1.787-2.686-5.456-4.005-8.287-1.183-2.53-4.485-5.708-7.5-5.612a3.621,3.621,0,0,0-3.672,2.711l-.256-.095c-.755-.238-1.651-.459-1.946-1.195-.344-.855.366-1.886.005-2.73-.188-.442-.613-.7-.933-1.053s-.541-.917-.231-1.282c.256-.311.757-.285,1.064-.555a.749.749,0,0,0,.161-.888c-.6-1.114-1.872.661-2.4,1.034a3.823,3.823,0,0,1-.422.27v.007c-.024.083-.046.16-.063.245-.063.264-.115.536-.173.805s-.12.535-.174.8c-.044.22-.08.438-.119.657s-.084.44-.119.657c-.021.106-.041.206-.055.313a46.208,46.208,0,0,0-.014,14.758,44.065,44.065,0,0,0,1.524,6.4c.27.9.585,1.794.922,2.678.42,1.091.872,2.167,1.379,3.218.466,1.005.978,2,1.532,2.96a44.78,44.78,0,0,0,2.464,3.874q1.177,1.668,2.507,3.219" transform="translate(-420.324 -3709.909)" opacity="0.3"/>
      </g>
      <g id="Grupo_975705" data-name="Grupo 975705" transform="translate(20.86 115.667)">
        <path id="Trazado_652688" data-name="Trazado 652688" d="M450.491,3828.971s15.237,8.927,16.52,9.784a11.208,11.208,0,0,0,8.071,2.42c3.553-.251,11.53-1.2,13.063-2,1.271-.668,9.267-7.336,11.956-9.591a1.644,1.644,0,0,0,.361-2.1,2.629,2.629,0,0,0-1.913-1.355c-2.453-.338-3.512.551-5.2,1.926-1.358,1.107-3.567,2.662-4.275,3.2a8.819,8.819,0,0,1-2.844.84l-17.706-1.736s-13.324-4.81-13.374-4.564S450.491,3828.971,450.491,3828.971Z" transform="translate(-337.228 -3724.622)" fill="#ffbf9d"/>
        <path id="Trazado_652689" data-name="Trazado 652689" d="M409.138,3810.4l25.694-.495c4.188-.866,6.8-1.611,10.328.6s10.054,8.849,12.795,9.612,8.245.27,10.653,2.807c1.889,1.99.569,4.694-2.059,5.281-4.136.924-13.251-2.71-13.251-2.71s-1.076.038-3.055.284a38.9,38.9,0,0,1-5.977-.126,27.744,27.744,0,0,0-7.149.813c-3.568.791-19.959,4.545-19.959,4.545Z" transform="translate(-321.005 -3718.054)" fill="#ffbf9d"/>
        <g id="Grupo_975698" data-name="Grupo 975698" transform="translate(128.262 103.524)">
          <path id="Trazado_652690" data-name="Trazado 652690" d="M491.918,3829.682a.949.949,0,0,1,.285-.013,2.877,2.877,0,0,1,.8.174,4.339,4.339,0,0,1,2.223,1.98,2.7,2.7,0,0,1,.317.975,2.747,2.747,0,0,1-.166,1.1,3.922,3.922,0,0,1-1.492,1.886,5.408,5.408,0,0,1-2.507.867,11.013,11.013,0,0,1-2.828-.119,29.671,29.671,0,0,1-5.226-1.454c-1.566-.557-2.97-1.061-4.176-1.4a20.043,20.043,0,0,0-2.894-.61,9.744,9.744,0,0,1-1.082-.133.927.927,0,0,1,.283-.017c.185,0,.461-.006.812.027a16.936,16.936,0,0,1,2.94.517c1.223.311,2.645.8,4.213,1.337a30.97,30.97,0,0,0,5.179,1.417,10.874,10.874,0,0,0,2.747.124,5.165,5.165,0,0,0,2.374-.8c1.331-.875,1.993-2.548,1.307-3.619a4.35,4.35,0,0,0-2.07-1.969A4.962,4.962,0,0,0,491.918,3829.682Z" transform="translate(-475.173 -3829.668)" fill="#ff9a6c"/>
        </g>
        <g id="Grupo_975701" data-name="Grupo 975701">
          <g id="Grupo_975700" data-name="Grupo 975700">
            <g id="Grupo_975699" data-name="Grupo 975699">
              <path id="Trazado_652691" data-name="Trazado 652691" d="M282.737,3659.311a26.537,26.537,0,0,0-13.871,10.417c-4.242,6.518-5.534,17.885-4.327,26.209,2.566,17.7,10.69,47.6,15.25,66.784.355,1.495.794,3.254,1.37,5.156,2.315,7.646,9.378,13.382,17.989,16.039a36.071,36.071,0,0,0,18.465.6l54.674-12.585-8.045-24.538-48.3.793-10.027-65.808Z" transform="translate(-264.108 -3659.311)" fill="#455a64"/>
            </g>
          </g>
        </g>
        <g id="Grupo_975702" data-name="Grupo 975702" transform="translate(42.98 88.817)">
          <path id="Trazado_652692" data-name="Trazado 652692" d="M334.838,3816.732a1.992,1.992,0,0,1,.205-.538c.149-.338.389-.817.706-1.4a30.023,30.023,0,0,1,6.45-8.023c.5-.434.914-.771,1.213-.99a2.015,2.015,0,0,1,.481-.316c.032.039-.591.567-1.543,1.472a37.674,37.674,0,0,0-6.407,7.969C335.264,3816.033,334.882,3816.754,334.838,3816.732Z" transform="translate(-334.835 -3805.467)" fill="#263238"/>
        </g>
        <g id="Grupo_975703" data-name="Grupo 975703" transform="translate(11.685 7.396)">
          <path id="Trazado_652693" data-name="Trazado 652693" d="M306.1,3681.354a6.218,6.218,0,0,1-.7-.729c-.215-.244-.481-.539-.816-.856s-.687-.708-1.132-1.08c-.431-.388-.906-.809-1.452-1.218-.525-.435-1.133-.836-1.761-1.274a27.291,27.291,0,0,0-9.118-3.878c-.751-.149-1.462-.308-2.14-.384-.673-.11-1.306-.16-1.884-.2-.577-.062-1.1-.05-1.563-.066s-.859-.009-1.183.006a6.117,6.117,0,0,1-1.012,0,6.29,6.29,0,0,1,1.006-.122,10.511,10.511,0,0,1,1.188-.06c.464,0,.994-.029,1.578.02.584.027,1.224.065,1.906.165.686.065,1.407.216,2.168.359a26.181,26.181,0,0,1,9.217,3.92c.631.449,1.239.863,1.762,1.312.544.422,1.015.857,1.441,1.258s.787.788,1.108,1.123a10.554,10.554,0,0,1,.781.9A6.071,6.071,0,0,1,306.1,3681.354Z" transform="translate(-283.337 -3671.481)" fill="#263238"/>
        </g>
        <g id="Grupo_975704" data-name="Grupo 975704" transform="translate(16.428 37.095)">
          <path id="Trazado_652694" data-name="Trazado 652694" d="M291.142,3789.639s.057.166.156.491l.434,1.448a25.32,25.32,0,0,0,2.494,5.249,18.172,18.172,0,0,0,1.152,1.64,21.527,21.527,0,0,0,1.428,1.688,24.773,24.773,0,0,0,3.817,3.255,31.549,31.549,0,0,0,11.3,4.661,45.026,45.026,0,0,0,7.113.948,26.252,26.252,0,0,0,7.752-.468c5.3-1.086,10.961-2.387,16.938-3.741,11.949-2.728,25.152-5.8,39.131-9.081l-.114.2-3.814-11.63-4.231-12.908.151.108-48.3.769-.117,0-.017-.115c-2.354-15.6-4.307-28.549-5.673-37.6l-1.562-10.492c-.175-1.2-.309-2.129-.4-2.761s-.124-.949-.124-.949.063.32.165.943.248,1.552.439,2.754c.378,2.423.93,5.966,1.634,10.481,1.393,9.05,3.384,21.991,5.783,37.587l-.133-.113,48.3-.817.116,0,.036.11,4.233,12.908,3.812,11.63.053.164-.167.039c-13.98,3.276-27.187,6.337-39.141,9.048-5.98,1.345-11.638,2.636-16.951,3.712a26.479,26.479,0,0,1-7.814.455,45.2,45.2,0,0,1-7.145-.974,31.637,31.637,0,0,1-11.349-4.73,24.826,24.826,0,0,1-3.825-3.3,21.46,21.46,0,0,1-1.427-1.708,17.91,17.91,0,0,1-1.147-1.656,24.66,24.66,0,0,1-2.453-5.292c-.189-.639-.315-1.131-.407-1.459S291.142,3789.639,291.142,3789.639Z" transform="translate(-291.142 -3720.353)" fill="#263238"/>
        </g>
      </g>
      <path id="Trazado_652695" data-name="Trazado 652695" d="M302.935,3601.951c-1.671-4.417-3.545-8.845-3.955-13.506l-22.551,43.73c2.159-2.931,6.429-3.785,10.28-3.906s7.884.213,11.391-1.253c4.634-1.938,7.261-6.714,7.636-11.378S304.606,3606.368,302.935,3601.951Z" transform="translate(-248.082 -3515.842)" fill="#263238"/>
      <g id="Grupo_975706" data-name="Grupo 975706" transform="translate(32.181 73.557)">
        <path id="Trazado_652696" data-name="Trazado 652696" d="M282.738,3630.148a.751.751,0,0,1,.173.013l.5.071,1.929.3,7.086,1.161c1.5.244,3.129.542,4.9.682a14.2,14.2,0,0,0,5.572-.523,9.933,9.933,0,0,0,4.853-3.682,14.5,14.5,0,0,0,2.4-6.163,18.791,18.791,0,0,0-.333-6.652,37.036,37.036,0,0,0-1.915-5.955c-1.517-3.7-3.145-6.935-4.187-9.792a28.588,28.588,0,0,1-1.782-6.958,17.379,17.379,0,0,1-.113-1.953c0-.208.007-.375.01-.508a.741.741,0,0,1,.014-.173.726.726,0,0,1,.018.173c.006.132.013.3.022.507.018.445.061,1.1.171,1.939a29.819,29.819,0,0,0,1.869,6.892c1.063,2.834,2.708,6.05,4.248,9.762a36.879,36.879,0,0,1,1.948,6,19,19,0,0,1,.343,6.763,14.761,14.761,0,0,1-2.465,6.3,10.206,10.206,0,0,1-5.013,3.777,14.367,14.367,0,0,1-5.685.507c-1.786-.152-3.422-.464-4.914-.722l-7.069-1.26-1.92-.358-.5-.1A.72.72,0,0,1,282.738,3630.148Z" transform="translate(-282.738 -3590.016)" fill="#263238"/>
      </g>
      <g id="Grupo_975707" data-name="Grupo 975707" transform="translate(108.565 19.089)">
        <path id="Trazado_652697" data-name="Trazado 652697" d="M417.47,3611.139c-.017-.019.3-.262.8-.833a9.513,9.513,0,0,0,1.661-2.833,13.556,13.556,0,0,0,.836-5.12,31.217,31.217,0,0,0-1.1-6.828c-.3-1.251-.658-2.554-.93-3.937q-.213-1.034-.435-2.11-.181-1.083-.368-2.205a94.218,94.218,0,0,1-.934-9.635c-.328-6.816.021-14.313.445-22.158.207-3.925.411-7.757.507-11.459s.077-7.276-.083-10.673a81.731,81.731,0,0,0-2.657-17.833,52.8,52.8,0,0,0-4.5-11.286c-.664-1.278-1.279-2.211-1.681-2.854l-.453-.734c-.1-.167-.145-.256-.145-.256s.063.078.172.238l.48.717a32.3,32.3,0,0,1,1.735,2.83,51.416,51.416,0,0,1,4.609,11.285,80.784,80.784,0,0,1,2.733,17.879c.168,3.406.2,6.987.1,10.7s-.294,7.542-.5,11.468c-.424,7.845-.781,15.33-.47,22.128a94.85,94.85,0,0,0,.9,9.608l.358,2.2q.216,1.072.425,2.1c.264,1.378.615,2.681.909,3.936a31.038,31.038,0,0,1,1.057,6.877,13.528,13.528,0,0,1-.9,5.167,9.244,9.244,0,0,1-1.728,2.83,6.569,6.569,0,0,1-.62.6C417.55,3611.08,417.47,3611.139,417.47,3611.139Z" transform="translate(-408.434 -3500.384)" fill="#263238"/>
      </g>
      <g id="Grupo_975708" data-name="Grupo 975708" transform="translate(25.183 10.004)">
        <path id="Trazado_652698" data-name="Trazado 652698" d="M271.223,3592.686s.057-.1.182-.272l.559-.778a13.363,13.363,0,0,0,.871-1.29l.517-.848.286-.468.266-.519c.357-.715.792-1.49,1.143-2.4.183-.45.4-.91.578-1.406l.535-1.553a45.606,45.606,0,0,0,1.689-7.512,73.707,73.707,0,0,0-.361-20.011c-.481-3.749-1.462-7.612-1.917-11.725a24.931,24.931,0,0,1,.012-6.3,16.663,16.663,0,0,1,.754-3.149,18.858,18.858,0,0,1,1.386-2.974c2.226-3.829,5.48-6.74,8.6-9.41,3.162-2.645,6.176-5.227,8.949-7.8a193.95,193.95,0,0,0,14.027-14.385c3.783-4.3,6.641-7.944,8.59-10.482.975-1.27,1.717-2.267,2.217-2.945l.577-.766c.131-.171.205-.255.205-.255s-.056.1-.179.273l-.551.785c-.484.691-1.211,1.7-2.171,2.982-1.921,2.562-4.755,6.236-8.52,10.555a189.014,189.014,0,0,1-14,14.453c-2.77,2.584-5.79,5.18-8.946,7.825-3.109,2.667-6.332,5.562-8.522,9.332a18.491,18.491,0,0,0-1.362,2.92,16.352,16.352,0,0,0-.741,3.089,24.689,24.689,0,0,0-.016,6.227c.447,4.082,1.423,7.953,1.9,11.717a73.18,73.18,0,0,1,.294,20.083,45.108,45.108,0,0,1-1.742,7.536l-.55,1.556c-.184.5-.4.957-.592,1.407a26,26,0,0,1-1.173,2.4l-.273.517-.294.466-.532.843a12.337,12.337,0,0,1-.9,1.276l-.585.761C271.3,3592.6,271.223,3592.686,271.223,3592.686Z" transform="translate(-271.223 -3485.434)" fill="#455a64"/>
      </g>
    </g>
    <g id="Grupo_975714" data-name="Grupo 975714" transform="translate(380.025 3563.331)">
      <g id="Grupo_975712" data-name="Grupo 975712" transform="translate(0.137 0.035)">
        <path id="Trazado_652699" data-name="Trazado 652699" d="M494,3657.626s-5.216,6.513-6.147,8.7c-.672,1.581-2.408,4.761.055,8.647,2.064,3.257,4.871,3.448,6.9,3.448a7.486,7.486,0,0,0,7.005-7.662,9.585,9.585,0,0,0-1.423-4.652c-1.04-1.439-6.1-8.757-6.1-8.757Z" transform="translate(-486.627 -3657.353)" fill="#f5f5f5"/>
        <path id="Trazado_652700" data-name="Trazado 652700" d="M502.12,3670.765a9.584,9.584,0,0,0-1.423-4.652c-1.034-1.43-6.028-8.66-6.093-8.752a3.267,3.267,0,0,0-.41,2.54,34.48,34.48,0,0,0,1.212,4.554,15.359,15.359,0,0,1,.815,4.626,6.342,6.342,0,0,1-1.6,4.317,4.895,4.895,0,0,1-3.48,1.471,5.444,5.444,0,0,1-3.711-1.456,8.7,8.7,0,0,0,.792,1.566c2.064,3.257,4.871,3.448,6.9,3.448A7.486,7.486,0,0,0,502.12,3670.765Z" transform="translate(-486.941 -3657.356)" fill="#ebebeb"/>
        <g id="Grupo_975710" data-name="Grupo 975710" transform="translate(9.56 10.527)">
          <path id="Trazado_652701" data-name="Trazado 652701" d="M506.017,3674.685c.178-.077.624.4.912,1.394a6.192,6.192,0,0,1-2.927,6.956c-.91.487-1.565.5-1.634.324-.083-.2.388-.562,1.01-1.18a7.879,7.879,0,0,0,2.5-5.946C505.888,3675.354,505.816,3674.766,506.017,3674.685Z" transform="translate(-502.359 -3674.677)" fill="#fff"/>
        </g>
        <g id="Grupo_975711" data-name="Grupo 975711" transform="translate(0.738 8.777)">
          <path id="Trazado_652702" data-name="Trazado 652702" d="M491.078,3681.338c-.126.15-.735-.081-1.452-.816a6.706,6.706,0,0,1-1.1-7.511c.477-.91.995-1.305,1.158-1.2.184.115.01.686-.16,1.557a9.165,9.165,0,0,0,.952,6.523C490.892,3680.679,491.221,3681.176,491.078,3681.338Z" transform="translate(-487.841 -3671.796)" fill="#fff"/>
        </g>
        <path id="Trazado_652703" data-name="Trazado 652703" d="M507.8,3672.784a.51.51,0,1,1-.51-.51A.51.51,0,0,1,507.8,3672.784Z" transform="translate(-494.534 -3663.207)" fill="#fff"/>
      </g>
      <g id="Grupo_975713" data-name="Grupo 975713">
        <path id="Trazado_652704" data-name="Trazado 652704" d="M493.908,3657.6s.012-.021.055-.066l.221-.223.018-.019.017.022c.552.727,2.486,3.446,5.277,7.412a9.345,9.345,0,0,1,2.18,7.829,8.42,8.42,0,0,1-.857,2.227,8.021,8.021,0,0,1-1.575,1.91,7.084,7.084,0,0,1-4.741,1.863,9.955,9.955,0,0,1-2.842-.366,6.554,6.554,0,0,1-2.443-1.352,8.269,8.269,0,0,1-1.692-2.09,7.809,7.809,0,0,1-.958-2.393,8.022,8.022,0,0,1,.475-4.687c.283-.693.551-1.335.879-1.958.333-.606.7-1.151,1.05-1.674,1.422-2.069,2.682-3.658,3.547-4.76l1.016-1.253.273-.32c.063-.07.1-.1.1-.1a.48.48,0,0,1-.076.122l-.248.339-.969,1.289c-.834,1.123-2.067,2.734-3.46,4.81-.34.522-.7,1.07-1.021,1.666-.3.589-.581,1.263-.848,1.936a7.779,7.779,0,0,0-.435,4.53,7.535,7.535,0,0,0,.934,2.3,8,8,0,0,0,1.635,2.009,6.267,6.267,0,0,0,2.331,1.285,9.7,9.7,0,0,0,2.753.351,6.79,6.79,0,0,0,4.532-1.78,7.753,7.753,0,0,0,1.517-1.829,7.551,7.551,0,0,0,.991-4.328,11.035,11.035,0,0,0-.393-2.073,7.066,7.066,0,0,0-.789-1.811c-.349-.532-.723-1.054-1.062-1.552-2.752-4-4.631-6.755-5.12-7.525l.034,0-.235.206C493.932,3657.593,493.911,3657.607,493.908,3657.6Z" transform="translate(-486.402 -3657.296)" fill="#263238"/>
      </g>
    </g>
    <g id="Grupo_975742" data-name="Grupo 975742" transform="translate(338.101 3506.025)">
      <path id="Trazado_652705" data-name="Trazado 652705" d="M621.583,3773.244a4.441,4.441,0,0,0-7.716,2.983c-.65.463-2.55,1.81-5.007,3.479a18.968,18.968,0,0,0-4.036,3.711,32.43,32.43,0,0,0-4.215-4.526c-1.872-1.607-3.477-2.978-4.145-3.548a4.448,4.448,0,1,0-4.432,3.883c.463.65,1.81,2.55,3.478,5.007a18.8,18.8,0,0,0,4.075,4.32,31.967,31.967,0,0,0-4.254,4c-1.607,1.872-2.978,3.477-3.548,4.145a4.448,4.448,0,1,0,3.884,4.432c.65-.464,2.549-1.81,5.007-3.479a19.02,19.02,0,0,0,3.62-3.217,32.356,32.356,0,0,0,4.132,4.419c1.872,1.607,3.477,2.978,4.145,3.548A4.449,4.449,0,1,0,617,3798.52c-.463-.65-1.81-2.55-3.479-5.007a18.789,18.789,0,0,0-4.074-4.32,32.848,32.848,0,0,0,4.752-4.389c1.607-1.872,2.978-3.477,3.548-4.145a4.444,4.444,0,0,0,3.833-7.415Z" transform="translate(-483.858 -3644.338)" fill="#f5f5f5"/>
      <g id="Grupo_975741" data-name="Grupo 975741">
        <g id="Grupo_975717" data-name="Grupo 975717" transform="translate(42.857)">
          <g id="Grupo_975716" data-name="Grupo 975716">
            <path id="Trazado_652706" data-name="Trazado 652706" d="M555.384,3747.741l.189-143.7v-.056a26.908,26.908,0,0,0-26.949-27.317,26.941,26.941,0,0,0-26.952,26.869v12.34H488.206v-12.34a40.445,40.445,0,0,1,69.236-28.254,39.93,39.93,0,0,1,11.6,28.866l-.19,143.6Z" transform="translate(-488.043 -3563.09)" fill="#e0e0e0"/>
            <g id="Grupo_975715" data-name="Grupo 975715">
              <path id="Trazado_652707" data-name="Trazado 652707" d="M555.278,3747.645l13.466-.047-.047.047c.008-16.76.026-51.334.048-97.2.011-11.47.023-23.645.035-36.424q0-4.793.01-9.7a41.591,41.591,0,0,0-.994-9.806,39.954,39.954,0,0,0-3.447-9.446,41.109,41.109,0,0,0-5.844-8.423,40.3,40.3,0,0,0-69.284,18.1,43.662,43.662,0,0,0-.963,10.549q0,5.292,0,10.486l-.157-.158h13.466l-.157.157c.007-4.255-.016-8.477.018-12.671a27.059,27.059,0,0,1,21.949-26.187l1.48-.225a10.1,10.1,0,0,1,1.482-.166l1.488-.075.743-.034.742.018a27.588,27.588,0,0,1,5.838.792,26.938,26.938,0,0,1,10.318,5.133,27.3,27.3,0,0,1,7.154,8.7,26.761,26.761,0,0,1,2.926,10.593c.106,1.822.038,3.619.054,5.4q0,2.679-.009,5.32-.009,5.282-.018,10.41-.019,10.253-.036,19.854c-.026,12.79-.05,24.661-.072,35.469-.117,43.239-.187,68.723-.188,69.529,0-.8,0-26.259-.005-69.447.007-10.818.014-22.7.022-35.5q.007-9.6.016-19.878.005-5.134.01-10.424,0-2.645.005-5.327c-.016-1.787.05-3.593-.057-5.388a26.5,26.5,0,0,0-2.9-10.48,27.03,27.03,0,0,0-7.083-8.609,26.635,26.635,0,0,0-10.209-5.072,27.235,27.235,0,0,0-5.774-.781l-.734-.018-.734.033-1.471.075a9.951,9.951,0,0,0-1.466.165l-1.463.224a26.753,26.753,0,0,0-21.694,25.895c-.033,4.187-.009,8.414-.016,12.667v.157H487.943v-10.644a44,44,0,0,1,.969-10.618,40.587,40.587,0,0,1,30.531-30.654,40.535,40.535,0,0,1,39.285,12.426,41.368,41.368,0,0,1,5.884,8.488,40.253,40.253,0,0,1,3.468,9.518,41.859,41.859,0,0,1,1,9.872q-.008,4.9-.016,9.7c-.021,12.779-.042,24.954-.061,36.423-.1,45.87-.172,80.443-.208,97.2v.047h-.047Z" transform="translate(-487.938 -3562.994)" fill="#263238"/>
            </g>
          </g>
        </g>
        <g id="Grupo_975722" data-name="Grupo 975722" transform="translate(41.427 42.777)">
          <g id="Grupo_975719" data-name="Grupo 975719">
            <rect id="Rectángulo_309054" data-name="Rectángulo 309054" width="16.057" height="11.543" transform="translate(0.194 0.161)" fill="#e0e0e0"/>
            <g id="Grupo_975718" data-name="Grupo 975718">
              <path id="Trazado_652708" data-name="Trazado 652708" d="M501.836,3645.091a1.626,1.626,0,0,1-.014-.222c0-.162-.009-.367-.015-.622-.008-.566-.019-1.35-.033-2.34-.016-2.029-.039-4.893-.067-8.36l.128.129-16.055.03c-.036.034.3-.3.157-.157v3.056q0,1.506,0,2.958c0,1.933-.007,3.785-.011,5.528l-.143-.144,11.542.071,3.31.038.887.018a2.516,2.516,0,0,1,.317.016,1.749,1.749,0,0,1-.284.017l-.859.017-3.278.038-11.636.072h-.143v-.145c0-1.743-.007-3.594-.01-5.528q0-1.45,0-2.958v-3.056c-.142.14.193-.194.16-.16l16.055.03h.129v.128c-.028,3.5-.051,6.391-.067,8.44-.014.977-.025,1.752-.033,2.311-.006.244-.01.441-.015.6A.879.879,0,0,1,501.836,3645.091Z" transform="translate(-485.586 -3633.387)" fill="#263238"/>
            </g>
          </g>
          <g id="Grupo_975721" data-name="Grupo 975721" transform="translate(0.194 8.682)">
            <path id="Trazado_652709" data-name="Trazado 652709" d="M485.905,3647.934h16.056" transform="translate(-485.905 -3647.776)" fill="#e0e0e0"/>
            <g id="Grupo_975720" data-name="Grupo 975720">
              <path id="Trazado_652710" data-name="Trazado 652710" d="M501.961,3647.832c0,.087-3.594.158-8.028.158s-8.029-.071-8.029-.158,3.594-.158,8.029-.158S501.961,3647.745,501.961,3647.832Z" transform="translate(-485.905 -3647.674)" fill="#263238"/>
            </g>
          </g>
        </g>
        <g id="Grupo_975736" data-name="Grupo 975736" transform="translate(92.63 120.58)">
          <g id="Grupo_975723" data-name="Grupo 975723" transform="translate(17.668 0.816)" opacity="0.3">
            <path id="Trazado_652711" data-name="Trazado 652711" d="M612.386,3792.529c-.7.1-.96-.046-1.257.6a3.253,3.253,0,0,0-.2,1.308,36.207,36.207,0,0,0,.368,7.286c.329,1.759.921,3.556.51,5.3a4.9,4.9,0,0,1-4.9,3.645l-2-16.778-2.7-.955-3.275-.059.005-4.63,2.456-.354s3.28-23.91,7.012-24.962,3.825,3.12,3.825,4.472-1.936,3.545-1.936,3.545a21.677,21.677,0,0,1,1.137,13.26l.979.006Z" transform="translate(-598.919 -3762.76)"/>
          </g>
          <g id="Grupo_975735" data-name="Grupo 975735">
            <g id="Grupo_975729" data-name="Grupo 975729">
              <g id="Grupo_975726" data-name="Grupo 975726">
                <path id="Trazado_652712" data-name="Trazado 652712" d="M614.034,3782.614a4.7,4.7,0,0,0-3.531,1.331c-.834-.148-3.266-.587-6.359-1.208a20.143,20.143,0,0,0-5.812-.3,34.506,34.506,0,0,0,.3-6.559c-.174-2.613-.329-4.848-.393-5.779a4.722,4.722,0,1,0-6.239-.472c-.148.834-.586,3.267-1.208,6.359a19.975,19.975,0,0,0-.244,6.3,33.945,33.945,0,0,0-6.2-.249c-2.613.174-4.848.329-5.779.393a4.722,4.722,0,1,0-.472,6.239c.834.147,3.267.586,6.359,1.208a20.184,20.184,0,0,0,5.13.352,34.3,34.3,0,0,0-.277,6.416c.174,2.613.329,4.849.393,5.779a4.722,4.722,0,1,0,6.239.472c.148-.834.586-3.267,1.208-6.359a19.972,19.972,0,0,0,.244-6.3,34.835,34.835,0,0,0,6.858.338c2.613-.174,4.849-.328,5.779-.393a4.719,4.719,0,1,0,4-7.569Z" transform="translate(-569.943 -3761.499)" fill="#e0e0e0"/>
                <g id="Grupo_975725" data-name="Grupo 975725">
                  <path id="Trazado_652713" data-name="Trazado 652713" d="M614.034,3782.614a4.7,4.7,0,0,0-3.531,1.331c-.834-.148-3.266-.587-6.359-1.208a20.143,20.143,0,0,0-5.812-.3,34.506,34.506,0,0,0,.3-6.559c-.174-2.613-.329-4.848-.393-5.779a4.722,4.722,0,1,0-6.239-.472c-.148.834-.586,3.267-1.208,6.359a19.975,19.975,0,0,0-.244,6.3,33.945,33.945,0,0,0-6.2-.249c-2.613.174-4.848.329-5.779.393a4.722,4.722,0,1,0-.472,6.239c.834.147,3.267.586,6.359,1.208a20.184,20.184,0,0,0,5.13.352,34.3,34.3,0,0,0-.277,6.416c.174,2.613.329,4.849.393,5.779a4.722,4.722,0,1,0,6.239.472c.148-.834.586-3.267,1.208-6.359a19.972,19.972,0,0,0,.244-6.3,34.835,34.835,0,0,0,6.858.338c2.613-.174,4.849-.328,5.779-.393a4.719,4.719,0,1,0,4-7.569Z" transform="translate(-569.943 -3761.499)" fill="none"/>
                  <g id="Grupo_975724" data-name="Grupo 975724">
                    <path id="Trazado_652714" data-name="Trazado 652714" d="M613.936,3782.533s.109,0,.323.02a2.493,2.493,0,0,1,.4.059,3.442,3.442,0,0,1,.539.138,4.762,4.762,0,0,1,1.84,7.922,4.8,4.8,0,0,1-7.176-.513l.081.037-5.966.415a34.468,34.468,0,0,1-6.694-.339l.134-.131a20.075,20.075,0,0,1-.2,6.149l-1.235,6.547-.035-.117a4.851,4.851,0,0,1-3.359,8.235,4.871,4.871,0,0,1-4.676-3.147,4.857,4.857,0,0,1,1.609-5.587l-.059.131c-.132-1.942-.269-3.941-.407-5.98a34.2,34.2,0,0,1,.286-6.246l.164.176a21.1,21.1,0,0,1-5.714-.457l-5.811-1.1.137-.042a4.874,4.874,0,0,1-7.613-5.938,4.922,4.922,0,0,1,1.677-1.72,4.984,4.984,0,0,1,2.276-.708,4.883,4.883,0,0,1,4.144,1.919l-.134-.061,6.074-.407a34.064,34.064,0,0,1,5.929.269l-.167.168a20.305,20.305,0,0,1,.289-6.547l1.174-6.154.038.122a4.875,4.875,0,0,1-1.347-2.872,4.845,4.845,0,0,1,2.965-4.983,4.838,4.838,0,0,1,4.789,8.319l.044-.1c.148,2.341.317,4.531.42,6.6a35.459,35.459,0,0,1-.348,5.761l-.1-.1a20.169,20.169,0,0,1,3.883.021c1.207.116,2.3.374,3.316.56l4.989.972-.037.011a4.694,4.694,0,0,1,2.619-1.276,3.379,3.379,0,0,1,.941-.024s-.076.006-.232,0a5.122,5.122,0,0,0-.7.062,4.706,4.706,0,0,0-2.566,1.294l-.016.015-.021,0-5-.926c-1.016-.18-2.108-.429-3.306-.536a20.066,20.066,0,0,0-3.85,0l-.11.01.014-.11a35.393,35.393,0,0,0,.321-5.732c-.111-2.05-.288-4.249-.443-6.586l0-.062.049-.036a4.594,4.594,0,1,0-6.711-6.038,4.654,4.654,0,0,0-.633,2.853,4.6,4.6,0,0,0,1.274,2.705l.051.052-.013.07q-.571,3.014-1.166,6.163a20.025,20.025,0,0,0-.277,6.452l.024.191-.191-.023a33.859,33.859,0,0,0-5.875-.261l-6.069.412-.084.005-.05-.066a4.572,4.572,0,0,0-3.881-1.8,4.668,4.668,0,0,0-2.129.664,4.563,4.563,0,0,0-1.66,6.006,4.555,4.555,0,0,0,7.211,1.156l.058-.057.08.015,5.817,1.105a20.8,20.8,0,0,0,5.634.454l.189-.011-.025.188a33.947,33.947,0,0,0-.288,6.188c.137,2.038.271,4.035.4,5.977l.005.081-.064.049a4.572,4.572,0,1,0,7.051,5.248,4.681,4.681,0,0,0,.193-2.58,4.632,4.632,0,0,0-1.193-2.223l-.049-.051.013-.066c.431-2.255.85-4.444,1.251-6.547a19.9,19.9,0,0,0,.217-6.073l-.019-.153.152.022a34.346,34.346,0,0,0,6.648.358l5.965-.391.052,0,.03.041a4.647,4.647,0,0,0,7.857-4.88,4.694,4.694,0,0,0-2.688-2.365A6.666,6.666,0,0,0,613.936,3782.533Z" transform="translate(-569.845 -3761.418)" fill="#263238"/>
                  </g>
                </g>
              </g>
              <g id="Grupo_975728" data-name="Grupo 975728" transform="translate(19.809 20.393)">
                <path id="Trazado_652715" data-name="Trazado 652715" d="M611.184,3799.664a4.245,4.245,0,1,1-4.017-4.461A4.245,4.245,0,0,1,611.184,3799.664Z" transform="translate(-602.543 -3795.063)" fill="#29abe2"/>
                <g id="Grupo_975727" data-name="Grupo 975727">
                  <path id="Trazado_652716" data-name="Trazado 652716" d="M611.084,3799.578c-.035,0,0-.379-.139-1.03a4.231,4.231,0,0,0-1.432-2.342,4.122,4.122,0,0,0-3.862-.768,4.059,4.059,0,0,0-1.97,1.332,4.082,4.082,0,0,0-.253,4.828,4.064,4.064,0,0,0,1.821,1.53,4.125,4.125,0,0,0,3.921-.36,4.234,4.234,0,0,0,1.668-2.18c.207-.633.211-1.014.245-1.01a.883.883,0,0,1,0,.273,3.364,3.364,0,0,1-.132.773,4.229,4.229,0,0,1-1.66,2.328,4.306,4.306,0,0,1-1.87.739,4.376,4.376,0,0,1-3.985-7.119,4.325,4.325,0,0,1,2.125-1.413,4.37,4.37,0,0,1,2.309-.054,4.3,4.3,0,0,1,1.782.93,4.228,4.228,0,0,1,1.408,2.489,3.336,3.336,0,0,1,.05.783A.88.88,0,0,1,611.084,3799.578Z" transform="translate(-602.443 -3794.976)" fill="#263238"/>
                </g>
              </g>
            </g>
            <g id="Grupo_975730" data-name="Grupo 975730" transform="translate(23.326 8.369)">
              <path id="Trazado_652717" data-name="Trazado 652717" d="M612.262,3775.349a3.829,3.829,0,0,1-4.031-.146,8.007,8.007,0,0,0,4.031.146Z" transform="translate(-608.229 -3775.19)" fill="#263238"/>
            </g>
            <g id="Grupo_975731" data-name="Grupo 975731" transform="translate(40.173 23.436)">
              <path id="Trazado_652718" data-name="Trazado 652718" d="M636.324,3803.862a4.2,4.2,0,0,1,.227-3.877c.087.036-.217.864-.273,1.929S636.414,3803.837,636.324,3803.862Z" transform="translate(-635.953 -3799.984)" fill="#263238"/>
            </g>
            <g id="Grupo_975732" data-name="Grupo 975732" transform="translate(8.065 22.011)">
              <path id="Trazado_652719" data-name="Trazado 652719" d="M583.132,3800.722c-.083-.042.2-.689.236-1.533s-.167-1.516-.08-1.549a2.747,2.747,0,0,1-.156,3.082Z" transform="translate(-583.117 -3797.638)" fill="#263238"/>
            </g>
            <g id="Grupo_975733" data-name="Grupo 975733" transform="translate(21.227 40.988)">
              <path id="Trazado_652720" data-name="Trazado 652720" d="M607.867,3829.409c-.04.084-.693-.177-1.538-.22s-1.523.131-1.553.043a2.9,2.9,0,0,1,3.091.177Z" transform="translate(-604.775 -3828.867)" fill="#263238"/>
            </g>
            <g id="Grupo_975734" data-name="Grupo 975734" transform="translate(22.997 22.371)" opacity="0.3">
              <path id="Trazado_652721" data-name="Trazado 652721" d="M612,3799.32a1.657,1.657,0,0,0-.421-.857.753.753,0,0,0-.887-.144c-.349.222-.356.719-.341,1.132a4.718,4.718,0,0,1-.2,1.767,2.044,2.044,0,0,1-1.176,1.27c-.263.093-.548.114-.8.219a.7.7,0,0,0-.486.614h0a.983.983,0,0,0,.752.862,2.454,2.454,0,0,0,1.338-.108,3.385,3.385,0,0,0,1.592-1.325A4.472,4.472,0,0,0,612,3799.32Z" transform="translate(-607.687 -3798.23)" fill="#fff"/>
            </g>
          </g>
        </g>
        <g id="Grupo_975737" data-name="Grupo 975737" transform="translate(120.896 48.486)">
          <path id="Trazado_652722" data-name="Trazado 652722" d="M616.442,3699.1c-.087,0-.111-12.61-.051-28.16s.177-28.161.265-28.16.111,12.606.051,28.162S616.529,3699.1,616.442,3699.1Z" transform="translate(-616.358 -3642.781)" fill="#263238"/>
        </g>
        <g id="Grupo_975738" data-name="Grupo 975738" transform="translate(93.568 4.416)">
          <path id="Trazado_652723" data-name="Trazado 652723" d="M596.537,3597a1.813,1.813,0,0,1-.137-.366l-.334-1.064-.233-.77c-.092-.279-.213-.575-.33-.9-.247-.64-.486-1.386-.859-2.167l-.55-1.239c-.194-.429-.439-.855-.668-1.308-.444-.914-1.025-1.831-1.612-2.809a39.072,39.072,0,0,0-10.113-10.749c-.941-.645-1.821-1.282-2.706-1.78-.438-.256-.848-.527-1.265-.746l-1.2-.625c-.756-.421-1.485-.7-2.109-.99-.315-.137-.6-.275-.877-.385l-.754-.28-1.041-.4a1.8,1.8,0,0,1-.357-.159,1.777,1.777,0,0,1,.377.1l1.063.342.767.255c.277.1.571.232.89.362.634.272,1.374.543,2.141.953l1.22.611c.422.215.839.482,1.283.735.9.493,1.789,1.125,2.742,1.769a38.049,38.049,0,0,1,10.189,10.83c.585.99,1.161,1.919,1.6,2.844.225.459.466.89.656,1.326l.535,1.255c.362.791.588,1.546.82,2.2.11.327.222.628.307.911s.144.543.208.781c.114.444.205.8.276,1.083A1.808,1.808,0,0,1,596.537,3597Z" transform="translate(-571.388 -3570.261)" fill="#fff"/>
        </g>
        <g id="Grupo_975740" data-name="Grupo 975740" transform="translate(0 177.561)">
          <rect id="Rectángulo_309055" data-name="Rectángulo 309055" width="145.625" height="6.942" transform="translate(0.158 0.158)" fill="#e0e0e0"/>
          <g id="Grupo_975739" data-name="Grupo 975739">
            <path id="Trazado_652724" data-name="Trazado 652724" d="M563.2,3862.285s-.005-.142-.008-.424-.006-.708-.01-1.277c-.006-1.145-.015-2.874-.026-5.24l.045.045-145.617.113h-.007l.159-.158c0,2.378,0,4.743,0,6.942l-.158-.158,103.178.066,31.062.048,8.433.022,2.2.011c.5,0,.755.011.755.011s-.244.008-.733.011l-2.175.011-8.4.022-31.025.047-103.295.066h-.158v-7.259h.165l145.617.114h.045v.045c-.012,2.378-.02,4.116-.026,5.266,0,.564-.008.982-.01,1.267S563.2,3862.285,563.2,3862.285Z" transform="translate(-417.414 -3855.185)" fill="#263238"/>
          </g>
        </g>
      </g>
    </g>
  </g>
</svg>
