<svg xmlns="http://www.w3.org/2000/svg" xmlns:xlink="http://www.w3.org/1999/xlink" width="163.183" height="163.183" viewBox="0 0 163.183 163.183">
  <defs>
    <filter id="Elipse_7840" x="0" y="0" width="163.183" height="163.183" filterUnits="userSpaceOnUse">
      <feOffset dy="3" input="SourceAlpha"/>
      <feGaussianBlur stdDeviation="3" result="blur"/>
      <feFlood flood-opacity="0.161"/>
      <feComposite operator="in" in2="blur"/>
      <feComposite in="SourceGraphic"/>
    </filter>
  </defs>
  <g id="Grupo_981733" data-name="Grupo 981733" transform="translate(-968.69 -5488.784)">
    <g id="Grupo_981736" data-name="Grupo 981736">
      <g id="Grupo_975390" data-name="Grupo 975390" transform="translate(966.25 5494.784)">
        <g transform="matrix(1, 0, 0, 1, 2.44, -6)" filter="url(#Elipse_7840)">
          <circle id="Elipse_7840-2" data-name="Elipse 7840" cx="72.592" cy="72.592" r="72.592" transform="translate(9 6)" fill="#fff"/>
        </g>
        <circle id="Elipse_7841" data-name="Elipse 7841" cx="56.195" cy="56.195" r="56.195" transform="translate(27.836 16.396)" fill="#583cb6"/>
      </g>
      <g id="encendiendo" transform="translate(914.144 5537)">
        <path id="Trazado_652442" data-name="Trazado 652442" d="M121.954,61.548a1.809,1.809,0,0,0,2.32-.532l28.951-39.929a1.81,1.81,0,0,0-1.465-2.872h-7.672l9.226-15.479A1.809,1.809,0,0,0,151.76,0H130.047a1.809,1.809,0,0,0-1.756,1.372l-7.238,29.072a1.809,1.809,0,0,0,1.756,2.247h8.25L121.114,59.32a1.809,1.809,0,0,0,.84,2.228Zm13.407-30.033a1.809,1.809,0,0,0-1.7-2.443h-8.542l6.337-25.453h17.114L139.35,19.1a1.809,1.809,0,0,0,1.554,2.736h7.31L129.166,48.1Z" transform="translate(0 0)" fill="#fff"/>
      </g>
    </g>
  </g>
</svg>
