<svg xmlns="http://www.w3.org/2000/svg" width="153.5" height="154.27" viewBox="0 0 153.5 154.27">
  <g id="ahorrar-agua" transform="translate(-1.281 0)">
    <g id="Grupo_975432" data-name="Grupo 975432" transform="translate(46.428 13.734)">
      <path id="Trazado_652572" data-name="Trazado 652572" d="M239.051,386.285l-21.162,4.209a3.927,3.927,0,0,0,1.418,7.724l6.027-1.015,41.45-6.864-1.278-9.158Z" transform="translate(-195.786 -280.463)" fill="#ffe0d1"/>
      <path id="Trazado_652573" data-name="Trazado 652573" d="M231.794,414.542,198.9,420.083a4.241,4.241,0,0,0,1.229,8.39l38.517-2.422,12.711-8.2,2.87-7.073Z" transform="translate(-182.238 -301.174)" fill="#ffe0d1"/>
      <path id="Trazado_652574" data-name="Trazado 652574" d="M171.531,59.706l32.892-5.541a4.241,4.241,0,0,0-1.229-8.39l-37.267,3.281-5.372,12.622Z" transform="translate(-157.88 -45.742)" fill="#ffe0d1"/>
      <path id="Trazado_652575" data-name="Trazado 652575" d="M171.587,87.677l21.162-4.209a3.927,3.927,0,0,0-1.418-7.724L185.3,76.759l-31.2,5.874-2.456,9.275Z" transform="translate(-151.645 -66.697)" fill="#ffe0d1"/>
    </g>
    <path id="Trazado_652576" data-name="Trazado 652576" d="M156.271,84.954l31.2-5.874,6.027-1.015a3.917,3.917,0,0,1,2.191.261,3.929,3.929,0,0,0-4.361-2.58L185.3,76.762l-31.2,5.873-2.456,9.275,2.95-.626Z" transform="translate(-105.217 -52.965)" fill="#ffd1c2"/>
    <g id="Grupo_975437" data-name="Grupo 975437" transform="translate(3.533 2.251)">
      <g id="XMLID_535_" transform="translate(0 0)">
        <g id="Grupo_975433" data-name="Grupo 975433">
          <path id="Trazado_652577" data-name="Trazado 652577" d="M175.356,95.27a8.835,8.835,0,0,0-3.377-7.659L154.1,90.976l-2.456,9.275,19.942-4.231Z" transform="translate(-108.75 -63.556)" fill="#ffd1c2"/>
          <path id="Trazado_652578" data-name="Trazado 652578" d="M207.624,48.326a4.249,4.249,0,0,0-4.43-2.552l-37.267,3.281-5.372,12.622,10.975-1.972,6.958-1.172a8.969,8.969,0,0,0-1.61-1.093,1.191,1.191,0,0,1-.363-1.835l2.761-3.183a2.213,2.213,0,0,1,1.4-.746Z" transform="translate(-114.985 -34.258)" fill="#ffd1c2"/>
          <path id="Trazado_652579" data-name="Trazado 652579" d="M57.559,38.048l6.047-3.942a5.3,5.3,0,0,1,6.248,8.554L54.9,54.832A33.407,33.407,0,0,1,22.21,60.257l-3.1-1.144h-8A2.331,2.331,0,0,1,8.78,56.782V32.9a2.331,2.331,0,0,1,2.331-2.331H32.833L57.971,11.748A21.306,21.306,0,0,1,71.38,7.506l31.241.937a4.661,4.661,0,0,1,.435,9.284L72.8,21.492a2.62,2.62,0,0,0-1.645.88Z" transform="translate(-8.78 -7.496)" fill="#ffe0d1"/>
        </g>
      </g>
      <g id="Grupo_975434" data-name="Grupo 975434">
        <path id="Trazado_652580" data-name="Trazado 652580" d="M36.637,34.346a4.582,4.582,0,0,0,2.786-.944L62.771,15.523a20.522,20.522,0,0,1,13.113-4.243l30.55.937a4.464,4.464,0,0,1,.632.07,4.647,4.647,0,0,0-4.444-3.845L71.38,7.506A21.306,21.306,0,0,0,57.97,11.748L32.833,30.571H11.111A2.331,2.331,0,0,0,8.78,32.9v23.88a2.331,2.331,0,0,0,2.331,2.331h3.558V37.872a3.561,3.561,0,0,1,3.568-3.561Z" transform="translate(-8.78 -7.496)" fill="#ffd1c2"/>
      </g>
      <g id="XMLID_536_" transform="translate(50.637 94.929)">
        <g id="Grupo_975435" data-name="Grupo 975435">
          <path id="Trazado_652581" data-name="Trazado 652581" d="M265.5,381.18l-26.454,5.1-3.767.749c-.016.221-.028.443-.028.667a8.873,8.873,0,0,0,.519,2.99,1.29,1.29,0,0,1-1.016,1.693l-10.611,1.757-6.027,1.015a3.925,3.925,0,0,1-3.386-1.06,3.7,3.7,0,0,0,.427,2.007,4.161,4.161,0,0,0,4.376,2.074l5.8-.976,41.45-6.864Z" transform="translate(-203.528 -363.909)" fill="#ffd1c2"/>
          <path id="Trazado_652582" data-name="Trazado 652582" d="M251.721,417.849l2.87-7.073-22.435,3.765-6.4,1.078a9.01,9.01,0,0,0,1.355.81.919.919,0,0,1,.279,1.428l-3.536,4.077-27.972,3.473a4.253,4.253,0,0,0,4.609,3.065l38.517-2.422Z" transform="translate(-190.342 -384.618)" fill="#ffd1c2"/>
          <path id="Trazado_652583" data-name="Trazado 652583" d="M227.01,347.946l-6.047,3.942a5.3,5.3,0,0,1-6.248-8.554l14.953-12.172a33.407,33.407,0,0,1,32.692-5.426l3.1,1.144h7.315a3.02,3.02,0,0,1,3.02,3.02v22.5a3.02,3.02,0,0,1-3.02,3.02H251.736L226.6,374.245a21.306,21.306,0,0,1-13.409,4.243l-31.241-.937a4.661,4.661,0,0,1-.435-9.284l30.257-3.765a2.62,2.62,0,0,0,1.645-.88Z" transform="translate(-177.429 -323.658)" fill="#ffe0d1"/>
        </g>
      </g>
      <g id="Grupo_975436" data-name="Grupo 975436" transform="translate(50.638 121.794)">
        <path id="Trazado_652584" data-name="Trazado 652584" d="M250.792,413.275a3.473,3.473,0,0,0-2.083.694L224.5,432.1a21.306,21.306,0,0,1-13.409,4.243l-31.241-.937a4.627,4.627,0,0,1-2.343-.72,4.653,4.653,0,0,0,4.445,5.477l31.241.937a21.306,21.306,0,0,0,13.409-4.243l25.137-18.823H272.77a3.02,3.02,0,0,0,3.02-3.02v-1.88C275.5,413.224,250.792,413.275,250.792,413.275Z" transform="translate(-177.43 -413.132)" fill="#ffd1c2"/>
      </g>
      <path id="Trazado_652585" data-name="Trazado 652585" d="M222.931,183.227a25.53,25.53,0,0,1-51.06,0c0-11.071,15.739-29.815,22.5-37.357a4.067,4.067,0,0,1,6.057,0c6.763,7.543,22.5,26.287,22.5,37.357Z" transform="translate(-122.902 -103.376)" fill="#b3e5ee"/>
      <path id="Trazado_652586" data-name="Trazado 652586" d="M184.739,182.378c0-9.327,11.172-24.1,18.735-33.034-1.13-1.32-2.164-2.493-3.044-3.475a4.067,4.067,0,0,0-6.057,0c-6.763,7.543-22.5,26.287-22.5,37.357a25.549,25.549,0,0,0,33.588,24.232,25.54,25.54,0,0,1-20.72-25.08Z" transform="translate(-122.902 -103.376)" fill="#86d7e5"/>
    </g>
    <g id="Grupo_975438" data-name="Grupo 975438" transform="translate(1.281 0)">
      <path id="Trazado_652587" data-name="Trazado 652587" d="M66.028,39.162a7.533,7.533,0,0,0,1.992-2.481l19.952-3.968a6.178,6.178,0,0,0,4.381-8.7l.992-.167A6.488,6.488,0,0,0,98.151,14.7,6.912,6.912,0,0,0,97.44.945L66.2.01A23.7,23.7,0,0,0,51.372,4.7L47.023,7.958a2.252,2.252,0,1,0,2.7,3.6l4.349-3.257A19.075,19.075,0,0,1,66.066,4.512L97.3,5.447a2.409,2.409,0,0,1,.225,4.8L67.273,14.013a4.849,4.849,0,0,0-3.067,1.636L50.818,31.089l-6.593,4.3a2.252,2.252,0,0,0,2.46,3.773l12.9-8.416a3.07,3.07,0,0,1,3.954.534,3.053,3.053,0,0,1-.359,4.39L48.233,47.841a31.3,31.3,0,0,1-30.49,5.06l-3.094-1.144a2.245,2.245,0,0,0-.781-.14H3.533a2.252,2.252,0,0,0,0,4.5h9.932l2.715,1a35.493,35.493,0,0,0,12.322,2.2,35.8,35.8,0,0,0,22.574-7.99ZM86.488,25a1.675,1.675,0,0,1,.6,3.295L68.7,31.955A7.5,7.5,0,0,0,66.92,28.3ZM67.609,18.6a.352.352,0,0,1,.222-.119L92.019,15.47h0a1.989,1.989,0,0,1,.576,3.935L62.516,24.473Z" transform="translate(-1.281 0)"/>
      <path id="Trazado_652588" data-name="Trazado 652588" d="M3.533,58.515H27.586a2.252,2.252,0,0,0,1.35-.449l13.085-9.8a2.252,2.252,0,1,0-2.7-3.6L26.836,54.011H3.533a2.252,2.252,0,1,0,0,4.5Z" transform="translate(-1.281 -30.938)"/>
      <path id="Trazado_652589" data-name="Trazado 652589" d="M393.831,321.348A31.125,31.125,0,0,1,411.1,322.6l3.093,1.144a2.245,2.245,0,0,0,.781.14h10.335a2.252,2.252,0,1,0,0-4.5H415.38l-2.715-1a35.621,35.621,0,0,0-19.768-1.437,2.252,2.252,0,1,0,.933,4.406Z" transform="translate(-274.064 -221.235)"/>
      <path id="Trazado_652590" data-name="Trazado 652590" d="M270.538,357.507H246.485a2.253,2.253,0,0,0-1.35.449L220,376.778A19.1,19.1,0,0,1,208,380.573l-31.239-.935a2.409,2.409,0,0,1-.225-4.8l30.257-3.767a4.846,4.846,0,0,0,3.066-1.636L223.253,354l6.592-4.3a2.252,2.252,0,0,0-2.46-3.773l-12.9,8.416a3.071,3.071,0,0,1-3.953-.534,3.053,3.053,0,0,1,.359-4.39l14.952-12.172a31.25,31.25,0,0,1,4.705-3.16,2.252,2.252,0,0,0-2.164-3.95,35.742,35.742,0,0,0-5.385,3.618l-14.952,12.172a7.529,7.529,0,0,0-1.992,2.481L186.1,352.371a6.178,6.178,0,0,0-4.381,8.7l-.992.167a6.488,6.488,0,0,0-4.806,9.142,6.912,6.912,0,0,0,.711,13.759l31.239.935c.233.007.464.01.7.01a23.66,23.66,0,0,0,14.132-4.7l24.536-18.372h23.3a2.252,2.252,0,0,0,0-4.5Zm-82.956,2.575a1.675,1.675,0,0,1-.6-3.295l18.4-3.659a7.493,7.493,0,0,0,1.776,3.656Zm-6.108,5.6,30.081-5.067-5.094,5.874a.351.351,0,0,1-.221.118l-24.188,3.012h0a1.989,1.989,0,0,1-.576-3.935Z" transform="translate(-119.289 -230.815)"/>
      <path id="Trazado_652591" data-name="Trazado 652591" d="M192.152,205.762a27.813,27.813,0,0,0,27.782-27.782c0-4.488-2.243-10.385-6.668-17.526a2.252,2.252,0,0,0-3.829,2.372c3.92,6.327,5.992,11.567,5.992,15.154a23.278,23.278,0,1,1-46.556,0c0-7.137,8.2-20.54,21.926-35.854a1.815,1.815,0,0,1,2.7,0c2.681,2.99,6.693,7.653,10.583,12.888a2.252,2.252,0,0,0,3.615-2.686c-3.992-5.373-8.1-10.148-10.845-13.208a6.32,6.32,0,0,0-9.411,0c-8.618,9.613-23.076,27.444-23.076,38.861a27.814,27.814,0,0,0,27.782,27.782Z" transform="translate(-115.402 -95.878)"/>
    </g>
  </g>
</svg>
