<svg xmlns="http://www.w3.org/2000/svg" width="125" height="125" viewBox="0 0 125 125">
  <g id="Grupo_981737" data-name="Grupo 981737" transform="translate(-528 -10009)">
    <circle id="Elipse_7860" data-name="Elipse 7860" cx="62.5" cy="62.5" r="62.5" transform="translate(528 10009)" fill="#ef8b53"/>
    <g id="principio" transform="translate(551.766 10032.721)">
      <g id="Grupo_977444" data-name="Grupo 977444" transform="translate(1.165 1.167)">
        <g id="Grupo_977440" data-name="Grupo 977440">
          <path id="Trazado_653026" data-name="Trazado 653026" d="M93.219,57.2h10.291a2.573,2.573,0,0,1,2.573,2.573v59.175a2.573,2.573,0,0,1-2.573,2.573H59.773a2.573,2.573,0,0,1-2.573-2.573v-2.573Z" transform="translate(-49.482 -49.483)" fill="#d3e3eb"/>
          <path id="Trazado_653027" data-name="Trazado 653027" d="M58.722,22.938l-10.6-4.3-4.6-10.9A2.569,2.569,0,0,0,42.454,7.5H10.073A2.573,2.573,0,0,0,7.5,10.074V71.822a2.573,2.573,0,0,0,2.573,2.573H56.384a2.573,2.573,0,0,0,2.573-2.573V24A2.571,2.571,0,0,0,58.722,22.938Z" transform="translate(-7.5 -7.501)" fill="#f1f6f7"/>
          <path id="Trazado_653028" data-name="Trazado 653028" d="M127.948,45.781H108.186a1.286,1.286,0,0,1-1.286-1.286V41.921a1.286,1.286,0,0,1,1.286-1.286h19.762Z" transform="translate(-91.463 -35.489)" fill="#72e0ff"/>
          <path id="Trazado_653029" data-name="Trazado 653029" d="M50.627,138.9H41.839a1.206,1.206,0,0,1-1.206-1.206V124.673a1.206,1.206,0,0,1,1.206-1.206h8.788a1.206,1.206,0,0,1,1.206,1.206V137.7A1.206,1.206,0,0,1,50.627,138.9Z" transform="translate(-35.487 -105.457)" fill="#72e0ff"/>
          <path id="Trazado_653030" data-name="Trazado 653030" d="M169.886,128.613h-3.8a1.206,1.206,0,0,1-1.206-1.206v-2.734a1.206,1.206,0,0,1,1.206-1.206h3.8a1.206,1.206,0,0,1,1.206,1.206v2.734A1.206,1.206,0,0,1,169.886,128.613Z" transform="translate(-140.441 -105.457)" fill="#baeb6c"/>
          <g id="Grupo_977439" data-name="Grupo 977439" transform="translate(34.733 51.456)">
            <g id="Grupo_977438" data-name="Grupo 977438">
              <path id="Trazado_653031" data-name="Trazado 653031" d="M233.562,338.834h5.467a2.412,2.412,0,0,1,2.412,2.412v5.467a2.412,2.412,0,0,1-2.412,2.412h-5.467a2.412,2.412,0,0,1-2.412-2.412v-5.467A2.412,2.412,0,0,1,233.562,338.834Z" transform="translate(-231.15 -338.834)" fill="#d3e3eb"/>
            </g>
          </g>
          <path id="Trazado_653032" data-name="Trazado 653032" d="M254.116,23.458l-13.93-13.93a2.569,2.569,0,0,0-.754-.519v12.63a2.573,2.573,0,0,0,2.573,2.573h12.63A2.564,2.564,0,0,0,254.116,23.458Z" transform="translate(-203.413 -8.775)" fill="#e1ebf0"/>
          <path id="Trazado_653033" data-name="Trazado 653033" d="M105.374,123.468H102a1.242,1.242,0,0,1,1.242,1.242v12.952A1.242,1.242,0,0,1,102,138.9h3.378a1.242,1.242,0,0,0,1.242-1.242V124.71A1.242,1.242,0,0,0,105.374,123.468Z" transform="translate(-87.321 -105.458)" fill="#6bc9ff"/>
          <path id="Trazado_653034" data-name="Trazado 653034" d="M196.49,123.468h-3.378a1.242,1.242,0,0,1,1.242,1.242v2.661a1.242,1.242,0,0,1-1.242,1.242h3.378a1.242,1.242,0,0,0,1.242-1.242V124.71A1.242,1.242,0,0,0,196.49,123.468Z" transform="translate(-164.286 -105.458)" fill="#96d629"/>
        </g>
        <g id="Grupo_977443" data-name="Grupo 977443" transform="translate(41.165 36.02)">
          <path id="Trazado_653035" data-name="Trazado 653035" d="M308.587,260.091c0,9.7-7.338,17.876-17.367,20.428a2.608,2.608,0,0,1-1.286,0c-10.029-2.551-17.367-10.731-17.367-20.428V246.418a2.573,2.573,0,0,1,1.866-2.474l15.437-4.411a2.572,2.572,0,0,1,1.414,0l15.437,4.411a2.573,2.573,0,0,1,1.866,2.474Z" transform="translate(-272.567 -239.434)" fill="#e1ebf0"/>
          <path id="Trazado_653036" data-name="Trazado 653036" d="M330.5,276.92a1.286,1.286,0,0,1,.933,1.237v10.763a14.487,14.487,0,0,1-3.823,9.7,19.153,19.153,0,0,1-8.67,5.457,1.258,1.258,0,0,1-.741,0,19.153,19.153,0,0,1-8.67-5.457,14.487,14.487,0,0,1-3.823-9.7V278.157a1.287,1.287,0,0,1,.933-1.237l11.578-3.308a1.287,1.287,0,0,1,.707,0Z" transform="translate(-300.556 -268.262)" fill="#baeb6c"/>
          <path id="Trazado_653037" data-name="Trazado 653037" d="M414.91,263.735l-3.048-.871a2.572,2.572,0,0,1,1.342,2.257V281.28c0,8.065-5.077,15.081-12.556,18.681,9.389-2.888,16.128-10.786,16.128-20.079V266.209A2.572,2.572,0,0,0,414.91,263.735Z" transform="translate(-380.757 -259.225)" fill="#d3e3eb"/>
          <path id="Trazado_653038" data-name="Trazado 653038" d="M411.045,290.2l-3.205-.916a1.286,1.286,0,0,1,.566,1.066v13.714a14.487,14.487,0,0,1-3.823,9.7,17.9,17.9,0,0,1-3.524,3.033,18.83,18.83,0,0,0,7.1-4.9,14.487,14.487,0,0,0,3.823-9.7V291.437A1.286,1.286,0,0,0,411.045,290.2Z" transform="translate(-381.104 -281.542)" fill="#97e063"/>
          <g id="Grupo_977442" data-name="Grupo 977442" transform="translate(10.294 13.52)">
            <g id="Grupo_977441" data-name="Grupo 977441">
              <path id="Trazado_653039" data-name="Trazado 653039" d="M344.841,337.891l-5.532-4.69a1.286,1.286,0,0,1-.118-1.85l1.773-1.94a1.286,1.286,0,0,1,1.733-.152l2.189,1.732a.643.643,0,0,0,.817-.027l4.729-4.154a1.286,1.286,0,0,1,1.808.109l1.717,1.921a1.286,1.286,0,0,1-.107,1.821l-8.167,7.22A.643.643,0,0,1,344.841,337.891Z" transform="translate(-338.854 -326.49)" fill="#f1f6f7"/>
            </g>
          </g>
        </g>
      </g>
      <g id="Grupo_977445" data-name="Grupo 977445" transform="translate(0 0.002)">
        <path id="Trazado_653040" data-name="Trazado 653040" d="M76.8,40.576,61.367,36.165a3.736,3.736,0,0,0-2.054,0l-.381.109V11.458A3.742,3.742,0,0,0,55.194,7.72H45.385L38.762,1.1A3.713,3.713,0,0,0,36.119,0H3.738A3.742,3.742,0,0,0,0,3.739v7.574a1.165,1.165,0,0,0,2.33,0V3.739A1.41,1.41,0,0,1,3.738,2.331H36.02V5.148H17.888A2.454,2.454,0,0,0,15.437,7.6v2.573a2.454,2.454,0,0,0,2.451,2.451H36.02v1.408a3.742,3.742,0,0,0,3.738,3.738h11.7V38.41l-2.935.839a1.163,1.163,0,0,0-1.046-.654H34.611a1.165,1.165,0,0,0,0,2.33h8.442a3.756,3.756,0,0,0-1.888,3.246v7.289H38.471A3.742,3.742,0,0,0,34.733,55.2v5.146a3.742,3.742,0,0,0,3.738,3.737h3.675A20.535,20.535,0,0,0,43.295,66.9H3.738A1.41,1.41,0,0,1,2.33,65.487V16.6A1.165,1.165,0,1,0,0,16.6V65.487a3.742,3.742,0,0,0,3.738,3.737H7.718v1.408a3.742,3.742,0,0,0,3.737,3.737H33.165a1.165,1.165,0,1,0,0-2.33H11.456a1.41,1.41,0,0,1-1.408-1.408V69.225H44.642A22.779,22.779,0,0,0,46.371,71.5c.159.184.324.364.489.543H38.773a1.165,1.165,0,1,0,0,2.33H49.343A26.283,26.283,0,0,0,59.41,79.4a3.785,3.785,0,0,0,1.86,0,25.655,25.655,0,0,0,13.039-7.9,20.688,20.688,0,0,0,5.206-13.655V44.17A3.754,3.754,0,0,0,76.8,40.576ZM17.888,10.293a.122.122,0,0,1-.122-.122V7.6a.122.122,0,0,1,.122-.122H36.02v2.816Zm20.461,3.737V3.979l11.46,11.46H39.757A1.41,1.41,0,0,1,38.349,14.031Zm14.342,1L47.715,10.05h7.479A1.41,1.41,0,0,1,56.6,11.458V36.94l-2.816.8V17.669A3.713,3.713,0,0,0,52.691,15.026ZM38.471,61.75a1.41,1.41,0,0,1-1.408-1.408V55.2a1.41,1.41,0,0,1,1.408-1.408h2.694v4.055a20.317,20.317,0,0,0,.378,3.906Zm38.714-3.906c0,8.893-6.781,16.829-16.489,19.3a1.449,1.449,0,0,1-.712,0c-9.709-2.47-16.489-10.406-16.489-19.3V44.17a1.414,1.414,0,0,1,1.021-1.354l15.437-4.41a1.4,1.4,0,0,1,.774,0l15.437,4.41a1.414,1.414,0,0,1,1.021,1.354V57.843Z" transform="translate(0 -0.002)"/>
        <path id="Trazado_653041" data-name="Trazado 653041" d="M324.48,269.465h0L312.9,266.156a2.453,2.453,0,0,0-1.347,0l-11.578,3.308a2.462,2.462,0,0,0-1.778,2.357v10.763a15.634,15.634,0,0,0,4.117,10.477,20.2,20.2,0,0,0,9.2,5.8,2.414,2.414,0,0,0,1.428,0,20.2,20.2,0,0,0,9.2-5.8,15.634,15.634,0,0,0,4.117-10.477V271.821A2.462,2.462,0,0,0,324.48,269.465Zm-.552,13.119a13.34,13.34,0,0,1-3.529,8.93,17.873,17.873,0,0,1-8.143,5.117.1.1,0,0,1-.054,0,17.872,17.872,0,0,1-8.143-5.117,13.34,13.34,0,0,1-3.53-8.93V271.821a.122.122,0,0,1,.088-.117l11.578-3.308a.118.118,0,0,1,.034,0,.122.122,0,0,1,.033,0L323.84,271.7a.122.122,0,0,1,.088.117v10.763Z" transform="translate(-251.889 -224.743)"/>
        <path id="Trazado_653042" data-name="Trazado 653042" d="M346.771,319.823a2.459,2.459,0,0,0-3.446-.208l-4.4,3.867-1.84-1.457-.013-.01a2.437,2.437,0,0,0-3.3.289l-1.774,1.94a2.451,2.451,0,0,0,.225,3.524l5.532,4.69h0a1.818,1.818,0,0,0,2.366-.026l8.167-7.22a2.451,2.451,0,0,0,.2-3.469Zm-.029,3.646-7.829,6.921-5.188-4.4a.122.122,0,0,1-.011-.175l1.774-1.94a.122.122,0,0,1,.161-.016l2.178,1.724.013.01a1.812,1.812,0,0,0,2.295-.075l4.729-4.154a.122.122,0,0,1,.171.01l1.717,1.921a.122.122,0,0,1-.01.172Z" transform="translate(-279.892 -269.466)"/>
        <path id="Trazado_653043" data-name="Trazado 653043" d="M47.206,115.968H35.54a2.41,2.41,0,0,0-2.407,2.407v12.952a2.41,2.41,0,0,0,2.407,2.407H47.206a2.41,2.41,0,0,0,2.407-2.407V118.375A2.41,2.41,0,0,0,47.206,115.968Zm.078,15.359a.078.078,0,0,1-.078.078H35.54a.078.078,0,0,1-.078-.078V118.375a.078.078,0,0,1,.078-.078H47.206a.078.078,0,0,1,.078.078Z" transform="translate(-27.987 -97.958)"/>
        <path id="Trazado_653044" data-name="Trazado 653044" d="M34.3,383.364h9a1.165,1.165,0,0,0,0-2.33h-9a1.165,1.165,0,0,0,0,2.33Z" transform="translate(-27.987 -321.859)"/>
        <path id="Trazado_653045" data-name="Trazado 653045" d="M34.3,350.231h5.146a1.165,1.165,0,0,0,0-2.33H34.3a1.165,1.165,0,0,0,0,2.33Z" transform="translate(-27.987 -293.872)"/>
        <path id="Trazado_653046" data-name="Trazado 653046" d="M159.79,123.443h6.52a2.41,2.41,0,0,0,2.407-2.407v-2.661a2.41,2.41,0,0,0-2.407-2.407h-6.52a2.41,2.41,0,0,0-2.407,2.407v2.661A2.41,2.41,0,0,0,159.79,123.443Zm-.078-5.068a.078.078,0,0,1,.078-.078h6.52a.078.078,0,0,1,.078.078v2.661a.078.078,0,0,1-.078.078h-6.52a.078.078,0,0,1-.078-.078Z" transform="translate(-132.941 -97.958)"/>
        <path id="Trazado_653047" data-name="Trazado 653047" d="M158.548,184.564h12.864a1.165,1.165,0,1,0,0-2.33H158.548a1.165,1.165,0,1,0,0,2.33Z" transform="translate(-132.941 -153.933)"/>
        <path id="Trazado_653048" data-name="Trazado 653048" d="M278.374,184.564a1.165,1.165,0,0,0,0-2.33h-3.859a1.165,1.165,0,1,0,0,2.33Z" transform="translate(-230.898 -153.933)"/>
        <path id="Trazado_653049" data-name="Trazado 653049" d="M215.367,216.532a1.165,1.165,0,0,0,1.165,1.165H229.4a1.165,1.165,0,1,0,0-2.33H216.532A1.165,1.165,0,0,0,215.367,216.532Z" transform="translate(-181.92 -181.921)"/>
        <path id="Trazado_653050" data-name="Trazado 653050" d="M158.548,217.7h3.859a1.165,1.165,0,0,0,0-2.33h-3.859a1.165,1.165,0,0,0,0,2.33Z" transform="translate(-132.941 -181.921)"/>
        <path id="Trazado_653051" data-name="Trazado 653051" d="M56.61,249.666a1.165,1.165,0,0,0-1.165-1.165H42.581a1.165,1.165,0,0,0,0,2.33H55.445A1.165,1.165,0,0,0,56.61,249.666Z" transform="translate(-34.984 -209.909)"/>
        <path id="Trazado_653052" data-name="Trazado 653052" d="M158.548,250.831h3.859a1.165,1.165,0,0,0,0-2.33h-3.859a1.165,1.165,0,0,0,0,2.33Z" transform="translate(-132.941 -209.909)"/>
        <path id="Trazado_653053" data-name="Trazado 653053" d="M99.4,282.8a1.165,1.165,0,0,0,1.165,1.165h21.869a1.165,1.165,0,0,0,0-2.33H100.565A1.165,1.165,0,0,0,99.4,282.8Z" transform="translate(-83.963 -237.897)"/>
        <path id="Trazado_653054" data-name="Trazado 653054" d="M42.581,281.635a1.165,1.165,0,0,0,0,2.33H46.44a1.165,1.165,0,0,0,0-2.33Z" transform="translate(-34.984 -237.897)"/>
      </g>
    </g>
  </g>
</svg>
