<svg xmlns="http://www.w3.org/2000/svg" width="125" height="125" viewBox="0 0 125 125">
  <g id="Grupo_981738" data-name="Grupo 981738" transform="translate(-956 -10009)">
    <path id="Trazado_652990" data-name="Trazado 652990" d="M62.5,0A62.5,62.5,0,1,1,0,62.5,62.5,62.5,0,0,1,62.5,0Z" transform="translate(956 10009)" fill="#ef8b53"/>
    <g id="obediente" transform="translate(968.099 10031.426)">
      <g id="Grupo_977414" data-name="Grupo 977414" transform="translate(30.926 1.174)">
        <path id="Trazado_652991" data-name="Trazado 652991" d="M166.948,7.5H117.1a.783.783,0,0,0-.783.783v21.7h5.133a3.836,3.836,0,0,1,.268,7.663v4.759h0a1.564,1.564,0,0,1,1.327,1.545v9.717a1.564,1.564,0,0,1-1.327,1.545h0v4.759a3.836,3.836,0,0,1-.268,7.663h-5.133v6.424h10.8a1.565,1.565,0,0,1,1.565,1.565v3.115s0,0,0,0h1.193a1.565,1.565,0,0,1,1.565,1.565V85.3h36.29V8.283A.783.783,0,0,0,166.948,7.5Z" transform="translate(-116.315 -7.5)" fill="#fff3de"/>
      </g>
      <g id="Grupo_977415" data-name="Grupo 977415" transform="translate(30.926 1.174)">
        <path id="Trazado_652992" data-name="Trazado 652992" d="M121.448,29.984c.047,0,.093,0,.14,0V8.283a.783.783,0,0,1,.783-.783H117.1a.783.783,0,0,0-.783.783v21.7Z" transform="translate(-116.315 -7.5)" fill="#ffe5c2"/>
        <path id="Trazado_652993" data-name="Trazado 652993" d="M121.448,391.63h-5.133v6.424h5.273v-6.427C121.542,391.629,121.5,391.63,121.448,391.63Z" transform="translate(-116.315 -331.495)" fill="#ffe5c2"/>
      </g>
      <g id="Grupo_977433" data-name="Grupo 977433" transform="translate(16.252 23.658)">
        <g id="Grupo_977416" data-name="Grupo 977416" transform="translate(21.402 16.149)">
          <path id="Trazado_652994" data-name="Trazado 652994" d="M159.3,254.29h7.246v5.353H159.3Z" transform="translate(-159.296 -254.29)" fill="#883f2e"/>
          <path id="Trazado_652995" data-name="Trazado 652995" d="M237.5,254.29h10.35v5.353H237.5Z" transform="translate(-225.26 -254.29)" fill="#883f2e"/>
        </g>
        <g id="Grupo_977417" data-name="Grupo 977417" transform="translate(21.402 18.921)">
          <path id="Trazado_652996" data-name="Trazado 652996" d="M159.3,272h7.246v2.581H159.3Z" transform="translate(-159.296 -272)" fill="#6d3326"/>
          <path id="Trazado_652997" data-name="Trazado 652997" d="M237.5,272h10.35v2.581H237.5Z" transform="translate(-225.26 -272)" fill="#6d3326"/>
        </g>
        <g id="Grupo_977418" data-name="Grupo 977418" transform="translate(43.994 14.9)">
          <path id="Trazado_652998" data-name="Trazado 652998" d="M332.7,250.236a3.926,3.926,0,0,1-3.926,3.926H304.508a.892.892,0,0,1-.892-.892V247.2a.892.892,0,0,1,.892-.892h24.268A3.926,3.926,0,0,1,332.7,250.236Z" transform="translate(-303.616 -246.31)" fill="#ca6e59"/>
        </g>
        <g id="Grupo_977419" data-name="Grupo 977419" transform="translate(43.994 14.9)">
          <path id="Trazado_652999" data-name="Trazado 652999" d="M308.951,250.8a.892.892,0,0,1-.892-.892v-3.6h-3.551a.892.892,0,0,0-.892.892v6.067a.892.892,0,0,0,.892.892h24.268a3.926,3.926,0,0,0,3.885-3.36Z" transform="translate(-303.616 -246.31)" fill="#bb5d4c"/>
        </g>
        <g id="Grupo_977420" data-name="Grupo 977420" transform="translate(28.648 14.9)">
          <path id="Trazado_653000" data-name="Trazado 653000" d="M210.581,247.094v6.286a.783.783,0,0,1-.783.783h-3.431a.783.783,0,0,1-.783-.783v-6.286a.783.783,0,0,1,.783-.783H209.8A.783.783,0,0,1,210.581,247.094Z" transform="translate(-205.585 -246.311)" fill="#ca6e59"/>
        </g>
        <g id="Grupo_977421" data-name="Grupo 977421" transform="translate(28.648 14.9)">
          <path id="Trazado_653001" data-name="Trazado 653001" d="M207.855,253.38v-6.286a.783.783,0,0,1,.783-.783h-2.27a.783.783,0,0,0-.783.783v6.286a.783.783,0,0,0,.783.783h2.27A.783.783,0,0,1,207.855,253.38Z" transform="translate(-205.585 -246.311)" fill="#bb5d4c"/>
        </g>
        <g id="Grupo_977422" data-name="Grupo 977422" transform="translate(9.725 7.663)">
          <path id="Trazado_653002" data-name="Trazado 653002" d="M94.814,312.317H84.941a1.572,1.572,0,0,1-.238-.02v4.759c.089-.006.178-.01.268-.01h9.814c.09,0,.179,0,.268.01V312.3A1.553,1.553,0,0,1,94.814,312.317Z" transform="translate(-84.703 -294.73)" fill="#883f2e"/>
          <path id="Trazado_653003" data-name="Trazado 653003" d="M84.941,312.317a1.572,1.572,0,0,1-.238-.02v4.759c.089-.006.178-.01.268-.01h3.674v-4.729h-3.7Z" transform="translate(-84.703 -294.73)" fill="#6d3326"/>
          <path id="Trazado_653004" data-name="Trazado 653004" d="M84.941,204.818h9.873a1.572,1.572,0,0,1,.238.02v-4.759c-.089.006-.178.01-.268.01H84.971c-.09,0-.179,0-.268-.01v4.759A1.572,1.572,0,0,1,84.941,204.818Z" transform="translate(-84.703 -200.079)" fill="#883f2e"/>
          <path id="Trazado_653005" data-name="Trazado 653005" d="M84.941,204.817h3.7v-4.729H84.971c-.09,0-.179,0-.268-.01v4.759A1.594,1.594,0,0,1,84.941,204.817Z" transform="translate(-84.703 -200.078)" fill="#6d3326"/>
        </g>
        <g id="Grupo_977423" data-name="Grupo 977423" transform="translate(8.398 12.402)">
          <path id="Trazado_653006" data-name="Trazado 653006" d="M89.229,231.917v9.717a1.565,1.565,0,0,1-1.565,1.565H77.79a1.565,1.565,0,0,1-1.565-1.565v-9.717a1.565,1.565,0,0,1,1.565-1.565h9.873A1.565,1.565,0,0,1,89.229,231.917Z" transform="translate(-76.225 -230.352)" fill="#ca6e59"/>
        </g>
        <g id="Grupo_977424" data-name="Grupo 977424" transform="translate(8.398 12.402)">
          <path id="Trazado_653007" data-name="Trazado 653007" d="M81.512,241.634v-9.717a1.565,1.565,0,0,1,1.565-1.565H77.79a1.565,1.565,0,0,0-1.565,1.565v9.717A1.565,1.565,0,0,0,77.79,243.2h5.287A1.565,1.565,0,0,1,81.512,241.634Z" transform="translate(-76.225 -230.352)" fill="#bb5d4c"/>
        </g>
        <g id="Grupo_977427" data-name="Grupo 977427" transform="translate(0 44.075)">
          <path id="Trazado_653008" data-name="Trazado 653008" d="M64.471,437.526a1.6,1.6,0,0,0,.008-.161V434.25a1.565,1.565,0,0,0-1.565-1.565H41.76a1.565,1.565,0,0,0-1.565,1.565v3.115a1.6,1.6,0,0,0,.008.161Z" transform="translate(-37.437 -432.685)" fill="#ca6e59"/>
          <path id="Trazado_653009" data-name="Trazado 653009" d="M45.5,437.526a1.6,1.6,0,0,1-.008-.161V434.25a1.565,1.565,0,0,1,1.565-1.565H41.76a1.565,1.565,0,0,0-1.565,1.565v3.115a1.6,1.6,0,0,0,.008.161Z" transform="translate(-37.437 -432.685)" fill="#bb5d4c"/>
          <g id="Grupo_977425" data-name="Grupo 977425" transform="translate(0 4.684)">
            <path id="Trazado_653010" data-name="Trazado 653010" d="M52.378,469.166H23.361a.783.783,0,0,1-.783-.783v-4.21a1.565,1.565,0,0,1,1.565-1.565H50.812a1.565,1.565,0,0,1,1.565,1.565Z" transform="translate(-22.578 -462.608)" fill="#883f2e"/>
          </g>
          <g id="Grupo_977426" data-name="Grupo 977426" transform="translate(0 4.684)">
            <path id="Trazado_653011" data-name="Trazado 653011" d="M27.81,468.383v-4.21a1.565,1.565,0,0,1,1.565-1.565H24.143a1.565,1.565,0,0,0-1.565,1.565v4.21a.783.783,0,0,0,.783.783h5.232A.783.783,0,0,1,27.81,468.383Z" transform="translate(-22.578 -462.608)" fill="#6d3326"/>
          </g>
        </g>
        <g id="Grupo_977432" data-name="Grupo 977432" transform="translate(6.156)">
          <g id="Grupo_977428" data-name="Grupo 977428" transform="translate(0 29.978)">
            <path id="Trazado_653012" data-name="Trazado 653012" d="M79.392,346.47a3.837,3.837,0,0,1-3.837,3.836H65.742a3.837,3.837,0,1,1,0-7.673h9.814A3.837,3.837,0,0,1,79.392,346.47Z" transform="translate(-61.905 -342.633)" fill="#ca6e59"/>
          </g>
          <g id="Grupo_977429" data-name="Grupo 977429" transform="translate(0 29.978)">
            <path id="Trazado_653013" data-name="Trazado 653013" d="M67.131,346.47a3.837,3.837,0,0,1,3.837-3.837H65.742a3.837,3.837,0,1,0,0,7.673h5.226A3.837,3.837,0,0,1,67.131,346.47Z" transform="translate(-61.905 -342.633)" fill="#bb5d4c"/>
          </g>
          <g id="Grupo_977430" data-name="Grupo 977430" transform="translate(0)">
            <path id="Trazado_653014" data-name="Trazado 653014" d="M79.392,154.965a3.837,3.837,0,0,1-3.837,3.837H65.742a3.837,3.837,0,1,1,0-7.673h9.814A3.837,3.837,0,0,1,79.392,154.965Z" transform="translate(-61.905 -151.128)" fill="#ca6e59"/>
          </g>
          <g id="Grupo_977431" data-name="Grupo 977431">
            <path id="Trazado_653015" data-name="Trazado 653015" d="M67.131,154.965a3.837,3.837,0,0,1,3.837-3.836H65.742a3.837,3.837,0,1,0,0,7.673h5.226A3.836,3.836,0,0,1,67.131,154.965Z" transform="translate(-61.905 -151.128)" fill="#bb5d4c"/>
          </g>
        </g>
      </g>
      <g id="Grupo_977436" data-name="Grupo 977436" transform="translate(45.649 8.47)">
        <g id="Grupo_977434" data-name="Grupo 977434">
          <circle id="Elipse_7861" data-name="Elipse 7861" cx="10.984" cy="10.984" r="10.984" fill="#4fc123"/>
        </g>
        <g id="Grupo_977435" data-name="Grupo 977435" transform="translate(0)">
          <path id="Trazado_653016" data-name="Trazado 653016" d="M215.636,65.091a10.987,10.987,0,0,1,8.352-10.665,10.984,10.984,0,1,0,0,21.329A10.987,10.987,0,0,1,215.636,65.091Z" transform="translate(-210.372 -54.107)" fill="#47a920"/>
        </g>
      </g>
      <g id="Grupo_977437" data-name="Grupo 977437" transform="translate(15.078 0)">
        <path id="Trazado_653017" data-name="Trazado 653017" d="M85.407,37.384h-1.89V17.063a1.174,1.174,0,0,0-1.21-1.174,1.207,1.207,0,0,0-1.138,1.223V37.384H73.3a1.174,1.174,0,1,0,0,2.348H85.407a2.752,2.752,0,0,1,0,5.5H61.42v-5.5h6.4a1.174,1.174,0,1,0,0-2.348H61.138a2.069,2.069,0,0,0-1.9,1.249H50.936a1.958,1.958,0,0,0-1.822-1.249H45.683a1.959,1.959,0,0,0-1.822,1.249H38.828V37.625A2.738,2.738,0,0,0,37.5,35.282V32.292a5.01,5.01,0,0,0-1.442-9.809H32.1V2.348H81.168v9.236a1.174,1.174,0,0,0,1.21,1.174,1.207,1.207,0,0,0,1.138-1.223V1.957A1.957,1.957,0,0,0,81.559,0H31.708a1.957,1.957,0,0,0-1.957,1.957V22.484H26.245A5.01,5.01,0,0,0,24.8,32.292v2.989a2.738,2.738,0,0,0-1.327,2.343v9.717A2.738,2.738,0,0,0,24.8,49.685v2.989a5.01,5.01,0,0,0,1.442,9.809h3.507v4.076H20.575A2.743,2.743,0,0,0,17.836,69.3v1.945h-.018a2.743,2.743,0,0,0-2.739,2.739v4.21a1.959,1.959,0,0,0,1.957,1.957H81.559a1.957,1.957,0,0,0,1.957-1.957V47.583h1.89a5.1,5.1,0,0,0,0-10.2Zm-34.336,3.6h8v3.005h-8Zm-5-1.249h2.648v5.5H46.074Zm-7.246,1.249h4.9v3.005h-4.9ZM23.582,27.494a2.666,2.666,0,0,1,2.662-2.662h9.814a2.662,2.662,0,0,1,0,5.325H26.245a2.665,2.665,0,0,1-2.662-2.662Zm2.633,20.239a.392.392,0,0,1-.391-.391V37.625a.392.392,0,0,1,.391-.391h9.873a.392.392,0,0,1,.391.391v9.717a.392.392,0,0,1-.391.391Zm8.937,2.348v2.381h-8V50.081Zm-8-15.2V32.5h8v2.381Zm-.906,25.25a2.662,2.662,0,1,1,0-5.325h9.814a2.662,2.662,0,1,1,0,5.325ZM44.878,77.8H17.426V73.982a.392.392,0,0,1,.391-.391h7.267a1.174,1.174,0,1,0,0-2.348h-4.9V69.3a.392.392,0,0,1,.391-.391H41.729a.392.392,0,0,1,.391.391v1.945H30.563a1.174,1.174,0,0,0,0,2.348H44.487a.392.392,0,0,1,.391.391Zm36.29,0H47.226V73.982a2.743,2.743,0,0,0-2.739-2.739h-.018V69.3a2.743,2.743,0,0,0-2.739-2.739H32.1V62.483h3.96A5.01,5.01,0,0,0,37.5,52.674V49.685a2.738,2.738,0,0,0,1.327-2.343V46.334h5.032a1.958,1.958,0,0,0,1.822,1.249h3.431a1.959,1.959,0,0,0,1.822-1.249h8.305a2.069,2.069,0,0,0,1.9,1.249h20.03V77.8Z" transform="translate(-15.078 0)"/>
        <path id="Trazado_653018" data-name="Trazado 653018" d="M202.872,58.765A12.158,12.158,0,1,0,215.03,46.607a12.172,12.172,0,0,0-12.158,12.158Zm21.969,0a9.81,9.81,0,1,1-9.81-9.81,9.821,9.821,0,0,1,9.81,9.81Z" transform="translate(-173.475 -39.311)"/>
        <path id="Trazado_653019" data-name="Trazado 653019" d="M248.348,103.489a1.174,1.174,0,0,0-1.66,1.66l3.611,3.611a1.174,1.174,0,0,0,1.661,0l5.6-5.6a1.174,1.174,0,0,0-1.66-1.66l-4.767,4.767Z" transform="translate(-210.141 -85.324)"/>
        <path id="Trazado_653020" data-name="Trazado 653020" d="M243.681,328.243a1.174,1.174,0,0,0,1.174,1.174h21.592a1.174,1.174,0,1,0,0-2.348H244.855A1.174,1.174,0,0,0,243.681,328.243Z" transform="translate(-207.895 -275.869)"/>
        <path id="Trazado_653021" data-name="Trazado 653021" d="M322.806,363.546H311.674a1.174,1.174,0,0,0,0,2.348h11.132a1.174,1.174,0,1,0,0-2.348Z" transform="translate(-264.254 -306.636)"/>
        <path id="Trazado_653022" data-name="Trazado 653022" d="M244.855,365.894h6.39a1.174,1.174,0,1,0,0-2.348h-6.39a1.174,1.174,0,1,0,0,2.348Z" transform="translate(-207.895 -306.636)"/>
        <path id="Trazado_653023" data-name="Trazado 653023" d="M266.446,400.023H244.854a1.174,1.174,0,1,0,0,2.348h21.592a1.174,1.174,0,1,0,0-2.348Z" transform="translate(-207.894 -337.403)"/>
        <path id="Trazado_653024" data-name="Trazado 653024" d="M352.327,436.5h-5.653a1.174,1.174,0,0,0,0,2.348h5.653a1.174,1.174,0,1,0,0-2.348Z" transform="translate(-293.775 -368.17)"/>
        <path id="Trazado_653025" data-name="Trazado 653025" d="M257.193,436.5H244.855a1.174,1.174,0,1,0,0,2.348h12.338a1.174,1.174,0,1,0,0-2.348Z" transform="translate(-207.895 -368.17)"/>
      </g>
    </g>
  </g>
</svg>
