<svg xmlns="http://www.w3.org/2000/svg" width="106" height="106" viewBox="0 0 106 106">
  <g id="Grupo_944885" data-name="Grupo 944885" transform="translate(-258 -1219)">
    <rect id="Rectángulo_306248" data-name="Rectángulo 306248" width="106" height="106" transform="translate(258 1219)" fill="none"/>
    <g id="XMLID_1368_" transform="translate(267.307 1228.631)">
      <g id="XMLID_2646_" transform="translate(0 0.059)">
        <g id="XMLID_1946_">
          <g id="XMLID_1201_">
            <path id="XMLID_1205_" d="M219.54,371.951a1.706,1.706,0,1,0,1.207-.5A1.717,1.717,0,0,0,219.54,371.951Z" transform="translate(-181.654 -308.061)" fill="#faebcd"/>
            <path id="XMLID_1339_" d="M340.887,402.761a1.708,1.708,0,1,0,1.207.5A1.719,1.719,0,0,0,340.887,402.761Z" transform="translate(-281.288 -334.027)" fill="#faebcd"/>
            <path id="XMLID_1340_" d="M49.776,105.414a1.7,1.7,0,1,0-1.207-.5A1.715,1.715,0,0,0,49.776,105.414Z" transform="translate(-39.864 -84.602)" fill="#faebcd"/>
            <path id="XMLID_1353_" d="M89.776,105.41h1.531a1.707,1.707,0,1,0,0-3.414H89.776a1.707,1.707,0,0,0,0,3.414Z" transform="translate(-73.037 -84.597)" fill="#faebcd"/>
            <path id="XMLID_1359_" d="M89.776,148.143h1.531a1.707,1.707,0,0,0,0-3.414H89.776a1.707,1.707,0,0,0,0,3.414Z" transform="translate(-73.037 -120.036)" fill="#faebcd"/>
            <path id="XMLID_1360_" d="M89.776,190.874h1.531a1.707,1.707,0,1,0,0-3.414H89.776a1.707,1.707,0,1,0,0,3.414Z" transform="translate(-73.037 -155.474)" fill="#faebcd"/>
            <path id="XMLID_1364_" d="M85.653,36.86,73.29,24.5A17.208,17.208,0,0,0,42.446,9.253H6.569A6.577,6.577,0,0,0,0,15.822V65.638a6.577,6.577,0,0,0,6.569,6.569H31.925v5.329H28.643a6.157,6.157,0,0,0-6.151,6.151v2.032A1.707,1.707,0,0,0,24.2,87.425H53.988A1.707,1.707,0,0,0,55.7,85.718V83.686a6.158,6.158,0,0,0-6.151-6.151H46.262V72.207h6.51a1.707,1.707,0,0,0,0-3.414H6.569a3.159,3.159,0,0,1-3.156-3.155V62.026H74.759v3.611A3.159,3.159,0,0,1,71.6,68.793H66.427a1.707,1.707,0,0,0,0,3.414H71.6a6.577,6.577,0,0,0,6.569-6.569V45.985a5.929,5.929,0,0,0,7.481-9.125ZM52.282,83.686v.325H25.906v-.325a2.74,2.74,0,0,1,2.737-2.737h20.9A2.74,2.74,0,0,1,52.282,83.686Zm-9.433-11.48v5.329h-7.51V72.207ZM57.672,3.473a13.8,13.8,0,1,1-13.8,13.8A13.813,13.813,0,0,1,57.672,3.473Zm-6.09,29.894a17.125,17.125,0,0,0,6.09,1.114l.221,0v15.75H51.581ZM3.414,58.613V15.822a3.159,3.159,0,0,1,3.156-3.155H41.087a17.213,17.213,0,0,0,1.077,12.066l-3.122,3.122L33.849,22.66a1.707,1.707,0,0,0-2.414,0l-6.518,6.518a1.707,1.707,0,1,0,2.414,2.414l5.311-5.311,5.194,5.194a1.707,1.707,0,0,0,2.414,0l3.756-3.756a17.354,17.354,0,0,0,4.163,3.893V50.228H45.5V35.64A1.707,1.707,0,0,0,43.8,33.933H34.072a1.707,1.707,0,0,0-1.707,1.707V50.228H29.7V41.046a1.707,1.707,0,0,0-1.707-1.707H18.269a1.707,1.707,0,0,0-1.707,1.707v9.183H11.619V25.992a1.707,1.707,0,0,0-3.414,0V51.935a1.707,1.707,0,0,0,1.707,1.707H68.261a1.707,1.707,0,0,0,0-3.414H61.306V34.094a17.069,17.069,0,0,0,3.6-1.211l9.849,9.849V58.613ZM42.09,50.228H35.779V37.346H42.09Zm-15.8,0H19.976V42.752h6.311Zm56.952-7.4a2.514,2.514,0,0,1-3.555,0l-11.75-11.75a17.361,17.361,0,0,0,3.554-3.557L83.24,39.274A2.517,2.517,0,0,1,83.24,42.829Z" transform="translate(0 -0.059)" fill="#faebcd"/>
            <path id="XMLID_1388_" d="M311.707,58.107a1.831,1.831,0,0,1-1.975-1.635,1.707,1.707,0,1,0-3.414,0A5.1,5.1,0,0,0,310,61.26a1.7,1.7,0,0,0,3.408,0,5.1,5.1,0,0,0,3.685-4.788,5.233,5.233,0,0,0-5.389-5.048,1.664,1.664,0,1,1,1.975-1.635,1.707,1.707,0,0,0,3.414,0A5.1,5.1,0,0,0,313.413,45V44.93a1.707,1.707,0,1,0-3.414,0V45a5.1,5.1,0,0,0-3.682,4.787,5.233,5.233,0,0,0,5.389,5.048,1.664,1.664,0,1,1,0,3.269Z" transform="translate(-254.035 -35.856)" fill="#faebcd"/>
          </g>
        </g>
      </g>
    </g>
  </g>
</svg>
