<svg id="Grupo_975380" data-name="Grupo 975380" xmlns="http://www.w3.org/2000/svg" width="190" height="141" viewBox="0 0 190 141">
  <rect id="Rectángulo_305880" data-name="Rectángulo 305880" width="190" height="141" fill="none"/>
  <g id="mundo-verde" transform="translate(29.37 -10.333)">
    <g id="Grupo_975379" data-name="Grupo 975379" transform="translate(1.959 28.499)">
      <g id="Grupo_975378" data-name="Grupo 975378" transform="translate(0.715)">
        <path id="Trazado_652408" data-name="Trazado 652408" d="M40.839,46.243A12.154,12.154,0,0,1,28.685,67.3,12.154,12.154,0,0,1,16.532,46.243a12.153,12.153,0,0,1,24.307,0Z" transform="translate(-10.459 -34.09)" fill="#95d6a4" fill-rule="evenodd"/>
        <path id="Trazado_652409" data-name="Trazado 652409" d="M389.335,46.243A12.154,12.154,0,0,1,377.181,67.3a12.154,12.154,0,0,1-12.153-21.052,12.153,12.153,0,0,1,24.307,0Z" transform="translate(-269.86 -34.09)" fill="#95d6a4" fill-rule="evenodd"/>
        <path id="Trazado_652410" data-name="Trazado 652410" d="M215.087,46.243A12.154,12.154,0,0,1,202.934,67.3a12.154,12.154,0,0,1-12.153-21.052,12.153,12.153,0,0,1,24.307,0Z" transform="translate(-140.16 -34.09)" fill="#95d6a4" fill-rule="evenodd"/>
      </g>
      <path id="Trazado_652411" data-name="Trazado 652411" d="M134.642,231.722c-.007.188-.015.435-.022.623a63.532,63.532,0,0,1-126.924.13c-.087-1.841-.188-3.051,2.218-3.051H132.388A2.022,2.022,0,0,1,134.642,231.722Z" transform="translate(-7.663 -179.487)" fill="#98e5fa" fill-rule="evenodd"/>
      <path id="Trazado_652412" data-name="Trazado 652412" d="M310.46,231.723c-.007.188-.015.435-.022.623a63.537,63.537,0,0,1-63.469,60.613c-1.036,0-2.073-.029-3.1-.08a63.527,63.527,0,0,0,60.368-60.533c.007-.188.015-.435.022-.623a2.022,2.022,0,0,0-2.254-2.3h6.2A2.022,2.022,0,0,1,310.46,231.723Z" transform="translate(-183.48 -179.487)" fill="#8bdef5" fill-rule="evenodd"/>
      <path id="Trazado_652413" data-name="Trazado 652413" d="M54.466,289.925a10.333,10.333,0,0,0-10.3-10.3H12.586A63.532,63.532,0,0,0,37.675,318.34h.29a10.28,10.28,0,0,0,8.24-16.45c-.717-.964-.587-1.667.7-2.036A10.4,10.4,0,0,0,54.466,289.925Z" transform="translate(-11.327 -216.854)" fill="#b3e59f" fill-rule="evenodd"/>
      <path id="Trazado_652414" data-name="Trazado 652414" d="M296.362,289.765a8.235,8.235,0,0,0,1.362,4.507c.927,1.42.8,1.616-.732,2.145a8.184,8.184,0,0,0,2.624,15.936H328.1a63.339,63.339,0,0,0,16.4-30.77H304.551A8.211,8.211,0,0,0,296.362,289.765Z" transform="translate(-218.887 -218.31)" fill="#b3e59f" fill-rule="evenodd"/>
      <path id="Trazado_652415" data-name="Trazado 652415" d="M171.385,437.844a63.781,63.781,0,0,0,42.707.2c-4.7-5.37-12.552-8.892-21.444-8.892C183.872,429.155,176.1,432.59,171.385,437.844Z" transform="translate(-129.529 -328.155)" fill="#b3e59f" fill-rule="evenodd"/>
      <path id="Trazado_652416" data-name="Trazado 652416" d="M106.919,318.341a10.28,10.28,0,0,0,8.24-16.45c-.717-.964-.587-1.667.7-2.036a10.3,10.3,0,0,0-2.732-20.226h-6.2a10.3,10.3,0,0,1,2.732,20.226c-1.283.37-1.413,1.072-.7,2.036a10.268,10.268,0,0,1-3.732,15.407c.464.355.935.7,1.406,1.044Z" transform="translate(-80.281 -216.855)" fill="#95d6a4" fill-rule="evenodd"/>
      <path id="Trazado_652417" data-name="Trazado 652417" d="M433.207,281.582H427a63.343,63.343,0,0,1-16.4,30.77h6.2A63.337,63.337,0,0,0,433.207,281.582Z" transform="translate(-307.59 -218.31)" fill="#95d6a4" fill-rule="evenodd"/>
      <path id="Trazado_652418" data-name="Trazado 652418" d="M427.3,68.919a12.15,12.15,0,0,0,6.073-22.676,12.166,12.166,0,0,0-15.255-11.754,12.152,12.152,0,0,1,9.051,11.754A12.157,12.157,0,0,1,424.2,68.52,12.133,12.133,0,0,0,427.3,68.919Z" transform="translate(-313.181 -34.09)" fill="#78c2a4" fill-rule="evenodd"/>
      <path id="Trazado_652419" data-name="Trazado 652419" d="M253.049,68.919a12.15,12.15,0,0,0,6.073-22.676,12.167,12.167,0,0,0-15.255-11.754,12.152,12.152,0,0,1,9.051,11.754,12.153,12.153,0,0,1-2.971,22.277,12.137,12.137,0,0,0,3.1.4Z" transform="translate(-183.48 -34.09)" fill="#78c2a4" fill-rule="evenodd"/>
      <path id="Trazado_652420" data-name="Trazado 652420" d="M78.8,68.919a12.15,12.15,0,0,0,6.073-22.676A12.166,12.166,0,0,0,69.62,34.489a12.152,12.152,0,0,1,9.051,11.754A12.153,12.153,0,0,1,75.7,68.52,12.134,12.134,0,0,0,78.8,68.919Z" transform="translate(-53.78 -34.09)" fill="#78c2a4" fill-rule="evenodd"/>
    </g>
    <path id="Trazado_652421" data-name="Trazado 652421" d="M47.591,80.358a1.917,1.917,0,0,1,0-3.834H63.534V64.618A14.061,14.061,0,0,1,47.185,44.16a14.248,14.248,0,0,1,4.232-4.587,14.089,14.089,0,0,1,9.081-12.1,1.913,1.913,0,0,1,1.348,3.58,10.391,10.391,0,0,0-4.827,3.768,10.222,10.222,0,0,0-1.8,5.827h-.007a1.9,1.9,0,0,1-.957,1.652A10.3,10.3,0,0,0,50.5,46.059a10.247,10.247,0,0,0,8.878,15.356,10.3,10.3,0,0,0,4.16-.877V56.523l-6.8-6.8a1.917,1.917,0,0,1,2.71-2.71L63.535,51.1V40.949a1.917,1.917,0,1,1,3.834,0V51.1l4.087-4.087a1.917,1.917,0,0,1,2.71,2.71l-6.8,6.8v4.015A10.241,10.241,0,0,0,76.753,42.37a1.914,1.914,0,0,1-1.065-1.717,10.236,10.236,0,0,0-6.638-9.595,1.913,1.913,0,0,1,1.348-3.58,14.089,14.089,0,0,1,9.081,12.1,14.193,14.193,0,0,1,4.239,4.587A14.065,14.065,0,0,1,67.368,64.618V76.524h40.707V64.618A14.059,14.059,0,0,1,91.732,44.16a14.164,14.164,0,0,1,4.232-4.587,14.072,14.072,0,0,1,28.06,0,14.171,14.171,0,0,1,4.232,4.587,14.061,14.061,0,0,1-16.342,20.458V76.524h17.067a1.911,1.911,0,0,1,1.913,1.913,65.448,65.448,0,1,1-130.9,0,1.918,1.918,0,0,1,1.92-1.913H18.987V64.618A14.061,14.061,0,0,1,2.638,44.16,14.245,14.245,0,0,1,6.87,39.573a14.072,14.072,0,0,1,28.06,0,14.193,14.193,0,0,1,4.24,4.587A14.065,14.065,0,0,1,22.821,64.618V76.524H38.909a1.917,1.917,0,0,1,0,3.834H3.863a62.418,62.418,0,0,0,.935,9h30a12.214,12.214,0,0,1,4.058,23.726,12.537,12.537,0,0,1,.826,1.5,12.179,12.179,0,0,1-2.507,13.784,12.551,12.551,0,0,1-3.964,2.587A61.624,61.624,0,0,0,43.3,135.949a27.225,27.225,0,0,1,7.088-5.022,32.356,32.356,0,0,1,10.11-3.037,1.911,1.911,0,0,1,.492,3.79,28.417,28.417,0,0,0-8.906,2.681,24.111,24.111,0,0,0-4.66,3.008,61.963,61.963,0,0,0,35.5.167,23.416,23.416,0,0,0-4.74-3.116,28.436,28.436,0,0,0-9.023-2.739,1.911,1.911,0,1,1,.493-3.79A32.428,32.428,0,0,1,79.913,131a26.9,26.9,0,0,1,7.138,5.16,61.707,61.707,0,0,0,19.364-11.7H82.688a10.092,10.092,0,0,1-7.3-17.074,10.2,10.2,0,0,1,3.493-2.384,10.1,10.1,0,0,1,8.74-15.153H98.3a1.917,1.917,0,0,1,0,3.834H87.623a6.3,6.3,0,0,0-6.268,6.269,6.145,6.145,0,0,0,.572,2.616,6.212,6.212,0,0,0,1.638,2.152,1.915,1.915,0,0,1,.2,2.7,1.877,1.877,0,0,1-1.4.674,6.269,6.269,0,0,0,.319,12.53h27.669a61.518,61.518,0,0,0,14.806-26.937H106.98a1.917,1.917,0,0,1,0-3.834H126a61.973,61.973,0,0,0,1.029-9.493H47.591ZM116,47.015a1.917,1.917,0,0,1,2.71,2.71l-6.8,6.8v4.015a10.181,10.181,0,0,0,1.5.529,10.286,10.286,0,0,0,2.66.348,10.26,10.26,0,0,0,8.878-15.356A10.3,10.3,0,0,0,121.3,42.37a1.909,1.909,0,0,1-1.072-1.717,10.233,10.233,0,1,0-20.465,0h-.007A1.9,1.9,0,0,1,98.8,42.3a10.3,10.3,0,0,0-3.754,3.754,10.247,10.247,0,0,0,8.878,15.356,10.25,10.25,0,0,0,4.153-.877V56.523l-6.8-6.8a1.916,1.916,0,1,1,2.71-2.71l4.087,4.087V40.949a1.92,1.92,0,0,1,3.841,0V51.1Zm-89.094,0a1.917,1.917,0,0,1,2.71,2.71l-6.8,6.8v4.015A10.241,10.241,0,0,0,32.206,42.37a1.915,1.915,0,0,1-1.065-1.717,10.236,10.236,0,0,0-20.473,0h-.007A1.909,1.909,0,0,1,9.711,42.3a10.238,10.238,0,0,0-2.123,16.11,10.247,10.247,0,0,0,9.892,2.652,10.577,10.577,0,0,0,1.507-.529V56.523l-6.805-6.8a1.919,1.919,0,1,1,2.718-2.71L18.987,51.1V40.949a1.917,1.917,0,1,1,3.834,0V51.1ZM5.616,93.192A61.666,61.666,0,0,0,28.908,128.05a8.762,8.762,0,0,0,5.6-2.428,8.361,8.361,0,0,0,1.7-9.428,8.477,8.477,0,0,0-2.181-2.884,1.91,1.91,0,0,1,1.189-3.362A8.383,8.383,0,0,0,34.8,93.193H5.616Z" transform="translate(0 0)"/>
  </g>
</svg>
