<svg xmlns="http://www.w3.org/2000/svg" width="182.042" height="253.991" viewBox="0 0 182.042 253.991">
  <g id="Grupo_974122" data-name="Grupo 974122" transform="translate(-366.634 -5207.345)">
    <path id="Trazado_651409" data-name="Trazado 651409" d="M466.392,5471.934c-.09-2.847-.184-5.7-.312-8.542-.259-5.759-.661-11.518-1.47-17.228-1.354-9.56-4.916-18.068-7.408-27.3a106.655,106.655,0,0,1-2.355-11.114,127.378,127.378,0,0,1-1.484-21.045c.059-6.909.559-13.884,2.985-20.415,1.318-3.551,2.78-8,5.666-10.608.457-.411,1.268-.864,1.644-1.251v-.01c.143-.108.282-.221.414-.34.1-.639.218-1.275.314-1.922.008-.049.014-.1.021-.147-1.491-.12-3.137.958-4.448,1.526-3.124,1.359-6.332,2.521-9.446,3.91-1.433.639-2.888,1.311-4.287,1.99-1.366.665-2.439,1.784-3.812,2.452-1.535.747-3.072,1.487-4.632,2.185-1.179.528-2.363,1.051-3.538,1.591a32.715,32.715,0,0,0,3.252,6.465c-.042.146-.083.292-.129.437-1.158,3.683-3.417,6.863-4.958,10.375-.378.863-.695,1.743-1.008,2.616h0c.706.385.735,1.246.975,1.988,1.99,6.164-1.272,9.726-2.168,15.492-.719,4.618,1.008,8.794.817,13.3-.123,2.91-1.739,5.4-2.487,8.149a30.336,30.336,0,0,0-.745,3.747c-1.672,12.035-4.378,24.008-6.735,35.947-.564,2.86-1.053,5.95-1.792,8.971h.007c.76,9.235.858,18.681.786,28.014h46.276c.2-4.171.355-8.346.368-12.521C466.725,5483.036,466.57,5477.536,466.392,5471.934Zm-10.22-16.159a2.544,2.544,0,0,1,1.947-3.608,2.418,2.418,0,0,1,1.962.494c1.429,1.117.828,2.943-.17,4.126S456.7,5456.954,456.172,5455.775Zm5.369,27.878c-.99,1.174-3.211.167-3.738-1.012a2.543,2.543,0,0,1,1.945-3.608,2.416,2.416,0,0,1,1.963.494C463.141,5480.643,462.539,5482.469,461.542,5483.653Z" transform="translate(-14.694 -40.386)" fill="#ef8b53"/>
    <path id="Trazado_651410" data-name="Trazado 651410" d="M432.978,5266.46a.77.77,0,0,1,.085,1.238,1.91,1.91,0,0,1-1.545.353c-.769-.1-1.571-.156-2.342-.194-.91-.045-1.824-.05-2.736-.081-.662-.023-1.829.1-2.361-.383-.675-.617-.1-1.22.613-1.368a8.089,8.089,0,0,1,1.965.03c.469.018.946.042,1.421.059,1.011.034,2.025.018,3.036.027A3.489,3.489,0,0,1,432.978,5266.46Z" transform="translate(-15.954 -16.366)" fill="#ffbc3b"/>
    <path id="Trazado_651411" data-name="Trazado 651411" d="M425.361,5246.292c.861.054.8,1,.273,1.427-.072.288-.525.367-.756.541-.347.259-2.243,1.728-2.539,2.043a5.473,5.473,0,0,1-.9.649c-.412.295-1.783,1.339-2.222.528a.819.819,0,0,1,.089-.771,3.266,3.266,0,0,1,1.3-1.069,4.08,4.08,0,0,0,1.266-.955c.3-.376,2.229-1.713,2.6-2.01A1.337,1.337,0,0,1,425.361,5246.292Z" transform="translate(-14.664 -10.873)" fill="#ffbc3b"/>
    <path id="Trazado_651412" data-name="Trazado 651412" d="M425.058,5285.848a.771.771,0,0,1-.811.939,1.907,1.907,0,0,1-1.348-.836c-.472-.615-1-1.215-1.525-1.785-.615-.673-1.261-1.319-1.885-1.983-.454-.483-1.372-1.214-1.408-1.935-.047-.913.789-.935,1.4-.539a8.074,8.074,0,0,1,1.375,1.4c.321.346.644.7.968,1.042.695.736,1.426,1.437,2.139,2.156A3.523,3.523,0,0,1,425.058,5285.848Z" transform="translate(-14.363 -20.135)" fill="#ffbc3b"/>
    <path id="Trazado_651413" data-name="Trazado 651413" d="M413.573,5267.953c.21,1.317-1.308,1.272-2.268,1.216a4.817,4.817,0,0,1,1.137-1.521C412.915,5267.24,413.458,5267.222,413.573,5267.953Z" transform="translate(-12.471 -16.757)" fill="#ffbc3b"/>
    <path id="Trazado_651414" data-name="Trazado 651414" d="M408.684,5290.855c0,.039-.136-.021-.21-.045-.141-.045-.29-.1-.425-.156a5.734,5.734,0,0,0-.89-.311c-1.561-.369-3.116-.928-4.643-1.415h-.043c0-.436.022-.879-.007-1.31-.018-.277-.122-.59-.133-.887h.024a23.224,23.224,0,0,0,3.072,1.183,17.9,17.9,0,0,1,3.02.994c.121.062.282.221.4.179h.053a10.92,10.92,0,0,1-.136,1.784Z" transform="translate(-9.966 -22.163)" fill="#dedede"/>
    <path id="Trazado_651415" data-name="Trazado 651415" d="M408.529,5291.661c.074.025.21.085.21.045l.085.014c-.025.154-.056.308-.092.46a5.02,5.02,0,0,1-.418,1.332,3.709,3.709,0,0,1-.217.34l-.017-.011c-.412-.167-.834-.405-1.27-.549-1.36-.444-2.734-1.042-4.051-1.6l-.143,0a9.635,9.635,0,0,0-.044-1.19,5.6,5.6,0,0,1-.045-.724h.043c1.527.486,3.082,1.046,4.643,1.415a5.734,5.734,0,0,1,.89.311C408.239,5291.562,408.387,5291.616,408.529,5291.661Z" transform="translate(-10.021 -23.014)" fill="#dedede"/>
    <path id="Trazado_651416" data-name="Trazado 651416" d="M404.075,5280.554h-.019c-.109-1.569-.6-3.086-.84-4.646a30.643,30.643,0,0,0-1.162-5.907,8.532,8.532,0,0,0-.376-.879l.321-.019a4.193,4.193,0,0,0,1.118-.28,3.2,3.2,0,0,0,1.037-.689,4.754,4.754,0,0,0,.861-.827c.024-.037.047-.075.071-.112a4.223,4.223,0,0,0,2.1,1.628,4.147,4.147,0,0,0,1.118.28l.319.019a8.231,8.231,0,0,0-.375.879,206.778,206.778,0,0,0-1.9,10.194c0,.132.02.266.022.4C405.6,5280.6,404.83,5280.575,404.075,5280.554Z" transform="translate(-9.784 -16.709)" fill="#ffbc3b"/>
    <path id="Trazado_651417" data-name="Trazado 651417" d="M408.114,5294.583l.017.011a3.375,3.375,0,0,1-.634.674,3.091,3.091,0,0,1-2.238.449,2.953,2.953,0,0,1-2.079-1.374,3.342,3.342,0,0,1-.478-1.223,4.646,4.646,0,0,1-.052-.686l.143,0c1.317.559,2.691,1.156,4.051,1.6C407.28,5294.177,407.7,5294.416,408.114,5294.583Z" transform="translate(-10.055 -23.755)" fill="#dedede"/>
    <path id="Trazado_651418" data-name="Trazado 651418" d="M406.625,5263.458a4.388,4.388,0,0,1-.523,2.319,4.716,4.716,0,0,1-.735-1.812c-.1-.525-.1-1.49.461-1.8S406.619,5263.162,406.625,5263.458Z" transform="translate(-10.8 -15.293)" fill="#ffbc3b"/>
    <path id="Trazado_651419" data-name="Trazado 651419" d="M406.354,5237.842c.181.234-.034.639-.042.929-.009.435-.022,2.832.045,3.257a5.388,5.388,0,0,1-.04,1.107c-.022.507-.043,2.228-.954,2.075a.814.814,0,0,1-.551-.545,3.232,3.232,0,0,1-.044-1.679,4.131,4.131,0,0,0,.027-1.585c-.11-.471.025-2.813.018-3.283a1.345,1.345,0,0,1,.246-.941C405.636,5236.532,406.339,5237.166,406.354,5237.842Z" transform="translate(-10.622 -8.253)" fill="#ffbc3b"/>
    <path id="Trazado_651420" data-name="Trazado 651420" d="M405,5285.728c-.005.02,0,.031-.016.051,0-.017,0-.035,0-.051Z" transform="translate(-10.705 -21.883)" fill="#8cc295"/>
    <path id="Trazado_651421" data-name="Trazado 651421" d="M399.465,5276.016l-.169.085-.041-.127a7.821,7.821,0,0,0-.8-1.63c-.827-1.269-2.209-1.854-3.337-2.779a13.021,13.021,0,0,1-4.578-9.256c-.293-5.7,4.057-11.09,9.9-11.222a12.441,12.441,0,0,1,7.494,2.018,11.585,11.585,0,0,1,4.1,13.4,12.411,12.411,0,0,1-1.828,3.354c-.836,1.093-2.077,1.757-2.931,2.8-.776.943-1.86,1.893-1.967,3.188l-.014.138-.078.031c-.646.058-1.3.08-1.969.083,0-.132-.022-.266-.022-.4a206.778,206.778,0,0,1,1.9-10.194,8.243,8.243,0,0,1,.375-.879c.96.056,2.478.1,2.268-1.217-.115-.73-.658-.713-1.131-.3a4.807,4.807,0,0,0-1.137,1.521l-.319-.019a4.128,4.128,0,0,1-1.118-.28,4.221,4.221,0,0,1-2.1-1.629,4.387,4.387,0,0,0,.523-2.319c-.005-.3-.231-1.6-.8-1.29s-.557,1.272-.461,1.8a4.715,4.715,0,0,0,.734,1.812c-.024.038-.047.076-.071.112a4.741,4.741,0,0,1-.861.827,3.2,3.2,0,0,1-1.037.689,4.174,4.174,0,0,1-1.118.28l-.321.019a4.8,4.8,0,0,0-1.138-1.521c-.472-.409-1.013-.427-1.13.3-.21,1.318,1.308,1.272,2.268,1.217a8.552,8.552,0,0,1,.376.879,30.642,30.642,0,0,1,1.162,5.907c.239,1.56.731,3.078.84,4.646C400.442,5276.042,399.948,5276.026,399.465,5276.016Z" transform="translate(-6.671 -12.211)" fill="#ffbc3b"/>
    <path id="Trazado_651422" data-name="Trazado 651422" d="M402.356,5286.421h-.024a.8.8,0,0,1,.259-.678l.169-.085c.483.009.977.025,1.478.04,0,.017,0,.035,0,.051.019-.02.011-.031.016-.051.755.022,1.525.044,2.292.038.665,0,1.323-.025,1.969-.083l.078-.03c.3.189.311.624.311.939,0,.429-.023.852-.014,1.284.007.31.013.621.011.93h-.053c-.121.042-.282-.118-.4-.179a17.858,17.858,0,0,0-3.02-.994A23.089,23.089,0,0,1,402.356,5286.421Z" transform="translate(-9.966 -21.854)" fill="#dedede"/>
    <path id="Trazado_651423" data-name="Trazado 651423" d="M399.654,5267.649a4.808,4.808,0,0,1,1.138,1.521c-.961.056-2.479.1-2.268-1.216C398.641,5267.222,399.181,5267.24,399.654,5267.649Z" transform="translate(-8.897 -16.757)" fill="#ffbc3b"/>
    <path id="Trazado_651424" data-name="Trazado 651424" d="M389.469,5279.709c.61-.4,1.444-.374,1.4.539-.036.721-.954,1.452-1.408,1.935-.626.664-1.27,1.31-1.887,1.983-.519.57-1.053,1.17-1.525,1.785a1.907,1.907,0,0,1-1.346.836.771.771,0,0,1-.812-.939,3.52,3.52,0,0,1,1.1-1.538c.713-.72,1.444-1.42,2.139-2.156.324-.346.647-.7.968-1.042A8.065,8.065,0,0,1,389.469,5279.709Z" transform="translate(-4.812 -20.135)" fill="#ffbc3b"/>
    <path id="Trazado_651425" data-name="Trazado 651425" d="M386.812,5251.525c.5.527.629,1.352-.275,1.474-.714.094-1.6-.673-2.158-1.032-.768-.494-1.52-1.009-2.294-1.493-.655-.409-1.343-.823-2.034-1.174a1.917,1.917,0,0,1-1.069-1.173.772.772,0,0,1,.776-.967,3.516,3.516,0,0,1,1.713.8c.838.57,1.659,1.16,2.511,1.708.4.257.8.51,1.2.762A8.256,8.256,0,0,1,386.812,5251.525Z" transform="translate(-3.439 -11.115)" fill="#ffbc3b"/>
    <path id="Trazado_651426" data-name="Trazado 651426" d="M383.263,5266.025c.713.148,1.29.75.613,1.368-.532.485-1.7.36-2.359.383-.912.031-1.826.036-2.738.081-.771.038-1.571.089-2.34.194a1.916,1.916,0,0,1-1.547-.353.773.773,0,0,1,.085-1.238,3.5,3.5,0,0,1,1.866-.32c1.011-.009,2.025.007,3.036-.027.474-.017.95-.041,1.421-.059A8.073,8.073,0,0,1,383.263,5266.025Z" transform="translate(-2.23 -16.366)" fill="#ffbc3b"/>
    <path id="Trazado_651427" data-name="Trazado 651427" d="M495.356,5340.8l0-.093c4.179-.139,9.059-2.569,12.651-5.364l.076.095c-.153,1.208-.08,2.535-.17,3.619a40.9,40.9,0,0,0-.128,6.463c-2.482.15-4.884.786-7.453.581a31.349,31.349,0,0,1-8.614-2.017,27.736,27.736,0,0,1-6.47-3.958,30.179,30.179,0,0,1-3.624-3.507c-.209-.22-.429-.513-.662-.811,1.364.766,2.754,1.493,4.166,2.232a26.993,26.993,0,0,0,5.475,2.024A20.719,20.719,0,0,0,495.356,5340.8Z" transform="translate(-31.919 -35.734)" fill="#e39476"/>
    <path id="Trazado_651428" data-name="Trazado 651428" d="M474.288,5491.447c1.429,1.116.828,2.942-.17,4.126s-3.211.167-3.739-1.012a2.544,2.544,0,0,1,1.947-3.608A2.418,2.418,0,0,1,474.288,5491.447Z" transform="translate(-28.901 -79.173)" fill="#8f5331"/>
    <path id="Trazado_651429" data-name="Trazado 651429" d="M560.41,5501.185H522.544c.053-5.8.128-11.646-.388-17.4a125.3,125.3,0,0,1-.565-14.553c.108-3.991-.209-8.036-.073-12.057.149-4.5,1.117-8.967,1.3-13.483a57.915,57.915,0,0,1,1.43-9.917c.817-3.776.766-7.668,1.8-11.435,1.044-3.8,2.151-7.586,2.9-11.482.687-3.543,1.11-7.118,1.836-10.644a66.3,66.3,0,0,0,.381-24.134c-.38-2.351-.544-4.687-1.127-7.011-1.14-4.544-3.212-8.976-6.762-12.135-1.313-1.168-3.11-1.733-4.392-2.819-.119-.635-.259-1.267-.375-1.911-.009-.048-.017-.1-.025-.146,1.486-.167,3.165.857,4.494,1.385,3.166,1.26,6.409,2.318,9.565,3.609,1.452.593,2.928,1.217,4.348,1.853,1.387.621,2.495,1.7,3.888,2.329,1.557.7,3.117,1.388,4.7,2.036a80.167,80.167,0,0,1,9.912,4.54c4.182,2.426,8.114,4.851,11.444,8.448,3.111,3.362,5.586,7.8,7.737,11.815a93.659,93.659,0,0,1,5.794,14.188,27.217,27.217,0,0,1,1.187,3.52c.423,2.255.576,4.609.917,6.889q.58,3.869,1.057,7.753c.652,5.263,1.181,10.541,1.638,15.823.582,6.737.51,13.515,1.232,20.241.706,6.589,3.277,12.5,4.387,18.966.719,4.193-.119,8.4-.392,12.592-.148,2.258.683,4.441.656,6.688-.026,2.163-.606,4.279-.666,6.451Z" transform="translate(-42.395 -40.397)" fill="#ef8b53"/>
    <path id="Trazado_651430" data-name="Trazado 651430" d="M405.429,5367.627c-.227-1.07-.365-2.148-.567-3.237-.212-1.15-.471-2.292-.73-3.432-1.083-4.764-1.9-9.209-.4-13.984,1.35-4.287,3.691-8.218,4.715-12.614a34.741,34.741,0,0,0,.438-9.116c-.122-3.766.074-7.544.1-11.31.016-2.637-.293-6.469,2.321-8.069a1.77,1.77,0,0,1,1.984-.1c2.26,1.021,2.684,4.362,2.783,6.5.273,5.993.048,11.965.024,17.963,0,.324.06.525.073.821a7.414,7.414,0,0,1,2.436.3c3.5,1.053,5.872,4.159,8.018,6.965.487-2.05,1.625-4.531,3.767-5.25a2.627,2.627,0,0,1,1.857-.136,4.069,4.069,0,0,1,2.358,1.937c1.013,2.072-.034,4.654-.49,6.737a19.713,19.713,0,0,0-.692,4.348c.006,1.632.278,3.25.319,4.881.032,1.326.026,2.662-.074,3.991a21.051,21.051,0,0,1-.867,4.77c-1.158,3.683-3.417,6.863-4.958,10.375-.378.863-.695,1.743-1.008,2.616-.91,2.532-1.8,5-4.112,6.772-3.047,2.337-7.122,1.57-10.218-.246a15.686,15.686,0,0,1-4.4-3.841,4.954,4.954,0,0,1-1.1-2.5c-.252-1.354-.909-2.651-1.295-3.971C405.606,5368.4,405.511,5368.017,405.429,5367.627Z" transform="translate(-10.129 -27.405)" fill="#f5b49b"/>
    <path id="Trazado_651431" data-name="Trazado 651431" d="M505.536,5308.729c.717,1.768-.841,3.753-2.008,4.953a8.534,8.534,0,0,1-7.282,2.78,9.247,9.247,0,0,1-4.193-1.446,12.559,12.559,0,0,1-3.245-2.942c-.682-.923-1.22-2.6-.455-3.639a3.188,3.188,0,0,1,2.87-1.05c.939.1,1.9.111,2.847.179a22.839,22.839,0,0,0,2.643-.013c1.153-.054,2.315,0,3.461-.146a9.1,9.1,0,0,1,3.138-.339A2.854,2.854,0,0,1,505.536,5308.729Z" transform="translate(-33.877 -27.821)" fill="#fff"/>
    <path id="Trazado_651432" data-name="Trazado 651432" d="M448.3,5267.08c-.163-1.141-.291-2.285-.427-3.42a19.845,19.845,0,0,0-.637-3.719c-.773-2.421-2.269-4.53-3.093-6.932a9.531,9.531,0,0,1-.59-3.353c.019-1.3.192-2.594.3-3.891a43.728,43.728,0,0,1,1.147-6.418c.667-2.783,1.669-5.659,1.369-8.549-.035-.335-.079-.667-.12-1-.277-2.182.46-3.8,1.457-5.672A16.9,16.9,0,0,1,454.49,5217c3.234-1.7,7.185-2.27,10.565-3.737a29.256,29.256,0,0,0,4.181-2.245c.545-.353.96-.807,1.535-1.1.866-.449,1.783-.814,2.672-1.195a15.544,15.544,0,0,1,3.345-1.019,24.043,24.043,0,0,1,10.662.569c3.335.957,6.8,3,7.623,6.627.213.933.91.844,1.759.844a10.748,10.748,0,0,1,7.42,1.223c3.243,1.776,4.339,4.86,6.084,7.868,1.549,2.672,3.717,4.9,5.616,7.321,2.414,3.076,4.253,6.549,3.655,10.576a30.593,30.593,0,0,0-.508,5.522c.058,1.917-.856,4.085-1.333,5.923a27.608,27.608,0,0,1-.89,3.6,19.189,19.189,0,0,0-1.17,8.362c.008.208.018.415.031.624a18.891,18.891,0,0,1-.065,2.29,5.868,5.868,0,0,1-.281,1.594c-.163.449-.539,1.139-1.086,1.221-1.787.264-1.444-4.927-1.471-5.883-.09-3.154-.649-6.682-2.464-9.353a14.608,14.608,0,0,1-1.908-4.768,22.33,22.33,0,0,1-.541-5.345c0-2.865.21-5.757-1.323-8.361-1.4-2.381-4.284-3.433-6.914-3.629-.631-.048-1.031-.008-1.649-.046a27.282,27.282,0,0,0-12.4,1.7,9.757,9.757,0,0,1-3.96.712c-3.466-.062-6.746-1.447-10.1-2.152a17.39,17.39,0,0,0-4.891-.316c-1.731.119-3.466.228-4.9,1.334a8.147,8.147,0,0,0-2.685,3.977,15.632,15.632,0,0,0-.654,3.293c-.14,1.4.264,2.728.148,4.113a16.953,16.953,0,0,1-1.813,6.87c-.3.559-.51,1.155-.766,1.734a9.657,9.657,0,0,1-.893,1.383,19.477,19.477,0,0,0-1.917,3.213c-1.081,2.649-.4,5.551-.36,8.308a4.949,4.949,0,0,1-.735,3.28c-.766.956-1.788.692-2.519-.167a6.1,6.1,0,0,1-1.039-3.135C448.451,5268.107,448.373,5267.594,448.3,5267.08Z" transform="translate(-21.475)" fill="#1e244a"/>
    <path id="Trazado_651433" data-name="Trazado 651433" d="M518.455,5352.066c.008.048.016.1.025.146-.05-.031-.1-.024-.114-.135Z" transform="translate(-42.361 -40.403)" fill="#8cc295"/>
    <path id="Trazado_651434" data-name="Trazado 651434" d="M518.045,5283.7a4.034,4.034,0,0,1-.685,2.915,2.737,2.737,0,0,1-2.986.772,2.968,2.968,0,0,1-1.341-4.971,3.019,3.019,0,0,1,3.451-.909A3.563,3.563,0,0,1,518.045,5283.7Z" transform="translate(-40.631 -20.634)" fill="#2b1a0f"/>
    <path id="Trazado_651435" data-name="Trazado 651435" d="M476.55,5528.72c1.43,1.116.828,2.941-.169,4.125s-3.211.167-3.738-1.012a2.543,2.543,0,0,1,1.945-3.608A2.413,2.413,0,0,1,476.55,5528.72Z" transform="translate(-29.533 -89.578)" fill="#8f5331"/>
    <path id="Trazado_651436" data-name="Trazado 651436" d="M417.684,5398.628c1.99,6.164-1.272,9.725-2.168,15.492-.719,4.619,1.008,8.795.817,13.3-.123,2.91-1.739,5.4-2.487,8.149a30.347,30.347,0,0,0-.745,3.747c-1.672,12.036-4.378,24.008-6.735,35.947-.564,2.86-1.053,5.951-1.792,8.971a26.956,26.956,0,0,1-4.655,10.554c-5.667,7.125-19.293,9.889-26.489,3.325-4.3-3.919-5.947-10.158-6.533-15.743-1.3-12.382,2.428-25.643,6.575-37.167,1.451-4.032,3.409-7.858,4.885-11.88a46.788,46.788,0,0,0,2.723-11.585,21.588,21.588,0,0,1,2.323-8.141c1.6-2.96,4.354-5.088,5.329-8.4,1.326-4.5.473-9.72,5.062-12.625a8.287,8.287,0,0,0,1.506-.89c.082.389.177.777.29,1.164.386,1.32,1.042,2.617,1.295,3.971a4.954,4.954,0,0,0,1.1,2.5,15.686,15.686,0,0,0,4.4,3.841c3.1,1.816,7.171,2.583,10.218.246,2.313-1.772,3.2-4.24,4.112-6.772h0C417.415,5397.024,417.444,5397.885,417.684,5398.628Z" transform="translate(0 -51.465)" fill="#ef8b53"/>
    <path id="Trazado_651437" data-name="Trazado 651437" d="M480.491,5347.651c0-.1,0-.2.008-.3a58.462,58.462,0,0,0,.008-6.074c-.06-1.012-.158-2.021-.307-3.021-.065-.425-.2-.848-.277-1.252-.069-.378.035-.96-.227-1.272l.187-.323c.241.14.484.278.729.417.234.3.453.59.662.811a30.179,30.179,0,0,0,3.624,3.507,27.736,27.736,0,0,0,6.47,3.958,31.349,31.349,0,0,0,8.614,2.017c2.569.205,4.971-.431,7.453-.581q.039.555.107,1.1c.032.262.072.52.117.777l-.089.011c.016.11.064.1.114.135.116.644.256,1.276.375,1.911a11.2,11.2,0,0,1,.232,2.656,12.367,12.367,0,0,1-1.306,4.84,13.779,13.779,0,0,1-7.2,6.67c-.615.239-1.223.515-1.845.731a9.566,9.566,0,0,1-3.571.48,18.1,18.1,0,0,1-3.608-.606,14.223,14.223,0,0,1-5.146-2.229,13.561,13.561,0,0,1-5.128-7.4,6.518,6.518,0,0,1-.093-3.194,8.208,8.208,0,0,0,.135-1.617C480.528,5349.083,480.478,5348.359,480.491,5347.651Z" transform="translate(-31.565 -35.753)" fill="#f5b49b"/>
    <path id="Trazado_651438" data-name="Trazado 651438" d="M519.976,5268.136a1.114,1.114,0,0,1-.828,1.746,5.017,5.017,0,0,1-2.33-.488c-.338-.119-.7-.259-1.044-.342a5.884,5.884,0,0,0-1.271.015,10.355,10.355,0,0,0-3.477.8,1.289,1.289,0,0,1-1.007-.045c-1.055-.608-.23-1.639.405-2.205a4.159,4.159,0,0,1,1.4-.849,12.043,12.043,0,0,1,2.289-.683,7.652,7.652,0,0,1,1.987-.075A5.6,5.6,0,0,1,519.976,5268.136Z" transform="translate(-39.89 -16.369)" fill="#1e244a"/>
    <path id="Trazado_651439" data-name="Trazado 651439" d="M482.155,5268.136a1.113,1.113,0,0,1-.827,1.746,5.012,5.012,0,0,1-2.33-.488c-.337-.119-.7-.259-1.044-.342a5.9,5.9,0,0,0-1.272.015,10.363,10.363,0,0,0-3.477.8,1.285,1.285,0,0,1-1-.045c-1.055-.608-.231-1.639.405-2.205a4.145,4.145,0,0,1,1.4-.849,12.055,12.055,0,0,1,2.287-.683,7.657,7.657,0,0,1,1.987-.075A5.6,5.6,0,0,1,482.155,5268.136Z" transform="translate(-29.331 -16.369)" fill="#1e244a"/>
    <path id="Trazado_651440" data-name="Trazado 651440" d="M480.81,5283.7a4.035,4.035,0,0,1-.687,2.915,2.737,2.737,0,0,1-2.986.772,2.969,2.969,0,0,1-1.341-4.971,3.02,3.02,0,0,1,3.451-.909A3.565,3.565,0,0,1,480.81,5283.7Z" transform="translate(-30.235 -20.634)" fill="#2b1a0f"/>
    <path id="Trazado_651441" data-name="Trazado 651441" d="M469.785,5310.539c-.244-.139-.487-.277-.729-.417-1.4-.8-2.766-1.654-4.11-2.6a32.725,32.725,0,0,1-7.433-6.636c-1.157-1.549-2.353-3.032-3.563-4.547-1.076-1.348-1.771-2.953-2.813-4.323-1.109-1.461-2.357-1.693-3.9-2.564a12.841,12.841,0,0,1-4.094-3.576,9.2,9.2,0,0,1-1.132-1.654,14.159,14.159,0,0,1-.815-2.139,7.145,7.145,0,0,1,.187-4.553,3.753,3.753,0,0,1,3-2.213c1.708-.17,2.3,1.067,3.184,2.234.071.515.149,1.028.239,1.541a6.1,6.1,0,0,0,1.039,3.135c.73.859,1.753,1.123,2.519.167a4.951,4.951,0,0,0,.735-3.28c-.038-2.757-.72-5.659.36-8.308a19.453,19.453,0,0,1,1.917-3.212,9.686,9.686,0,0,0,.893-1.383c.256-.579.464-1.176.766-1.734a16.956,16.956,0,0,0,1.813-6.871c.116-1.385-.288-2.715-.148-4.113a15.628,15.628,0,0,1,.655-3.292,8.15,8.15,0,0,1,2.685-3.977c1.438-1.106,3.174-1.215,4.9-1.333a17.389,17.389,0,0,1,4.891.315c3.358.7,6.637,2.089,10.1,2.152a9.757,9.757,0,0,0,3.96-.712,27.275,27.275,0,0,1,12.4-1.7c.618.038,1.018,0,1.649.046,2.63.2,5.511,1.247,6.914,3.628,1.534,2.6,1.327,5.5,1.323,8.361a22.336,22.336,0,0,0,.541,5.346,14.613,14.613,0,0,0,1.908,4.768c1.816,2.67,2.374,6.2,2.465,9.353.027.956-.316,6.146,1.471,5.883.547-.083.923-.772,1.086-1.222a5.867,5.867,0,0,0,.281-1.594,18.885,18.885,0,0,0,.065-2.289c-.013-.209-.023-.417-.031-.624l.084,0c1.515-2.266,4.781-1.094,5.681,1.073a7.376,7.376,0,0,1,.192,4.7,14.677,14.677,0,0,1-.841,2.209,9.558,9.558,0,0,1-1.168,1.708,13.271,13.271,0,0,1-4.229,3.69c-1.194.678-2.455,1.222-3.678,1.844l-.086-.039a43.175,43.175,0,0,1-5.834,10.063,81.618,81.618,0,0,1-6.222,6.476,25.877,25.877,0,0,1-2.037,1.755c-3.592,2.8-8.473,5.226-12.651,5.364l0,.093a20.693,20.693,0,0,1-4.749-.734,26.964,26.964,0,0,1-5.475-2.024C472.539,5312.031,471.149,5311.3,469.785,5310.539ZM500,5263.979a1.114,1.114,0,0,0,.828-1.746,5.6,5.6,0,0,0-3.879-2.124,7.631,7.631,0,0,0-1.987.076,12.041,12.041,0,0,0-2.289.683,4.159,4.159,0,0,0-1.4.849c-.635.566-1.46,1.6-.405,2.205a1.289,1.289,0,0,0,1.007.045,10.343,10.343,0,0,1,3.476-.8,5.885,5.885,0,0,1,1.271-.016c.342.083.706.223,1.044.342A5.017,5.017,0,0,0,500,5263.979Zm-2.53,12.464a4.032,4.032,0,0,0,.685-2.914,3.561,3.561,0,0,0-1.562-2.192,3.019,3.019,0,0,0-3.451.909,2.968,2.968,0,0,0,1.341,4.971A2.736,2.736,0,0,0,497.467,5276.443Zm-7.078,19.884c1.166-1.2,2.725-3.186,2.007-4.953a2.854,2.854,0,0,0-2.223-1.663,9.069,9.069,0,0,0-3.138.34c-1.147.149-2.308.091-3.461.145a22.948,22.948,0,0,1-2.643.013c-.943-.067-1.908-.082-2.847-.179a3.188,3.188,0,0,0-2.87,1.05c-.765,1.036-.227,2.715.455,3.639a12.559,12.559,0,0,0,3.245,2.942,9.247,9.247,0,0,0,4.193,1.446A8.533,8.533,0,0,0,490.39,5296.328Zm-17.654-32.348a1.113,1.113,0,0,0,.827-1.746,5.6,5.6,0,0,0-3.879-2.124,7.636,7.636,0,0,0-1.987.076,12.053,12.053,0,0,0-2.287.683,4.145,4.145,0,0,0-1.4.849c-.636.566-1.46,1.6-.405,2.205a1.285,1.285,0,0,0,1,.045,10.351,10.351,0,0,1,3.477-.8,5.9,5.9,0,0,1,1.272-.016c.342.083.706.223,1.044.342A5.012,5.012,0,0,0,472.735,5263.979Zm-2.109,12.464a4.034,4.034,0,0,0,.687-2.914,3.563,3.563,0,0,0-1.563-2.192,3.02,3.02,0,0,0-3.451.909,2.969,2.969,0,0,0,1.341,4.971A2.736,2.736,0,0,0,470.626,5276.443Z" transform="translate(-20.739 -10.467)" fill="#f5b49b"/>
    <path id="Trazado_651442" data-name="Trazado 651442" d="M398.843,5258.122a2.776,2.776,0,0,0-1.674,1.548c-.076.349.03.722-.062,1.067-.154.576-.779.863-1.225,1.26a2.558,2.558,0,0,0-.673,2.752c.287.75.934,1.366,1.018,2.165.071.677-.253,1.474.2,1.978.388.428,1.076.329,1.618.529.7.256,1.113,1,1.788,1.3.98.444,2.1-.152,3.171-.2a11.87,11.87,0,0,1,1.939.227,2.574,2.574,0,0,0,1.873-.353c.569-.433.776-1.183,1.2-1.758a8.566,8.566,0,0,1,1.569-1.394,2.654,2.654,0,0,0,1.1-1.728c.071-.95-.692-1.744-.964-2.656a10.2,10.2,0,0,1-.209-1.856c-.063-.581-.254-1.345-.858-1.573a9.609,9.609,0,0,0-1.029-.217c-1.078-.275-1.8-1.31-2.824-1.739a3.656,3.656,0,0,0-2.108-.141,12.328,12.328,0,0,1-2,.571A4.528,4.528,0,0,0,398.843,5258.122Z" transform="translate(-7.934 -13.931)" fill="#fff"/>
    <path id="Trazado_651443" data-name="Trazado 651443" d="M530.381,5439.063c-.278,5.192-4.92,8.95-7.222,13.611-2.01,4.072-2.185,8.773-2.322,13.313" transform="translate(-43.051 -64.691)" fill="none"/>
    <path id="Trazado_651444" data-name="Trazado 651444" d="M488.626,5527.639a30.066,30.066,0,0,1-.74-4.647c-.648-3.813-1.074-7.659-1.414-11.51a43.215,43.215,0,0,0-.474-5.687,25.11,25.11,0,0,1-.508-4.255,94,94,0,0,0-3.638-20.963q.123.737.23,1.481c.777,5.485,1.179,11.014,1.439,16.545q.016.341.032.684c.128,2.847.222,5.7.312,8.542.178,5.6.333,11.1.314,16.719-.013,4.176-.166,8.351-.368,12.521h6.1c-.094-1.256-.265-2.513-.437-3.753A32.762,32.762,0,0,0,488.626,5527.639Z" transform="translate(-32.167 -76.282)" fill="#ededed"/>
    <path id="Trazado_651445" data-name="Trazado 651445" d="M516.672,5376.885c-.38-2.351-.544-4.687-1.127-7.011-1.14-4.544-3.212-8.976-6.762-12.135-1.313-1.168-3.11-1.733-4.392-2.819a11.2,11.2,0,0,1,.232,2.656,12.367,12.367,0,0,1-1.306,4.84,13.779,13.779,0,0,1-7.2,6.67c-.615.239-1.222.515-1.845.731a9.576,9.576,0,0,1-3.571.481,18.133,18.133,0,0,1-3.608-.606,14.223,14.223,0,0,1-5.146-2.229,13.561,13.561,0,0,1-5.128-7.4,6.519,6.519,0,0,1-.093-3.194,8.208,8.208,0,0,0,.135-1.617c-.376.387-1.187.84-1.644,1.251-2.885,2.606-4.348,7.057-5.666,10.608-2.426,6.531-2.926,13.5-2.985,20.414a127.38,127.38,0,0,0,1.484,21.046,106.646,106.646,0,0,0,2.355,11.113c2.363,8.75,5.685,16.852,7.178,25.816a94.013,94.013,0,0,1,3.638,20.963,25.086,25.086,0,0,0,.508,4.255,43.247,43.247,0,0,1,.474,5.687c.34,3.851.766,7.7,1.414,11.509a30.08,30.08,0,0,0,.74,4.648,32.756,32.756,0,0,1,.843,5.678c.173,1.241.344,2.5.438,3.753h22.41c.053-5.8.128-11.646-.388-17.4a125.278,125.278,0,0,1-.565-14.553c.108-3.991-.209-8.036-.074-12.057.149-4.5,1.117-8.967,1.3-13.483a57.921,57.921,0,0,1,1.43-9.917c.817-3.776.766-7.668,1.8-11.435,1.044-3.8,2.151-7.587,2.9-11.482.687-3.543,1.11-7.118,1.836-10.644A66.3,66.3,0,0,0,516.672,5376.885Z" transform="translate(-27.898 -41.201)" fill="#fffbf2"/>
    <g id="Grupo_974099" data-name="Grupo 974099" transform="translate(466.389 5221.58)">
      <path id="Trazado_651446" data-name="Trazado 651446" d="M505.428,5238.361a.4.4,0,0,1-.286-.684c2.926-2.966,4.274-6.864,5.206-10.287a.4.4,0,0,1,.776.211c-1.711,6.279-3.695,8.9-5.41,10.64A.4.4,0,0,1,505.428,5238.361Z" transform="translate(-505.026 -5227.093)"/>
    </g>
    <g id="Grupo_974100" data-name="Grupo 974100" transform="translate(472.85 5228.815)">
      <path id="Trazado_651447" data-name="Trazado 651447" d="M514.391,5241.318a.4.4,0,0,1-.133-.782,17.208,17.208,0,0,0,5.7-3.3.4.4,0,1,1,.53.6,18.028,18.028,0,0,1-5.966,3.46A.415.415,0,0,1,514.391,5241.318Z" transform="translate(-513.989 -5237.131)"/>
    </g>
    <g id="Grupo_974101" data-name="Grupo 974101" transform="translate(447.713 5219.326)">
      <path id="Trazado_651448" data-name="Trazado 651448" d="M486.2,5233.746a.4.4,0,0,1-.392-.317c-.9-4.187-3.252-7.354-6.441-8.689a.4.4,0,0,1,.311-.742c3.435,1.439,5.957,4.815,6.916,9.263a.4.4,0,0,1-.308.478A.432.432,0,0,1,486.2,5233.746Z" transform="translate(-479.116 -5223.966)"/>
    </g>
    <g id="Grupo_974102" data-name="Grupo 974102" transform="translate(433.68 5226.4)">
      <path id="Trazado_651449" data-name="Trazado 651449" d="M467.222,5236.295a.4.4,0,0,1-.2-.05,11.048,11.048,0,0,0-6.921-1.576.4.4,0,0,1-.112-.8,11.826,11.826,0,0,1,7.424,1.669.4.4,0,0,1-.2.753Z" transform="translate(-459.647 -5233.781)"/>
    </g>
    <g id="Grupo_974103" data-name="Grupo 974103" transform="translate(460.263 5258.695)">
      <path id="Trazado_651450" data-name="Trazado 651450" d="M499.83,5294.188a3.354,3.354,0,0,1-1.336-.3,6.066,6.066,0,0,1-1.845-1.168.4.4,0,0,1,.56-.578,5.3,5.3,0,0,0,1.607,1.009,2.312,2.312,0,0,0,1.284.217,3.319,3.319,0,0,0,.88-.274c.381-.176,1.538-.71.778-3.208-.251-.825-.547-1.652-.834-2.453-.262-.732-.532-1.488-.771-2.246a5.789,5.789,0,0,1-.21-1.277c-.017-.2-.033-.383-.06-.573a17.156,17.156,0,0,1,.091-4.392.4.4,0,1,1,.8.095,16.466,16.466,0,0,0-.093,4.186c.03.21.047.416.064.615a5.114,5.114,0,0,0,.177,1.1c.233.743.5,1.492.76,2.216.29.81.589,1.647.846,2.49.8,2.618-.218,3.714-1.21,4.173a4.137,4.137,0,0,1-1.091.337A2.526,2.526,0,0,1,499.83,5294.188Z" transform="translate(-496.526 -5278.584)" fill="#ab684d"/>
    </g>
    <g id="Grupo_974104" data-name="Grupo 974104" transform="translate(422.005 5268.309)">
      <path id="Trazado_651451" data-name="Trazado 651451" d="M449.488,5300.368a.4.4,0,0,1-.36-.223,2.784,2.784,0,0,0-1.021-.965,3.091,3.091,0,0,1-1.3-1.352,2.528,2.528,0,0,1,.079-1.793,4.323,4.323,0,0,0,.169-.658,1.316,1.316,0,0,0-.128-.651c-.043-.117-.086-.239-.123-.373a1.551,1.551,0,0,0-.473-.891,2.437,2.437,0,0,0-1.612-.731.786.786,0,0,0-.54.365.4.4,0,1,1-.657-.463,1.567,1.567,0,0,1,1.088-.7,3.07,3.07,0,0,1,2.231.906,2.333,2.333,0,0,1,.738,1.3c.028.1.065.2.1.309a2.032,2.032,0,0,1,.168,1.043,5.047,5.047,0,0,1-.2.779,1.8,1.8,0,0,0-.1,1.256,2.384,2.384,0,0,0,1,.984,3.483,3.483,0,0,1,1.291,1.271.4.4,0,0,1-.179.539A.392.392,0,0,1,449.488,5300.368Z" transform="translate(-443.451 -5291.92)" fill="#ab684d"/>
    </g>
    <g id="Grupo_974105" data-name="Grupo 974105" transform="translate(492.625 5268.54)">
      <path id="Trazado_651452" data-name="Trazado 651452" d="M541.825,5300.936a.4.4,0,0,1-.36-.583,3.581,3.581,0,0,1,1.328-1.307,2.469,2.469,0,0,0,1.037-1.022,1.89,1.89,0,0,0-.1-1.306,5.187,5.187,0,0,1-.2-.8,2.1,2.1,0,0,1,.173-1.07c.04-.11.079-.214.107-.32a2.4,2.4,0,0,1,.758-1.336,3.147,3.147,0,0,1,2.292-.932,1.6,1.6,0,0,1,1.115.715.4.4,0,1,1-.657.464.819.819,0,0,0-.566-.382,2.527,2.527,0,0,0-1.674.757,1.615,1.615,0,0,0-.492.926c-.038.139-.084.263-.128.384a1.375,1.375,0,0,0-.133.678,4.577,4.577,0,0,0,.174.681,2.6,2.6,0,0,1,.081,1.842,3.13,3.13,0,0,1-1.334,1.39,2.884,2.884,0,0,0-1.059,1A.4.4,0,0,1,541.825,5300.936Z" transform="translate(-541.423 -5292.242)" fill="#ab684d"/>
    </g>
    <g id="Grupo_974106" data-name="Grupo 974106" transform="translate(414.509 5310.631)">
      <path id="Trazado_651453" data-name="Trazado 651453" d="M433.692,5363.949a.62.62,0,0,1-.222-.042.141.141,0,0,0-.048-.01.4.4,0,1,1,.063-.8.882.882,0,0,1,.221.044.455.455,0,0,1,.117-.009c1.068.081,2-1.251,2.333-2.106a9.694,9.694,0,0,0,.464-4.894,9.02,9.02,0,0,0-1.328-4.229q-.237-.306-.475-.618a.4.4,0,0,1,.639-.49c.159.208.316.412.472.615a9.636,9.636,0,0,1,1.488,4.612,10.476,10.476,0,0,1-.512,5.3,5.239,5.239,0,0,1-1.137,1.743,2.63,2.63,0,0,1-1.939.875A.767.767,0,0,1,433.692,5363.949Z" transform="translate(-433.051 -5350.636)" fill="#ab684d"/>
    </g>
    <g id="Grupo_974107" data-name="Grupo 974107" transform="translate(400.81 5303.264)">
      <path id="Trazado_651454" data-name="Trazado 651454" d="M414.449,5342.9a.4.4,0,0,1-.242-.724,9.12,9.12,0,0,1,4.64-1.76.4.4,0,1,1,.069.8,8.305,8.305,0,0,0-4.225,1.6A.4.4,0,0,1,414.449,5342.9Z" transform="translate(-414.047 -5340.415)" fill="#ab684d"/>
    </g>
    <g id="Grupo_974108" data-name="Grupo 974108" transform="translate(402.364 5312.754)">
      <path id="Trazado_651455" data-name="Trazado 651455" d="M423.239,5370.882a1.871,1.871,0,0,1-1.423-.538,1.056,1.056,0,0,0-.19-.1.878.878,0,0,1-.618-.69.4.4,0,0,1,.794-.121c.039.024.111.058.162.082a1.306,1.306,0,0,1,.439.283c.6.646,2.3.06,3.048-.437a7.3,7.3,0,0,0,2.266-8.468,5.7,5.7,0,0,0-.758-1.283c-.115-.164-.236-.331-.345-.5-1.748-2.663-3.475-4.191-5.132-4.545a12.467,12.467,0,0,0-4.795.136.4.4,0,1,1-.164-.787,13.291,13.291,0,0,1,5.126-.136c1.9.4,3.743,2,5.637,4.891.1.155.213.31.329.474a6.3,6.3,0,0,1,.859,1.477c1.081,3.006.546,7.326-2.576,9.409A5.4,5.4,0,0,1,423.239,5370.882Z" transform="translate(-416.202 -5353.581)" fill="#ab684d"/>
    </g>
    <g id="Grupo_974109" data-name="Grupo 974109" transform="translate(399.39 5320.441)">
      <path id="Trazado_651456" data-name="Trazado 651456" d="M416.683,5378.13a2.41,2.41,0,0,1-1.929-1,3.539,3.539,0,0,1-.726-1.794,4.567,4.567,0,0,1,.027-.752,2.065,2.065,0,0,0-.062-1.017,5.056,5.056,0,0,0-1.558-1.7l-.211-.171a.4.4,0,1,1,.509-.622l.208.168a5.735,5.735,0,0,1,1.781,1.983,2.7,2.7,0,0,1,.133,1.428,3.951,3.951,0,0,0-.025.62,2.74,2.74,0,0,0,.562,1.363,1.622,1.622,0,0,0,2.339.343c1.476-.984,2.071-3.044,2.136-4.643a7.9,7.9,0,0,0-.375-2.623,6.8,6.8,0,0,0-1.847-2.535l-.183-.186a8.13,8.13,0,0,0-2.94-1.97.4.4,0,0,1,.282-.754,8.919,8.919,0,0,1,3.231,2.16l.182.185a7.483,7.483,0,0,1,2.043,2.862,8.7,8.7,0,0,1,.41,2.894,6.557,6.557,0,0,1-2.495,5.278A2.691,2.691,0,0,1,416.683,5378.13Z" transform="translate(-412.077 -5364.245)" fill="#ab684d"/>
    </g>
    <g id="Grupo_974110" data-name="Grupo 974110" transform="translate(408.424 5328.171)">
      <path id="Trazado_651457" data-name="Trazado 651457" d="M425.012,5381.947a.406.406,0,0,1-.117-.017.4.4,0,0,1-.268-.5,14.55,14.55,0,0,1,2.269-4.7c.175-.234.334-.45.489-.662.228-.311.443-.6.7-.939a.4.4,0,1,1,.639.488c-.252.329-.464.62-.69.927-.157.214-.317.432-.494.668a13.786,13.786,0,0,0-2.143,4.452A.4.4,0,0,1,425.012,5381.947Z" transform="translate(-424.61 -5374.968)" fill="#ab684d"/>
    </g>
    <g id="Grupo_974111" data-name="Grupo 974111" transform="translate(404.245 5344.771)">
      <path id="Trazado_651458" data-name="Trazado 651458" d="M419.215,5486.1a.389.389,0,0,1-.094-.012.4.4,0,0,1-.3-.484c.471-1.978.843-3.988,1.2-5.934.174-.941.338-1.831.513-2.721.583-2.953,1.2-5.959,1.792-8.866,1.81-8.855,3.682-18.011,4.94-27.058a30.175,30.175,0,0,1,.755-3.8,27.477,27.477,0,0,1,1.078-3.016,15.246,15.246,0,0,0,1.394-5.044,30.272,30.272,0,0,0-.485-5.739,24.773,24.773,0,0,1-.328-7.608,31.221,31.221,0,0,1,1.434-5.323c1.088-3.231,2.029-6.021.749-9.983-.06-.187-.107-.374-.151-.557-.133-.533-.247-.993-.634-1.2a.4.4,0,0,1,.385-.706,2.368,2.368,0,0,1,1.029,1.717c.043.177.085.343.136.5,1.362,4.214.335,7.261-.752,10.486a30.559,30.559,0,0,0-1.4,5.191,24.163,24.163,0,0,0,.329,7.365,30.96,30.96,0,0,1,.493,5.894,16.066,16.066,0,0,1-1.452,5.309,26.934,26.934,0,0,0-1.048,2.927,29.38,29.38,0,0,0-.734,3.7c-1.261,9.071-3.136,18.24-4.948,27.107-.594,2.905-1.208,5.91-1.79,8.861-.174.884-.338,1.771-.512,2.711-.361,1.954-.734,3.977-1.211,5.974A.4.4,0,0,1,419.215,5486.1Z" transform="translate(-418.813 -5397.999)" fill="#2e5378"/>
    </g>
    <g id="Grupo_974112" data-name="Grupo 974112" transform="translate(393.554 5359.599)">
      <path id="Trazado_651459" data-name="Trazado 651459" d="M414.349,5431.2a.4.4,0,0,1-.285-.118,115.145,115.145,0,0,1-10-11.871.4.4,0,0,1,.64-.487,114.547,114.547,0,0,0,9.931,11.79.4.4,0,0,1-.285.686Z" transform="translate(-403.98 -5418.568)" fill="#2e5378"/>
    </g>
    <g id="Grupo_974113" data-name="Grupo 974113" transform="translate(391.008 5379.48)">
      <path id="Trazado_651460" data-name="Trazado 651460" d="M406.856,5448.011a19.9,19.9,0,0,1-6.13-1.076.4.4,0,1,1,.247-.765,16.341,16.341,0,0,0,8.944.689.4.4,0,0,1,.182.784A14.307,14.307,0,0,1,406.856,5448.011Z" transform="translate(-400.448 -5446.15)" fill="#2e5378"/>
    </g>
    <g id="Grupo_974114" data-name="Grupo 974114" transform="translate(512.631 5349.396)">
      <path id="Trazado_651461" data-name="Trazado 651461" d="M574.562,5516.354h0a.4.4,0,0,1-.4-.405c.025-2.764-.218-5.616-.453-8.375-.2-2.4-.414-4.873-.448-7.278-.063-4.432-.287-8.938-.5-13.3-.079-1.57-.159-3.193-.231-4.79-.427-9.451-1.073-18.439-1.974-27.48-.95-9.528-1.756-18.85-1.179-28.13a87.961,87.961,0,0,1,4.522-21.91.4.4,0,1,1,.764.251,87.191,87.191,0,0,0-4.483,21.708c-.573,9.22.23,18.505,1.176,28,.9,9.055,1.55,18.058,1.977,27.523.072,1.594.153,3.217.231,4.786.218,4.365.442,8.879.5,13.325.034,2.378.244,4.84.446,7.223.236,2.777.481,5.648.456,8.45A.4.4,0,0,1,574.562,5516.354Z" transform="translate(-569.177 -5404.414)" fill="#2e5378"/>
    </g>
    <g id="Grupo_974115" data-name="Grupo 974115" transform="translate(529.893 5434.208)">
      <path id="Trazado_651462" data-name="Trazado 651462" d="M593.528,5533.667a.4.4,0,0,1-.26-.71c4.261-3.59,7.246-7.174,8.873-10.651a.4.4,0,1,1,.728.341c-1.676,3.583-4.731,7.259-9.082,10.925A.4.4,0,0,1,593.528,5533.667Z" transform="translate(-593.126 -5522.074)" fill="#2e5378"/>
    </g>
    <g id="Grupo_974116" data-name="Grupo 974116" transform="translate(392.285 5268.226)">
      <path id="Trazado_651463" data-name="Trazado 651463" d="M407.993,5294.86a.445.445,0,0,1-.169-.033c-.177-.072-.353-.154-.524-.234a6.4,6.4,0,0,0-.718-.3c-1.257-.412-2.517-.948-3.735-1.466l-.352-.148a.452.452,0,1,1,.353-.833l.352.149c1.2.509,2.443,1.037,3.664,1.438a7.3,7.3,0,0,1,.82.345c.166.078.324.152.476.213a.453.453,0,0,1-.169.873Z" transform="translate(-402.219 -5291.806)" fill="#a19086"/>
    </g>
    <g id="Grupo_974117" data-name="Grupo 974117" transform="translate(392.096 5266.313)">
      <path id="Trazado_651464" data-name="Trazado 651464" d="M408.567,5292a.863.863,0,0,1-.3-.067l-.037-.013c-.175-.059-.324-.112-.455-.167l-.1-.041a4.409,4.409,0,0,0-.721-.25c-1.2-.281-2.39-.675-3.544-1.055-.378-.125-.756-.249-1.132-.369a.452.452,0,1,1,.275-.861c.378.12.758.245,1.14.371,1.137.374,2.312.761,3.469,1.034a5.285,5.285,0,0,1,.856.293l.1.041c.112.046.243.094.4.146l.039.014a.453.453,0,0,1,.453.3.465.465,0,0,1-.112.487A.447.447,0,0,1,408.567,5292Zm-.417-.325Z" transform="translate(-401.958 -5289.151)" fill="#a19086"/>
    </g>
    <g id="Grupo_974118" data-name="Grupo 974118" transform="translate(392.257 5264.297)">
      <path id="Trazado_651465" data-name="Trazado 651465" d="M408.768,5289.44a.916.916,0,0,1-.5-.192c-.023-.016-.045-.032-.065-.042a10.955,10.955,0,0,0-2.1-.727c-.275-.075-.559-.152-.841-.237-.2-.06-2.026-.68-2.8-1.019a.452.452,0,1,1,.362-.829c.732.319,2.52.926,2.7.982.27.081.548.157.817.23a11.76,11.76,0,0,1,2.277.793,1.563,1.563,0,0,1,.161.1l.046.031a.452.452,0,0,1,.138.88A.575.575,0,0,1,408.768,5289.44Z" transform="translate(-402.181 -5286.355)" fill="#a19086"/>
    </g>
    <g id="Grupo_974119" data-name="Grupo 974119" transform="translate(389.154 5246.838)">
      <path id="Trazado_651466" data-name="Trazado 651466" d="M405.285,5279.694h0a.451.451,0,0,1-.449-.456,13.34,13.34,0,0,1,.429-2.827c.12-.526.232-1.024.309-1.523.061-.4.117-.8.173-1.208a23.09,23.09,0,0,1,1.012-4.787c.041-.113.084-.223.127-.33a6.083,6.083,0,0,1-.914-.266,4.633,4.633,0,0,1-1.953-1.319c-.13.128-.268.243-.4.35-.076.063-.153.127-.225.191a3.641,3.641,0,0,1-1.189.778,6.094,6.094,0,0,1-.915.266c.043.106.086.217.128.33a23.14,23.14,0,0,1,1.012,4.787c.056.405.112.809.173,1.208.093.609.229,1.229.361,1.829a22.484,22.484,0,0,1,.448,2.47.452.452,0,0,1-.9.095,22.087,22.087,0,0,0-.432-2.372c-.136-.613-.275-1.248-.373-1.886-.061-.4-.118-.811-.175-1.221a22.418,22.418,0,0,0-.965-4.6q-.11-.3-.229-.567a2.747,2.747,0,0,1-2.136-.553,1.381,1.381,0,0,1-.3-1.2,1.056,1.056,0,0,1,.647-.913,1.246,1.246,0,0,1,1.226.336,5.026,5.026,0,0,1,1.108,1.4l.031,0a3.867,3.867,0,0,0,.991-.255,2.8,2.8,0,0,0,.887-.6c.08-.071.164-.142.25-.212a3.732,3.732,0,0,0,.435-.4,5.256,5.256,0,0,1-.633-1.722,2.136,2.136,0,0,1,.689-2.274.752.752,0,0,1,.754,0c.647.374.712,1.667.712,1.681a5.1,5.1,0,0,1-.444,2.3,3.749,3.749,0,0,0,1.713,1.233,3.867,3.867,0,0,0,.991.255l.032,0a5,5,0,0,1,1.107-1.395,1.246,1.246,0,0,1,1.226-.337,1.055,1.055,0,0,1,.647.913,1.384,1.384,0,0,1-.3,1.2,2.749,2.749,0,0,1-2.137.553q-.119.266-.229.567a22.465,22.465,0,0,0-.965,4.6c-.057.411-.113.818-.175,1.221-.081.531-.2,1.068-.32,1.587a12.678,12.678,0,0,0-.407,2.633A.453.453,0,0,1,405.285,5279.694Zm4.019-12.879a.679.679,0,0,0-.315.177,3.826,3.826,0,0,0-.658.744,1.475,1.475,0,0,0,.97-.26c.031-.035.127-.139.077-.45a.387.387,0,0,0-.074-.211Zm-10.446,0a.621.621,0,0,0-.063.206c-.05.311.045.415.076.45a1.475,1.475,0,0,0,.97.26,3.846,3.846,0,0,0-.658-.744A.582.582,0,0,0,398.858,5266.819Zm5.029-3.72a1.771,1.771,0,0,0-.153,1.249,4.48,4.48,0,0,0,.234.831,4.859,4.859,0,0,0,.126-1.245A2.49,2.49,0,0,0,403.887,5263.1Z" transform="translate(-397.876 -5262.134)" fill="#a84216"/>
    </g>
    <g id="Grupo_974120" data-name="Grupo 974120" transform="translate(437.072 5382.876)">
      <path id="Trazado_651467" data-name="Trazado 651467" d="M471.4,5474.673a.4.4,0,0,1-.4-.344,70.3,70.3,0,0,0-2.971-11.666c-.388-1.177-.856-2.387-1.31-3.558a36.37,36.37,0,0,1-2.366-7.786.4.4,0,0,1,.8-.114,35.757,35.757,0,0,0,2.32,7.609c.456,1.18.928,2.4,1.323,3.6a71,71,0,0,1,3,11.8.4.4,0,0,1-.339.457A.409.409,0,0,1,471.4,5474.673Z" transform="translate(-464.353 -5450.862)" fill="#2e5378"/>
    </g>
    <g id="Grupo_974121" data-name="Grupo 974121" transform="translate(519.219 5338.809)">
      <path id="Trazado_651468" data-name="Trazado 651468" d="M578.719,5397.914a.407.407,0,0,1-.152-.029.4.4,0,0,1-.22-.525,28.66,28.66,0,0,1,2.477-4.469c.607-.955,1.235-1.943,1.758-2.949a.4.4,0,0,1,.714.372c-.54,1.037-1.177,2.039-1.793,3.008a28.062,28.062,0,0,0-2.411,4.342A.4.4,0,0,1,578.719,5397.914Z" transform="translate(-578.317 -5389.726)" fill="#2e5378"/>
    </g>
  </g>
</svg>
