<svg xmlns="http://www.w3.org/2000/svg" width="119.778" height="121" viewBox="0 0 119.778 121">
  <g id="finanzas" transform="translate(-1 -1)">
    <path id="Trazado_650096" data-name="Trazado 650096" d="M77.548,43.855,71.694,38,59.984,49.71l-5.855,5.855L48.274,49.71H24.855V78.984A5.864,5.864,0,0,1,19,84.839H83.4V38Z" transform="translate(17.129 35.21)" fill="#ffeaa7"/>
    <path id="Trazado_650097" data-name="Trazado 650097" d="M29.516,39.14l-3.9,3.9-2.186,2.186a5.883,5.883,0,0,0-1.717,4.137V84.027a5.855,5.855,0,1,1-11.71,0V33.285H20.734a4.881,4.881,0,0,0,2.322-.585h.02Z" transform="translate(8.565 30.166)" fill="#cf9e76"/>
    <path id="Trazado_650098" data-name="Trazado 650098" d="M27.71,51.613V80.887a5.855,5.855,0,0,1-11.71,0V46.226a5.883,5.883,0,0,1,1.717-4.137L19.9,39.9l3.9-3.9,3.9,3.9Z" transform="translate(14.274 33.306)" fill="#cf9e76"/>
    <path id="Trazado_650099" data-name="Trazado 650099" d="M27.814,43.434a4.881,4.881,0,0,1-2.322.585H12.806A7.8,7.8,0,0,1,5,36.213V26.455a15.921,15.921,0,0,1,.82-5.035L8.9,24.5l5.855,5.855,3.9,3.9h6.831a4.887,4.887,0,0,1,2.342,9.173Z" transform="translate(3.806 19.432)" fill="#b4dd7f"/>
    <path id="Trazado_650100" data-name="Trazado 650100" d="M9.05,18.039a15.551,15.551,0,0,1,7.709-2.03H54.327l.1-.02a21.257,21.257,0,0,0,5.289,9.778H38.227a3.915,3.915,0,0,0-3.9,3.9V43.332L18.71,27.719l-5.855-5.855L9.05,18.059Z" transform="translate(7.66 14.265)" fill="#b4dd7f"/>
    <circle id="Elipse_7755" data-name="Elipse 7755" cx="13.5" cy="13.5" r="13.5" transform="translate(17 3)" fill="#f0d0b4"/>
    <path id="Trazado_650101" data-name="Trazado 650101" d="M15.759,19.952l3.806,3.806-7.806,7.806L8.675,28.481,3.62,23.426a5.52,5.52,0,1,1,7.806-7.806Z" transform="translate(0.952 12.371)" fill="#aab2bd"/>
    <path id="Trazado_650102" data-name="Trazado 650102" d="M17.806,22,33.419,37.613l11.71,11.71-7.806,7.806-3.9-3.9-3.9-3.9-6.44-6.44a4.884,4.884,0,0,0-2.342-9.173H13.9l-3.9-3.9Z" transform="translate(8.565 19.984)" fill="#fcd770"/>
    <path id="Trazado_650103" data-name="Trazado 650103" d="M31.806,36l1.952,9.758L24,43.806Z" transform="translate(21.887 33.306)" fill="#aab2bd"/>
    <path id="Trazado_650104" data-name="Trazado 650104" d="M0,0H11.04V8.281H0Z" transform="translate(12.704 43.933) rotate(-45)" fill="#ffc729"/>
    <path id="Trazado_650105" data-name="Trazado 650105" d="M57.516,28v1.952a9.758,9.758,0,0,1-19.516,0V28Z" transform="translate(35.21 25.694)" fill="#aab2bd"/>
    <path id="Trazado_650106" data-name="Trazado 650106" d="M62.323,24a3.915,3.915,0,0,1,3.9,3.9,3.932,3.932,0,0,1-3.9,3.9H38.9A3.915,3.915,0,0,1,35,27.9,3.932,3.932,0,0,1,38.9,24H62.323Z" transform="translate(32.355 21.887)" fill="#ccd1d9"/>
    <path id="Trazado_650107" data-name="Trazado 650107" d="M74.935,23.468v.859A21.478,21.478,0,0,1,68.651,39.51l-2.576,2.576a9.867,9.867,0,0,0-1.952,2.849H42.812a9.867,9.867,0,0,0-1.952-2.849L38.284,39.51c-.137-.137-.273-.293-.41-.429A21.475,21.475,0,0,1,32,24.326v-.859a21.468,21.468,0,0,1,42.935,0Z" transform="translate(29.5 0.952)" fill="#fcd770"/>
    <path id="Trazado_650108" data-name="Trazado 650108" d="M68.613,29l-3.9,15.613-5.855-5.855L53,32.9Z" transform="translate(49.484 26.645)" fill="#ff826e"/>
    <path id="Trazado_650109" data-name="Trazado 650109" d="M44.855,24.516A1.954,1.954,0,0,1,42.9,22.565H39a5.862,5.862,0,0,0,5.855,5.855v3.9h3.9v-3.9h5.855V22.565a5.862,5.862,0,0,0-5.855-5.855h-3.9A1.954,1.954,0,0,1,42.9,14.758V12.806h5.855a1.954,1.954,0,0,1,1.952,1.952h3.9A5.862,5.862,0,0,0,48.758,8.9V5h-3.9V8.9H39v5.855a5.862,5.862,0,0,0,5.855,5.855h3.9a1.954,1.954,0,0,1,1.952,1.952v1.952Z" transform="translate(36.161 3.806)"/>
    <path id="Trazado_650110" data-name="Trazado 650110" d="M115.251,75.075l5.527-22.114L98.667,58.491l6.913,6.913-10.9,10.9L88.823,70.45,71.258,88.015l-5.047-5.047H43.935V77.921l.989.989,13.209,2.642L55.491,68.344,43.935,56.789V43.935a1.954,1.954,0,0,1,1.952-1.952h20.66l2.42,2.42a5.854,5.854,0,0,0,2.291,11.241,11.71,11.71,0,0,0,23.419,0A5.854,5.854,0,0,0,96.969,44.4l2.559-2.561a23.253,23.253,0,0,0,6.86-16.557v-.867a23.419,23.419,0,0,0-46.839,0v.867a23.738,23.738,0,0,0,.219,3.037h-19.2a15.607,15.607,0,1,0-20.041.466A17.434,17.434,0,0,0,17.1,29.954l-3.345-3.345A7.471,7.471,0,0,0,3.188,37.175l4.247,4.247a17.6,17.6,0,0,0-.58,4.465v9.758A9.769,9.769,0,0,0,16.613,65.4v48.79A7.774,7.774,0,0,0,30.274,119.3a7.755,7.755,0,0,0,5.855,2.7h66.355V74.018l5.855-5.855ZM86.871,118.1H79.065V85.727l7.806-7.806ZM75.161,89.631V118.1H67.355V89.631l3.9,3.9ZM63.452,118.1H55.645V86.871h7.806ZM51.742,86.871V118.1H42.85a7.726,7.726,0,0,0,1.085-3.9V86.871ZM29.3,51.742H23.276L21.324,49.79l5.047-5.047L50.934,69.306l-5.047,5.047-11.4-11.4a6.767,6.767,0,0,0,1.637-4.385A6.838,6.838,0,0,0,29.3,51.742Zm-5.687-9.758-5.047,5.047-3.1-3.1,5.047-5.047ZM49.845,75.915l2.65-2.65.662,3.312ZM82.968,63.452a7.814,7.814,0,0,1-7.806-7.806H90.774A7.814,7.814,0,0,1,82.968,63.452Zm11.71-11.71H71.258a1.952,1.952,0,1,1,0-3.9H94.677a1.952,1.952,0,1,1,0,3.9ZM63.452,24.419a19.516,19.516,0,0,1,39.032,0v.867a19.387,19.387,0,0,1-5.716,13.8L94.205,41.65A11.433,11.433,0,0,0,92.5,43.935H73.436A11.377,11.377,0,0,0,71.73,41.65l-2.562-2.564a19.387,19.387,0,0,1-5.716-13.8ZM18.565,16.613a11.71,11.71,0,1,1,11.71,11.71A11.721,11.721,0,0,1,18.565,16.613Zm5.855,15.613H60.594a23.125,23.125,0,0,0,2.762,5.855H45.887a5.862,5.862,0,0,0-5.855,5.855v8.95L20.1,32.956A13.675,13.675,0,0,1,24.419,32.226ZM4.9,31.892a3.567,3.567,0,0,1,6.091-2.523l6.762,6.76L12.71,41.176l-6.762-6.76A3.551,3.551,0,0,1,4.9,31.892Zm5.855,23.753V45.887c0-.355.059-.7.086-1.058l6.913,6.913h-3.1v3.9H29.3a2.927,2.927,0,1,1,0,5.855H16.613A5.862,5.862,0,0,1,10.758,55.645Zm21.468,58.548V79.539a3.885,3.885,0,0,1,1.144-2.762l2.188-2.188L32.8,71.83,30.61,74.018a7.758,7.758,0,0,0-2.287,5.521v34.655a3.9,3.9,0,0,1-7.806,0V65.4H29.3a6.724,6.724,0,0,0,1.836-.283l8.9,8.9v40.176a3.9,3.9,0,1,1-7.806,0Zm66.355,3.9H90.774V77.921l3.9,3.9,3.9-3.9Zm16.835-59.768-2.279,9.112L106.3,60.606Z" transform="translate(0 0)"/>
  </g>
</svg>
