<svg xmlns="http://www.w3.org/2000/svg" xmlns:xlink="http://www.w3.org/1999/xlink" width="236" height="236" viewBox="0 0 236 236">
  <defs>
    <clipPath id="clip-path">
      <rect id="Rectángulo_309715" data-name="Rectángulo 309715" width="236" height="236" transform="translate(945 1441)" fill="#fff" stroke="#707070" stroke-width="1"/>
    </clipPath>
  </defs>
  <g id="Enmascarar_grupo_878413" data-name="Enmascarar grupo 878413" transform="translate(-945 -1441)" clip-path="url(#clip-path)">
    <g id="Grupo_980537" data-name="Grupo 980537" transform="translate(248.852 -2087.275)">
      <g id="Grupo_973019" data-name="Grupo 973019" transform="translate(754.883 3548.519)">
        <path id="Rectángulo_308728" data-name="Rectángulo 308728" d="M2.746,0H27.389a2.746,2.746,0,0,1,2.746,2.746V27.39a2.746,2.746,0,0,1-2.746,2.746H2.747A2.747,2.747,0,0,1,0,27.389V2.746A2.746,2.746,0,0,1,2.746,0Z" fill="#f0f0f0"/>
        <path id="Trazado_650171" data-name="Trazado 650171" d="M829.677,3563.9h-.036a6,6,0,0,0-1.849.146,5.2,5.2,0,0,0,1.656.144c-.094.1-.228.241-.4.428l-1.465,1.643-4.823,5.551-2.036-1.361-1.054-.7-.107-.072-.084.1c-2.153,2.518-4.058,4.766-5.417,6.392l-1.593,1.926a5.813,5.813,0,0,0-.552.726,5.72,5.72,0,0,0,.633-.656l1.66-1.868c1.38-1.571,3.28-3.761,5.4-6.234l.947.632,2.144,1.426.106.07.082-.1,4.83-5.712,1.4-1.7c.18-.223.307-.385.387-.493h.02a5.238,5.238,0,0,0,.145,1.668,5.839,5.839,0,0,0,.146-1.812v-.146Z" transform="translate(-805.803 -3556.458)" fill="#e0e0e0"/>
      </g>
      <g id="Grupo_973020" data-name="Grupo 973020" transform="translate(840.365 3550.297)">
        <path id="Trazado_650172" data-name="Trazado 650172" d="M990.761,3574.372H1005.5a14.742,14.742,0,1,1-15.083-14.738Z" transform="translate(-976.019 -3556.036)" fill="#f0f0f0"/>
        <path id="Trazado_650173" data-name="Trazado 650173" d="M1014.361,3566.937l-.333-14.742a15.548,15.548,0,0,1,10.614,4.177,15.155,15.155,0,0,1,4.456,10.336Z" transform="translate(-995.645 -3552.195)" fill="#ebebeb"/>
      </g>
      <g id="Grupo_973022" data-name="Grupo 973022" transform="translate(861.085 3628.478)">
        <path id="Trazado_650174" data-name="Trazado 650174" d="M1018.886,3714.683c-.085,2.706.071,10.967.071,10.967l2.437-2.437h13.6a.864.864,0,0,0,.864-.864v-7.641a.864.864,0,0,0-.864-.864h-15.24A.865.865,0,0,0,1018.886,3714.683Z" transform="translate(-1018.861 -3713.844)" fill="#ebebeb"/>
        <g id="Grupo_973021" data-name="Grupo 973021" transform="translate(5.701 4.06)">
          <path id="Trazado_650175" data-name="Trazado 650175" d="M1031.929,3722.879a.64.64,0,1,1-.639-.64A.64.64,0,0,1,1031.929,3722.879Z" transform="translate(-1030.649 -3722.239)" fill="#e0e0e0"/>
          <path id="Trazado_650176" data-name="Trazado 650176" d="M1036.385,3722.879a.64.64,0,1,1-.639-.64A.64.64,0,0,1,1036.385,3722.879Z" transform="translate(-1032.95 -3722.239)" fill="#e0e0e0"/>
          <path id="Trazado_650177" data-name="Trazado 650177" d="M1040.842,3722.879a.64.64,0,1,1-.64-.64A.64.64,0,0,1,1040.842,3722.879Z" transform="translate(-1035.251 -3722.239)" fill="#e0e0e0"/>
        </g>
      </g>
      <path id="Trazado_650178" data-name="Trazado 650178" d="M789.694,3743.388c.36-4.709,3.827-11.994,8.079-14.049a13.845,13.845,0,0,1,13.5.971c2.667,1.8,4.687,4.541,7.606,5.9,5.769,2.679,12.614-1.116,16.644-6.039s6.555-11.03,11.113-15.468a23.027,23.027,0,0,1,32.932.823c3.1,3.337,5.133,7.5,7.622,11.313s5.69,7.478,10.015,8.905c5.946,1.961,12.657-.919,16.865-5.556s6.391-10.726,8.213-16.716,3.43-12.16,6.778-17.451,8.858-9.669,15.117-9.836v57.022Z" transform="translate(-39.444 -71.084)" fill="#f0f0f0"/>
      <g id="Grupo_973023" data-name="Grupo 973023" transform="translate(713.305 3743.779)">
        <path id="Trazado_650179" data-name="Trazado 650179" d="M914.991,3952.371c0,.07-45.153.126-100.838.126-55.705,0-100.848-.057-100.848-.126s45.143-.126,100.848-.126C869.839,3952.245,914.991,3952.3,914.991,3952.371Z" transform="translate(-713.305 -3952.245)" fill="#263238"/>
      </g>
      <g id="Grupo_973024" data-name="Grupo 973024" transform="translate(853.161 3587.857)">
        <path id="Trazado_650180" data-name="Trazado 650180" d="M1026.022,3664.271a1.776,1.776,0,0,0,.29-.058.959.959,0,0,0,.592-.582,1.7,1.7,0,0,0,.054-.63c0-.238,0-.5-.006-.779,0-.565-.008-1.215-.011-1.945-.01-2.936-.023-7.17-.04-12.4,0-2.618-.01-5.484-.016-8.561q0-2.309-.006-4.77,0-1.229,0-2.494c-.006-.413.013-.866-.014-1.253a.852.852,0,0,0-.784-.7l-22.506.007a.845.845,0,0,0-.843.816q0,.743,0,1.48,0,1.479,0,2.938,0,2.917,0,5.744c0,3.766,0,7.4-.007,10.86s-.008,6.748-.012,9.826q0,.577,0,1.144a4.377,4.377,0,0,0,.015.545.864.864,0,0,0,.648.684,2.505,2.505,0,0,0,.523.025l1.082,0,4.108.008,12.4.04,3.37.023.876.013c.2,0,.3.013.3.013s-.1.008-.3.012l-.876.013-3.37.023-12.4.041-4.108.008-1.082,0a2.646,2.646,0,0,1-.57-.03,1.068,1.068,0,0,1-.8-.842,4.375,4.375,0,0,1-.02-.582q0-.567,0-1.144c0-3.078-.008-6.367-.012-9.826s0-7.094-.007-10.86q0-2.825,0-5.744,0-1.459,0-2.938,0-.741,0-1.487a1.1,1.1,0,0,1,1.094-1.062l22.521.014a1.083,1.083,0,0,1,.994.895c.033.464.008.862.016,1.292q0,1.264,0,2.494,0,2.459-.006,4.77c-.006,3.077-.011,5.943-.016,8.561-.017,5.228-.031,9.461-.04,12.4,0,.73-.008,1.38-.012,1.945,0,.281,0,.541-.006.779a1.729,1.729,0,0,1-.069.647.977.977,0,0,1-.632.589A.759.759,0,0,1,1026.022,3664.271Z" transform="translate(-1002.476 -3629.855)" fill="#263238"/>
      </g>
      <g id="Grupo_973025" data-name="Grupo 973025" transform="translate(859.047 3594.557)">
        <path id="Trazado_650181" data-name="Trazado 650181" d="M1022.672,3643.9a6.574,6.574,0,0,0-7.824,4.446,6.489,6.489,0,1,0,8.006-4.624c-.39-.129-.546.471-.168.61a5.907,5.907,0,1,1-7.463,4.745c.442-3.476,4.123-5.559,7.4-4.99.121.021.175-.159.052-.187Z" transform="translate(-1014.647 -3643.708)" fill="#263238"/>
      </g>
      <g id="Grupo_973026" data-name="Grupo 973026" transform="translate(863.667 3594.237)">
        <path id="Trazado_650182" data-name="Trazado 650182" d="M1024.335,3655.851a6.655,6.655,0,0,0,8.237-4.367,7.006,7.006,0,0,0-4.7-8.4c-.794-.243-1.077.93-.337,1.219a5.9,5.9,0,0,1,3.694,7.4c-1.024,2.757-4.046,4.088-6.843,3.771-.224-.026-.252.319-.051.381Z" transform="translate(-1024.2 -3643.047)" fill="#449c6e"/>
      </g>
      <g id="Grupo_973027" data-name="Grupo 973027" transform="translate(858.836 3612.697)">
        <path id="Trazado_650183" data-name="Trazado 650183" d="M1027.582,3681.342c0,.07-2.993.126-6.685.126s-6.686-.057-6.686-.126,2.993-.125,6.686-.125S1027.582,3681.272,1027.582,3681.342Z" transform="translate(-1014.211 -3681.216)" fill="#449c6e"/>
      </g>
      <g id="Grupo_973028" data-name="Grupo 973028" transform="translate(858.836 3614.725)">
        <path id="Trazado_650184" data-name="Trazado 650184" d="M1027.582,3685.535c0,.07-2.993.126-6.685.126s-6.686-.057-6.686-.126,2.993-.126,6.686-.126S1027.582,3685.466,1027.582,3685.535Z" transform="translate(-1014.211 -3685.409)" fill="#449c6e"/>
      </g>
      <g id="Grupo_973040" data-name="Grupo 973040" transform="translate(781.067 3563.587)">
        <path id="Trazado_650185" data-name="Trazado 650185" d="M853.413,3583.027v44.718a1.8,1.8,0,0,0,1.8,1.8h59.566a1.8,1.8,0,0,0,1.8-1.8v-46.272a1.8,1.8,0,0,0-1.846-1.8l-59.565,1.555A1.8,1.8,0,0,0,853.413,3583.027Z" transform="translate(-853.413 -3579.674)" fill="#e0e0e0"/>
        <g id="Grupo_973029" data-name="Grupo 973029" transform="translate(3.611 9.414)">
          <path id="Trazado_650186" data-name="Trazado 650186" d="M915.113,3600.9c-.023.047-.759-.38-2.2-.837a14.163,14.163,0,0,0-6.32-.469,13.822,13.822,0,0,0-4.168,1.34,19.635,19.635,0,0,0-4.1,2.948c-1.344,1.186-2.678,2.533-4.217,3.778a14.543,14.543,0,0,1-5.382,2.912,8.132,8.132,0,0,1-3.143.19,10.16,10.16,0,0,1-2.912-.9,50.877,50.877,0,0,1-4.878-2.9,15.2,15.2,0,0,0-4.588-2.057,13.623,13.623,0,0,0-4.364-.335,14.059,14.059,0,0,0-6.024,1.961c-1.292.79-1.9,1.384-1.937,1.343a2.956,2.956,0,0,1,.438-.43,10.4,10.4,0,0,1,1.4-1.067,13.747,13.747,0,0,1,10.575-1.85,15.459,15.459,0,0,1,4.722,2.066,52.178,52.178,0,0,0,4.845,2.852,8.3,8.3,0,0,0,5.747.673,14.21,14.21,0,0,0,5.21-2.817c1.514-1.217,2.854-2.555,4.218-3.743a19.724,19.724,0,0,1,4.209-2.971,13.957,13.957,0,0,1,10.72-.7,11.2,11.2,0,0,1,1.619.7A3.108,3.108,0,0,1,915.113,3600.9Z" transform="translate(-860.88 -3599.138)" fill="#455a64"/>
        </g>
        <g id="Grupo_973032" data-name="Grupo 973032" transform="translate(6.528 12.429)">
          <g id="Grupo_973030" data-name="Grupo 973030">
            <rect id="Rectángulo_308729" data-name="Rectángulo 308729" width="5.826" height="15.757" transform="translate(7.54 9.253)" fill="#455a64"/>
            <rect id="Rectángulo_308730" data-name="Rectángulo 308730" width="5.826" height="15.757" transform="translate(32.262 9.253)" fill="#455a64"/>
            <rect id="Rectángulo_308731" data-name="Rectángulo 308731" width="5.826" height="25.011" transform="translate(40.504)" fill="#455a64"/>
            <rect id="Rectángulo_308732" data-name="Rectángulo 308732" width="5.826" height="5.303" transform="translate(0 20.05)" fill="#455a64"/>
            <rect id="Rectángulo_308733" data-name="Rectángulo 308733" width="5.826" height="8.642" transform="translate(15.781 16.369)" fill="#455a64"/>
            <rect id="Rectángulo_308734" data-name="Rectángulo 308734" width="5.826" height="10.626" transform="translate(24.022 14.385)" fill="#455a64"/>
          </g>
        </g>
        <g id="Grupo_973039" data-name="Grupo 973039" transform="translate(6.583 39.063)">
          <g id="Grupo_973033" data-name="Grupo 973033" transform="translate(7.25 0.001)">
            <path id="Trazado_650188" data-name="Trazado 650188" d="M888.31,3660.677a21.274,21.274,0,1,1-3.147-.234A10.8,10.8,0,0,1,888.31,3660.677Z" transform="translate(-882.015 -3660.443)" fill="#263238"/>
          </g>
          <g id="Grupo_973034" data-name="Grupo 973034" transform="translate(0 0.001)">
            <path id="Trazado_650189" data-name="Trazado 650189" d="M873.32,3660.677a21.278,21.278,0,1,1-3.148-.234A10.8,10.8,0,0,1,873.32,3660.677Z" transform="translate(-867.024 -3660.443)" fill="#263238"/>
          </g>
          <g id="Grupo_973035" data-name="Grupo 973035" transform="translate(40.306 0.001)">
            <path id="Trazado_650190" data-name="Trazado 650190" d="M957.479,3660.677a27.154,27.154,0,1,1-3.558-.234A13.746,13.746,0,0,1,957.479,3660.677Z" transform="translate(-950.363 -3660.443)" fill="#263238"/>
          </g>
          <g id="Grupo_973036" data-name="Grupo 973036" transform="translate(31.651 0)">
            <ellipse id="Elipse_7757" data-name="Elipse 7757" cx="3.558" cy="0.234" rx="3.558" ry="0.234" fill="#263238"/>
          </g>
          <g id="Grupo_973037" data-name="Grupo 973037" transform="translate(23.497)">
            <path id="Trazado_650191" data-name="Trazado 650191" d="M921.9,3660.677a21.211,21.211,0,1,1-3.148-.235A10.809,10.809,0,0,1,921.9,3660.677Z" transform="translate(-915.608 -3660.442)" fill="#263238"/>
          </g>
          <g id="Grupo_973038" data-name="Grupo 973038" transform="translate(14.982)">
            <path id="Trazado_650192" data-name="Trazado 650192" d="M904.3,3660.677a21.215,21.215,0,1,1-3.148-.235A10.81,10.81,0,0,1,904.3,3660.677Z" transform="translate(-898.002 -3660.442)" fill="#263238"/>
          </g>
        </g>
      </g>
      <g id="Grupo_973041" data-name="Grupo 973041" transform="translate(777.381 3622.405)">
        <path id="Trazado_650193" data-name="Trazado 650193" d="M896.331,3701.408a.65.65,0,0,1,.1,0,.781.781,0,0,1,.285.083.827.827,0,0,1,.349.343,1.289,1.289,0,0,1,.1.667c.006,1.027.014,2.527.024,4.459s.013,4.309.022,7.061q0,2.067.01,4.412,0,.585,0,1.188,0,.3,0,.606a1.14,1.14,0,0,1-.117.638.9.9,0,0,1-.528.416,2.829,2.829,0,0,1-.652.037l-1.285,0,.09-.09c0,1.395,0,2.9.007,4.461v.257l-.171-.192-3.95-4.456.078.035-40.734.021h-2.845c-.163,0-.3,0-.483,0a.934.934,0,0,1-.8-.644.968.968,0,0,1-.044-.267v-3.035q0-3.712,0-7.307t0-7.053l0-.867a.927.927,0,0,1,.507-.789.965.965,0,0,1,.467-.1h1.273l3.342,0,23.391.027,15.77.04,4.287.024,1.115.013c.251,0,.38.012.38.012s-.129.009-.38.013l-1.115.013-4.287.023-15.77.04-23.391.028-3.342,0h-1.273a.712.712,0,0,0-.359.075.688.688,0,0,0-.376.586v.857q0,3.456,0,7.053t0,7.307v2.8a1.381,1.381,0,0,0,.033.427.684.684,0,0,0,.584.471c.133.007.308,0,.459,0h2.845l40.734.021h.047l.031.035,3.939,4.467-.17.064c0-1.56,0-3.066.007-4.461v-.091h.09l1.285,0a2.787,2.787,0,0,0,.6-.028.725.725,0,0,0,.427-.334.975.975,0,0,0,.1-.553q0-.305,0-.606,0-.6,0-1.188.005-2.343.01-4.412c.009-2.751.015-5.121.022-7.061s.018-3.433.024-4.459a1.26,1.26,0,0,0-.083-.649.812.812,0,0,0-.326-.338A1,1,0,0,0,896.331,3701.408Z" transform="translate(-845.791 -3701.289)" fill="#263238"/>
      </g>
      <path id="Trazado_650194" data-name="Trazado 650194" d="M851.4,3723.3a10.672,10.672,0,0,1,1.823-3.992,4.02,4.02,0,0,1,3.9-1.522c2.255.581,3.346,3.585,5.654,3.894a3.9,3.9,0,0,0,3.341-1.584,21.257,21.257,0,0,0,1.958-3.32,9.637,9.637,0,0,1,3.977-4.093,5.292,5.292,0,0,1,5.486.344c2.6,2.049,2.24,6.574,5.013,8.385a4.016,4.016,0,0,0,4.47-.133c1.229-.911,1.862-2.489,3.156-3.306a4.33,4.33,0,0,1,4.938.566,7.407,7.407,0,0,1,2.325,4.652" transform="translate(-71.308 -84.456)" fill="#449c6e"/>
      <g id="Grupo_973042" data-name="Grupo 973042" transform="translate(781.029 3629.707)">
        <path id="Trazado_650195" data-name="Trazado 650195" d="M897.511,3717.387a.452.452,0,0,1-.114-.044l-.321-.15a8.44,8.44,0,0,0-1.285-.433,10.285,10.285,0,0,0-4.933.144,18.862,18.862,0,0,0-3.226,1.2c-1.126.523-2.294,1.158-3.538,1.805a28.142,28.142,0,0,1-4.03,1.787,11.764,11.764,0,0,1-4.689.654,15.574,15.574,0,0,1-4.594-1.16c-1.423-.57-2.735-1.247-3.986-1.874a23.9,23.9,0,0,0-6.9-2.607,9.872,9.872,0,0,0-4.916.359,9.4,9.4,0,0,0-1.642.808s.03-.03.094-.078l.291-.205a6.72,6.72,0,0,1,1.223-.616,9.747,9.747,0,0,1,4.977-.443,23.638,23.638,0,0,1,6.981,2.576c1.255.623,2.563,1.292,3.973,1.853a15.436,15.436,0,0,0,4.522,1.139,11.592,11.592,0,0,0,4.593-.637,28.348,28.348,0,0,0,4-1.759c1.243-.64,2.419-1.27,3.557-1.789a18.666,18.666,0,0,1,3.27-1.183,10.139,10.139,0,0,1,5-.066A5.646,5.646,0,0,1,897.511,3717.387Z" transform="translate(-853.334 -3716.387)" fill="#263238"/>
      </g>
      <g id="Grupo_973043" data-name="Grupo 973043" transform="translate(784.383 3627.116)">
        <path id="Trazado_650196" data-name="Trazado 650196" d="M898.971,3711.538a.509.509,0,1,1-.509-.508A.509.509,0,0,1,898.971,3711.538Z" transform="translate(-879.728 -3711.029)" fill="#455a64"/>
        <path id="Trazado_650197" data-name="Trazado 650197" d="M861.286,3715.984a.509.509,0,1,1-.508-.509A.509.509,0,0,1,861.286,3715.984Z" transform="translate(-860.269 -3713.325)" fill="#455a64"/>
        <path id="Trazado_650198" data-name="Trazado 650198" d="M936.262,3715.989a.508.508,0,1,1-.508-.508A.509.509,0,0,1,936.262,3715.989Z" transform="translate(-898.983 -3713.328)" fill="#455a64"/>
      </g>
      <path id="Trazado_650199" data-name="Trazado 650199" d="M970.175,3859.51h4.534c2.112,0,6.644-5.56-17.947-4.925-16.164.417-17.225,2.8-16.407,4.2a2.011,2.011,0,0,0,1.892.944c.394-.029.916-.034,1.536-.032l-.387,1.706h0l-9,39.764,1.568-.136,6.643-21.9,12.678-.486.725,23.272H958l.479-23.394.061,0,1.34-.052,11.238-.431,6.657,23.879h1.908Zm-26.62,16.51,4.436-14.62.5-1.656h0c1.86,0,4.031-.043,6.2-.043l.5,15.954Zm16.716-.524h0l-.492.015-1.237.039.328-16.041h7.084l4.369,15.671Z" transform="translate(-114.163 -158.013)" fill="#455a64"/>
      <g id="Grupo_973044" data-name="Grupo 973044" transform="translate(809.296 3735.972)">
        <path id="Trazado_650200" data-name="Trazado 650200" d="M917.993,3941.305v-5.14l9.211-.062.076,7.686-.571.042c-2.54.164-12.929.482-14.631-.044C910.178,3943.2,917.993,3941.305,917.993,3941.305Z" transform="translate(-911.779 -3936.103)" fill="#449c6e"/>
      </g>
      <g id="Grupo_973046" data-name="Grupo 973046" transform="translate(809.376 3743.029)">
        <g id="Grupo_973045" data-name="Grupo 973045" transform="translate(0 0)">
          <path id="Trazado_650201" data-name="Trazado 650201" d="M911.944,3950.851c0,.087,3.445.157,7.694.157s7.695-.07,7.695-.157-3.445-.156-7.695-.156S911.944,3950.764,911.944,3950.851Z" transform="translate(-911.944 -3950.694)" fill="#263238"/>
        </g>
      </g>
      <g id="Grupo_973048" data-name="Grupo 973048" transform="translate(814.646 3741.279)">
        <g id="Grupo_973047" data-name="Grupo 973047" transform="translate(0 0)">
          <path id="Trazado_650202" data-name="Trazado 650202" d="M923.542,3948.02c.076-.04.011-.312-.188-.579s-.438-.411-.5-.351.064.288.246.536S923.465,3948.062,923.542,3948.02Z" transform="translate(-922.841 -3947.076)" fill="#263238"/>
        </g>
      </g>
      <g id="Grupo_973050" data-name="Grupo 973050" transform="translate(814.11 3741.436)">
        <g id="Grupo_973049" data-name="Grupo 973049" transform="translate(0 0)">
          <path id="Trazado_650203" data-name="Trazado 650203" d="M922.382,3948.527c.08-.03.039-.334-.143-.655s-.42-.514-.487-.461.047.316.214.615S922.3,3948.558,922.382,3948.527Z" transform="translate(-921.732 -3947.402)" fill="#263238"/>
        </g>
      </g>
      <g id="Grupo_973052" data-name="Grupo 973052" transform="translate(821.981 3741.346)">
        <g id="Grupo_973051" data-name="Grupo 973051" transform="translate(0)">
          <path id="Trazado_650204" data-name="Trazado 650204" d="M938.016,3949.021c.036.025.173-.111.372-.337a6.018,6.018,0,0,1,.808-.809,2.125,2.125,0,0,1,1-.436c.28-.037.464.006.479-.039s-.155-.162-.487-.182a1.833,1.833,0,0,0-1.181.408,3.358,3.358,0,0,0-.8.927C938.053,3948.818,937.981,3949,938.016,3949.021Z" transform="translate(-938.007 -3947.216)" fill="#263238"/>
        </g>
      </g>
      <g id="Grupo_973054" data-name="Grupo 973054" transform="translate(815.311 3741.218)">
        <g id="Grupo_973053" data-name="Grupo 973053" transform="translate(0 0)">
          <path id="Trazado_650205" data-name="Trazado 650205" d="M924.225,3946.989c-.045.073.113.25.376.347s.5.063.511-.021-.173-.186-.4-.272S924.27,3946.914,924.225,3946.989Z" transform="translate(-924.217 -3946.951)" fill="#263238"/>
        </g>
      </g>
      <g id="Grupo_973056" data-name="Grupo 973056" transform="translate(815.463 3740.611)">
        <g id="Grupo_973055" data-name="Grupo 973055">
          <path id="Trazado_650206" data-name="Trazado 650206" d="M924.532,3945.843c-.009.086.237.16.548.164s.558-.063.552-.149-.251-.16-.548-.164S924.54,3945.757,924.532,3945.843Z" transform="translate(-924.531 -3945.695)" fill="#263238"/>
        </g>
      </g>
      <g id="Grupo_973057" data-name="Grupo 973057" transform="translate(828.738 3735.972)">
        <path id="Trazado_650207" data-name="Trazado 650207" d="M958.193,3941.305v-5.14l9.211-.062.076,7.686-.571.042c-2.541.164-12.929.482-14.632-.044C950.378,3943.2,958.193,3941.305,958.193,3941.305Z" transform="translate(-951.979 -3936.103)" fill="#449c6e"/>
      </g>
      <g id="Grupo_973059" data-name="Grupo 973059" transform="translate(828.818 3743.029)">
        <g id="Grupo_973058" data-name="Grupo 973058" transform="translate(0 0)">
          <path id="Trazado_650208" data-name="Trazado 650208" d="M952.144,3950.851c0,.087,3.445.157,7.694.157s7.695-.07,7.695-.157-3.445-.156-7.695-.156S952.144,3950.764,952.144,3950.851Z" transform="translate(-952.144 -3950.694)" fill="#263238"/>
        </g>
      </g>
      <g id="Grupo_973061" data-name="Grupo 973061" transform="translate(834.088 3741.279)">
        <g id="Grupo_973060" data-name="Grupo 973060" transform="translate(0 0)">
          <path id="Trazado_650209" data-name="Trazado 650209" d="M963.742,3948.02c.075-.04.011-.312-.187-.579s-.438-.411-.5-.351.065.288.246.536S963.665,3948.062,963.742,3948.02Z" transform="translate(-963.041 -3947.076)" fill="#263238"/>
        </g>
      </g>
      <g id="Grupo_973063" data-name="Grupo 973063" transform="translate(833.553 3741.436)">
        <g id="Grupo_973062" data-name="Grupo 973062" transform="translate(0 0)">
          <path id="Trazado_650210" data-name="Trazado 650210" d="M962.583,3948.527c.08-.03.039-.334-.143-.655s-.42-.514-.487-.461.047.316.214.615S962.5,3948.558,962.583,3948.527Z" transform="translate(-961.933 -3947.402)" fill="#263238"/>
        </g>
      </g>
      <g id="Grupo_973065" data-name="Grupo 973065" transform="translate(841.424 3741.346)">
        <g id="Grupo_973064" data-name="Grupo 973064" transform="translate(0)">
          <path id="Trazado_650211" data-name="Trazado 650211" d="M978.217,3949.021c.036.025.173-.111.372-.337a6.061,6.061,0,0,1,.808-.809,2.123,2.123,0,0,1,1-.436c.28-.037.464.006.479-.039s-.155-.162-.487-.182a1.833,1.833,0,0,0-1.18.408,3.363,3.363,0,0,0-.8.927C978.253,3948.818,978.181,3949,978.217,3949.021Z" transform="translate(-978.208 -3947.216)" fill="#263238"/>
        </g>
      </g>
      <g id="Grupo_973067" data-name="Grupo 973067" transform="translate(834.754 3741.218)">
        <g id="Grupo_973066" data-name="Grupo 973066" transform="translate(0 0)">
          <path id="Trazado_650212" data-name="Trazado 650212" d="M964.425,3946.989c-.045.073.113.25.376.347s.5.063.512-.021-.173-.186-.4-.272S964.47,3946.914,964.425,3946.989Z" transform="translate(-964.417 -3946.951)" fill="#263238"/>
        </g>
      </g>
      <g id="Grupo_973069" data-name="Grupo 973069" transform="translate(834.906 3740.611)">
        <g id="Grupo_973068" data-name="Grupo 973068">
          <path id="Trazado_650213" data-name="Trazado 650213" d="M964.732,3945.843c-.008.086.237.16.548.164s.559-.063.552-.149-.252-.16-.548-.164S964.74,3945.757,964.732,3945.843Z" transform="translate(-964.732 -3945.695)" fill="#263238"/>
        </g>
      </g>
      <path id="Trazado_650214" data-name="Trazado 650214" d="M1004.495,3737.839c-.379-.084-.849-.035-1.076-.352-.206-.287-.062-.682.058-1.016a4.817,4.817,0,0,0,.033-3.33,3.753,3.753,0,0,0-1.386-1.746,1.577,1.577,0,0,0,.234-.3,2.086,2.086,0,0,0,.261-1.056,2.331,2.331,0,0,0-.708-1.764,1.121,1.121,0,0,0-1.514-.019.77.77,0,0,0-.022,1.126.7.7,0,0,0,.735.092.344.344,0,0,0,.186-.184.878.878,0,0,1-.206.138.618.618,0,0,1-.592-1.074.968.968,0,0,1,1.3.058,2.162,2.162,0,0,1,.612,1.626,1.873,1.873,0,0,1-.242.944,1.373,1.373,0,0,1-.237.288,3.115,3.115,0,0,0-.831-.34,8.1,8.1,0,0,1-1.876-.41,2.276,2.276,0,0,1-1.017-1.22c0-.057-.01-.112-.009-.169a23.946,23.946,0,0,1,.348-2.508,7.689,7.689,0,0,0-.066-2.4,4.51,4.51,0,0,0-2.3-3.241,3.153,3.153,0,0,0-2.686-.048,2.451,2.451,0,0,0-.621.412c-.045.045-.073.075-.1.1a2.217,2.217,0,0,0-.738.592l-1.493,13.435,10.929,6.68a8.147,8.147,0,0,0,2.491-.5,2.756,2.756,0,0,0,1.664-1.81A1.689,1.689,0,0,0,1004.495,3737.839Zm-7.176-14.069a4.216,4.216,0,0,0-2.22-2.415,2.888,2.888,0,0,0-2.21.038,2.835,2.835,0,0,1,.641-.371,3.1,3.1,0,0,1,2.567.118,4.356,4.356,0,0,1,2.156,3.126,7.549,7.549,0,0,1,.048,2.329c-.06.6-.229,1.214-.31,1.864a12.922,12.922,0,0,1-.1-1.384A10.062,10.062,0,0,0,997.319,3723.77Z" transform="translate(-143.151 -88.884)" fill="#263238"/>
      <g id="Grupo_973076" data-name="Grupo 973076" transform="translate(836.723 3625.967)">
        <path id="Trazado_650215" data-name="Trazado 650215" d="M983.193,3717.794a1.177,1.177,0,0,0-.428-.649,1.777,1.777,0,0,0-1.308-.058l-.026-3.083-6.029-4.886-3.231,1.678a5.059,5.059,0,0,0-2.73,4.538c.024,2.486.086,5.857.25,7.77a3.961,3.961,0,0,0,3.609,3.558s.143,1.185.243,2.363c0,.006-.732,9.736,2.694,9.649,2.524-.064,4.22-5.371,4.939-8.161l.378-1.533v-.079l.013-.064-.014,0-.076-9.233.1.106a.715.715,0,0,0,.8.1,1.474,1.474,0,0,0,.791-.843A1.842,1.842,0,0,0,983.193,3717.794Z" transform="translate(-968.981 -3708.893)" fill="#ffbf9d"/>
        <g id="Grupo_973071" data-name="Grupo 973071" transform="translate(0.816 7.864)">
          <path id="Trazado_650216" data-name="Trazado 650216" d="M971.057,3726.48a.421.421,0,1,0,.411-.431A.421.421,0,0,0,971.057,3726.48Z" transform="translate(-970.63 -3725.499)" fill="#263238"/>
          <g id="Grupo_973070" data-name="Grupo 973070">
            <path id="Trazado_650217" data-name="Trazado 650217" d="M970.182,3725.444c.056.053.361-.219.814-.254s.8.175.844.113c.023-.028-.036-.127-.188-.225a1.119,1.119,0,0,0-1.324.113C970.2,3725.313,970.155,3725.421,970.182,3725.444Z" transform="translate(-970.174 -3724.913)" fill="#263238"/>
          </g>
        </g>
        <g id="Grupo_973073" data-name="Grupo 973073" transform="translate(5.85 7.715)">
          <path id="Trazado_650218" data-name="Trazado 650218" d="M981.164,3726.18a.421.421,0,1,0,.411-.431A.42.42,0,0,0,981.164,3726.18Z" transform="translate(-980.883 -3725.196)" fill="#263238"/>
          <g id="Grupo_973072" data-name="Grupo 973072">
            <path id="Trazado_650219" data-name="Trazado 650219" d="M980.591,3725.138c.056.053.36-.219.813-.255s.8.175.844.113c.023-.028-.036-.126-.188-.225a1.12,1.12,0,0,0-1.323.113C980.6,3725.006,980.563,3725.114,980.591,3725.138Z" transform="translate(-980.583 -3724.606)" fill="#263238"/>
          </g>
        </g>
        <g id="Grupo_973074" data-name="Grupo 973074" transform="translate(3.133 8.186)">
          <path id="Trazado_650220" data-name="Trazado 650220" d="M976.141,3729.538a2.86,2.86,0,0,1-.746.059.78.78,0,0,1-.2-.012.288.288,0,0,1-.2-.161.737.737,0,0,1,.032-.479l.274-.952a16.572,16.572,0,0,1,.817-2.413,16.623,16.623,0,0,1-.629,2.469l-.288.948a.644.644,0,0,0-.056.364c.024.081.135.1.251.1A2.85,2.85,0,0,1,976.141,3729.538Z" transform="translate(-974.966 -3725.579)" fill="#263238"/>
        </g>
        <path id="Trazado_650221" data-name="Trazado 650221" d="M978.253,3734.53a6.334,6.334,0,0,1-2.234.831,1.256,1.256,0,0,0,1.514.39A1.042,1.042,0,0,0,978.253,3734.53Z" transform="translate(-972.377 -3722.014)" fill="#fafafa"/>
        <path id="Trazado_650222" data-name="Trazado 650222" d="M977.422,3743.707a8.226,8.226,0,0,0,4.326-1.579,4.25,4.25,0,0,1-4.234,2.385Z" transform="translate(-973.101 -3725.938)" fill="#ff9a6c"/>
        <path id="Trazado_650223" data-name="Trazado 650223" d="M968.488,3715.49a9.456,9.456,0,0,0,3.895-.546,4.515,4.515,0,0,0,3.224-2.641,4.948,4.948,0,0,0,1.2,2.415c.134.148.386.284.505.124a.359.359,0,0,0,.015-.3q-.145-.575-.29-1.148a9.288,9.288,0,0,0,1.911,2.394c.8.642,3.241,1.638,2.873.68-.093-.24.724-7.7-6.365-7.811S968.488,3715.49,968.488,3715.49Z" transform="translate(-968.488 -3708.653)" fill="#263238"/>
        <g id="Grupo_973075" data-name="Grupo 973075" transform="translate(12.56 8.799)">
          <path id="Trazado_650224" data-name="Trazado 650224" d="M994.462,3727.009c-.02-.021.123-.169.427-.161a.793.793,0,0,1,0,1.584c-.3.008-.446-.142-.427-.162s.172.035.406-.014a.626.626,0,0,0,0-1.23C994.634,3726.974,994.479,3727.044,994.462,3727.009Z" transform="translate(-994.458 -3726.847)" fill="#ff9a6c"/>
        </g>
      </g>
      <path id="Trazado_650225" data-name="Trazado 650225" d="M981.991,3762.072l1.219-.247s-2.656-11.937-11.883-11.937l-1.109,0s-.005.027-.013.062v.079l-.378,1.533c-.719,2.791-2.415,8.1-4.939,8.161-3.2.082-2.774-8.378-2.7-9.519a.791.791,0,0,0-.234.062s-10.037.559-14.49,9.361l7.737,5.653,1.893-1.143s.617,12.451-.446,15.839c-1.2,3.833-3.059,8.076-3.059,8.076a171.949,171.949,0,0,1,28.5.67l-6.895-25.275A23.5,23.5,0,0,0,981.991,3762.072Z" transform="translate(-120.909 -103.978)" fill="#449c6e"/>
      <g id="Grupo_973096" data-name="Grupo 973096" transform="translate(832.309 3648.97)">
        <g id="Grupo_973077" data-name="Grupo 973077" transform="translate(12.779 14.813)">
          <path id="Trazado_650226" data-name="Trazado 650226" d="M993.476,3787.125c.011.011-.06.111-.215.27a4.325,4.325,0,0,1-.732.588,5.1,5.1,0,0,1-5.862-.213,4.312,4.312,0,0,1-.686-.639c-.142-.169-.207-.274-.195-.284.033-.031.345.348.985.778a5.283,5.283,0,0,0,5.667.207C993.106,3787.446,993.445,3787.092,993.476,3787.125Z" transform="translate(-985.784 -3786.844)" fill="#263238"/>
        </g>
        <g id="Grupo_973078" data-name="Grupo 973078" transform="translate(20.102 6.46)">
          <path id="Trazado_650227" data-name="Trazado 650227" d="M1005.765,3784.846a3.063,3.063,0,0,1-.21-.6l-.493-1.644c-.413-1.389-.987-3.308-1.654-5.415s-1.3-4.007-1.767-5.38c-.217-.651-.4-1.2-.544-1.629a3.027,3.027,0,0,1-.17-.608,3.1,3.1,0,0,1,.263.575c.154.375.366.923.619,1.6.507,1.36,1.17,3.252,1.839,5.364s1.216,4.04,1.585,5.443c.184.7.326,1.272.416,1.667A3.038,3.038,0,0,1,1005.765,3784.846Z" transform="translate(-1000.924 -3769.574)" fill="#263238"/>
        </g>
        <g id="Grupo_973079" data-name="Grupo 973079" transform="translate(19.612 1.64)">
          <path id="Trazado_650228" data-name="Trazado 650228" d="M1002.246,3760.614a4.558,4.558,0,0,1-2.332-1,11.226,11.226,0,0,1,2.332,1Z" transform="translate(-999.913 -3759.606)" fill="#263238"/>
        </g>
        <g id="Grupo_973080" data-name="Grupo 973080" transform="translate(24.31 4.036)">
          <path id="Trazado_650229" data-name="Trazado 650229" d="M1009.642,3767.313a8.382,8.382,0,1,1,.576-1.335A4.286,4.286,0,0,1,1009.642,3767.313Z" transform="translate(-1009.626 -3764.562)" fill="#263238"/>
        </g>
        <g id="Grupo_973081" data-name="Grupo 973081" transform="translate(16.033 7.319)">
          <path id="Trazado_650230" data-name="Trazado 650230" d="M992.52,3773.793a11.485,11.485,0,0,1,1.184-2.443,5.47,5.47,0,0,1-1.184,2.443Z" transform="translate(-992.511 -3771.349)" fill="#263238"/>
        </g>
        <g id="Grupo_973082" data-name="Grupo 973082" transform="translate(12.621 10.261)">
          <path id="Trazado_650231" data-name="Trazado 650231" d="M987.377,3779.557a5.312,5.312,0,0,1-1.915-2.122,18.206,18.206,0,0,1,1.915,2.122Z" transform="translate(-985.457 -3777.433)" fill="#263238"/>
        </g>
        <g id="Grupo_973083" data-name="Grupo 973083" transform="translate(17.962 11.989)">
          <path id="Trazado_650232" data-name="Trazado 650232" d="M999.09,3781.008a4.493,4.493,0,0,1-1.036,1.382,7.2,7.2,0,0,1-1.2,1.035l-.358.219.284-.286c.067-.068.111-.1.126-.09s0,.063-.044.148l-.074-.068c.169-.206.6-.628,1.08-1.133A8.831,8.831,0,0,1,999.09,3781.008Z" transform="translate(-996.5 -3781.005)" fill="#263238"/>
        </g>
        <g id="Grupo_973084" data-name="Grupo 973084" transform="translate(19.373 19.162)">
          <path id="Trazado_650233" data-name="Trazado 650233" d="M1001.876,3797.3a5.12,5.12,0,0,1-2.454-1.454,20.623,20.623,0,0,1,2.454,1.454Z" transform="translate(-999.419 -3795.836)" fill="#263238"/>
        </g>
        <g id="Grupo_973085" data-name="Grupo 973085" transform="translate(14.113 18.649)">
          <path id="Trazado_650234" data-name="Trazado 650234" d="M990.2,3794.779a8.508,8.508,0,0,1-1.654,2.4,8.512,8.512,0,0,1,1.654-2.4Z" transform="translate(-988.543 -3794.776)" fill="#263238"/>
        </g>
        <g id="Grupo_973086" data-name="Grupo 973086" transform="translate(9.927 17.573)">
          <path id="Trazado_650235" data-name="Trazado 650235" d="M981.756,3794.018c-.043.055-.5-.227-1.011-.631s-.9-.775-.856-.829a2.892,2.892,0,0,1,1.011.631C981.416,3793.592,981.8,3793.963,981.756,3794.018Z" transform="translate(-979.886 -3792.551)" fill="#263238"/>
        </g>
        <g id="Grupo_973087" data-name="Grupo 973087" transform="translate(7.806 13.164)">
          <path id="Trazado_650236" data-name="Trazado 650236" d="M977.339,3783.442c.041.057-.338.4-.844.757s-.95.608-.991.551.338-.4.844-.757A2.644,2.644,0,0,1,977.339,3783.442Z" transform="translate(-975.502 -3783.435)" fill="#263238"/>
        </g>
        <g id="Grupo_973088" data-name="Grupo 973088" transform="translate(7.456 8.37)">
          <path id="Trazado_650237" data-name="Trazado 650237" d="M976.145,3775.321c-.056.042-.4-.325-.781-.822s-.635-.932-.58-.974.405.325.781.822S976.2,3775.279,976.145,3775.321Z" transform="translate(-974.777 -3773.522)" fill="#263238"/>
        </g>
        <g id="Grupo_973089" data-name="Grupo 973089" transform="translate(17.435)">
          <path id="Trazado_650238" data-name="Trazado 650238" d="M995.421,3758.451a6.426,6.426,0,1,1,.709-1.057A3.289,3.289,0,0,1,995.421,3758.451Z" transform="translate(-995.411 -3756.216)" fill="#263238"/>
        </g>
        <g id="Grupo_973090" data-name="Grupo 973090" transform="translate(4.324 1.286)">
          <path id="Trazado_650239" data-name="Trazado 650239" d="M970.648,3760.326a7.6,7.6,0,1,1-1.107-.828A3.854,3.854,0,0,1,970.648,3760.326Z" transform="translate(-968.301 -3758.875)" fill="#263238"/>
        </g>
        <g id="Grupo_973091" data-name="Grupo 973091" transform="translate(0 1.289)">
          <path id="Trazado_650240" data-name="Trazado 650240" d="M960.389,3758.885c.06.035-.119.448-.4.92s-.557.828-.617.793.12-.448.4-.921S960.329,3758.849,960.389,3758.885Z" transform="translate(-959.361 -3758.882)" fill="#263238"/>
        </g>
        <g id="Grupo_973092" data-name="Grupo 973092" transform="translate(4.688 32.478)">
          <path id="Trazado_650241" data-name="Trazado 650241" d="M971.261,3824.85a7.041,7.041,0,1,1-1.032-.842A3.6,3.6,0,0,1,971.261,3824.85Z" transform="translate(-969.055 -3823.369)" fill="#263238"/>
        </g>
        <g id="Grupo_973093" data-name="Grupo 973093" transform="translate(21.295 32.212)">
          <path id="Trazado_650242" data-name="Trazado 650242" d="M1005.158,3822.823a3.474,3.474,0,0,1-.788,1.043c-.487.529-.923.919-.974.872a3.493,3.493,0,0,1,.789-1.043C1004.671,3823.166,1005.107,3822.776,1005.158,3822.823Z" transform="translate(-1003.391 -3822.819)" fill="#263238"/>
        </g>
        <g id="Grupo_973094" data-name="Grupo 973094" transform="translate(12.042 32.091)">
          <path id="Trazado_650243" data-name="Trazado 650243" d="M984.294,3824.506c-.07-.018-.015-.446-.016-.968s-.053-.95.016-.968.237.408.235.968S984.359,3824.524,984.294,3824.506Z" transform="translate(-984.259 -3822.569)" fill="#263238"/>
        </g>
        <g id="Grupo_973095" data-name="Grupo 973095" transform="translate(15.562 32.758)">
          <path id="Trazado_650244" data-name="Trazado 650244" d="M993.767,3825.31a6.8,6.8,0,1,1-1.049-.784A3.475,3.475,0,0,1,993.767,3825.31Z" transform="translate(-991.537 -3823.948)" fill="#263238"/>
        </g>
      </g>
      <g id="Grupo_973097" data-name="Grupo 973097" transform="translate(832.68 3683.522)">
        <path id="Trazado_650245" data-name="Trazado 650245" d="M988.632,3828.879a1.236,1.236,0,0,1-.291-.005l-.83-.065-3.048-.273c-2.573-.224-6.129-.54-10.067-.6s-7.508.023-10.088.123l-3.057.13-.831.032a1.182,1.182,0,0,1-.291-.006,1.21,1.21,0,0,1,.288-.044l.828-.079c.72-.061,1.764-.137,3.054-.21,2.581-.146,6.154-.272,10.1-.2s7.51.411,10.08.681c1.285.137,2.323.262,3.041.353l.825.112A1.311,1.311,0,0,1,988.632,3828.879Z" transform="translate(-960.129 -3827.656)" fill="#263238"/>
      </g>
      <g id="Grupo_973098" data-name="Grupo 973098" transform="translate(852.413 3655.431)" opacity="0.2">
        <path id="Trazado_650246" data-name="Trazado 650246" d="M1000.93,3769.574l2.42,16.08s2.241-.02,2.649-.666Z" transform="translate(-1000.93 -3769.574)"/>
        <path id="Trazado_650247" data-name="Trazado 650247" d="M1000.93,3769.574l2.42,16.08s2.241-.02,2.649-.666Z" transform="translate(-1000.93 -3769.574)"/>
      </g>
      <g id="Grupo_973109" data-name="Grupo 973109" transform="translate(814.396 3683.611)">
        <path id="Trazado_650248" data-name="Trazado 650248" d="M946.352,3828c-5.692.441-8.8.048-15.063.636a8.94,8.94,0,0,0-7.767,8.656l-1.1,47.3h11.5l1.817-42.412,3.393.429c-.436,15.883,1.224,41.982,1.224,41.982l12.774-.624-.73-40.733s17.185,1.167,16.756-14.264C969.163,3828.975,955.63,3827.335,946.352,3828Z" transform="translate(-922.376 -3827.841)" fill="#263238"/>
        <g id="Grupo_973099" data-name="Grupo 973099" transform="translate(16.661 0.029)">
          <path id="Trazado_650249" data-name="Trazado 650249" d="M967.528,3827.906a6.491,6.491,0,0,1-.871.149c-.561.084-1.373.205-2.37.388a14.608,14.608,0,0,0-3.411.906,6.8,6.8,0,0,0-1.737,1.11,5.6,5.6,0,0,0-1.315,1.76,9.857,9.857,0,0,0-.82,4.2c.015,1.336.05,2.55.039,3.566s-.044,1.839-.083,2.406c-.02.284-.039.5-.056.652a.776.776,0,0,1-.038.226,6.508,6.508,0,0,1,0-.883c.009-.568.019-1.388,0-2.4s-.058-2.234-.093-3.566a9.89,9.89,0,0,1,.826-4.308,5.773,5.773,0,0,1,1.378-1.834,6.951,6.951,0,0,1,1.806-1.138,14.064,14.064,0,0,1,3.476-.87c1-.161,1.822-.256,2.388-.31.283-.027.5-.044.653-.052A.82.82,0,0,1,967.528,3827.906Z" transform="translate(-956.772 -3827.9)" fill="#455a64"/>
        </g>
        <g id="Grupo_973100" data-name="Grupo 973100" transform="translate(12.335 11.378)">
          <path id="Trazado_650250" data-name="Trazado 650250" d="M947.849,3851.366a9.366,9.366,0,0,1,.624,1.437,3.427,3.427,0,0,1,.39,1.529,9.424,9.424,0,0,1-.624-1.436A3.425,3.425,0,0,1,947.849,3851.366Z" transform="translate(-947.828 -3851.366)" fill="#455a64"/>
        </g>
        <g id="Grupo_973101" data-name="Grupo 973101" transform="translate(13.26 10.435)">
          <path id="Trazado_650251" data-name="Trazado 650251" d="M949.769,3849.416a5.873,5.873,0,0,1,.334,1.947,4.206,4.206,0,0,1-.252,1.962c-.073-.014.056-.88,0-1.95A11.568,11.568,0,0,1,949.769,3849.416Z" transform="translate(-949.74 -3849.416)" fill="#455a64"/>
        </g>
        <g id="Grupo_973104" data-name="Grupo 973104" transform="translate(29.148 11.317)">
          <g id="Grupo_973102" data-name="Grupo 973102" transform="translate(0 0.006)">
            <path id="Trazado_650252" data-name="Trazado 650252" d="M982.6,3851.254a6.709,6.709,0,0,1,.559,2.013,12.424,12.424,0,0,1,.312,2.061,6.747,6.747,0,0,1-.559-2.014A12.553,12.553,0,0,1,982.6,3851.254Z" transform="translate(-982.592 -3851.253)" fill="#455a64"/>
          </g>
          <g id="Grupo_973103" data-name="Grupo 973103" transform="translate(0.923)">
            <path id="Trazado_650253" data-name="Trazado 650253" d="M984.742,3851.241a7.872,7.872,0,0,1-.222,4.081,116.654,116.654,0,0,0,.222-4.081Z" transform="translate(-984.5 -3851.241)" fill="#455a64"/>
          </g>
        </g>
        <g id="Grupo_973105" data-name="Grupo 973105" transform="translate(0 53.865)">
          <path id="Trazado_650254" data-name="Trazado 650254" d="M933.581,3939.339c0,.069-2.52.125-5.628.125s-5.629-.056-5.629-.125,2.52-.126,5.629-.126S933.581,3939.27,933.581,3939.339Z" transform="translate(-922.324 -3939.213)" fill="#455a64"/>
        </g>
        <g id="Grupo_973106" data-name="Grupo 973106" transform="translate(17.8 53.654)">
          <path id="Trazado_650255" data-name="Trazado 650255" d="M971.932,3938.9c0,.069-2.867.126-6.4.126s-6.4-.056-6.4-.126,2.866-.126,6.4-.126S971.932,3938.834,971.932,3938.9Z" transform="translate(-959.127 -3938.777)" fill="#455a64"/>
        </g>
        <g id="Grupo_973107" data-name="Grupo 973107" transform="translate(25.481 8.101)">
          <path id="Trazado_650256" data-name="Trazado 650256" d="M994.788,3844.7a.7.7,0,0,1-.163.013l-.478.012-1.838.021-6.762.033-4.668.015a11.038,11.038,0,0,0-2.552.295,4.039,4.039,0,0,0-2.24,1.387,4.644,4.644,0,0,0-.823,2.657c-.049.976.055,1.98.093,3.011l.174,6.357c.243,8.711.446,16.6.52,22.308.039,2.855.051,5.165.049,6.762-.006.786-.01,1.4-.013,1.839,0,.2-.007.357-.01.478a.808.808,0,0,1-.012.163.76.76,0,0,1-.013-.163c0-.121-.009-.279-.016-.478-.008-.437-.019-1.052-.034-1.838-.03-1.612-.074-3.917-.129-6.76-.119-5.708-.351-13.593-.593-22.3-.058-2.177-.114-4.3-.169-6.354-.035-1.021-.138-2.031-.086-3.031a4.866,4.866,0,0,1,.88-2.787,4.256,4.256,0,0,1,2.367-1.46,11.173,11.173,0,0,1,2.6-.289l4.671.015,6.762.047,1.839.026.478.013A.9.9,0,0,1,994.788,3844.7Z" transform="translate(-975.009 -3844.59)" fill="#455a64"/>
        </g>
        <path id="Trazado_650257" data-name="Trazado 650257" d="M954.125,3848.391s-.447-5.732,1.7-9.027l-.341,9.2Z" transform="translate(-938.725 -3833.791)" opacity="0.2"/>
        <g id="Grupo_973108" data-name="Grupo 973108" transform="translate(8.044 8.671)">
          <path id="Trazado_650258" data-name="Trazado 650258" d="M947.24,3846.248a.531.531,0,0,1-.13-.015l-.376-.069c-.33-.06-.816-.158-1.449-.228a6.2,6.2,0,0,0-2.286.134,3.907,3.907,0,0,0-1.282.6,3.219,3.219,0,0,0-.994,1.217,8.865,8.865,0,0,0-.571,3.621c-.033,1.343-.069,2.777-.106,4.284-.08,3.02-.168,6.336-.26,9.818-.206,6.958-.392,13.255-.528,17.837-.079,2.267-.144,4.108-.189,5.4-.027.623-.049,1.115-.064,1.469-.009.156-.017.281-.023.382a.554.554,0,0,1-.016.13.5.5,0,0,1-.01-.131c0-.1,0-.227,0-.382,0-.355.01-.847.017-1.47.026-1.3.063-3.139.109-5.407.117-4.582.277-10.88.454-17.839.1-3.482.194-6.8.279-9.817.046-1.508.09-2.941.13-4.284a8.954,8.954,0,0,1,.62-3.693,3.367,3.367,0,0,1,1.059-1.269,4.026,4.026,0,0,1,1.34-.609,6.154,6.154,0,0,1,2.334-.1,14.458,14.458,0,0,1,1.448.276l.371.093A.485.485,0,0,1,947.24,3846.248Z" transform="translate(-938.955 -3845.77)" fill="#455a64"/>
        </g>
      </g>
      <path id="Trazado_650259" data-name="Trazado 650259" d="M937.735,3771.331s-12.148,12.179-14.465,14.905c-1.977,2.324-.687,6.713.968,6.9s28.431-.175,28.431-.175l-.355-5.477s-17.341.078-17.85-.242,10.03-10.974,10.03-10.974Z" transform="translate(-107.9 -115.05)" fill="#ffbf9d"/>
      <path id="Trazado_650260" data-name="Trazado 650260" d="M991.888,3774.621s3.69,11.184,4.137,12.507,2.738,6.914-1.614,7.382-27.715,0-27.715,0l-1.738-5.652s22.581-.057,22.467-1.263-3.43-11.309-3.43-11.309Z" transform="translate(-129.942 -116.749)" fill="#ffbf9d"/>
      <g id="Grupo_973110" data-name="Grupo 973110" transform="translate(812.649 3654.024)">
        <path id="Trazado_650261" data-name="Trazado 650261" d="M918.711,3767.023l8.392,23.246,38.63-.016-.268-1.136-14.494-.532-7.135-21.918Z" transform="translate(-918.711 -3766.667)" fill="#263238"/>
        <path id="Trazado_650262" data-name="Trazado 650262" d="M951.443,3787.856a1.367,1.367,0,1,1-1.606-1.321A1.48,1.48,0,0,1,951.443,3787.856Z" transform="translate(-934.225 -3776.916)" fill="#fafafa"/>
      </g>
      <path id="Trazado_650263" data-name="Trazado 650263" d="M957.7,3814.421H864.467v66.736h1.979v-62.8H957.7V3881.2h23.325v-66.783Z" transform="translate(-78.053 -137.3)" fill="#455a64"/>
      <g id="Grupo_973111" data-name="Grupo 973111" transform="translate(758.347 3736.197)">
        <path id="Trazado_650264" data-name="Trazado 650264" d="M815.46,3941.623v-5l-8.951-.06-.074,7.469.555.041c2.469.16,12.565.469,14.22-.043C823.054,3943.464,815.46,3941.623,815.46,3941.623Z" transform="translate(-806.435 -3936.568)" fill="#449c6e"/>
      </g>
      <g id="Grupo_973113" data-name="Grupo 973113" transform="translate(758.377 3743.054)">
        <g id="Grupo_973112" data-name="Grupo 973112" transform="translate(0 0)">
          <path id="Trazado_650265" data-name="Trazado 650265" d="M821.453,3950.9c0,.084-3.348.153-7.478.153s-7.478-.068-7.478-.153,3.347-.152,7.478-.152S821.453,3950.816,821.453,3950.9Z" transform="translate(-806.497 -3950.747)" fill="#263238"/>
        </g>
      </g>
      <g id="Grupo_973115" data-name="Grupo 973115" transform="translate(767.499 3741.354)">
        <g id="Grupo_973114" data-name="Grupo 973114" transform="translate(0 0)">
          <path id="Trazado_650266" data-name="Trazado 650266" d="M825.389,3948.148c-.073-.038-.011-.3.182-.562s.426-.4.484-.341-.063.28-.239.521S825.464,3948.188,825.389,3948.148Z" transform="translate(-825.359 -3947.231)" fill="#263238"/>
        </g>
      </g>
      <g id="Grupo_973117" data-name="Grupo 973117" transform="translate(768.063 3741.507)">
        <g id="Grupo_973116" data-name="Grupo 973116" transform="translate(0)">
          <path id="Trazado_650267" data-name="Trazado 650267" d="M826.562,3948.641c-.078-.03-.038-.325.138-.637s.408-.5.473-.448-.045.307-.208.6S826.641,3948.672,826.562,3948.641Z" transform="translate(-826.524 -3947.548)" fill="#263238"/>
        </g>
      </g>
      <g id="Grupo_973119" data-name="Grupo 973119" transform="translate(758.491 3741.419)">
        <g id="Grupo_973118" data-name="Grupo 973118">
          <path id="Trazado_650268" data-name="Trazado 650268" d="M809.316,3949.12c-.035.025-.168-.106-.362-.327a5.877,5.877,0,0,0-.785-.786,2.049,2.049,0,0,0-.968-.423c-.272-.037-.451.005-.466-.038s.15-.157.473-.177a1.775,1.775,0,0,1,1.147.4,3.258,3.258,0,0,1,.773.9C809.281,3948.924,809.35,3949.1,809.316,3949.12Z" transform="translate(-806.734 -3947.367)" fill="#263238"/>
        </g>
      </g>
      <g id="Grupo_973121" data-name="Grupo 973121" transform="translate(766.693 3741.295)">
        <g id="Grupo_973120" data-name="Grupo 973120" transform="translate(0 0)">
          <path id="Trazado_650269" data-name="Trazado 650269" d="M824.556,3947.146c.044.071-.11.244-.365.338s-.485.061-.5-.021.168-.181.392-.265S824.512,3947.074,824.556,3947.146Z" transform="translate(-823.693 -3947.109)" fill="#263238"/>
        </g>
      </g>
      <g id="Grupo_973123" data-name="Grupo 973123" transform="translate(766.347 3740.705)">
        <g id="Grupo_973122" data-name="Grupo 973122" transform="translate(0)">
          <path id="Trazado_650270" data-name="Trazado 650270" d="M824.045,3946.033c.008.084-.231.155-.533.16s-.542-.061-.536-.145.244-.155.532-.159S824.037,3945.95,824.045,3946.033Z" transform="translate(-822.976 -3945.889)" fill="#263238"/>
        </g>
      </g>
      <path id="Trazado_650271" data-name="Trazado 650271" d="M877.966,3628.5l.083-1.511a12.9,12.9,0,0,0,.191-2.538,3.725,3.725,0,0,0-.223-1.242,5.693,5.693,0,0,0-.68-1.418.488.488,0,0,1,.427-.818,4.008,4.008,0,0,1,1.693,2.63c.394,1.509,1.411-.725,1.8-1.533s1.694-3.25,2.036-3.327c.5-.115.717.4.314,1.2s-1.445,3.274-1.008,3.457a2.317,2.317,0,0,1,.953-.041.251.251,0,0,1,.2.212,2.939,2.939,0,0,0,.141.695s.6-.193.751.062a2.645,2.645,0,0,1,.2.841s.457-.2.7-.046c.52.338-.04,1.049-.04,1.049a50.977,50.977,0,0,1-4.03,5.073l-3.517-2.83" transform="translate(-84.635 -36.251)" fill="#ffbf9d"/>
      <g id="Grupo_973124" data-name="Grupo 973124" transform="translate(746.652 3586.683)">
        <path id="Trazado_650272" data-name="Trazado 650272" d="M789.8,3636.191l-.059,19.291,8.277.395.239-4.692s2.94.584,3.7-2.146c.485-1.744.364-15.221.364-15.221Z" transform="translate(-786.119 -3630.727)" fill="#ffbf9d"/>
        <path id="Trazado_650273" data-name="Trazado 650273" d="M797.976,3627.527a18.514,18.514,0,0,1-4.254,1.178c-1.083.087-8.8.093-9.495,4.416a3.134,3.134,0,0,1-.218-.635,10.876,10.876,0,0,1-.095-1.277,1.6,1.6,0,0,0-.151,1.333,2.214,2.214,0,0,0,.083.279c-.05-.052-.1-.1-.155-.154a2.437,2.437,0,0,0-.978-.52c-.278-.068-.456-.053-.459-.022a6.59,6.59,0,0,1,1.273.733,3.256,3.256,0,0,1,.651.772c0,.02,0,.038,0,.058,0,0-1.65-.725-1.216,2.265s2.388,5.528,2.626,10.42c0,0,6.836.816,8.052-1.812l1.021-3.015s-1.645-.267-1.453-1.59c.265-1.83,1.663-1.877,2.7-1.062l1.2-3.214s3.039-1.993,3.212-3.261S800.493,3626.712,797.976,3627.527Z" transform="translate(-782.254 -3627.428)" fill="#263238"/>
      </g>
      <path id="Trazado_650274" data-name="Trazado 650274" d="M741.231,3939.3l-1.213,5.4,8.356,1.032.3-5.346Z" transform="translate(-13.794 -201.782)" fill="#449c6e"/>
      <g id="Grupo_973125" data-name="Grupo 973125" transform="translate(730.392 3737.782)">
        <path id="Trazado_650275" data-name="Trazado 650275" d="M749.453,3939.847a24.725,24.725,0,0,1-.8,4.914,24.608,24.608,0,0,1,.8-4.914Z" transform="translate(-748.636 -3939.847)" fill="#263238"/>
      </g>
      <g id="Grupo_973126" data-name="Grupo 973126" transform="translate(726.437 3741.857)">
        <path id="Trazado_650276" data-name="Trazado 650276" d="M748.634,3949.774a6.578,6.578,0,0,1-1.21-.152l-2.9-.47c-1.132-.188-2.156-.378-2.891-.543a5.376,5.376,0,0,1-1.177-.327,6.418,6.418,0,0,1,1.21.152l2.9.47c1.132.189,2.155.38,2.89.543A5.33,5.33,0,0,1,748.634,3949.774Z" transform="translate(-740.458 -3948.273)" fill="#263238"/>
      </g>
      <g id="Grupo_973133" data-name="Grupo 973133" transform="translate(724.363 3651.575)">
        <path id="Trazado_650277" data-name="Trazado 650277" d="M751.631,3762.709l-15.462,86.9,13.244.751s14.065-74.906,16.13-75.094c.865-.078,1.212,74.5,1.907,74.343s14.307.242,14.307.242-1.842-88.246-1.809-88.248Z" transform="translate(-736.169 -3761.602)" fill="#263238"/>
        <g id="Grupo_973132" data-name="Grupo 973132" transform="translate(0.848 11.832)">
          <g id="Grupo_973127" data-name="Grupo 973127" transform="translate(23.874)">
            <path id="Trazado_650278" data-name="Trazado 650278" d="M797.589,3786.073c.015.068-2.28.614-5.126,1.218s-5.164,1.04-5.178.972,2.28-.613,5.126-1.218S797.574,3786,797.589,3786.073Z" transform="translate(-787.285 -3786.066)" fill="#455a64"/>
          </g>
          <g id="Grupo_973128" data-name="Grupo 973128" transform="translate(0 71.374)">
            <path id="Trazado_650279" data-name="Trazado 650279" d="M751.285,3934.09c0,.069-3,.033-6.684-.081s-6.68-.263-6.677-.333,2.995-.032,6.685.082S751.287,3934.02,751.285,3934.09Z" transform="translate(-737.923 -3933.641)" fill="#455a64"/>
          </g>
          <g id="Grupo_973129" data-name="Grupo 973129" transform="translate(30.213 71.365)">
            <path id="Trazado_650280" data-name="Trazado 650280" d="M814.819,3934.087c0,.07-3.234.03-7.217-.089s-7.213-.271-7.21-.341,3.233-.03,7.217.089S814.821,3934.018,814.819,3934.087Z" transform="translate(-800.392 -3933.623)" fill="#455a64"/>
          </g>
          <g id="Grupo_973130" data-name="Grupo 973130" transform="translate(6.341 2.413)">
            <path id="Trazado_650281" data-name="Trazado 650281" d="M765.913,3791.055c.068.014-3.208,15.517-7.316,34.621s-7.5,34.586-7.563,34.571,3.208-15.513,7.317-34.624S765.846,3791.041,765.913,3791.055Z" transform="translate(-751.033 -3791.055)" fill="#455a64"/>
          </g>
          <g id="Grupo_973131" data-name="Grupo 973131" transform="translate(36.676 2.04)">
            <path id="Trazado_650282" data-name="Trazado 650282" d="M814.562,3859.859a.956.956,0,0,1-.018-.179l-.029-.526c-.021-.478-.05-1.158-.087-2.026-.073-1.76-.159-4.306-.251-7.453-.184-6.294-.364-14.991-.411-24.6s.051-18.31.175-24.605c.061-3.148.123-5.694.178-7.454l.068-2.027c.01-.221.018-.4.024-.526a1.023,1.023,0,0,1,.016-.179.913.913,0,0,1,.009.18c0,.132,0,.306,0,.528,0,.478-.012,1.158-.021,2.027-.023,1.775-.057,4.318-.1,7.455-.077,6.295-.146,14.993-.1,24.6s.2,18.3.337,24.595c.072,3.136.13,5.679.17,7.454.017.869.03,1.549.04,2.027,0,.221,0,.4,0,.527A.951.951,0,0,1,814.562,3859.859Z" transform="translate(-813.755 -3790.284)" fill="#455a64"/>
          </g>
        </g>
      </g>
      <path id="Trazado_650283" data-name="Trazado 650283" d="M809.172,3638.032s-10.253,15.467-11.122,16.335-16.928,2.557-16.928,2.557c-4.93-1.113-20.87-.746-23.881,1.472h0c-2.6,1.441-5.77,4.814-7.4,12.831-2.781,13.677-5.561,18.716,0,20.628a36.581,36.581,0,0,0,6.846,1.613l-.154,6.19,28.823-1.791-1.476-15.373c-.173-4.316-.254-8.815-.36-12.8,1.8-.684,18.566-7.028,19.717-7.192,1.216-.174,12.191-20.475,12.191-20.475C815.775,3639.6,809.172,3638.032,809.172,3638.032Z" transform="translate(-17.207 -46.221)" fill="#449c6e"/>
      <g id="Grupo_973134" data-name="Grupo 973134" transform="translate(739.309 3619.803)">
        <path id="Trazado_650284" data-name="Trazado 650284" d="M768.029,3695.909c.07,0-.085,7.533-.345,16.82s-.527,16.817-.6,16.815.085-7.532.345-16.822S767.96,3695.907,768.029,3695.909Z" transform="translate(-767.071 -3695.909)" fill="#263238"/>
      </g>
      <g id="Grupo_973135" data-name="Grupo 973135" transform="translate(780.836 3608.146)">
        <path id="Trazado_650285" data-name="Trazado 650285" d="M854.385,3675.288a5,5,0,0,1-.84-1.7,12.7,12.7,0,0,1-.6-1.785,5.011,5.011,0,0,1,.84,1.7A12.68,12.68,0,0,1,854.385,3675.288Z" transform="translate(-852.935 -3671.805)" fill="#263238"/>
      </g>
      <g id="Grupo_973136" data-name="Grupo 973136" transform="translate(780.839 3608.144)">
        <path id="Trazado_650286" data-name="Trazado 650286" d="M855.537,3673.97a8.549,8.549,0,0,1-1.375-.984,4.362,4.362,0,0,1-1.218-1.181,8.626,8.626,0,0,1,1.375.984A4.371,4.371,0,0,1,855.537,3673.97Z" transform="translate(-852.94 -3671.802)" fill="#263238"/>
      </g>
      <g id="Grupo_973137" data-name="Grupo 973137" transform="translate(790.874 3593.383)">
        <path id="Trazado_650287" data-name="Trazado 650287" d="M880.48,3644.921a6.113,6.113,0,0,1-.972-.584c-.588-.375-1.409-.878-2.345-1.38s-1.811-.906-2.449-1.187a6.155,6.155,0,0,1-1.025-.484,4.349,4.349,0,0,1,1.092.319,20.406,20.406,0,0,1,4.827,2.584A4.384,4.384,0,0,1,880.48,3644.921Z" transform="translate(-873.689 -3641.281)" fill="#263238"/>
      </g>
      <g id="Grupo_973138" data-name="Grupo 973138" transform="translate(736.438 3635.929)">
        <path id="Trazado_650288" data-name="Trazado 650288" d="M764.619,3730.021a5.665,5.665,0,0,1-1.783-.183,4.769,4.769,0,0,1-1.7-.572,9.9,9.9,0,0,1,1.752.325A7.406,7.406,0,0,1,764.619,3730.021Z" transform="translate(-761.135 -3729.252)" fill="#263238"/>
      </g>
      <g id="Grupo_973139" data-name="Grupo 973139" transform="translate(760.694 3610.464)">
        <path id="Trazado_650289" data-name="Trazado 650289" d="M817.142,3676.62a14.475,14.475,0,0,0-1.546.363,5.991,5.991,0,0,0-4.122,5.778,14.381,14.381,0,0,0,.16,1.58,1.265,1.265,0,0,1-.156-.406,5.168,5.168,0,0,1-.182-1.17,5.883,5.883,0,0,1,4.245-5.951,5.18,5.18,0,0,1,1.166-.209A1.277,1.277,0,0,1,817.142,3676.62Z" transform="translate(-811.288 -3676.599)" fill="#263238"/>
      </g>
      <g id="Grupo_973140" data-name="Grupo 973140" transform="translate(739.326 3651.638)">
        <path id="Trazado_650290" data-name="Trazado 650290" d="M795.929,3761.74c0,.07-6.445.527-14.4,1.022s-14.415.839-14.42.769,6.444-.526,14.4-1.021S795.925,3761.671,795.929,3761.74Z" transform="translate(-767.106 -3761.731)" fill="#263238"/>
      </g>
      <g id="Grupo_973141" data-name="Grupo 973141" transform="translate(732.604 3610.181)">
        <path id="Trazado_650291" data-name="Trazado 650291" d="M777.271,3676.014a1.98,1.98,0,0,1,.085.359c.021.119.058.265.079.441s.035.383.056.609a9.438,9.438,0,0,1-.624,3.829,9.048,9.048,0,0,1-3.591,4.447,5.8,5.8,0,0,1-.735.395,6.775,6.775,0,0,1-.785.326c-.537.194-1.093.358-1.644.553a7.4,7.4,0,0,0-1.6.747,5.724,5.724,0,0,0-1.309,1.235,33.236,33.236,0,0,0-1.906,3.09,6.524,6.524,0,0,1-2.367,2.464,5.465,5.465,0,0,1-3.042.563,7.27,7.27,0,0,1-2.594-.741,11.7,11.7,0,0,1-3.125-2.3c-.326-.324-.566-.586-.729-.763a1.9,1.9,0,0,1-.237-.283,2.036,2.036,0,0,1,.273.248l.761.728a12.215,12.215,0,0,0,3.134,2.214,7.152,7.152,0,0,0,2.534.693,5.277,5.277,0,0,0,2.914-.559,6.33,6.33,0,0,0,2.268-2.39,32.522,32.522,0,0,1,1.917-3.115,5.947,5.947,0,0,1,1.371-1.29,7.635,7.635,0,0,1,1.651-.77l1.645-.547a6.531,6.531,0,0,0,.768-.314,5.566,5.566,0,0,0,.713-.378,8.947,8.947,0,0,0,3.545-4.314,9.726,9.726,0,0,0,.692-3.76q-.018-.336-.033-.6c-.013-.175-.042-.321-.055-.441A2.055,2.055,0,0,1,777.271,3676.014Z" transform="translate(-753.208 -3676.014)" fill="#263238"/>
      </g>
      <g id="Grupo_973142" data-name="Grupo 973142" transform="translate(753.218 3626.522)">
        <path id="Trazado_650292" data-name="Trazado 650292" d="M810.194,3729.021c-.007.01-.11-.074-.322-.206a2.961,2.961,0,0,0-1-.408,14.359,14.359,0,0,0-1.722-.154c-.672-.054-1.441-.06-2.3-.091a11.338,11.338,0,0,1-2.777-.39,9.321,9.321,0,0,1-2.9-1.4,8.11,8.11,0,0,1-2.373-2.653,7.745,7.745,0,0,1-.973-3.692,6.694,6.694,0,0,1,3.673-6.062,6.081,6.081,0,0,1,1.587-.529,9.618,9.618,0,0,1,1.564-.128,23.064,23.064,0,0,0,2.774-.082,4.015,4.015,0,0,0,3.234-2.015,3.065,3.065,0,0,0,.3-1.036c.029-.248.026-.38.038-.38s.009.032.012.1a2.106,2.106,0,0,1,0,.287,2.885,2.885,0,0,1-.262,1.073,3.431,3.431,0,0,1-1.133,1.331,4.729,4.729,0,0,1-2.165.818,22.2,22.2,0,0,1-2.795.114,9.575,9.575,0,0,0-1.528.138,5.9,5.9,0,0,0-1.523.519,6.48,6.48,0,0,0-3.525,5.852,7.539,7.539,0,0,0,.937,3.575,7.927,7.927,0,0,0,2.294,2.584,9.213,9.213,0,0,0,2.825,1.384,11.308,11.308,0,0,0,2.728.411c.849.043,1.622.061,2.3.128a13.175,13.175,0,0,1,1.731.2,2.812,2.812,0,0,1,1,.462,2.4,2.4,0,0,1,.225.179C810.174,3728.995,810.2,3729.018,810.194,3729.021Z" transform="translate(-795.83 -3709.8)" fill="#263238"/>
      </g>
      <g id="Grupo_973143" data-name="Grupo 973143" transform="translate(740.062 3634.577)">
        <path id="Trazado_650293" data-name="Trazado 650293" d="M780.13,3744.706a5,5,0,0,0-.056-1.037,3.628,3.628,0,0,0-1.489-2.292,3.376,3.376,0,0,0-.824-.4,5.035,5.035,0,0,0-.989-.182,10.6,10.6,0,0,1-2.266-.307,2.879,2.879,0,0,1-1.085-.656,3.515,3.515,0,0,1-.737-1.094,5.062,5.062,0,0,1-.315-2.7c.269-1.861,1.086-3.462,1.229-5.038a4.964,4.964,0,0,0-.2-2.19,3.153,3.153,0,0,0-1.122-1.517,3.683,3.683,0,0,0-2.651-.679,5.325,5.325,0,0,0-1,.281,2.4,2.4,0,0,1,.983-.377,3.711,3.711,0,0,1,2.771.631,3.316,3.316,0,0,1,1.214,1.59,5.125,5.125,0,0,1,.232,2.285c-.14,1.63-.954,3.249-1.211,5.048a4.848,4.848,0,0,0,.292,2.573,3.28,3.28,0,0,0,.678,1.019,2.663,2.663,0,0,0,.992.608,10.7,10.7,0,0,0,2.213.319,5.25,5.25,0,0,1,1.025.205,3.522,3.522,0,0,1,.867.441,3.66,3.66,0,0,1,1.484,2.422,2.962,2.962,0,0,1,.016.784A1.138,1.138,0,0,1,780.13,3744.706Z" transform="translate(-768.629 -3726.456)" fill="#263238"/>
      </g>
      <g id="Grupo_973144" data-name="Grupo 973144" transform="translate(749.789 3625.832)">
        <path id="Trazado_650294" data-name="Trazado 650294" d="M789.549,3708.606c-.007-.01.1-.1.34-.175a1.67,1.67,0,0,1,1.654.5,1.469,1.469,0,0,1,.352.786,1.693,1.693,0,0,1-.837,1.691,1.673,1.673,0,0,1-1.863-.291,1.413,1.413,0,0,1-.427-.75,1.567,1.567,0,0,1,.034-.743,1.541,1.541,0,0,1,.6-.857c.21-.138.351-.157.355-.145s-.118.072-.3.223a1.552,1.552,0,0,0-.489.824,1.279,1.279,0,0,0,.376,1.277,1.46,1.46,0,0,0,1.589.239,1.479,1.479,0,0,0,.723-1.44,1.34,1.34,0,0,0-.8-1.077,1.651,1.651,0,0,0-.953-.137C789.68,3708.565,789.559,3708.625,789.549,3708.606Z" transform="translate(-788.74 -3708.375)" fill="#263238"/>
      </g>
      <g id="Grupo_973145" data-name="Grupo 973145" transform="translate(730.824 3633.181)">
        <path id="Trazado_650295" data-name="Trazado 650295" d="M754.8,3737.073c-.054-.012.174-.851.227-2.234a9.805,9.805,0,0,0-.013-1.129,12.867,12.867,0,0,0-.128-1.289,13.418,13.418,0,0,0-2.143-5.486,12.9,12.9,0,0,0-.78-1.035,9.822,9.822,0,0,0-.756-.839c-.977-.981-1.713-1.443-1.681-1.488a2.762,2.762,0,0,1,.519.315,4.968,4.968,0,0,1,.573.424,8.219,8.219,0,0,1,.713.622,9.174,9.174,0,0,1,.791.832,12.3,12.3,0,0,1,.812,1.039,12.9,12.9,0,0,1,2.181,5.584,12.138,12.138,0,0,1,.107,1.313,9.272,9.272,0,0,1-.018,1.147,8.257,8.257,0,0,1-.1.94,4.993,4.993,0,0,1-.134.7A2.806,2.806,0,0,1,754.8,3737.073Z" transform="translate(-749.528 -3723.571)" fill="#263238"/>
      </g>
      <g id="Grupo_973146" data-name="Grupo 973146" transform="translate(771.198 3613.807)">
        <path id="Trazado_650296" data-name="Trazado 650296" d="M848.091,3685.773a5.389,5.389,0,0,1-.72-.318c-.459-.214-1.126-.517-1.973-.827a14.839,14.839,0,0,0-3.058-.772,10.123,10.123,0,0,0-3.823.189,7.651,7.651,0,0,0-3.358,1.771,6.453,6.453,0,0,0-1.726,2.578,5.21,5.21,0,0,0-.292,2.081c.037.5.116.772.089.779a.611.611,0,0,1-.069-.193,3.649,3.649,0,0,1-.118-.576,4.969,4.969,0,0,1,.221-2.147,6.48,6.48,0,0,1,1.736-2.69,7.745,7.745,0,0,1,3.456-1.846,10.08,10.08,0,0,1,3.916-.174,14.027,14.027,0,0,1,3.089.835,18.291,18.291,0,0,1,1.953.905c.224.121.4.219.509.29S848.1,3685.767,848.091,3685.773Z" transform="translate(-833.008 -3683.512)" fill="#263238"/>
      </g>
      <g id="Grupo_973147" data-name="Grupo 973147" transform="translate(783.348 3594.402)">
        <path id="Trazado_650297" data-name="Trazado 650297" d="M865.022,3643.389c.006-.005.051.034.132.114a3.66,3.66,0,0,1,.333.368,5.633,5.633,0,0,1,.9,1.6,6.471,6.471,0,0,1,.383,2.688,6.586,6.586,0,0,1-1.051,3.152,6.408,6.408,0,0,1-2.509,2.178,6.687,6.687,0,0,1-2.624.7,5.89,5.89,0,0,1-1.821-.167,3.765,3.765,0,0,1-.474-.152c-.106-.04-.161-.064-.158-.072a8.339,8.339,0,0,0,2.439.214,6.754,6.754,0,0,0,2.533-.727,6.3,6.3,0,0,0,2.4-2.11,6.54,6.54,0,0,0,.711-5.641A7.948,7.948,0,0,0,865.022,3643.389Z" transform="translate(-858.129 -3643.388)" fill="#263238"/>
      </g>
      <g id="Grupo_973148" data-name="Grupo 973148" transform="translate(750.26 3610.019)">
        <path id="Trazado_650298" data-name="Trazado 650298" d="M798.118,3675.777a70.268,70.268,0,0,1-8.4.064,70,70,0,0,1,8.4-.064Z" transform="translate(-789.715 -3675.678)" fill="#263238"/>
      </g>
    </g>
  </g>
</svg>
