<svg xmlns="http://www.w3.org/2000/svg" xmlns:xlink="http://www.w3.org/1999/xlink" width="1239.875" height="1669.307" viewBox="0 0 1239.875 1669.307">
  <defs>
    <linearGradient id="linear-gradient" x1="0.505" x2="0.503" y2="0.208" gradientUnits="objectBoundingBox">
      <stop offset="0" stop-color="#fff"/>
      <stop offset="1" stop-color="#f9e3b4"/>
    </linearGradient>
    <clipPath id="clip-path">
      <rect id="Rect치ngulo_308999" data-name="Rect치ngulo 308999" width="1239.875" height="1669.307" fill="none"/>
    </clipPath>
    <clipPath id="clip-path-2">
      <ellipse id="Elipse_7848" data-name="Elipse 7848" cx="716.033" cy="475.067" rx="716.033" ry="475.067" fill="none"/>
    </clipPath>
  </defs>
  <g id="Grupo_975430" data-name="Grupo 975430" transform="translate(-44 -1636.884)">
    <rect id="Rect치ngulo_308980" data-name="Rect치ngulo 308980" width="1239.875" height="1669.307" transform="translate(44 1636.884)" fill="url(#linear-gradient)"/>
    <g id="Grupo_975429" data-name="Grupo 975429" transform="translate(44 1636.884)">
      <g id="Grupo_975428" data-name="Grupo 975428" clip-path="url(#clip-path)">
        <g id="Grupo_975405" data-name="Grupo 975405" transform="translate(1093.996 1344.967)">
          <path id="Trazado_652443" data-name="Trazado 652443" d="M1197,3234.658c-22.646-13.728-44.016-48.326-53.8-91.63s-5.269-83.3,9.423-104.808c22.672,13.73,44.016,48.325,53.8,91.63S1211.72,3213.152,1197,3234.658Z" transform="translate(-1137.996 -3038.22)" fill="#a0c433"/>
          <path id="Trazado_652444" data-name="Trazado 652444" d="M1197,3234.658c-22.646-13.728-44.016-48.326-53.8-91.63s-5.269-83.3,9.423-104.808l22.58,99.431,16.3,72.413Z" transform="translate(-1137.996 -3038.22)" fill="#a0c433" style="mix-blend-mode: multiply;isolation: isolate"/>
          <path id="Trazado_652445" data-name="Trazado 652445" d="M1173.587,3138.847l-25.657-23.479,24.684,19.035c-1.316-6.005-2.618-12.013-3.864-18.032-.037-.175-.072-.349-.108-.523l-.237-.054.132-.453q-1.328-6.41-2.624-12.824l-.116.093-17.806-22.186,17.143,18.228c-1.5-7.5-2.95-15-4.3-22.533,2.269,8.264,4.4,16.557,6.483,24.861l.219.232-.133.108q1.209,4.83,2.4,9.664l7.693-26.391-6.144,31.858-.218-.049c3.173,12.966,6.1,25.981,9.158,38.97l9.388-27.575L1181.535,3161c2.072,9.461,4.172,18.916,6.19,28.387l10.53-29.322-9.25,34.672-.157-.045c.086.411.176.822.261,1.232l2.366,11.569.357.263-.247.273,1.633,7.988c.284,1.512.579,3.022.87,4.533l7.739-21.125-6.047,25.256-.951-.264c.755,3.914,1.5,7.83,2.185,11.758-1.118-4-2.168-8.024-3.21-12.044l-.934-.259.506-1.38c-.534-2.058-1.065-4.117-1.609-6.172l-1.652-6.667-.269.3-17.79-16.747,17.1,12.583-2.326-9.39c-.2-.818-.392-1.639-.591-2.457l-.137-.04.076-.214q-2.043-8.445-4-16.905l-27.538-21.423,26.589,17.331q-1.883-8.12-3.779-16.236Q1175.543,3147.647,1173.587,3138.847Z" transform="translate(-1137.996 -3039.745)" fill="#734c2f"/>
        </g>
        <g id="Grupo_975406" data-name="Grupo 975406" transform="translate(135.161 1375.216)">
          <path id="Trazado_652446" data-name="Trazado 652446" d="M179.163,3211.87c-.23-25.705,18.517-61.677,51.16-93.013s70.129-49.334,96.926-49.119c.24,25.73-18.518,61.678-51.162,93.015S205.971,3212.11,179.163,3211.87Z" transform="translate(-179.161 -3069.736)" fill="#a0c433"/>
          <path id="Trazado_652447" data-name="Trazado 652447" d="M179.163,3211.87c-.23-25.705,18.517-61.677,51.16-93.013s70.129-49.334,96.926-49.119l-74.895,72.037-54.624,52.342Z" transform="translate(-179.161 -3069.736)" fill="#a0c433" style="mix-blend-mode: multiply;isolation: isolate"/>
          <path id="Trazado_652448" data-name="Trazado 652448" d="M251.77,3141.061l6.685-33.414-3.319,30.223q6.825-6.468,13.708-12.878l.4-.37-.082-.22.469-.139q4.9-4.541,9.814-9.058l-.144-.043,9.8-26.377-6.693,23.7q8.635-7.9,17.419-15.663-9.021,9.456-18.273,18.688l-.086.3-.166-.051q-3.578,3.591-7.168,7.167l27.285-8.075-31.237,12.284-.075-.2c-9.643,9.578-19.462,18.983-29.187,28.481l29.241-7.347-33.5,11.395c-7.167,6.792-14.314,13.6-21.52,20.359l31.389-7.37-35.384,11.3-.045-.152c-.314.292-.624.587-.939.878l-8.855,8.17-.037.431-.374-.052-6.115,5.642c-1.171,1.048-2.334,2.1-3.5,3.155l22.7-5.186-25.4,8.788-.283-.911c-3.02,2.728-6.047,5.451-9.12,8.128,2.9-3.07,5.857-6.092,8.815-9.11l-.277-.894,1.482-.339q2.272-2.317,4.537-4.64l4.947-4.94-.407-.057,5.045-23.421-1.77,20.613,6.969-6.959c.608-.6,1.223-1.2,1.833-1.806l-.041-.132.23-.055q6.293-6.219,12.644-12.38l3.866-33.819-.794,30.837q6.095-5.912,12.18-11.836Q245.117,3147.4,251.77,3141.061Z" transform="translate(-179.161 -3070.503)" fill="#734c2f"/>
        </g>
        <g id="Grupo_975407" data-name="Grupo 975407" transform="translate(860.61 79.735)">
          <path id="Trazado_652449" data-name="Trazado 652449" d="M1117.47,1764.719q13.458-4.034,26.681-8.772c2.812-1.039,5.651-2.086,8.481-3.157q11.682-4.46,23.172-9.5,3.768-1.663,7.51-3.4,8.3-3.8,16.434-7.921l-.628-1.15-.621-1.125c-.093.055-.17.078-.264.133q-7.757,3.914-15.636,7.546c-1.061.509-2.156,1-3.225,1.485q-13.593,6.165-27.525,11.467c-1.017.388-2.059.784-3.1,1.179-10.389,3.895-20.948,7.439-31.594,10.634-1.245.377-2.5.729-3.741,1.106q-16.626,4.832-33.529,8.487c-1.115.257-2.213.482-3.337.715q-15.463,3.274-31.154,5.518c-1.436.221-2.9.423-4.355.6-10.954,1.493-21.995,2.638-33.063,3.363-2.065.169-4.122.282-6.211.379q-14.754.85-29.609.791c-6.769-.041-13.52-.2-20.292-.5l-.055,1.276-.081,1.284q10.071.448,20.149.492,13.423.076,26.793-.609c3.16-.153,6.338-.337,9.507-.546q14.339-.965,28.616-2.794c3-.373,5.974-.763,8.962-1.185q12.952-1.87,25.764-4.422c2.855-.57,5.736-1.147,8.576-1.766q14.424-3.12,28.629-7.084C1111.64,1766.429,1114.569,1765.57,1117.47,1764.719Z" transform="translate(-904.61 -1720.352)" fill="#a0c433"/>
          <path id="Trazado_652450" data-name="Trazado 652450" d="M971.875,1787.406c1.5-.7,2.4-1.183,2.572-1.261l.017-.031c-.758-.441-1.542-.873-2.31-1.256-41.816-22.682-67.544-3.964-67.544-3.964l.033.016A67.685,67.685,0,0,0,971.875,1787.406Z" transform="translate(-904.61 -1722.12)" fill="#a0c433"/>
          <path id="Trazado_652451" data-name="Trazado 652451" d="M1008.568,1785.424s-8.9,36.323-46.567,35.176C962,1820.6,971.173,1789.417,1008.568,1785.424Z" transform="translate(-904.61 -1722.594)" fill="#a0c433"/>
          <path id="Trazado_652452" data-name="Trazado 652452" d="M1008.559,1784.15l-.008-.025c-.073-.138-.243-.569-.577-1.245-2.82-5.443-15.778-26.866-48.262-29.3,0,0,8.521,23.892,42.051,29.684,2.132.373,4.375.658,6.712.889C1008.5,1784.14,1008.534,1784.156,1008.559,1784.15Z" transform="translate(-904.61 -1721.313)" fill="#a0c433"/>
          <path id="Trazado_652453" data-name="Trazado 652453" d="M1045.762,1781.287s.592,32.382-35.57,39.811C1010.192,1821.1,1011.495,1787.465,1045.762,1781.287Z" transform="translate(-904.61 -1722.428)" fill="#a0c433"/>
          <path id="Trazado_652454" data-name="Trazado 652454" d="M1045.775,1780s-.119-.446-.383-1.251c-1.792-5.03-10.524-23.955-42.452-29.375,0,0,6.713,24.68,38.1,29.97A47.686,47.686,0,0,0,1045.775,1780Z" transform="translate(-904.61 -1721.144)" fill="#a0c433"/>
          <path id="Trazado_652455" data-name="Trazado 652455" d="M1080.253,1774.8s-2.7,33.842-30.591,42.464C1049.662,1817.264,1045.387,1783.7,1080.253,1774.8Z" transform="translate(-904.61 -1722.167)" fill="#a0c433"/>
          <path id="Trazado_652456" data-name="Trazado 652456" d="M1080.216,1773.578l.026-.008a12.841,12.841,0,0,0-.359-1.257c-1.594-4.769-9.284-21.972-37.7-28.081,0,0,5.666,23.87,34.361,28.8C1077.737,1773.258,1078.939,1773.429,1080.216,1773.578Z" transform="translate(-904.61 -1720.937)" fill="#a0c433"/>
          <path id="Trazado_652457" data-name="Trazado 652457" d="M1117.759,1764.705s-5.216,28.651-29.149,38.555C1088.61,1803.26,1085.453,1775.619,1117.759,1764.705Z" transform="translate(-904.61 -1721.76)" fill="#a0c433"/>
          <path id="Trazado_652458" data-name="Trazado 652458" d="M1117.731,1763.729l.025-.008s-.195-.423-.6-1.158c-2.68-4.842-14.889-23.224-44.41-22.165,0,0,11.423,22.022,40.669,23.271C1114.808,1763.756,1116.258,1763.747,1117.731,1763.729Z" transform="translate(-904.61 -1720.781)" fill="#a0c433"/>
          <path id="Trazado_652459" data-name="Trazado 652459" d="M1152.684,1752.294s.11,32.537-27.485,38.929C1125.2,1791.223,1124.133,1764.264,1152.684,1752.294Z" transform="translate(-904.61 -1721.261)" fill="#a0c433"/>
          <path id="Trazado_652460" data-name="Trazado 652460" d="M1152.673,1751.469l-.008-.025c-.091-.106-.354-.482-.816-1.038-3.447-4.288-18.153-19.9-47.183-18.539,0,0,16.448,19.724,44.081,19.719,1.262.02,2.56-.025,3.867-.126C1152.647,1751.477,1152.647,1751.477,1152.673,1751.469Z" transform="translate(-904.61 -1720.436)" fill="#a0c433"/>
          <path id="Trazado_652461" data-name="Trazado 652461" d="M1183.128,1738.922s5.024,27.371-20.451,39.137C1162.677,1778.059,1157.215,1752.343,1183.128,1738.922Z" transform="translate(-904.61 -1720.723)" fill="#a0c433"/>
          <path id="Trazado_652462" data-name="Trazado 652462" d="M1183.1,1738.166l.025-.007a9.22,9.22,0,0,0-.527-1.18c-2.169-4.219-11.62-18.372-40.869-16.913,0,0,12.66,19.5,37.644,18.4C1180.587,1738.419,1181.835,1738.309,1183.1,1738.166Z" transform="translate(-904.61 -1719.961)" fill="#a0c433"/>
          <path id="Trazado_652463" data-name="Trazado 652463" d="M1117.731,1762.909l.025-.008c11.789-3.542,23.442-7.5,34.858-11.917.033.017.033.017.051-.016q15.444-5.879,30.436-12.8l.025-.007q8.07-3.73,15.994-7.735l-.885-.991q-7.757,3.914-15.636,7.546c-2.169-4.219-11.62-18.372-40.869-16.913,0,0,12.66,19.5,37.644,18.4q-13.593,6.165-27.525,11.467c-3.447-4.288-18.153-19.9-47.183-18.539,0,0,16.448,19.724,44.081,19.719-10.389,3.895-20.948,7.439-31.594,10.634-2.68-4.842-14.889-23.224-44.41-22.165,0,0,11.423,22.022,40.669,23.271q-16.626,4.832-33.529,8.487c-1.594-4.769-9.284-21.972-37.7-28.081,0,0,5.666,23.87,34.361,28.8q-15.463,3.274-31.154,5.518c-1.792-5.03-10.524-23.955-42.452-29.375,0,0,6.713,24.68,38.1,29.97-10.954,1.493-21.995,2.638-33.063,3.363-2.82-5.443-15.778-26.866-48.262-29.3,0,0,8.521,23.892,42.051,29.684q-14.754.85-29.609.791c-41.816-22.682-67.544-3.964-67.544-3.964l.033.016,47.164,4.72q11.346.5,22.64.515c11.384-.016,22.758-.4,34.028-1.19l.076-.023.008.025q18.714-1.284,37.165-3.962l.051-.015q17.382-2.528,34.441-6.218l.026-.008Q1099.231,1768.455,1117.731,1762.909Z" transform="translate(-904.61 -1719.961)" fill="#a0c433" style="mix-blend-mode: multiply;isolation: isolate"/>
        </g>
        <g id="Grupo_975408" data-name="Grupo 975408" transform="translate(-12.06 146.523)">
          <path id="Trazado_652464" data-name="Trazado 652464" d="M81.852,1863.858q-5.835-12.318-12.371-24.325c-1.422-2.55-2.855-5.124-4.312-7.687q-6.057-10.574-12.695-20.893-2.186-3.382-4.443-6.732-4.953-7.433-10.223-14.672l-1.111.741-1.086.73c.068.082.1.153.171.235q5.007,6.9,9.736,13.958c.657.948,1.3,1.93,1.935,2.888q8.053,12.182,15.26,24.8c.527.921,1.065,1.865,1.6,2.808,5.312,9.412,10.283,19.03,14.9,28.774.544,1.139,1.063,2.289,1.606,3.426q7.053,15.239,12.923,30.883c.4,1.031.773,2.048,1.153,3.091q5.3,14.322,9.56,28.988c.4,1.34.8,2.713,1.153,4.074,2.9,10.249,5.449,20.622,7.568,31.074.431,1.945.8,3.89,1.161,5.868q2.7,13.946,4.48,28.1c.8,6.451,1.472,12.9,1.991,19.387l1.326-.106,1.337-.081q-.783-9.649-1.984-19.251-1.581-12.794-3.943-25.444c-.549-2.99-1.133-5.994-1.741-8.985q-2.772-13.537-6.43-26.908c-.757-2.815-1.528-5.6-2.334-8.389q-3.537-12.1-7.76-23.99c-.942-2.649-1.9-5.322-2.886-7.951q-5.01-13.35-10.867-26.39C84.342,1869.2,83.091,1866.515,81.852,1863.858Z" transform="translate(-31.94 -1789.548)" fill="#a0c433"/>
          <path id="Trazado_652465" data-name="Trazado 652465" d="M121.494,2008.655c-.9-1.344-1.52-2.142-1.622-2.294l-.035-.012c-.361.776-.711,1.577-1.013,2.356-18.277,42.631,4.259,64.82,4.259,64.82l.013-.034C140.835,2042.309,126.618,2016.324,121.494,2008.655Z" transform="translate(-31.94 -1798.269)" fill="#a0c433"/>
          <path id="Trazado_652466" data-name="Trazado 652466" d="M114.415,1972.657s38.656,3.986,42.131,40C156.546,2012.655,123.172,2007.779,114.415,1972.657Z" transform="translate(-31.94 -1796.914)" fill="#a0c433"/>
          <path id="Trazado_652467" data-name="Trazado 652467" d="M114.423,1972.666l-.024.01c-.134.086-.559.3-1.216.7-5.279,3.359-25.825,18.35-24.327,49.591,0,0,23.648-11.072,25.488-43.723.121-2.077.139-4.249.088-6.5C114.421,1972.723,114.434,1972.688,114.423,1972.666Z" transform="translate(-31.94 -1796.914)" fill="#a0c433"/>
          <path id="Trazado_652468" data-name="Trazado 652468" d="M105.708,1936.252s33.407-4.571,45.562,28.951C151.27,1965.2,116.335,1968.124,105.708,1936.252Z" transform="translate(-31.94 -1795.441)" fill="#a0c433"/>
          <path id="Trazado_652469" data-name="Trazado 652469" d="M105.707,1936.248s-.447.169-1.245.519c-4.98,2.329-23.466,12.987-25.119,44.066,0,0,24.686-9.447,26.272-39.992A42.426,42.426,0,0,0,105.707,1936.248Z" transform="translate(-31.94 -1795.449)" fill="#a0c433"/>
          <path id="Trazado_652470" data-name="Trazado 652470" d="M95,1902.836s35.323-1.618,47.69,23.881C142.693,1926.717,108.523,1934.942,95,1902.836Z" transform="translate(-31.94 -1794.104)" fill="#a0c433"/>
          <path id="Trazado_652471" data-name="Trazado 652471" d="M95.017,1902.872l-.012-.024s-.457.147-1.256.5c-4.733,2.109-21.568,11.562-24.368,39.379,0,0,23.979-8.35,25.521-36.288C94.991,1905.272,95.02,1904.107,95.017,1902.872Z" transform="translate(-31.94 -1794.105)" fill="#a0c433"/>
          <path id="Trazado_652472" data-name="Trazado 652472" d="M80.346,1866.869s30.268,1.423,43.468,22.99C123.814,1889.859,95.626,1896.286,80.346,1866.869Z" transform="translate(-31.94 -1792.658)" fill="#a0c433"/>
          <path id="Trazado_652473" data-name="Trazado 652473" d="M80.353,1866.9l-.011-.022s-.413.237-1.122.716c-4.674,3.152-22.169,17.054-17.421,45.039a46.03,46.03,0,0,0,19.027-41.613C80.743,1869.675,80.553,1868.3,80.353,1866.9Z" transform="translate(-31.94 -1792.658)" fill="#a0c433"/>
          <path id="Trazado_652474" data-name="Trazado 652474" d="M63.709,1833.737s33.627-4.13,43.65,21.361C107.359,1855.1,79.618,1859.448,63.709,1833.737Z" transform="translate(-31.94 -1791.315)" fill="#a0c433"/>
          <path id="Trazado_652475" data-name="Trazado 652475" d="M63.71,1833.759l-.024.01c-.1.1-.455.4-.973.905-4.008,3.813-18.333,19.752-13.33,47.23,0,0,18.357-18.1,14.933-44.422a36.965,36.965,0,0,0-.608-3.667C63.722,1833.783,63.722,1833.783,63.71,1833.759Z" transform="translate(-31.94 -1791.327)" fill="#a0c433"/>
          <path id="Trazado_652476" data-name="Trazado 652476" d="M46.673,1805.133s27.677-8.172,42.994,14.635C89.667,1819.768,63.755,1828.152,46.673,1805.133Z" transform="translate(-31.94 -1790.118)" fill="#a0c433"/>
          <path id="Trazado_652477" data-name="Trazado 652477" d="M46.684,1805.217l-.011-.022a9.684,9.684,0,0,0-1.155.647c-4.094,2.589-17.557,13.34-12.43,41.017,0,0,18.6-14.472,14.365-38.129C47.255,1807.58,46.988,1806.405,46.684,1805.217Z" transform="translate(-31.94 -1790.177)" fill="#a0c433"/>
          <path id="Trazado_652478" data-name="Trazado 652478" d="M80.353,1863.816l-.011-.022c-5.12-10.791-10.652-21.4-16.634-31.725.014-.033.014-.033-.022-.046q-7.99-13.982-17-27.4l-.011-.022q-4.854-7.227-9.976-14.277l-.915.966q5.007,6.9,9.736,13.958c-4.094,2.588-17.557,13.34-12.43,41.017,0,0,18.6-14.471,14.365-38.129q8.053,12.182,15.26,24.8c-4.008,3.813-18.333,19.752-13.33,47.23,0,0,18.357-18.1,14.933-44.422,5.312,9.412,10.283,19.03,14.9,28.774-4.674,3.152-22.169,17.054-17.421,45.039a46.031,46.031,0,0,0,19.027-41.613q7.053,15.239,12.923,30.883c-4.733,2.109-21.568,11.562-24.368,39.379,0,0,23.979-8.35,25.521-36.288q5.3,14.322,9.56,28.988c-4.98,2.329-23.466,12.987-25.119,44.066,0,0,24.686-9.447,26.272-39.992,2.9,10.248,5.449,20.622,7.568,31.073-5.279,3.359-25.825,18.35-24.327,49.591,0,0,23.648-11.072,25.488-43.722q2.7,13.946,4.48,28.1c-18.277,42.631,4.259,64.82,4.259,64.82l.013-.034-.955-45.5q-.882-10.867-2.269-21.625c-1.425-10.841-3.233-21.625-5.44-32.261l-.033-.069.024-.01q-3.643-17.666-8.694-34.907l-.022-.046q-4.766-16.243-10.69-32.033l-.012-.024Q88.376,1880.749,80.353,1863.816Z" transform="translate(-31.94 -1789.579)" fill="#a0c433" style="mix-blend-mode: multiply;isolation: isolate"/>
        </g>
        <g id="Grupo_975409" data-name="Grupo 975409" transform="translate(1056.049 74.692)">
          <path id="Trazado_652479" data-name="Trazado 652479" d="M1172.466,1718.166c22.522-5.939,45.076-4.172,62.1,4.851,0,0,15.245,6.492,23.7,15.476s13.643,24.186,13.643,24.186c7.62,17.155,7.169,38.882-1.262,59.8a37.368,37.368,0,0,1-6.685,11.481c-3.121,3.46-7.633,6.19-11.8,6.281-6.386.138-9.48-5.761-9.74-11.617-.253-5.835,1.376-12.229.256-17.787-1.141-5.55-6.557-10.132-13.07-7.619-5.317,2.076-8.779,7.986-9.144,12.893-.386,4.914,1.558,9.113,3.184,13.307,2.348,6.111,4.027,13.155.9,20.4-3.116,7.213-12.922,13.759-19.109,11.007-4.146-1.851-5.071-6.893-4.89-11.643s1.133-9.837-.411-13.942a8.126,8.126,0,0,0-11.8-3.861,11.913,11.913,0,0,0-5.579,9c-.278,3.267.758,6.149,1.692,9.021,2.066,6.4,3.611,13.6.361,20.977-3.236,7.348-13.154,14.049-19.5,11.328-4.165-1.774-5.291-6.7-5.088-11.458.211-4.737,1.411-9.746.617-14.182s-4.428-8.282-9.621-7.3c-7.374,1.39-11.412,10.157-16.8,16.037a27.075,27.075,0,0,1-8.079,5.971,14.3,14.3,0,0,1-16.563-2.631c-4.36-4.225-6.052-10.984-1.965-17.041a26.848,26.848,0,0,1,7-7.09c6.662-4.571,16.141-7.529,18.327-14.444,1.573-4.858-2.068-8.726-6.581-9.937-4.535-1.2-9.831-.557-14.768-.827-4.945-.292-9.95-1.845-11.373-6.016-2.174-6.358,5.767-15.15,13.73-17.489s15.277-.142,21.706,2.48c2.871,1.174,5.759,2.458,9.179,2.509a12.689,12.689,0,0,0,9.883-4.4,7.526,7.526,0,0,0-2.808-11.665c-4.09-1.894-9.48-1.5-14.424-1.787-4.952-.312-10.069-1.71-11.558-5.857-2.226-6.177,5.55-14.888,13.349-17.148,7.807-2.239,14.921.076,21.024,2.927,4.193,1.974,8.349,4.241,13.486,4.4,5.128.135,11.614-2.579,14.279-7.443,3.272-5.961-.935-11.592-6.58-13.227-5.631-1.662-12.423-.731-18.473-1.572-6.042-.821-11.809-4.4-11.033-10.47.5-3.974,3.8-7.985,7.684-10.638A40.808,40.808,0,0,1,1172.466,1718.166Z" transform="translate(-1100.049 -1714.707)" fill="#a0c433"/>
          <path id="Trazado_652480" data-name="Trazado 652480" d="M1258.27,1739.49c8.458,8.984,13.643,24.186,13.643,24.186,7.62,17.155,7.169,38.882-1.262,59.8a37.368,37.368,0,0,1-6.685,11.481c-3.121,3.46-7.633,6.19-11.8,6.281-6.386.138-9.48-5.761-9.74-11.617-.253-5.835,1.376-12.229.256-17.788-1.141-5.55-6.557-10.132-13.07-7.619-5.317,2.076-8.779,7.986-9.144,12.893-.386,4.914,1.558,9.113,3.184,13.307,2.348,6.111,4.027,13.155.9,20.4-3.116,7.213-12.922,13.759-19.109,11.007-4.146-1.852-5.071-6.893-4.89-11.643s1.133-9.837-.411-13.942a8.126,8.126,0,0,0-11.8-3.861,11.913,11.913,0,0,0-5.579,9c-.278,3.267.758,6.149,1.692,9.021,2.066,6.4,3.611,13.6.361,20.977-3.236,7.348-13.154,14.049-19.5,11.328-4.165-1.775-5.291-6.7-5.088-11.458.211-4.737,1.411-9.747.617-14.182s-4.428-8.282-9.621-7.3c-7.374,1.39-11.412,10.157-16.8,16.037a27.075,27.075,0,0,1-8.079,5.971,14.3,14.3,0,0,1-16.563-2.631Z" transform="translate(-1100.049 -1715.704)" fill="#a0c433" style="mix-blend-mode: multiply;isolation: isolate"/>
          <path id="Trazado_652481" data-name="Trazado 652481" d="M1214.765,1776.059q-8.294,7.053-16.53,14.167l-13.8-4.622c-4.786-1.587-9.552-3.227-14.353-4.77l-14.385-4.685c-4.812-1.516-9.608-3.075-14.433-4.554,4.722,1.757,9.475,3.436,14.211,5.156l14.259,5.026c4.747,1.694,9.528,3.291,14.291,4.94l13.076,4.487q-7.716,6.648-15.435,13.294-9.068,7.944-18.158,15.861c-4.119-1.234-8.255-2.415-12.38-3.627-4.307-1.244-8.6-2.53-12.919-3.74l-12.949-3.644c-4.331-1.169-8.649-2.379-12.993-3.508,4.25,1.419,8.527,2.756,12.791,4.134l12.836,4c4.277,1.337,8.579,2.6,12.867,3.9,3.87,1.158,7.733,2.34,11.609,3.482q-6.777,5.924-13.525,11.879l-16.313,14.472c-5.394,4.87-10.829,9.7-16.186,14.606,5.629-4.62,11.181-9.322,16.774-13.981l16.649-14.115q6.834-5.81,13.624-11.667c1.2,7.434,2.349,14.877,3.627,22.3l2.024,11.8c.718,3.928,1.4,7.86,2.153,11.782-.469-3.963-1.018-7.914-1.527-11.871l-1.656-11.854c-1.076-7.734-2.3-15.447-3.444-23.17q9.152-7.879,18.3-15.759,7.657-6.7,15.333-13.39l3.2,12.781c1.177,4.666,2.315,9.342,3.543,14l3.63,13.978c1.257,4.648,2.47,9.307,3.767,13.946-1-4.706-2.088-9.393-3.13-14.091l-3.265-14.06c-1.072-4.69-2.232-9.361-3.354-14.041l-3.26-13.5q8.2-7.158,16.359-14.356l16.312-14.473q3.681-3.324,7.377-6.633l3.633,15.408c1.267,5.345,2.5,10.7,3.82,16.033l3.906,16.015c1.348,5.329,2.653,10.666,4.041,15.986-1.095-5.382-2.272-10.748-3.406-16.121l-3.541-16.094c-1.163-5.367-2.412-10.717-3.627-16.074l-3.665-16.067-.025-.11q3.849-3.461,7.672-6.95-4.011,3.291-7.98,6.625l-.1-.033-16.6-5.467c-5.54-1.808-11.06-3.668-16.616-5.432l-16.646-5.345c-5.566-1.736-11.116-3.515-16.7-5.214,5.478,1.979,10.985,3.877,16.476,5.82l16.523,5.688c5.5,1.914,11.037,3.731,16.554,5.6l15.941,5.356q-3.813,3.192-7.629,6.38Z" transform="translate(-1100.049 -1715.447)" fill="#8a6340"/>
        </g>
        <g id="Grupo_975411" data-name="Grupo 975411" transform="translate(52.664 92.929)">
          <path id="Trazado_652482" data-name="Trazado 652482" d="M291.048,1804.037s.02.017.058-.022c.192-.084,1.111-.546,2.685-1.228,11.873-5.082,60.064-22.973,100.553,2.4l-.173.065-.019.02c-3.808,1.548-60.769,24.12-100.866.16C292.515,1804.982,291.782,1804.528,291.048,1804.037Z" transform="translate(-96.664 -1736.049)" fill="#a0c433"/>
          <path id="Trazado_652483" data-name="Trazado 652483" d="M265.935,1816.215s52.371,5.11,67.108,51.677C333.043,1867.892,285.667,1856.42,265.935,1816.215Z" transform="translate(-96.664 -1737.027)" fill="#a0c433"/>
          <path id="Trazado_652484" data-name="Trazado 652484" d="M249.484,1783.3s.7-.543,2.023-1.478l.019-.019c9.3-6.557,48.623-31.722,85.713-17.214,0,0-43.774,29.065-84.246,19.63C251.82,1783.962,250.663,1783.644,249.484,1783.3Z" transform="translate(-96.664 -1734.772)" fill="#a0c433"/>
          <path id="Trazado_652485" data-name="Trazado 652485" d="M212.262,1810.2s41.8,6,51.528,56.045C263.79,1866.246,232.437,1861.176,212.262,1810.2Z" transform="translate(-96.664 -1736.785)" fill="#a0c433"/>
          <path id="Trazado_652486" data-name="Trazado 652486" d="M181.734,1761.826s.963-.745,2.723-1.984c10.242-7.245,47.606-30.916,79.052-16.449,0,0-30.092,29.458-78.75,19.112C183.746,1762.312,182.749,1762.059,181.734,1761.826Z" transform="translate(-96.664 -1733.913)" fill="#a0c433"/>
          <g id="Grupo_975410" data-name="Grupo 975410">
            <path id="Trazado_652487" data-name="Trazado 652487" d="M96.664,1735.848l.827-1.078.847-1.061a346.433,346.433,0,0,0,56.292,32.66q1.968.95,3.992,1.839a368.1,368.1,0,0,0,59.4,20.791c1.855.493,3.707.947,5.579,1.382a366.98,366.98,0,0,0,70.185,10.066c11.1.522,22.221.534,33.277-.018l.053,1.337.071,1.318c-11.272.543-22.6.541-33.906.011a365.947,365.947,0,0,1-48.038-5.434q-3.483-.592-6.852-1.3l-.019.02c-6.79-1.344-13.535-2.924-20.244-4.638l-.036.009-.005-.019c-9.749-2.494-19.409-5.328-28.9-8.6-2.08-.687-4.146-1.434-6.171-2.182a361.256,361.256,0,0,1-42.615-18.534c-1.837-.907-3.66-1.874-5.441-2.841A346.459,346.459,0,0,1,96.664,1735.848Z" transform="translate(-96.664 -1733.708)" fill="#8a6340"/>
            <path id="Trazado_652604" data-name="Trazado 652604" d="M0,0,2.7.052l.866,45.565-2.7-.052Z" transform="matrix(0.565, -0.825, 0.825, 0.565, 141.701, 62.672)" fill="#8a6340"/>
            <path id="Trazado_652488" data-name="Trazado 652488" d="M218.1,1793.551l-.367-1.322-.343-1.265.64-.164,33.48-8.235.019-.02,16.334-4.021.71,2.587-15.576,3.851-29.388,7.219-3.083.776Z" transform="translate(-96.664 -1735.511)" fill="#8a6340"/>
            <path id="Trazado_652605" data-name="Trazado 652605" d="M0,0,2.721.056,3.88,56.513l-2.721-.056Z" transform="matrix(0.706, -0.708, 0.708, 0.706, 86.324, 47.261)" fill="#8a6340"/>
            <path id="Trazado_652489" data-name="Trazado 652489" d="M154.6,1769.961l-.327-1.323-.3-1.267.66-.147,29.827-6.731,24.39-5.517.653,2.609-24.741,5.572-26.137,5.906-2.35.513Z" transform="translate(-96.664 -1734.563)" fill="#8a6340"/>
            <path id="Trazado_652606" data-name="Trazado 652606" d="M0,0,2.74.052,3.9,59.741l-2.74-.052Z" transform="matrix(0.822, -0.57, 0.57, 0.822, 38.198, 25.735)" fill="#8a6340"/>
          </g>
          <path id="Trazado_652490" data-name="Trazado 652490" d="M160.282,1794.762s38.726,8.073,43.3,58.635C203.586,1853.4,169.523,1842.144,160.282,1794.762Z" transform="translate(-96.664 -1736.164)" fill="#a0c433"/>
          <path id="Trazado_652491" data-name="Trazado 652491" d="M97.491,1734.77l.847-1.061a346.433,346.433,0,0,0,56.292,32.66l29.827-6.731c10.242-7.245,47.606-30.917,79.052-16.449,0,0-30.092,29.458-78.75,19.112l-26.137,5.906a368.1,368.1,0,0,0,59.4,20.791l33.48-8.235.019-.019c9.3-6.557,48.623-31.722,85.713-17.214,0,0-43.774,29.065-84.246,19.63l-29.387,7.219a366.98,366.98,0,0,0,70.185,10.066c11.873-5.082,60.064-22.973,100.553,2.4l-.173.065-.019.02-67.031-1.168a352.044,352.044,0,0,1-36.015-.091c-.038.04-.058.022-.058.022a367.2,367.2,0,0,1-48.409-5.756c-1.171-.187-2.343-.411-3.477-.676-6.275-1.2-12.463-2.566-18.64-4.108-.937-.237-1.873-.473-2.791-.729q-15.548-3.979-30.658-9.338c-1.039-.325-2.081-.689-3.084-1.054q-14.1-5.1-27.718-11.315c-.645-.307-1.33-.612-2-.938q-7.861-3.628-15.549-7.677c-.911-.464-1.82-.928-2.711-1.412l-.021-.018A348.3,348.3,0,0,1,97.491,1734.77Z" transform="translate(-96.664 -1733.708)" fill="#a0c433" style="mix-blend-mode: multiply;isolation: isolate"/>
        </g>
        <g id="Grupo_975412" data-name="Grupo 975412" transform="translate(-10.803 85.077)">
          <path id="Trazado_652492" data-name="Trazado 652492" d="M39.9,1833.365c-8.459-20.9-8.934-42.609-1.323-59.787,0,0,5.169-15.218,13.616-24.213s23.672-15.5,23.672-15.5c17-9.029,39.566-10.82,62.114-4.911a40.263,40.263,0,0,1,12.583,5.209c3.9,2.626,7.2,6.654,7.717,10.625.8,6.083-5,9.64-11.045,10.487-6.023.838-12.816-.063-18.462,1.574-5.636,1.657-9.831,7.3-6.56,13.257,2.7,4.865,9.175,7.565,14.3,7.412,5.133-.134,9.287-2.42,13.467-4.4,6.094-2.867,13.223-5.188,21.048-2.94,7.794,2.238,15.582,10.931,13.362,17.119-1.495,4.148-6.627,5.547-11.568,5.859s-10.311-.076-14.407,1.819a7.522,7.522,0,0,0-2.8,11.662,12.714,12.714,0,0,0,9.9,4.406c3.415-.069,6.3-1.352,9.176-2.538,6.418-2.627,13.728-4.839,21.705-2.49,7.946,2.338,15.906,11.122,13.735,17.457-1.413,4.159-6.4,5.737-11.355,6.03-4.931.283-10.246-.351-14.761.861s-8.132,5.074-6.581,9.932c2.194,6.9,11.695,9.857,18.34,14.4a26.553,26.553,0,0,1,7.015,7.1,12.9,12.9,0,0,1-1.033,16.082A14.341,14.341,0,0,1,184.3,1881.5a27.383,27.383,0,0,1-8.065-5.96c-5.419-5.894-9.454-14.641-16.843-16.022-5.2-1-8.834,2.868-9.627,7.3-.784,4.452.428,9.443.652,14.183.2,4.752-.9,9.689-5.072,11.474-6.367,2.726-16.291-3.956-19.531-11.32s-1.709-14.571.351-20.978c.923-2.861,1.959-5.75,1.662-9.02a11.893,11.893,0,0,0-5.576-8.985,8.129,8.129,0,0,0-11.8,3.874c-1.544,4.1-.58,9.2-.377,13.954.183,4.76-.742,9.789-4.889,11.634-6.175,2.757-16-3.776-19.138-10.991-3.12-7.224-1.448-14.254.884-20.371,1.617-4.2,3.542-8.406,3.177-13.325-.384-4.91-3.861-10.824-9.175-12.871-6.512-2.515-11.918,2.078-13.035,7.635-1.147,5.546.512,11.935.259,17.8-.233,5.853-3.347,11.725-9.723,11.6-4.169-.068-8.665-2.809-11.812-6.248A37.922,37.922,0,0,1,39.9,1833.365Z" transform="translate(-33.197 -1725.527)" fill="#a0c433"/>
          <path id="Trazado_652493" data-name="Trazado 652493" d="M52.2,1749.364c8.447-8.993,23.672-15.5,23.672-15.5,17-9.029,39.566-10.82,62.114-4.911a40.263,40.263,0,0,1,12.583,5.209c3.9,2.626,7.2,6.654,7.717,10.625.8,6.083-5,9.64-11.045,10.487-6.023.838-12.816-.063-18.462,1.574-5.636,1.657-9.831,7.3-6.56,13.257,2.7,4.865,9.175,7.565,14.3,7.412,5.133-.134,9.287-2.42,13.467-4.4,6.094-2.867,13.223-5.188,21.048-2.94,7.794,2.238,15.582,10.931,13.362,17.119-1.495,4.148-6.627,5.547-11.568,5.859s-10.311-.076-14.407,1.819a7.522,7.522,0,0,0-2.8,11.662,12.714,12.714,0,0,0,9.9,4.406c3.415-.069,6.3-1.352,9.176-2.538,6.418-2.627,13.728-4.839,21.705-2.49,7.946,2.338,15.906,11.122,13.735,17.457-1.413,4.159-6.4,5.737-11.355,6.03-4.931.283-10.246-.351-14.761.861s-8.132,5.074-6.581,9.932c2.194,6.9,11.695,9.857,18.34,14.4a26.553,26.553,0,0,1,7.015,7.1,12.9,12.9,0,0,1-1.033,16.082Z" transform="translate(-33.197 -1725.527)" fill="#a0c433" style="mix-blend-mode: multiply;isolation: isolate"/>
          <path id="Trazado_652494" data-name="Trazado 652494" d="M94.814,1787.93q8.158,7.2,16.374,14.333l-3.38,13.649c-1.156,4.732-2.367,9.45-3.476,14.191l-3.384,14.214c-1.079,4.749-2.205,9.487-3.245,14.245,1.34-4.688,2.593-9.4,3.892-14.1l3.751-14.128c1.27-4.7,2.437-9.433,3.659-14.149l3.312-12.943q7.682,6.687,15.358,13.377,9.159,7.845,18.3,15.714c-.859,4.059-1.66,8.128-2.493,12.191-.849,4.239-1.743,8.47-2.556,12.716l-2.452,12.736c-.77,4.255-1.583,8.5-2.308,12.764,1.036-4.2,1.985-8.424,2.976-12.636l2.831-12.663c.949-4.22,1.816-8.456,2.728-12.683.8-3.813,1.634-7.623,2.421-11.44q6.834,5.865,13.7,11.7l16.667,14.094c5.6,4.652,11.158,9.347,16.793,13.961-5.364-4.9-10.805-9.723-16.206-14.586l-16.332-14.451q-6.718-5.932-13.484-11.815c7.582-1.91,15.179-3.764,22.742-5.743l12.024-3.139c4-1.087,8-2.136,11.992-3.261-4.06.854-8.1,1.782-12.149,2.672l-12.116,2.795c-7.906,1.818-15.775,3.772-23.663,5.657q-9.1-7.931-18.2-15.861-7.733-6.625-15.446-13.269l12.92-4.363c4.717-1.6,9.446-3.165,14.145-4.814L154.613,1788c4.69-1.676,9.394-3.31,14.07-5.023-4.775,1.438-9.522,2.954-14.284,4.429l-14.239,4.555c-4.752,1.5-9.474,3.088-14.209,4.638l-13.658,4.493q-8.257-7.094-16.553-14.15l-16.667-14.094q-3.822-3.174-7.63-6.364l15.6-5.045c5.411-1.756,10.833-3.482,16.227-5.286l16.2-5.368c5.385-1.831,10.784-3.623,16.156-5.493-5.467,1.6-10.907,3.269-16.361,4.9l-16.318,5.027c-5.444,1.659-10.861,3.4-16.289,5.106l-16.277,5.142-.112.036q-3.981-3.321-7.988-6.615,3.82,3.494,7.683,6.942l-.025.1-3.968,16.41c-1.307,5.474-2.671,10.935-3.931,16.419L58.2,1815.2c-1.23,5.492-2.506,10.972-3.7,16.473,1.492-5.432,2.9-10.884,4.348-16.325l4.2-16.357c1.42-5.448,2.738-10.919,4.112-16.378l3.921-15.768q3.7,3.314,7.393,6.632Z" transform="translate(-33.197 -1726.322)" fill="#8a6340"/>
        </g>
        <g id="Grupo_975414" data-name="Grupo 975414" transform="translate(928.884 1327.492)">
          <path id="Trazado_652495" data-name="Trazado 652495" d="M1056.242,3092.482s-.007-.024-.058-.01c-.2-.026-1.193-.1-2.834-.314-12.346-1.667-61-10.657-80.466-51.056l.176.031.025-.008c3.916.6,62.186,10.069,82.079,49.127C1055.551,3091,1055.906,3091.723,1056.242,3092.482Z" transform="translate(-972.884 -3020.861)" fill="#a0c433"/>
          <path id="Trazado_652496" data-name="Trazado 652496" d="M1082.595,3094.792s-39.864-29.728-27.157-74.78C1055.438,3020.012,1087.868,3052.473,1082.595,3094.792Z" transform="translate(-972.884 -3020.012)" fill="#a0c433"/>
          <path id="Trazado_652497" data-name="Trazado 652497" d="M1079.716,3131.1s-.856.1-2.428.214l-.026.007c-11.033.79-56.341,2.042-78.8-27.864,0,0,50.992-2.251,78.89,25.183C1078.166,3129.425,1078.937,3130.249,1079.716,3131.1Z" transform="translate(-972.884 -3023.367)" fill="#a0c433"/>
          <path id="Trazado_652498" data-name="Trazado 652498" d="M1123.165,3127.16s-30.8-25.289-12.175-70.722C1110.99,3056.438,1133.788,3075.871,1123.165,3127.16Z" transform="translate(-972.884 -3021.477)" fill="#a0c433"/>
          <path id="Trazado_652499" data-name="Trazado 652499" d="M1123.858,3183.1s-1.177.135-3.265.283c-12.167.889-55.088,1.884-72.98-25.234,0,0,40.078-9.251,74.147,22.922C1122.48,3181.722,1123.157,3182.414,1123.858,3183.1Z" transform="translate(-972.884 -3025.519)" fill="#a0c433"/>
          <g id="Grupo_975413" data-name="Grupo 975413" transform="translate(53.406 52.843)">
            <path id="Trazado_652500" data-name="Trazado 652500" d="M1179.348,3242.3l-1.244.472-1.25.449a311.415,311.415,0,0,0-28.446-54.039q-1.1-1.732-2.27-3.444a331.968,331.968,0,0,0-37.269-45.911c-1.246-1.306-2.511-2.58-3.8-3.848a335.4,335.4,0,0,0-51.717-42.457c-8.742-5.843-17.78-11.285-27.06-16.237l.666-1.112.64-1.106q14.177,7.6,27.568,16.55a335.179,335.179,0,0,1,36.169,27.876q2.517,2.182,4.881,4.4l.025-.007c4.807,4.408,9.453,8.987,14,13.657l.034.01-.006.018c6.6,6.788,12.952,13.809,18.938,21.1,1.327,1.575,2.61,3.19,3.861,4.787a325.039,325.039,0,0,1,24.816,35.877c1.012,1.634,1.981,3.31,2.916,4.966A311.335,311.335,0,0,1,1179.348,3242.3Z" transform="translate(-1026.29 -3075.07)" fill="#8a6340"/>
            <path id="Trazado_652607" data-name="Trazado 652607" d="M0,0,2.645.039,3.3,42.809.652,42.77Z" transform="matrix(0.917, -0.399, 0.399, 0.917, 49.842, 10.895)" fill="#8a6340"/>
            <path id="Trazado_652501" data-name="Trazado 652501" d="M1110.271,3139.568l-.4,1.253-.392,1.2-.607-.179-31.581-9.656-.026.007-15.409-4.708.795-2.449,14.7,4.476,27.716,8.482,2.918.875Z" transform="translate(-1026.29 -3077.08)" fill="#8a6340"/>
            <path id="Trazado_652617" data-name="Trazado 652617" d="M0,0,2.658.024l.488,53.141L.488,53.141Z" transform="translate(91.765 37.307) rotate(-13.021)" fill="#8a6340"/>
            <path id="Trazado_652502" data-name="Trazado 652502" d="M1149.882,3190.961l-.435,1.235-.425,1.179-.614-.2-27.815-9.094-22.751-7.426.853-2.439,23.066,7.552,24.378,7.962,2.183.731Z" transform="translate(-1026.29 -3079.058)" fill="#8a6340"/>
            <path id="Trazado_652621" data-name="Trazado 652621" d="M0,0,2.663.005l.111,56.479L.111,56.479Z" transform="matrix(0.999, -0.047, 0.047, 0.999, 129.103, 73.104)" fill="#8a6340"/>
          </g>
          <path id="Trazado_652503" data-name="Trazado 652503" d="M1157.564,3166.238s-27.2-25.474-4.117-68.811C1153.447,3097.427,1175.17,3123.209,1157.564,3166.238Z" transform="translate(-972.884 -3023.126)" fill="#a0c433"/>
          <path id="Trazado_652504" data-name="Trazado 652504" d="M1178.1,3241.407l-1.25.449a311.415,311.415,0,0,0-28.446-54.039l-27.815-9.094c-12.167.889-55.088,1.884-72.98-25.234,0,0,40.078-9.251,74.147,22.922l24.378,7.962a331.968,331.968,0,0,0-37.269-45.911l-31.581-9.656-.026.007c-11.033.79-56.341,2.042-78.8-27.864,0,0,50.992-2.251,78.89,25.183l27.716,8.482a335.4,335.4,0,0,0-51.717-42.457c-12.346-1.667-61-10.657-80.466-51.056l.176.031.025-.008,53.871,33.683a326.489,326.489,0,0,1,29.228,17.663c.051-.014.058.01.058.01a336.374,336.374,0,0,1,36.3,28.319c.852.724,1.686,1.479,2.467,2.247,4.468,4.038,8.771,8.172,12.975,12.443.636.649,1.272,1.3,1.883,1.955q10.528,10.827,19.971,22.562c.672.772,1.327,1.576,1.949,2.363q8.762,11.031,16.533,22.733c.361.565.756,1.147,1.126,1.737q4.469,6.789,8.571,13.834c.494.822.987,1.643,1.455,2.471l.007.025A312.884,312.884,0,0,1,1178.1,3241.407Z" transform="translate(-972.884 -3020.861)" fill="#a0c433" style="mix-blend-mode: multiply;isolation: isolate"/>
        </g>
        <g id="Grupo_975416" data-name="Grupo 975416" transform="translate(-2.154 1255.743)">
          <path id="Trazado_652505" data-name="Trazado 652505" d="M100.73,3040.065s.015-.02-.027-.051c-.1-.17-.636-.973-1.447-2.36-6.052-10.461-27.893-53.151-6.024-92.4l.08.153.021.015c1.86,3.362,29.094,53.7,8.6,92.472C101.548,3038.641,101.157,3039.351,100.73,3040.065Z" transform="translate(-41.846 -2945.256)" fill="#a0c433"/>
          <path id="Trazado_652506" data-name="Trazado 652506" d="M113.98,3064.294s.7-48.448,45.823-65.857C159.8,2998.437,152.348,3042.836,113.98,3064.294Z" transform="translate(-41.846 -2947.395)" fill="#a0c433"/>
          <path id="Trazado_652507" data-name="Trazado 652507" d="M84.843,3082.136s-.6-.6-1.64-1.732l-.021-.015c-7.305-7.976-35.644-41.929-24.307-77.151,0,0,32.593,37.7,26.59,75.6C85.3,3079.94,85.081,3081.027,84.843,3082.136Z" transform="translate(-41.846 -2947.589)" fill="#a0c433"/>
          <path id="Trazado_652508" data-name="Trazado 652508" d="M112.726,3116.657s2.475-38.826,51.474-51.937C164.2,3064.72,161.777,3093.892,112.726,3116.657Z" transform="translate(-41.846 -2950.062)" fill="#a0c433"/>
          <path id="Trazado_652509" data-name="Trazado 652509" d="M69.988,3148.887s-.822-.821-2.2-2.331c-8.069-8.784-34.757-41.062-22.987-71.106,0,0,31.84,25.126,25.613,70.607C70.3,3147,70.135,3147.937,69.988,3148.887Z" transform="translate(-41.846 -2950.493)" fill="#a0c433"/>
          <g id="Grupo_975415" data-name="Grupo 975415" transform="translate(7.337 61.552)">
            <path id="Trazado_652510" data-name="Trazado 652510" d="M51.452,3226.389l-1.142-.667-1.127-.688a310.87,310.87,0,0,0,27.8-54.348q.781-1.885,1.5-3.814A319.319,319.319,0,0,0,94.2,3110.662c.335-1.742.633-3.479.909-5.231a312.242,312.242,0,0,0,4.146-65.2,292.083,292.083,0,0,0-2.8-30.51l1.326-.16,1.305-.176a302.983,302.983,0,0,1,2.848,31.088,310.746,310.746,0,0,1-1.389,44.5q-.3,3.242-.721,6.391l.022.015c-.771,6.338-1.778,12.656-2.924,18.95l.012.032-.018.007c-1.667,9.148-3.68,18.242-6.138,27.221-.51,1.966-1.08,3.921-1.655,5.842a316.962,316.962,0,0,1-14.882,40.624c-.75,1.761-1.559,3.513-2.373,5.227A312.883,312.883,0,0,1,51.452,3226.389Z" transform="translate(-49.183 -3009.388)" fill="#8a6340"/>
            <path id="Trazado_652608" data-name="Trazado 652608" d="M0,0,42.915.762,42.961,3.4.046,2.636Z" transform="translate(48.345 80.753) rotate(-60.586)" fill="#8a6340"/>
            <path id="Trazado_652511" data-name="Trazado 652511" d="M96.933,3112.7l-1.285.447-1.23.421L94.2,3113l-11-30.009-.021-.016-5.369-14.64,2.515-.867,5.137,13.959,9.645,26.342,1.031,2.762Z" transform="translate(-49.183 -3011.724)" fill="#8a6340"/>
            <path id="Trazado_652609" data-name="Trazado 652609" d="M0,0,53.944,1.094,54,3.713.053,2.619Z" transform="translate(37.918 132.434) rotate(-50.071)" fill="#8a6340"/>
            <path id="Trazado_652512" data-name="Trazado 652512" d="M79.708,3175.167l-1.289.411-1.236.385-.2-.593-9.2-26.786-7.532-21.9,2.542-.817,7.617,22.219,8.067,23.471.708,2.112Z" transform="translate(-49.183 -3014.073)" fill="#8a6340"/>
            <path id="Trazado_652610" data-name="Trazado 652610" d="M0,0,57.874,1.163l.053,2.6L.053,2.6Z" transform="matrix(0.769, -0.639, 0.639, 0.769, 20.857, 178.036)" fill="#8a6340"/>
          </g>
          <path id="Trazado_652513" data-name="Trazado 652513" d="M102.327,3167.914s4.794-36.185,54.74-44.612C157.067,3123.3,148.716,3155.476,102.327,3167.914Z" transform="translate(-41.846 -2952.418)" fill="#a0c433"/>
          <path id="Trazado_652514" data-name="Trazado 652514" d="M50.31,3223.142l-1.127-.688a310.879,310.879,0,0,0,27.8-54.348l-9.2-26.786c-8.069-8.784-34.757-41.062-22.987-71.106,0,0,31.84,25.126,25.613,70.607l8.067,23.471A319.321,319.321,0,0,0,94.2,3108.082l-11-30.01-.021-.015c-7.305-7.976-35.644-41.929-24.307-77.151,0,0,32.593,37.7,26.59,75.6l9.645,26.342a312.242,312.242,0,0,0,4.146-65.2c-6.052-10.461-27.893-53.151-6.024-92.4l.08.153.021.015,4.447,61.56a298.991,298.991,0,0,1,2.923,33.031c.042.031.027.051.027.051a312.152,312.152,0,0,1-1.678,44.869c-.089,1.089-.215,2.183-.382,3.244-.666,5.855-1.512,11.643-2.529,17.435-.157.879-.314,1.758-.493,2.62q-2.658,14.589-6.729,28.892c-.236.98-.511,1.966-.791,2.917q-3.893,13.357-8.943,26.361c-.252.618-.5,1.271-.766,1.91q-2.954,7.512-6.34,14.9c-.386.875-.772,1.747-1.179,2.6l-.016.021A314.7,314.7,0,0,1,50.31,3223.142Z" transform="translate(-41.846 -2945.256)" fill="#a0c433" style="mix-blend-mode: multiply;isolation: isolate"/>
        </g>
        <g id="Grupo_975418" data-name="Grupo 975418" transform="translate(1105.216 142.875)">
          <path id="Trazado_652515" data-name="Trazado 652515" d="M1215.147,1984.767s-.017.021.027.054c.1.177.651,1.022,1.479,2.477,6.179,10.977,28.415,55.743,5.118,96.412l-.081-.16-.022-.016c-1.9-3.527-29.66-56.331-7.8-96.52C1214.276,1986.242,1214.692,1985.507,1215.147,1984.767Z" transform="translate(-1149.216 -1793.752)" fill="#a0c433"/>
          <path id="Trazado_652516" data-name="Trazado 652516" d="M1201.608,1960.61s-1.343,50.506-48.607,68.136C1153,2028.746,1161.333,1982.538,1201.608,1960.61Z" transform="translate(-1149.216 -1792.781)" fill="#a0c433"/>
          <path id="Trazado_652517" data-name="Trazado 652517" d="M1232.211,1941.788s.617.627,1.689,1.824l.022.016c7.515,8.4,36.637,44.13,24.373,80.725,0,0-33.51-39.691-26.774-79.138C1231.7,1944.072,1231.949,1942.942,1232.211,1941.788Z" transform="translate(-1149.216 -1792.024)" fill="#a0c433"/>
          <path id="Trazado_652518" data-name="Trazado 652518" d="M1203.541,1906.636s-3.068,40.455-54.325,53.556C1149.216,1960.192,1152.11,1929.8,1203.541,1906.636Z" transform="translate(-1149.216 -1790.61)" fill="#a0c433"/>
          <path id="Trazado_652519" data-name="Trazado 652519" d="M1248.5,1872.606s.847.865,2.268,2.456c8.3,9.252,35.724,43.218,23.074,74.407,0,0-32.884-26.568-25.818-73.918C1248.152,1874.568,1248.339,1873.594,1248.5,1872.606Z" transform="translate(-1149.216 -1789.241)" fill="#a0c433"/>
          <g id="Grupo_975417" data-name="Grupo 975417" transform="translate(41.792)">
            <path id="Trazado_652520" data-name="Trazado 652520" d="M1268.839,1785.747l1.183.709,1.166.729a324.612,324.612,0,0,0-29.668,56.346q-.838,1.955-1.609,3.959a333.255,333.255,0,0,0-17.1,58.426c-.372,1.813-.7,3.62-1.014,5.443a325.6,325.6,0,0,0-5.143,67.932,304.244,304.244,0,0,0,2.538,31.845l-1.385.152-1.363.168a315.576,315.576,0,0,1-2.578-32.449,324.026,324.026,0,0,1,2.008-46.384q.351-3.378.832-6.656l-.022-.016c.882-6.6,2.013-13.175,3.286-19.725l-.012-.033.02-.007c1.852-9.519,4.066-18.978,6.741-28.312.557-2.042,1.176-4.076,1.8-6.071a330.914,330.914,0,0,1,16.028-42.186c.8-1.827,1.67-3.644,2.54-5.423A326.637,326.637,0,0,1,1268.839,1785.747Z" transform="translate(-1191.008 -1785.747)" fill="#8a6340"/>
            <path id="Trazado_652611" data-name="Trazado 652611" d="M0,0,44.768.805l.048,2.748L.048,2.748Z" transform="matrix(0.501, -0.865, 0.865, 0.501, 2.538, 178.53)" fill="#8a6340"/>
            <path id="Trazado_652521" data-name="Trazado 652521" d="M1219.957,1911.2l1.345-.451,1.288-.424.219.6,11.09,31.417.022.016,5.414,15.327-2.634.875-5.181-14.615-9.725-27.578-1.04-2.892Z" transform="translate(-1191.008 -1790.758)" fill="#8a6340"/>
            <path id="Trazado_652612" data-name="Trazado 652612" d="M0,0,56.277,1.145l.055,2.73L.055,2.73Z" transform="translate(0 128.017) rotate(-49.406)" fill="#8a6340"/>
            <path id="Trazado_652522" data-name="Trazado 652522" d="M1238.674,1846.108l1.35-.413,1.294-.387.2.62,9.251,28.036,7.578,22.924-2.661.822-7.662-23.255-8.115-24.567-.711-2.211Z" transform="translate(-1191.008 -1788.143)" fill="#8a6340"/>
            <path id="Trazado_652613" data-name="Trazado 652613" d="M0,0,60.376,1.208l.055,2.709L.055,2.709Z" transform="translate(8.572 75.455) rotate(-39.066)" fill="#8a6340"/>
          </g>
          <path id="Trazado_652523" data-name="Trazado 652523" d="M1215,1853.635s-5.455,37.674-57.638,45.883C1157.362,1899.518,1166.474,1866.068,1215,1853.635Z" transform="translate(-1149.216 -1788.478)" fill="#a0c433"/>
          <path id="Trazado_652524" data-name="Trazado 652524" d="M1270.022,1786.486l1.166.729a324.609,324.609,0,0,0-29.668,56.347l9.251,28.036c8.3,9.252,35.724,43.218,23.074,74.407,0,0-32.884-26.567-25.818-73.918l-8.116-24.567a333.251,333.251,0,0,0-17.1,58.426l11.09,31.418.022.016c7.515,8.4,36.637,44.13,24.373,80.725,0,0-33.51-39.691-26.774-79.138l-9.725-27.578a325.593,325.593,0,0,0-5.143,67.932c6.179,10.977,28.415,55.743,5.118,96.412l-.081-.16-.022-.016-3.862-64.239a311.5,311.5,0,0,1-2.632-34.474c-.044-.033-.027-.054-.027-.054a325.434,325.434,0,0,1,2.314-46.764c.106-1.134.251-2.274.439-3.378.767-6.1,1.723-12.122,2.856-18.15.175-.914.35-1.828.546-2.727q2.956-15.179,7.38-30.047c.259-1.019.558-2.043.862-3.032q4.227-13.883,9.656-27.382c.271-.641.536-1.32.823-1.982q3.174-7.8,6.8-15.463c.414-.907.827-1.812,1.262-2.7l.017-.022A328.469,328.469,0,0,1,1270.022,1786.486Z" transform="translate(-1149.216 -1785.776)" fill="#a0c433" style="mix-blend-mode: multiply;isolation: isolate"/>
        </g>
        <g id="Grupo_975420" data-name="Grupo 975420" transform="translate(1138.829 1263.91)">
          <path id="Trazado_652525" data-name="Trazado 652525" d="M1233.713,3002.772s-7.937-44.219,12.126-38.281C1267.54,2970.913,1233.713,3002.772,1233.713,3002.772Z" transform="translate(-1182.829 -2954.175)" fill="#a0c433"/>
          <path id="Trazado_652526" data-name="Trazado 652526" d="M1211.839,3023.441c.488,1.46.751,2.32.751,2.32s-1.382-.448-3.582-1.267c-9.564-3.665-34.327-14.731-23.487-27.677C1196.959,2983.122,1208.773,3014.453,1211.839,3023.441Z" transform="translate(-1182.829 -2955.359)" fill="#a0c433"/>
          <path id="Trazado_652527" data-name="Trazado 652527" d="M1220.4,2995.111c-.46,1.65-.781,2.685-.86,2.927a.025.025,0,0,0-.016.033s-.67-.964-1.76-2.6l-.009-.023c-5.983-9.155-24.163-39.359-5.2-41.579.084,0,.159-.028.244-.029C1231.3,2951.97,1223.308,2984.94,1220.4,2995.111Z" transform="translate(-1182.829 -2953.765)" fill="#a0c433"/>
          <path id="Trazado_652528" data-name="Trazado 652528" d="M1243.353,3036.061s-7.568-44.98,13.719-36.637C1279.2,3008.094,1243.353,3036.061,1243.353,3036.061Z" transform="translate(-1182.829 -2955.56)" fill="#a0c433"/>
          <path id="Trazado_652529" data-name="Trazado 652529" d="M1227.435,3069.005s-1.2-.1-3.15-.412c-10.112-1.415-40.624-7.2-28.772-23.42,12.235-16.791,27.285,13.51,31.026,21.806C1227.123,3068.244,1227.435,3069.005,1227.435,3069.005Z" transform="translate(-1182.829 -2957.241)" fill="#a0c433"/>
          <path id="Trazado_652530" data-name="Trazado 652530" d="M1264.867,3084.711s-20.772-46.726,4.905-44.621S1264.867,3084.711,1264.867,3084.711Z" transform="translate(-1182.829 -2957.235)" fill="#a0c433"/>
          <g id="Grupo_975419" data-name="Grupo 975419" transform="translate(18.215 29.523)">
            <path id="Trazado_652531" data-name="Trazado 652531" d="M1283.754,3127.625l-1.017.836-.992.829c-.242-.271-.493-.563-.734-.832q-4.6-5.058-8.874-10.387c-1.16-1.366-2.253-2.782-3.346-4.2a256.237,256.237,0,0,1-22.357-33.981c-.833-1.477-1.651-2.988-2.443-4.508a253.767,253.767,0,0,1-15.107-34.706q-.837-2.358-1.6-4.742-3.522-10.595-6.05-21.478c-1.363-5.855-2.532-11.8-3.475-17.748l-.009-.023c-.628-3.964-1.172-7.929-1.6-11.88l1.3-.149.01.025,1.326-.158c.417,3.928.961,7.892,1.606,11.823.925,5.9,2.084,11.74,3.428,17.547.782,3.314,1.623,6.634,2.53,9.9.449,1.583.9,3.166,1.336,4.725a255.641,255.641,0,0,0,8.979,25.084c.509,1.291,1.068,2.565,1.628,3.838a255.143,255.143,0,0,0,23.351,42.187c.758,1.124,1.516,2.248,2.315,3.33A253.307,253.307,0,0,0,1283.754,3127.625Z" transform="translate(-1201.043 -2984.526)" fill="#a0c433"/>
            <path id="Trazado_652618" data-name="Trazado 652618" d="M0,0,43.38.477l.028,2.654L.028,2.654Z" transform="matrix(0.274, -0.962, 0.962, 0.274, 23.999, 43.658)" fill="#a0c433"/>
            <path id="Trazado_652532" data-name="Trazado 652532" d="M1230.856,3040.217l-.862.948-.9.989-.206-.174-19.876-16.542-7.964-6.656,1.742-1.927,9.054,7.53,15.447,12.852,1.9,1.6Z" transform="translate(-1201.043 -2985.826)" fill="#a0c433"/>
            <path id="Trazado_652619" data-name="Trazado 652619" d="M0,0,31.859.347,31.887,3,.028,2.655Z" transform="matrix(0.271, -0.963, 0.963, 0.271, 34.551, 72.738)" fill="#a0c433"/>
            <path id="Trazado_652533" data-name="Trazado 652533" d="M1248.012,3080.934l-.708,1.057-.725,1.09-.145-.086-22.149-13.537-9.255-5.643,1.409-2.138,10.1,6.166,17.452,10.645,2.151,1.3Z" transform="translate(-1201.043 -2987.629)" fill="#a0c433"/>
            <path id="Trazado_652620" data-name="Trazado 652620" d="M0,0,41.971.183l.011,2.662L.011,2.662Z" transform="translate(60.209 118.679) rotate(-83.985)" fill="#a0c433"/>
            <path id="Trazado_652534" data-name="Trazado 652534" d="M1273.459,3120.589l-.538,1.135-.546,1.19-.238-.108-26.679-11.278-16.315-6.91,1.075-2.35,15.507,6.563,23.066,9.777,2.482,1.047Z" transform="translate(-1201.043 -2989.262)" fill="#a0c433"/>
          </g>
          <path id="Trazado_652535" data-name="Trazado 652535" d="M1248.291,3110.838s-1.059.119-2.834.211c-9.913.636-42.423,1.481-36.9-14.8,5.384-15.9,29.25,4.669,37.164,12.1C1247.334,3109.864,1248.291,3110.838,1248.291,3110.838Z" transform="translate(-1182.829 -2959.26)" fill="#a0c433"/>
          <path id="Trazado_652536" data-name="Trazado 652536" d="M1282.737,3127.226l-1.726,0q-4.6-5.058-8.874-10.387l-26.68-11.278c-9.913.636-42.423,1.481-36.9-14.8,5.384-15.9,29.25,4.669,37.164,12.1l23.066,9.777a256.237,256.237,0,0,1-22.357-33.981l-22.149-13.538c-10.112-1.415-40.624-7.2-28.772-23.42,12.235-16.792,27.285,13.51,31.026,21.806l17.452,10.644a253.767,253.767,0,0,1-15.107-34.706l-19.876-16.542c-9.564-3.665-34.327-14.731-23.487-27.677,11.438-13.7,23.252,17.636,26.318,26.624l15.447,12.852q-3.522-10.595-6.05-21.478c-1.363-5.855-2.532-11.8-3.475-17.748l-.009-.023c-5.983-9.155-24.163-39.359-5.2-41.579.084,0,.159-.028.244-.029l4.658,29.579.01.025q.809,7.293,2.072,14.593c.836,4.977,1.833,9.927,3.006,14.9q1.412,6.068,3.108,11.986c.211.794.449,1.583.685,2.369.9,3.028,1.854,6.039,2.848,9.01.261.777.523,1.557.81,2.326,1.821,5.344,3.869,10.611,6.074,15.771.251.673.552,1.33.853,1.986q4.2,9.794,9.221,19.06c.362.745.774,1.471,1.162,2.206a256.949,256.949,0,0,0,14.1,22.756c.384.575.767,1.148,1.192,1.681,2.75,3.968,5.658,7.828,8.674,11.6.521.716,1.083,1.391,1.647,2.067Q1277.663,3121.654,1282.737,3127.226Z" transform="translate(-1182.829 -2953.769)" fill="#a0c433" style="mix-blend-mode: multiply;isolation: isolate"/>
        </g>
        <g id="Grupo_975422" data-name="Grupo 975422" transform="translate(75.889 1348.295)">
          <path id="Trazado_652537" data-name="Trazado 652537" d="M201.951,3094.94s22.809-39.167,34.514-22.438C249.127,3090.595,201.951,3094.94,201.951,3094.94Z" transform="translate(-119.889 -3042.76)" fill="#a0c433"/>
          <path id="Trazado_652538" data-name="Trazado 652538" d="M172.176,3096.532c-.578,1.429-.936,2.257-.936,2.257s-.782-1.183-1.955-3.148c-5.033-8.623-17.031-32.175-.119-35.695C187.032,3056.2,175.683,3087.693,172.176,3096.532Z" transform="translate(-119.889 -3042.409)" fill="#a0c433"/>
          <path id="Trazado_652539" data-name="Trazado 652539" d="M196.351,3080.192c-1.439,1-2.367,1.614-2.588,1.755a.027.027,0,0,0-.034.017s.111-1.154.335-3.083l.009-.023c1.348-10.729,7.01-45.185,23.208-35.462.066.049.142.074.208.124C233.1,3053.234,205.28,3074.042,196.351,3080.192Z" transform="translate(-119.889 -3041.687)" fill="#a0c433"/>
          <path id="Trazado_652540" data-name="Trazado 652540" d="M188.536,3126.89s23.6-39.536,34.676-20.2C234.729,3126.789,188.536,3126.89,188.536,3126.89Z" transform="translate(-119.889 -3044.088)" fill="#a0c433"/>
          <path id="Trazado_652541" data-name="Trazado 652541" d="M155.672,3141.657s-.863-.8-2.179-2.221c-6.934-7.205-26.864-30.121-7.018-35.578,20.516-5.667,12.357,26.975,9.829,35.682C155.929,3140.877,155.672,3141.657,155.672,3141.657Z" transform="translate(-119.889 -3044.162)" fill="#a0c433"/>
          <path id="Trazado_652542" data-name="Trazado 652542" d="M174.475,3178.059s14.474-48.865,33.056-31.729S174.475,3178.059,174.475,3178.059Z" transform="translate(-119.889 -3045.75)" fill="#a0c433"/>
          <g id="Grupo_975421" data-name="Grupo 975421" transform="translate(15.407 26.97)">
            <path id="Trazado_652543" data-name="Trazado 652543" d="M159.569,3221.625l-1.338.036-1.315.046c-.011-.357-.014-.736-.025-1.091q-.26-6.707-.091-13.432c-.006-1.762.072-3.522.15-5.282a247.58,247.58,0,0,1,4.889-39.913c.321-1.653.676-3.32,1.056-4.979a251.64,251.64,0,0,1,11-36.1q.9-2.338,1.867-4.651,4.2-10.362,9.372-20.349c2.778-5.375,5.767-10.7,8.93-15.9l.009-.023c2.109-3.46,4.285-6.872,6.543-10.2l1.109.67-.009.025,1.135.679c-2.25,3.3-4.425,6.715-6.5,10.16-3.146,5.143-6.074,10.385-8.836,15.711-1.563,3.047-3.085,6.137-4.523,9.226-.689,1.5-1.378,3-2.058,4.48a255.91,255.91,0,0,0-9.46,24.922c-.45,1.31-.85,2.638-1.25,3.966a249.321,249.321,0,0,0-9.495,46.894c-.148,1.331-.295,2.662-.383,3.986A241.7,241.7,0,0,0,159.569,3221.625Z" transform="translate(-135.296 -3069.788)" fill="#a0c433"/>
            <path id="Trazado_652614" data-name="Trazado 652614" d="M0,0,44.457.853l.05,2.591L.05,2.591Z" transform="translate(43.801 39.086) rotate(-35.138)" fill="#a0c433"/>
            <path id="Trazado_652544" data-name="Trazado 652544" d="M176.584,3121.393l-1.292.216-1.351.223-.046-.26-4.61-24.859-1.83-9.982,2.617-.446,2.1,11.319,3.586,19.317.426,2.39Z" transform="translate(-135.296 -3070.452)" fill="#a0c433"/>
            <path id="Trazado_652615" data-name="Trazado 652615" d="M0,0,32.647.628,32.7,3.219.051,2.591Z" transform="translate(32.948 68.064) rotate(-35.319)" fill="#a0c433"/>
            <path id="Trazado_652545" data-name="Trazado 652545" d="M164.417,3163.748l-1.244.394-1.278.41-.057-.154-8.346-23.9-3.5-9.974,2.5-.812,3.811,10.892,6.591,18.811.822,2.307Z" transform="translate(-135.296 -3072.199)" fill="#a0c433"/>
            <path id="Trazado_652616" data-name="Trazado 652616" d="M0,0,42.83.879l.054,2.609L.054,2.609Z" transform="translate(22.786 119.269) rotate(-45.009)" fill="#a0c433"/>
            <path id="Trazado_652546" data-name="Trazado 652546" d="M159.281,3210.286l-1.162.557-1.2.6-.114-.228-13.349-24.874-8.155-15.221,2.376-1.178,7.754,14.464,11.524,21.527,1.244,2.312Z" transform="translate(-135.296 -3073.816)" fill="#a0c433"/>
          </g>
          <path id="Trazado_652547" data-name="Trazado 652547" d="M145.792,3187.085s-.9-.546-2.341-1.545c-8.123-5.491-33.95-24.461-18.985-33.778,14.608-9.114,19.678,21.288,20.96,31.843C145.687,3185.75,145.792,3187.085,145.792,3187.085Z" transform="translate(-119.889 -3046.047)" fill="#a0c433"/>
          <path id="Trazado_652548" data-name="Trazado 652548" d="M158.231,3220.531l-1.34-1.045q-.26-6.707-.091-13.432l-13.349-24.874c-8.123-5.491-33.95-24.46-18.985-33.778,14.608-9.114,19.678,21.288,20.96,31.844l11.524,21.526a247.58,247.58,0,0,1,4.889-39.913l-8.346-23.9c-6.934-7.205-26.864-30.121-7.018-35.578,20.516-5.667,12.357,26.976,9.829,35.683l6.591,18.812a251.656,251.656,0,0,1,11-36.1l-4.61-24.859c-5.033-8.623-17.031-32.174-.119-35.695,17.866-3.741,6.517,27.748,3.01,36.586l3.586,19.317q4.2-10.363,9.372-20.35c2.778-5.375,5.767-10.7,8.93-15.9l.009-.023c1.348-10.729,7.01-45.185,23.208-35.462.066.049.142.074.208.124l-15.764,25.807-.009.025q-4.15,6.157-7.953,12.6c-2.611,4.375-5.081,8.824-7.426,13.4q-2.879,5.57-5.439,11.194c-.356.746-.689,1.5-1.02,2.255-1.284,2.9-2.517,5.814-3.691,8.724-.306.763-.614,1.527-.895,2.3-2.086,5.254-3.947,10.585-5.614,15.927-.246.675-.443,1.368-.639,2.059q-3.153,10.149-5.322,20.383c-.207.8-.362,1.611-.543,2.417a249.411,249.411,0,0,0-3.949,26.206c-.078.678-.156,1.355-.175,2.025-.463,4.745-.731,9.5-.856,14.251-.065.872-.07,1.735-.075,2.6C158,3210.651,158.03,3215.59,158.231,3220.531Z" transform="translate(-119.889 -3041.687)" fill="#a0c433" style="mix-blend-mode: multiply;isolation: isolate"/>
        </g>
        <g id="Grupo_975425" data-name="Grupo 975425" transform="translate(-96.097 1382.345)">
          <g id="Grupo_975424" data-name="Grupo 975424" clip-path="url(#clip-path-2)">
            <ellipse id="Elipse_7846" data-name="Elipse 7846" cx="716.033" cy="475.067" rx="716.033" ry="475.067" fill="#226ec8"/>
            <g id="Grupo_975423" data-name="Grupo 975423" transform="translate(-206.205 -39.689)">
              <path id="Trazado_652549" data-name="Trazado 652549" d="M685.55,3211.6l6.552-14.364,16.1,13.411,10.879,1.209.629-12.563-14.448-17.247,18.886,1.388,11.98-6.517,7.092-24.994-6.854-8.853,15.592,1.788,3.713-8.621-11.379-5.719,59.32-49.094-21.161-10.464-48.023,18.9,21.267-19.662-20.559,5.528,3.452-5.906-34.83,1.589,63.724-10.932-15.581-9.051-7.143-3.058-39.948,2.02,38.758-7.292-41.929-7.283-17.066,5.984-17.381-2.317L646.44,3046.2s12.277,16.875,10.037,17.992-15.293-.337-15.293-.337l-2.749-17.832-9.417,13.214-13.821-.672,6.485-12.911-41.125,5.985-9.471,14.487-9.285-4.021-25.982,9.315,9.83,7.387-15.019,8.917-39.593,4.468,2.988,13.125L516.443,3109l-32.272,3.844,10.756,18.138,47.174,4.338-6.042,47.84,11.268,7.989-15.7,7.792-.488,9.747,20.387.449L536.14,3225.24l-14.827,4.994,7.388,41.757,13.88,13.972,20.56,11.583,38.792-46.669,33.083-5.556,22.644-15.472,61.258-14.816Z" transform="translate(258.302 -3035.812)" fill="#a0c433"/>
              <path id="Trazado_652550" data-name="Trazado 652550" d="M516.341,3651.92l-36.819-7.346-22.248-7.018,2.522-6.715-11.441-10.531L436.1,3609.033l-1.882-.041-23.654-.521-.685-.015-19.1-11.543-1.285-.64-20.061-9.987,3.159-4.77-51.712-1.139-10.757-6.029-2.707-1.519-33.281,9.425-7.792,9.983-15.685-7.118-22,2.417-2.247-1.883-9.046-7.559-.6-.493,6.826-19.8c1.874-5.432-24.923,2.891-36.677-2.731a9.111,9.111,0,0,0-1.43-.522l6.106-12.591.8-1.656,11.015-16.2-4.974-2.528-22.067,3.867-13.106,14.219-23.257-1.478L122.5,3523.764l7.3-23.837,4.911-16.039,27.258-5.691,18.787,3.317,8.89-2.708-1.267-3.9,38.48,3.268,11.431,4.6-1.229,10.134,8.74,14.707,8.156-2.729,2.041-11.724-4.6-24.447L290.85,3452.2l7.78-24.382.957-.559,2.972,9.541,6.9-6.862-2.143-7.263,1.4-.83.886,5.191,10.242-7.993-1.2-3.072,2.525-1.494,25.746-4.514,2.7-10.338,25.5-7.143,3.334-.932,2.433,9.734,17.086-6.4,30.283-7.8-3.412-4.549-13.343,4.18-15.194-2.272-3.858-10.181,13.316-4-8.394-7.071-38.215,13.423,22.926-13.76,12.679-5.776,37.787,2.53,22.857-5.06,12.009-6.988-3.773-12-13.505-6.894-15.4-12.786,8.967-4.4-14.566-29.465-15.426,16.951-17.257-4.733,3.8-17.811-10.658-5.56-4.641-9.285-29.65-4.774-8.465,23.4-12.262,12.069,8.012,14.565-7.7,8.294-20.613,4.015-.384,22.125-15.437,2.564-6.062-10.052,8.881-17.1L281,3313.946l-28.21-19.128-16.935,3.377,6.118-20.3-9.437-.815,39.445-30.569,20.118-8.75,25.2-8.149,9.875-8,26.464-4.26,8.348-6.584-2.387-10.695,8.379.185,5.8-6.644-19.286-8.167-7.687,8.055-18.959,14.579-2.4-10.209,2.831-13-12.87,9.4L313,3184.529l7.854-11.433-2.669-19.408-21.516,7.529s-10.109,12.575-7.974,13.589,11.262,7.986,11.262,7.986l-10.046,11.389-13.592,9.371-5.78-15.6-14.149,5.977-23.843-4.4-5.926-12.707-17.473-.385-7.986,13.849-6.869-8.375-22.6-.01-9.18-6.005,11.73-1.2-3.063-11.675-29.891-14.69-13.3,3.579-10.728-4.109.871-17.392-63.235,10.7-22.5-14.587-.793-.519-11.206-9.349-27.816-12.224-8.014-.177-4.543-11.228-15.585-9.051-36.673,4.51-35.636,12.766-12.962-3.187-9.857,7.521,2.651,19.888,12.618,9.951-16.961,3.981-11.486-3.641,8.257-4.657-7.821-4.043L-178,3133.078l2.029,17.725,10.767,3.36,24.921-2.573-10.182,14.025-32.938,2.66-24.688,12.513-.967,19.323,14.47,2.261-5.825,14.38,18.743,4.282,7.286.16-30.057,17.718-53.857,12.841,6.431,2.557,24.179-2.368,59.326-19.971,25.9-7.655-8.407-6.957,20.78-7.281,16.2-3.035-17.6,16.549,22.845-4.82,7.739-9.02,19.978,8.662,31.276,16.172,11.78,26.857,10.36,24.9.046.128,7.395,27.129L.112,3337.551l1.825,2.167-17.525.583-4.8,23.115-15.07,24.333-1.185,23.676,9.721,24.159L-7.8,3446.891l1.34,4.326,3.677,11.905L7.255,3481.08l-9.461-.208,14.13,9.019,8.865,12.286,13.3,10.942,3.89-4.765L27.6,3497.249l-5.864-13.914L9.908,3471.949l.548-10.955,12.32,1.483,7.064,19.1,14.854,9.034,18.281,27.974-5.574,9.551,46.4,19.558,23.706,7.2,12.587-4.012,14.251,8.195,9.139,5.259,4.162.585c5.453,6.451,23.536,6.966,23.536,6.966h0l5.289,3.328,1.441,2.45,4.61,7.839,15.708,6.636,2.855.847,16.537,4.9,4.591-4.25,8.274-5.137,4.855,4.94L261.758,3611l-15.483,16.342-.674.716-13.863,14.691,6.143,8.355-4.252,2.281-6.988,3.756,17.4,16.351,21.034,31.42,23.428,12.612,19.135,12.159,9.682-5.232-.836.445-8.846,4.787,1.342.868-2.43,63.307-7.194,41.929,1.995,18.422,9.077,7.941-2.942,14.929-3.446,10.566-7.538,5.155,6.115,8.847,6.21,21.658,17.951,19.982,24.934,11.674,19.661.433,3.788-2.521,6.766-4.5L348.264,3922l18.779-25.706-17.134-7.149L363.4,3881.7l10.393-18.157-11.272-7.989,17.361,2.8.725-14.5,32.994-3.623,5.022-12.951-15.414-12.433,2.255.5,29.469,6.487L445.808,3810l26.133-28.458.556-11.112,48.908-15.852,17.334-25.739,1.234-24.643,33.366-25.872-7.43-11.772Z" transform="translate(258.302 -3037.749)" fill="#a0c433"/>
              <path id="Trazado_652551" data-name="Trazado 652551" d="M467.52,3364.146l-8.117,1.76-10.311,9.385-14.138,13.051,3.539,2.136,8.009.177,12.812-1.051,6.858,1.484-11.907,4.692,5.355,2.3,11.28-6.884-3.125,4.16,8.229,3.084s7.024-9.273,5.937-9.3-7.928-1.869-7.928-1.869l2.659-9.379-17.605-.388.193-3.863Z" transform="translate(258.302 -3049.019)" fill="#a0c433"/>
              <path id="Trazado_652552" data-name="Trazado 652552" d="M1820.114,3365.792l-12.375-14.786-3.487-6.966-8.093-13.238-6.907,7.1,5.855,13.912,9,6.007,6.575,21.547,6.521,11.746,4.461,9.175,2.534-6.841,7.464,3.791.254-5.07-11.752-5.7-2.56-14.206,11.841,3.526Z" transform="translate(258.302 -3047.677)" fill="#a0c433"/>
              <path id="Trazado_652553" data-name="Trazado 652553" d="M1165.585,3216.9l7.035-3.841-14.263-4.664-8.644-12.885,8.635-19.764,13.936-16.382,27.538-14.815-8.28-9.425-8.957,4.332s-9.1,6.873-9.648,6.861c-.524-.012-21.628,6.417-21.628,6.417l-3.137,7.913-11.123,3.743,2.367,7.313-3.709,19.5-.326,6.522-6.569,5.662,17.225,10.9Z" transform="translate(258.302 -3039.807)" fill="#a0c433"/>
              <path id="Trazado_652554" data-name="Trazado 652554" d="M1907.012,3803.154l-11.576-7.312-112.687-2.483,1.61-32.172-10.1,6.637-.3,6.037-8.288-1.874-9.589-5.049-16,6.66-9.087,6.7-2.827,5.375-6.368-5.578-6.376,5.3-.23,4.59-8,7.077-44.809,6.754-12.249,4.452-6.243,15.453,2.526,7.8-3.034,2.351,1.846,14.066,2.549,17.578,223.125,4.917-2.474,49.425,10.483.463,5.718-4.955,6.064-11.958,28.175-24.046,16.263-26.242-4.464-20.181Z" transform="translate(258.302 -3064.99)" fill="#a0c433"/>
              <path id="Trazado_652555" data-name="Trazado 652555" d="M1801.654,3706.043l10.98-.966.964,2.441-12.819,1.286,5.493,6.774,7.848-3.878,26.847,9.961,7.922,9.127-7.614,6.6,13.893-.9,9.51,5.512,1.118.647,5.311.708,9.171.2,3.013-8.145,9.522-1,10.365,4.337,5.346,5.428,20.115.443-5.574-2.767-12.557-11.162,5.845-.352-.509-4.371-14.748-3.954,2.037-4.3-35.426-10-24.96-7.053-15.112,10.551-8.935-3.58-1.75-8.746-12.944-3.429-12.177,2.875,1.307,2.811Z" transform="translate(258.302 -3062.346)" fill="#a0c433"/>
              <path id="Trazado_652556" data-name="Trazado 652556" d="M1609.911,3704.4l-9.613-4.562-2.261-5.854-7.553-2.1,3.11-3.8-4.226-3-12.084-6.069-15.554-9.773-14.137-8.781-16.254-3.018-.17,3.385,7.88,6.463,14.616,10.233s13.372,16.98,13.685,17.718c.342.733,5.5,6.652,5.5,6.652l22.926,15.5,9.827.215Z" transform="translate(258.302 -3060.817)" fill="#a0c433"/>
              <path id="Trazado_652557" data-name="Trazado 652557" d="M1663.533,3735.441l13.829.3,7.87,3.077,14.25-.895s-.92,4.086-.205,4.1c.743.017,15.121,4.2,15.121,4.2l.266-5.309-12.3-1.963,2.66-2.122,9.79,1.179,15.689-.618.193-3.862-8.851,2.217-9.408-1.413-13.17.916-14.873-1.534-11.278-.249-7.509-1.86-11.465-5.088-12.927-3.914-1.66,3.833-13.3-1.017-14.814-5.167-10.1,4.858,21.971,5.562,25,2.972Z" transform="translate(258.302 -3063.344)" fill="#a0c433"/>
              <path id="Trazado_652558" data-name="Trazado 652558" d="M1700.068,3665.344l8.518-2.473-19.207-9.616-20.645,13.094-15.436,8.607-6.51,6.144-7.7-1.416-4.222-.777s-8.743,7.3-6.362,7.113,12.353,18.893,12.353,18.893l27.608,2.062,3.446,3.946,9.659-3.657,4.465-9.089,8.958-11.416,10.252-.74-9.2-5.763,1.571-2.386-4.121-4.931,3.525-4.064Z" transform="translate(258.302 -3060.649)" fill="#a0c433"/>
              <path id="Trazado_652559" data-name="Trazado 652559" d="M1821.361,3409.464l2.966,6.233-.327,6.531-5.464-.121-.38,7.6,4,7.708,7.827-3.451-6.27-5.943,6.6-.58,11.8,4.612,3.225-9.911,9.279.2.3-5.977-33.367-10.524Z" transform="translate(258.302 -3050.697)" fill="#a0c433"/>
              <path id="Trazado_652560" data-name="Trazado 652560" d="M1772.062,3489.137l-.2,4-6.811,4.936,9.128,14.343,6.73-3.476.635-12.684-5.813-4.119,6.159-2.785,17.661-3.222,4.921,5.548,3.34,4.067,7.46-7.086.218-4.353,8.093,2.354,3.95-2.449,6.254-4.943,2.4,6.583,6.356-6.754-4.153-4.444-3.827-10.966,6.738-3.475-2.091-12.749-9.414-8.548-6.778,4.2-.345,6.886,2.766,10.215-3.727,8.989-12.012-.265-4.542,8.969-7.474,1.654-13.222,1.883Z" transform="translate(258.302 -3052.027)" fill="#a0c433"/>
              <path id="Trazado_652561" data-name="Trazado 652561" d="M1925.18,3180.392l5.6-2.777,9.031,1.656,3.984-14.186-13.047-8.755,3.869-4.507,5.186,5.675,7.219,1.367,1.713-5.042,8.754-.045,4.893,4.218,20.57-3.177-9.969-12.067-7.85-3.316,9.812-6.8-7.234-8.384-16.661-2.059-9.342,4.635,9.043,8.658-8.385-.185-9.343-9.882-41.324-4.534-33.683-4.372-34.488,4.321,3.716,5.886,11.706,6.545-3.212,5.733-7.821-3.8-8.995-2.373-6.672-4.982-4.328,6.191-27.526,3.746.787,6.064-8.541-4.055-11.008,1.452-4.98-9.788-15.4-5.419-22.568,6.521-13.966,2.352-.911-3.646-6.809-2.333-4.882,2.8-12.136-5.108,1.343-5.049-19,1.033-3.449,10.569-2.135-8.269-9.225,2.214.611-4.827-31.389.76,8.845,5.273-7.859,3.942,7.581,1.613,5.841,7.147-8.031.309.039,6.526-14.017-4.173-6.65,1.788.952,2.919-10.912-.48-6.371-3.767,4.313,15.813-17.9-6.684-14.3-5.633,8.8-1.018-5.195-5.429-5.5.6-.1-5.078-19.383-5.994-14.986.876-5.585,2.06,6.54,7.64-18.743,3.214-13.077-.774.664-6.029-28.6,3.239-10.7,2.665-10.766-3.378-.375,7.487-13.015,12.29-1.035-8.247,10.087-19.609,4.02-14.667-21.344-10.626-10.775-3.381-12.571,3.6-4.7,6.666-3.474-10.718-15.46,2.8,2.568-7.436-11.924-2.2-6.048,11.718,12.577,10.918-15.908.861,9.27,7.943-9.475-3.838-8.452,5.138-4.266-2.269-14.685,2.092,6.452,2.323-19.382,8.52-8.145,9.734.376,7.019,11.827,4.132-5.593,2.3-29.1,6.126,8.162,11.791,13.94,5.377,5.744,2.4,2.829,1.174,4.671,8.573-6.4,3.972-2.287-12.39-12.383-.272-17.519-6.916-4.943,4.006,3.049,4.657-9.718-2.389,5.43,7.861,14.427,3.224-21.767-2.172-7.177-16.847-4.716-.352,4.614,9.778-5.995,3.257,3.3,6.845,9.574,5.286,3.734,12.9,4.588,3.005,10.728-3.155,15,6.142L1299.4,3229l-5.709-2.546-7.407-4.759-8.98,4.646,5.337,9.791-4.452,8.841-4.939,4.012-6.833-1.845,6.435-19.448-9.858-6.99-8.583-17.841-6.725-4.022-2.163-15.039-20.341-1.417-.022,14.994-5.835,7.368,11.255,15.481,5.793.857,9.2,5.525-1.456,7.222-18.893-8.4-20.148-5.524-12.744-.034-1.643,3.592,5.146,6.4-6.035,3.978-4.508-4.45-19.9,4.159-3.086,3.319-7.65.063-.461-5.564-25.707,11.279-3.76,2.094-1.419,6.5-9.137.525-5.9-5.931,7.474-3.707-7.371-5.726-12.342-.992,3.678,13.858,5.049,1.078.305,8.479-12.242-2.933-13.93,8.887,6.965,6.443-4.905,3.276-17.922-6.2-2.769,4.529,11.478,3.639-4.91,3.521-12.538-4.383-6.479-9.093,1.431-6.74-17.46-7.878,2.958-.9,18.652,5.977,15.134,3.469,15.163-4.259,2.211-7.693-35.29-16.911L1036.1,3232.7l-12.306-3.232-4.552-1.084-11.6-2.753,10.119-3.079-20.214-7.693-32.784,6.773-28.114,15.584-26.92,35.444-17.4,12.439-23.038,8.685,2.639,27.386,12.55,4.386,21.3-10.658,1.966,3.735,14.008,26.6,21.169-7.758,1.152-15.689,9.654-3.417,1.874-8.425-8.83-5.516-.46-12.829,22.943-14.006,1.645-11.089,13.843-.537,5.876-.237-.291,5.8L968.76,3287.5l2.007,18.185,15.744,5.906,28.686-5.167h.015l7.774,4.769-9.076,4.722-.29.147-18.168-1.126-9.28,3.42,1.907,5.608,5.452.358-.029,3.28-.029,5.188-5.492.359-5.6-4.713-7.923,5.384-.339,6.765-.036.725,10.638,6.041.2,3.148-1.093-.024-34.23-.754-17.356,4.693-.008,0-11.165-2.661-16.793.353-4.569-4.1-2.756-2.476,6.372-3.486,2.223-15.306-17.574,8.8,2.945,10.849,2.442,8.982-10.928,1.929-16.472,2.907-4.286,9.093-.082.033-6.74,2.5-3.008,1.119-4.86,5.939-5.326.854-4.106,3.177-6.248-.261-5.367-2.053.6,6.3-6.583.214-16.918-.491,19.678,11.081,7.428,8.259-5.961,13.543-.1-.014-42.9-3.84-8.932,3.667,2.556,6.438.358.884-.038,7.981-7,8.8,3.475,3.459-.757,7.725,12.1.267,3.919.086,6.992,5.96,13.327-4.064,12.74.28,9.236-2.451,5.248-8.838-2.4-4.405,12.111-8.923,9.979-2.684.868-3.8,1-4.378,4.533-3.286,7.974,1.147L876,3422.11l9.734-4.453,7.418-3.392,9.393,1.9,5.1,7.13,12.325,8.734,15.4,5.42,7.078,4.268,2.209,6.819-2.1,5.518,3.635.325,6.591-8.081-4.568-3.25,3.484-4.033,8.188,4.051,2.013-3.825-18.621-6.935,2.3-2.132-12.591-3.176-6.575-7.16-8.139-5.014.327-6.523,6.4-.706,2.765-5.664-.271.581L925,3407.59l.932-.1.98,2.2,1.317,2.935,6.661-2.026,4.736,7.354,13.177,6.263.706.336,6.05,3.045,6.915,3.472,1.614.817-.423,8.453,6.381,5.472,2.015,1.73,5.969,4.484-1.319,4.567,7.022,5.232,7.6,1.138-1.959-4.639,4.371.1-.2-3.151,3.985.333-8.721-7.692,2.628-1.634-4.764-6.638,6.407,3.042,4.794-1.1-3.837-3.474,16.428-.6.817,1.174,1.565,2.265,8.924-3.432,7.3-.32.833-1.917-5.347-2.535-1.089-2.25-1.883-3.868,5.721-5.192.09-1.785.273-5.463,5.882-.836.751-3.328.178-.767,10.206-7.27,9.641,3.841,5.766,1.573-6.37,3.495,6.477,1.588.546,3.64,18.754-3.214.169-3.38-9.882.75-6.717-4.019,8.513-2.713,10.314-2.193,10.155-1.816,3.091-.55-2.387,3.814-4.737,7.391-4.721-.342.244,2.42,8.219,3.328,14.214,7.328,11,6.046-1.494,4.343-1.074,3.1-15.364,1.116-18.778-3.558-9.7-2.876-17.944,1.779-7.131,3.955-9.791-.942-3.728,1.609.983,2.2-14.271,1.137-5.95,2.283.94,3.164,3.608.806.14,4.357-3.7,1.133,12.987,9.957,13.732,2.478,5.26-3.27,13.233,5.132,9.928-1.721,5.99-3.006,9.84-.029-1.66,5-.487,1.486-1.964,5.285-3.416,9.2-.943,2.544-6.859,6.368-.783.725-22.88-1.961-9.646,3.414-28.192-4.728-2.251-.631-14.638-4.1-16.741-.614-6.067,4.71,2.719,3.925-7.533,4.917-15.745-5.91-9.786-1.181-2.586-6.59-25.88-3.935-.17-.028-10.666-5.31,7.522-4.669-1.264-3.9-3.5-2.734,4.268-5.23-5.878.837-3.133-2.725-7.156.771-17.039,1.836-23.72.449-27.65,6.161-6.463.85-4.544.6-13.817-.547-4.922-3.73-3.32.891-4.062,8.129L770,3478.785l-7.648,14.345-13.254,9.865-11.1,3.616-.028.008-4.189,3.647L713.511,3529.3l-5.421,8.1-1.279,1.91,5.275,3.982-8.3,20.745-2.531,6.35,11.425,12.472,6.888,7.515.577.412,11.394,8.08.3.452,6.478,9.853,4.862,2.177,28.652,12.831.593-.114,22.588-4.216,10.224,2.226,7.087,1.544L835,3618.646l5.743-1.264,8.431-1.85,2.212-.482,14.747,11.207,21.919-.876,1.459-.06,6.507,8.367-1.915,4.49-2.575,6.056-3.773,8.865,16.393,14.87,3.833,3.476.957,2.49,1.3,3.364.638,1.654,9.684,25.171L911.28,3714.8l-8.634,20.059-.445,1.025,11.97,15.984,6.288,19.967,9.2,20.038.087.16,13.384,22.144-.881,10.145,13.692,3.2,44.354-4.83,42.052-24.462,9.563-12.856,1.773-2.379-.594-2.667,20.748-6.8.5-9.914-2.995-12.882,43.606-19.355,2.987-8.636.862-17.227.045-.9-10.568-21.754,6.552-7.23,8.489-9.367,8.377-4.907,38.565-22.6,24.828-22.669,9.019-19.873-49.241,7.625-9.055-6.655-3.525,3.409.845-.821,2.68-2.588-1.482-1.078.514-3.666.061-.441-18.687-12.741-8.26-2.359-6.825-12.755-.513-.947-8.854-5.278-3.908-15.075-.063-.25-8.878-4.545-9.12-14.594-6.36-11.146-10.4-10.871,2.233-.671,12.2,10.905,2.3-2.364,1.749-3.942,1.418-3.2.129-.288-.122,2.439-.289,5.779,14.258,13.735,5.091,7.492,6.505,1.1,4.647,9.061,1.192,5.347,13.039,8.994,8.637,9.619,4.143,6.871,1.913,3.178,5.8,15.368,11.361-1.2,4.525-3.047,7.548,2.1,8.566-3.683,14.067-4.043,18.731-2.973.229-4.59,5.27-1.013,10.552-2.024,5.516-.851,2.335-3.087,5.882-.842,3.126-4.283,6.573-.1.326-6.526,4.512-2.8,8.821-8.756-9.135-6.974-12.31-1.718-3.018-6.313-9.687,12.659.165-.215,9.522-12.443-3.249-6.776-14.042,11.188-16.8.471-2.55.071-.411-2.577-.706-4.342-.223-2.783-4.3-1.547-.657,6.682-.083.793-6.4-10.3-12.117-10.568-.119-.095-3.113-3.212,1.488-2.546,1.3-2.232.476.018,11.162.478,10.409,10.633,26.493,9.642,12.243-4.2,6.917,7.41,30.392,4.54.941-.025,23.139-.535,11.663.256,8,7.556,6.456,1.518,1.47.344,4.552,3.734,10.221-.507-7.116,3.958-5.786-.856,15.186,9.771,10.4-3.881,2.858-6.226,2.7,18.925,8.551,18.567,11.492,17.907,16.882,19.719,5.16-1.1,12.13-9.4,3.715-15.886.616-12.318,20.162-9.714,13.613-9.617,11.965-6.021,6.883-6.379,8.325,1.3.715.108,8.606-4.4,6.581-.586,3.627,7.821,3.654,2.981,3.352,2.732,7.448,4.036-3.355,1.621,3.125,2.967,3.773-2.575,4.63,9.531-3.645,7.42,3.21,1.278,16.285-4.96.181-3.625L1548,3585.9l5.313,10.277,2.478,8.759-2.5,6.475-.149,2.971-.407,8.142,2.2-.673,10.2,9.534,1.992,1.857,2.433,9.486,6.925,7.411,19.259,8.4,1.965-2.617-6.588-6.915-.239-9.678-8.782-6.726-.183-.075-9.832-3.775-4.583-3,1.888-1.165-2.349-4.163-4.91-3.98-3.2-1.765,2.9-6.946,2.914-7.192.619-5.067,6.2.136-.217,4.35,12.574,3.416.469.409,5.822,5.053,3.466,3.463,5.861.129.342.008,3.612.562-2.986,8.642,4.765-.618,9.905-8.492,4.756-.131,12.713-6.492.4-7.975-5.128-14.142-16.66-9.314-1.313-2.932-5.684-3.029,1.443-7.22,4.673-5.7,8.08-1.673,7.758-1.6,6.484,1.594,2.27,5.611,4.382-.143.254-5.075,18.787-3.939,22.512-5.55,10.24-7.877,9.7-11.758,8.495-9.729,4.537-10.3-10.027-3.605,7.871-4.427-8.154-4.54,5.58-2.29-13.553-13.115-8.971-2.855,2.2-7.45,9.025-5.611,8.8-1.012.588-4.584-10.916-.241-4.255-2.271-4.857,2.07-3.46,3.793-4.379-.1-1.554-5.109-4.021.146-6.364-4,.985-5.062,7.622.654,2.126-6.245,5.508-.6,5.084-6.9,8.665,1.637-4.335,6.435,2.735,3.7-3.416,2.823,2.479,1.506,5.251-3.028,1.937-2.375,12.21-3.6,1.028.215,6.545,1.4-.545,10.877,3.488,3.215,5.95-2.527.794.828,5.1,5.346-3.733,1.613,5.881,6.417-2.4,4.3,4.088,5.657,9.72-4.869,9.666-3.654-6.658-12.724-6.911-7.146-.018-.021-3.154-2.485-6.8-2.567-.5-4.366,12.8-8.183-2.192-7.306,5.851-4.352,1.72-1.285,3.547-5.24,5.086.355,2.375,3.436,8.079-1.034,13.2-16.155,8.556-18.189,3.963-13.458-5.847-14.16-1.922-12.619-2.715-4.171-2.55-7.312-19.7-6.723-3.186,5.256-5.368-2.056L1752,3326.53l-4-7.587-11.639-.5,14.286-23.15,5.856-15.1,4.742-7.394,28.329-5.18,10.928,0,1.768-6.005s17.031,2.06,18.107,2.333-2.017,3.82-2.017,3.82l1.961,2.224,20.884-7.039-3.129-2.971-5.8-.609,2.879-13.729-.32-8.224,10.04-3.891,11.037-2.178,1.4,8.741,9.666,3.354,7.253-13.866-6.446-9.58,13.19-1.4,3.713,20.639-8.265,4.9-1.731,20.037-1.894,8.663-7.49,3.949,2.213,6.824-1.347,12.3,25.044,31.264,9.247,12.06,8.618-4.894-1.91-12.858,7.1-3.465-3.9-9.522,7.546-5.157L1910.414,3286l8.389-.3-5.893-5.934-5.468-.121.8-8.692-6.488-1.592-1.636,3.593-4.9-3.98,1.031-13.282-4.31-8.553,12.343-6.261,4.8,5.909,5.952-9.539,9.176-1.25,11.011,5.806.23-4.593,4.057-15.636,17.246-16.789,11.289.249.3-6.035-36.263-18.458Z" transform="translate(258.302 -3038.241)" fill="#a0c433"/>
              <path id="Trazado_652562" data-name="Trazado 652562" d="M751.2,3278.108l6.1-5.435-2.125-8.505-8.5-5.023-15.5,3.77-10.885-.965-.641,5.544-6.254,1.074.93-4.092-6.975-6.2-6.342,2.885s-7.558,5.268-6.475,5.537,14.21.314,14.21.314l-1.63,3.353-11.659-.256,1.275,3.649,7.233.16,3.889,3.474-6.251,1.068,1.962,3.432,9.881.218,10.781,3.135Z" transform="translate(258.302 -3044.76)" fill="#a0c433"/>
              <path id="Trazado_652563" data-name="Trazado 652563" d="M804.813,3342.306l-2.423,4.843-.794,4.821,3.457.076,2.47-5.634-.23,4.594-2.6,4.664,3.818.083,7.166-1.294s-2.332,2.966-2.168,3.336,1.175,2.206,1.175,2.206l4,.088-1.742,5.885-9.161-1.046-1.042,4.443,3.427.682-.511,2.9-7.206,2.018,1.152,2.562,5.125-.491,3.57,1.409,3.613.682,5.78-2.53-4.045,4.265-7.82-.173-3.375,1.855-8.281,5.144,3.407,1.159,7.047-2.5,4.333.94,4.545-3.532s6.373.141,6.916.277,16.418-.245,16.418-.245l6.94-3.959-6.134-1.342,7.383-5.4-1.8-4.148-9.47-.209,1.1-2.275-1.789-2.1-4.067-6.012-2.322-.9-4.444-6.029-5.456-3.868-6.921-.152,6.086-1.433-.635-1.7,6.374-7.242-5.782-1.09-7.7.794.5-2.647,5.212-2.065-.066-2.42-10.745-.237-2.46,5.51-2.692,2.844-.146,2.9-3.58,2.336.928,3.28Z" transform="translate(258.302 -3047.62)" fill="#a0c433"/>
              <path id="Trazado_652564" data-name="Trazado 652564" d="M782.848,3356l3.033,1.4-3.16,1.134-9.823-.217-.133,2.663,2.85,1.271-3.007,1.866,5.544,2.059-5.834,3.741,7.1.156-7.184,1.539-4.221.506,2.711,4.174,5.38,1.689,7.6-2.49,9.546-1.479,2.215-.439,1.51-4.686-.386-5.327-.531-1.828.553-.2,4.273-1.563-1.356-5.654-4.795-.649-1.22-.177-6.113-.893Z" transform="translate(258.302 -3048.554)" fill="#a0c433"/>
              <path id="Trazado_652565" data-name="Trazado 652565" d="M1169.91,3751.732l-9.446,6.567-15.806,2.8-7.281,7.093,3.92,9.037-9.383,12.607-.435,8.7,11.854,10.66,15.1-3.048,25.318-46.851,3.6.8.23-4.587-5.434-15.117Z" transform="translate(258.302 -3064.154)" fill="#a0c433"/>
            </g>
            <ellipse id="Elipse_7847" data-name="Elipse 7847" cx="716.033" cy="475.067" rx="716.033" ry="475.067" transform="translate(170.827 40.567)" fill="#fff" opacity="0.3" style="mix-blend-mode: soft-light;isolation: isolate"/>
          </g>
        </g>
        <g id="Grupo_975426" data-name="Grupo 975426" transform="translate(1137.131 1405.202)">
          <path id="Trazado_652566" data-name="Trazado 652566" d="M1336.764,3238.8c-7.79,21.7-22.387,38.979-40.176,47.573,0,0-14.531,8.614-27.333,10.281s-29.188-2.916-29.188-2.916c-19.514-3.737-38.385-16.665-51.937-35.6a38.089,38.089,0,0,1-6.245-12.062c-1.243-4.532-1.038-9.771,1.291-13.206,3.57-5.26,10.555-4.359,15.862-1.184,5.285,3.169,9.974,8.187,15.516,10.492,5.548,2.283,12.715.538,14.267-6.2,1.245-5.515-1.958-11.739-6.068-14.873-4.1-3.154-8.926-4.005-13.56-5.11-6.739-1.629-13.912-4.34-18.479-11.066-4.55-6.7-4.645-18.438,1.356-21.865,4.027-2.293,9-.129,13.081,2.764s8.007,6.607,12.515,7.727a8.142,8.142,0,0,0,10.224-7.342,12.091,12.091,0,0,0-4.7-9.729c-2.717-2.113-5.854-2.94-8.923-3.842-6.827-2.022-14.066-4.935-18.682-11.836-4.6-6.873-4.767-18.794,1.3-22.367,3.971-2.354,8.96-.418,13.033,2.5,4.049,2.909,7.767,6.78,12.132,8.7s9.853,1.2,11.99-3.586c3.039-6.785-2.348-15.13-4.408-22.9a25.674,25.674,0,0,1-.588-10.007c.912-6.78,6.09-10.921,11.894-11.914,6.241-1.094,13.172,1.441,16.143,8.258a26.1,26.1,0,0,1,2.2,9.779c.174,8.047-2.7,17.448,2.124,23.218,3.369,4.086,8.881,3.368,12.556.407,3.681-2.983,6.175-7.654,9.267-11.5,3.116-3.843,7.378-7.005,11.873-5.749,6.857,1.913,10.008,13.438,7.464,21.25s-8.708,12.475-14.734,16.175c-2.693,1.65-5.494,3.251-7.516,6a11.852,11.852,0,0,0-1.835,10.564,8.314,8.314,0,0,0,11.9,4.466c4.033-2.223,6.8-6.826,9.913-10.668,3.138-3.837,7.328-7.18,11.841-5.989,6.728,1.765,9.9,13.109,7.384,20.742-2.542,7.628-8.694,12.061-14.733,15.363-4.163,2.259-8.563,4.321-11.67,8.4-3.083,4.082-4.443,10.913-1.7,15.886,3.357,6.1,10.749,5.944,15.452,2.309,4.72-3.606,7.826-9.654,12.065-14.076,4.216-4.427,10.7-7.039,15.6-2.9,3.212,2.7,4.837,7.7,4.926,12.384A37.836,37.836,0,0,1,1336.764,3238.8Z" transform="translate(-1181.131 -3100.979)" fill="#a0c433"/>
          <path id="Trazado_652567" data-name="Trazado 652567" d="M1269.255,3296.66c-12.8,1.667-29.188-2.916-29.188-2.916-19.514-3.737-38.385-16.664-51.937-35.6a38.089,38.089,0,0,1-6.245-12.062c-1.243-4.532-1.038-9.771,1.291-13.206,3.57-5.26,10.555-4.359,15.862-1.184,5.285,3.169,9.974,8.187,15.516,10.492,5.548,2.283,12.715.538,14.267-6.2,1.245-5.515-1.958-11.739-6.068-14.873-4.1-3.154-8.926-4.005-13.56-5.11-6.739-1.629-13.912-4.34-18.479-11.066-4.55-6.7-4.645-18.438,1.356-21.865,4.027-2.293,9-.129,13.081,2.764s8.007,6.607,12.515,7.727a8.142,8.142,0,0,0,10.224-7.342,12.091,12.091,0,0,0-4.7-9.729c-2.717-2.113-5.854-2.939-8.923-3.842-6.827-2.022-14.066-4.935-18.682-11.836-4.6-6.873-4.767-18.793,1.3-22.367,3.971-2.354,8.96-.418,13.033,2.5,4.049,2.909,7.767,6.78,12.132,8.7s9.853,1.2,11.99-3.586c3.039-6.785-2.348-15.13-4.408-22.9a25.674,25.674,0,0,1-.588-10.007c.912-6.78,6.09-10.921,11.894-11.915Z" transform="translate(-1181.131 -3100.99)" fill="#a0c433" style="mix-blend-mode: multiply;isolation: isolate"/>
          <path id="Trazado_652568" data-name="Trazado 652568" d="M1261.977,3240.459q-1.416-10.806-2.919-21.6l12.05-8.523c4.165-2.964,8.364-5.883,12.5-8.886l12.442-8.961c4.117-3.026,8.263-6.015,12.356-9.075-4.279,2.815-8.5,5.7-12.758,8.548l-12.67,8.661c-4.236,2.872-8.407,5.827-12.613,8.737l-11.511,8.014q-1.4-10.1-2.784-20.208-1.753-11.947-3.469-23.9c3.468-2.627,6.9-5.3,10.351-7.946,3.586-2.775,7.2-5.515,10.763-8.317l10.7-8.4c3.535-2.837,7.1-5.641,10.6-8.512-3.707,2.628-7.358,5.325-11.036,7.988l-10.942,8.1c-3.65,2.7-7.248,5.457-10.875,8.182-3.257,2.47-6.531,4.921-9.778,7.4q-1.3-8.923-2.642-17.84l-3.313-21.6c-1.17-7.192-2.279-14.392-3.5-21.576.814,7.238,1.745,14.461,2.614,21.691l2.8,21.667q1.164,8.9,2.4,17.8c-7.243-3.321-14.46-6.7-21.736-9.951l-11.563-5.182c-3.874-1.687-7.729-3.412-11.621-5.065,3.761,1.911,7.558,3.751,11.338,5.625l11.4,5.51c7.433,3.6,14.932,7.067,22.4,10.6q1.647,11.978,3.3,23.957,1.477,10.088,2.927,20.179l-13.106-4.793c-4.791-1.743-9.566-3.523-14.375-5.219l-14.409-5.136c-4.82-1.668-9.624-3.377-14.459-5.008,4.724,1.908,9.479,3.737,14.218,5.608l14.27,5.48c4.75,1.843,9.534,3.6,14.3,5.4l13.773,5.16q1.565,10.79,3.185,21.572l3.313,21.6q.8,4.908,1.577,9.819l-15.67-5.961c-5.44-2.063-10.867-4.156-16.328-6.172l-16.362-6.09c-5.472-1.988-10.927-4.015-16.415-5.965,5.374,2.225,10.779,4.371,16.167,6.558l16.22,6.431c5.4,2.161,10.833,4.24,16.253,6.352l16.268,6.316.112.043c.548,3.416,1.1,6.831,1.685,10.242-.386-3.437-.8-6.871-1.221-10.3l.089-.063,14.413-10.308c4.8-3.448,9.625-6.852,14.391-10.338l14.331-10.415c4.747-3.51,9.522-6.984,14.243-10.529-4.91,3.3-9.765,6.669-14.65,10l-14.562,10.115c-4.866,3.356-9.667,6.8-14.5,10.191L1265.99,3272q-.608-4.938-1.208-9.878Z" transform="translate(-1181.131 -3101.373)" fill="#8a6340"/>
        </g>
        <g id="Grupo_975427" data-name="Grupo 975427" transform="translate(-34.807 1418.203)">
          <path id="Trazado_652569" data-name="Trazado 652569" d="M146.005,3279.762c-18.261,14.6-39.93,22.066-59.658,20.582,0,0-16.968.142-28.743-4.767s-23.24-16.9-23.24-16.9c-14.58-12.816-23.685-33.126-25.046-55.913a36.933,36.933,0,0,1,1.161-13.336c1.374-4.466,4.358-8.816,8.179-10.584,5.856-2.706,11.308,1.51,14.116,6.83,2.791,5.3,4.086,11.885,7.56,16.582,3.489,4.682,10.516,6.739,15.447,1.781,4.016-4.071,4.632-10.943,2.82-15.636-1.8-4.708-5.438-7.813-8.783-11.042-4.854-4.714-9.5-10.562-9.769-18.533-.275-7.941,5.94-17.965,12.878-17.913,4.652.041,7.72,4.339,9.634,8.812s3.262,9.571,6.492,12.75a8.345,8.345,0,0,0,12.626-1.188A11.775,11.775,0,0,0,82.9,3170.7c-1.176-3.139-3.4-5.391-5.523-7.674-4.717-5.091-9.307-11.143-9.529-19.289-.223-8.113,6.028-18.327,13.1-18.367,4.637-.038,7.839,4.071,9.737,8.56,1.881,4.473,2.964,9.6,5.644,13.387s7.733,5.885,12.113,2.876c6.221-4.264,6.12-14.019,8.538-21.642a26.194,26.194,0,0,1,4.867-8.794,14.5,14.5,0,0,1,16.5-4.251c5.891,2.155,10.421,7.732,9.29,14.994a26.137,26.137,0,0,1-3.379,9.4c-4.169,6.925-11.654,13.494-10.648,20.78.672,5.137,5.741,7.25,10.453,6.55,4.728-.716,9.352-3.455,14.044-5.2,4.709-1.727,10.027-2.308,13.173.98,4.8,5.013,1.3,16.365-5.053,21.748s-14.091,6.3-21.2,6.466c-3.174.073-6.412.049-9.6,1.383s-6.371,4.342-7.225,8.071c-1.289,5.476,3.081,9.554,7.715,9.673,4.619.1,9.437-2.442,14.146-4.168,4.725-1.711,10.078-2.482,13.275.759,4.77,4.824,1.384,16.034-4.85,21.277-6.251,5.226-13.857,5.955-20.76,5.777-4.75-.136-9.594-.559-14.421,1.372-4.81,1.946-9.629,7.08-9.965,12.662-.419,6.843,5.947,10.361,11.893,9.6,5.945-.733,11.829-4.338,17.8-6,5.958-1.679,12.867-.7,14.811,5.245,1.281,3.881-.018,8.932-2.455,12.958A39.6,39.6,0,0,1,146.005,3279.762Z" transform="translate(-9.193 -3114.525)" fill="#83ad1d"/>
          <path id="Trazado_652570" data-name="Trazado 652570" d="M57.6,3295.577c-11.773-4.908-23.24-16.9-23.24-16.9-14.58-12.816-23.685-33.126-25.046-55.913a36.933,36.933,0,0,1,1.161-13.336c1.374-4.466,4.358-8.816,8.179-10.584,5.856-2.706,11.308,1.51,14.116,6.83,2.791,5.3,4.086,11.885,7.56,16.582,3.489,4.682,10.516,6.739,15.447,1.781,4.016-4.071,4.632-10.943,2.82-15.636-1.8-4.708-5.438-7.813-8.783-11.042-4.854-4.714-9.5-10.562-9.769-18.533-.275-7.941,5.94-17.965,12.878-17.913,4.652.041,7.72,4.339,9.634,8.812s3.262,9.571,6.492,12.75a8.345,8.345,0,0,0,12.626-1.188A11.775,11.775,0,0,0,82.9,3170.7c-1.176-3.139-3.4-5.391-5.523-7.674-4.717-5.091-9.307-11.143-9.529-19.289-.223-8.113,6.028-18.327,13.1-18.367,4.637-.038,7.839,4.071,9.737,8.56,1.881,4.473,2.964,9.6,5.644,13.387s7.733,5.885,12.113,2.876c6.221-4.264,6.12-14.019,8.538-21.642a26.194,26.194,0,0,1,4.867-8.794,14.5,14.5,0,0,1,16.5-4.251Z" transform="translate(-9.193 -3114.525)" fill="#83ad1d" style="mix-blend-mode: multiply;isolation: isolate"/>
          <path id="Trazado_652571" data-name="Trazado 652571" d="M81.767,3244.3q4.59-9.883,9.1-19.8l14.812-1.291c5.129-.46,10.263-.867,15.388-1.376l15.38-1.469c5.122-.539,10.248-1.031,15.367-1.609-5.146.278-10.284.643-15.426.962l-15.413,1.1c-5.14.348-10.269.8-15.4,1.194l-14.08,1.124q4.233-9.276,8.472-18.549,4.917-11.02,9.869-22.026c4.357-.519,8.706-1.1,13.059-1.639,4.536-.586,9.077-1.129,13.608-1.75l13.594-1.854c4.525-.665,9.056-1.288,13.575-2-4.56.4-9.109.89-13.663,1.336l-13.644,1.479c-4.548.488-9.086,1.056-13.629,1.581-4.094.49-8.191.955-12.282,1.462q3.682-8.223,7.323-16.466l8.768-19.994c2.863-6.69,5.782-13.356,8.594-20.067-3.19,6.553-6.273,13.152-9.412,19.726l-9.237,19.8q-3.785,8.142-7.507,16.31c-4.375-6.4-8.7-12.834-13.136-19.195L88.8,3151.178c-2.387-3.349-4.739-6.719-7.16-10.046,2.172,3.482,4.412,6.921,6.618,10.382l6.731,10.313c4.387,6.73,8.9,13.382,13.347,20.075q-5.023,10.995-10.047,21.988-4.155,9.305-8.335,18.6l-8.568-10.55c-3.136-3.848-6.239-7.719-9.417-11.537l-9.491-11.482c-3.2-3.8-6.368-7.626-9.6-11.4,2.991,3.955,6.052,7.86,9.076,11.791l9.188,11.708c3.049,3.912,6.171,7.77,9.261,11.652l8.938,11.19q-4.458,9.94-8.862,19.9l-8.769,19.994q-1.953,4.567-3.926,9.124l-10.12-12.806c-3.517-4.441-7.006-8.9-10.567-13.312L36.454,3233.5c-3.584-4.393-7.133-8.811-10.751-13.179,3.374,4.545,6.816,9.04,10.223,13.56l10.334,13.48c3.431,4.5,6.933,8.954,10.407,13.426L67.105,3274.2l.072.092q-2.049,4.759-4.062,9.536,2.274-4.669,4.489-9.36l.11-.01,17.777-1.639c5.924-.562,11.854-1.068,17.774-1.677l17.765-1.77c5.917-.639,11.838-1.232,17.751-1.911-5.942.378-11.876.843-17.814,1.26l-17.8,1.4c-5.936.449-11.861,1-17.792,1.5l-17.116,1.475q2.133-4.5,4.271-8.991Z" transform="translate(-9.193 -3114.932)" fill="#734c2f"/>
        </g>
      </g>
    </g>
    <rect id="Rect치ngulo_309000" data-name="Rect치ngulo 309000" width="1205.434" height="1639.504" transform="translate(61.22 1651.786)" fill="none"/>
  </g>
</svg>
