<svg xmlns="http://www.w3.org/2000/svg" width="352.386" height="271.16" viewBox="0 0 352.386 271.16">
  <g id="Grupo_1098764" data-name="Grupo 1098764" transform="translate(-202.807 -393.981)">
    <g id="Grupo_1055234" data-name="Grupo 1055234" transform="translate(-586.925 265.754)">
      <g id="Grupo_949631" data-name="Grupo 949631" transform="translate(814.386 128.227)">
        <path id="Trazado_626470" data-name="Trazado 626470" d="M1083.35,145.179l73.3-.113s-3.651-4.74-7.671-5.327c0,0-7.849-23.253-20.934-23.4-12.164-.135-17.018,14.335-17.018,14.335s-5.645-6.478-11.025-3.5-8.415,11.471-8.415,11.471S1085.541,141.913,1083.35,145.179Z" transform="translate(-862.299 -101.146)" fill="#beb2e9"/>
        <path id="Trazado_626471" data-name="Trazado 626471" d="M911.859,166.662l-92.7.142s-.008-5.924,12.761-7.1c0,0,11.62-25.9,29.425-22.454,11.089,2.148,16.779,17.36,16.779,17.36s8.358-11.99,15.063-9.682,10.7,15.052,10.7,15.052S910.807,163.315,911.859,166.662Z" transform="translate(-819.16 -104.508)" fill="#beb2e9"/>
        <path id="Trazado_626472" data-name="Trazado 626472" d="M1052.482,156.876l-63.032.1s5.939-5.546,8.583-5.55,10.332-18.6,20.192-17.827,15.113,14.609,15.113,14.609S1045.316,144.43,1052.482,156.876Z" transform="translate(-846.966 -103.96)" fill="#beb2e9"/>
        <path id="Trazado_626473" data-name="Trazado 626473" d="M985.334,119.287l-53.9.082s2.674-3.493,5.629-3.934c0,0,5.72-17.116,15.341-17.253,8.944-.127,12.546,10.5,12.546,10.5s4.136-4.776,8.1-2.6,6.213,8.415,6.213,8.415S983.715,116.89,985.334,119.287Z" transform="translate(-837.492 -98.181)" fill="#beb2e9"/>
      </g>
      <g id="Grupo_949642" data-name="Grupo 949642" transform="translate(795.044 159.375)">
        <g id="Grupo_949636" data-name="Grupo 949636">
          <g id="Grupo_949632" data-name="Grupo 949632" transform="translate(26.848 53.917)">
            <path id="Trazado_626474" data-name="Trazado 626474" d="M841.157,403.656,828.13,403.6l3.535-99.137,2.356-66.025,2.8.013,1.738,66.043Z" transform="translate(-828.13 -238.434)" fill="#c4bbe5"/>
            <path id="Trazado_626475" data-name="Trazado 626475" d="M838.724,277.009l-5.2-.023,1.375-38.553,2.8.015Z" transform="translate(-829.012 -238.434)" fill="#463091"/>
          </g>
          <g id="Grupo_949635" data-name="Grupo 949635">
            <g id="Grupo_949633" data-name="Grupo 949633" transform="translate(28.534 48.846)">
              <path id="Trazado_626476" data-name="Trazado 626476" d="M840.733,237.5a5.3,5.3,0,1,0-5.116,5.469A5.357,5.357,0,0,0,840.733,237.5Z" transform="translate(-830.144 -232.374)" fill="#34246d"/>
              <path id="Trazado_626477" data-name="Trazado 626477" d="M839.36,237.894a3.59,3.59,0,1,0-3.468,3.707A3.629,3.629,0,0,0,839.36,237.894Z" transform="translate(-830.477 -232.707)" fill="#fff"/>
            </g>
            <g id="Grupo_949634" data-name="Grupo 949634">
              <path id="Trazado_626478" data-name="Trazado 626478" d="M842.611,236.279s55.251-3.3,58.6-.82c2.191,1.622-48.51,7.586-50.993,7.443s-7.655-4.993-7.655-4.993Z" transform="translate(-803.638 -183.881)" fill="#583cb6"/>
              <path id="Trazado_626479" data-name="Trazado 626479" d="M826.057,224.463s-30.481-46.2-30.009-50.339c.309-2.708,30.825,38.219,31.942,40.44s-.5,9.126-.5,9.126Z" transform="translate(-796.043 -173.995)" fill="#583cb6"/>
              <path id="Trazado_626480" data-name="Trazado 626480" d="M829.648,244.57s-24.768,49.5-28.59,51.157c-2.5,1.087,17.686-45.8,19.05-47.883s8.152-4.133,8.152-4.133Z" transform="translate(-796.827 -185.379)" fill="#583cb6"/>
            </g>
          </g>
        </g>
        <g id="Grupo_949641" data-name="Grupo 949641" transform="translate(238.294 4.276)">
          <g id="Grupo_949637" data-name="Grupo 949637" transform="translate(42.714 59.595)">
            <path id="Trazado_626481" data-name="Trazado 626481" d="M1144.132,405.6l-12.242-.055,3.322-93.165,2.214-62.047,2.634.012,1.633,62.065Z" transform="translate(-1131.89 -250.331)" fill="#c4bbe5"/>
            <path id="Trazado_626482" data-name="Trazado 626482" d="M1141.846,286.582l-4.884-.021,1.292-36.23,2.635.014Z" transform="translate(-1132.718 -250.33)" fill="#463091"/>
          </g>
          <g id="Grupo_949640" data-name="Grupo 949640">
            <g id="Grupo_949638" data-name="Grupo 949638" transform="translate(44.295 54.861)">
              <path id="Trazado_626483" data-name="Trazado 626483" d="M1143.213,251.757a4.976,4.976,0,1,0-6.642,2.327A5.033,5.033,0,0,0,1143.213,251.757Z" transform="translate(-1133.78 -244.672)" fill="#34246d"/>
              <path id="Trazado_626484" data-name="Trazado 626484" d="M1142.08,251.372a3.374,3.374,0,1,0-4.5,1.577A3.411,3.411,0,0,0,1142.08,251.372Z" transform="translate(-1134.091 -244.982)" fill="#fff"/>
            </g>
            <g id="Grupo_949639" data-name="Grupo 949639">
              <path id="Trazado_626485" data-name="Trazado 626485" d="M1145.581,251.491s47.448,21.313,49.157,24.835c1.119,2.3-43.7-14.807-45.707-16.007s-4.2-7.492-4.2-7.492Z" transform="translate(-1091.288 -190.925)" fill="#583cb6"/>
              <path id="Trazado_626486" data-name="Trazado 626486" d="M1137.112,234.163s-5.266-51.747-3.071-54.989c1.437-2.121,9.028,45.25,8.991,47.586s-4.388,7.384-4.388,7.384Z" transform="translate(-1089.44 -179.105)" fill="#583cb6"/>
              <path id="Trazado_626487" data-name="Trazado 626487" d="M1127.052,254.678s-42.18,30.435-46.086,30.153c-2.554-.183,34.674-30.443,36.716-31.579s8.589.108,8.589.108Z" transform="translate(-1080.84 -191.134)" fill="#583cb6"/>
            </g>
          </g>
        </g>
      </g>
      <g id="Grupo_949667" data-name="Grupo 949667" transform="translate(789.925 326.733)">
        <g id="Grupo_949648" data-name="Grupo 949648" transform="translate(267.584)">
          <g id="Grupo_949647" data-name="Grupo 949647">
            <g id="Grupo_949643" data-name="Grupo 949643" transform="translate(10.663 3.179)">
              <path id="Trazado_655339" data-name="Trazado 655339" d="M0,0H5.065V29.623H0Z" transform="translate(0 18.969)" fill="#8879bd"/>
              <rect id="Rectángulo_306430" data-name="Rectángulo 306430" width="5.065" height="29.623" transform="translate(38.898 18.975)" fill="#8879bd"/>
              <path id="Trazado_655342" data-name="Trazado 655342" d="M0,0H5.076V48.6H0Z" transform="translate(59.566)" fill="#8879bd"/>
              <rect id="Rectángulo_306432" data-name="Rectángulo 306432" width="5.065" height="16.061" transform="translate(0.001 18.969)" fill="#594894"/>
              <path id="Trazado_655341" data-name="Trazado 655341" d="M0,0H5.065V16.062H0Z" transform="translate(38.899 18.975)" fill="#594894"/>
              <rect id="Rectángulo_306434" data-name="Rectángulo 306434" width="5.076" height="35.039" transform="translate(59.567)" fill="#594894"/>
            </g>
            <g id="Grupo_949646" data-name="Grupo 949646">
              <path id="Trazado_626488" data-name="Trazado 626488" d="M1172.212,405.952l-62.483-.009,21.933-31.93,62.483.009Z" transform="translate(-1109.729 -374.014)" fill="#8879bd"/>
              <path id="Trazado_626489" data-name="Trazado 626489" d="M1189.215,377.813l-4.671,6.808-2.478,3.618-4.079,5.942-.614.91-5.7,8.309-54.62-.008,8.455-12.333.625-.9,3.5-5.109,2.478-3.618,1.3-1.908.625-.9.559-.822Z" transform="translate(-1110.925 -374.633)" fill="#455a64"/>
              <g id="Grupo_949644" data-name="Grupo 949644" transform="translate(12.855 1.006)">
                <rect id="Rectángulo_306435" data-name="Rectángulo 306435" width="35.502" height="1.096" transform="matrix(0.566, -0.824, 0.824, 0.566, 8.132, 29.256)" fill="#dcdcdc"/>
                <rect id="Rectángulo_306436" data-name="Rectángulo 306436" width="35.502" height="1.096" transform="matrix(0.566, -0.824, 0.824, 0.566, 28.461, 29.259)" fill="#dcdcdc"/>
                <rect id="Rectángulo_306437" data-name="Rectángulo 306437" width="57.375" height="1.096" transform="translate(0 14.392)" fill="#dcdcdc"/>
              </g>
              <g id="Grupo_949645" data-name="Grupo 949645" transform="translate(14.58 3.175)" opacity="0.2">
                <path id="Trazado_626490" data-name="Trazado 626490" d="M1146.415,405.807h-1.908l-17.353-12.336.625-.9Z" transform="translate(-1127.154 -380.219)" fill="#fff"/>
                <path id="Trazado_626491" data-name="Trazado 626491" d="M1185.013,394.18l-.614.91-24.315-17.282h1.886Z" transform="translate(-1132.531 -377.809)" fill="#fff"/>
                <path id="Trazado_626492" data-name="Trazado 626492" d="M1172.089,403.559H1170.2l-33.6-23.872.625-.9Z" transform="translate(-1128.697 -377.969)" fill="#fff"/>
                <path id="Trazado_626493" data-name="Trazado 626493" d="M1165.474,404.106H1157.9l-25.816-18.346,2.478-3.618Z" transform="translate(-1127.959 -378.516)" fill="#fff"/>
                <path id="Trazado_626494" data-name="Trazado 626494" d="M1194.369,384.622l-2.478,3.618-14.668-10.428h7.565Z" transform="translate(-1135.33 -377.809)" fill="#fff"/>
              </g>
            </g>
          </g>
        </g>
        <g id="Grupo_949654" data-name="Grupo 949654">
          <g id="Grupo_949653" data-name="Grupo 949653">
            <g id="Grupo_949649" data-name="Grupo 949649" transform="translate(10.663 3.179)">
              <rect id="Rectángulo_306438" data-name="Rectángulo 306438" width="5.065" height="29.623" transform="translate(0 18.969)" fill="#8879bd"/>
              <rect id="Rectángulo_306439" data-name="Rectángulo 306439" width="5.065" height="29.623" transform="translate(38.898 18.975)" fill="#8879bd"/>
              <path id="Trazado_655336" data-name="Trazado 655336" d="M0,0H5.076V48.6H0Z" transform="translate(59.566)" fill="#8879bd"/>
              <path id="Trazado_655338" data-name="Trazado 655338" d="M0,0H5.065V16.061H0Z" transform="translate(0.001 18.969)" fill="#594894"/>
              <rect id="Rectángulo_306442" data-name="Rectángulo 306442" width="5.065" height="16.062" transform="translate(38.899 18.975)" fill="#594894"/>
              <rect id="Rectángulo_306443" data-name="Rectángulo 306443" width="5.076" height="35.039" transform="translate(59.567)" fill="#594894"/>
            </g>
            <g id="Grupo_949652" data-name="Grupo 949652">
              <path id="Trazado_626495" data-name="Trazado 626495" d="M852.408,405.952l-62.483-.009,21.933-31.93,62.483.009Z" transform="translate(-789.925 -374.014)" fill="#8879bd"/>
              <path id="Trazado_626496" data-name="Trazado 626496" d="M869.411,377.813l-4.671,6.808-2.478,3.618-4.079,5.942-.614.91-5.7,8.309-54.62-.008,8.455-12.333.625-.9,3.5-5.109,2.478-3.618,1.3-1.908.625-.9.559-.822Z" transform="translate(-791.12 -374.633)" fill="#455a64"/>
              <g id="Grupo_949650" data-name="Grupo 949650" transform="translate(12.855 1.006)">
                <rect id="Rectángulo_306444" data-name="Rectángulo 306444" width="35.502" height="1.096" transform="matrix(0.566, -0.824, 0.824, 0.566, 8.132, 29.256)" fill="#dcdcdc"/>
                <rect id="Rectángulo_306445" data-name="Rectángulo 306445" width="35.502" height="1.096" transform="matrix(0.566, -0.824, 0.824, 0.566, 28.461, 29.259)" fill="#dcdcdc"/>
                <rect id="Rectángulo_306446" data-name="Rectángulo 306446" width="57.375" height="1.096" transform="translate(0 14.392)" fill="#dcdcdc"/>
              </g>
              <g id="Grupo_949651" data-name="Grupo 949651" transform="translate(14.58 3.175)" opacity="0.2">
                <path id="Trazado_626497" data-name="Trazado 626497" d="M826.611,405.807H824.7L807.35,393.47l.625-.9Z" transform="translate(-807.35 -380.219)" fill="#fff"/>
                <path id="Trazado_626498" data-name="Trazado 626498" d="M865.209,394.18l-.614.91L840.28,377.809h1.886Z" transform="translate(-812.727 -377.809)" fill="#fff"/>
                <path id="Trazado_626499" data-name="Trazado 626499" d="M852.285,403.559H850.4l-33.6-23.872.625-.9Z" transform="translate(-808.893 -377.969)" fill="#fff"/>
                <path id="Trazado_626500" data-name="Trazado 626500" d="M845.67,404.106h-7.576L812.278,385.76l2.478-3.618Z" transform="translate(-808.155 -378.516)" fill="#fff"/>
                <path id="Trazado_626501" data-name="Trazado 626501" d="M874.565,384.622l-2.478,3.618-14.668-10.428h7.565Z" transform="translate(-815.526 -377.809)" fill="#fff"/>
              </g>
            </g>
          </g>
        </g>
        <g id="Grupo_949660" data-name="Grupo 949660" transform="translate(67.061)">
          <g id="Grupo_949659" data-name="Grupo 949659">
            <g id="Grupo_949655" data-name="Grupo 949655" transform="translate(10.663 3.179)">
              <rect id="Rectángulo_306447" data-name="Rectángulo 306447" width="5.065" height="29.623" transform="translate(0 18.969)" fill="#8879bd"/>
              <rect id="Rectángulo_306448" data-name="Rectángulo 306448" width="5.065" height="29.623" transform="translate(38.898 18.975)" fill="#dcdcdc"/>
              <rect id="Rectángulo_306449" data-name="Rectángulo 306449" width="5.076" height="48.601" transform="translate(59.566)" fill="#dcdcdc"/>
              <path id="Trazado_655337" data-name="Trazado 655337" d="M0,0H5.065V16.061H0Z" transform="translate(0.001 18.969)" fill="#594894"/>
              <rect id="Rectángulo_306451" data-name="Rectángulo 306451" width="5.065" height="16.062" transform="translate(38.899 18.975)" fill="#c8c8c8"/>
              <rect id="Rectángulo_306452" data-name="Rectángulo 306452" width="5.076" height="35.039" transform="translate(59.567)" fill="#c8c8c8"/>
            </g>
            <g id="Grupo_949658" data-name="Grupo 949658">
              <path id="Trazado_626502" data-name="Trazado 626502" d="M932.556,405.952l-62.483-.009,21.933-31.93,62.483.009Z" transform="translate(-870.074 -374.014)" fill="#8879bd"/>
              <path id="Trazado_626503" data-name="Trazado 626503" d="M949.559,377.813l-4.671,6.808-2.478,3.618-4.079,5.942-.614.91-5.7,8.309-54.62-.008,8.455-12.333.625-.9,3.5-5.109,2.478-3.618,1.3-1.908.625-.9.559-.822Z" transform="translate(-871.269 -374.633)" fill="#455a64"/>
              <g id="Grupo_949656" data-name="Grupo 949656" transform="translate(12.855 1.006)">
                <rect id="Rectángulo_306453" data-name="Rectángulo 306453" width="35.502" height="1.096" transform="matrix(0.566, -0.824, 0.824, 0.566, 8.132, 29.256)" fill="#dcdcdc"/>
                <rect id="Rectángulo_306454" data-name="Rectángulo 306454" width="35.502" height="1.096" transform="matrix(0.566, -0.824, 0.824, 0.566, 28.461, 29.259)" fill="#dcdcdc"/>
                <rect id="Rectángulo_306455" data-name="Rectángulo 306455" width="57.375" height="1.096" transform="translate(0 14.392)" fill="#dcdcdc"/>
              </g>
              <g id="Grupo_949657" data-name="Grupo 949657" transform="translate(14.58 3.175)" opacity="0.2">
                <path id="Trazado_626504" data-name="Trazado 626504" d="M906.759,405.807h-1.908L887.5,393.47l.625-.9Z" transform="translate(-887.498 -380.219)" fill="#fff"/>
                <path id="Trazado_626505" data-name="Trazado 626505" d="M945.357,394.18l-.614.91-24.315-17.282h1.886Z" transform="translate(-892.875 -377.809)" fill="#fff"/>
                <path id="Trazado_626506" data-name="Trazado 626506" d="M932.433,403.559h-1.886l-33.6-23.872.625-.9Z" transform="translate(-889.041 -377.969)" fill="#fff"/>
                <path id="Trazado_626507" data-name="Trazado 626507" d="M925.818,404.106h-7.576L892.426,385.76l2.478-3.618Z" transform="translate(-888.303 -378.516)" fill="#fff"/>
                <path id="Trazado_626508" data-name="Trazado 626508" d="M954.713,384.622l-2.478,3.618-14.668-10.428h7.565Z" transform="translate(-895.674 -377.809)" fill="#fff"/>
              </g>
            </g>
          </g>
        </g>
        <g id="Grupo_949666" data-name="Grupo 949666" transform="translate(200.368)">
          <g id="Grupo_949665" data-name="Grupo 949665">
            <g id="Grupo_949661" data-name="Grupo 949661" transform="translate(10.663 3.179)">
              <rect id="Rectángulo_306456" data-name="Rectángulo 306456" width="5.065" height="29.623" transform="translate(0 18.969)" fill="#dcdcdc"/>
              <rect id="Rectángulo_306457" data-name="Rectángulo 306457" width="5.065" height="29.623" transform="translate(38.898 18.975)" fill="#8879bd"/>
              <rect id="Rectángulo_306458" data-name="Rectángulo 306458" width="5.076" height="48.601" transform="translate(59.566)" fill="#8879bd"/>
              <rect id="Rectángulo_306459" data-name="Rectángulo 306459" width="5.065" height="16.061" transform="translate(0.001 18.969)" fill="#c8c8c8"/>
              <path id="Trazado_655340" data-name="Trazado 655340" d="M0,0H5.065V16.062H0Z" transform="translate(38.899 18.975)" fill="#594894"/>
              <rect id="Rectángulo_306461" data-name="Rectángulo 306461" width="5.076" height="35.039" transform="translate(59.567)" fill="#594894"/>
            </g>
            <g id="Grupo_949664" data-name="Grupo 949664">
              <path id="Trazado_626509" data-name="Trazado 626509" d="M1091.878,405.952l-62.483-.009,21.933-31.93,62.483.009Z" transform="translate(-1029.395 -374.014)" fill="#8879bd"/>
              <path id="Trazado_626510" data-name="Trazado 626510" d="M1108.881,377.813l-4.671,6.808-2.478,3.618-4.079,5.942-.614.91-5.7,8.309-54.62-.008,8.455-12.333.625-.9,3.5-5.109,2.478-3.618,1.3-1.908.625-.9.559-.822Z" transform="translate(-1030.591 -374.633)" fill="#455a64"/>
              <g id="Grupo_949662" data-name="Grupo 949662" transform="translate(12.855 1.006)">
                <rect id="Rectángulo_306462" data-name="Rectángulo 306462" width="35.502" height="1.096" transform="matrix(0.566, -0.824, 0.824, 0.566, 8.132, 29.256)" fill="#dcdcdc"/>
                <rect id="Rectángulo_306463" data-name="Rectángulo 306463" width="35.502" height="1.096" transform="translate(28.461 29.259) rotate(-55.491)" fill="#dcdcdc"/>
                <rect id="Rectángulo_306464" data-name="Rectángulo 306464" width="57.375" height="1.096" transform="translate(0 14.392)" fill="#dcdcdc"/>
              </g>
              <g id="Grupo_949663" data-name="Grupo 949663" transform="translate(14.58 3.175)" opacity="0.2">
                <path id="Trazado_626511" data-name="Trazado 626511" d="M1066.081,405.807h-1.908L1046.82,393.47l.625-.9Z" transform="translate(-1046.82 -380.219)" fill="#fff"/>
                <path id="Trazado_626512" data-name="Trazado 626512" d="M1104.679,394.18l-.614.91-24.315-17.282h1.886Z" transform="translate(-1052.197 -377.809)" fill="#fff"/>
                <path id="Trazado_626513" data-name="Trazado 626513" d="M1091.755,403.559h-1.886l-33.6-23.872.625-.9Z" transform="translate(-1048.363 -377.969)" fill="#fff"/>
                <path id="Trazado_626514" data-name="Trazado 626514" d="M1085.14,404.106h-7.576l-25.816-18.346,2.478-3.618Z" transform="translate(-1047.625 -378.516)" fill="#fff"/>
                <path id="Trazado_626515" data-name="Trazado 626515" d="M1114.035,384.622l-2.478,3.618-14.668-10.428h7.565Z" transform="translate(-1054.996 -377.809)" fill="#fff"/>
              </g>
            </g>
          </g>
        </g>
      </g>
      <path id="Trazado_626516" data-name="Trazado 626516" d="M1141.678,435.922H790.292" transform="translate(-0.06 -57.389)" fill="none" stroke="#34246d" stroke-linecap="round" stroke-linejoin="round" stroke-width="1"/>
      <ellipse id="Elipse_4711" data-name="Elipse 4711" cx="63.231" cy="7.725" rx="63.231" ry="7.725" transform="translate(902.694 383.936)" fill="#c4bbe5"/>
      <g id="Grupo_949670" data-name="Grupo 949670" transform="translate(856.798 174.13)">
        <path id="Trazado_626517" data-name="Trazado 626517" d="M1088.637,301.023a108.875,108.875,0,0,1-20.892,64.309l-.009.016a109.4,109.4,0,1,1-88.493-173.719q4.5,0,8.914.359a108.725,108.725,0,0,1,47.864,15.511,109.351,109.351,0,0,1,52.616,93.524Z" transform="translate(-869.849 -191.629)" fill="#f0bd51"/>
        <g id="Grupo_949668" data-name="Grupo 949668" transform="translate(18.651)" opacity="0.1">
          <path id="Trazado_626518" data-name="Trazado 626518" d="M1006.505,352.656c-1.379,3.677.919,3.83,1.073,5.362s0,4.443-4.443,8.886-11.8,3.524-13.33,5.362-4.137,9.652-7.814,12.257-4.29,1.073-9.5,2.145-9.193,7.813-10.725,11.031.307,8.58-3.37,8.733-5.362-7.814-8.734-12.1-4.443-8.12-5.516-13.176.613-15.628,0-19.765S932.5,349.9,928.52,344.842s-9.5-15.168-9.193-18.539a13.71,13.71,0,0,1,4.6-8.427c1.838-1.379,1.072-2.145,1.379-3.37s1.838-1.533,2.144-3.065-.92-6.128-2.452-6.895-2.6,1.839-3.523,1.379-3.677-3.677-4.75-3.984-.766,1.992-2.3-.919-2.3-10.266-3.523-11.491-2.145,2.145-5.056,0-4.137-6.281-5.362-6.895-2.911.153-4.17-2.3,1.106-6.9,0-6.435-3.49,3.984-4.1.612,3.064-14.709,2.452-20.837a24.485,24.485,0,0,1,5.822-17.773s.613-3.371,1.226-5.516,13.789-10.725,15.321-13.177a11.86,11.86,0,0,0,1.082-4.358,108.9,108.9,0,0,1,64.772-21.229q4.5,0,8.914.359c.1.141.2.275.307.407,1.326,1.685,2.758,2.758,6.64,4.189s4.8,3.267,3.984,4.8-2.145,1.838-3.677,1.943-2.963-.717-4.6.306-3.27,6.536-5.414,6.843-5.924-4.9-6.741-6.435,1.838-4.8.585-6.334-3.444-1.226-6.919-1.532-11.541,1.023-11.234,2.35,11.846-.205,12.152,2.452-8.475,7.149-10.008,6.741-3.576-3.064-5.822-3.371-4.087,1.533-5.5,1.738-3.079-1.532-5.224-1.125-2.657,2.246-3.781,2.963-3.779.715-4.085,2.348,3.371,2.555,4.29,3.575-1.125,4.5-.2,5.209,6.64-4.29,8.071-5.516,2.654-6.536,5.718-6.435,4.087,5.311,5.108,5.823,3.27-1.226,6.64-.512,5.718,8.072,6.331,10.318,2.044,4.5.818,5.414-6.741-.612-7.455-2.043,3.677-3.576,3.37-4.085-2.862-1.226-4.189-.426-1.94,2.467-3.37,2.877-5.209-3.883-6.23-2.657,1.021,5.108,2.041,6.028,4.8,1.428,5.108,2.452-2.552,3.267-6.027,3.064-6.331-2.862-7.661-1.738-.612,4.085-1.532,5.109-5.923.306-8.375,2.959-3.576,6.64-6.028,8.887-3.573-.613-6.842,2.555-3.779,10.213-3.883,12.664,0,4.391-.815,4.085-1.943-2.452-2.249-3.779.717-3.575.717-4.39-4.7-5.008-7.458-5.415-5.209,1.839-7.25,3.472-5.721,1.33-7.048,2.657-2.35,13.075-1.329,15.833,2.35,2.758,5.619,1.326,1.428-4.189,3.371-3.575a4.564,4.564,0,0,1,2.96,4.29c0,1.636-3.88,5.516-3.371,6.64s3.882-.206,5.516.306,2.452,1.532,1.943,5.721-.205,7.456,2.246,8.835,3.83-1.992,4.9-1.532,2.6,2.911,4.137,2.758.766-1.533,3.677-2.452,1.838-1.532,2.452-3.371,2.451-3.37,4.443-2.451.612,2.3.766,3.83,3.677,1.686,6.435,2.6,4.29,0,9.805,1.839,5.823,7.354,8.12,8.273,9.959-.613,15.475,3.37,3.984,11.338,6.741,13.483,13.023,5.056,17.006,5.823,4.6-1.992,7.814-1.226,5.056,1.685,6.128,6.128C1019.859,340.785,1007.884,348.979,1006.505,352.656Z" transform="translate(-892.139 -191.629)"/>
          <path id="Trazado_626519" data-name="Trazado 626519" d="M930.427,289.91c.1.867,2.656,1.226,5.72,2.962s4.188,6.843,5.822,6.741,1.124-2.452,1.736-3.064,1.635-1.941,0-3.268-3.225-4.189-6.208-4.6-3.495-1.634-4.823-1.532A2.311,2.311,0,0,0,930.427,289.91Z" transform="translate(-898.387 -207.226)"/>
          <path id="Trazado_626520" data-name="Trazado 626520" d="M950.545,300.217c-.455,1.252,0,2.145,3.268,2.962s6.333-.817,5.312-1.481-2.553-.357-1.94-1.481.4-2.758-2.249-2.451S950.953,299.094,950.545,300.217Z" transform="translate(-901.652 -208.954)"/>
          <path id="Trazado_626521" data-name="Trazado 626521" d="M964.011,301.1c-1.115.161-1.736,2.1-.612,3.328s1.124,1.022,2.452,0,3.37-1.53,2.86-2.552S965.134,300.938,964.011,301.1Z" transform="translate(-903.678 -209.488)"/>
          <path id="Trazado_626522" data-name="Trazado 626522" d="M974.856,305.983c.5-1.532,3.064-.027,4.188,1.607s.613,3.984,0,5.72-1.022,3.779-2.452,2.962.1-3.268-.1-4.7S974.447,307.236,974.856,305.983Z" transform="translate(-905.636 -210.197)"/>
          <path id="Trazado_626523" data-name="Trazado 626523" d="M1027.466,204.091c-.534,1.283,1.941,1.736,3.371,2.554s2.554,1.328,3.37,0a2.248,2.248,0,0,0-1.43-3.167C1031.655,203.171,1027.978,202.865,1027.466,204.091Z" transform="translate(-914.224 -193.519)"/>
          <path id="Trazado_626524" data-name="Trazado 626524" d="M1050.516,218.025c.943.994,2.554.817,3.677,2.247s.715,3.882,2.145,4.6,2.452,0,2.554-1.022-2.043-3.575-1.838-4.086,2.962.715,3.574,2.247-.612,3.677.818,4.086,1.124-1.43,1.736-1.839,1.941-.2,1.838-1.43a9.221,9.221,0,0,0-3.064-4.8,11.462,11.462,0,0,0-4.6-2.452,6.774,6.774,0,0,0-5.516.817C1050.72,217.31,1049.934,217.412,1050.516,218.025Z" transform="translate(-917.968 -195.503)"/>
          <path id="Trazado_626525" data-name="Trazado 626525" d="M1097.536,236.5a1.819,1.819,0,0,1-.576,1.075c-2.145,1.533-4.7-3.778-7.661-4.8s-4.29-4.8-4.9-3.984-.411,1.94-1.33,3.267-2.246,1.024-2.859,3.576,2.859,7.253,2.044,8.786-1.838,1.02-3.475.92-1.327,1.326-3.469.714-.309-3.27-3.68-6.435-4.495-3.778-3.775-5.209-.31-3.472,1.223-3.677,2.759,2.043,3.779,2.657,2.35-1.226,2.452-2.862-3.576-3.879-4.9-5.147-1.431-5.884-.919-6.8,2.043-.612,2.452-2.858c.238-1.321-1.852-3.528-3.616-5.121A109.9,109.9,0,0,1,1097.536,236.5Z" transform="translate(-920.797 -194.726)"/>
          <path id="Trazado_626526" data-name="Trazado 626526" d="M1114.1,334.738c.306-3.269-1.327-3.474.306-9.5s-1.734-12.462-2.959-13.789-3.882-.919-6.028.408-.612,2.35-2.044,2.858-2.858-.306-4.185-.2-2.556,3.471-5.414,3.37-4.7-4.189-6.843-7.1-6.539-4.75-7.967-8.326,1.327-9.088.714-13.277-3.37-3.27-3.882-5.617.411-1.226,1.125-3.475-.818-3.472.613-7.355,3.983-5.822,3.37-7.556-2.553-4.6-2.657-6.633,1.943-1.946,5.822-4.809,4.9-2.653,7.866-1.633a42.34,42.34,0,0,0,6.536,1.839c1.737.306,4.087,4.8,4.8,4.6s.818-1.532,1.125-3.471a4.323,4.323,0,0,1,1.274-2.2,109.46,109.46,0,0,1-4.321,122.227C1111.768,359.191,1113.79,338,1114.1,334.738Z" transform="translate(-922.104 -201.391)"/>
        </g>
        <path id="Trazado_626527" data-name="Trazado 626527" d="M1063.992,370.2a109.4,109.4,0,1,1-84.748-178.566q4.5,0,8.917.356c.814.064,1.628.14,2.436.228a100.24,100.24,0,1,0,73.4,177.981Z" transform="translate(-869.849 -191.629)" opacity="0.1"/>
        <path id="Trazado_626528" data-name="Trazado 626528" d="M1103.8,301.023A108.838,108.838,0,0,1,1082.9,365.33c0,.007-.006.013-.006.019a109.93,109.93,0,0,1-39.293,33.4,110.586,110.586,0,0,0,34.5-30.91c.006-.007.006-.013.012-.019a110.02,110.02,0,0,0-80.055-174.35c-2.951-.241-5.947-.362-8.961-.362a110.3,110.3,0,0,0-26.42,3.193,109.247,109.247,0,0,1,31.718-4.675q4.5,0,8.917.356A109.369,109.369,0,0,1,1103.8,301.023Z" transform="translate(-885.008 -191.629)" fill="#fff" opacity="0.3"/>
        <g id="Grupo_949669" data-name="Grupo 949669" transform="translate(8.812 23.661)" opacity="0.5">
          <path id="Trazado_626529" data-name="Trazado 626529" d="M886.86,276.046a2.41,2.41,0,0,0-3.281-.943c-1.891.877-2.725,2.9-2.969,4.9a3.7,3.7,0,0,0,.028,2.629,2.006,2.006,0,0,0,2.851.708,8.263,8.263,0,0,0,2.54-3.437C886.574,278.8,887.439,277.272,886.86,276.046Z" transform="translate(-880.381 -228.875)" fill="#fff"/>
          <path id="Trazado_626530" data-name="Trazado 626530" d="M891.292,265.964a1.791,1.791,0,0,0-2.014-.751,2.067,2.067,0,0,0-1.372,1.593,1.454,1.454,0,0,0-.017.241,2.258,2.258,0,0,0-.479,1.854,1.81,1.81,0,0,0,3.165.714C891.366,268.757,891.925,267.045,891.292,265.964Z" transform="translate(-881.521 -227.294)" fill="#fff"/>
          <path id="Trazado_626531" data-name="Trazado 626531" d="M892.855,273.048a1.636,1.636,0,0,0-1.217.492,1.193,1.193,0,0,0-.382.937,2.022,2.022,0,0,0-.264.655,1.222,1.222,0,0,0,.535,1.313,1.5,1.5,0,0,0,2.073-.415,2.8,2.8,0,0,0,.582-1.654A1.348,1.348,0,0,0,892.855,273.048Z" transform="translate(-882.109 -228.585)" fill="#fff"/>
          <path id="Trazado_626532" data-name="Trazado 626532" d="M897.864,258.225c-.358.269-.825.518-1,.94a1.655,1.655,0,0,0-.137.58,2.34,2.34,0,0,0-.275.995,1.137,1.137,0,0,0,1.423,1.084,2.6,2.6,0,0,0,1.816-2.555C899.675,258.435,898.631,257.65,897.864,258.225Z" transform="translate(-883.004 -226.132)" fill="#fff"/>
          <path id="Trazado_626533" data-name="Trazado 626533" d="M925.424,226.984a3.857,3.857,0,0,0-2.808,1.073,4.8,4.8,0,0,0-.592.6,3.575,3.575,0,0,0-.53.479,2.107,2.107,0,0,0-.193,2.84c.884.871,2.026.141,2.84-.412a6.423,6.423,0,0,0,2.241-2.288C926.871,228.31,926.636,227.164,925.424,226.984Z" transform="translate(-886.985 -221.059)" fill="#fff"/>
          <path id="Trazado_626534" data-name="Trazado 626534" d="M937.359,219.92a8.9,8.9,0,0,0-4.328,1.563c-.206.143-.422.3-.633.459l-.054.034c-.879.594-2.257,1.591-2.076,2.819a1.737,1.737,0,0,0,2.252,1.21,19.669,19.669,0,0,0,4.825-1.979c.956-.533,2.17-1.424,2.148-2.637C939.469,220.16,938.389,219.838,937.359,219.92Z" transform="translate(-888.524 -219.908)" fill="#fff"/>
          <path id="Trazado_626535" data-name="Trazado 626535" d="M932.218,229.558a2.244,2.244,0,0,0-2.257.569,1.51,1.51,0,0,0-.766.951,1.31,1.31,0,0,0,.882,1.451,1.811,1.811,0,0,0,1.648-.27c.459-.305,1.1-.652,1.259-1.215A1.257,1.257,0,0,0,932.218,229.558Z" transform="translate(-888.347 -221.465)" fill="#fff"/>
          <path id="Trazado_626536" data-name="Trazado 626536" d="M920.324,237.306a2.188,2.188,0,0,0-1.2-.177,1.674,1.674,0,0,0-1.5,2.369,1.5,1.5,0,0,0,1.717.735,2.688,2.688,0,0,0,1.406-1.326A1.177,1.177,0,0,0,920.324,237.306Z" transform="translate(-886.434 -222.716)" fill="#fff"/>
          <path id="Trazado_626537" data-name="Trazado 626537" d="M921.16,414.288a1.514,1.514,0,0,0-2.061.517,1.568,1.568,0,0,0,.372,1.932,2.786,2.786,0,0,0,.312.407,2.288,2.288,0,0,0,1.506.838,1.542,1.542,0,0,0,1.576-1.08C923.2,415.691,922.143,414.766,921.16,414.288Z" transform="translate(-886.673 -251.616)" fill="#fff"/>
          <path id="Trazado_626538" data-name="Trazado 626538" d="M930.381,415.91c-1-1.094-3.286-2.23-4.307-.6-.013.019-.018.04-.03.06a.891.891,0,0,0-.146.233,1.227,1.227,0,0,0-.091.571,2.531,2.531,0,0,0,.633,1.724,13.023,13.023,0,0,0,2.031,1.368,1.851,1.851,0,0,0,2.288-.832A2.175,2.175,0,0,0,930.381,415.91Z" transform="translate(-887.798 -251.681)" fill="#fff"/>
          <path id="Trazado_626539" data-name="Trazado 626539" d="M928.667,422.547a1.33,1.33,0,0,0-1.98-1.132,1.058,1.058,0,0,0-.379,1.444,5.122,5.122,0,0,0,.42.511,1.055,1.055,0,0,0,1.287.134A1.038,1.038,0,0,0,928.667,422.547Z" transform="translate(-887.856 -252.785)" fill="#fff"/>
          <path id="Trazado_626540" data-name="Trazado 626540" d="M934.158,423.82l0-.015a.841.841,0,0,0-.6-.6.179.179,0,0,1-.047-.014l.061.036a.819.819,0,0,0-.918.182l-.01.011a.9.9,0,0,0,.63,1.521h.033A.9.9,0,0,0,934.158,423.82Z" transform="translate(-888.875 -253.097)" fill="#fff"/>
          <path id="Trazado_626541" data-name="Trazado 626541" d="M1118.688,300.485c-.168-2.363-.563-6.2-2.822-7.538a1.319,1.319,0,0,0-1.444.172c-1.75,1.015-1.15,4.13-.995,5.6.2,1.943.107,5.329,2.6,5.863C1118.462,305.1,1118.808,302.175,1118.688,300.485Z" transform="translate(-918.398 -231.809)" fill="#fff"/>
          <path id="Trazado_626542" data-name="Trazado 626542" d="M1115.383,286.09a2.535,2.535,0,0,0-.761-1.842,1.48,1.48,0,0,0-1.982.064c-.956.934-.721,2.7-.024,3.7a1.269,1.269,0,0,0,1.856.355,1.311,1.311,0,0,0,.209-.2,1.48,1.48,0,0,0,.225-.2A2.568,2.568,0,0,0,1115.383,286.09Z" transform="translate(-918.202 -230.357)" fill="#fff"/>
          <path id="Trazado_626543" data-name="Trazado 626543" d="M1117.969,309.729c-1.2-.285-1.883.541-2.161,1.608a7.014,7.014,0,0,0,.074,3.969c.318.915.9,1.855,1.994,1.829a2.138,2.138,0,0,0,1.91-1.893C1120.119,313.587,1120.106,310.238,1117.969,309.729Z" transform="translate(-918.781 -234.565)" fill="#fff"/>
          <path id="Trazado_626544" data-name="Trazado 626544" d="M1113.393,307.5a1.378,1.378,0,0,0-1.151-.345.6.6,0,0,0-.484.1c-1.736.433-1.385,3.662.213,4.191C1114.142,312.174,1114.637,308.628,1113.393,307.5Z" transform="translate(-917.974 -234.151)" fill="#fff"/>
          <path id="Trazado_626545" data-name="Trazado 626545" d="M1111.688,370.17c-.982.223-1.494,1.184-1.889,2.029-.174.374-.372.8-.529,1.241a2.257,2.257,0,0,0,.021,2.594,2.1,2.1,0,0,0,2.462.511,3.685,3.685,0,0,0,1.744-2.237C1114,372.894,1114.107,369.624,1111.688,370.17Z" transform="translate(-917.69 -244.434)" fill="#fff"/>
          <path id="Trazado_626546" data-name="Trazado 626546" d="M1107.7,380.146a2.146,2.146,0,0,0-1.893,1.381c-.108.2-.21.407-.305.618a2.043,2.043,0,0,0-.4,1.588,1.267,1.267,0,0,0,.6,1.02,1.736,1.736,0,0,0,1.192.4,2.162,2.162,0,0,0,1.759-1.331,4.857,4.857,0,0,0,.6-1.907A1.672,1.672,0,0,0,1107.7,380.146Z" transform="translate(-917.069 -246.072)" fill="#fff"/>
          <path id="Trazado_626547" data-name="Trazado 626547" d="M1104.722,374.982a3.663,3.663,0,0,0-1.015,2.052,1.3,1.3,0,0,0,.6,1.549c1.636.842,2.515-1.492,2.552-2.715A1.264,1.264,0,0,0,1104.722,374.982Z" transform="translate(-916.838 -245.169)" fill="#fff"/>
          <path id="Trazado_626548" data-name="Trazado 626548" d="M1116.378,364.888a1.2,1.2,0,0,0-1.157.986,2.045,2.045,0,0,0-.285.425,1.292,1.292,0,0,0,.457,1.714,1.144,1.144,0,0,0,1.142,0,2.354,2.354,0,0,0,1.024-1.944A1.186,1.186,0,0,0,1116.378,364.888Z" transform="translate(-918.656 -243.581)" fill="#fff"/>
        </g>
      </g>
      <g id="Grupo_949671" data-name="Grupo 949671" transform="translate(852.907 218.255)">
        <path id="Trazado_626549" data-name="Trazado 626549" d="M1027.116,287.91a236.53,236.53,0,0,0,51.174-10.446,7.82,7.82,0,0,0-5.254-1.243c0-.025-5.355-10.812-14.464-8.791-8.478,1.823-11.922,10.072-11.917,10.1,0,0-3.955-2.786-7.751-.662s-5.951,6.921-5.951,6.926S1028.673,286.029,1027.116,287.91Z" transform="translate(-891.637 -248.09)" fill="#fff" opacity="0.7"/>
        <path id="Trazado_626550" data-name="Trazado 626550" d="M927.605,305.772A236.508,236.508,0,0,1,865.2,282.189c.015-.04-.039-3.082,8.268.529.01-.04,7.556-9.944,19.526-3.369,7.463,4.061,11.355,13.433,11.348,13.455s5.716-4.537,10.341-2c4.622,2.55,7.39,10.058,7.389,10.065S926.872,303.826,927.605,305.772Z" transform="translate(-865.198 -249.709)" fill="#fff"/>
        <path id="Trazado_626551" data-name="Trazado 626551" d="M1125.539,297.39a236.519,236.519,0,0,1-62.407,23.583c-.007-.041.019-3.082,8.872-5.97-.013-.04,8.114-15.876,20.182-18.357,7.5-1.58,11.258,4.911,11.264,4.932s5.588-8.8,9.982-9.676c4.4-.859,6.969,4.625,6.972,4.631S1124.873,295.978,1125.539,297.39Z" transform="translate(-897.518 -252.112)" fill="#fff"/>
        <path id="Trazado_626552" data-name="Trazado 626552" d="M1002.565,257.371a236.835,236.835,0,0,1-44.658-2.677c0,.008,4.189-2.341,6.055-2.114s7.315-9.053,14.307-8.155,10.71,8.334,10.709,8.35S997.491,250.9,1002.565,257.371Z" transform="translate(-880.336 -244.365)" fill="#fff"/>
        <path id="Trazado_626553" data-name="Trazado 626553" d="M977.159,442.04a236.664,236.664,0,0,1-44.331-6.705c0,.009,4.131-1.96,5.976-1.564s7.226-8.392,14.163-6.863,10.644,9.3,10.641,9.314C963.606,436.253,972.085,435.117,977.159,442.04Z" transform="translate(-876.241 -274.143)" fill="#fff"/>
        <path id="Trazado_626554" data-name="Trazado 626554" d="M924.96,372.523A236.368,236.368,0,0,1,888.3,359.979a5.082,5.082,0,0,1,3.754-.51c0-.013,3.825-7.545,10.34-5.239,6.064,2.114,8.536,8.546,8.531,8.563a5.331,5.331,0,0,1,5.56.311,15.224,15.224,0,0,1,4.276,5.737A22.681,22.681,0,0,1,924.96,372.523Z" transform="translate(-868.97 -262.233)" fill="#fff" opacity="0.7"/>
        <path id="Trazado_626555" data-name="Trazado 626555" d="M1037.812,421.652a236.455,236.455,0,0,0,50.838-12.422,7.482,7.482,0,0,0-5.2-1.036c-.005-.025-5.3-10.6-14.344-8.228-8.417,2.152-11.845,10.533-11.839,10.563,0,0-3.932-2.634-7.711-.364s-5.926,7.148-5.925,7.153S1039.364,419.712,1037.812,421.652Z" transform="translate(-893.384 -269.716)" fill="#fff" opacity="0.7"/>
      </g>
    </g>
  </g>
</svg>
