<svg xmlns="http://www.w3.org/2000/svg" width="82.672" height="71.022" viewBox="0 0 82.672 71.022">
  <g id="Grupo_1098716" data-name="Grupo 1098716" transform="translate(0 0)">
    <path id="Trazado_611447" data-name="Trazado 611447" d="M2591.933-263.693h-32.69c-5.119,0-8.56-3.424-8.561-8.522q0-26.992,0-53.983a8.074,8.074,0,0,1,8.484-8.516h65.7a8.066,8.066,0,0,1,8.479,8.439q.005,27.072,0,54.145a8.071,8.071,0,0,1-8.484,8.437Q2608.4-263.691,2591.933-263.693Zm-5.534-17.113c-.232,1.211-.726,1.617-2,1.617q-14.849,0-29.7-.011c-.587,0-.83.085-.814.763.051,2.15.013,4.3.02,6.453a4.84,4.84,0,0,0,5.077,5.061q33.048,0,66.1,0a4.833,4.833,0,0,0,5.036-5.02c.01-2.1-.033-4.2.021-6.292.019-.745-.124-.978-.935-.975-9.819.034-19.637.022-29.456.021-1.343,0-1.783-.342-2.1-1.616.321-1.265.769-1.611,2.108-1.612,7.695,0,15.389-.009,23.084.015.653,0,.838-.126.837-.815q-.036-20.495,0-40.989c0-.642-.11-.843-.809-.843q-30.873.033-61.746,0c-.659,0-.768.2-.767.8q.025,20.535,0,41.07c0,.647.181.776.793.774q11.622-.031,23.246-.013C2585.663-282.415,2586.16-282.009,2586.4-280.806Zm5.657-50.681H2559.28c-3.4,0-5.369,1.956-5.369,5.336q0,20.741,0,41.482c0,.721-.245,1.692.122,2.1.427.474,1.419.068,2.156.163.759.1.972-.13.97-.931q-.043-21.346-.021-42.692c0-1.757.479-2.227,2.261-2.227h65.229c1.784,0,2.262.47,2.262,2.228v40.917c0,.7.038,1.4-.012,2.1-.038.526.161.641.638.609a10.829,10.829,0,0,1,1.774,0c.651.064.848-.115.847-.812q-.035-21.508-.018-43.015c0-3.271-2-5.255-5.29-5.255Z" transform="translate(-2550.68 334.716)"/>
    <path id="Trazado_611448" data-name="Trazado 611448" d="M2606.627-260.59c-.239-1.2-.736-1.609-2.008-1.61q-11.623,0-23.246.013c-.612,0-.794-.127-.793-.774q.031-20.535,0-41.07c0-.6.108-.8.767-.8q30.873.031,61.746,0c.7,0,.809.2.809.843q-.03,20.495,0,40.989c0,.688-.184.817-.837.815-7.695-.025-15.389-.017-23.084-.015-1.338,0-1.786.347-2.108,1.612h-3.986c-.208-1.038-.748-1.582-1.59-1.6s-1.41.51-1.689,1.6Zm5.569-4.839a18.1,18.1,0,0,0,18.133-18.053,18.1,18.1,0,0,0-18-18.105,18.1,18.1,0,0,0-18.172,18.011A18.1,18.1,0,0,0,2612.2-265.428Z" transform="translate(-2570.908 314.5)" fill="#e2f4fa"/>
    <path id="Trazado_611449" data-name="Trazado 611449" d="M2600.38-168.07h3.987c.313,1.274.754,1.616,2.1,1.616,9.819,0,19.638.012,29.456-.021.811,0,.955.23.935.975-.054,2.1-.011,4.195-.021,6.292a4.833,4.833,0,0,1-5.036,5.02q-33.048,0-66.1,0a4.84,4.84,0,0,1-5.077-5.061c-.007-2.151.031-4.3-.02-6.453-.016-.678.227-.764.814-.763q14.849.024,29.7.011c1.27,0,1.764-.405,2-1.617h3.987c.275,1.115.822,1.637,1.691,1.616S2600.176-167.012,2600.38-168.07Zm2.618,9.365h26.154a6.878,6.878,0,0,0,.726-.009,1.618,1.618,0,0,0,1.463-1.561,1.617,1.617,0,0,0-1.385-1.631,5.986,5.986,0,0,0-.886-.026h-27.042q-12.754,0-25.508,0c-.37,0-.7.06-.858-.455a1.412,1.412,0,0,0-1.477-1.023,1.436,1.436,0,0,0-1.478,1.025c-.128.389-.33.463-.7.458q-2.058-.027-4.116,0a1.634,1.634,0,0,0-1.776,1.583,1.628,1.628,0,0,0,1.794,1.639c1.318.01,2.637.014,3.955,0,.435-.006.716.042.878.55a1.39,1.39,0,0,0,1.448.944,1.342,1.342,0,0,0,1.4-.885c.181-.6.524-.608,1-.608Q2589.8-158.7,2603-158.705Z" transform="translate(-2557.395 221.98)" fill="#83b1f8"/>
    <path id="Trazado_611450" data-name="Trazado 611450" d="M2598.648-324.735h32.776c3.29,0,5.289,1.984,5.289,5.255q0,21.508.018,43.015c0,.7-.2.875-.847.812a10.826,10.826,0,0,0-1.774,0c-.477.032-.676-.083-.638-.609.05-.7.012-1.4.012-2.1v-40.917c0-1.757-.479-2.228-2.262-2.228h-65.229c-1.782,0-2.261.471-2.261,2.227q0,21.347.021,42.692c0,.8-.211,1.03-.97.931-.737-.1-1.73.311-2.156-.163-.367-.407-.122-1.377-.122-2.1q0-20.741,0-41.482c0-3.379,1.97-5.336,5.369-5.336Z" transform="translate(-2557.272 327.964)" fill="#83b1f8"/>
    <path id="Trazado_611451" data-name="Trazado 611451" d="M2640.59-258.641a18.1,18.1,0,0,1-18.037-18.147,18.1,18.1,0,0,1,18.172-18.011,18.1,18.1,0,0,1,18,18.105A18.1,18.1,0,0,1,2640.59-258.641Zm.067-3.23a14.872,14.872,0,0,0,14.835-14.829,14.864,14.864,0,0,0-14.874-14.869,14.867,14.867,0,0,0-14.834,14.828A14.87,14.87,0,0,0,2640.657-261.871Z" transform="translate(-2599.303 307.712)" fill="#030202"/>
    <path id="Trazado_611452" data-name="Trazado 611452" d="M2676.7-171.425q-.306,1.587-1.589,1.617c-.869.021-1.416-.5-1.691-1.616.28-1.094.839-1.626,1.689-1.6S2676.491-172.463,2676.7-171.425Z" transform="translate(-2633.714 225.334)" fill="#030202"/>
    <path id="Trazado_611453" data-name="Trazado 611453" d="M2614.529-148.959q-13.2,0-26.4-.006c-.481,0-.823.008-1,.608a1.342,1.342,0,0,1-1.4.885,1.39,1.39,0,0,1-1.449-.944c-.162-.508-.442-.556-.877-.55-1.318.018-2.637.014-3.955,0a1.628,1.628,0,0,1-1.794-1.639,1.634,1.634,0,0,1,1.776-1.583q2.057-.024,4.116,0c.365,0,.567-.07.7-.458a1.436,1.436,0,0,1,1.478-1.025,1.412,1.412,0,0,1,1.477,1.023c.156.515.488.455.858.455q12.754,0,25.508,0H2640.6a5.992,5.992,0,0,1,.886.026,1.617,1.617,0,0,1,1.385,1.631,1.618,1.618,0,0,1-1.463,1.561,6.877,6.877,0,0,1-.726.009Z" transform="translate(-2568.926 212.234)"/>
    <path id="Trazado_611454" data-name="Trazado 611454" d="M2647.414-255.117a14.87,14.87,0,0,1-14.873-14.871,14.868,14.868,0,0,1,14.834-14.828,14.864,14.864,0,0,1,14.874,14.869A14.871,14.871,0,0,1,2647.414-255.117Zm-6.484-15c0,1.829-.015,3.657,0,5.486a3.54,3.54,0,0,0,5.53,3.085q4.383-2.719,8.688-5.564a3.518,3.518,0,0,0,0-6.011c-2.872-1.891-5.782-3.725-8.684-5.57a3.4,3.4,0,0,0-3.67-.158,3.466,3.466,0,0,0-1.869,3.247Q2640.933-272.864,2640.93-270.121Z" transform="translate(-2606.06 300.958)" fill="#e37980"/>
    <path id="Trazado_611455" data-name="Trazado 611455" d="M2658.461-258.624q0-2.743,0-5.486a3.466,3.466,0,0,1,1.869-3.247,3.4,3.4,0,0,1,3.669.158c2.9,1.846,5.812,3.68,8.684,5.57a3.518,3.518,0,0,1,0,6.011q-4.3,2.845-8.688,5.564a3.54,3.54,0,0,1-5.53-3.085C2658.446-254.967,2658.461-256.8,2658.461-258.624Zm3.228,0c0,1.747,0,3.494,0,5.241,0,.231-.084.506.18.657s.454-.076.644-.2q4.037-2.577,8.067-5.166c.7-.452.707-.6.011-1.049q-4.028-2.591-8.066-5.167c-.67-.427-.832-.34-.836.44C2661.684-262.123,2661.689-260.376,2661.689-258.629Z" transform="translate(-2623.59 289.462)" fill="#030202"/>
    <path id="Trazado_611456" data-name="Trazado 611456" d="M2668.432-251.819c0-1.747,0-3.494,0-5.241,0-.78.166-.868.836-.44q4.038,2.575,8.066,5.167c.7.447.692.6-.011,1.049q-4.029,2.59-8.067,5.166c-.191.122-.374.353-.644.2s-.179-.426-.18-.657C2668.429-248.325,2668.432-250.072,2668.432-251.819Z" transform="translate(-2630.333 282.652)" fill="#f7f9fa"/>
  </g>
</svg>
