<svg xmlns="http://www.w3.org/2000/svg" width="125" height="125" viewBox="0 0 125 125">
  <g id="Grupo_980461" data-name="Grupo 980461" transform="translate(-746 -5248)">
    <path id="Trazado_626457" data-name="Trazado 626457" d="M62.5,0A62.5,62.5,0,1,1,0,62.5,62.5,62.5,0,0,1,62.5,0Z" transform="translate(746 5248)" fill="#ef8b53"/>
    <g id="co2" transform="translate(768.395 5270.357)">
      <g id="Grupo_949854" data-name="Grupo 949854" transform="translate(1.175 1.219)">
        <path id="Trazado_626899" data-name="Trazado 626899" d="M103.709,311.767h-.1A40.054,40.054,0,0,0,75.3,323.432h0l19.632,17.073,46.04-.119-2.158-6.036Z" transform="translate(-64.679 -264.106)" fill="#b2e5fb"/>
        <path id="Trazado_626900" data-name="Trazado 626900" d="M236.1,478.084a1.175,1.175,0,0,1-1.161,1H191.312l-.9,1.686,2.2,1.447h43.849a2.354,2.354,0,0,0,2.216-1.555l-1.081-2.477Z" transform="translate(-161.757 -404.368)" fill="#94d8e6"/>
        <path id="Trazado_626901" data-name="Trazado 626901" d="M36.249,393.21l-13.061-6.976h0a40.2,40.2,0,0,0-9.681,15.388l14.308,1.686,14.306-1.686-1.48-3.57A9.7,9.7,0,0,0,36.249,393.21Z" transform="translate(-12.565 -326.908)" fill="#acd980"/>
        <path id="Trazado_626902" data-name="Trazado 626902" d="M12.757,484.456l-.011.03a2.348,2.348,0,0,0,2.227,3.1h27.7l-1.3-3.133Z" transform="translate(-11.816 -409.742)" fill="#9cd169"/>
        <path id="Trazado_626903" data-name="Trazado 626903" d="M246.554,318.322a17.692,17.692,0,0,0,3.881,8.247,9.023,9.023,0,0,0,5.336,3.072c5.66.647,11.158.647,16.656.97a19.066,19.066,0,0,1,3.234.647,15.359,15.359,0,0,1,2.749,1.617l4.953,4.953s1.2.118,1.013-.85-4.014-9.3-9.617-14.954a40.031,40.031,0,0,0-26.709-10.251l-.2.4A9.1,9.1,0,0,0,246.554,318.322Z" transform="translate(-209.02 -264.113)" fill="#acd980"/>
        <path id="Trazado_626904" data-name="Trazado 626904" d="M438.315,394.038a40.232,40.232,0,0,0-11.191-16.832,40.122,40.122,0,0,1,8.569,15.287,1.169,1.169,0,0,1,.035.516l2.577,2.577A2.3,2.3,0,0,0,438.315,394.038Z" transform="translate(-361.385 -319.294)" fill="#9cd169"/>
        <path id="Trazado_626905" data-name="Trazado 626905" d="M11.559,57.195C20.3,47.6,32.3,42.155,46.3,42.155a49.25,49.25,0,0,1,35.956,15.7c.41-1.323,5.612-11.287-6.3-19.042.692-1.432,3.881-12-7.841-14.981a20.961,20.961,0,0,0-20.9-15.922A21.29,21.29,0,0,0,29.324,20.522c-.359-.023-.721-.037-1.086-.037A16.48,16.48,0,0,0,13.475,44.28,11.869,11.869,0,0,0,7.837,57.389a2.271,2.271,0,0,0,.7,1.172,5.307,5.307,0,0,0,3.023-1.366Z" transform="translate(-7.5 -7.855)" fill="#9bb9c3"/>
        <path id="Trazado_626906" data-name="Trazado 626906" d="M83.176,39.023a10.9,10.9,0,0,0-8.2-15.51A21.287,21.287,0,0,0,54.366,7.544q-.792,0-1.569.058A21.293,21.293,0,0,1,71.653,22.821a1.163,1.163,0,0,0,.866.815,10.907,10.907,0,0,1,7.925,14.448,1.184,1.184,0,0,0,.494,1.435,14.139,14.139,0,0,1,6.869,12.134c0,1.552-1.277,2.412-2.443,1.319-8.729-8.18-20.512-12.7-33.48-12.7-14.274,0-27.113,5.5-36.024,15.282a12.671,12.671,0,0,0-1.744,2.7,2.37,2.37,0,0,0,3.28-.14,47.783,47.783,0,0,1,68.643-.341,2.348,2.348,0,0,0,3.849-.75,14.162,14.162,0,0,0-6.711-17.995Z" transform="translate(-13.079 -7.544)" fill="#87a0af"/>
        <path id="Trazado_626907" data-name="Trazado 626907" d="M175.806,283c.484-.3.251-1.313.184-1.631l-3.274-3.358a1.175,1.175,0,0,0-1.683,0l-3.5,3.593a1.175,1.175,0,0,0-.268.429l2.169,1.567a4.7,4.7,0,0,1,1.1,3.76c-.313,1.567-1.253,2.663-1.723,4.23a7.793,7.793,0,0,0-.195,2.493l2.841,1.684c.12-1.273,2.931-5.667,2.972-9.128C174.445,284.84,171.684,282.69,175.806,283Z" transform="translate(-142.234 -235.341)" fill="#df646e"/>
        <path id="Trazado_626908" data-name="Trazado 626908" d="M167.551,305.589h-.645a1.177,1.177,0,0,0,1.109,1.567h1.06l-.679-1.1A1,1,0,0,0,167.551,305.589Z" transform="translate(-141.878 -258.897)" fill="#ca4646"/>
        <path id="Trazado_626909" data-name="Trazado 626909" d="M183.472,301.592l-.229-.235a.549.549,0,0,1-.537.663h-3.717a.548.548,0,0,0-.448.864l.494.7a7.164,7.164,0,0,1,.783,5.64c-.43,1.576-1.514,2.889-1.817,4.42a.542.542,0,0,1-.538.431l-1.6-.009a9.293,9.293,0,0,0,.511,2.378,1.163,1.163,0,0,0,.922.755,1.182,1.182,0,0,0,.18.014h2a1.172,1.172,0,0,0,1.108-1.563,4.66,4.66,0,0,1-.293-1.57c.157-1.723,1.41-3.133,1.88-4.857a7.164,7.164,0,0,0-.783-5.64h1.245A1.175,1.175,0,0,0,183.472,301.592Z" transform="translate(-149.488 -255.328)" fill="#ca4646"/>
        <path id="Trazado_626910" data-name="Trazado 626910" d="M295.047,283c.484-.3.251-1.313.184-1.631l-3.274-3.358a1.175,1.175,0,0,0-1.683,0l-3.5,3.593a1.176,1.176,0,0,0-.268.429l2.169,1.567a4.7,4.7,0,0,1,1.1,3.76c-.313,1.567-1.253,2.663-1.723,4.23a7.793,7.793,0,0,0-.195,2.493l2.841,1.684c.12-1.273,2.931-5.667,2.972-9.128C293.686,284.84,290.925,282.69,295.047,283Z" transform="translate(-242.795 -235.341)" fill="#df646e"/>
        <g id="Grupo_949853" data-name="Grupo 949853" transform="translate(43.643 46.029)">
          <path id="Trazado_626911" data-name="Trazado 626911" d="M286.791,305.589h-.645a1.177,1.177,0,0,0,1.109,1.567h1.06l-.679-1.1a1,1,0,0,0-.845-.471Z" transform="translate(-286.08 -304.926)" fill="#ca4646"/>
          <path id="Trazado_626912" data-name="Trazado 626912" d="M302.712,301.592l-.229-.235a.549.549,0,0,1-.537.663h-3.717a.548.548,0,0,0-.448.864l.494.7a7.164,7.164,0,0,1,.783,5.64c-.43,1.576-1.514,2.889-1.817,4.42a.542.542,0,0,1-.538.431l-1.6-.009a9.293,9.293,0,0,0,.511,2.378,1.163,1.163,0,0,0,.922.755,1.182,1.182,0,0,0,.18.014h2a1.172,1.172,0,0,0,1.108-1.563,4.66,4.66,0,0,1-.293-1.57c.157-1.723,1.41-3.133,1.88-4.857a7.164,7.164,0,0,0-.783-5.64h1.245A1.175,1.175,0,0,0,302.712,301.592Z" transform="translate(-293.69 -301.357)" fill="#ca4646"/>
        </g>
      </g>
      <g id="Grupo_949855" data-name="Grupo 949855" transform="translate(0 0.044)">
        <path id="Trazado_626913" data-name="Trazado 626913" d="M75.665,289.773a1.175,1.175,0,1,0-1.775,1.54,38.823,38.823,0,0,1,6.41,10.235l-4.6-4.6a1.182,1.182,0,0,0-.1-.087,16.314,16.314,0,0,0-2.958-1.751,1.158,1.158,0,0,0-.154-.064,20.024,20.024,0,0,0-3.44-.7c-.032,0-.065-.008-.1-.01-1.856-.109-3.74-.183-5.562-.254-3.587-.14-7.3-.285-11.006-.708a7.838,7.838,0,0,1-4.6-2.669,16.524,16.524,0,0,1-3.615-7.661,7.814,7.814,0,0,1,1.039-5.186c1.31.026,2.618.113,3.9.268a2.348,2.348,0,0,0,1.18.318h.476a3.562,3.562,0,0,1,.518,2.4,8.126,8.126,0,0,1-.79,1.968,12.617,12.617,0,0,0-.9,2.106c-.005.017-.01.035-.014.053a9.747,9.747,0,0,0,.349,5.549,2.344,2.344,0,0,0,2.21,1.551h2a2.347,2.347,0,0,0,2.214-3.135,3.543,3.543,0,0,1-.224-1.12A7.1,7.1,0,0,1,57,285.539a12.141,12.141,0,0,0,.974-2.315l.006-.024a9.193,9.193,0,0,0,.267-2.821,38.752,38.752,0,0,1,12.272,7.5,1.175,1.175,0,0,0,1.574-1.745,41.085,41.085,0,0,0-13.438-8.112,2.347,2.347,0,0,0,.332-3.561l-3.5-3.593a2.35,2.35,0,0,0-3.365,0l-3.5,3.593a2.347,2.347,0,0,0-.626,1.2,42.269,42.269,0,0,0-7.062-.01,2.347,2.347,0,0,0-.624-1.187l-3.5-3.593a2.35,2.35,0,0,0-3.365,0l-3.5,3.593a2.349,2.349,0,0,0,.3,3.537A41.461,41.461,0,0,0,5.3,303.377a3.469,3.469,0,0,0,.462,3.179,3.538,3.538,0,0,0,2.875,1.482H80.183a3.538,3.538,0,0,0,2.875-1.482,3.468,3.468,0,0,0,.462-3.179,41.131,41.131,0,0,0-7.856-13.6ZM53.8,272.507l3.5,3.593H56.058a1.175,1.175,0,0,0-.991,1.806,6,6,0,0,1,.638,4.712,10.277,10.277,0,0,1-.8,1.859,8.721,8.721,0,0,0-1.114,3.189c0,.035,0,.071,0,.106a5.793,5.793,0,0,0,.36,1.958h-2a7.385,7.385,0,0,1-.285-4.152,10.76,10.76,0,0,1,.737-1.7,10,10,0,0,0,1.005-2.612c.007-.033.012-.067.016-.1a5.88,5.88,0,0,0-1.372-4.654,1.175,1.175,0,0,0-.892-.41H50.3Zm-18.682,0,3.5,3.593H37.377a1.175,1.175,0,0,0-.991,1.806,6,6,0,0,1,.638,4.712,10.274,10.274,0,0,1-.8,1.859,8.722,8.722,0,0,0-1.114,3.189q0,.053,0,.106a5.79,5.79,0,0,0,.36,1.958h-2a7.386,7.386,0,0,1-.285-4.152,10.758,10.758,0,0,1,.737-1.7,10,10,0,0,0,1.005-2.612c.007-.033.012-.067.016-.1a5.88,5.88,0,0,0-1.372-4.654,1.175,1.175,0,0,0-.892-.41H31.617Zm2,33.181L34.64,299.71a10.9,10.9,0,0,0-4.923-5.428l-2.711-1.448a1.175,1.175,0,1,0-1.107,2.073l2.711,1.448a8.548,8.548,0,0,1,3.86,4.255l2.106,5.078H8.636a1.169,1.169,0,0,1-.962-.5,1.144,1.144,0,0,1-.154-1.049,39,39,0,0,1,8.8-14.351l5.584,2.983a1.175,1.175,0,1,0,1.107-2.073l-4.926-2.631a38.97,38.97,0,0,1,14.489-8.389,4.221,4.221,0,0,1,.035,1.171,8.126,8.126,0,0,1-.79,1.968,12.617,12.617,0,0,0-.9,2.106c-.005.017-.01.035-.014.053a9.748,9.748,0,0,0,.349,5.549,2.345,2.345,0,0,0,2.21,1.551h2a2.347,2.347,0,0,0,2.214-3.135,3.543,3.543,0,0,1-.224-1.12,7.1,7.1,0,0,1,.864-2.285,12.141,12.141,0,0,0,.974-2.315l.006-.024a8.694,8.694,0,0,0-.113-4.818,2.339,2.339,0,0,0,.645-.27c.034,0,.067,0,.1-.007.875-.1,1.759-.167,2.646-.207a9.909,9.909,0,0,0-.729,5.494l0,.017a18.844,18.844,0,0,0,4.124,8.8c.014.018.029.035.044.052a10.126,10.126,0,0,0,6.031,3.448l.045.006c3.805.435,7.567.582,11.2.724,1.795.07,3.65.143,5.467.249a18.5,18.5,0,0,1,2.9.567,14.316,14.316,0,0,1,2.414,1.406l6.8,6.8a1.166,1.166,0,0,1-.7.232Z" transform="translate(-4.304 -227.84)"/>
        <path id="Trazado_626914" data-name="Trazado 626914" d="M135.962,109.768a6.023,6.023,0,0,1,3.385,1.034,1.175,1.175,0,0,0,1.315-1.947,8.406,8.406,0,1,0-4.7,15.376,6.865,6.865,0,0,0,5.456-2.461,1.175,1.175,0,1,0-1.8-1.51,4.52,4.52,0,0,1-3.655,1.621,6.056,6.056,0,0,1,0-12.113Z" transform="translate(-107.573 -90.597)"/>
        <path id="Trazado_626915" data-name="Trazado 626915" d="M227.218,115.824a8.406,8.406,0,1,0,8.406-8.406A8.416,8.416,0,0,0,227.218,115.824Zm14.462,0a6.056,6.056,0,1,1-6.056-6.056A6.063,6.063,0,0,1,241.68,115.824Z" transform="translate(-191.622 -90.597)"/>
        <path id="Trazado_626916" data-name="Trazado 626916" d="M347.045,156.653c-1.147,1.639-1.831,2.535-2.2,3.016-.465.609-.773,1.012-.579,1.641a1.22,1.22,0,0,0,.782.795c.154.052,3.05.085,4.09.071a1.175,1.175,0,0,0-.015-2.35h-.015c-.481.006-.984.011-1.455.014.352-.479.786-1.082,1.315-1.84a5.867,5.867,0,0,0,.955-1.986,1.145,1.145,0,0,0,.021-.117l.036-.281a1.153,1.153,0,0,0,.01-.149,3.035,3.035,0,0,0-6.012-.587,1.175,1.175,0,1,0,2.306.453.685.685,0,0,1,1.354.077l-.016.122A3.692,3.692,0,0,1,347.045,156.653Z" transform="translate(-290.071 -128.559)"/>
        <path id="Trazado_626917" data-name="Trazado 626917" d="M2.854,154.864a3.551,3.551,0,0,0,3.485-.971A46.68,46.68,0,0,1,54.23,141.765a1.175,1.175,0,1,0,.718-2.238,48.919,48.919,0,0,0-50.3,12.739,1.186,1.186,0,0,1-1.179.328,1.115,1.115,0,0,1-.812-.825,10.695,10.695,0,0,1,5.081-11.811,1.175,1.175,0,0,0,.468-1.542,15.311,15.311,0,0,1,1.759-16.35A1.175,1.175,0,1,0,8.127,120.6,17.7,17.7,0,0,0,4.263,131.62a17.469,17.469,0,0,0,1.39,6.874A13.043,13.043,0,0,0,.37,152.327a3.441,3.441,0,0,0,2.484,2.537Z" transform="translate(0 -101.34)"/>
        <path id="Trazado_626918" data-name="Trazado 626918" d="M75.372,17.64a15.221,15.221,0,0,1,8.559-2.616c.323,0,.663.011,1.01.034a1.171,1.171,0,0,0,1.151-.7,20.11,20.11,0,0,1,37.861,3.119,1.175,1.175,0,0,0,.965.87,9.727,9.727,0,0,1,7.314,13.837,1.175,1.175,0,0,0,.527,1.559,12.988,12.988,0,0,1,6.154,16.5,1.173,1.173,0,0,1-1.922.375A48.812,48.812,0,0,0,121.54,39.958a1.175,1.175,0,1,0-.939,2.154,46.478,46.478,0,0,1,14.711,10.153,3.509,3.509,0,0,0,2.512,1.059,3.554,3.554,0,0,0,.679-.066,3.512,3.512,0,0,0,2.584-2.118,15.339,15.339,0,0,0-6.3-18.956,12.079,12.079,0,0,0-8.759-16.018,22.461,22.461,0,0,0-41.745-3.487q-.178,0-.352,0a17.564,17.564,0,0,0-9.876,3.019,1.175,1.175,0,1,0,1.316,1.947Z" transform="translate(-62.017 -0.044)"/>
      </g>
    </g>
  </g>
</svg>
