<svg xmlns="http://www.w3.org/2000/svg" width="125" height="125" viewBox="0 0 125 125">
  <g id="Grupo_950151" data-name="Grupo 950151" transform="translate(-274 -6735)">
    <circle id="Elipse_7692" data-name="Elipse 7692" cx="62.5" cy="62.5" r="62.5" transform="translate(274 6735)" fill="#ef8b53"/>
    <g id="planta" transform="translate(300.226 6761.719)">
      <path id="Trazado_627797" data-name="Trazado 627797" d="M83.585,93.694a19.006,19.006,0,0,0,22.958,22.958A19.007,19.007,0,0,0,83.585,93.694Z" transform="translate(-71.36 -80.054)" fill="#a5dc69"/>
      <path id="Trazado_627798" data-name="Trazado 627798" d="M321.773,111.108a20.02,20.02,0,0,0-24.182,24.182,20.019,20.019,0,0,0,24.182-24.182Z" transform="translate(-255.435 -95.002)" fill="#46c373"/>
      <path id="Trazado_627799" data-name="Trazado 627799" d="M256.051,25.037l0,0c-.006-.032-.757-7.538,3.413-11.63s11.549-3.367,11.581-3.364h0l0,0h0c.006.062.928,7.724-3.235,11.809C263.631,25.954,256.051,25.037,256.051,25.037Z" transform="translate(-220.223 -8.587)" fill="#d7fa91"/>
      <path id="Trazado_627800" data-name="Trazado 627800" d="M44.375,345.32a10.944,10.944,0,0,0-9.746,5.964A22.2,22.2,0,0,0,10,367.214H78.753a22.2,22.2,0,0,0-24.631-15.929A10.944,10.944,0,0,0,44.375,345.32Z" transform="translate(-8.601 -297.057)" fill="#c88c64"/>
      <path id="Trazado_627801" data-name="Trazado 627801" d="M71.5,69.78a23.741,23.741,0,0,0-8.341-12.314,23.393,23.393,0,0,0-8.085-4.038,2.821,2.821,0,0,1,2.806-2.579,1.4,1.4,0,0,0,0-2.795,5.6,5.6,0,0,0-4.216,1.913,5.6,5.6,0,0,0-4.216-1.913,1.4,1.4,0,0,0,0,2.795,2.823,2.823,0,0,1,2.688,1.972,23.926,23.926,0,0,0-5.858-.1,12.284,12.284,0,0,0-8.836-5.745l.028-.025,5.1-5.1a19.893,19.893,0,0,0,4.5.5c.431,0,.881-.013,1.348-.043A20.932,20.932,0,0,0,62.03,35.979a20.933,20.933,0,0,0,6.326-13.611,18.957,18.957,0,0,0-.692-6.708,1.4,1.4,0,0,0-.98-.908l-.015,0a19.334,19.334,0,0,0-5.038-.7h-.016a1.4,1.4,0,0,0-.016,2.795,17.045,17.045,0,0,1,3.6.413,17.644,17.644,0,0,1,.36,5.052A18.012,18.012,0,0,1,60.053,34,17.948,17.948,0,0,1,44.99,39.432L55.237,29.184a1.4,1.4,0,1,0-1.976-1.976L43.014,37.455a18.022,18.022,0,0,1,5.429-15.063,20.317,20.317,0,0,1,3.483-2.807,1.4,1.4,0,0,0-1.495-2.362,23.131,23.131,0,0,0-3.965,3.193A20.932,20.932,0,0,0,40.14,34.027a20.264,20.264,0,0,0,.457,5.845L37.172,43.3V17.932c.161,0,.332.006.513.006,2.739,0,7.642-.5,10.882-3.676C52.923,9.987,52.34,2.522,52.221,1.375a1.4,1.4,0,0,0-1.3-1.315c-.666-.058-8.2-.6-12.655,3.761C34.256,7.754,34.3,14.242,34.411,16.148a1.4,1.4,0,0,0-.034.3v5.34a21.559,21.559,0,0,0-3.235-4.108,19.944,19.944,0,0,0-12.968-6.026,18.075,18.075,0,0,0-6.4.661,1.4,1.4,0,0,0-.908.978l0,.013a19.64,19.64,0,0,0,5.4,19.251,19.942,19.942,0,0,0,12.968,6.026c.444.029.873.041,1.283.041a19.3,19.3,0,0,0,3.861-.383v8.7a12.283,12.283,0,0,0-9.1,5.778,23.926,23.926,0,0,0-5.858.1A2.823,2.823,0,0,1,22.1,50.849a1.4,1.4,0,0,0,0-2.795,5.6,5.6,0,0,0-4.216,1.913,5.6,5.6,0,0,0-4.216-1.913,1.4,1.4,0,0,0,0,2.795,2.82,2.82,0,0,1,2.806,2.579,23.394,23.394,0,0,0-8.085,4.038A23.74,23.74,0,0,0,.052,69.78,1.4,1.4,0,0,0,1.4,71.555H70.152A1.4,1.4,0,0,0,71.5,69.78ZM40.222,5.816C42.939,3.15,47.39,2.8,49.508,2.8c.058,2.173-.174,6.789-2.9,9.462-2.045,2.007-5.121,2.644-7.436,2.815l4.209-4.209A1.4,1.4,0,1,0,41.407,8.9l-4.138,4.139C37.495,10.764,38.2,7.8,40.222,5.816ZM18.242,30.582a16.881,16.881,0,0,1-4.869-15.8,16.692,16.692,0,0,1,4.737-.33,17.033,17.033,0,0,1,11.055,5.205A17.032,17.032,0,0,1,34.37,30.713c0,.038,0,.075.007.112v2.207c-.016.254-.037.5-.062.723L26.159,25.6a1.4,1.4,0,0,0-1.976,1.976l8.156,8.156A17.041,17.041,0,0,1,18.242,30.582ZM11.072,68.76a12.76,12.76,0,0,1,6.537-6.481,1.4,1.4,0,1,0-1.125-2.559A15.541,15.541,0,0,0,8.063,68.76H3.329A20.807,20.807,0,0,1,25.824,55.61a1.4,1.4,0,0,0,1.448-.745,9.548,9.548,0,0,1,17.005,0,1.4,1.4,0,0,0,1.448.745A20.807,20.807,0,0,1,68.22,68.76Z" transform="translate(0 0)"/>
      <path id="Trazado_627802" data-name="Trazado 627802" d="M393.161,108.274a1.391,1.391,0,0,0,.386-.055l.091-.026a1.4,1.4,0,1,0-.75-2.692l-.111.031a1.4,1.4,0,0,0,.384,2.741Z" transform="translate(-337.017 -90.707)"/>
      <path id="Trazado_627803" data-name="Trazado 627803" d="M153.725,417.92h-.087a1.4,1.4,0,0,0,.007,2.795h.08a1.4,1.4,0,1,0,0-2.795Z" transform="translate(-130.972 -359.511)"/>
    </g>
  </g>
</svg>
