<svg xmlns="http://www.w3.org/2000/svg" xmlns:xlink="http://www.w3.org/1999/xlink" width="236" height="236" viewBox="0 0 236 236">
  <defs>
    <clipPath id="clip-path">
      <rect id="Rectángulo_309597" data-name="Rectángulo 309597" width="236" height="236" transform="translate(420 1441)" fill="#fff" stroke="#707070" stroke-width="1"/>
    </clipPath>
  </defs>
  <g id="Enmascarar_grupo_878411" data-name="Enmascarar grupo 878411" transform="translate(-420 -1441)" clip-path="url(#clip-path)">
    <g id="Grupo_949756" data-name="Grupo 949756" transform="translate(95.738 1288.218)">
      <g id="Grupo_949747" data-name="Grupo 949747" transform="translate(366.44 172.028)">
        <path id="Trazado_626682" data-name="Trazado 626682" d="M565.839,172.028V255.6a55.2,55.2,0,0,1-55.2,55.2H432.036V232.33h56.1A10.629,10.629,0,0,0,498.763,221.7V172.028Z" transform="translate(-385.709 -172.028)" fill="#ededed"/>
        <path id="Trazado_626683" data-name="Trazado 626683" d="M569.494,172.028V255.6a55.2,55.2,0,0,1-55.2,55.2H450.071V290.721h55.022a42.917,42.917,0,0,0,42.934-42.933v-75.76Z" transform="translate(-389.364 -172.028)" fill="#1d1d1b" opacity="0.05"/>
        <path id="Trazado_626684" data-name="Trazado 626684" d="M443.2,234.6H426.271v4.822c-13.419,7.979-22.743,25.07-22.743,44.881s9.323,36.9,22.743,44.879V334H443.2c21.876,0,39.675-22.3,39.675-49.7S465.081,234.6,443.2,234.6Z" transform="translate(-379.931 -184.708)" fill="#c6c6c6"/>
        <ellipse id="Elipse_4717" data-name="Elipse 4717" cx="34.465" cy="44.491" rx="34.465" ry="44.491" transform="translate(11.873 55.098)" fill="#3c3c3b"/>
        <path id="Trazado_626685" data-name="Trazado 626685" d="M421.967,334c-21.878,0-39.677-22.3-39.677-49.7s17.8-49.7,39.677-49.7,39.675,22.3,39.675,49.7S443.843,334,421.967,334Zm0-88.983c-16.132,0-29.256,17.623-29.256,39.282s13.124,39.28,29.256,39.28,29.255-17.621,29.255-39.28S438.1,245.016,421.967,245.016Z" transform="translate(-375.627 -184.708)" fill="#ededed"/>
        <g id="Grupo_949746" data-name="Grupo 949746" transform="translate(0 90.233)">
          <path id="Trazado_626686" data-name="Trazado 626686" d="M449.485,292.524v5.627h-.069a52.187,52.187,0,0,1-1.25,8.233,47.232,47.232,0,0,1-5.211,12.956,36.99,36.99,0,0,1-3.439,4.759,27.969,27.969,0,0,1-11.671,8.371h-.034a10.1,10.1,0,0,0-1.633.557h-.035a3.031,3.031,0,0,0-.694.313,8.67,8.67,0,0,0-3.682,4.029,9.9,9.9,0,0,0-.694,2.64,2.609,2.609,0,0,1-.034.73v43.525h-47.1V340.495c.069-1.493.139-2.988.208-4.516a56.977,56.977,0,0,1,4.586-17.75c.174-.417.382-.834.591-1.25.173-.417.382-.834.59-1.251.417-.868.9-1.737,1.39-2.57q.573-1.043,1.25-2.084a44.706,44.706,0,0,1,3.3-4.655,25.362,25.362,0,0,1,1.771-2.084,24.793,24.793,0,0,1,1.841-2.015c.625-.659,1.25-1.285,1.91-1.91a51.108,51.108,0,0,1,5.176-4.342,41.741,41.741,0,0,1,3.647-2.466q1.3-.834,2.6-1.564a58.19,58.19,0,0,1,15.666-5.731,60.625,60.625,0,0,1,7.642-.973c1.216-.034,2.4-.1,3.543-.139h19.035A55.043,55.043,0,0,1,449.485,292.524Z" transform="translate(-373.934 -285.195)" fill="#8fdaff"/>
          <path id="Trazado_626687" data-name="Trazado 626687" d="M449.485,292.524v5.627h-.069a52.187,52.187,0,0,1-1.25,8.233,47.232,47.232,0,0,1-5.211,12.956,36.99,36.99,0,0,1-3.439,4.759,27.969,27.969,0,0,1-11.671,8.371h-.034a10.1,10.1,0,0,0-1.633.557h-.035a3.031,3.031,0,0,0-.694.313,8.67,8.67,0,0,0-3.682,4.029,9.9,9.9,0,0,0-.694,2.64,2.609,2.609,0,0,1-.034.73v43.525h-47.1V340.495c.069-1.493.139-2.988.208-4.516a56.977,56.977,0,0,1,4.586-17.75c.174-.417.382-.834.591-1.25.173-.417.382-.834.59-1.251.417-.868.9-1.737,1.39-2.57q.573-1.043,1.25-2.084a44.706,44.706,0,0,1,3.3-4.655,25.362,25.362,0,0,1,1.771-2.084,24.793,24.793,0,0,1,1.841-2.015c.625-.659,1.25-1.285,1.91-1.91a51.108,51.108,0,0,1,5.176-4.342,41.741,41.741,0,0,1,3.647-2.466q1.3-.834,2.6-1.564a58.19,58.19,0,0,1,15.666-5.731,60.625,60.625,0,0,1,7.642-.973c1.216-.034,2.4-.1,3.543-.139h19.035A55.043,55.043,0,0,1,449.485,292.524Z" transform="translate(-373.934 -285.195)" fill="#8fdaff"/>
          <g id="Grupo_949745" data-name="Grupo 949745">
            <path id="Trazado_626688" data-name="Trazado 626688" d="M449.485,292.524v.868H429.651c-1.008.069-2.015.1-3.057.14a48.082,48.082,0,0,0-6.5.833,49.159,49.159,0,0,0-13.339,4.863,48.1,48.1,0,0,0-13.338,10.942,44.514,44.514,0,0,0-7.19,11.393,47.963,47.963,0,0,0-3.89,15.145c-.07,1.285-.14,2.571-.209,3.822v43.733h-8.2V340.495c.069-1.493.139-2.988.208-4.516a56.977,56.977,0,0,1,4.586-17.75c.174-.417.382-.834.591-1.25.173-.417.382-.834.59-1.251.417-.868.9-1.737,1.39-2.57q.573-1.043,1.25-2.084a44.706,44.706,0,0,1,3.3-4.655,25.362,25.362,0,0,1,1.771-2.084,24.793,24.793,0,0,1,1.841-2.015c.625-.659,1.25-1.285,1.91-1.91a51.108,51.108,0,0,1,5.176-4.342,41.741,41.741,0,0,1,3.647-2.466q1.3-.834,2.6-1.564a58.19,58.19,0,0,1,15.666-5.731,60.625,60.625,0,0,1,7.642-.973c1.216-.034,2.4-.1,3.543-.139h19.035A55.043,55.043,0,0,1,449.485,292.524Z" transform="translate(-373.934 -285.195)" fill="#34b1ed"/>
            <path id="Trazado_626689" data-name="Trazado 626689" d="M452.708,301.444a52.187,52.187,0,0,1-1.25,8.233H434.993a44.464,44.464,0,0,0-9.031.659,38.021,38.021,0,0,0-9.691,3.543,35.648,35.648,0,0,0-12.887,12.366v.035a30.809,30.809,0,0,0-2.015,3.821,36.009,36.009,0,0,0-2.813,10.976c-.278,3.89-.1,7.086-.174,10.49v35.987h-8.2v-43.7l.174-3.473a43.76,43.76,0,0,1,3.508-13.616,40.7,40.7,0,0,1,4.864-8.233,42.882,42.882,0,0,1,13.616-11.845,43.834,43.834,0,0,1,11.984-4.377,44.324,44.324,0,0,1,5.87-.73c.938-.035,1.841-.1,2.744-.14Z" transform="translate(-377.227 -288.488)" fill="#34b1ed"/>
            <path id="Trazado_626690" data-name="Trazado 626690" d="M453.362,317.693a41.578,41.578,0,0,1-3.821,8.233h-13.3c-.486,0-.973.035-1.459.069a22.05,22.05,0,0,0-2.953.348,24.139,24.139,0,0,0-6.01,2.189,22.006,22.006,0,0,0-9,9.483c-.1.208-.209.416-.313.659a23.442,23.442,0,0,0-1.772,6.809l-.069,1.772-.035,2.536v41.058h-8.2V354.86c.069-3.265-.1-6.946.14-10.073A31.053,31.053,0,0,1,409,335.339c.313-.73.659-1.424,1.042-2.119a30.106,30.106,0,0,1,11.81-11.88,31.763,31.763,0,0,1,8.336-3.022,40.133,40.133,0,0,1,8.094-.626Z" transform="translate(-380.52 -291.78)" fill="#34b1ed"/>
            <path id="Trazado_626691" data-name="Trazado 626691" d="M449.395,333.988a27.969,27.969,0,0,1-11.672,8.371c0,.035-.034,0-.034,0a10.1,10.1,0,0,0-1.633.557h-.035a3.031,3.031,0,0,0-.694.313,8.671,8.671,0,0,0-3.682,4.029,9.9,9.9,0,0,0-.694,2.64,2.609,2.609,0,0,1-.034.73v43.525h-8.233V353.092l.034-2.5c.035-.451.07-.938.07-1.389a17.371,17.371,0,0,1,1.355-5.28c.139-.313.277-.625.451-.938A17.134,17.134,0,0,1,431.4,336a20.352,20.352,0,0,1,4.655-1.7c.8-.035,1.529-.278,2.292-.243.417-.035.8-.069,1.182-.069Z" transform="translate(-383.813 -295.083)" fill="#34b1ed"/>
          </g>
        </g>
      </g>
      <g id="Grupo_949748" data-name="Grupo 949748" transform="translate(369.752 336.169)">
        <circle id="Elipse_4718" data-name="Elipse 4718" cx="13.054" cy="13.054" r="13.054" transform="translate(3.473 3.473)" fill="#fff"/>
        <path id="Trazado_626692" data-name="Trazado 626692" d="M394.615,410.944a16.528,16.528,0,1,1,16.527-16.528A16.548,16.548,0,0,1,394.615,410.944Zm0-26.11a9.582,9.582,0,1,0,9.579,9.582A9.592,9.592,0,0,0,394.615,384.834Z" transform="translate(-378.088 -377.888)" fill="#34b1ed"/>
      </g>
      <g id="Grupo_949749" data-name="Grupo 949749" transform="translate(396.125 345.104)">
        <path id="Trazado_626693" data-name="Trazado 626693" d="M433.395,401.8a9.526,9.526,0,1,1-9.526-9.526A9.526,9.526,0,0,1,433.395,401.8Z" transform="translate(-411.808 -389.737)" fill="#fff"/>
        <path id="Trazado_626694" data-name="Trazado 626694" d="M423.225,413.215a12.061,12.061,0,1,1,12.06-12.061A12.075,12.075,0,0,1,423.225,413.215Zm0-19.053a6.992,6.992,0,1,0,6.99,6.992A7,7,0,0,0,423.225,394.163Z" transform="translate(-411.164 -389.093)" fill="#34b1ed"/>
      </g>
      <g id="Grupo_949750" data-name="Grupo 949750" transform="translate(336.953 350.62)">
        <path id="Trazado_626695" data-name="Trazado 626695" d="M354.1,405.812a7.348,7.348,0,1,1-7.348-7.348A7.348,7.348,0,0,1,354.1,405.812Z" transform="translate(-337.45 -396.509)" fill="#fff"/>
        <path id="Trazado_626696" data-name="Trazado 626696" d="M346.255,414.617a9.3,9.3,0,1,1,9.3-9.3A9.313,9.313,0,0,1,346.255,414.617Zm0-14.7a5.392,5.392,0,1,0,5.392,5.392A5.4,5.4,0,0,0,346.255,399.922Z" transform="translate(-336.953 -396.012)" fill="#34b1ed"/>
      </g>
      <g id="Grupo_949751" data-name="Grupo 949751" transform="translate(350.253 342.78)">
        <circle id="Elipse_4719" data-name="Elipse 4719" cx="9.749" cy="9.749" r="9.749" transform="translate(3.473 3.474)" fill="#fff"/>
        <path id="Trazado_626697" data-name="Trazado 626697" d="M366.855,412.625A13.223,13.223,0,1,1,380.078,399.4,13.238,13.238,0,0,1,366.855,412.625Zm0-19.5a6.276,6.276,0,1,0,6.276,6.276A6.283,6.283,0,0,0,366.855,393.126Z" transform="translate(-353.633 -386.179)" fill="#34b1ed"/>
      </g>
      <g id="Grupo_949752" data-name="Grupo 949752" transform="translate(414.76 342.78)">
        <circle id="Elipse_4720" data-name="Elipse 4720" cx="9.749" cy="9.749" r="9.749" transform="translate(3.473 3.474)" fill="#fff"/>
        <path id="Trazado_626698" data-name="Trazado 626698" d="M447.758,412.625A13.223,13.223,0,1,1,460.981,399.4,13.237,13.237,0,0,1,447.758,412.625Zm0-19.5a6.276,6.276,0,1,0,6.276,6.276A6.284,6.284,0,0,0,447.758,393.126Z" transform="translate(-434.536 -386.179)" fill="#34b1ed"/>
      </g>
      <g id="Grupo_949753" data-name="Grupo 949753" transform="translate(341.579 334.967)">
        <circle id="Elipse_4721" data-name="Elipse 4721" cx="4.676" cy="4.676" r="4.676" fill="#34b1ed"/>
        <ellipse id="Elipse_4722" data-name="Elipse 4722" cx="1.089" cy="1.536" rx="1.089" ry="1.536" transform="translate(0.771 2.98)" fill="#fff"/>
      </g>
      <g id="Grupo_949754" data-name="Grupo 949754" transform="translate(347.26 316.451)">
        <circle id="Elipse_4723" data-name="Elipse 4723" cx="6.487" cy="6.487" r="6.487" fill="#34b1ed"/>
        <ellipse id="Elipse_4724" data-name="Elipse 4724" cx="1.511" cy="2.131" rx="1.511" ry="2.131" transform="translate(1.069 4.134)" fill="#fff"/>
      </g>
      <g id="Grupo_949755" data-name="Grupo 949755" transform="translate(418.665 324.761)">
        <path id="Trazado_626699" data-name="Trazado 626699" d="M452.407,370.066a6.487,6.487,0,1,1-6.486-6.486A6.487,6.487,0,0,1,452.407,370.066Z" transform="translate(-439.433 -363.58)" fill="#34b1ed"/>
        <ellipse id="Elipse_4725" data-name="Elipse 4725" cx="1.511" cy="2.131" rx="1.511" ry="2.131" transform="translate(1.069 4.134)" fill="#fff"/>
      </g>
    </g>
  </g>
</svg>
