<svg xmlns="http://www.w3.org/2000/svg" width="123.281" height="123.281" viewBox="0 0 123.281 123.281">
  <g id="logistica" transform="translate(-1 -0.856)">
    <circle id="Elipse_7737" data-name="Elipse 7737" cx="47.611" cy="47.611" r="47.611" transform="translate(14.887 15.028)" fill="#69d6f4"/>
    <path id="Trazado_649452" data-name="Trazado 649452" d="M53.579,57.935h7.935v1.984a20.4,20.4,0,0,1-.674,1.944h-.02c.02.02.02.04,0,.04A19.115,19.115,0,0,1,43.1,73.806H21.144A19.143,19.143,0,0,1,2,54.662V50H17.87l3.968,7.935Z" transform="translate(0.984 48.348)" fill="#ccd1d9"/>
    <path id="Trazado_649453" data-name="Trazado 649453" d="M41.708,42a3.979,3.979,0,0,1,3.968,3.968,4,4,0,0,1-3.968,3.968H9.968A3.979,3.979,0,0,1,6,45.968,4,4,0,0,1,9.968,42H41.708Z" transform="translate(4.919 40.477)" fill="#fcd770"/>
    <path id="Trazado_649454" data-name="Trazado 649454" d="M39.741,46l7.935,15.87H15.935l-3.968-7.935H8V46Z" transform="translate(6.887 44.413)" fill="#ffeaa7"/>
    <path id="Trazado_649455" data-name="Trazado 649455" d="M77.708,44H45.968A3.979,3.979,0,0,0,42,47.968V75.741a3.979,3.979,0,0,0,3.968,3.968H77.708a3.979,3.979,0,0,0,3.968-3.968V47.968A3.979,3.979,0,0,0,77.708,44Z" transform="translate(40.336 42.445)" fill="#d3a06c"/>
    <path id="Trazado_649456" data-name="Trazado 649456" d="M63.87,44v7.935H48V44H63.87Z" transform="translate(46.239 42.445)" fill="#b27946"/>
    <path id="Trazado_649457" data-name="Trazado 649457" d="M37.708,20.271v.139a17.967,17.967,0,0,1-3,9.9l-4.94,7.4L22.929,47.965a3.694,3.694,0,0,1-6.15,0l-.635-.932L5,30.309a17.967,17.967,0,0,1-3-9.9v-.555a17.854,17.854,0,0,1,35.708,0Z" transform="translate(0.984 1.125)" fill="#ff826e"/>
    <circle id="Elipse_7738" data-name="Elipse 7738" cx="9.919" cy="9.919" r="9.919" transform="translate(10.919 11.061)" fill="#fcd770"/>
    <path id="Trazado_649458" data-name="Trazado 649458" d="M49.388,37.617c-.6.3-1.19.575-1.805.833a3.558,3.558,0,0,1-1.289.258c-.893,0-1.706-.357-3.015-1.984A3.228,3.228,0,0,1,43,35.415a3.558,3.558,0,0,1,.258-1.289c.258-.615.536-1.21.833-1.805A63.752,63.752,0,0,1,47.662,25.5c.615-1.071,1.27-2.1,1.964-3.134A66.486,66.486,0,0,1,55.1,15.081c1.27-1.528,2.619-3,4.047-4.424l3.69-3.69L64.346,5.46a8.417,8.417,0,0,1,11.9,11.9L74.741,18.87l-3.69,3.69c-1.428,1.428-2.9,2.777-4.424,4.047a66.483,66.483,0,0,1-7.281,5.475c-1.032.694-2.063,1.349-3.134,1.964a63.75,63.75,0,0,1-6.824,3.571Z" transform="translate(41.32 2.109)" fill="#e6e9ed"/>
    <g id="Grupo_971717" data-name="Grupo 971717" transform="translate(74.401 3.125)">
      <path id="Trazado_649459" data-name="Trazado 649459" d="M63.024,11l5.951,17.854-1.984,1.984L54.91,18.757v-.02c1.528-1.27,3-2.619,4.424-4.047Z" transform="translate(-21.364 6.854)" fill="#fcd770"/>
      <path id="Trazado_649460" data-name="Trazado 649460" d="M62.838,7.951l-3.69,3.69c-1.428,1.428-2.777,2.9-4.047,4.424h-.02L43,3.984,44.984,2Z" transform="translate(-33.081 -2)" fill="#fcd770"/>
      <path id="Trazado_649461" data-name="Trazado 649461" d="M41.968,13l10.613,2.658a63.751,63.751,0,0,0-3.571,6.824L38.853,17.4,38,16.968l.516-.516Z" transform="translate(-38 8.822)" fill="#fcd770"/>
      <path id="Trazado_649462" data-name="Trazado 649462" d="M53.044,18.65,55.7,29.263l-3.968,3.968L46.22,22.221a63.749,63.749,0,0,0,6.824-3.571Z" transform="translate(-29.913 14.38)" fill="#fcd770"/>
    </g>
    <path id="Trazado_649463" data-name="Trazado 649463" d="M28.806,16.9a11.9,11.9,0,1,0-11.9,11.9A11.915,11.915,0,0,0,28.806,16.9Zm-19.838,0A7.935,7.935,0,1,1,16.9,24.838,7.943,7.943,0,0,1,8.968,16.9Z" transform="translate(3.935 4.077)"/>
    <path id="Trazado_649464" data-name="Trazado 649464" d="M0,0H3.968V3.968H0Z" transform="translate(102.26 20.068) rotate(-45)"/>
    <path id="Trazado_649465" data-name="Trazado 649465" d="M0,0H3.968V3.968H0Z" transform="translate(107.871 14.458) rotate(-45)"/>
    <path id="Trazado_649466" data-name="Trazado 649466" d="M0,0H3.767V3.968H0Z" transform="translate(96.792 25.537) rotate(-45)"/>
    <path id="Trazado_649467" data-name="Trazado 649467" d="M118.044,84.461h-11a49.645,49.645,0,0,0,5.053-21.822,49.126,49.126,0,0,0-8.651-27.924q2.247-1.568,4.382-3.3l12.2,12.2,4.253-4.253L118.33,21.513l.635-.635a10.4,10.4,0,0,0-14.708-14.71l-.639.639L85.766.856,81.514,5.109l12.2,12.2q-1.732,2.131-3.3,4.38A49.508,49.508,0,0,0,40.46,18.2,19.827,19.827,0,0,0,1,20.98v.546a19.78,19.78,0,0,0,3.333,11L14.98,48.5a49.458,49.458,0,0,0,1.242,31.995H14.887A5.937,5.937,0,0,0,12.9,92.031v4.333H1v6.644a21.153,21.153,0,0,0,21.129,21.129H44.088a21.235,21.235,0,0,0,19.007-11.919,49.2,49.2,0,0,0,17.259-3.3v9.27a5.959,5.959,0,0,0,5.951,5.951h31.741A5.959,5.959,0,0,0,124,118.186V90.413A5.962,5.962,0,0,0,118.044,84.461ZM96.222,88.429h11.9V92.4h-11.9ZM86.3,84.461H80.38a115.522,115.522,0,0,0,1.936-19.838H108.06a45.556,45.556,0,0,1-5.509,19.838Zm-21.883,23.4.061-3.567H55.789L49.462,91.645a5.943,5.943,0,0,0,2.752-3.216H75.446C72.764,99.114,68.588,106.176,64.42,107.866Zm-12.206-23.4A5.949,5.949,0,0,0,48,80.668a114.987,114.987,0,0,1-1.331-16.045H78.348a110.639,110.639,0,0,1-2.012,19.838ZM16.946,60.656a45.643,45.643,0,0,1,1.17-8.634,5.68,5.68,0,0,0,7.457-1.835l6.245-9.369h12.8A115.523,115.523,0,0,0,42.68,60.656ZM48.671,40.818h27.68a112.172,112.172,0,0,1,1.982,19.838H46.665a110.652,110.652,0,0,1,2.006-19.838ZM62.5,17.012c3.525,0,7.152,3.991,10.062,10.939l-1.508,1.508,2.587,1.293c.674,1.914,1.287,3.944,1.825,6.1h-25.9C52.662,24.529,57.749,17.012,62.5,17.012Zm21.98,14.724-6.729-3.365,1.228-1.226,6.971,1.742C85.436,29.823,84.952,30.776,84.478,31.736Zm-1.666,3.6c-.016.036-.034.071-.05.107a5.172,5.172,0,0,0-.359,1.4H79.535c-.294-1.244-.613-2.448-.95-3.624Zm25.236,25.317H82.3a116.8,116.8,0,0,0-1.92-19.838h3.142a5.228,5.228,0,0,0,6.168,1.557c.038-.016.071-.034.109-.05l5.88,11.76,6.707-6.709-2.567-10.27c.107-.065.21-.137.317-.2a45.147,45.147,0,0,1,7.911,23.754ZM96.25,39.189l1.742,6.971-1.228,1.226L93.4,40.657C94.362,40.185,95.314,39.7,96.25,39.189Zm23.207-1.748-8.606-8.606c1-.9,1.978-1.819,2.93-2.773l1.41-1.41ZM111.611,7.093a6.432,6.432,0,0,1,4.549,10.98l-5.184,5.184A72.673,72.673,0,0,1,88.13,38.727a1.31,1.31,0,0,1-1.722-1.718,72.7,72.7,0,0,1,15.47-22.849l5.182-5.184v0a6.4,6.4,0,0,1,4.551-1.885ZM87.7,5.681l12.788,4.263-1.41,1.412c-.954.954-1.875,1.934-2.773,2.93Zm.331,19.638L77.761,22.749l-2.178,2.178a31.263,31.263,0,0,0-4.3-7.042A45.056,45.056,0,0,1,88.236,25c-.069.109-.141.212-.206.319Zm-47.435-2.69a45.46,45.46,0,0,1,13.244-4.781c-3.5,4.146-6.4,10.762-8.372,19h-11l2.88-4.321A19.74,19.74,0,0,0,40.595,22.628Zm-35.627-1.1V20.98a15.87,15.87,0,0,1,31.741,0v.546a15.824,15.824,0,0,1-2.666,8.8L22.27,47.985a1.786,1.786,0,0,1-2.867,0L7.632,30.329a15.833,15.833,0,0,1-2.664-8.8Zm11.954,43.1H42.7a119.813,119.813,0,0,0,1.264,15.87H20.513a45.187,45.187,0,0,1-3.591-15.87ZM14.887,84.461H46.627a1.984,1.984,0,1,1,0,3.968H14.887a1.984,1.984,0,1,1,0-3.968ZM16.87,92.4H45.4l5.951,11.9H24.048L20.08,96.364H16.87ZM44.088,120.17H22.129A17.182,17.182,0,0,1,4.968,103.008v-2.676H17.628l3.968,7.935H60.425A17.24,17.24,0,0,1,44.088,120.17Zm27.067-12.736c3.5-4.146,6.4-10.764,8.374-19h1.188a5.884,5.884,0,0,0-.365,1.984v14.21A44.907,44.907,0,0,1,71.155,107.434Zm48.873,10.752a1.986,1.986,0,0,1-1.984,1.984H86.3a1.986,1.986,0,0,1-1.984-1.984V90.413A1.986,1.986,0,0,1,86.3,88.429h5.951v7.935h19.838V88.429h5.951a1.986,1.986,0,0,1,1.984,1.984Z" transform="translate(0 0)"/>
    <path id="Trazado_649468" data-name="Trazado 649468" d="M57,57h3.968v3.968H57Z" transform="translate(55.093 55.234)"/>
    <path id="Trazado_649469" data-name="Trazado 649469" d="M53,57h3.968v3.968H53Z" transform="translate(51.158 55.234)"/>
    <path id="Trazado_649470" data-name="Trazado 649470" d="M13,49h3.968v3.968H13Z" transform="translate(11.806 47.364)"/>
    <path id="Trazado_649471" data-name="Trazado 649471" d="M17,49h3.968v3.968H17Z" transform="translate(15.741 47.364)"/>
    <path id="Trazado_649472" data-name="Trazado 649472" d="M21,49h3.968v3.968H21Z" transform="translate(19.676 47.364)"/>
    <path id="Trazado_649473" data-name="Trazado 649473" d="M27,35h3.968v3.968H27Z" transform="translate(25.579 33.591)"/>
    <path id="Trazado_649474" data-name="Trazado 649474" d="M31,35h3.968v3.968H31Z" transform="translate(29.514 33.591)"/>
    <path id="Trazado_649475" data-name="Trazado 649475" d="M35,35h3.968v3.968H35Z" transform="translate(33.449 33.591)"/>
    <path id="Trazado_649476" data-name="Trazado 649476" d="M31,27h3.968v3.968H31Z" transform="translate(29.514 25.72)"/>
    <path id="Trazado_649477" data-name="Trazado 649477" d="M27,27h3.968v3.968H27Z" transform="translate(25.579 25.72)"/>
    <path id="Trazado_649478" data-name="Trazado 649478" d="M35,27h3.968v3.968H35Z" transform="translate(33.449 25.72)"/>
  </g>
</svg>
