<svg xmlns="http://www.w3.org/2000/svg" width="125" height="125" viewBox="0 0 125 125">
  <g id="Grupo_980460" data-name="Grupo 980460" transform="translate(-318 -5248)">
    <circle id="Elipse_7650" data-name="Elipse 7650" cx="62.5" cy="62.5" r="62.5" transform="translate(318 5248)" fill="#ef8b53"/>
    <g id="gota-de-agua" transform="translate(293.444 5269.763)">
      <g id="Grupo_949851" data-name="Grupo 949851" transform="translate(56.706 1.595)">
        <g id="Grupo_949849" data-name="Grupo 949849" transform="translate(0)">
          <path id="Trazado_626892" data-name="Trazado 626892" d="M120.891,55.654a28.076,28.076,0,1,1-50.306-12.1l0,0L93.186,10l14.481,21.5" transform="translate(-65.111 -10)" fill="#a3e0fb"/>
        </g>
        <g id="Grupo_949850" data-name="Grupo 949850" transform="translate(35.57 13.215)">
          <path id="Trazado_626893" data-name="Trazado 626893" d="M288.068,115.3a12.507,12.507,0,0,1,2.45-7.456v0l10.113-15.013,10.113,15.013v0a12.564,12.564,0,1,1-22.678,7.456Z" transform="translate(-288.068 -92.831)" fill="#4696e6"/>
        </g>
      </g>
      <g id="Grupo_949852" data-name="Grupo 949852" transform="translate(55.111 0)">
        <path id="Trazado_626894" data-name="Trazado 626894" d="M113.22,273.567a18.7,18.7,0,0,1-9.493-28.951,1.626,1.626,0,0,0,.145-.236,1.6,1.6,0,0,0-2.728-1.636,21.894,21.894,0,0,0,.1,26.063,22.071,22.071,0,0,0,11.032,7.807,1.6,1.6,0,0,0,.947-3.047Z" transform="translate(-90.225 -203.452)"/>
        <path id="Trazado_626895" data-name="Trazado 626895" d="M119,37.281a14.047,14.047,0,0,0-2.737-8.37l-10.1-14.992a1.6,1.6,0,0,0-2.646,0l-4.256,6.317L86.1.7a1.6,1.6,0,0,0-2.646,0L60.871,34.233A29.671,29.671,0,1,0,114.451,51.8a29.948,29.948,0,0,0-.257-3.9A14.129,14.129,0,0,0,119,37.281ZM104.84,17.666l8.775,13.027q.026.041.055.08a10.969,10.969,0,1,1-17.661,0c.019-.025.036-.051.053-.077l4.519-6.708.025-.037ZM111.26,51.8a26.479,26.479,0,1,1-47.8-15.711c.019-.026.038-.053.056-.081l21.26-31.56L97.338,23.092l-3.92,5.819a14.158,14.158,0,0,0,17.775,21.022Q111.258,50.866,111.26,51.8Z" transform="translate(-55.111 0)"/>
        <path id="Trazado_626896" data-name="Trazado 626896" d="M314.752,207.739a5.423,5.423,0,0,1,.468-2.217,1.6,1.6,0,0,0-2.916-1.3,8.664,8.664,0,0,0,3.1,10.712,1.6,1.6,0,0,0,1.774-2.652A5.462,5.462,0,0,1,314.752,207.739Z" transform="translate(-270.647 -170.848)"/>
        <path id="Trazado_626897" data-name="Trazado 626897" d="M220.2,448.191a1.595,1.595,0,1,0-1.785,2.174A1.608,1.608,0,0,0,220.2,448.191Z" transform="translate(-191.285 -375.866)"/>
        <path id="Trazado_626898" data-name="Trazado 626898" d="M357.864,270.082a1.6,1.6,0,1,0,0-2.653A1.6,1.6,0,0,0,357.864,270.082Z" transform="translate(-308.974 -224.537)"/>
      </g>
    </g>
  </g>
</svg>
