<svg xmlns="http://www.w3.org/2000/svg" width="122.652" height="122.652" viewBox="0 0 122.652 122.652">
  <g id="economico" transform="translate(-16 -16)">
    <path id="Trazado_654368" data-name="Trazado 654368" d="M142.033,71A47.017,47.017,0,1,1,48,71q0-2.066.176-4.088A47.017,47.017,0,0,1,142.033,71Z" transform="translate(-23.823 -5.944)" fill="#9ce6ed"/>
    <path id="Trazado_654369" data-name="Trazado 654369" d="M273.061,105.486a46.984,46.984,0,0,1-22.338,40.026L240.354,134.1V117.751h-8.177L224,105.486l8.177-6.133H242.4l6.133-8.177-4.088-10.221L257.231,70.3a46.906,46.906,0,0,1,15.83,35.186Z" transform="translate(-154.851 -40.425)" fill="#02c26a"/>
    <rect id="Rectángulo_309605" data-name="Rectángulo 309605" width="17.074" height="21.952" transform="translate(86.734 113.564)" fill="#4367e0"/>
    <rect id="Rectángulo_309606" data-name="Rectángulo 309606" width="17.074" height="37.806" transform="translate(103.808 97.71)" fill="#4976f2"/>
    <rect id="Rectángulo_309607" data-name="Rectángulo 309607" width="15.854" height="58.539" transform="translate(120.882 76.978)" fill="#548aff"/>
    <path id="Trazado_654370" data-name="Trazado 654370" d="M145.665,27.836,131.11,42.39V54.656l-12.265,8.177-8.177-8.177H100.447V46.479L90.99,40.8a47.057,47.057,0,0,1,54.675-12.968Z" transform="translate(-55.828 -5.948)" fill="#02c26a"/>
    <path id="Trazado_654371" data-name="Trazado 654371" d="M88.884,210.4l-8.177,6.133v24.357A47.036,47.036,0,0,1,48,196.088q0-2.066.176-4.088H60.265l6.133,8.177H82.751Z" transform="translate(-23.823 -131.028)" fill="#02c26a"/>
    <path id="Trazado_654372" data-name="Trazado 654372" d="M44.442,260.088c0-2.258-4.576-4.088-10.221-4.088S24,257.83,24,260.088v51.105c0,2.258,4.576,4.088,10.221,4.088s10.221-1.83,10.221-4.088Z" transform="translate(-5.956 -178.674)" fill="#ffc431"/>
    <ellipse id="Elipse_7930" data-name="Elipse 7930" cx="9.756" cy="4.268" rx="9.756" ry="4.268" transform="translate(18.439 76.978)" fill="#ffd873"/>
    <path id="Trazado_654373" data-name="Trazado 654373" d="M124.442,340.088c0-2.258-4.576-4.088-10.221-4.088S104,337.83,104,340.088v30.663c0,2.258,4.576,4.088,10.221,4.088s10.221-1.83,10.221-4.088Z" transform="translate(-65.514 -238.232)" fill="#ffc431"/>
    <ellipse id="Elipse_7931" data-name="Elipse 7931" cx="10.976" cy="4.268" rx="10.976" ry="4.268" transform="translate(37.952 97.71)" fill="#ffd873"/>
    <path id="Trazado_654374" data-name="Trazado 654374" d="M204.442,380.088c0-2.258-4.576-4.088-10.221-4.088S184,377.83,184,380.088V400.53c0,2.258,4.576,4.088,10.221,4.088s10.221-1.83,10.221-4.088Z" transform="translate(-125.072 -268.011)" fill="#ffc431"/>
    <ellipse id="Elipse_7932" data-name="Elipse 7932" cx="9.756" cy="3.659" rx="9.756" ry="3.659" transform="translate(59.904 108.686)" fill="#ffd873"/>
    <path id="Trazado_654375" data-name="Trazado 654375" d="M136.608,248H120.254a2.044,2.044,0,0,0-2.044,2.044v18.4H103.9a2.044,2.044,0,0,0-2.044,2.044V284.8H87.547A2.044,2.044,0,0,0,85.5,286.84v18.4H81.415V284.8c0-1.149-.556-3.3-4.279-4.789a22.18,22.18,0,0,0-7.987-1.344,22.181,22.181,0,0,0-7.987,1.344c-.065.026-.127.053-.19.079v-5.511c0-1.149-.556-3.3-4.279-4.789a22.18,22.18,0,0,0-7.987-1.344,22.181,22.181,0,0,0-7.987,1.344c-.065.026-.127.053-.19.079V254.133c0-1.149-.556-3.3-4.279-4.789A22.181,22.181,0,0,0,28.265,248a22.182,22.182,0,0,0-7.987,1.344c-3.723,1.489-4.279,3.64-4.279,4.789v51.105c0,1.149.556,3.3,4.279,4.789a22.18,22.18,0,0,0,7.987,1.344,22.182,22.182,0,0,0,7.987-1.344,9.846,9.846,0,0,0,2.234-1.212,9.846,9.846,0,0,0,2.234,1.212,22.179,22.179,0,0,0,7.987,1.344,22.181,22.181,0,0,0,7.987-1.344,9.844,9.844,0,0,0,2.234-1.212,9.846,9.846,0,0,0,2.234,1.212,22.179,22.179,0,0,0,7.987,1.344,22.181,22.181,0,0,0,7.987-1.344,11.119,11.119,0,0,0,1.454-.7h58.019a2.044,2.044,0,0,0,2.044-2.044V250.044A2.044,2.044,0,0,0,136.608,248ZM20.088,289.505c.063.026.125.053.19.079a22.18,22.18,0,0,0,7.987,1.344,22.181,22.181,0,0,0,7.987-1.344c.065-.026.127-.053.19-.079v5.434c-.355.633-3.184,2.122-8.177,2.122s-7.822-1.489-8.177-2.122Zm0-10.221c.063.026.125.053.19.079a22.181,22.181,0,0,0,7.987,1.344,22.182,22.182,0,0,0,7.987-1.344c.065-.026.127-.053.19-.079v5.434c-.355.633-3.184,2.122-8.177,2.122s-7.822-1.489-8.177-2.122Zm0-10.221c.063.026.125.053.19.079a22.179,22.179,0,0,0,7.987,1.344,22.181,22.181,0,0,0,7.987-1.344c.065-.026.127-.053.19-.079V274.5c-.355.633-3.184,2.122-8.177,2.122s-7.822-1.489-8.177-2.122Zm0-10.221c.063.026.125.053.19.079a22.18,22.18,0,0,0,7.987,1.344,22.182,22.182,0,0,0,7.987-1.344c.065-.026.127-.053.19-.079v5.434c-.355.633-3.184,2.122-8.177,2.122s-7.822-1.489-8.177-2.122Zm28.619,28c-4.993,0-7.822-1.489-8.177-2.122v-5.434c.063.026.125.053.19.079a22.18,22.18,0,0,0,7.987,1.344,22.182,22.182,0,0,0,7.987-1.344c.065-.026.127-.053.19-.079v5.434C56.529,285.351,53.7,286.84,48.707,286.84Zm-8.177,2.665c.063.026.125.053.19.079a22.181,22.181,0,0,0,7.987,1.344,22.181,22.181,0,0,0,7.987-1.344c.065-.026.127-.053.19-.079v5.434c-.355.633-3.184,2.122-8.177,2.122s-7.822-1.489-8.177-2.122Zm20.442,0c.063.026.125.053.19.079a22.181,22.181,0,0,0,7.987,1.344,22.181,22.181,0,0,0,7.987-1.344c.065-.026.127-.053.19-.079v5.434c-.355.633-3.184,2.122-8.177,2.122s-7.822-1.489-8.177-2.122Zm8.177-6.754c4.81,0,7.606,1.38,8.123,2.047-.532.67-3.33,2.041-8.123,2.041s-7.591-1.371-8.123-2.041C61.543,284.131,64.339,282.751,69.149,282.751ZM48.707,272.53c4.81,0,7.606,1.38,8.123,2.047-.531.67-3.33,2.041-8.123,2.041s-7.6-1.375-8.125-2.044C41.108,273.906,43.908,272.53,48.707,272.53ZM28.265,252.088c4.81,0,7.606,1.38,8.123,2.047-.532.67-3.33,2.041-8.123,2.041s-7.591-1.371-8.123-2.041C20.659,253.468,23.455,252.088,28.265,252.088Zm0,55.194c-4.984,0-7.814-1.484-8.177-2.119v-5.437c.063.026.125.053.19.079a22.18,22.18,0,0,0,7.987,1.344,22.181,22.181,0,0,0,7.987-1.344c.065-.026.127-.053.19-.079v5.437C36.079,305.8,33.25,307.282,28.265,307.282Zm20.442,0c-4.993,0-7.822-1.489-8.177-2.122v-5.434c.063.026.125.053.19.079a22.18,22.18,0,0,0,7.987,1.344,22.181,22.181,0,0,0,7.987-1.344c.065-.026.127-.053.19-.079v5.437C56.521,305.8,53.692,307.282,48.707,307.282Zm20.442,0c-4.984,0-7.814-1.484-8.177-2.119v-5.437c.063.026.125.053.19.079a22.18,22.18,0,0,0,7.987,1.344,22.181,22.181,0,0,0,7.987-1.344c.065-.026.127-.053.19-.079v5.437C76.963,305.8,74.134,307.282,69.149,307.282Zm20.442-18.4h12.265v16.354H89.591Zm16.354-16.354H118.21v32.707H105.945ZM122.3,305.238V252.088h12.265v53.149Z" transform="translate(0 -172.718)"/>
    <rect id="Rectángulo_309608" data-name="Rectángulo 309608" width="3.659" height="3.659" transform="translate(69.66 97.71)"/>
    <path id="Trazado_654376" data-name="Trazado 654376" d="M256,204.973v4.088h10.221a2.044,2.044,0,0,0,1.446-.6l41.483-41.483v3.242h4.088v-8.177A2.044,2.044,0,0,0,311.194,160h-8.177v4.088h3.242l-40.884,40.884Z" transform="translate(-178.674 -107.204)"/>
    <path id="Trazado_654377" data-name="Trazado 654377" d="M122.311,28.986A49.061,49.061,0,0,0,40,65.061a49.693,49.693,0,0,0,.413,6.4l4.054-.527a45.591,45.591,0,0,1-.379-5.869c0-.685.018-1.366.048-2.044h9.15l5.519,7.359a2.044,2.044,0,0,0,1.635.818h15.2l4.588,7.648-6.7,5.026a2.044,2.044,0,0,0-.818,1.635v6.133H76.8V86.525l7.359-5.519a2.044,2.044,0,0,0,.526-2.687L78.549,68.1a2.044,2.044,0,0,0-1.753-.992H61.464l-5.519-7.359a2.044,2.044,0,0,0-1.635-.818h-9.8a44.759,44.759,0,0,1,9.013-21.393l6.921,4.152v7.02a2.044,2.044,0,0,0,2.044,2.044H71.86l7.578,7.578a2.044,2.044,0,0,0,2.579.255l12.265-8.177a2.044,2.044,0,0,0,.91-1.7V37.289l12.957-12.957a44.869,44.869,0,0,1,8.911,5.535L106.15,38.96a2.044,2.044,0,0,0-.589,2.329l3.662,9.155-4.83,6.44h-9.2a2.045,2.045,0,0,0-1.226.409L85.79,63.425a2.044,2.044,0,0,0-.474,2.769L93.493,78.46a2.044,2.044,0,0,0,1.7.91h6.133V91.635h4.088V77.326a2.044,2.044,0,0,0-2.044-2.044H96.287l-6.5-9.746,6.085-4.564h9.54a2.044,2.044,0,0,0,1.635-.818l6.133-8.177a2.044,2.044,0,0,0,.263-1.986l-3.537-8.842,10.269-8.557a44.806,44.806,0,0,1,13.689,28.555l4.073-.351a48.9,48.9,0,0,0-15.628-31.811ZM91.7,35a2.044,2.044,0,0,0-.6,1.446V47.613l-9.961,6.64-6.992-6.992a2.044,2.044,0,0,0-1.445-.6H64.53V40.53a2.044,2.044,0,0,0-.992-1.753l-7.327-4.4a44.953,44.953,0,0,1,47.838-11.729Z" transform="translate(-17.867 0)"/>
  </g>
</svg>
