<svg xmlns="http://www.w3.org/2000/svg" width="385.623" height="328.353" viewBox="0 0 385.623 328.353">
  <g id="Grupo_973731" data-name="Grupo 973731" transform="translate(-697.957 -5121.203)">
    <g id="Grupo_973258" data-name="Grupo 973258" transform="translate(973.18 5152.923)">
      <g id="Grupo_973254" data-name="Grupo 973254">
        <g id="Grupo_973250" data-name="Grupo 973250">
          <path id="Trazado_650923" data-name="Trazado 650923" d="M1112.974,5179.876a17.356,17.356,0,1,1-19.665-14.638A17.336,17.336,0,0,1,1112.974,5179.876Z" transform="translate(-1078.442 -5165.055)" fill="#f5f5f5"/>
        </g>
        <g id="Grupo_973251" data-name="Grupo 973251" transform="translate(4.13 4.121)">
          <path id="Trazado_650924" data-name="Trazado 650924" d="M1110.467,5182.048a13.226,13.226,0,1,1-14.986-11.157A13.212,13.212,0,0,1,1110.467,5182.048Z" transform="translate(-1084.151 -5170.752)" fill="#ebebeb"/>
        </g>
        <g id="Grupo_973253" data-name="Grupo 973253" transform="translate(3.89 3.619)">
          <g id="Grupo_973252" data-name="Grupo 973252">
            <path id="Trazado_650925" data-name="Trazado 650925" d="M1110.313,5181.445a7.817,7.817,0,0,1-.575-1.523,14.033,14.033,0,0,0-2.093-3.792,13.527,13.527,0,0,0-2.078-2.127,13.231,13.231,0,0,0-2.89-1.786,13.033,13.033,0,0,0-3.6-1.036,12.912,12.912,0,0,0-1.978-.115,12.889,12.889,0,0,0-4.007.711,12.827,12.827,0,0,0-1.818.789,12.531,12.531,0,0,0-1.621,1.019,12.294,12.294,0,0,0-1.4,1.191,13.206,13.206,0,0,0-2.1,2.672,13.522,13.522,0,0,0-1.22,2.712,14.056,14.056,0,0,0-.658,4.28,7.736,7.736,0,0,1-.014,1.628,3.873,3.873,0,0,1-.379-1.606,12.237,12.237,0,0,1,.364-4.5,13.258,13.258,0,0,1,3.343-5.841,12.793,12.793,0,0,1,1.479-1.306,13.022,13.022,0,0,1,1.733-1.119,13.31,13.31,0,0,1,1.956-.866,13.547,13.547,0,0,1,4.322-.768,13.385,13.385,0,0,1,2.134.141,12.768,12.768,0,0,1,2.012.454,12.9,12.9,0,0,1,1.839.717,13.255,13.255,0,0,1,5.15,4.333,12.246,12.246,0,0,1,1.893,4.1A3.883,3.883,0,0,1,1110.313,5181.445Z" transform="translate(-1083.82 -5170.057)" fill="#e0e0e0"/>
          </g>
        </g>
      </g>
      <g id="Grupo_973257" data-name="Grupo 973257" transform="translate(11.481 8.092)">
        <g id="Grupo_973256" data-name="Grupo 973256">
          <g id="Grupo_973255" data-name="Grupo 973255">
            <path id="Trazado_650926" data-name="Trazado 650926" d="M1102.8,5193.061l.365,2.274-2.031.324-.354-2.213a9.748,9.748,0,0,1-5.317-.816l.72-2.656a8.3,8.3,0,0,0,4.172.811l-.544-3.392c-2.342-.187-4.981-.535-5.445-3.44-.345-2.152.923-4.251,4.073-5.13l-.361-2.255,2.031-.325.354,2.214a9.331,9.331,0,0,1,4.321.578l-.615,2.662a8.43,8.43,0,0,0-3.277-.56l.553,3.454c2.339.167,4.938.523,5.4,3.387C1107.183,5190.087,1105.932,5192.163,1102.8,5193.061Zm-3.468-8.653-.462-2.883c-1.037.416-1.37,1.073-1.262,1.743C1097.727,5183.978,1098.4,5184.267,1099.337,5184.407Zm4.277,4.337c-.114-.712-.765-1-1.687-1.168l.448,2.8C1103.356,5189.993,1103.718,5189.393,1103.614,5188.744Z" transform="translate(-1094.314 -5176.242)" fill="#e0e0e0"/>
          </g>
        </g>
      </g>
    </g>
    <g id="Grupo_973267" data-name="Grupo 973267" transform="translate(893.687 5145.089)">
      <g id="Grupo_973263" data-name="Grupo 973263">
        <g id="Grupo_973259" data-name="Grupo 973259">
          <path id="Trazado_650927" data-name="Trazado 650927" d="M1028.489,5179.954a30.127,30.127,0,1,1-34.137-25.412A30.1,30.1,0,0,1,1028.489,5179.954Z" transform="translate(-968.546 -5154.225)" fill="#f5f5f5"/>
        </g>
        <g id="Grupo_973260" data-name="Grupo 973260" transform="translate(7.169 7.153)">
          <path id="Trazado_650928" data-name="Trazado 650928" d="M1024.137,5183.721a22.959,22.959,0,1,1-26.014-19.365A22.934,22.934,0,0,1,1024.137,5183.721Z" transform="translate(-978.456 -5164.113)" fill="#ebebeb"/>
        </g>
        <g id="Grupo_973262" data-name="Grupo 973262" transform="translate(6.752 6.282)">
          <g id="Grupo_973261" data-name="Grupo 973261">
            <path id="Trazado_650929" data-name="Trazado 650929" d="M1023.868,5182.677a13.628,13.628,0,0,1-1-2.646,24.363,24.363,0,0,0-3.633-6.582,23.52,23.52,0,0,0-3.608-3.691,22.959,22.959,0,0,0-5.016-3.1,22.536,22.536,0,0,0-6.242-1.8,22.153,22.153,0,0,0-3.434-.2,22.448,22.448,0,0,0-6.956,1.234,22.322,22.322,0,0,0-3.156,1.37,22.489,22.489,0,0,0-5.242,3.836,22.982,22.982,0,0,0-3.641,4.639,23.553,23.553,0,0,0-2.117,4.708,24.38,24.38,0,0,0-1.143,7.43,13.433,13.433,0,0,1-.025,2.825,6.732,6.732,0,0,1-.658-2.789,21.226,21.226,0,0,1,.632-7.814,23,23,0,0,1,5.8-10.139,22.18,22.18,0,0,1,2.569-2.27,22.606,22.606,0,0,1,3.008-1.941,23.312,23.312,0,0,1,3.4-1.5,23.542,23.542,0,0,1,7.5-1.332,23.651,23.651,0,0,1,3.7.244,23.4,23.4,0,0,1,6.685,2.033,23,23,0,0,1,8.941,7.521,21.271,21.271,0,0,1,3.286,7.119A6.729,6.729,0,0,1,1023.868,5182.677Z" transform="translate(-977.88 -5162.909)" fill="#e0e0e0"/>
          </g>
        </g>
      </g>
      <g id="Grupo_973266" data-name="Grupo 973266" transform="translate(19.929 14.047)">
        <g id="Grupo_973265" data-name="Grupo 973265">
          <g id="Grupo_973264" data-name="Grupo 973264">
            <path id="Trazado_650930" data-name="Trazado 650930" d="M1010.836,5202.838l.633,3.949-3.526.564-.615-3.842a16.925,16.925,0,0,1-9.231-1.416l1.25-4.612a14.423,14.423,0,0,0,7.241,1.408l-.943-5.888c-4.066-.324-8.647-.929-9.454-5.972-.6-3.738,1.6-7.38,7.071-8.906l-.626-3.915,3.526-.564.615,3.844a16.151,16.151,0,0,1,7.5,1l-1.068,4.619a14.633,14.633,0,0,0-5.688-.97l.96,5.995c4.06.29,8.571.907,9.367,5.876C1018.436,5197.68,1016.265,5201.282,1010.836,5202.838Zm-6.02-15.02-.8-5.006c-1.8.722-2.377,1.863-2.191,3.027C1002.02,5187.072,1003.186,5187.574,1004.816,5187.818Zm7.425,7.526c-.2-1.235-1.327-1.74-2.929-2.027l.779,4.866C1011.793,5197.514,1012.422,5196.473,1012.241,5195.345Z" transform="translate(-996.097 -5173.644)" fill="#e0e0e0"/>
          </g>
        </g>
      </g>
    </g>
    <g id="Grupo_973276" data-name="Grupo 973276" transform="translate(710.46 5348.191)">
      <g id="Grupo_973272" data-name="Grupo 973272">
        <g id="Grupo_973268" data-name="Grupo 973268">
          <path id="Trazado_650931" data-name="Trazado 650931" d="M749.774,5449.828a17.356,17.356,0,1,1-19.666-14.639A17.336,17.336,0,0,1,749.774,5449.828Z" transform="translate(-715.241 -5435.005)" fill="#f5f5f5"/>
        </g>
        <g id="Grupo_973269" data-name="Grupo 973269" transform="translate(4.13 4.12)">
          <path id="Trazado_650932" data-name="Trazado 650932" d="M747.266,5452a13.226,13.226,0,1,1-14.986-11.156A13.21,13.21,0,0,1,747.266,5452Z" transform="translate(-720.951 -5440.701)" fill="#ebebeb"/>
        </g>
        <g id="Grupo_973271" data-name="Grupo 973271" transform="translate(3.89 3.619)">
          <g id="Grupo_973270" data-name="Grupo 973270">
            <path id="Trazado_650933" data-name="Trazado 650933" d="M747.112,5451.4a7.834,7.834,0,0,1-.574-1.524,14.059,14.059,0,0,0-2.093-3.792,13.524,13.524,0,0,0-2.078-2.126,13.246,13.246,0,0,0-2.89-1.787,12.915,12.915,0,0,0-3.6-1.035,12.788,12.788,0,0,0-1.978-.115,12.917,12.917,0,0,0-4.007.71,12.817,12.817,0,0,0-1.818.79,12.94,12.94,0,0,0-3.02,2.209,13.239,13.239,0,0,0-2.1,2.672,13.62,13.62,0,0,0-1.22,2.712,14.042,14.042,0,0,0-.657,4.279,7.748,7.748,0,0,1-.015,1.628,3.891,3.891,0,0,1-.379-1.606,12.235,12.235,0,0,1,.364-4.5,13.247,13.247,0,0,1,3.343-5.841,13.438,13.438,0,0,1,3.212-2.425,13.407,13.407,0,0,1,1.956-.868,14.785,14.785,0,0,1,2.13-.56,14.6,14.6,0,0,1,2.193-.207,13.5,13.5,0,0,1,2.134.141,12.843,12.843,0,0,1,2.012.454,12.7,12.7,0,0,1,1.839.717,13.257,13.257,0,0,1,5.15,4.333,12.25,12.25,0,0,1,1.894,4.1A3.88,3.88,0,0,1,747.112,5451.4Z" transform="translate(-720.619 -5440.008)" fill="#e0e0e0"/>
          </g>
        </g>
      </g>
      <g id="Grupo_973275" data-name="Grupo 973275" transform="translate(11.481 8.092)">
        <g id="Grupo_973274" data-name="Grupo 973274">
          <g id="Grupo_973273" data-name="Grupo 973273">
            <path id="Trazado_650934" data-name="Trazado 650934" d="M739.6,5463.01l.365,2.275-2.031.324-.354-2.213a9.753,9.753,0,0,1-5.317-.815l.72-2.657a8.319,8.319,0,0,0,4.172.812l-.543-3.392c-2.342-.187-4.981-.535-5.446-3.44-.344-2.154.923-4.252,4.074-5.131l-.361-2.254,2.031-.326.354,2.214a9.314,9.314,0,0,1,4.321.58l-.616,2.661a8.426,8.426,0,0,0-3.277-.56l.553,3.453c2.339.167,4.937.522,5.4,3.386C743.982,5460.038,742.731,5462.113,739.6,5463.01Zm-3.468-8.653-.462-2.884c-1.037.416-1.369,1.074-1.262,1.744C734.526,5453.927,735.2,5454.217,736.136,5454.357Zm4.278,4.336c-.114-.712-.765-1-1.688-1.168l.449,2.8C740.156,5459.943,740.517,5459.343,740.414,5458.693Z" transform="translate(-731.113 -5446.191)" fill="#e0e0e0"/>
          </g>
        </g>
      </g>
    </g>
    <g id="Grupo_973285" data-name="Grupo 973285" transform="translate(697.957 5303.967)">
      <g id="Grupo_973281" data-name="Grupo 973281">
        <g id="Grupo_973277" data-name="Grupo 973277">
          <path id="Trazado_650935" data-name="Trazado 650935" d="M715.254,5394.7a11.292,11.292,0,1,1,3.506-15.561A11.28,11.28,0,0,1,715.254,5394.7Z" transform="translate(-697.957 -5373.866)" fill="#f5f5f5"/>
        </g>
        <g id="Grupo_973278" data-name="Grupo 973278" transform="translate(2.683 2.685)">
          <path id="Trazado_650936" data-name="Trazado 650936" d="M714.847,5393.457a8.605,8.605,0,1,1,2.673-11.857A8.595,8.595,0,0,1,714.847,5393.457Z" transform="translate(-701.666 -5377.578)" fill="#ebebeb"/>
        </g>
        <g id="Grupo_973280" data-name="Grupo 973280" transform="translate(6.459 2.43)">
          <g id="Grupo_973279" data-name="Grupo 973279">
            <path id="Trazado_650937" data-name="Trazado 650937" d="M716.518,5393.215c-.03-.043.27-.275.754-.745a9.13,9.13,0,0,0,1.7-2.247,8.794,8.794,0,0,0,.715-1.8,8.633,8.633,0,0,0,.3-2.19,8.453,8.453,0,0,0-.335-2.412,8.386,8.386,0,0,0-.454-1.207,8.408,8.408,0,0,0-1.481-2.194,8.45,8.45,0,0,0-.95-.873,8.143,8.143,0,0,0-1.034-.694,8.009,8.009,0,0,0-1.079-.517,8.642,8.642,0,0,0-2.143-.541,8.785,8.785,0,0,0-1.934-.008,9.156,9.156,0,0,0-2.718.739,5.04,5.04,0,0,1-.972.422c-.022-.032.257-.3.855-.65a7.953,7.953,0,0,1,2.773-.973,8.678,8.678,0,0,1,2.05-.074,8.785,8.785,0,0,1,2.306.517,8.751,8.751,0,0,1,2.291,1.269,8.817,8.817,0,0,1,1.032.934,8.83,8.83,0,0,1,1.6,2.367,8.8,8.8,0,0,1,.48,1.307,8.775,8.775,0,0,1,.322,2.6,8.627,8.627,0,0,1-1.215,4.207,7.96,7.96,0,0,1-1.938,2.209A2.546,2.546,0,0,1,716.518,5393.215Z" transform="translate(-706.885 -5377.226)" fill="#e0e0e0"/>
          </g>
        </g>
      </g>
      <g id="Grupo_973284" data-name="Grupo 973284" transform="translate(5.466 6.989)">
        <g id="Grupo_973283" data-name="Grupo 973283">
          <g id="Grupo_973282" data-name="Grupo 973282">
            <path id="Trazado_650938" data-name="Trazado 650938" d="M707.5,5391.386l-1.256.817-.73-1.122,1.222-.8a6.338,6.338,0,0,1-.92-3.376l1.769-.274a5.407,5.407,0,0,0,.621,2.694l1.873-1.22c-.508-1.442-1-3.1.606-4.147,1.189-.773,2.772-.574,4.127,1.066l1.246-.811.73,1.123-1.222.8a6.058,6.058,0,0,1,.8,2.722l-1.745.337a5.5,5.5,0,0,0-.534-2.1l-1.907,1.241c.519,1.435.995,3.074-.587,4.1C710.423,5393.2,708.858,5393.007,707.5,5391.386Zm4.228-4.349,1.592-1.037c-.522-.507-1-.531-1.37-.29C711.557,5385.966,711.562,5386.441,711.727,5387.037Zm-1.448,3.689c.393-.255.394-.72.249-1.312l-1.548,1.007C709.468,5390.9,709.92,5390.959,710.279,5390.726Z" transform="translate(-705.513 -5383.527)" fill="#e0e0e0"/>
          </g>
        </g>
      </g>
    </g>
    <g id="Grupo_973294" data-name="Grupo 973294" transform="translate(943.102 5121.203)">
      <g id="Grupo_973290" data-name="Grupo 973290">
        <g id="Grupo_973286" data-name="Grupo 973286">
          <path id="Trazado_650939" data-name="Trazado 650939" d="M1054.157,5142.04a11.292,11.292,0,1,1,3.507-15.56A11.278,11.278,0,0,1,1054.157,5142.04Z" transform="translate(-1036.86 -5121.202)" fill="#f5f5f5"/>
        </g>
        <g id="Grupo_973287" data-name="Grupo 973287" transform="translate(2.683 2.685)">
          <path id="Trazado_650940" data-name="Trazado 650940" d="M1053.75,5140.794a8.6,8.6,0,1,1,2.672-11.858A8.6,8.6,0,0,1,1053.75,5140.794Z" transform="translate(-1040.569 -5124.915)" fill="#ebebeb"/>
        </g>
        <g id="Grupo_973289" data-name="Grupo 973289" transform="translate(6.459 2.43)">
          <g id="Grupo_973288" data-name="Grupo 973288">
            <path id="Trazado_650941" data-name="Trazado 650941" d="M1055.422,5140.551c-.03-.042.271-.275.754-.744a9.151,9.151,0,0,0,1.7-2.246,8.806,8.806,0,0,0,.715-1.8,8.6,8.6,0,0,0,.3-2.189,8.444,8.444,0,0,0-.335-2.412,8.294,8.294,0,0,0-.454-1.206,9.164,9.164,0,0,0-.654-1.156,9.272,9.272,0,0,0-.828-1.039,8.388,8.388,0,0,0-.95-.873,8.1,8.1,0,0,0-1.034-.695,7.973,7.973,0,0,0-1.078-.517,8.6,8.6,0,0,0-2.143-.541,8.847,8.847,0,0,0-1.934-.008,9.132,9.132,0,0,0-2.718.74,5.115,5.115,0,0,1-.972.422c-.022-.032.258-.3.855-.65a7.961,7.961,0,0,1,2.773-.973,8.653,8.653,0,0,1,2.05-.073,8.765,8.765,0,0,1,2.306.517,8.363,8.363,0,0,1,1.167.535,8.467,8.467,0,0,1,1.123.735,8.76,8.76,0,0,1,1.031.934,9.4,9.4,0,0,1,.9,1.119,9.5,9.5,0,0,1,.7,1.249,8.746,8.746,0,0,1,.48,1.305,8.383,8.383,0,0,1,.262,1.317,8.283,8.283,0,0,1,.059,1.283,8.618,8.618,0,0,1-1.214,4.207,7.969,7.969,0,0,1-1.938,2.209A2.527,2.527,0,0,1,1055.422,5140.551Z" transform="translate(-1045.789 -5124.562)" fill="#e0e0e0"/>
          </g>
        </g>
      </g>
      <g id="Grupo_973293" data-name="Grupo 973293" transform="translate(5.466 6.989)">
        <g id="Grupo_973292" data-name="Grupo 973292">
          <g id="Grupo_973291" data-name="Grupo 973291">
            <path id="Trazado_650942" data-name="Trazado 650942" d="M1046.4,5138.722l-1.256.818-.73-1.121,1.223-.8a6.347,6.347,0,0,1-.921-3.377l1.77-.274a5.4,5.4,0,0,0,.621,2.694l1.873-1.219c-.508-1.441-1-3.1.606-4.146,1.189-.774,2.772-.575,4.127,1.066l1.246-.81.73,1.122-1.223.8a6.058,6.058,0,0,1,.8,2.722l-1.745.337a5.5,5.5,0,0,0-.534-2.1l-1.907,1.241c.519,1.434.994,3.073-.587,4.1C1049.327,5140.54,1047.762,5140.344,1046.4,5138.722Zm4.227-4.349,1.593-1.036c-.521-.507-1-.532-1.371-.29C1050.461,5133.3,1050.466,5133.778,1050.631,5134.374Zm-1.447,3.689c.393-.256.394-.72.249-1.312l-1.548,1.007C1048.372,5138.24,1048.824,5138.3,1049.183,5138.063Z" transform="translate(-1044.417 -5130.864)" fill="#e0e0e0"/>
          </g>
        </g>
      </g>
    </g>
    <g id="Grupo_973298" data-name="Grupo 973298" transform="translate(707.599 5439.304)">
      <g id="Grupo_973295" data-name="Grupo 973295" transform="translate(0 0.189)">
        <line id="Línea_351" data-name="Línea 351" x2="375.98" fill="#263238"/>
      </g>
      <g id="Grupo_973297" data-name="Grupo 973297" transform="translate(0)">
        <g id="Grupo_973296" data-name="Grupo 973296">
          <path id="Trazado_650943" data-name="Trazado 650943" d="M1087.267,5561.153c0,.1-84.173.188-187.982.188-103.845,0-188-.083-188-.187s84.154-.189,188-.189C1003.094,5560.964,1087.267,5561.049,1087.267,5561.153Z" transform="translate(-711.287 -5560.964)" fill="#263238"/>
        </g>
      </g>
    </g>
    <g id="Grupo_973442" data-name="Grupo 973442" transform="translate(713.322 5147.377)">
      <g id="Grupo_973307" data-name="Grupo 973307" transform="translate(56.425 49.277)">
        <g id="Grupo_973305" data-name="Grupo 973305">
          <g id="Grupo_973301" data-name="Grupo 973301">
            <g id="Grupo_973300" data-name="Grupo 973300">
              <g id="Grupo_973299" data-name="Grupo 973299">
                <path id="Trazado_650944" data-name="Trazado 650944" d="M1081.193,5225.512H805.8a8.6,8.6,0,0,0-8.6,8.6v194.517a8.6,8.6,0,0,0,8.6,8.6H911.5s6.724,20.79-14.119,31.548h98.83s-23.531-8.068-17.481-31.548h102.468a8.6,8.6,0,0,0,8.6-8.6V5234.109A8.6,8.6,0,0,0,1081.193,5225.512Z" transform="translate(-797.204 -5225.512)" fill="#263238"/>
              </g>
            </g>
          </g>
          <g id="Grupo_973304" data-name="Grupo 973304" transform="translate(140.856 189.609)">
            <g id="Grupo_973303" data-name="Grupo 973303">
              <g id="Grupo_973302" data-name="Grupo 973302">
                <path id="Trazado_650945" data-name="Trazado 650945" d="M1001.045,5489.281c3.746,5.354-2.117,11.218-7.472,7.473a1.959,1.959,0,0,1-.46-.461c-3.735-5.354,2.12-11.208,7.472-7.472A1.9,1.9,0,0,1,1001.045,5489.281Z" transform="translate(-991.932 -5487.639)" fill="#455a64"/>
              </g>
            </g>
          </g>
        </g>
        <g id="Grupo_973306" data-name="Grupo 973306" transform="translate(4.741 3.563)">
          <path id="Rectángulo_308762" data-name="Rectángulo 308762" d="M9.7,0H273.4a9.7,9.7,0,0,1,9.7,9.7V172.56a0,0,0,0,1,0,0H0a0,0,0,0,1,0,0V9.7A9.7,9.7,0,0,1,9.7,0Z" fill="#fff"/>
        </g>
      </g>
      <g id="Grupo_973390" data-name="Grupo 973390" transform="translate(74.55 70.635)">
        <g id="Grupo_973309" data-name="Grupo 973309" transform="translate(10.602 21.161)">
          <g id="Grupo_973308" data-name="Grupo 973308">
            <rect id="Rectángulo_308763" data-name="Rectángulo 308763" width="9.285" height="103.697" fill="#449c6e"/>
          </g>
        </g>
        <g id="Grupo_973311" data-name="Grupo 973311" transform="translate(28.528 56.38)">
          <g id="Grupo_973310" data-name="Grupo 973310">
            <rect id="Rectángulo_308764" data-name="Rectángulo 308764" width="9.285" height="68.477" fill="#449c6e"/>
          </g>
        </g>
        <g id="Grupo_973313" data-name="Grupo 973313" transform="translate(46.454 34.05)">
          <g id="Grupo_973312" data-name="Grupo 973312">
            <rect id="Rectángulo_308765" data-name="Rectángulo 308765" width="9.285" height="91.335" fill="#449c6e"/>
          </g>
        </g>
        <g id="Grupo_973315" data-name="Grupo 973315" transform="translate(64.379 25.165)">
          <g id="Grupo_973314" data-name="Grupo 973314">
            <rect id="Rectángulo_308766" data-name="Rectángulo 308766" width="9.285" height="99.693" fill="#449c6e"/>
          </g>
        </g>
        <g id="Grupo_973317" data-name="Grupo 973317" transform="translate(82.305 58.488)">
          <g id="Grupo_973316" data-name="Grupo 973316">
            <rect id="Rectángulo_308767" data-name="Rectángulo 308767" width="9.285" height="66.37" fill="#449c6e"/>
          </g>
        </g>
        <g id="Grupo_973319" data-name="Grupo 973319" transform="translate(100.231 71.504)">
          <g id="Grupo_973318" data-name="Grupo 973318">
            <rect id="Rectángulo_308768" data-name="Rectángulo 308768" width="9.285" height="53.353" fill="#449c6e"/>
          </g>
        </g>
        <g id="Grupo_973321" data-name="Grupo 973321" transform="translate(118.157 31.804)">
          <g id="Grupo_973320" data-name="Grupo 973320">
            <rect id="Rectángulo_308769" data-name="Rectángulo 308769" width="9.285" height="93.054" fill="#449c6e"/>
          </g>
        </g>
        <g id="Grupo_973323" data-name="Grupo 973323" transform="translate(136.083 48.581)">
          <g id="Grupo_973322" data-name="Grupo 973322">
            <rect id="Rectángulo_308770" data-name="Rectángulo 308770" width="9.285" height="76.277" fill="#449c6e"/>
          </g>
        </g>
        <g id="Grupo_973325" data-name="Grupo 973325" transform="translate(154.009 35.175)">
          <g id="Grupo_973324" data-name="Grupo 973324">
            <rect id="Rectángulo_308771" data-name="Rectángulo 308771" width="9.285" height="89.683" fill="#449c6e"/>
          </g>
        </g>
        <g id="Grupo_973327" data-name="Grupo 973327" transform="translate(171.935 63.758)">
          <g id="Grupo_973326" data-name="Grupo 973326">
            <rect id="Rectángulo_308772" data-name="Rectángulo 308772" width="9.285" height="61.1" fill="#449c6e"/>
          </g>
        </g>
        <g id="Grupo_973329" data-name="Grupo 973329" transform="translate(207.689 31.804)">
          <g id="Grupo_973328" data-name="Grupo 973328">
            <rect id="Rectángulo_308773" data-name="Rectángulo 308773" width="9.285" height="93.054" fill="#449c6e"/>
          </g>
        </g>
        <g id="Grupo_973331" data-name="Grupo 973331" transform="translate(245.76 91.673)">
          <g id="Grupo_973330" data-name="Grupo 973330">
            <rect id="Rectángulo_308774" data-name="Rectángulo 308774" width="9.285" height="31.84" fill="#449c6e"/>
          </g>
        </g>
        <g id="Grupo_973333" data-name="Grupo 973333" transform="translate(227.201 63.758)">
          <g id="Grupo_973332" data-name="Grupo 973332">
            <rect id="Rectángulo_308775" data-name="Rectángulo 308775" width="9.285" height="61.1" fill="#449c6e"/>
          </g>
        </g>
        <g id="Grupo_973335" data-name="Grupo 973335" transform="translate(189.86 52.132)">
          <g id="Grupo_973334" data-name="Grupo 973334">
            <rect id="Rectángulo_308776" data-name="Rectángulo 308776" width="9.285" height="72.726" fill="#449c6e"/>
          </g>
        </g>
        <g id="Grupo_973338" data-name="Grupo 973338" transform="translate(15.746 32.239)">
          <g id="Grupo_973337" data-name="Grupo 973337">
            <g id="Grupo_973336" data-name="Grupo 973336">
              <path id="Trazado_650946" data-name="Trazado 650946" d="M1085.939,5301.748a4.658,4.658,0,0,1-.815-.13l-2.363-.483a35.967,35.967,0,0,0-3.865-.615,47.8,47.8,0,0,0-5.318-.444,61.432,61.432,0,0,0-14.534,1.249,64.114,64.114,0,0,0-18.031,6.827,73.731,73.731,0,0,0-18.258,14.538c-5.691,6.234-10.487,13.938-15.39,22.092-4.955,8.1-9.994,16.9-17.293,24.442a45.285,45.285,0,0,1-12.742,9.53,26.819,26.819,0,0,1-7.853,2.4,25.4,25.4,0,0,1-8.329-.281,33.978,33.978,0,0,1-14.5-7.606,67.661,67.661,0,0,1-10.742-11.723c-6.232-8.392-10.662-17.437-15.4-25.676-4.677-8.266-9.49-16-15.384-22.029a41.8,41.8,0,0,0-9.512-7.48,40.231,40.231,0,0,0-5.139-2.5,40.991,40.991,0,0,0-5.246-1.553,38.065,38.065,0,0,0-19.065.533,42.951,42.951,0,0,0-13.084,6.291,47.78,47.78,0,0,0-6.872,6.16c-.677.763-1.207,1.36-1.6,1.8a4.916,4.916,0,0,1-.574.593,4.773,4.773,0,0,1,.491-.66l1.526-1.875a44.561,44.561,0,0,1,6.79-6.348A42.774,42.774,0,0,1,866,5302.282a38.514,38.514,0,0,1,19.384-.69c7.139,1.422,14.411,5.523,20.353,11.645,6.012,6.1,10.887,13.883,15.6,22.157,4.774,8.25,9.215,17.261,15.386,25.544a66.9,66.9,0,0,0,10.589,11.538,33,33,0,0,0,14.052,7.38,24.38,24.38,0,0,0,7.969.271,25.742,25.742,0,0,0,7.556-2.308,44.372,44.372,0,0,0,12.455-9.3c7.192-7.4,12.226-16.134,17.2-24.229,4.927-8.141,9.783-15.888,15.572-22.177a74.063,74.063,0,0,1,18.539-14.6,64.076,64.076,0,0,1,18.269-6.752,60.533,60.533,0,0,1,14.669-1.084,45.848,45.848,0,0,1,5.343.542,33.451,33.451,0,0,1,3.866.715l2.345.586A5.1,5.1,0,0,1,1085.939,5301.748Z" transform="translate(-844.029 -5299.607)" fill="#263238"/>
            </g>
          </g>
        </g>
        <g id="Grupo_973341" data-name="Grupo 973341">
          <g id="Grupo_973340" data-name="Grupo 973340">
            <g id="Grupo_973339" data-name="Grupo 973339">
              <path id="Trazado_650947" data-name="Trazado 650947" d="M822.642,5387.118c-.211,0-.381-29.57-.381-66.038s.171-66.043.381-66.043.381,29.564.381,66.043S822.853,5387.118,822.642,5387.118Z" transform="translate(-822.261 -5255.038)" fill="#263238"/>
            </g>
          </g>
        </g>
        <g id="Grupo_973344" data-name="Grupo 973344" transform="translate(6.206 131.699)">
          <g id="Grupo_973343" data-name="Grupo 973343">
            <g id="Grupo_973342" data-name="Grupo 973342">
              <path id="Trazado_650948" data-name="Trazado 650948" d="M1079.68,5437.488c0,.21-55.709.381-124.414.381-68.728,0-124.425-.171-124.425-.381s55.7-.381,124.425-.381C1023.97,5437.106,1079.68,5437.277,1079.68,5437.488Z" transform="translate(-830.84 -5437.106)" fill="#263238"/>
            </g>
          </g>
        </g>
        <g id="Grupo_973347" data-name="Grupo 973347" transform="translate(10.065 139.861)">
          <g id="Grupo_973346" data-name="Grupo 973346">
            <g id="Grupo_973345" data-name="Grupo 973345">
              <path id="Trazado_650949" data-name="Trazado 650949" d="M849.957,5448.771c0,.211-3.086.382-6.891.382s-6.891-.171-6.891-.382,3.084-.381,6.891-.381S849.957,5448.561,849.957,5448.771Z" transform="translate(-836.176 -5448.391)" fill="#263238"/>
            </g>
          </g>
        </g>
        <g id="Grupo_973350" data-name="Grupo 973350" transform="translate(30.232 140.277)">
          <g id="Grupo_973349" data-name="Grupo 973349">
            <g id="Grupo_973348" data-name="Grupo 973348">
              <path id="Trazado_650950" data-name="Trazado 650950" d="M880.527,5449.346c0,.21-3.688.382-8.235.382s-8.236-.171-8.236-.382,3.687-.381,8.236-.381S880.527,5449.136,880.527,5449.346Z" transform="translate(-864.056 -5448.965)" fill="#263238"/>
            </g>
          </g>
        </g>
        <g id="Grupo_973353" data-name="Grupo 973353" transform="translate(49.728 140.277)">
          <g id="Grupo_973352" data-name="Grupo 973352">
            <g id="Grupo_973351" data-name="Grupo 973351">
              <path id="Trazado_650951" data-name="Trazado 650951" d="M907.478,5449.346c0,.21-3.687.382-8.235.382s-8.235-.171-8.235-.382,3.686-.381,8.235-.381S907.478,5449.136,907.478,5449.346Z" transform="translate(-891.008 -5448.965)" fill="#263238"/>
            </g>
          </g>
        </g>
        <g id="Grupo_973356" data-name="Grupo 973356" transform="translate(69.223 140.277)">
          <g id="Grupo_973355" data-name="Grupo 973355">
            <g id="Grupo_973354" data-name="Grupo 973354">
              <path id="Trazado_650952" data-name="Trazado 650952" d="M934.43,5449.346c0,.21-3.688.382-8.235.382s-8.236-.171-8.236-.382,3.687-.381,8.236-.381S934.43,5449.136,934.43,5449.346Z" transform="translate(-917.959 -5448.965)" fill="#263238"/>
            </g>
          </g>
        </g>
        <g id="Grupo_973359" data-name="Grupo 973359" transform="translate(88.719 140.277)">
          <g id="Grupo_973358" data-name="Grupo 973358">
            <g id="Grupo_973357" data-name="Grupo 973357">
              <path id="Trazado_650953" data-name="Trazado 650953" d="M961.381,5449.346c0,.21-3.687.382-8.234.382s-8.235-.171-8.235-.382,3.686-.381,8.235-.381S961.381,5449.136,961.381,5449.346Z" transform="translate(-944.911 -5448.965)" fill="#263238"/>
            </g>
          </g>
        </g>
        <g id="Grupo_973362" data-name="Grupo 973362" transform="translate(108.214 140.277)">
          <g id="Grupo_973361" data-name="Grupo 973361">
            <g id="Grupo_973360" data-name="Grupo 973360">
              <path id="Trazado_650954" data-name="Trazado 650954" d="M988.332,5449.346c0,.21-3.687.382-8.235.382s-8.235-.171-8.235-.382,3.687-.381,8.235-.381S988.332,5449.136,988.332,5449.346Z" transform="translate(-971.862 -5448.965)" fill="#263238"/>
            </g>
          </g>
        </g>
        <g id="Grupo_973365" data-name="Grupo 973365" transform="translate(127.709 140.277)">
          <g id="Grupo_973364" data-name="Grupo 973364">
            <g id="Grupo_973363" data-name="Grupo 973363">
              <path id="Trazado_650955" data-name="Trazado 650955" d="M1015.284,5449.346c0,.21-3.688.382-8.235.382s-8.235-.171-8.235-.382,3.686-.381,8.235-.381S1015.284,5449.136,1015.284,5449.346Z" transform="translate(-998.814 -5448.965)" fill="#263238"/>
            </g>
          </g>
        </g>
        <g id="Grupo_973368" data-name="Grupo 973368" transform="translate(147.204 140.277)">
          <g id="Grupo_973367" data-name="Grupo 973367">
            <g id="Grupo_973366" data-name="Grupo 973366">
              <path id="Trazado_650956" data-name="Trazado 650956" d="M1042.235,5449.346c0,.21-3.687.382-8.235.382s-8.235-.171-8.235-.382,3.687-.381,8.235-.381S1042.235,5449.136,1042.235,5449.346Z" transform="translate(-1025.765 -5448.965)" fill="#263238"/>
            </g>
          </g>
        </g>
        <g id="Grupo_973371" data-name="Grupo 973371" transform="translate(166.7 140.277)">
          <g id="Grupo_973370" data-name="Grupo 973370">
            <g id="Grupo_973369" data-name="Grupo 973369">
              <path id="Trazado_650957" data-name="Trazado 650957" d="M1069.187,5449.346c0,.21-3.688.382-8.234.382s-8.235-.171-8.235-.382,3.686-.381,8.235-.381S1069.187,5449.136,1069.187,5449.346Z" transform="translate(-1052.717 -5448.965)" fill="#263238"/>
            </g>
          </g>
        </g>
        <g id="Grupo_973374" data-name="Grupo 973374" transform="translate(186.195 140.277)">
          <g id="Grupo_973373" data-name="Grupo 973373">
            <g id="Grupo_973372" data-name="Grupo 973372">
              <path id="Trazado_650958" data-name="Trazado 650958" d="M1096.138,5449.346c0,.21-3.687.382-8.235.382s-8.235-.171-8.235-.382,3.686-.381,8.235-.381S1096.138,5449.136,1096.138,5449.346Z" transform="translate(-1079.668 -5448.965)" fill="#263238"/>
            </g>
          </g>
        </g>
        <g id="Grupo_973377" data-name="Grupo 973377" transform="translate(204.327 140.283)">
          <g id="Grupo_973376" data-name="Grupo 973376">
            <g id="Grupo_973375" data-name="Grupo 973375">
              <path id="Trazado_650959" data-name="Trazado 650959" d="M1121.2,5449.355c0,.211-3.687.382-8.234.382s-8.235-.171-8.235-.382,3.686-.381,8.235-.381S1121.2,5449.145,1121.2,5449.355Z" transform="translate(-1104.735 -5448.975)" fill="#263238"/>
            </g>
          </g>
        </g>
        <g id="Grupo_973380" data-name="Grupo 973380" transform="translate(222.459 140.29)">
          <g id="Grupo_973379" data-name="Grupo 973379">
            <g id="Grupo_973378" data-name="Grupo 973378">
              <path id="Trazado_650960" data-name="Trazado 650960" d="M1146.272,5449.364c0,.211-3.687.382-8.235.382s-8.235-.171-8.235-.382,3.686-.381,8.235-.381S1146.272,5449.154,1146.272,5449.364Z" transform="translate(-1129.802 -5448.983)" fill="#263238"/>
            </g>
          </g>
        </g>
        <g id="Grupo_973383" data-name="Grupo 973383" transform="translate(240.591 140.296)">
          <g id="Grupo_973382" data-name="Grupo 973382">
            <g id="Grupo_973381" data-name="Grupo 973381">
              <path id="Trazado_650961" data-name="Trazado 650961" d="M1171.339,5449.374c0,.21-3.687.382-8.234.382s-8.235-.172-8.235-.382,3.687-.381,8.235-.381S1171.339,5449.163,1171.339,5449.374Z" transform="translate(-1154.869 -5448.992)" fill="#263238"/>
            </g>
          </g>
        </g>
        <g id="Grupo_973386" data-name="Grupo 973386" transform="translate(91.506 68.991)">
          <g id="Grupo_973385" data-name="Grupo 973385">
            <g id="Grupo_973384" data-name="Grupo 973384">
              <path id="Trazado_650962" data-name="Trazado 650962" d="M952.414,5350.864c.008-.159,1.139.238,1.5,1.795a3.817,3.817,0,0,1-.288,2.676,2.315,2.315,0,0,1-1.353,1.143,2.458,2.458,0,0,1-1.887-.223,3.154,3.154,0,0,1-1.612-2.959,3.288,3.288,0,0,1,1.293-2.39,2.134,2.134,0,0,1,1.774-.439c.43.13.577.338.547.384-.045.143-.943-.287-1.851.618a2.713,2.713,0,0,0-.808,1.867,2.279,2.279,0,0,0,1.15,2.006,1.362,1.362,0,0,0,1.918-.487,3.377,3.377,0,0,0,.393-2.064A4.689,4.689,0,0,0,952.414,5350.864Z" transform="translate(-948.765 -5350.417)" fill="#263238"/>
            </g>
          </g>
        </g>
        <g id="Grupo_973389" data-name="Grupo 973389" transform="translate(214.06 35.016)">
          <g id="Grupo_973388" data-name="Grupo 973388">
            <g id="Grupo_973387" data-name="Grupo 973387">
              <path id="Trazado_650963" data-name="Trazado 650963" d="M1121.49,5303.78c0-.058.292-.154.8,0a3.111,3.111,0,0,1,1.657,1.435,4.106,4.106,0,0,1,.41,3.256,3.432,3.432,0,0,1-3.177,2.539,2.736,2.736,0,0,1-2.022-1.056,4.373,4.373,0,0,1-.855-1.806,4.159,4.159,0,0,1,.524-3.229c1.141-1.617,2.556-1.534,2.5-1.415.068.15-1.113.379-1.871,1.79a3.589,3.589,0,0,0-.226,2.627c.245.955.979,2.044,1.979,2.051a2.549,2.549,0,0,0,2.235-1.8,3.546,3.546,0,0,0-.151-2.616A3.75,3.75,0,0,0,1121.49,5303.78Z" transform="translate(-1118.191 -5303.446)" fill="#263238"/>
            </g>
          </g>
        </g>
      </g>
      <g id="Grupo_973441" data-name="Grupo 973441">
        <g id="Grupo_973440" data-name="Grupo 973440">
          <g id="Grupo_973431" data-name="Grupo 973431">
            <g id="Grupo_973396" data-name="Grupo 973396">
              <g id="Grupo_973392" data-name="Grupo 973392" transform="translate(0.211 0.211)">
                <g id="Grupo_973391" data-name="Grupo 973391">
                  <rect id="Rectángulo_308777" data-name="Rectángulo 308777" width="186.342" height="145.025" fill="#fff"/>
                </g>
              </g>
              <g id="Grupo_973395" data-name="Grupo 973395">
                <g id="Grupo_973394" data-name="Grupo 973394">
                  <g id="Grupo_973393" data-name="Grupo 973393">
                    <path id="Trazado_650964" data-name="Trazado 650964" d="M905.751,5302.623c0-1.447-.069-57.506-.174-145.024l.174.173-186.326.037h-.016l.211-.21c-.008,52.274-.015,101.718-.022,145.024l-.189-.188,186.342.188-186.342.19h-.189v-.19c-.007-43.306-.014-92.75-.022-145.024v-.21h.227l186.326.035h.174v.175C905.82,5245.117,905.752,5301.177,905.751,5302.623Z" transform="translate(-719.198 -5157.389)" fill="#263238"/>
                  </g>
                </g>
              </g>
            </g>
            <g id="Grupo_973430" data-name="Grupo 973430" transform="translate(9.3 19.264)">
              <g id="Grupo_973398" data-name="Grupo 973398">
                <g id="Grupo_973397" data-name="Grupo 973397">
                  <rect id="Rectángulo_308778" data-name="Rectángulo 308778" width="30.165" height="1.678" fill="#263238"/>
                </g>
              </g>
              <g id="Grupo_973400" data-name="Grupo 973400" transform="translate(0 3.928)">
                <g id="Grupo_973399" data-name="Grupo 973399">
                  <rect id="Rectángulo_308779" data-name="Rectángulo 308779" width="14.906" height="1.678" fill="#263238"/>
                </g>
              </g>
              <g id="Grupo_973429" data-name="Grupo 973429" transform="translate(17.198 12.251)">
                <g id="Grupo_973423" data-name="Grupo 973423">
                  <g id="Grupo_973401" data-name="Grupo 973401" transform="translate(0 92.882)">
                    <rect id="Rectángulo_308780" data-name="Rectángulo 308780" width="5.464" height="1.575" fill="#263238"/>
                  </g>
                  <g id="Grupo_973402" data-name="Grupo 973402" transform="translate(12.362 101.3)">
                    <rect id="Rectángulo_308781" data-name="Rectángulo 308781" width="6.988" height="1.575" fill="#263238"/>
                  </g>
                  <g id="Grupo_973403" data-name="Grupo 973403" transform="translate(36.688 101.3)">
                    <rect id="Rectángulo_308782" data-name="Rectángulo 308782" width="6.988" height="1.575" fill="#263238"/>
                  </g>
                  <g id="Grupo_973404" data-name="Grupo 973404" transform="translate(61.014 101.3)">
                    <rect id="Rectángulo_308783" data-name="Rectángulo 308783" width="6.988" height="1.575" fill="#263238"/>
                  </g>
                  <g id="Grupo_973405" data-name="Grupo 973405" transform="translate(85.34 101.3)">
                    <rect id="Rectángulo_308784" data-name="Rectángulo 308784" width="6.988" height="1.575" fill="#263238"/>
                  </g>
                  <g id="Grupo_973406" data-name="Grupo 973406" transform="translate(109.665 101.3)">
                    <rect id="Rectángulo_308785" data-name="Rectángulo 308785" width="6.988" height="1.575" fill="#263238"/>
                  </g>
                  <g id="Grupo_973407" data-name="Grupo 973407" transform="translate(133.991 101.3)">
                    <rect id="Rectángulo_308786" data-name="Rectángulo 308786" width="6.988" height="1.575" fill="#263238"/>
                  </g>
                  <g id="Grupo_973408" data-name="Grupo 973408" transform="translate(0 71.852)">
                    <rect id="Rectángulo_308787" data-name="Rectángulo 308787" width="5.464" height="1.575" fill="#263238"/>
                  </g>
                  <g id="Grupo_973409" data-name="Grupo 973409" transform="translate(0 32.271)">
                    <rect id="Rectángulo_308788" data-name="Rectángulo 308788" width="5.464" height="1.575" fill="#263238"/>
                  </g>
                  <g id="Grupo_973410" data-name="Grupo 973410" transform="translate(0 12.38)">
                    <rect id="Rectángulo_308789" data-name="Rectángulo 308789" width="5.464" height="1.575" fill="#263238"/>
                  </g>
                  <g id="Grupo_973411" data-name="Grupo 973411" transform="translate(0.277 52.062)">
                    <rect id="Rectángulo_308790" data-name="Rectángulo 308790" width="5.464" height="1.575" fill="#263238"/>
                  </g>
                  <g id="Grupo_973413" data-name="Grupo 973413" transform="translate(8.129)">
                    <g id="Grupo_973412" data-name="Grupo 973412">
                      <path id="Trazado_650965" data-name="Trazado 650965" d="M899.723,5295.414s-.2.013-.586.019-.972.01-1.719.018l-6.612.036-24.316.06-80.224.055-19.011,0h-.186v-.186c.025-26.831.048-50.442.064-67.355.024-8.446.043-15.219.056-19.891.014-2.324.025-4.122.033-5.354.007-.6.012-1.063.017-1.386s.017-.471.017-.471.012.159.017.471.009.784.017,1.386c.007,1.232.018,3.03.032,5.354.013,4.672.033,11.445.056,19.891.016,16.914.038,40.524.063,67.355l-.185-.187,19.011,0c31.323.021,59.683.04,80.224.055l24.316.06,6.612.034,1.719.019C899.524,5295.4,899.723,5295.414,899.723,5295.414Z" transform="translate(-767.068 -5200.956)" fill="#263238"/>
                    </g>
                  </g>
                  <g id="Grupo_973415" data-name="Grupo 973415" transform="translate(13.6 52.66)">
                    <g id="Grupo_973414" data-name="Grupo 973414">
                      <path id="Trazado_650966" data-name="Trazado 650966" d="M903.355,5273.945c0,.1-28.818.188-64.358.188s-64.364-.084-64.364-.188,28.812-.188,64.364-.188S903.355,5273.842,903.355,5273.945Z" transform="translate(-774.632 -5273.757)" fill="#263238"/>
                    </g>
                  </g>
                  <g id="Grupo_973417" data-name="Grupo 973417" transform="translate(13.6 32.87)">
                    <g id="Grupo_973416" data-name="Grupo 973416">
                      <path id="Trazado_650967" data-name="Trazado 650967" d="M903.355,5246.586c0,.1-28.818.188-64.358.188s-64.364-.084-64.364-.188,28.812-.189,64.364-.189S903.355,5246.482,903.355,5246.586Z" transform="translate(-774.632 -5246.397)" fill="#263238"/>
                    </g>
                  </g>
                  <g id="Grupo_973419" data-name="Grupo 973419" transform="translate(13.6 12.979)">
                    <g id="Grupo_973418" data-name="Grupo 973418">
                      <path id="Trazado_650968" data-name="Trazado 650968" d="M903.355,5219.087c0,.1-28.818.188-64.358.188s-64.364-.084-64.364-.188,28.812-.188,64.364-.188S903.355,5218.984,903.355,5219.087Z" transform="translate(-774.632 -5218.899)" fill="#263238"/>
                    </g>
                  </g>
                  <g id="Grupo_973421" data-name="Grupo 973421" transform="translate(13.6 72.451)">
                    <g id="Grupo_973420" data-name="Grupo 973420">
                      <path id="Trazado_650969" data-name="Trazado 650969" d="M903.355,5301.306c0,.1-28.818.188-64.358.188s-64.364-.084-64.364-.187,28.812-.188,64.364-.188S903.355,5301.2,903.355,5301.306Z" transform="translate(-774.632 -5301.117)" fill="#263238"/>
                    </g>
                  </g>
                  <g id="Grupo_973422" data-name="Grupo 973422" transform="translate(14.927 1.459)">
                    <path id="Trazado_650970" data-name="Trazado 650970" d="M776.466,5291.713v-17.559l10.944-16.99,7.426,5.7,15.244-23.678,8.99,6.331,12.508-21.844,10.162,8.279,15.244-28.977,16.416,32.386,13.289-16.2,15.634-4.474v77.031Z" transform="translate(-776.466 -5202.973)" fill="#455a64"/>
                  </g>
                </g>
                <g id="Grupo_973425" data-name="Grupo 973425" transform="translate(14.927 6.828)">
                  <g id="Grupo_973424" data-name="Grupo 973424">
                    <path id="Trazado_650971" data-name="Trazado 650971" d="M903.862,5210.5s-.093.01-.276.014l-.815.014-3.172.028-12,.048.082-.041-12.868,16.793-.044.059H874.7l-32.187.032.155-.087-13.534,22.527-13.284,22.083-.141.235-.161-.221c-6.362-8.743-12.245-16.828-17.443-23.97l.254-.007L782.471,5272.8l-4.422,6.858-1.169,1.793c-.267.4-.414.6-.414.6s.121-.218.374-.63l1.131-1.817c1.008-1.6,2.477-3.928,4.352-6.9l15.774-24.864.12-.19.133.182,17.488,23.936-.3.014,13.273-22.091,13.546-22.52.053-.088h.1l32.188.031-.118.058,12.938-16.739.032-.042h.051l12,.049,3.172.027.815.014C903.769,5210.491,903.862,5210.5,903.862,5210.5Z" transform="translate(-776.466 -5210.396)" fill="#263238"/>
                  </g>
                </g>
                <g id="Grupo_973426" data-name="Grupo 973426" transform="translate(39.494 48.797)">
                  <path id="Trazado_650972" data-name="Trazado 650972" d="M812.9,5269.6a1.236,1.236,0,1,1-1.235-1.189A1.213,1.213,0,0,1,812.9,5269.6Z" transform="translate(-810.429 -5268.416)" fill="#263238"/>
                </g>
                <g id="Grupo_973427" data-name="Grupo 973427" transform="translate(76.62 27.696)">
                  <path id="Trazado_650973" data-name="Trazado 650973" d="M864.224,5240.433a1.236,1.236,0,1,1-1.235-1.189A1.212,1.212,0,0,1,864.224,5240.433Z" transform="translate(-861.755 -5239.244)" fill="#263238"/>
                </g>
                <g id="Grupo_973428" data-name="Grupo 973428" transform="translate(105.482 22.511)">
                  <ellipse id="Elipse_7769" data-name="Elipse 7769" cx="1.235" cy="1.189" rx="1.235" ry="1.189" fill="#263238"/>
                </g>
              </g>
            </g>
          </g>
          <g id="Grupo_973435" data-name="Grupo 973435" transform="translate(5.128 4.744)">
            <g id="Grupo_973432" data-name="Grupo 973432">
              <path id="Trazado_650974" data-name="Trazado 650974" d="M729.157,5165.382a1.435,1.435,0,1,1-1.435-1.435A1.435,1.435,0,0,1,729.157,5165.382Z" transform="translate(-726.287 -5163.947)" fill="#263238"/>
            </g>
            <g id="Grupo_973433" data-name="Grupo 973433" transform="translate(4.172)">
              <path id="Trazado_650975" data-name="Trazado 650975" d="M734.924,5165.382a1.434,1.434,0,1,1-1.434-1.435A1.434,1.434,0,0,1,734.924,5165.382Z" transform="translate(-732.055 -5163.947)" fill="#263238"/>
            </g>
            <g id="Grupo_973434" data-name="Grupo 973434" transform="translate(8.344)">
              <path id="Trazado_650976" data-name="Trazado 650976" d="M740.691,5165.382a1.435,1.435,0,1,1-1.435-1.435A1.435,1.435,0,0,1,740.691,5165.382Z" transform="translate(-737.822 -5163.947)" fill="#263238"/>
            </g>
          </g>
          <g id="Grupo_973439" data-name="Grupo 973439" transform="translate(0.419 11.637)">
            <g id="Grupo_973436" data-name="Grupo 973436" transform="translate(0 0.188)">
              <line id="Línea_352" data-name="Línea 352" x2="185.977" fill="#263238"/>
            </g>
            <g id="Grupo_973438" data-name="Grupo 973438" transform="translate(0)">
              <g id="Grupo_973437" data-name="Grupo 973437">
                <path id="Trazado_650977" data-name="Trazado 650977" d="M905.755,5173.664c0,.1-41.636.189-92.984.189-51.366,0-92.993-.085-92.993-.189s41.626-.187,92.993-.187C864.119,5173.476,905.755,5173.559,905.755,5173.664Z" transform="translate(-719.778 -5173.476)" fill="#263238"/>
              </g>
            </g>
          </g>
        </g>
      </g>
    </g>
    <g id="Grupo_973727" data-name="Grupo 973727" transform="translate(737.864 5207.173)">
      <g id="Grupo_973482" data-name="Grupo 973482" transform="translate(1.355 226.541)">
        <g id="Grupo_973445" data-name="Grupo 973445">
          <g id="Grupo_973444" data-name="Grupo 973444">
            <g id="Grupo_973443" data-name="Grupo 973443">
              <path id="Trazado_650978" data-name="Trazado 650978" d="M768.075,5553.237l-1.247,5.238s-8.567,11.127-11.21,10.583c-1.732-.356.4-3.259,3.655-11.711l.684-3.49Z" transform="translate(-755.001 -5553.237)" fill="#455a64"/>
            </g>
          </g>
        </g>
        <g id="Grupo_973449" data-name="Grupo 973449" transform="translate(0.269 3.98)">
          <g id="Grupo_973448" data-name="Grupo 973448">
            <g id="Grupo_973447" data-name="Grupo 973447">
              <g id="Grupo_973446" data-name="Grupo 973446">
                <path id="Trazado_650979" data-name="Trazado 650979" d="M755.373,5568.938a1.112,1.112,0,0,0,.457.438,1.588,1.588,0,0,0,1.641-.228,47.839,47.839,0,0,0,4.263-4.04c1.587-1.665,2.919-3.266,3.856-4.446l1.094-1.41c.106-.138.2-.265.3-.385.07-.087.108-.132.112-.127a.708.708,0,0,1-.087.146l-.273.4c-.242.347-.6.841-1.057,1.442a55.289,55.289,0,0,1-3.83,4.484,41.723,41.723,0,0,1-4.315,4.025,2.02,2.02,0,0,1-.968.356,1.409,1.409,0,0,1-.761-.166.96.96,0,0,1-.36-.334A.48.48,0,0,1,755.373,5568.938Z" transform="translate(-755.373 -5558.74)" fill="#263238"/>
              </g>
            </g>
          </g>
        </g>
        <g id="Grupo_973453" data-name="Grupo 973453" transform="translate(1.482 10.517)">
          <g id="Grupo_973452" data-name="Grupo 973452">
            <g id="Grupo_973451" data-name="Grupo 973451">
              <g id="Grupo_973450" data-name="Grupo 973450">
                <path id="Trazado_650980" data-name="Trazado 650980" d="M757.05,5567.862a1.375,1.375,0,0,1,.7-.079,3.673,3.673,0,0,1,1.615.561,2.964,2.964,0,0,1,1.173,1.24,1.529,1.529,0,0,1,.185.686c-.027.006-.08-.261-.282-.635a3.15,3.15,0,0,0-1.157-1.159,4.093,4.093,0,0,0-1.545-.583C757.32,5567.833,757.054,5567.889,757.05,5567.862Z" transform="translate(-757.05 -5567.777)" fill="#263238"/>
              </g>
            </g>
          </g>
        </g>
        <g id="Grupo_973457" data-name="Grupo 973457" transform="translate(9.276 2.715)">
          <g id="Grupo_973456" data-name="Grupo 973456">
            <g id="Grupo_973455" data-name="Grupo 973455">
              <g id="Grupo_973454" data-name="Grupo 973454">
                <path id="Trazado_650981" data-name="Trazado 650981" d="M768.142,5562.266a.855.855,0,0,1-.1-.25,4.625,4.625,0,0,1-.169-.718,3.9,3.9,0,0,1,.4-2.383,3.682,3.682,0,0,1,1.732-1.683,2.826,2.826,0,0,1,.708-.218.768.768,0,0,1,.27-.017,5.989,5.989,0,0,0-.931.334,3.782,3.782,0,0,0-1.641,1.655,4.025,4.025,0,0,0-.428,2.3C768.048,5561.891,768.169,5562.259,768.142,5562.266Z" transform="translate(-767.824 -5556.991)" fill="#263238"/>
              </g>
            </g>
          </g>
        </g>
        <g id="Grupo_973461" data-name="Grupo 973461" transform="translate(11.763 0.888)">
          <g id="Grupo_973460" data-name="Grupo 973460">
            <g id="Grupo_973459" data-name="Grupo 973459">
              <g id="Grupo_973458" data-name="Grupo 973458">
                <path id="Trazado_650982" data-name="Trazado 650982" d="M772.029,5554.465c.038.014-.156.746-.316,1.671a5.718,5.718,0,0,1-.446,1.648c-.034-.012.138-.747.294-1.676A5.556,5.556,0,0,1,772.029,5554.465Z" transform="translate(-771.263 -5554.465)" fill="#263238"/>
              </g>
            </g>
          </g>
        </g>
        <g id="Grupo_973465" data-name="Grupo 973465" transform="translate(4.121 4.785)">
          <g id="Grupo_973464" data-name="Grupo 973464">
            <g id="Grupo_973463" data-name="Grupo 973463">
              <g id="Grupo_973462" data-name="Grupo 973462">
                <path id="Trazado_650983" data-name="Trazado 650983" d="M760.7,5559.917a2.573,2.573,0,0,1,2.091.482c-.022.041-.451-.189-1.027-.319S760.7,5559.963,760.7,5559.917Z" transform="translate(-760.698 -5559.853)" fill="#263238"/>
              </g>
            </g>
          </g>
        </g>
        <g id="Grupo_973469" data-name="Grupo 973469" transform="translate(3.945 5.658)">
          <g id="Grupo_973468" data-name="Grupo 973468">
            <g id="Grupo_973467" data-name="Grupo 973467">
              <g id="Grupo_973466" data-name="Grupo 973466">
                <path id="Trazado_650984" data-name="Trazado 650984" d="M760.455,5561.148a1.744,1.744,0,0,1,1.738.413c-.027.038-.369-.186-.848-.3S760.461,5561.194,760.455,5561.148Z" transform="translate(-760.455 -5561.06)" fill="#263238"/>
              </g>
            </g>
          </g>
        </g>
        <g id="Grupo_973473" data-name="Grupo 973473" transform="translate(3.26 6.709)">
          <g id="Grupo_973472" data-name="Grupo 973472">
            <g id="Grupo_973471" data-name="Grupo 973471">
              <g id="Grupo_973470" data-name="Grupo 973470">
                <path id="Trazado_650985" data-name="Trazado 650985" d="M759.509,5562.676a1.4,1.4,0,0,1,1.771.4,2.394,2.394,0,0,0-1.771-.4Z" transform="translate(-759.508 -5562.512)" fill="#263238"/>
              </g>
            </g>
          </g>
        </g>
        <g id="Grupo_973477" data-name="Grupo 973477" transform="translate(4.711 2.317)">
          <g id="Grupo_973476" data-name="Grupo 973476">
            <g id="Grupo_973475" data-name="Grupo 973475">
              <g id="Grupo_973474" data-name="Grupo 973474">
                <path id="Trazado_650986" data-name="Trazado 650986" d="M761.513,5558.6c-.006-.025.4-.108,1.007-.344a7.72,7.72,0,0,0,1.034-.5c.186-.108.379-.23.569-.365.174-.129.366-.318.36-.521s-.26-.314-.456-.264a1.254,1.254,0,0,0-.53.353c-.315.3-.584.581-.8.825-.438.49-.681.818-.7.8a.963.963,0,0,1,.145-.249c.1-.154.262-.371.472-.626a10.872,10.872,0,0,1,.788-.857,1.35,1.35,0,0,1,.594-.4.5.5,0,0,1,.645.4.856.856,0,0,1-.425.653,6.553,6.553,0,0,1-.587.366,6.791,6.791,0,0,1-1.065.475,5.707,5.707,0,0,1-.758.207A.991.991,0,0,1,761.513,5558.6Z" transform="translate(-761.513 -5556.441)" fill="#263238"/>
              </g>
            </g>
          </g>
        </g>
        <g id="Grupo_973481" data-name="Grupo 973481" transform="translate(3.585 1.546)">
          <g id="Grupo_973480" data-name="Grupo 973480">
            <g id="Grupo_973479" data-name="Grupo 973479">
              <g id="Grupo_973478" data-name="Grupo 973478">
                <path id="Trazado_650987" data-name="Trazado 650987" d="M761.532,5558.193a9.691,9.691,0,0,1-.156-.957,4.005,4.005,0,0,0-.292-.99,2.167,2.167,0,0,0-.32-.505c-.131-.146-.33-.274-.49-.182s-.182.329-.158.523a2.364,2.364,0,0,0,.167.575,3.271,3.271,0,0,0,.559.862c.4.441.707.653.69.674a.758.758,0,0,1-.226-.132,3.894,3.894,0,0,1-.543-.467,3.138,3.138,0,0,1-.61-.879,2.4,2.4,0,0,1-.187-.613.655.655,0,0,1,.234-.676.569.569,0,0,1,.677.215,2.2,2.2,0,0,1,.336.546,3.781,3.781,0,0,1,.271,1.033c.038.3.049.543.056.712A.837.837,0,0,1,761.532,5558.193Z" transform="translate(-759.957 -5555.375)" fill="#263238"/>
              </g>
            </g>
          </g>
        </g>
      </g>
      <g id="Grupo_973580" data-name="Grupo 973580" transform="translate(42.086 221.828)">
        <g id="Grupo_973579" data-name="Grupo 973579">
          <g id="Grupo_973488" data-name="Grupo 973488" transform="translate(0.181)">
            <g id="Grupo_973487" data-name="Grupo 973487">
              <g id="Grupo_973486" data-name="Grupo 973486">
                <g id="Grupo_973485" data-name="Grupo 973485">
                  <g id="Grupo_973484" data-name="Grupo 973484">
                    <g id="Grupo_973483" data-name="Grupo 973483">
                      <path id="Trazado_650988" data-name="Trazado 650988" d="M824.773,5553.866l.04-6.986-13.086-.158-.166,10.219.811.063c3.608.244,18.365.987,20.788.285C835.861,5556.5,824.773,5553.866,824.773,5553.866Z" transform="translate(-811.56 -5546.723)" fill="#455a64"/>
                    </g>
                  </g>
                </g>
              </g>
            </g>
          </g>
          <g id="Grupo_973494" data-name="Grupo 973494" transform="translate(0 9.911)">
            <g id="Grupo_973493" data-name="Grupo 973493">
              <g id="Grupo_973492" data-name="Grupo 973492">
                <g id="Grupo_973491" data-name="Grupo 973491">
                  <g id="Grupo_973490" data-name="Grupo 973490">
                    <g id="Grupo_973489" data-name="Grupo 973489">
                      <path id="Trazado_650989" data-name="Trazado 650989" d="M811.31,5560.43a1.105,1.105,0,0,0,.224.028l.646.047,2.377.133c2.008.1,4.783.2,7.851.237s5.845.018,7.855-.026l2.38-.068.647-.03a1.077,1.077,0,0,0,.225-.021,1.348,1.348,0,0,0-.226-.01h-.647l-2.38.018c-2.01.015-4.786.021-7.852-.02s-5.84-.124-7.848-.192l-2.379-.083-.647-.018A1.339,1.339,0,0,0,811.31,5560.43Z" transform="translate(-811.31 -5560.424)" fill="#263238"/>
                    </g>
                  </g>
                </g>
              </g>
            </g>
          </g>
          <g id="Grupo_973500" data-name="Grupo 973500" transform="translate(17.603 8.468)">
            <g id="Grupo_973499" data-name="Grupo 973499">
              <g id="Grupo_973498" data-name="Grupo 973498">
                <g id="Grupo_973497" data-name="Grupo 973497">
                  <g id="Grupo_973496" data-name="Grupo 973496">
                    <g id="Grupo_973495" data-name="Grupo 973495">
                      <path id="Trazado_650990" data-name="Trazado 650990" d="M835.667,5560.462a3.451,3.451,0,0,1,1.281-2.029,2.114,2.114,0,0,0-1.281,2.029Z" transform="translate(-835.646 -5558.428)" fill="#263238"/>
                    </g>
                  </g>
                </g>
              </g>
            </g>
          </g>
          <g id="Grupo_973506" data-name="Grupo 973506" transform="translate(13.782 7.412)">
            <g id="Grupo_973505" data-name="Grupo 973505">
              <g id="Grupo_973504" data-name="Grupo 973504">
                <g id="Grupo_973503" data-name="Grupo 973503">
                  <g id="Grupo_973502" data-name="Grupo 973502">
                    <g id="Grupo_973501" data-name="Grupo 973501">
                      <path id="Trazado_650991" data-name="Trazado 650991" d="M830.37,5558.05c.037.024.224-.2.419-.5s.323-.559.286-.583-.224.2-.419.5S830.333,5558.027,830.37,5558.05Z" transform="translate(-830.363 -5556.969)" fill="#263238"/>
                    </g>
                  </g>
                </g>
              </g>
            </g>
          </g>
          <g id="Grupo_973512" data-name="Grupo 973512" transform="translate(12.733 7.191)">
            <g id="Grupo_973511" data-name="Grupo 973511">
              <g id="Grupo_973510" data-name="Grupo 973510">
                <g id="Grupo_973509" data-name="Grupo 973509">
                  <g id="Grupo_973508" data-name="Grupo 973508">
                    <g id="Grupo_973507" data-name="Grupo 973507">
                      <path id="Trazado_650992" data-name="Trazado 650992" d="M828.916,5557.393c.029.032.237-.1.465-.3s.389-.388.361-.421-.237.1-.466.3S828.887,5557.359,828.916,5557.393Z" transform="translate(-828.912 -5556.664)" fill="#263238"/>
                    </g>
                  </g>
                </g>
              </g>
            </g>
          </g>
          <g id="Grupo_973518" data-name="Grupo 973518" transform="translate(12.082 6.612)">
            <g id="Grupo_973517" data-name="Grupo 973517">
              <g id="Grupo_973516" data-name="Grupo 973516">
                <g id="Grupo_973515" data-name="Grupo 973515">
                  <g id="Grupo_973514" data-name="Grupo 973514">
                    <g id="Grupo_973513" data-name="Grupo 973513">
                      <path id="Trazado_650993" data-name="Trazado 650993" d="M828.013,5555.927a3.027,3.027,0,1,0,.685-.062A1.523,1.523,0,0,0,828.013,5555.927Z" transform="translate(-828.013 -5555.863)" fill="#263238"/>
                    </g>
                  </g>
                </g>
              </g>
            </g>
          </g>
          <g id="Grupo_973524" data-name="Grupo 973524" transform="translate(11.862 5.79)">
            <g id="Grupo_973523" data-name="Grupo 973523">
              <g id="Grupo_973522" data-name="Grupo 973522">
                <g id="Grupo_973521" data-name="Grupo 973521">
                  <g id="Grupo_973520" data-name="Grupo 973520">
                    <g id="Grupo_973519" data-name="Grupo 973519">
                      <path id="Trazado_650994" data-name="Trazado 650994" d="M827.71,5554.739a1.929,1.929,0,0,0,1.547.136,4.342,4.342,0,0,0-.774-.062A4.2,4.2,0,0,0,827.71,5554.739Z" transform="translate(-827.709 -5554.727)" fill="#263238"/>
                    </g>
                  </g>
                </g>
              </g>
            </g>
          </g>
          <g id="Grupo_973530" data-name="Grupo 973530" transform="translate(14.247 6.202)">
            <g id="Grupo_973529" data-name="Grupo 973529">
              <g id="Grupo_973528" data-name="Grupo 973528">
                <g id="Grupo_973527" data-name="Grupo 973527">
                  <g id="Grupo_973526" data-name="Grupo 973526">
                    <g id="Grupo_973525" data-name="Grupo 973525">
                      <path id="Trazado_650995" data-name="Trazado 650995" d="M831.006,5556.452a2.427,2.427,0,0,0,.841,0,4.964,4.964,0,0,0,.9-.186,2.462,2.462,0,0,0,.515-.205.455.455,0,0,0,.212-.258.331.331,0,0,0-.124-.338,1.542,1.542,0,0,0-1.913.427,1.511,1.511,0,0,0-.281.558.463.463,0,0,0-.025.227,2.361,2.361,0,0,1,.392-.711,1.512,1.512,0,0,1,.724-.458,1.3,1.3,0,0,1,1,.081c.132.1.078.257-.072.344a2.509,2.509,0,0,1-.475.2,5.87,5.87,0,0,1-.869.214C831.326,5556.429,831.006,5556.426,831.006,5556.452Z" transform="translate(-831.006 -5555.296)" fill="#263238"/>
                    </g>
                  </g>
                </g>
              </g>
            </g>
          </g>
          <g id="Grupo_973536" data-name="Grupo 973536" transform="translate(13.383 5.765)">
            <g id="Grupo_973535" data-name="Grupo 973535">
              <g id="Grupo_973534" data-name="Grupo 973534">
                <g id="Grupo_973533" data-name="Grupo 973533">
                  <g id="Grupo_973532" data-name="Grupo 973532">
                    <g id="Grupo_973531" data-name="Grupo 973531">
                      <path id="Trazado_650996" data-name="Trazado 650996" d="M830.892,5556.329a.828.828,0,0,0,.1-.583,1.377,1.377,0,0,0-.221-.617.842.842,0,0,0-.7-.437.335.335,0,0,0-.264.385.924.924,0,0,0,.138.377,2.568,2.568,0,0,0,.391.514,1.193,1.193,0,0,0,.477.346c.014-.02-.166-.152-.394-.421a2.984,2.984,0,0,1-.346-.509c-.114-.18-.188-.5.023-.535.21-.018.423.194.549.364a1.386,1.386,0,0,1,.232.549A3.088,3.088,0,0,1,830.892,5556.329Z" transform="translate(-829.811 -5554.691)" fill="#263238"/>
                    </g>
                  </g>
                </g>
              </g>
            </g>
          </g>
          <g id="Grupo_973542" data-name="Grupo 973542" transform="translate(0.312 6.261)">
            <g id="Grupo_973541" data-name="Grupo 973541">
              <g id="Grupo_973540" data-name="Grupo 973540">
                <g id="Grupo_973539" data-name="Grupo 973539">
                  <g id="Grupo_973538" data-name="Grupo 973538">
                    <g id="Grupo_973537" data-name="Grupo 973537">
                      <path id="Trazado_650997" data-name="Trazado 650997" d="M811.742,5555.456c0,.03.375-.03.966.048a4.1,4.1,0,0,1,3.393,2.775c.192.563.207.94.237.937a.77.77,0,0,0,0-.264,3.423,3.423,0,0,0-.134-.707,3.979,3.979,0,0,0-3.487-2.854,3.486,3.486,0,0,0-.72.01A.79.79,0,0,0,811.742,5555.456Z" transform="translate(-811.742 -5555.378)" fill="#263238"/>
                    </g>
                  </g>
                </g>
              </g>
            </g>
          </g>
          <g id="Grupo_973548" data-name="Grupo 973548" transform="translate(1.565 0.912)">
            <g id="Grupo_973547" data-name="Grupo 973547">
              <g id="Grupo_973546" data-name="Grupo 973546">
                <g id="Grupo_973545" data-name="Grupo 973545">
                  <g id="Grupo_973544" data-name="Grupo 973544">
                    <g id="Grupo_973543" data-name="Grupo 973543">
                      <path id="Trazado_650998" data-name="Trazado 650998" d="M813.647,5547.983a45.68,45.68,0,0,0-.137,5.377,45.63,45.63,0,0,0,.137-5.377Z" transform="translate(-813.474 -5547.983)" fill="#263238"/>
                    </g>
                  </g>
                </g>
              </g>
            </g>
          </g>
          <g id="Grupo_973554" data-name="Grupo 973554" transform="translate(6.59 8.906)">
            <g id="Grupo_973553" data-name="Grupo 973553">
              <g id="Grupo_973552" data-name="Grupo 973552">
                <g id="Grupo_973551" data-name="Grupo 973551">
                  <g id="Grupo_973550" data-name="Grupo 973550">
                    <g id="Grupo_973549" data-name="Grupo 973549">
                      <path id="Trazado_650999" data-name="Trazado 650999" d="M820.42,5559.049a10.751,10.751,0,0,0,3.824.085c0-.046-.859,0-1.913-.03S820.426,5559,820.42,5559.049Z" transform="translate(-820.42 -5559.035)" fill="#263238"/>
                    </g>
                  </g>
                </g>
              </g>
            </g>
          </g>
          <g id="Grupo_973560" data-name="Grupo 973560" transform="translate(4.019 8.878)">
            <g id="Grupo_973559" data-name="Grupo 973559">
              <g id="Grupo_973558" data-name="Grupo 973558">
                <g id="Grupo_973557" data-name="Grupo 973557">
                  <g id="Grupo_973556" data-name="Grupo 973556">
                    <g id="Grupo_973555" data-name="Grupo 973555">
                      <path id="Trazado_651000" data-name="Trazado 651000" d="M816.872,5559c-.032.031.068.182.153.379s.13.372.176.37.069-.206-.031-.433S816.9,5558.969,816.872,5559Z" transform="translate(-816.866 -5558.996)" fill="#263238"/>
                    </g>
                  </g>
                </g>
              </g>
            </g>
          </g>
          <g id="Grupo_973566" data-name="Grupo 973566" transform="translate(3.067 7.663)">
            <g id="Grupo_973565" data-name="Grupo 973565">
              <g id="Grupo_973564" data-name="Grupo 973564">
                <g id="Grupo_973563" data-name="Grupo 973563">
                  <g id="Grupo_973562" data-name="Grupo 973562">
                    <g id="Grupo_973561" data-name="Grupo 973561">
                      <path id="Trazado_651001" data-name="Trazado 651001" d="M815.556,5557.323c-.031.03.051.167.185.305s.268.227.3.2-.051-.167-.184-.307S815.588,5557.292,815.556,5557.323Z" transform="translate(-815.55 -5557.316)" fill="#263238"/>
                    </g>
                  </g>
                </g>
              </g>
            </g>
          </g>
          <g id="Grupo_973572" data-name="Grupo 973572" transform="translate(1.697 7.029)">
            <g id="Grupo_973571" data-name="Grupo 973571">
              <g id="Grupo_973570" data-name="Grupo 973570">
                <g id="Grupo_973569" data-name="Grupo 973569">
                  <g id="Grupo_973568" data-name="Grupo 973568">
                    <g id="Grupo_973567" data-name="Grupo 973567">
                      <path id="Trazado_651002" data-name="Trazado 651002" d="M813.657,5556.512c.009.045.182.045.374.116s.328.174.363.145-.072-.211-.31-.294S813.644,5556.471,813.657,5556.512Z" transform="translate(-813.656 -5556.439)" fill="#263238"/>
                    </g>
                  </g>
                </g>
              </g>
            </g>
          </g>
          <g id="Grupo_973578" data-name="Grupo 973578" transform="translate(0.714 6.801)">
            <g id="Grupo_973577" data-name="Grupo 973577">
              <g id="Grupo_973576" data-name="Grupo 973576">
                <g id="Grupo_973575" data-name="Grupo 973575">
                  <g id="Grupo_973574" data-name="Grupo 973574">
                    <g id="Grupo_973573" data-name="Grupo 973573">
                      <path id="Trazado_651003" data-name="Trazado 651003" d="M812.3,5556.153c-.016.041.059.108.166.152s.209.045.225,0-.058-.108-.166-.151S812.316,5556.113,812.3,5556.153Z" transform="translate(-812.297 -5556.124)" fill="#263238"/>
                    </g>
                  </g>
                </g>
              </g>
            </g>
          </g>
        </g>
      </g>
      <g id="Grupo_973603" data-name="Grupo 973603" transform="translate(0 95.177)">
        <g id="Grupo_973584" data-name="Grupo 973584">
          <g id="Grupo_973583" data-name="Grupo 973583">
            <g id="Grupo_973582" data-name="Grupo 973582">
              <g id="Grupo_973581" data-name="Grupo 973581">
                <path id="Trazado_651004" data-name="Trazado 651004" d="M817.436,5371.631l-5.019,131.149-20.378.428,3.384-113.636-22.921,114.5H753.128L778.087,5371.9Z" transform="translate(-753.128 -5371.631)" fill="#263238"/>
              </g>
            </g>
          </g>
        </g>
        <g id="Grupo_973587" data-name="Grupo 973587" transform="translate(41.955 4.772)">
          <g id="Grupo_973586" data-name="Grupo 973586">
            <g id="Grupo_973585" data-name="Grupo 973585">
              <path id="Trazado_651005" data-name="Trazado 651005" d="M816.164,5378.228a13.054,13.054,0,0,1-.234,2.162c-.19,1.328-.477,3.159-.817,5.177a21.711,21.711,0,0,1-.582,2.847,4.039,4.039,0,0,1-1.331,2,3.132,3.132,0,0,1-1.479.66,1.189,1.189,0,0,1-.592-.009,3.661,3.661,0,0,0,3.087-2.753,25.376,25.376,0,0,0,.543-2.806c.338-2.018.665-3.842.919-5.159A13.006,13.006,0,0,1,816.164,5378.228Z" transform="translate(-811.128 -5378.228)" fill="#455a64"/>
            </g>
          </g>
        </g>
        <g id="Grupo_973590" data-name="Grupo 973590" transform="translate(42.47 5.06)">
          <g id="Grupo_973589" data-name="Grupo 973589">
            <g id="Grupo_973588" data-name="Grupo 973588">
              <path id="Trazado_651006" data-name="Trazado 651006" d="M812.121,5378.967c.044.033-.123.244-.027.59a.688.688,0,0,0,.341.438.617.617,0,0,0,.805-.707.687.687,0,0,0-.391-.395c-.331-.141-.561,0-.587-.051-.043-.019.188-.3.665-.192a.9.9,0,0,1,.623.522.922.922,0,0,1-1.269,1.115.9.9,0,0,1-.437-.686C811.8,5379.115,812.108,5378.923,812.121,5378.967Z" transform="translate(-811.84 -5378.627)" fill="#455a64"/>
            </g>
          </g>
        </g>
        <g id="Grupo_973593" data-name="Grupo 973593" transform="translate(31.511 3.629)">
          <g id="Grupo_973592" data-name="Grupo 973592">
            <g id="Grupo_973591" data-name="Grupo 973591">
              <path id="Trazado_651007" data-name="Trazado 651007" d="M796.985,5380.29a3.836,3.836,0,0,1,.389-3.64c.1.044-.2.816-.3,1.809S797.088,5380.268,796.985,5380.29Z" transform="translate(-796.691 -5376.648)" fill="#455a64"/>
            </g>
          </g>
        </g>
        <g id="Grupo_973596" data-name="Grupo 973596" transform="translate(33.95 3.319)">
          <g id="Grupo_973595" data-name="Grupo 973595">
            <g id="Grupo_973594" data-name="Grupo 973594">
              <path id="Trazado_651008" data-name="Trazado 651008" d="M800.369,5380.014a4.451,4.451,0,0,1,.265-3.794,27.006,27.006,0,0,0-.265,3.794Z" transform="translate(-800.061 -5376.219)" fill="#455a64"/>
            </g>
          </g>
        </g>
        <g id="Grupo_973599" data-name="Grupo 973599" transform="translate(55.286 3.709)">
          <g id="Grupo_973598" data-name="Grupo 973598">
            <g id="Grupo_973597" data-name="Grupo 973597">
              <path id="Trazado_651009" data-name="Trazado 651009" d="M829.591,5380.7a145.012,145.012,0,0,0,.2-3.94,5.407,5.407,0,0,1-.2,3.94Z" transform="translate(-829.559 -5376.758)" fill="#455a64"/>
            </g>
          </g>
        </g>
        <g id="Grupo_973602" data-name="Grupo 973602" transform="translate(57.961 3.481)">
          <g id="Grupo_973601" data-name="Grupo 973601">
            <g id="Grupo_973600" data-name="Grupo 973600">
              <path id="Trazado_651010" data-name="Trazado 651010" d="M833.275,5380.465c-.1-.042.22-.9.291-2s-.113-1.992-.01-2.02a4.238,4.238,0,0,1-.281,4.021Z" transform="translate(-833.256 -5376.444)" fill="#455a64"/>
            </g>
          </g>
        </g>
      </g>
      <g id="Grupo_973671" data-name="Grupo 973671" transform="translate(29.841)">
        <g id="Grupo_973659" data-name="Grupo 973659" transform="translate(4.034 7.681)">
          <g id="Grupo_973658" data-name="Grupo 973658">
            <g id="Grupo_973614" data-name="Grupo 973614">
              <g id="Grupo_973613" data-name="Grupo 973613">
                <g id="Grupo_973612" data-name="Grupo 973612">
                  <g id="Grupo_973607" data-name="Grupo 973607">
                    <g id="Grupo_973606" data-name="Grupo 973606">
                      <g id="Grupo_973605" data-name="Grupo 973605">
                        <g id="Grupo_973604" data-name="Grupo 973604">
                          <path id="Trazado_651011" data-name="Trazado 651011" d="M802,5283.6l12.581-1c.078-1.469-.027-7.152-.027-7.152s5.234-.813,5.3-6.047-.843-17.251-.843-17.251h0a18.188,18.188,0,0,0-18.277,2.3l-.775.6Z" transform="translate(-799.958 -5250.671)" fill="#ffbf9d"/>
                        </g>
                      </g>
                    </g>
                  </g>
                  <g id="Grupo_973611" data-name="Grupo 973611" transform="translate(7.782 22.763)">
                    <g id="Grupo_973610" data-name="Grupo 973610">
                      <g id="Grupo_973609" data-name="Grupo 973609">
                        <g id="Grupo_973608" data-name="Grupo 973608">
                          <path id="Trazado_651012" data-name="Trazado 651012" d="M817.539,5284.079a12.17,12.17,0,0,1-6.823-1.939s1.612,3.767,6.835,3.295Z" transform="translate(-810.716 -5282.14)" fill="#ff9a6c"/>
                        </g>
                      </g>
                    </g>
                  </g>
                </g>
              </g>
            </g>
            <g id="Grupo_973657" data-name="Grupo 973657" transform="translate(6.694 5.236)">
              <g id="Grupo_973656" data-name="Grupo 973656">
                <g id="Grupo_973647" data-name="Grupo 973647" transform="translate(0.508 2.819)">
                  <g id="Grupo_973646" data-name="Grupo 973646">
                    <g id="Grupo_973645" data-name="Grupo 973645">
                      <g id="Grupo_973624" data-name="Grupo 973624" transform="translate(7.906)">
                        <g id="Grupo_973618" data-name="Grupo 973618" transform="translate(0.415 0.951)">
                          <g id="Grupo_973617" data-name="Grupo 973617">
                            <g id="Grupo_973616" data-name="Grupo 973616">
                              <g id="Grupo_973615" data-name="Grupo 973615">
                                <path id="Trazado_651013" data-name="Trazado 651013" d="M822.91,5263.8a.747.747,0,0,1-.721.754.715.715,0,0,1-.77-.674.747.747,0,0,1,.72-.754A.714.714,0,0,1,822.91,5263.8Z" transform="translate(-821.418 -5263.122)" fill="#263238"/>
                              </g>
                            </g>
                          </g>
                        </g>
                        <g id="Grupo_973623" data-name="Grupo 973623">
                          <g id="Grupo_973622" data-name="Grupo 973622">
                            <g id="Grupo_973621" data-name="Grupo 973621">
                              <g id="Grupo_973620" data-name="Grupo 973620">
                                <g id="Grupo_973619" data-name="Grupo 973619">
                                  <path id="Trazado_651014" data-name="Trazado 651014" d="M823.8,5262.593c-.093.1-.659-.322-1.463-.319s-1.393.4-1.481.306c-.043-.044.051-.22.309-.407a2.056,2.056,0,0,1,1.186-.365,1.974,1.974,0,0,1,1.165.376C823.761,5262.372,823.844,5262.549,823.8,5262.593Z" transform="translate(-820.844 -5261.807)" fill="#263238"/>
                                </g>
                              </g>
                            </g>
                          </g>
                        </g>
                      </g>
                      <g id="Grupo_973634" data-name="Grupo 973634" transform="translate(0 0.15)">
                        <g id="Grupo_973628" data-name="Grupo 973628" transform="translate(0.198 0.989)">
                          <g id="Grupo_973627" data-name="Grupo 973627">
                            <g id="Grupo_973626" data-name="Grupo 973626">
                              <g id="Grupo_973625" data-name="Grupo 973625">
                                <path id="Trazado_651015" data-name="Trazado 651015" d="M811.679,5264.058a.747.747,0,0,1-.72.754.715.715,0,0,1-.771-.674.748.748,0,0,1,.721-.754A.715.715,0,0,1,811.679,5264.058Z" transform="translate(-810.187 -5263.383)" fill="#263238"/>
                              </g>
                            </g>
                          </g>
                        </g>
                        <g id="Grupo_973633" data-name="Grupo 973633">
                          <g id="Grupo_973632" data-name="Grupo 973632">
                            <g id="Grupo_973631" data-name="Grupo 973631">
                              <g id="Grupo_973630" data-name="Grupo 973630">
                                <g id="Grupo_973629" data-name="Grupo 973629">
                                  <path id="Trazado_651016" data-name="Trazado 651016" d="M812.869,5262.8c-.093.1-.66-.321-1.463-.319s-1.394.4-1.481.306c-.043-.044.051-.22.309-.407a2.04,2.04,0,0,1,1.186-.365,1.962,1.962,0,0,1,1.165.375C812.83,5262.58,812.914,5262.756,812.869,5262.8Z" transform="translate(-809.914 -5262.015)" fill="#263238"/>
                                </g>
                              </g>
                            </g>
                          </g>
                        </g>
                      </g>
                      <g id="Grupo_973639" data-name="Grupo 973639" transform="translate(5.497 0.199)">
                        <g id="Grupo_973638" data-name="Grupo 973638">
                          <g id="Grupo_973637" data-name="Grupo 973637">
                            <g id="Grupo_973636" data-name="Grupo 973636">
                              <g id="Grupo_973635" data-name="Grupo 973635">
                                <path id="Trazado_651017" data-name="Trazado 651017" d="M817.89,5268.783a5.339,5.339,0,0,1,1.306-.235c.205-.022.4-.062.435-.2a1.047,1.047,0,0,0-.137-.608q-.29-.746-.608-1.564a26.78,26.78,0,0,1-1.364-4.091,26.99,26.99,0,0,1,1.69,3.972c.2.549.4,1.071.582,1.573a1.187,1.187,0,0,1,.107.806.516.516,0,0,1-.338.3,1.389,1.389,0,0,1-.349.048A5.208,5.208,0,0,1,817.89,5268.783Z" transform="translate(-817.514 -5262.082)" fill="#263238"/>
                              </g>
                            </g>
                          </g>
                        </g>
                      </g>
                      <g id="Grupo_973644" data-name="Grupo 973644" transform="translate(3.376 7.457)">
                        <g id="Grupo_973643" data-name="Grupo 973643">
                          <g id="Grupo_973642" data-name="Grupo 973642">
                            <g id="Grupo_973641" data-name="Grupo 973641">
                              <g id="Grupo_973640" data-name="Grupo 973640">
                                <path id="Trazado_651018" data-name="Trazado 651018" d="M814.712,5272.116c.131-.008.132.865.88,1.485s1.677.524,1.683.645c.012.055-.207.17-.6.18a2.163,2.163,0,0,1-1.405-.489,1.894,1.894,0,0,1-.681-1.245C814.555,5272.328,814.652,5272.111,814.712,5272.116Z" transform="translate(-814.582 -5272.116)" fill="#263238"/>
                              </g>
                            </g>
                          </g>
                        </g>
                      </g>
                    </g>
                  </g>
                </g>
                <g id="Grupo_973651" data-name="Grupo 973651">
                  <g id="Grupo_973650" data-name="Grupo 973650">
                    <g id="Grupo_973649" data-name="Grupo 973649">
                      <g id="Grupo_973648" data-name="Grupo 973648">
                        <path id="Trazado_651019" data-name="Trazado 651019" d="M812.882,5258.512c-.079.219-.883.115-1.826.229-.946.095-1.707.371-1.832.174-.056-.093.077-.3.385-.51a3.194,3.194,0,0,1,2.786-.308C812.742,5258.237,812.916,5258.409,812.882,5258.512Z" transform="translate(-809.212 -5257.91)" fill="#263238"/>
                      </g>
                    </g>
                  </g>
                </g>
                <g id="Grupo_973655" data-name="Grupo 973655" transform="translate(8.334 0.444)">
                  <g id="Grupo_973654" data-name="Grupo 973654">
                    <g id="Grupo_973653" data-name="Grupo 973653">
                      <g id="Grupo_973652" data-name="Grupo 973652">
                        <path id="Trazado_651020" data-name="Trazado 651020" d="M823.472,5259.356c-.141.183-.7-.007-1.361-.016-.666-.031-1.23.124-1.361-.068-.056-.092.032-.275.279-.449a1.972,1.972,0,0,1,2.193.068C823.457,5259.079,823.535,5259.267,823.472,5259.356Z" transform="translate(-820.733 -5258.523)" fill="#263238"/>
                      </g>
                    </g>
                  </g>
                </g>
              </g>
            </g>
          </g>
        </g>
        <g id="Grupo_973669" data-name="Grupo 973669" transform="translate(1.194 17.31)">
          <g id="Grupo_973663" data-name="Grupo 973663">
            <g id="Grupo_973662" data-name="Grupo 973662">
              <g id="Grupo_973661" data-name="Grupo 973661">
                <g id="Grupo_973660" data-name="Grupo 973660">
                  <path id="Trazado_651021" data-name="Trazado 651021" d="M799.517,5264.148c-.09-.038-3.6-1.063-3.482,2.514s3.683,2.726,3.686,2.623S799.517,5264.148,799.517,5264.148Z" transform="translate(-796.032 -5263.983)" fill="#ffbf9d"/>
                </g>
              </g>
            </g>
          </g>
          <g id="Grupo_973668" data-name="Grupo 973668" transform="translate(0.911 1.171)">
            <g id="Grupo_973667" data-name="Grupo 973667">
              <g id="Grupo_973666" data-name="Grupo 973666">
                <g id="Grupo_973665" data-name="Grupo 973665">
                  <g id="Grupo_973664" data-name="Grupo 973664">
                    <path id="Trazado_651022" data-name="Trazado 651022" d="M798.933,5268.412c-.016-.01-.061.045-.165.1a.62.62,0,0,1-.465.024,1.539,1.539,0,0,1-.758-1.36,2.061,2.061,0,0,1,.146-.9.716.716,0,0,1,.454-.493.317.317,0,0,1,.373.158c.051.1.03.171.05.176s.075-.062.041-.209a.4.4,0,0,0-.148-.219.47.47,0,0,0-.347-.081.876.876,0,0,0-.634.575,2.124,2.124,0,0,0-.184,1,1.62,1.62,0,0,0,.959,1.517.668.668,0,0,0,.567-.113C798.93,5268.5,798.945,5268.418,798.933,5268.412Z" transform="translate(-797.292 -5265.603)" fill="#ff9a6c"/>
                  </g>
                </g>
              </g>
            </g>
          </g>
        </g>
        <g id="Grupo_973670" data-name="Grupo 973670">
          <path id="Trazado_651023" data-name="Trazado 651023" d="M819.471,5244.69a5.535,5.535,0,0,0-8.6-1.653,5.418,5.418,0,0,0-8.9-1.156c-1,1.136-1.523,2.681-2.7,3.638-1.018.828-2.4,1.1-3.42,1.925a3.951,3.951,0,0,0,1.41,6.886,4.244,4.244,0,0,0,2.088,5.764l.521-.217a7.447,7.447,0,0,0,1.084-8.216c.064,0,.125-.007.188-.008a4.18,4.18,0,0,0,5.445-1.245,4.646,4.646,0,0,0,4.987.209,1.916,1.916,0,0,1,.752-.342,1.781,1.781,0,0,1,.937.28,4.4,4.4,0,0,0,2.533.511,2.449,2.449,0,0,0,1.9-1.361c.02,0,.04,0,.059-.006a2.813,2.813,0,0,0,2.1-2.03A4.186,4.186,0,0,0,819.471,5244.69Z" transform="translate(-794.382 -5240.053)" fill="#263238"/>
        </g>
      </g>
      <g id="Grupo_973714" data-name="Grupo 973714" transform="translate(11.214 32.969)">
        <g id="Grupo_973672" data-name="Grupo 973672" transform="translate(0.011)">
          <path id="Trazado_651024" data-name="Trazado 651024" d="M820.3,5320.12l.457-23.585c-4.185-4.114-6.42-5.344-12.248-6.033-.615-.072-1.139-.127-1.586-.175l-.5-3.885-14.3-.81.715,4.61h0a35.051,35.051,0,0,0-5.554,1.064c-5.554,1.064-9.551,5.11-10.661,8.846-.915,3.075-6.784,25.868-6.784,25.868l-1.194,6.88,13.109-4.759-.009,4.954.033,18.2H821.6C821.7,5346.957,820.3,5320.12,820.3,5320.12Z" transform="translate(-768.646 -5285.632)" fill="#449c6e"/>
        </g>
        <g id="Grupo_973673" data-name="Grupo 973673" transform="translate(0.011)" opacity="0.2">
          <path id="Trazado_651025" data-name="Trazado 651025" d="M820.3,5320.12l.457-23.585c-4.185-4.114-6.42-5.344-12.248-6.033-.615-.072-1.139-.127-1.586-.175l-.5-3.885-14.3-.81.715,4.61h0a35.051,35.051,0,0,0-5.554,1.064c-5.554,1.064-9.551,5.11-10.661,8.846-.915,3.075-6.784,25.868-6.784,25.868l-1.194,6.88,13.109-4.759-.009,4.954.033,18.2H821.6C821.7,5346.957,820.3,5320.12,820.3,5320.12Z" transform="translate(-768.646 -5285.632)"/>
        </g>
        <g id="Grupo_973675" data-name="Grupo 973675" transform="translate(0 37.928)">
          <g id="Grupo_973674" data-name="Grupo 973674">
            <path id="Trazado_651026" data-name="Trazado 651026" d="M774.633,5340.855l19.627-2.789,3.73,6.682-18.245,8.225a7.873,7.873,0,0,1-3.237.7h0a7.875,7.875,0,0,1-7.286-4.887l-.59-1.439Z" transform="translate(-768.631 -5338.066)" fill="#367c58"/>
          </g>
        </g>
        <g id="Grupo_973677" data-name="Grupo 973677" transform="translate(0 37.928)" opacity="0.2">
          <g id="Grupo_973676" data-name="Grupo 973676">
            <path id="Trazado_651027" data-name="Trazado 651027" d="M774.633,5340.855l19.627-2.789,3.73,6.682-18.245,8.225a7.873,7.873,0,0,1-3.237.7h0a7.875,7.875,0,0,1-7.286-4.887l-.59-1.439Z" transform="translate(-768.631 -5338.066)"/>
          </g>
        </g>
        <g id="Grupo_973679" data-name="Grupo 973679" transform="translate(43.085 6.31)">
          <g id="Grupo_973678" data-name="Grupo 973678">
            <path id="Trazado_651028" data-name="Trazado 651028" d="M831.213,5294.355a14.477,14.477,0,0,1,7.875,7.224c1.52,3.48,3.753,20.231,3.753,20.231l2.817,5.433a9.159,9.159,0,0,1,1.028,4.216v.829a9.16,9.16,0,0,1-2.054,5.78h0a9.166,9.166,0,0,1-6.3,3.344c-2.812.251-6.213.362-6.939-.468a35.214,35.214,0,0,1-3.2-5.4l8.2-4.355-3.531-6.538Z" transform="translate(-828.194 -5294.355)" fill="#449c6e"/>
          </g>
        </g>
        <g id="Grupo_973681" data-name="Grupo 973681" transform="translate(43.085 6.31)" opacity="0.2">
          <g id="Grupo_973680" data-name="Grupo 973680">
            <path id="Trazado_651029" data-name="Trazado 651029" d="M831.213,5294.355a14.477,14.477,0,0,1,7.875,7.224c1.52,3.48,3.753,20.231,3.753,20.231l2.817,5.433a9.159,9.159,0,0,1,1.028,4.216v.829a9.16,9.16,0,0,1-2.054,5.78h0a9.166,9.166,0,0,1-6.3,3.344c-2.812.251-6.213.362-6.939-.468a35.214,35.214,0,0,1-3.2-5.4l8.2-4.355-3.531-6.538Z" transform="translate(-828.194 -5294.355)"/>
          </g>
        </g>
        <g id="Grupo_973684" data-name="Grupo 973684" transform="translate(5.437 37.739)">
          <g id="Grupo_973683" data-name="Grupo 973683">
            <g id="Grupo_973682" data-name="Grupo 973682">
              <path id="Trazado_651030" data-name="Trazado 651030" d="M783.192,5352.285a1.477,1.477,0,0,1,.318-.179l.94-.457,3.522-1.646,12.026-5.49-.081.247-2.3-4.117-1.43-2.564.174.091-14.378,1.411-4.273.382-1.154.087a1.865,1.865,0,0,1-.4.008,1.824,1.824,0,0,1,.4-.075l1.148-.148,4.263-.492c3.659-.389,8.689-.923,14.366-1.528l.116-.011.057.1,1.432,2.563,2.3,4.12.093.168-.175.078-12.076,5.376-3.565,1.55-.964.4A1.742,1.742,0,0,1,783.192,5352.285Z" transform="translate(-776.148 -5337.804)" fill="#263238"/>
            </g>
          </g>
        </g>
        <g id="Grupo_973687" data-name="Grupo 973687" transform="translate(15.786 23.105)">
          <g id="Grupo_973686" data-name="Grupo 973686">
            <g id="Grupo_973685" data-name="Grupo 973685">
              <path id="Trazado_651031" data-name="Trazado 651031" d="M790.634,5333.247c-.1,0-.179-3.509-.179-7.836s.08-7.837.179-7.837.18,3.508.18,7.837S790.734,5333.247,790.634,5333.247Z" transform="translate(-790.455 -5317.574)" fill="#263238"/>
            </g>
          </g>
        </g>
        <g id="Grupo_973690" data-name="Grupo 973690" transform="translate(44.967 43.902)">
          <g id="Grupo_973689" data-name="Grupo 973689">
            <g id="Grupo_973688" data-name="Grupo 973688">
              <path id="Trazado_651032" data-name="Trazado 651032" d="M835.574,5346.439a1.785,1.785,0,0,1,.6-.093,5.5,5.5,0,0,1,1.656.1,1.966,1.966,0,0,1,1.038.588,2.713,2.713,0,0,1,.543,1.25,2.9,2.9,0,0,1-.134,1.5,2.781,2.781,0,0,1-.993,1.273,7.426,7.426,0,0,1-2.843,1.014,12.881,12.881,0,0,1-2.433.236,4.385,4.385,0,0,1-2.208-.385,11.486,11.486,0,0,0,2.2.131,14.658,14.658,0,0,0,2.373-.308,7.492,7.492,0,0,0,2.7-.979,2.56,2.56,0,0,0,.566-3.539,1.736,1.736,0,0,0-.877-.532,6.566,6.566,0,0,0-1.585-.205A2.175,2.175,0,0,1,835.574,5346.439Z" transform="translate(-830.796 -5346.325)" fill="#263238"/>
            </g>
          </g>
        </g>
        <g id="Grupo_973693" data-name="Grupo 973693" transform="translate(44.961 49.698)">
          <g id="Grupo_973692" data-name="Grupo 973692">
            <g id="Grupo_973691" data-name="Grupo 973691">
              <path id="Trazado_651033" data-name="Trazado 651033" d="M838.827,5358.145a4.14,4.14,0,0,1-1.41.167,8.965,8.965,0,0,1-3.39-.562,7.325,7.325,0,0,1-1.688-.9,4.047,4.047,0,0,1-1.042-1.177,3.078,3.078,0,0,1-.5-1.335c.057-.023.242.492.717,1.2a4.2,4.2,0,0,0,1.025,1.048,7.96,7.96,0,0,0,1.622.83,10.591,10.591,0,0,0,3.264.643A8.318,8.318,0,0,1,838.827,5358.145Z" transform="translate(-830.788 -5354.337)" fill="#263238"/>
            </g>
          </g>
        </g>
        <g id="Grupo_973696" data-name="Grupo 973696" transform="translate(49.7 36.5)">
          <g id="Grupo_973695" data-name="Grupo 973695">
            <g id="Grupo_973694" data-name="Grupo 973694">
              <path id="Trazado_651034" data-name="Trazado 651034" d="M844.56,5336.1a6.78,6.78,0,0,1-.968,1.164c-.631.691-1.519,1.63-2.515,2.652s-1.913,1.935-2.589,2.582a6.422,6.422,0,0,1-1.147,1,6.367,6.367,0,0,1,.965-1.174c.629-.693,1.517-1.633,2.514-2.655A34.864,34.864,0,0,1,844.56,5336.1Z" transform="translate(-837.339 -5336.092)" fill="#263238"/>
            </g>
          </g>
        </g>
        <g id="Grupo_973699" data-name="Grupo 973699" transform="translate(47.803 23.884)">
          <g id="Grupo_973698" data-name="Grupo 973698">
            <g id="Grupo_973697" data-name="Grupo 973697">
              <path id="Trazado_651035" data-name="Trazado 651035" d="M834.9,5327.611a55.805,55.805,0,0,1,0-8.96,56.032,56.032,0,0,1,0,8.96Z" transform="translate(-834.717 -5318.651)" fill="#263238"/>
            </g>
          </g>
        </g>
        <g id="Grupo_973701" data-name="Grupo 973701" transform="translate(11.458 9.159)">
          <g id="Grupo_973700" data-name="Grupo 973700">
            <path id="Trazado_651036" data-name="Trazado 651036" d="M823.92,5298.482c0,.1-8.831.188-19.724.188s-19.726-.083-19.726-.188,8.83-.188,19.726-.188S823.92,5298.379,823.92,5298.482Z" transform="translate(-784.471 -5298.294)" fill="#fafafa"/>
          </g>
        </g>
        <g id="Grupo_973703" data-name="Grupo 973703" transform="translate(24.285 4.599)">
          <g id="Grupo_973702" data-name="Grupo 973702">
            <path id="Trazado_651037" data-name="Trazado 651037" d="M815.809,5292.221a122.863,122.863,0,0,1-13.605-.078,122.546,122.546,0,0,1,13.605.078Z" transform="translate(-802.204 -5291.989)" fill="#263238"/>
          </g>
        </g>
        <g id="Grupo_973705" data-name="Grupo 973705" transform="translate(7.288 17.129)">
          <g id="Grupo_973704" data-name="Grupo 973704">
            <path id="Trazado_651038" data-name="Trazado 651038" d="M826.617,5309.5c0,.1-10.726.188-23.954.188s-23.957-.085-23.957-.188,10.724-.189,23.957-.189S826.617,5309.4,826.617,5309.5Z" transform="translate(-778.707 -5309.312)" fill="#fafafa"/>
          </g>
        </g>
        <g id="Grupo_973707" data-name="Grupo 973707" transform="translate(4.899 25.323)">
          <g id="Grupo_973706" data-name="Grupo 973706">
            <path id="Trazado_651039" data-name="Trazado 651039" d="M827.183,5320.828c0,.1-11.592.188-25.889.188s-25.892-.085-25.892-.188,11.589-.188,25.892-.188S827.183,5320.724,827.183,5320.828Z" transform="translate(-775.403 -5320.64)" fill="#fafafa"/>
          </g>
        </g>
        <g id="Grupo_973709" data-name="Grupo 973709" transform="translate(2.964 33.289)">
          <g id="Grupo_973708" data-name="Grupo 973708">
            <path id="Trazado_651040" data-name="Trazado 651040" d="M827.372,5331.841c0,.1-12.233.188-27.32.188s-27.322-.083-27.322-.187,12.23-.188,27.322-.188S827.372,5331.737,827.372,5331.841Z" transform="translate(-772.729 -5331.653)" fill="#fafafa"/>
          </g>
        </g>
        <g id="Grupo_973711" data-name="Grupo 973711" transform="translate(0.574 46.262)">
          <g id="Grupo_973710" data-name="Grupo 973710">
            <path id="Trazado_651041" data-name="Trazado 651041" d="M830.154,5349.776c0,.1-13.6.189-30.363.189s-30.366-.084-30.366-.189,13.593-.188,30.366-.188S830.154,5349.672,830.154,5349.776Z" transform="translate(-769.425 -5349.588)" fill="#fafafa"/>
          </g>
        </g>
        <g id="Grupo_973713" data-name="Grupo 973713" transform="translate(12.523 55.367)">
          <g id="Grupo_973712" data-name="Grupo 973712">
            <path id="Trazado_651042" data-name="Trazado 651042" d="M826,5362.362c0,.1-8.968.189-20.028.189s-20.03-.084-20.03-.189,8.966-.188,20.03-.188S826,5362.258,826,5362.362Z" transform="translate(-785.944 -5362.174)" fill="#fafafa"/>
          </g>
        </g>
      </g>
      <g id="Grupo_973726" data-name="Grupo 973726" transform="translate(36.038 64.206)">
        <g id="Grupo_973716" data-name="Grupo 973716" transform="translate(0.958 1.2)">
          <g id="Grupo_973715" data-name="Grupo 973715">
            <path id="Trazado_651043" data-name="Trazado 651043" d="M821.8,5332.753l-.426-.32a9.8,9.8,0,0,0-7.723-1.784h0a13.431,13.431,0,0,0-6.014,2.822l-3.364,2.768,3.577,6.409,2.433-3.406s2.271,3.081,2.676,2.757a5.2,5.2,0,0,0,.892-1.3l-1.622-2.271,3.893.812,5.677-2.6-2.433-3.081,2.433.811Z" transform="translate(-804.273 -5330.474)" fill="#ffbf9d"/>
          </g>
        </g>
        <g id="Grupo_973718" data-name="Grupo 973718">
          <g id="Grupo_973717" data-name="Grupo 973717">
            <path id="Trazado_651044" data-name="Trazado 651044" d="M815.44,5331.708l-12.491,15.127.958,1.037,20.271-3.09,10.052-15.127-.933-.84Z" transform="translate(-802.949 -5328.815)" fill="#263238"/>
          </g>
        </g>
        <g id="Grupo_973720" data-name="Grupo 973720" transform="translate(6.388 6.885)">
          <g id="Grupo_973719" data-name="Grupo 973719">
            <path id="Trazado_651045" data-name="Trazado 651045" d="M831.133,5338.333h0a1.925,1.925,0,0,0-1.8,1.23,4.169,4.169,0,0,1-1.228,1.964,4.357,4.357,0,0,1-3.276.482c-.819-.4-4.094-3.35-4.668-3.022s-1.064,1.065-.491,1.721,3.6,2.62,3.03,3.275-6.961-2.228-7.943-1.974-1.556.858-.983,1.253,4.914,2.031,5.159,2.6c0,0-6.551-1.719-6.8-1.311s-.655,1.064,0,1.311,6.305,1.719,6.8,1.965a11.95,11.95,0,0,0,2.526.737,27.008,27.008,0,0,1,2.639.837,5.78,5.78,0,0,0,4.074-.109l.663-.271a2.6,2.6,0,0,0,1.615-2.564l-.135-2.234.715-1.842Z" transform="translate(-811.781 -5338.333)" fill="#ffbf9d"/>
          </g>
        </g>
        <g id="Grupo_973723" data-name="Grupo 973723" transform="translate(1.036 0.972)">
          <g id="Grupo_973722" data-name="Grupo 973722">
            <g id="Grupo_973721" data-name="Grupo 973721">
              <path id="Trazado_651046" data-name="Trazado 651046" d="M834.663,5330.165a1.549,1.549,0,0,1-.374.092l-1.084.192-4,.642-5.932.906-3.5.529a6.691,6.691,0,0,0-3.393,1.375,22.711,22.711,0,0,0-2.472,2.839L811.7,5339.5c-1.411,1.749-2.687,3.327-3.77,4.669-1.059,1.291-1.928,2.35-2.566,3.127l-.712.839a1.513,1.513,0,0,1-.268.277,1.611,1.611,0,0,1,.211-.322l.659-.882c.616-.794,1.455-1.878,2.477-3.2l3.711-4.717,2.2-2.777a22.279,22.279,0,0,1,2.515-2.894,7,7,0,0,1,3.565-1.447l3.51-.511,5.943-.829,4.012-.529,1.093-.125A1.57,1.57,0,0,1,834.663,5330.165Z" transform="translate(-804.381 -5330.159)" fill="#455a64"/>
            </g>
          </g>
        </g>
        <g id="Grupo_973725" data-name="Grupo 973725" transform="translate(21.152 4.292)">
          <g id="Grupo_973724" data-name="Grupo 973724">
            <path id="Trazado_651047" data-name="Trazado 651047" d="M832.876,5334.749a1.709,1.709,0,0,0-.562.457.584.584,0,0,0-.025.679.628.628,0,0,0,.836.014.817.817,0,0,0,.324-.484.575.575,0,0,0-.174-.543.446.446,0,0,0-.55-.021" transform="translate(-832.191 -5334.749)" fill="#fafafa"/>
          </g>
        </g>
      </g>
    </g>
    <g id="Grupo_973730" data-name="Grupo 973730" transform="translate(700.844 5208.813)">
      <g id="Grupo_973728" data-name="Grupo 973728">
        <path id="Trazado_651048" data-name="Trazado 651048" d="M737.671,5275.162,734,5268.691a17.334,17.334,0,1,0-4.152,4.62l-.007.008Z" transform="translate(-701.948 -5242.319)" fill="#449c6e"/>
      </g>
      <g id="Grupo_973729" data-name="Grupo 973729" transform="translate(11.278 12.64)">
        <path id="Trazado_651049" data-name="Trazado 651049" d="M717.539,5262.352a2.286,2.286,0,1,1,2.276,2.559A2.3,2.3,0,0,1,717.539,5262.352Zm3.231,0c0-.993-.38-1.471-.956-1.471s-.954.49-.954,1.471.392,1.471.954,1.471S720.77,5263.347,720.77,5262.352Zm4.5-2.452h1.557l-6.252,9.279h-1.557Zm-1.5,6.828a2.286,2.286,0,1,1,2.263,2.559A2.294,2.294,0,0,1,723.765,5266.727Zm3.217,0c0-.981-.379-1.471-.955-1.471s-.955.477-.955,1.471.393,1.471.955,1.471S726.982,5267.708,726.982,5266.727Z" transform="translate(-717.539 -5259.794)" fill="#fff"/>
      </g>
    </g>
  </g>
</svg>
