<svg id="impuesto_1_" data-name="impuesto(1)" xmlns="http://www.w3.org/2000/svg" width="67.073" height="67.073" viewBox="0 0 67.073 67.073">
  <g id="Grupo_974590" data-name="Grupo 974590" transform="translate(1.082 1.082)">
    <g id="Grupo_974579" data-name="Grupo 974579" transform="translate(5.409)">
      <path id="Trazado_651950" data-name="Trazado 651950" d="M47.109,36.7V1H6V54.009H41.711a11.552,11.552,0,0,1,2.066-6.22l5.5-7.843Z" transform="translate(-6 -1)" fill="#e6e9ed"/>
    </g>
    <g id="Grupo_974580" data-name="Grupo 974580" transform="translate(41.109 38.945)">
      <path id="Trazado_651951" data-name="Trazado 651951" d="M60.723,44.843a11.521,11.521,0,0,1-9.433,18.12h-.779A11.524,11.524,0,0,1,39,51.453c0-.13,0-.26.011-.389a11.552,11.552,0,0,1,2.066-6.22L46.573,37h8.655Z" transform="translate(-39 -37)" fill="#b4dd7f"/>
    </g>
    <g id="Grupo_974581" data-name="Grupo 974581" transform="translate(46.518 32.455)">
      <path id="Trazado_651952" data-name="Trazado 651952" d="M50.264,37.037l.227.454H46.164L44,34.245A3.25,3.25,0,0,1,47.245,31h1.212a18.279,18.279,0,0,0,1.807,6.037Z" transform="translate(-44 -31)" fill="#b4dd7f"/>
    </g>
    <g id="Grupo_974582" data-name="Grupo 974582" transform="translate(50.845 30.291)">
      <path id="Trazado_651953" data-name="Trazado 651953" d="M56.655,31.164a10.769,10.769,0,0,1-1.8,5.95l-.368.541H50.164l-.227-.454a18.279,18.279,0,0,1-1.807-6.037A18.009,18.009,0,0,1,48,29a18.209,18.209,0,0,1,6.761,1.082,6,6,0,0,1,1.893,1.082Z" transform="translate(-48 -29)" fill="#a0d468"/>
    </g>
    <g id="Grupo_974583" data-name="Grupo 974583" transform="translate(22.718 12.982)">
      <circle id="Elipse_7802" data-name="Elipse 7802" cx="2" cy="2" r="2" transform="translate(0.2 -0.063)" fill="#fcd770"/>
    </g>
    <g id="Grupo_974584" data-name="Grupo 974584" transform="translate(22.718 4.327)">
      <ellipse id="Elipse_7803" data-name="Elipse 7803" cx="2" cy="2.5" rx="2" ry="2.5" transform="translate(0.2 -0.409)" fill="#fcd770"/>
    </g>
    <g id="Grupo_974585" data-name="Grupo 974585" transform="translate(9.736 30.291)">
      <path id="Trazado_651954" data-name="Trazado 651954" d="M10,29H42.455V39.818H10Z" transform="translate(-10 -29)" fill="#ffeaa7"/>
    </g>
    <g id="Grupo_974586" data-name="Grupo 974586" transform="translate(9.736 25.964)">
      <path id="Trazado_651955" data-name="Trazado 651955" d="M10,25H42.455v4.327H10Z" transform="translate(-10 -25)" fill="#b4dd7f"/>
    </g>
    <g id="Grupo_974587" data-name="Grupo 974587" transform="translate(55.173 55.173)">
      <circle id="Elipse_7804" data-name="Elipse 7804" cx="2.5" cy="2.5" r="2.5" transform="translate(-0.255 -0.254)" fill="#ffeaa7"/>
    </g>
    <g id="Grupo_974588" data-name="Grupo 974588" transform="translate(46.518 46.518)">
      <circle id="Elipse_7805" data-name="Elipse 7805" cx="2" cy="2" r="2" transform="translate(0.4 0.4)" fill="#ffeaa7"/>
    </g>
    <g id="Grupo_974589" data-name="Grupo 974589" transform="translate(0 45.436)">
      <path id="Trazado_651956" data-name="Trazado 651956" d="M36.851,48.939a1.9,1.9,0,0,1,0,3.267l-8.806,5.939V53.818H1V47.327H28.045V43Z" transform="translate(-1 -43)" fill="#ef7385"/>
    </g>
  </g>
  <g id="Grupo_974591" data-name="Grupo 974591" transform="translate(0 0)">
    <path id="Trazado_651957" data-name="Trazado 651957" d="M64.8,47.252,59.727,40.01a11.774,11.774,0,0,0,1.936-6.474v-.448l-.317-.317c-.253-.253-2.675-2.481-9.419-2.481H50.845v1.082c0,.36.011.722.03,1.082h-.031a4.285,4.285,0,0,0-2.163.6V0H5.409V49.764H0v8.655H27.045V63.7l10.447-7.04a2.98,2.98,0,0,0,1.222-1.484h2.429a12.6,12.6,0,0,0,12.562,11.9h.769A12.6,12.6,0,0,0,64.8,47.252Zm-5.311-13.19a9.618,9.618,0,0,1-1.6,4.82l-.042.064H54.761a17.364,17.364,0,0,1-1.716-6.468c3.79.163,5.726,1.128,6.441,1.585Zm-10.171,1.19a2.149,2.149,0,0,1,1.53-.634h.277a19.577,19.577,0,0,0,1.262,4.327H50.342L48.7,36.484a2.142,2.142,0,0,1,.613-1.232ZM36.332,54.833l-7.123,4.8V56.255H2.164V51.927H29.209V48.551l7.17,4.829a.833.833,0,0,1,.4.711.867.867,0,0,1-.45.742ZM27.045,44.484v5.279H7.573V2.164H46.518V36.782h0v.327l1.935,2.9-5.068,7.24A12.532,12.532,0,0,0,41.2,53.009H38.717a2.893,2.893,0,0,0-1.177-1.454Zm27.43,20.425h-.769a10.435,10.435,0,0,1-8.547-16.418l5.169-7.382h7.528l5.168,7.382a10.435,10.435,0,0,1-8.549,16.418Z" transform="translate(0 0)"/>
    <path id="Trazado_651958" data-name="Trazado 651958" d="M0,0H15.3V2.164H0Z" transform="translate(47.906 58.734) rotate(-45)"/>
    <path id="Trazado_651959" data-name="Trazado 651959" d="M54.245,51a3.245,3.245,0,1,0,3.245,3.245A3.249,3.249,0,0,0,54.245,51Zm0,4.327a1.082,1.082,0,1,1,1.082-1.082A1.082,1.082,0,0,1,54.245,55.327Z" transform="translate(4.173 4.173)"/>
    <path id="Trazado_651960" data-name="Trazado 651960" d="M49.491,46.245a3.245,3.245,0,1,0-3.245,3.245A3.249,3.249,0,0,0,49.491,46.245Zm-4.327,0a1.082,1.082,0,1,1,1.082,1.082A1.082,1.082,0,0,1,45.164,46.245Z" transform="translate(3.518 3.518)"/>
    <path id="Trazado_651961" data-name="Trazado 651961" d="M13.327,21.309v2.164h2.164V21.309a4.327,4.327,0,1,0,0-8.655H13.327a2.164,2.164,0,0,1,0-4.327h2.164a2.166,2.166,0,0,1,2.164,2.164h2.164a4.332,4.332,0,0,0-4.327-4.327V4H13.327V6.164a4.327,4.327,0,1,0,0,8.655h2.164a2.164,2.164,0,0,1,0,4.327H13.327a2.166,2.166,0,0,1-2.164-2.164V15.9H9v1.082A4.332,4.332,0,0,0,13.327,21.309Z" transform="translate(0.736 0.327)"/>
    <path id="Trazado_651962" data-name="Trazado 651962" d="M24.245,10.491A3.245,3.245,0,1,0,21,7.245,3.249,3.249,0,0,0,24.245,10.491Zm0-4.327a1.082,1.082,0,1,1-1.082,1.082A1.082,1.082,0,0,1,24.245,6.164Z" transform="translate(1.718 0.327)"/>
    <path id="Trazado_651963" data-name="Trazado 651963" d="M24.245,18.491A3.245,3.245,0,1,0,21,15.245,3.249,3.249,0,0,0,24.245,18.491Zm0-4.327a1.082,1.082,0,1,1-1.082,1.082A1.082,1.082,0,0,1,24.245,14.164Z" transform="translate(1.718 0.982)"/>
    <path id="Trazado_651964" data-name="Trazado 651964" d="M43.618,24H9V41.309H43.618Zm-2.164,4.327H37.127V26.164h4.327ZM24.145,30.491h4.327v8.655H24.145Zm-2.164,8.655H17.655V30.491h4.327Zm8.655-8.655h4.327v8.655H30.636ZM17.655,28.327V26.164H34.964v2.164Zm-2.164-2.164v2.164H11.164V26.164Zm-4.327,4.327h4.327v8.655H11.164Zm25.964,8.655V30.491h4.327v8.655Z" transform="translate(0.736 1.964)"/>
    <path id="Trazado_651965" data-name="Trazado 651965" d="M21,42h2.164v2.164H21Z" transform="translate(1.718 3.436)"/>
    <path id="Trazado_651966" data-name="Trazado 651966" d="M9,42h2.164v2.164H9Z" transform="translate(0.736 3.436)"/>
    <path id="Trazado_651967" data-name="Trazado 651967" d="M13,42h2.164v2.164H13Z" transform="translate(1.064 3.436)"/>
    <path id="Trazado_651968" data-name="Trazado 651968" d="M17,42h2.164v2.164H17Z" transform="translate(1.391 3.436)"/>
    <path id="Trazado_651969" data-name="Trazado 651969" d="M29,4H41.982V6.164H29Z" transform="translate(2.373 0.327)"/>
    <path id="Trazado_651970" data-name="Trazado 651970" d="M29,8H41.982v2.164H29Z" transform="translate(2.373 0.655)"/>
    <path id="Trazado_651971" data-name="Trazado 651971" d="M29,12H41.982v2.164H29Z" transform="translate(2.373 0.982)"/>
    <path id="Trazado_651972" data-name="Trazado 651972" d="M29,16H41.982v2.164H29Z" transform="translate(2.373 1.309)"/>
  </g>
</svg>
