<svg xmlns="http://www.w3.org/2000/svg" width="62.371" height="62" viewBox="0 0 62.371 62">
  <g id="impuesto" transform="translate(-1 -1)">
    <g id="Grupo_974577" data-name="Grupo 974577">
      <g id="Grupo_974563" data-name="Grupo 974563">
        <path id="Trazado_651927" data-name="Trazado 651927" d="M34,19.69v14.6L29.44,29.6l-2.5-2.56Z" fill="#ccd1d9"/>
      </g>
      <g id="Grupo_974564" data-name="Grupo 974564">
        <path id="Trazado_651928" data-name="Trazado 651928" d="M24.51,34.42l2.43,2.54-3.37,3.46A1.959,1.959,0,0,0,23,41.81v7.38A12.8,12.8,0,0,1,10.19,62,8.194,8.194,0,0,1,2,53.81a1.993,1.993,0,0,1,.56-1.39L22.18,32ZM19,49.2V44.57A1.566,1.566,0,0,0,17.43,43a1,1,0,0,0-.73.31L6,54.54A4.212,4.212,0,0,0,10.15,58,8.837,8.837,0,0,0,19,49.2Z" fill="#ccd1d9"/>
      </g>
      <g id="Grupo_974565" data-name="Grupo 974565">
        <path id="Trazado_651929" data-name="Trazado 651929" d="M53.21,54l-3.9-4L46,46.61V46.6L41.52,42h-.01L38,38.39l-4-4.1L29.44,29.6l-2.5-2.56-3.37-3.46A1.959,1.959,0,0,1,23,22.19V14.81A12.8,12.8,0,0,0,10.19,2,8.194,8.194,0,0,0,2,10.19a1.993,1.993,0,0,0,.56,1.39L22.18,32l2.33,2.42,2.43,2.54L34,44.31,43.31,54l5.92,6.16A6.02,6.02,0,0,0,53.56,62H61ZM19,19.43A1.566,1.566,0,0,1,17.43,21a1,1,0,0,1-.73-.31L6,9.46A4.212,4.212,0,0,1,10.15,6,8.837,8.837,0,0,1,19,14.8Z" fill="#e6e9ed"/>
      </g>
      <g id="Grupo_974566" data-name="Grupo 974566">
        <path id="Trazado_651930" data-name="Trazado 651930" d="M34,44.31,43.31,54H36a2.006,2.006,0,0,1-2-2Z" fill="#aab2bd"/>
      </g>
      <g id="Grupo_974567" data-name="Grupo 974567">
        <path id="Trazado_651931" data-name="Trazado 651931" d="M60,12H36a2.006,2.006,0,0,0-2,2V34.29L53.21,54H60a2.006,2.006,0,0,0,2-2V14A2.006,2.006,0,0,0,60,12Z" fill="#aab2bd"/>
      </g>
      <g id="Grupo_974568" data-name="Grupo 974568">
        <path id="Trazado_651932" data-name="Trazado 651932" d="M50,46v4h-.69L46,46.61V46Z" fill="#ff826e"/>
      </g>
      <g id="Grupo_974569" data-name="Grupo 974569">
        <path id="Trazado_651933" data-name="Trazado 651933" d="M42,38v4h-.49L38,38.39V38Z" fill="#ff826e"/>
      </g>
      <g id="Grupo_974570" data-name="Grupo 974570">
        <path id="Trazado_651934" data-name="Trazado 651934" d="M46,38h4v4H46Z" fill="#ff826e"/>
      </g>
      <g id="Grupo_974571" data-name="Grupo 974571">
        <path id="Trazado_651935" data-name="Trazado 651935" d="M54,38h4V50H54Z" fill="#ff826e"/>
      </g>
      <g id="Grupo_974572" data-name="Grupo 974572">
        <path id="Trazado_651936" data-name="Trazado 651936" d="M54,30h4v4H54Z" fill="#ff826e"/>
      </g>
      <g id="Grupo_974573" data-name="Grupo 974573">
        <path id="Trazado_651937" data-name="Trazado 651937" d="M46,30h4v4H46Z" fill="#ff826e"/>
      </g>
      <g id="Grupo_974574" data-name="Grupo 974574">
        <path id="Trazado_651938" data-name="Trazado 651938" d="M38,30h4v4H38Z" fill="#ff826e"/>
      </g>
      <g id="Grupo_974575" data-name="Grupo 974575">
        <path id="Trazado_651939" data-name="Trazado 651939" d="M58,17v8a1,1,0,0,1-1,1H39a1,1,0,0,1-1-1V17a.991.991,0,0,1,.85-.98,9.99,9.99,0,0,0,18.3,0A.991.991,0,0,1,58,17Z" fill="#69d6f4"/>
      </g>
      <g id="Grupo_974576" data-name="Grupo 974576">
        <path id="Trazado_651940" data-name="Trazado 651940" d="M57.15,16.02a9.99,9.99,0,0,1-18.3,0A9.818,9.818,0,0,1,38,12a10,10,0,0,1,20,0A9.818,9.818,0,0,1,57.15,16.02Z" fill="#fcd770"/>
      </g>
    </g>
    <g id="Grupo_974578" data-name="Grupo 974578">
      <circle id="Elipse_7801" data-name="Elipse 7801" cx="1" cy="1" r="1" transform="translate(26 31)"/>
      <path id="Trazado_651941" data-name="Trazado 651941" d="M55.576,55H60a3,3,0,0,0,3-3V14a3,3,0,0,0-3-3H58.949a10.994,10.994,0,0,0-21.9,0H36a3,3,0,0,0-3,3v5.292L26.934,25.6l-2.651-2.721a1,1,0,0,1-.283-.7V14.8A13.82,13.82,0,0,0,10.195,1,9.206,9.206,0,0,0,1,10.195a2.981,2.981,0,0,0,.836,2.077L20.79,32,1.837,51.727A2.98,2.98,0,0,0,1,53.8,9.206,9.206,0,0,0,10.2,63,13.82,13.82,0,0,0,24,49.195V41.813a.99.99,0,0,1,.284-.7l2.651-2.721L33,44.709V52a3,3,0,0,0,3,3h6.887l5.621,5.851A7.038,7.038,0,0,0,53.556,63h9.815ZM39,18.305a10.974,10.974,0,0,0,18,0V25H39ZM48,3a9,9,0,1,1-9,9A9.01,9.01,0,0,1,48,3ZM36,13h1.051a10.9,10.9,0,0,0,.556,2.57A1.988,1.988,0,0,0,37,17v8a2,2,0,0,0,2,2H57a2,2,0,0,0,2-2V17a1.991,1.991,0,0,0-.606-1.43A10.9,10.9,0,0,0,58.95,13H60a1,1,0,0,1,1,1V52a1,1,0,0,1-1,1H53.627L51,50.3V45H45.832L43,42.093V37H38.037L35,33.883V14A1,1,0,0,1,36,13ZM49,48.251,47.781,47H49Zm-8-8.21L39.986,39H41ZM33,22.178V31.83l-4.669-4.792ZM22.852,39.72A2.978,2.978,0,0,0,22,41.813v7.382A11.819,11.819,0,0,1,10.2,61,7.2,7.2,0,0,1,3,53.805a.992.992,0,0,1,.279-.692l18.9-19.669,3.371,3.509ZM36,53a1,1,0,0,1-1-1V46.791L40.966,53Zm13.95,6.465L3.278,10.887A1,1,0,0,1,3,10.2,7.2,7.2,0,0,1,10.195,3,11.819,11.819,0,0,1,22,14.805v7.382a2.985,2.985,0,0,0,.851,2.094L58.629,61H53.555a5.03,5.03,0,0,1-3.6-1.535Z"/>
      <path id="Trazado_651942" data-name="Trazado 651942" d="M10.15,5A5.2,5.2,0,0,0,5.016,9.28l-.089.5,11.053,11.6A2.012,2.012,0,0,0,17.428,22,2.574,2.574,0,0,0,20,19.429V14.805A9.838,9.838,0,0,0,10.15,5ZM18,19.429a.572.572,0,0,1-.571.571L7.1,9.167A3.211,3.211,0,0,1,10.15,7,7.836,7.836,0,0,1,18,14.805Z"/>
      <path id="Trazado_651943" data-name="Trazado 651943" d="M17.428,42a2.012,2.012,0,0,0-1.448.621L4.926,54.22l.089.5A5.205,5.205,0,0,0,10.15,59,9.839,9.839,0,0,0,20,49.195V44.571A2.574,2.574,0,0,0,17.428,42ZM18,49.195A7.836,7.836,0,0,1,10.15,57,3.211,3.211,0,0,1,7.1,54.833L17.429,44a.571.571,0,0,1,.571.571Z"/>
      <path id="Trazado_651944" data-name="Trazado 651944" d="M43,29H37v6h6Zm-2,4H39V31h2Z"/>
      <path id="Trazado_651945" data-name="Trazado 651945" d="M51,29H45v6h6Zm-2,4H47V31h2Z"/>
      <path id="Trazado_651946" data-name="Trazado 651946" d="M59,29H53v6h6Zm-2,4H55V31h2Z"/>
      <path id="Trazado_651947" data-name="Trazado 651947" d="M51,37H45v6h6Zm-2,4H47V39h2Z"/>
      <path id="Trazado_651948" data-name="Trazado 651948" d="M59,37H53V51h6ZM57,49H55V39h2Z"/>
      <path id="Trazado_651949" data-name="Trazado 651949" d="M47,16.816V19h2V17h2V14a3,3,0,0,0-3-3,1,1,0,0,1-1-1V9h1a1,1,0,0,1,1,1v1h2V10a3,3,0,0,0-2-2.816V5H47V7H45v3a3,3,0,0,0,3,3,1,1,0,0,1,1,1v1H48a1,1,0,0,1-1-1V13H45v1A3,3,0,0,0,47,16.816Z"/>
    </g>
  </g>
</svg>
