<svg xmlns="http://www.w3.org/2000/svg" width="63.44" height="63.487" viewBox="0 0 63.44 63.487">
  <g id="documento" transform="translate(-10.194 -10)">
    <path id="Trazado_651817" data-name="Trazado 651817" d="M407.939,23.5v.026l-.054,10.6-1.3-1.1a2.006,2.006,0,0,0-2.6,0,2.007,2.007,0,0,1-2.6,0h0a2.006,2.006,0,0,0-2.6,0h0a2.006,2.006,0,0,1-2.6,0l-1.274-1.081.027-8.472A6.5,6.5,0,0,1,401.441,17h.03A6.5,6.5,0,0,1,407.939,23.5Z" transform="translate(-335.079 -6.097)" fill="#bfdae0"/>
    <path id="Trazado_651818" data-name="Trazado 651818" d="M93.662,16a6.466,6.466,0,0,0-6.494,6.439L87.162,24.2v.048L87.02,65.287a4.512,4.512,0,0,1,1.356.456,4.515,4.515,0,0,0,4.2,0h0a4.513,4.513,0,0,1,4.2,0h0a4.513,4.513,0,0,0,4.2,0h0a4.513,4.513,0,0,1,4.2,0h0a4.51,4.51,0,0,0,4.2,0l2.1-1.1v2.808a7.581,7.581,0,0,0,7.581,7.58,7.755,7.755,0,0,0,.887-.052l6.719-14.46L126.78,22.6a6.5,6.5,0,0,1,6.494-6.469Z" transform="translate(-66.912 -5.225)" fill="#def9ff"/>
    <path id="Trazado_651819" data-name="Trazado 651819" d="M93.662,16a6.466,6.466,0,0,0-6.494,6.439L87.02,65.546l3.871,1.29.148-44.4a6.466,6.466,0,0,1,6.1-6.428Z" transform="translate(-66.912 -5.225)" fill="#bad4d8"/>
    <path id="Trazado_651820" data-name="Trazado 651820" d="M72.919,82.418v0l0,2.467-2.494,0-2.5,0h0l0-2.467a2.5,2.5,0,0,1,2.5-2.494l.1,0a2.5,2.5,0,0,1,2.394,2.5Z" transform="translate(-50.277 -60.897)" fill="#5fa8ed"/>
    <path id="Trazado_651821" data-name="Trazado 651821" d="M89.568,118.394l-.03,22.241-2.5,0,.034-22.241Z" transform="translate(-66.929 -94.403)" fill="#c45f74"/>
    <path id="Trazado_651822" data-name="Trazado 651822" d="M67.69,290.72l2.491,5,0-.006,2.5-4.985Z" transform="translate(-50.076 -244.494)" fill="#e1b7a3"/>
    <path id="Trazado_651823" data-name="Trazado 651823" d="M70.221,118.373l-.034,22.241-2.5,0,.03-22.241h0Z" transform="translate(-50.076 -94.385)" fill="#e87187"/>
    <path id="Trazado_651824" data-name="Trazado 651824" d="M326.546,371.946a8.97,8.97,0,0,1,6.663-14.976h.057a8.971,8.971,0,1,1-6.719,14.976Z" transform="translate(-273.519 -302.195)" fill="#5fcda4"/>
    <path id="Trazado_651825" data-name="Trazado 651825" d="M25.33,393.568a4.513,4.513,0,0,1,1.356.456,4.515,4.515,0,0,0,4.2,0h0a4.513,4.513,0,0,1,4.2,0h0a4.513,4.513,0,0,0,4.2,0h0a4.513,4.513,0,0,1,4.2,0h0a4.511,4.511,0,0,0,4.2,0l2.1-1.1v2.808a7.581,7.581,0,0,0,7.581,7.58h-34.1a7.076,7.076,0,0,1-7.076-7.075V392.92l2.1,1.1a4.513,4.513,0,0,0,4.2,0,4.511,4.511,0,0,1,2.843-.456Z" transform="translate(-5.222 -333.506)" fill="#bfdae0"/>
    <path id="Trazado_651826" data-name="Trazado 651826" d="M20.061,396.233v-1.7a4.508,4.508,0,0,1-1.772-.5l-2.1-1.1v3.313a7.076,7.076,0,0,0,7.075,7.076h3.872a7.076,7.076,0,0,1-7.076-7.075Z" transform="translate(-5.222 -333.506)" fill="#96aeb2"/>
    <path id="Trazado_651827" data-name="Trazado 651827" d="M330.414,371.946a8.97,8.97,0,0,1,4.729-14.764,8.99,8.99,0,0,0-1.881-.211h-.057a8.971,8.971,0,1,0,1.931,17.731,8.954,8.954,0,0,1-4.723-2.755Z" transform="translate(-273.515 -302.195)" fill="#4d9e7d"/>
    <g id="Grupo_974470" data-name="Grupo 974470" transform="translate(10.194 10)">
      <path id="Trazado_651828" data-name="Trazado 651828" d="M340.019,291.263H339.7a.774.774,0,1,0,0,1.549h.322a.774.774,0,1,0,0-1.549Z" transform="translate(-296.502 -254.967)" fill="#010001"/>
      <path id="Trazado_651829" data-name="Trazado 651829" d="M294.2,291.263h-2.429a.774.774,0,1,0,0,1.549H294.2a.774.774,0,0,0,0-1.549Z" transform="translate(-254.758 -254.967)" fill="#010001"/>
      <path id="Trazado_651830" data-name="Trazado 651830" d="M156.916,291.263H141.308a.774.774,0,0,0,0,1.549h15.608a.774.774,0,1,0,0-1.549Z" transform="translate(-123.714 -254.967)" fill="#010001"/>
      <path id="Trazado_651831" data-name="Trazado 651831" d="M340.019,333.731H339.7a.774.774,0,1,0,0,1.549h.322a.774.774,0,1,0,0-1.549Z" transform="translate(-296.502 -291.955)" fill="#010001"/>
      <path id="Trazado_651832" data-name="Trazado 651832" d="M294.2,333.731h-2.429a.774.774,0,1,0,0,1.549H294.2a.774.774,0,0,0,0-1.549Z" transform="translate(-254.758 -291.955)" fill="#010001"/>
      <path id="Trazado_651833" data-name="Trazado 651833" d="M156.916,333.731H141.308a.774.774,0,0,0,0,1.549h15.608a.774.774,0,1,0,0-1.549Z" transform="translate(-123.714 -291.955)" fill="#010001"/>
      <path id="Trazado_651834" data-name="Trazado 651834" d="M340.019,206.326H339.7a.774.774,0,1,0,0,1.549h.322a.774.774,0,1,0,0-1.549Z" transform="translate(-296.502 -180.991)" fill="#010001"/>
      <path id="Trazado_651835" data-name="Trazado 651835" d="M294.2,206.326h-2.429a.774.774,0,1,0,0,1.549H294.2a.774.774,0,0,0,0-1.549Z" transform="translate(-254.758 -180.991)" fill="#010001"/>
      <path id="Trazado_651836" data-name="Trazado 651836" d="M156.916,206.326H141.308a.774.774,0,0,0,0,1.549h15.608a.774.774,0,1,0,0-1.549Z" transform="translate(-123.714 -180.991)" fill="#010001"/>
      <path id="Trazado_651837" data-name="Trazado 651837" d="M340.019,248.794H339.7a.774.774,0,1,0,0,1.549h.322a.774.774,0,1,0,0-1.549Z" transform="translate(-296.502 -217.979)" fill="#010001"/>
      <path id="Trazado_651838" data-name="Trazado 651838" d="M294.2,248.794h-2.429a.774.774,0,1,0,0,1.549H294.2a.774.774,0,0,0,0-1.549Z" transform="translate(-254.758 -217.979)" fill="#010001"/>
      <path id="Trazado_651839" data-name="Trazado 651839" d="M156.916,248.794H141.308a.774.774,0,0,0,0,1.549h15.608a.774.774,0,1,0,0-1.549Z" transform="translate(-123.714 -217.979)" fill="#010001"/>
      <path id="Trazado_651840" data-name="Trazado 651840" d="M340.019,121.389H339.7a.774.774,0,1,0,0,1.549h.322a.774.774,0,0,0,0-1.549Z" transform="translate(-296.502 -107.015)" fill="#010001"/>
      <path id="Trazado_651841" data-name="Trazado 651841" d="M294.2,121.389h-2.429a.774.774,0,1,0,0,1.549H294.2a.774.774,0,0,0,0-1.549Z" transform="translate(-254.758 -107.015)" fill="#010001"/>
      <path id="Trazado_651842" data-name="Trazado 651842" d="M156.916,121.389H141.308a.774.774,0,0,0,0,1.549h15.608a.774.774,0,1,0,0-1.549Z" transform="translate(-123.714 -107.015)" fill="#010001"/>
      <path id="Trazado_651843" data-name="Trazado 651843" d="M340.019,163.857H339.7a.774.774,0,1,0,0,1.549h.322a.774.774,0,1,0,0-1.549Z" transform="translate(-296.502 -144.002)" fill="#010001"/>
      <path id="Trazado_651844" data-name="Trazado 651844" d="M294.2,163.857h-2.429a.774.774,0,1,0,0,1.549H294.2a.774.774,0,0,0,0-1.549Z" transform="translate(-254.758 -144.002)" fill="#010001"/>
      <path id="Trazado_651845" data-name="Trazado 651845" d="M156.916,163.857H141.308a.774.774,0,0,0,0,1.549h15.608a.774.774,0,1,0,0-1.549Z" transform="translate(-123.714 -144.002)" fill="#010001"/>
      <path id="Trazado_651846" data-name="Trazado 651846" d="M362.456,402.867a.774.774,0,0,0,1.095,0l6.588-6.588a.774.774,0,1,0-1.095-1.1l-6.588,6.588a.774.774,0,0,0,0,1.1Z" transform="translate(-316.801 -345.28)" fill="#010001"/>
      <path id="Trazado_651847" data-name="Trazado 651847" d="M355.6,391a2.662,2.662,0,1,0-1.883-.779A2.662,2.662,0,0,0,355.6,391Zm-.787-3.45a1.11,1.11,0,1,1-.328.788,1.114,1.114,0,0,1,.328-.788Z" transform="translate(-308.706 -337.198)" fill="#010001"/>
      <path id="Trazado_651848" data-name="Trazado 651848" d="M394.079,426.818a2.663,2.663,0,1,0,3.766,0A2.663,2.663,0,0,0,394.079,426.818Zm2.671,1.095a1.115,1.115,0,1,1-.788-.326,1.115,1.115,0,0,1,.788.326Z" transform="translate(-343.861 -372.351)" fill="#010001"/>
      <path id="Trazado_651849" data-name="Trazado 651849" d="M67.034,10.181,26.754,10h-.032a7.241,7.241,0,0,0-7.24,7.21l0,1.117a3.241,3.241,0,0,0-2.605,3.188l-.022,16.5a.774.774,0,1,0,1.549,0l.018-13.254h.952l-.031,20.692h-.949v-.986a.774.774,0,1,0-1.549,0l0,1.76a.776.776,0,0,0,.082.346h0l2.432,4.881-.017,7.774a5.286,5.286,0,0,0-2.43.607,3.738,3.738,0,0,1-3.478,0l-2.1-1.1a.774.774,0,0,0-1.134.685v3.312a7.859,7.859,0,0,0,7.85,7.85h34.1c.2,0,.393-.008.589-.021a9.742,9.742,0,1,0,7.794-16.517l.058-17.863a.774.774,0,1,0-1.549-.005L58.975,54.03A9.734,9.734,0,0,0,51.487,69a6.815,6.815,0,0,1-6.153-6.774V59.415a.774.774,0,0,0-1.134-.685l-2.1,1.1a3.739,3.739,0,0,1-3.479,0,5.287,5.287,0,0,0-4.918,0l-.007,0a3.739,3.739,0,0,1-3.471,0l-.005,0a5.287,5.287,0,0,0-4.909,0l-.006,0a3.739,3.739,0,0,1-3.478,0l0,0a5.273,5.273,0,0,0-.937-.381l.018-8.088,2.4-4.783a.77.77,0,0,0,.083-.346l.034-24.708a3.3,3.3,0,0,0-1.865-2.971,2.75,2.75,0,0,0-.524-.2l0-1.138a5.7,5.7,0,0,1,5.693-5.668h.025l35.158.114a7.261,7.261,0,0,0-2.813,5.707l-.04,12.349a.774.774,0,0,0,1.549.005l.007-2.212,0,0a2.741,2.741,0,0,0,3.576.023,1.229,1.229,0,0,1,1.622-.022,2.772,2.772,0,0,0,3.614-.012,1.221,1.221,0,0,1,1.582.012l1.3,1.1a.775.775,0,0,0,.972.025.8.8,0,0,0,.3-.64l.053-10.572a7.222,7.222,0,0,0-2.074-5.116,7.356,7.356,0,0,0-4.526-2.134ZM59.691,55.55a8.2,8.2,0,1,1-8.2,8.2,8.2,8.2,0,0,1,8.2-8.2ZM21.1,61.2l0,0a5.286,5.286,0,0,0,4.91,0l.005,0a3.739,3.739,0,0,1,3.478,0l.005,0a5.286,5.286,0,0,0,4.914,0l.007,0a3.74,3.74,0,0,1,3.474,0,5.288,5.288,0,0,0,4.918,0l.967-.508v1.526a8.3,8.3,0,0,0,2.447,5.908,8.449,8.449,0,0,0,1.058.9H18.044a6.309,6.309,0,0,1-6.3-6.3V60.7l.964.507a5.286,5.286,0,0,0,4.919,0A3.739,3.739,0,0,1,21.1,61.2Zm-1-11.71L18.865,47l2.489,0Zm1.728-4.036h-.949l.031-20.692h.946ZM21.365,20.3a1.712,1.712,0,0,1,.5,1.219l0,1.693-3.446,0,0-1.693A1.725,1.725,0,0,1,20.144,19.8h0A1.712,1.712,0,0,1,21.365,20.3Zm50.676,6.058-.031-.026a2.772,2.772,0,0,0-3.6,0,1.229,1.229,0,0,1-1.6,0,2.772,2.772,0,0,0-3.6,0,1.229,1.229,0,0,1-1.6,0l-1-.85.026-8.111a5.728,5.728,0,0,1,5.722-5.7h.025a5.728,5.728,0,0,1,5.7,5.746Z" transform="translate(-10.194 -10)" fill="#010001"/>
    </g>
  </g>
</svg>
