<svg id="Grupo_943458" data-name="Grupo 943458" xmlns="http://www.w3.org/2000/svg" width="190" height="141" viewBox="0 0 190 141">
  <rect id="Rectángulo_305880" data-name="Rectángulo 305880" width="190" height="141" fill="none"/>
  <g id="XMLID_1_" transform="translate(31.926 7.317)">
    <g id="XMLID_4028_" transform="translate(25.605 10.651)">
      <g id="Grupo_974425" data-name="Grupo 974425" transform="translate(31.918)">
        <path id="XMLID_2386_" d="M298.088,43.2S291.9,48.624,291.9,56.884s6.188,10.306,6.188,10.306,6.189-2.071,6.189-10.306S298.088,43.2,298.088,43.2Z" transform="translate(-277.49 -43.2)" fill="#03e272"/>
        <path id="XMLID_2246_" d="M234.082,71.7s-2,5.917,1.134,11.317c3.131,5.424,7.964,4.413,7.964,4.413s3.279-3.7.148-9.1S234.082,71.7,234.082,71.7Z" transform="translate(-233.455 -64.673)" fill="#03e272"/>
        <path id="XMLID_2244_" d="M365.807,71.7s2,5.917-1.134,11.317c-3.131,5.424-7.964,4.413-7.964,4.413s-3.279-3.7-.148-9.1S365.807,71.7,365.807,71.7Z" transform="translate(-325.188 -64.673)" fill="#03e272"/>
      </g>
      <path id="XMLID_2207_" d="M104.8,273.2h25.617v28.847H104.8Z" transform="translate(-104.603 -216.493)" fill="#aaa"/>
      <path id="XMLID_2205_" d="M104.8,221.5h25.617v12.747H104.8Z" transform="translate(-104.603 -177.539)" fill="#069ac1"/>
      <path id="XMLID_2178_" d="M139.7,116.5h8.383v7.2H139.7Z" transform="translate(-130.898 -98.428)" fill="#10bcfa"/>
      <path id="XMLID_2176_" d="M130.392,164.313H104.8V154.9a9.3,9.3,0,0,1,9.3-9.3h7.027a9.3,9.3,0,0,1,9.3,9.3v9.418Z" transform="translate(-104.603 -120.353)" fill="#aaa"/>
      <path id="XMLID_2175_" d="M281.839,167.7v12.476a9.345,9.345,0,0,1-18.689,0V167.7H256v54.735h32.989V167.7Z" transform="translate(-218.524 -137.004)" fill="#d89427"/>
      <path id="XMLID_2495_" d="M104,286.328A24.92,24.92,0,0,0,121.209,274H104Z" transform="translate(-104 -217.095)" fill="#d2dbe2"/>
      <path id="XMLID_2496_" d="M104,234.821h17.209a25.365,25.365,0,0,0,2.934-11.711c0-.37,0-.863-.025-1.109H104Z" transform="translate(-104 -177.916)" fill="#10bcfa"/>
      <path id="XMLID_2497_" d="M114.429,146.9A12.836,12.836,0,0,0,104,159.4v6.016h20.119A24.53,24.53,0,0,0,114.429,146.9Z" transform="translate(-104 -121.332)" fill="#d2dbe2"/>
      <path id="XMLID_2584_" d="M256,168v38.98c.542.049,1.085.074,1.652.074A23.521,23.521,0,0,0,281.173,183.9a9.345,9.345,0,0,1-18-3.476V168Z" transform="translate(-218.524 -137.23)" fill="#fcb042"/>
    </g>
    <g id="XMLID_3721_" transform="translate(-0.049)">
      <g id="XMLID_797_" transform="translate(70.28 8.919)">
        <path id="XMLID_2451_" d="M292.89,63.6a1.405,1.405,0,0,1-.542-.1c-.3-.1-7.347-2.564-7.347-11.933,0-8.925,6.484-14.719,6.756-14.966a1.692,1.692,0,0,1,2.244,0c.271.247,6.756,6.041,6.756,14.966,0,9.369-7.051,11.81-7.347,11.933A1.213,1.213,0,0,1,292.89,63.6Zm0-23.225A17.769,17.769,0,0,0,288.4,51.591c0,5.547,3.181,7.766,4.487,8.457,1.307-.666,4.487-2.885,4.487-8.457A17.573,17.573,0,0,0,292.89,40.373Z" transform="translate(-285 -36.175)" fill="#111"/>
      </g>
      <g id="XMLID_796_" transform="translate(55.866 15.974)">
        <path id="XMLID_2448_" d="M237.033,84.024c-1.972,0-5.819-.666-8.506-5.35a16.614,16.614,0,0,1-1.257-12.722,1.726,1.726,0,0,1,1.948-1.134,16.755,16.755,0,0,1,10.38,7.446c3.7,6.41-.2,10.9-.345,11.095a1.724,1.724,0,0,1-.937.542A5.362,5.362,0,0,1,237.033,84.024Zm-6.9-15.36a12.86,12.86,0,0,0,1.356,8.309c1.874,3.255,4.413,3.649,5.547,3.649.567-.986,1.5-3.4-.37-6.632A13.07,13.07,0,0,0,230.129,68.663Z" transform="translate(-226.539 -64.79)" fill="#111"/>
      </g>
      <g id="XMLID_795_" transform="translate(60.509 22.947)">
        <path id="XMLID_2447_" d="M252.158,105.257a1.7,1.7,0,0,1-1.479-.838l-5.079-8.8a1.7,1.7,0,0,1,2.934-1.7l5.079,8.8a1.685,1.685,0,0,1-1.455,2.54Z" transform="translate(-245.37 -93.07)" fill="#111"/>
      </g>
      <g id="XMLID_793_" transform="translate(85.895 15.992)">
        <path id="XMLID_2432_" d="M352.467,84.077a8.614,8.614,0,0,1-1.257-.1,1.724,1.724,0,0,1-.937-.542c-.173-.2-4.043-4.685-.345-11.095a16.642,16.642,0,0,1,10.38-7.446,1.7,1.7,0,0,1,1.948,1.134A16.742,16.742,0,0,1,361,78.751C358.286,83.411,354.44,84.077,352.467,84.077Zm6.928-15.36a12.705,12.705,0,0,0-6.509,5.326c-1.874,3.23-.962,5.621-.37,6.632,1.134,0,3.674-.419,5.547-3.649A12.964,12.964,0,0,0,359.4,68.717Z" transform="translate(-348.333 -64.861)" fill="#111"/>
      </g>
      <g id="XMLID_792_" transform="translate(87.433 22.947)">
        <path id="XMLID_2431_" d="M356.254,105.257a1.64,1.64,0,0,1-.838-.222,1.693,1.693,0,0,1-.616-2.318l5.054-8.8a1.7,1.7,0,1,1,2.934,1.7l-5.079,8.777A1.639,1.639,0,0,1,356.254,105.257Z" transform="translate(-354.57 -93.07)" fill="#111"/>
      </g>
      <g id="XMLID_791_" transform="translate(76.444 15.829)">
        <path id="XMLID_2430_" d="M311.726,84.615a1.726,1.726,0,0,1-1.726-1.7V65.9a1.726,1.726,0,0,1,3.452,0V82.913A1.71,1.71,0,0,1,311.726,84.615Z" transform="translate(-310 -64.2)" fill="#111"/>
      </g>
      <g id="XMLID_747_" transform="translate(18.078 0.099)">
        <path id="XMLID_2395_" d="M74.982,21.776a1.761,1.761,0,0,1-1.208-.493,1.711,1.711,0,0,1,0-2.416A63.01,63.01,0,0,1,147.494,7.55a1.7,1.7,0,1,1-1.578,3.008,59.669,59.669,0,0,0-69.75,10.7A1.629,1.629,0,0,1,74.982,21.776Z" transform="translate(-73.275 -0.4)" fill="#111"/>
      </g>
      <g id="XMLID_746_" transform="translate(18.017 0.002)">
        <path id="XMLID_2394_" d="M95.358,21.209H74.722a1.6,1.6,0,0,1-1.356-.641,1.628,1.628,0,0,1-.271-1.455L78.149,1.239A1.673,1.673,0,0,1,80.245.08a1.759,1.759,0,0,1,1.183,2.145L76.965,18H95.358a1.605,1.605,0,1,1,0,3.205Z" transform="translate(-73.027 -0.008)" fill="#111"/>
      </g>
      <g id="XMLID_745_" transform="translate(0.111 33.036)">
        <path id="XMLID_2393_" d="M20.075,209.117a1.761,1.761,0,0,1-1.208-.493A63.01,63.01,0,0,1,7.55,134.9a1.7,1.7,0,0,1,3.008,1.578,59.669,59.669,0,0,0,10.7,69.75,1.711,1.711,0,0,1,0,2.416,1.678,1.678,0,0,1-1.183.468Z" transform="translate(-0.4 -133.99)" fill="#111"/>
      </g>
      <g id="XMLID_744_" transform="translate(0 84.198)">
        <path id="XMLID_2392_" d="M19.564,365.539a1.546,1.546,0,0,1-.468-.074L1.2,360.411a1.706,1.706,0,0,1-1.183-2.1,1.759,1.759,0,0,1,2.145-1.183l15.8,4.463V343.2a1.605,1.605,0,1,1,3.205,0v20.637a1.6,1.6,0,0,1-.641,1.356A1.532,1.532,0,0,1,19.564,365.539Z" transform="translate(0.049 -341.5)" fill="#111"/>
      </g>
      <g id="XMLID_743_" transform="translate(33.048 104.779)">
        <path id="XMLID_2391_" d="M164.072,446.333a62.977,62.977,0,0,1-29.167-7.15,1.7,1.7,0,1,1,1.578-3.008,59.669,59.669,0,0,0,69.75-10.7,1.709,1.709,0,1,1,2.416,2.416,62.747,62.747,0,0,1-44.577,18.442Z" transform="translate(-133.99 -424.975)" fill="#111"/>
      </g>
      <g id="XMLID_742_" transform="translate(84.186 105.032)">
        <path id="XMLID_2390_" d="M358.683,447.2a1.548,1.548,0,0,1-.468-.074,1.759,1.759,0,0,1-1.183-2.145l4.463-15.779H343.1a1.605,1.605,0,1,1,0-3.205h20.637a1.6,1.6,0,0,1,1.356.641,1.628,1.628,0,0,1,.271,1.455l-5.03,17.875A1.708,1.708,0,0,1,358.683,447.2Z" transform="translate(-341.4 -426)" fill="#111"/>
      </g>
      <g id="XMLID_741_" transform="translate(104.791 18.042)">
        <path id="XMLID_2389_" d="M437.679,148.331a1.78,1.78,0,0,1-.789-.2,1.685,1.685,0,0,1-.715-2.293,59.669,59.669,0,0,0-10.7-69.75,1.709,1.709,0,0,1,2.416-2.416,63.01,63.01,0,0,1,11.317,73.72A1.749,1.749,0,0,1,437.679,148.331Z" transform="translate(-424.975 -73.175)" fill="#111"/>
      </g>
      <g id="XMLID_740_" transform="translate(105.044 18.005)">
        <path id="XMLID_2388_" d="M427.6,97.06a1.623,1.623,0,0,1-1.6-1.7V74.722a1.6,1.6,0,0,1,.641-1.356,1.628,1.628,0,0,1,1.455-.271l17.875,5.054a1.673,1.673,0,0,1,1.159,2.1,1.759,1.759,0,0,1-2.145,1.183l-15.779-4.463V95.358A1.623,1.623,0,0,1,427.6,97.06Z" transform="translate(-426 -73.027)" fill="#111"/>
      </g>
      <g id="XMLID_766_" transform="translate(24.15 65.682)">
        <path id="XMLID_2384_" d="M125.218,298.649H99.6a1.7,1.7,0,0,1-1.7-1.7V268.1a1.7,1.7,0,0,1,1.7-1.7h25.617a1.7,1.7,0,0,1,1.7,1.7v28.847A1.721,1.721,0,0,1,125.218,298.649Zm-23.94-3.4h22.215V269.778H101.278Z" transform="translate(-97.9 -266.4)" fill="#111"/>
      </g>
      <g id="XMLID_1628_" transform="translate(0.012)">
        <path id="XMLID_3097_" fill="none" stroke="#111" stroke-linecap="round" stroke-linejoin="round" stroke-miterlimit="10" stroke-width="10"/>
      </g>
      <g id="XMLID_767_" transform="translate(24.15 52.911)">
        <path id="XMLID_2383_" d="M125.218,230.749H99.6a1.7,1.7,0,0,1-1.7-1.7V216.3a1.7,1.7,0,0,1,1.7-1.7h6.016a1.7,1.7,0,1,1,0,3.4H101.3v9.344h22.215V218h-3.994a1.7,1.7,0,0,1,0-3.4h5.7a1.7,1.7,0,0,1,1.7,1.7v12.747A1.721,1.721,0,0,1,125.218,230.749Z" transform="translate(-97.9 -214.6)" fill="#111"/>
      </g>
      <g id="XMLID_770_" transform="translate(32.754 27.022)">
        <path id="XMLID_2380_" d="M142.884,120.2H134.5a1.7,1.7,0,0,1-1.7-1.7v-7.2a1.7,1.7,0,0,1,1.7-1.7h8.383a1.7,1.7,0,0,1,1.7,1.7v7.2A1.7,1.7,0,0,1,142.884,120.2Zm-6.682-3.4h4.98V113H136.2Z" transform="translate(-132.8 -109.6)" fill="#111"/>
      </g>
      <g id="XMLID_1626_" transform="translate(24.125 34.222)">
        <path id="XMLID_2379_" d="M125.143,160.891a1.7,1.7,0,0,1-1.7-1.7V153.3a11.12,11.12,0,1,0-22.239,0v5.893a1.7,1.7,0,0,1-3.4,0V153.3a14.5,14.5,0,1,1,28.995,0v5.893a1.648,1.648,0,0,1-1.652,1.7Z" transform="translate(-97.8 -138.8)" fill="#111"/>
      </g>
      <g id="XMLID_1721_" transform="translate(61.404 39.72)">
        <path id="XMLID_2378_" d="M283.715,219.262H250.726A1.791,1.791,0,0,1,249,217.487V162.752a1.684,1.684,0,0,1,1.726-1.652h7.15a1.685,1.685,0,0,1,1.726,1.652v12.476a7.643,7.643,0,0,0,15.286,0V162.752a1.642,1.642,0,0,1,1.677-1.652h7.15a1.728,1.728,0,0,1,1.775,1.652V184.5a1.726,1.726,0,0,1-3.452,0V164.527h-3.7V175.2a11.1,11.1,0,0,1-22.19,0V164.527h-3.7V215.81h29.587v-17.7a1.726,1.726,0,0,1,3.452,0v19.379a1.834,1.834,0,0,1-1.775,1.775Z" transform="translate(-249 -161.1)" fill="#111"/>
      </g>
      <g id="XMLID_775_" transform="translate(0.012)">
        <path id="XMLID_3085_" fill="none" stroke="#111" stroke-linecap="round" stroke-linejoin="round" stroke-miterlimit="10" stroke-width="10"/>
      </g>
      <g id="XMLID_769_" transform="translate(37.069 53.034)">
        <circle id="XMLID_3083_" cx="1.701" cy="1.701" r="1.701" fill="#111"/>
      </g>
      <g id="XMLID_1723_" transform="translate(94.516 68.32)">
        <circle id="XMLID_3081_" cx="1.701" cy="1.701" r="1.701" fill="#111"/>
      </g>
    </g>
  </g>
</svg>
