<svg xmlns="http://www.w3.org/2000/svg" width="54.757" height="81.461" viewBox="0 0 54.757 81.461">
  <g id="energia-hidraulica" transform="translate(-83.92)">
    <g id="Grupo_975385" data-name="Grupo 975385" transform="translate(85.518 1.594)">
      <path id="Trazado_652422" data-name="Trazado 652422" d="M142.287,49.7a25.9,25.9,0,1,1-44.912.306L120.1,10.02Z" transform="translate(-93.964 -10.02)" fill="#cbf5fd"/>
      <path id="Trazado_652423" data-name="Trazado 652423" d="M202.916,190.131H190.98l1.18-15.991-14.189,23.111h11.936l-1.18,15.991Z" transform="translate(-164.605 -148.028)" fill="#ffdb8a"/>
    </g>
    <g id="Grupo_975386" data-name="Grupo 975386" transform="translate(83.92 0)">
      <path id="Trazado_652424" data-name="Trazado 652424" d="M179.81,206.333a1.608,1.608,0,0,0,1.848-.683l14.189-23.111a1.594,1.594,0,0,0-1.359-2.428h-10.22l1.054-14.279a1.594,1.594,0,0,0-2.948-.951L168.185,187.99a1.594,1.594,0,0,0,1.359,2.428h10.22L178.71,204.7A1.594,1.594,0,0,0,179.81,206.333Zm-7.417-19.1,9.267-15.094-.7,9.451a1.594,1.594,0,0,0,1.59,1.712h9.087l-9.267,15.094.7-9.451a1.594,1.594,0,0,0-1.59-1.712Z" transform="translate(-154.58 -138.007)"/>
      <path id="Trazado_652425" data-name="Trazado 652425" d="M135.232,40.5l-7.519-13.45A1.594,1.594,0,0,0,124.93,28.6l7.519,13.45a23.813,23.813,0,0,1,2.788,15.13,24.605,24.605,0,0,1-24.292,21.079,23.728,23.728,0,0,1-23.63-20.71,24.185,24.185,0,0,1,3-15.183L111.644,4.84l6.269,11.213A1.594,1.594,0,1,0,120.7,14.5L113.047.816A1.594,1.594,0,0,0,111.662,0h-.006a1.594,1.594,0,0,0-1.386.806L87.542,40.793a27.348,27.348,0,0,0-3.39,17.17,26.937,26.937,0,0,0,26.788,23.5h.192a27.816,27.816,0,0,0,27.26-23.825A26.977,26.977,0,0,0,135.232,40.5Z" transform="translate(-83.92 0)"/>
      <path id="Trazado_652426" data-name="Trazado 652426" d="M320.553,128.516a1.591,1.591,0,1,0-2.185-.537A1.591,1.591,0,0,0,320.553,128.516Z" transform="translate(-280.873 -105.586)"/>
    </g>
  </g>
</svg>
