<svg xmlns="http://www.w3.org/2000/svg" xmlns:xlink="http://www.w3.org/1999/xlink" width="163.183" height="163.183" viewBox="0 0 163.183 163.183">
  <defs>
    <filter id="Trazado_655025" x="0" y="0" width="163.183" height="163.183" filterUnits="userSpaceOnUse">
      <feOffset dy="3" input="SourceAlpha"/>
      <feGaussianBlur stdDeviation="3" result="blur"/>
      <feFlood flood-opacity="0.161"/>
      <feComposite operator="in" in2="blur"/>
      <feComposite in="SourceGraphic"/>
    </filter>
  </defs>
  <g id="Grupo_981732" data-name="Grupo 981732" transform="translate(-719.474 -5488.784)">
    <g id="Grupo_975389" data-name="Grupo 975389" transform="translate(717.033 5494.784)">
      <g transform="matrix(1, 0, 0, 1, 2.44, -6)" filter="url(#Trazado_655025)">
        <path id="Trazado_655025-2" data-name="Trazado 655025" d="M72.592,0A72.592,72.592,0,1,1,0,72.592,72.592,72.592,0,0,1,72.592,0Z" transform="translate(9 6)" fill="#fff"/>
      </g>
      <circle id="Elipse_7838" data-name="Elipse 7838" cx="56.195" cy="56.195" r="56.195" transform="translate(27.836 16.396)" fill="#ef8b53"/>
    </g>
    <g id="ambiental" transform="translate(768 5536)">
      <path id="Trazado_652437" data-name="Trazado 652437" d="M32,63A31.26,31.26,0,0,0,62.991,36.133,1,1,0,0,0,62,35H47V32h2a4.985,4.985,0,0,0,3-8.978V23a6,6,0,0,0-12,0v.022a5.032,5.032,0,0,0-1,1.014,5.032,5.032,0,0,0-1-1.014V23a6,6,0,0,0-12,0v.022a5.032,5.032,0,0,0-1,1.014,5.032,5.032,0,0,0-1-1.014V23a6,6,0,0,0-12,0v.022A4.985,4.985,0,0,0,15,32h2v3H2a1,1,0,0,0-.991,1.133A31.259,31.259,0,0,0,32,63Zm0-2a29.337,29.337,0,0,1-6.189-.663l2.742-3.427L33.2,55.98A1,1,0,0,0,33.98,54.8L33.119,50.5,36.938,48.2,40.4,50.8a1,1,0,0,0,.4.181l5,1a.98.98,0,0,0,.439-.01l4-1A1,1,0,0,0,50.98,49.8l-.9-4.475,2.185-2.185,2.414.8a1,1,0,0,0,.633,0l3.9-1.3A29.373,29.373,0,0,1,32,61ZM60.833,37a28.452,28.452,0,0,1-.78,3.261L55,41.946l-2.684-.895a1,1,0,0,0-1.023.242l-3,3a1,1,0,0,0-.273.9l.813,4.065-2.857.714-4.557-.911L37.6,46.2a1,1,0,0,0-1.115-.058l-5,3A1,1,0,0,0,31.02,50.2l.8,4.019-4.02.8a1,1,0,0,0-.584.356l-3.534,4.417a29.429,29.429,0,0,1-7.512-3.423L19.6,53.8A1,1,0,0,0,20,53V50a1,1,0,0,0-.168-.555L18.1,46.852l.714-2.143,3.629-1.814a1,1,0,0,0,.26-.187l2-2A1,1,0,0,0,25,40V37ZM41.543,24.4a1,1,0,0,0,.5-.979l-.024-.188A1.706,1.706,0,0,1,42,23a4,4,0,0,1,8,0,1.706,1.706,0,0,1-.023.23l-.024.188a1,1,0,0,0,.5.979A2.988,2.988,0,0,1,49,30H47V28.535l2.555-1.7-1.109-1.664L47,26.132V24H45v2.132l-1.445-.964-1.109,1.664L45,28.535V30H43a2.988,2.988,0,0,1-1.457-5.6ZM39,29.969A4.981,4.981,0,0,0,43,32h2v3H33V32h2a4.981,4.981,0,0,0,4-2.031ZM27.543,24.4a1,1,0,0,0,.5-.979l-.024-.188A1.706,1.706,0,0,1,28,23a4,4,0,0,1,8,0,1.706,1.706,0,0,1-.023.23l-.024.188a1,1,0,0,0,.5.979A2.988,2.988,0,0,1,35,30H33V28.535l2.555-1.7-1.109-1.664L33,26.132V24H31v2.132l-1.445-.964-1.109,1.664L31,28.535V30H29a2.988,2.988,0,0,1-1.457-5.6ZM25,29.969A4.981,4.981,0,0,0,29,32h2v3H19V32h2a4.981,4.981,0,0,0,4-2.031ZM15,30a2.988,2.988,0,0,1-1.457-5.6,1,1,0,0,0,.5-.979l-.024-.188A1.705,1.705,0,0,1,14,23a4,4,0,0,1,8,0,1.706,1.706,0,0,1-.023.23l-.024.188a1,1,0,0,0,.5.979A2.988,2.988,0,0,1,21,30H19V28.535l2.555-1.7-1.109-1.664L19,26.132V24H17v2.132l-1.445-.964-1.109,1.664L17,28.535V30Zm8,7v2.586l-1.592,1.592-3.855,1.927a1,1,0,0,0-.5.578l-1,3a1,1,0,0,0,.117.871L18,50.3v2.2l-3.557,2.668A28.914,28.914,0,0,1,3.167,37Z"/>
      <path id="Trazado_652438" data-name="Trazado 652438" d="M32,12a4,4,0,1,0-4-4A4,4,0,0,0,32,12Zm0-6a2,2,0,1,1-2,2A2,2,0,0,1,32,6Z"/>
      <rect id="Rectángulo_308971" data-name="Rectángulo 308971" width="2" height="2" transform="translate(31 1)"/>
      <rect id="Rectángulo_308972" data-name="Rectángulo 308972" width="2" height="2" transform="translate(31 13)"/>
      <rect id="Rectángulo_308973" data-name="Rectángulo 308973" width="2" height="2" transform="translate(37 7)"/>
      <rect id="Rectángulo_308974" data-name="Rectángulo 308974" width="2" height="2" transform="translate(25 7)"/>
      <rect id="Rectángulo_308975" data-name="Rectángulo 308975" width="2" height="2" transform="translate(34.829 3.757) rotate(-45)"/>
      <rect id="Rectángulo_308976" data-name="Rectángulo 308976" width="2" height="2" transform="translate(26.343 12.243) rotate(-45)"/>
      <rect id="Rectángulo_308977" data-name="Rectángulo 308977" width="2" height="2" transform="translate(34.829 12.243) rotate(-45)"/>
      <rect id="Rectángulo_308978" data-name="Rectángulo 308978" width="2" height="2" transform="translate(26.343 3.757) rotate(-45)"/>
      <path id="Trazado_652439" data-name="Trazado 652439" d="M55,6a1,1,0,0,1,1,1h2a1,1,0,0,1,2,0h2a2.987,2.987,0,0,0-5-2.22A2.987,2.987,0,0,0,52,7h2A1,1,0,0,1,55,6Z"/>
      <path id="Trazado_652440" data-name="Trazado 652440" d="M50,11a1,1,0,0,1,1,1h2a1,1,0,0,1,2,0h2a2.987,2.987,0,0,0-5-2.22A2.987,2.987,0,0,0,47,12h2A1,1,0,0,1,50,11Z"/>
      <path id="Trazado_652441" data-name="Trazado 652441" d="M5,12h6a2,2,0,0,0,2-2h4a3,3,0,1,0,0-6H10A2,2,0,0,0,8,6H5a3,3,0,0,0,0,6ZM5,8H8a2,2,0,0,0,2-2h7a1,1,0,0,1,0,2H13a2,2,0,0,0-2,2H5A1,1,0,0,1,5,8Z"/>
    </g>
  </g>
</svg>
