<svg xmlns="http://www.w3.org/2000/svg" width="309.867" height="266.681" viewBox="0 0 309.867 266.681">
  <g id="Grupo_981666" data-name="Grupo 981666" transform="translate(-664.374 -5510.202)">
    <g id="Grupo_981666-2" data-name="Grupo 981666" transform="translate(664.374 5739.098)">
      <rect id="Rectángulo_309764" data-name="Rectángulo 309764" width="309.867" height="0.186" fill="#ebebeb"/>
      <rect id="Rectángulo_309765" data-name="Rectángulo 309765" width="24.581" height="0.186" transform="translate(278.705 11.945)" fill="#ebebeb"/>
      <rect id="Rectángulo_309766" data-name="Rectángulo 309766" width="6.452" height="0.186" transform="translate(208.758 13.959)" fill="#ebebeb"/>
      <rect id="Rectángulo_309767" data-name="Rectángulo 309767" width="14.243" height="0.186" transform="translate(263.719 5.054)" fill="#ebebeb"/>
      <rect id="Rectángulo_309768" data-name="Rectángulo 309768" width="32.055" height="0.186" transform="translate(8.332 6.301)" fill="#ebebeb"/>
      <rect id="Rectángulo_309769" data-name="Rectángulo 309769" width="4.7" height="0.186" transform="translate(46.995 6.301)" fill="#ebebeb"/>
      <rect id="Rectángulo_309770" data-name="Rectángulo 309770" width="69.52" height="0.186" transform="translate(66.97 9.434)" fill="#ebebeb"/>
    </g>
    <g id="Grupo_981676" data-name="Grupo 981676" transform="translate(670.278 5510.202)">
      <g id="Grupo_981667" data-name="Grupo 981667" transform="translate(7.165 213.998)">
        <path id="Trazado_654879" data-name="Trazado 654879" d="M935.821,5807.811a26.351,26.351,0,0,0-6.243,8.467,42.4,42.4,0,0,0-9.535-17.72,51.414,51.414,0,0,1,5.141,19.232c-1.46-4.407-4.548-5.663-4.548-5.663,2.284,4.39,1.452,10.244,1.452,10.244h10.538A31.339,31.339,0,0,1,935.821,5807.811Z" transform="translate(-743.372 -5798.558)" fill="#f0f0f0"/>
        <path id="Trazado_654880" data-name="Trazado 654880" d="M1056.487,5828.105a38.913,38.913,0,0,1,3.892-14.559,32.1,32.1,0,0,0-7.22,13.422,20.015,20.015,0,0,0-4.724-6.417,23.715,23.715,0,0,1,2.419,11.021h7.976s-.631-4.43,1.1-7.753A6.9,6.9,0,0,0,1056.487,5828.105Z" transform="translate(-776.481 -5802.422)" fill="#f0f0f0"/>
        <path id="Trazado_654881" data-name="Trazado 654881" d="M685.664,5824.647a36.779,36.779,0,0,0-3.68-13.763,30.337,30.337,0,0,1,6.825,12.689,18.923,18.923,0,0,1,4.466-6.066,22.427,22.427,0,0,0-2.287,10.419h-7.541s.6-4.189-1.039-7.331A6.521,6.521,0,0,1,685.664,5824.647Z" transform="translate(-681.984 -5801.737)" fill="#f0f0f0"/>
      </g>
      <g id="Grupo_981675" data-name="Grupo 981675" transform="translate(0 0)">
        <g id="Grupo_981672" data-name="Grupo 981672" transform="translate(0 43.553)">
          <g id="Grupo_981668" data-name="Grupo 981668" transform="translate(20.544 47.289)">
            <path id="Trazado_654882" data-name="Trazado 654882" d="M861.791,5737.166c-5.789-30.7-11.977-76.643-31-77.619-28.864-1.479-25.1,45.292-41.136,44.351s-17.148-71.7-47.637-71.285c-28.6.383-40.629,93.059-42.011,104.553Z" transform="translate(-700.011 -5632.61)" fill="#e0e0e0"/>
          </g>
          <g id="Grupo_981671" data-name="Grupo 981671" transform="translate(0 103.853)">
            <g id="Grupo_981669" data-name="Grupo 981669" transform="translate(158.262)">
              <rect id="Rectángulo_309771" data-name="Rectángulo 309771" width="12.659" height="139.502" transform="translate(139.502 7.338) rotate(90)" fill="#e0e0e0" style="mix-blend-mode: multiply;isolation: isolate"/>
              <rect id="Rectángulo_309772" data-name="Rectángulo 309772" width="12.659" height="63.622" transform="translate(11.73)" fill="#f0f0f0"/>
              <rect id="Rectángulo_309773" data-name="Rectángulo 309773" width="12.659" height="63.622" transform="translate(37.914)" fill="#f0f0f0"/>
              <rect id="Rectángulo_309774" data-name="Rectángulo 309774" width="12.659" height="63.622" transform="translate(64.098)" fill="#f0f0f0"/>
              <rect id="Rectángulo_309775" data-name="Rectángulo 309775" width="12.659" height="63.622" transform="translate(90.282)" fill="#f0f0f0"/>
              <rect id="Rectángulo_309776" data-name="Rectángulo 309776" width="12.659" height="63.622" transform="translate(116.466)" fill="#f0f0f0"/>
              <path id="Trazado_654883" data-name="Trazado 654883" d="M911.029,5726.135a1.705,1.705,0,1,0-1.7,1.7A1.705,1.705,0,0,0,911.029,5726.135Z" transform="translate(-891.265 -5712.852)" fill="#fafafa"/>
              <path id="Trazado_654884" data-name="Trazado 654884" d="M946.311,5726.135a1.7,1.7,0,1,0-1.7,1.7A1.7,1.7,0,0,0,946.311,5726.135Z" transform="translate(-900.363 -5712.852)" fill="#fafafa"/>
              <path id="Trazado_654885" data-name="Trazado 654885" d="M981.594,5726.135a1.705,1.705,0,1,0-1.705,1.7A1.705,1.705,0,0,0,981.594,5726.135Z" transform="translate(-909.461 -5712.852)" fill="#fafafa"/>
              <path id="Trazado_654886" data-name="Trazado 654886" d="M1016.876,5726.135a1.7,1.7,0,1,0-1.7,1.7A1.705,1.705,0,0,0,1016.876,5726.135Z" transform="translate(-918.56 -5712.852)" fill="#fafafa"/>
              <path id="Trazado_654887" data-name="Trazado 654887" d="M1052.158,5726.135a1.7,1.7,0,1,0-1.7,1.7A1.7,1.7,0,0,0,1052.158,5726.135Z" transform="translate(-927.658 -5712.852)" fill="#fafafa"/>
            </g>
            <g id="Grupo_981670" data-name="Grupo 981670">
              <rect id="Rectángulo_309777" data-name="Rectángulo 309777" width="12.659" height="87.333" transform="translate(87.333 7.338) rotate(90)" fill="#e0e0e0"/>
              <rect id="Rectángulo_309778" data-name="Rectángulo 309778" width="12.659" height="139.502" transform="translate(297.764 7.338) rotate(90)" fill="#e0e0e0" opacity="0.3" style="mix-blend-mode: multiply;isolation: isolate"/>
              <rect id="Rectángulo_309779" data-name="Rectángulo 309779" width="12.659" height="87.333" transform="translate(87.333 7.338) rotate(90)" fill="#e0e0e0" opacity="0.3" style="mix-blend-mode: multiply;isolation: isolate"/>
              <rect id="Rectángulo_309780" data-name="Rectángulo 309780" width="12.659" height="63.622" transform="translate(11.729)" fill="#f0f0f0"/>
              <rect id="Rectángulo_309781" data-name="Rectángulo 309781" width="12.659" height="63.622" transform="translate(37.913)" fill="#f0f0f0"/>
              <rect id="Rectángulo_309782" data-name="Rectángulo 309782" width="12.659" height="63.622" transform="translate(64.098)" fill="#f0f0f0"/>
              <path id="Trazado_654888" data-name="Trazado 654888" d="M697.775,5726.135a1.705,1.705,0,1,0-1.7,1.7A1.705,1.705,0,0,0,697.775,5726.135Z" transform="translate(-678.011 -5712.852)" fill="#fafafa"/>
              <path id="Trazado_654889" data-name="Trazado 654889" d="M733.057,5726.135a1.7,1.7,0,1,0-1.7,1.7A1.7,1.7,0,0,0,733.057,5726.135Z" transform="translate(-687.11 -5712.852)" fill="#fafafa"/>
              <path id="Trazado_654890" data-name="Trazado 654890" d="M768.34,5726.135a1.705,1.705,0,1,0-1.705,1.7A1.705,1.705,0,0,0,768.34,5726.135Z" transform="translate(-696.208 -5712.852)" fill="#fafafa"/>
            </g>
          </g>
          <path id="Trazado_654891" data-name="Trazado 654891" d="M1040.814,5587.94a11.161,11.161,0,0,0-12.9-12.825,12.806,12.806,0,0,0-23.317,3.121,8.315,8.315,0,0,0-10.6,9.7Z" transform="translate(-755.228 -5568.889)" fill="#f0f0f0"/>
        </g>
        <g id="Grupo_981674" data-name="Grupo 981674" transform="translate(13.316)">
          <g id="Grupo_981673" data-name="Grupo 981673" transform="translate(26.193)">
            <circle id="Elipse_7936" data-name="Elipse 7936" cx="28.229" cy="28.229" r="28.229" transform="translate(0 55.44) rotate(-79.099)" fill="#f0f0f0"/>
            <circle id="Elipse_7937" data-name="Elipse 7937" cx="28.229" cy="28.229" r="28.229" transform="translate(0 55.44) rotate(-79.099)" opacity="0.1" style="isolation: isolate"/>
          </g>
          <path id="Trazado_654892" data-name="Trazado 654892" d="M738.651,5545.7a11.486,11.486,0,0,0-13.272-13.2,13.18,13.18,0,0,0-24,3.212,8.556,8.556,0,0,0-10.914,9.987Z" transform="translate(-690.272 -5514.299)" fill="#f0f0f0"/>
          <path id="Trazado_654893" data-name="Trazado 654893" d="M790.872,5568.749a6.381,6.381,0,0,1,7.375-7.334,7.324,7.324,0,0,1,13.335,1.784,4.754,4.754,0,0,1,6.064,5.55Z" transform="translate(-716.191 -5522.49)" fill="#f0f0f0"/>
          <path id="Trazado_654894" data-name="Trazado 654894" d="M718.572,5600.979c-3.652-1.367-10.613-2.842-13.941,3.962a14.994,14.994,0,0,1,10.234-2.272,3.414,3.414,0,0,0-.217,2.934l3.96-2.184.056-.034c8.586-2.541,13.85,1.556,13.85,1.556C729.184,5598.137,722.225,5599.611,718.572,5600.979Z" transform="translate(-693.975 -5533.312)" fill="#f0f0f0"/>
        </g>
      </g>
    </g>
    <ellipse id="_Path_" data-name="&lt;Path&gt;" cx="143.891" cy="8.403" rx="143.891" ry="8.403" transform="translate(675.417 5760.076)" fill="#f5f5f5"/>
    <g id="Grupo_981687" data-name="Grupo 981687" transform="translate(849.76 5531.197)">
      <ellipse id="Elipse_7938" data-name="Elipse 7938" cx="18.876" cy="4.868" rx="18.876" ry="4.868" transform="translate(38.869 9.041) rotate(-5.863)" fill="#449c6e"/>
      <path id="Trazado_654895" data-name="Trazado 654895" d="M1004.06,5549.054c.071.007,1.759.09,1.51.575s-1.691.354-1.691.354Z" transform="translate(-937.308 -5541.215)" opacity="0.35" style="isolation: isolate"/>
      <path id="Trazado_654896" data-name="Trazado 654896" d="M978.869,5551.573s-1.425.247-1.121,1.11c.289.82,3.3.439,3.3.439l-.733-1.146Z" transform="translate(-930.559 -5541.865)" opacity="0.35" style="isolation: isolate"/>
      <path id="Trazado_654897" data-name="Trazado 654897" d="M943.038,5637.418l-10.592-10.128a5.443,5.443,0,0,0-1.315-3.52c-1.383-1.5-7.547-3.589-7.95-3.1s-.974,6.446-.282,7.021,6.914,3.119,6.914,3.119l8.261,10.821Z" transform="translate(-916.342 -5559.665)" fill="#fd897b"/>
      <g id="Grupo_981677" data-name="Grupo 981677" transform="translate(14.155 36.352)">
        <path id="Trazado_654898" data-name="Trazado 654898" d="M965.758,5587.476l-4.082,2.325c-4.561,8.021-14.727,25.739-17.839,31.161a1.6,1.6,0,0,1-2.38.451l-2.532-2.011-5.675,7.848s8.426,8.778,11.3,7.9c5.52-1.678,19.919-26.041,19.919-26.041Z" transform="translate(-933.25 -5587.476)" fill="#449c6e"/>
        <path id="Trazado_654899" data-name="Trazado 654899" d="M965.577,5606.021s-5.2,16.989-5.02,25.066c2.914-4.105,5.809-8.672,7.891-12.069Z" transform="translate(-940.29 -5592.258)" fill="#449c6e" opacity="0.4" style="isolation: isolate"/>
      </g>
      <path id="Trazado_654900" data-name="Trazado 654900" d="M968.864,5833.885l-6.193.654-3.407-31.744,9.6-.979Z" transform="translate(-925.803 -5606.395)" fill="#fd897b"/>
      <path id="Trazado_654901" data-name="Trazado 654901" d="M959.643,5806.326c2.36-.091,6.33-.288,9.221-.435v-4.075l-9.6.979Z" transform="translate(-925.803 -5606.395)" fill="#263238" opacity="0.2" style="isolation: isolate"/>
      <path id="Trazado_654902" data-name="Trazado 654902" d="M1010.154,5832.007h-6l-4.593-34.541,9.338-1.181Z" transform="translate(-936.194 -5604.968)" fill="#fd897b"/>
      <path id="Trazado_654903" data-name="Trazado 654903" d="M999.949,5799.633l.6,4.478,8.7-.848-.245-6.978-8.635,1.092Z" transform="translate(-936.295 -5604.968)" fill="#263238" opacity="0.2" style="isolation: isolate"/>
      <path id="Trazado_654904" data-name="Trazado 654904" d="M1003.6,5589.905a134.484,134.484,0,0,0-3.817,19.748c-.252,2.046-.458,4.054-.626,6-.221,2.473-.374,4.854-.5,7.114-.153,2.863-.2,6.244-.192,9.572.016,7.648.321,15,.321,15-6.106,1.528-23.755.512-33.4-.191a153.4,153.4,0,0,1-.885-27.792,158.741,158.741,0,0,1,2.022-18.266,78.458,78.458,0,0,1,2.153-9.557,6.1,6.1,0,0,1,5.068-4.207c1.168-.145,2.52-.29,3.939-.375.549,0,1.1-.053,1.656-.061a117.791,117.791,0,0,1,13.617.947c.855.1,1.725.229,2.565.366A78.157,78.157,0,0,1,1003.6,5589.905Z" transform="translate(-927.088 -5550.973)" fill="#449c6e"/>
      <path id="Trazado_654905" data-name="Trazado 654905" d="M979.318,5551.024s-1.377,7.293,3.012,10.475,4.389-12.213,4.389-12.213Z" transform="translate(-930.922 -5541.275)" fill="#f5f5f5"/>
      <path id="Trazado_654906" data-name="Trazado 654906" d="M979.318,5551.024s-1.377,7.293,3.012,10.475,4.389-12.213,4.389-12.213Z" transform="translate(-930.922 -5541.275)" fill="#263238"/>
      <path id="Trazado_654907" data-name="Trazado 654907" d="M998.176,5582.753c-2.924,2.656-10.086,1.674-10.086,1.674s-4.471-1.223-3.532-2.621c2.634-.435,3.908-1.664,4.435-3.235a7.669,7.669,0,0,0,.267-3.008,16.07,16.07,0,0,0-.221-1.679l8.854-6.557C996.733,5571.655,995.313,5579.617,998.176,5582.753Z" transform="translate(-932.292 -5545.928)" fill="#fd897b"/>
      <path id="Trazado_654908" data-name="Trazado 654908" d="M997.434,5572.942c-.352,5.313-4.718,6.778-6.855,7.077a7.67,7.67,0,0,0,.267-3.008Z" transform="translate(-933.878 -5547.375)" opacity="0.2" style="isolation: isolate"/>
      <path id="Trazado_654909" data-name="Trazado 654909" d="M995.269,5567.571a7.508,7.508,0,0,1-8.618,2.908,8.486,8.486,0,0,1-5.167-4.679c-2.16-5.054-2.848-13.893,2.5-17.206a8.138,8.138,0,0,1,12.427,6.129C997.063,5560.632,997.727,5564.075,995.269,5567.571Z" transform="translate(-931.118 -5540.775)" fill="#fd897b"/>
      <path id="Trazado_654910" data-name="Trazado 654910" d="M988.8,5549.89a1.879,1.879,0,0,1,2.777,2.193c-.572,2.29.769,9.975,3.329,6.712,0,0-.063-.954.764-.827s1.208,5.088-.064,7.634c0,0,2.1-2.417,2.8-7.761s.254-9.6-1.209-11.069-1.845.064-2.926-1.972-9.891-2.195-14.587,3.1C978.817,5548.872,978.346,5555.114,988.8,5549.89Z" transform="translate(-930.962 -5539.78)" fill="#263238"/>
      <path id="Trazado_654911" data-name="Trazado 654911" d="M990.145,5561.273c.114.466-.1.9-.419.958s-.629-.295-.714-.769.109-.907.419-.959S990.058,5560.79,990.145,5561.273Z" transform="translate(-933.469 -5544.167)" fill="#263238"/>
      <path id="Trazado_654912" data-name="Trazado 654912" d="M982.878,5562.513c.114.468-.109.907-.419.959s-.629-.295-.714-.769.109-.907.418-.958S982.8,5562.061,982.878,5562.513Z" transform="translate(-931.595 -5544.487)" fill="#263238"/>
      <path id="Trazado_654913" data-name="Trazado 654913" d="M984.86,5561.74a17.245,17.245,0,0,1-1.582,4.471,3.208,3.208,0,0,0,2.489.426Z" transform="translate(-931.995 -5544.487)" fill="#fd5652"/>
      <path id="Trazado_654914" data-name="Trazado 654914" d="M1000.91,5547.572c-1.073-1.073-1.565-.542-2.177-.983l-5.043,1.508c.053,0,5.578-.178,8.6,3.3A6.729,6.729,0,0,0,1000.91,5547.572Z" transform="translate(-934.68 -5540.58)" opacity="0.35" style="isolation: isolate"/>
      <path id="Trazado_654915" data-name="Trazado 654915" d="M1004.739,5561.989a5.654,5.654,0,0,1-2.714,3.364c-1.746.938-3.052-.521-2.934-2.4.121-1.667,1.157-4.215,3.092-4.362A2.524,2.524,0,0,1,1004.739,5561.989Z" transform="translate(-936.071 -5543.672)" fill="#fd897b"/>
      <path id="Trazado_654916" data-name="Trazado 654916" d="M933.091,5592.493l-6.57-.731-1.058-4.782,9.711,1.081Z" transform="translate(-917.087 -5550.996)"/>
      <g id="Grupo_981678" data-name="Grupo 981678" transform="translate(0 32.186)">
        <path id="Trazado_654917" data-name="Trazado 654917" d="M915.38,5693.413l-.072-.007a1.273,1.273,0,0,1-1.124-1.405l12.26-110.139,2.6.29L916.785,5692.29A1.273,1.273,0,0,1,915.38,5693.413Z" transform="translate(-914.176 -5581.862)" fill="#263238"/>
      </g>
      <path id="Trazado_654918" data-name="Trazado 654918" d="M946.721,5555.2a34.712,34.712,0,0,0-4.427,10.536l-1.691,7.151a2.87,2.87,0,0,1-3.009,2.255l-.031,0-5.731-.639c-2.722-.3-2.31-2.516-2.31-2.516h0l4.6-19.237-.753,1.193a34.705,34.705,0,0,0-4.427,10.537l-1.809,7.648c-.215.627-.919,1.75-3.205,1.5l-3.622-.4-.079-.01a2.1,2.1,0,0,1-1.726-2.59l4.617-19.323-.753,1.193a34.681,34.681,0,0,0-4.427,10.536l-2.239,9.465-.024.14a7.361,7.361,0,0,0,6.494,8.121l12.02,1.338a7.361,7.361,0,0,0,8.113-6.421L947.474,5554Z" transform="translate(-914.55 -5541.792)" fill="#449c6e"/>
      <path id="Trazado_654919" data-name="Trazado 654919" d="M986.4,5764.473l13.029-1.6c-.636-11.361-1.339-23.925-1.8-32.287-1.135-20.361-1.625-65-1.668-69.184H964.105c-2.592,14.154-9.908,59.064-7.7,104.406l12.937-.769c.513-22.539,2.318-56.347,8.359-72.587,1.095,13.694,2.395,28.266,3.524,36.02C982.557,5737.63,984.615,5752,986.4,5764.473Z" transform="translate(-924.96 -5570.186)" fill="#449c6e"/>
      <path id="Trazado_654920" data-name="Trazado 654920" d="M986.395,5745.328l13.029-1.6c-.636-11.36-1.339-23.925-1.8-32.286-.943-16.913-1.44-50.573-1.607-63.888.226-.045.442-.093.644-.144,0,0-.305-7.35-.321-15-.007-3.329.039-6.709.192-9.572.122-2.259.275-4.641.5-7.114.168-1.946.374-3.954.626-6a134.5,134.5,0,0,1,3.817-19.748,78.279,78.279,0,0,0-7.866-1.669c-4.816,5.407-7.383,19.624-7.383,19.624-4.56.067-17.361-1.34-17.361-1.34,1.1-14.041,4.183-18.513,4.959-19.433-.777.072-1.519.154-2.2.238a6.1,6.1,0,0,0-5.068,4.207,78.449,78.449,0,0,0-2.153,9.557,158.725,158.725,0,0,0-2.022,18.266,153.489,153.489,0,0,0,.871,27.671c-3.042,17.847-8.846,58.529-6.845,99.566l12.938-.769c.513-22.539,2.318-56.347,8.359-72.587,1.095,13.695,2.395,28.267,3.524,36.02C982.557,5718.484,984.615,5732.857,986.395,5745.328Z" transform="translate(-924.96 -5551.041)" opacity="0.3" style="isolation: isolate"/>
      <path id="Trazado_654921" data-name="Trazado 654921" d="M1009.705,5731.216c-.248-6.947-.454-14.889-.62-22.642l-4.377-2.5S1005.6,5727.4,1009.705,5731.216Z" transform="translate(-937.522 -5581.705)" opacity="0.35" style="isolation: isolate"/>
      <path id="Trazado_654922" data-name="Trazado 654922" d="M1033.652,5797.774" transform="translate(-944.986 -5605.353)"/>
      <path id="Trazado_654923" data-name="Trazado 654923" d="M955.985,5803.464l14.466-1.056-.141-3.995-15.029.839Z" transform="translate(-924.776 -5605.517)" fill="#449c6e"/>
      <path id="Trazado_654924" data-name="Trazado 654924" d="M996.254,5801.512l14.207-.924-.246-4.3-14.45,1.1Z" transform="translate(-935.216 -5604.968)" fill="#449c6e"/>
      <g id="Grupo_981679" data-name="Grupo 981679" transform="translate(22.854 204.386)">
        <path id="Trazado_654925" data-name="Trazado 654925" d="M969.914,5841.344l-2-6.479-.121-19.451-13.265.817,2.5,19.485c-1.694,1.79-5.852,3.867-11.463,5.579-1.25.387-.593,3.426,2.518,3.172s9.888-1.046,12.141-1.23c3.658-.3,5.794-.293,8.71-.484a1.1,1.1,0,0,0,.977-1.409Z" transform="translate(-944.971 -5814.288)" fill="#263238"/>
        <path id="Trazado_654926" data-name="Trazado 654926" d="M956,5815.022l15.53-1.126v5.135l-14.917.672Z" transform="translate(-947.815 -5813.896)" fill="#263238"/>
      </g>
      <g id="Grupo_981680" data-name="Grupo 981680" transform="translate(53.772 204.949)">
        <path id="Trazado_654927" data-name="Trazado 654927" d="M1011.575,5842.1l-2-6.479-.121-19.451-13.266.817,2.5,19.486c-1.7,1.789-5.852,3.867-11.464,5.578-1.25.387-.593,3.427,2.518,3.173s9.889-1.046,12.142-1.23c3.657-.3,5.793-.293,8.71-.485a1.076,1.076,0,0,0,.239-.043A1.1,1.1,0,0,0,1011.575,5842.1Z" transform="translate(-986.632 -5815.046)" fill="#263238"/>
        <path id="Trazado_654928" data-name="Trazado 654928" d="M997.658,5815.781l15.53-1.126v5.135l-14.917.673Z" transform="translate(-989.475 -5814.655)" fill="#263238"/>
      </g>
      <g id="Grupo_981681" data-name="Grupo 981681" transform="translate(43.502 62.649)">
        <path id="Trazado_654929" data-name="Trazado 654929" d="M972.794,5622.91l2.353.617a37.056,37.056,0,0,0,11.06,1.171l3.1-.14-2.088,9.134a3.984,3.984,0,0,1-4.273,3.172l-6.542-.61a3.983,3.983,0,0,1-3.614-3.966Z" transform="translate(-972.794 -5622.91)" fill="#449c6e"/>
        <path id="Trazado_654930" data-name="Trazado 654930" d="M972.794,5622.91l2.353.617a37.056,37.056,0,0,0,11.06,1.171l3.1-.14-2.088,9.134a3.984,3.984,0,0,1-4.273,3.172l-6.542-.61a3.983,3.983,0,0,1-3.614-3.966Z" transform="translate(-972.794 -5622.91)" fill="#449c6e" opacity="0.2" style="isolation: isolate"/>
      </g>
      <g id="Grupo_981683" data-name="Grupo 981683" transform="translate(67.186 111.503)">
        <g id="Grupo_981682" data-name="Grupo 981682" transform="translate(1.683)">
          <path id="Trazado_654931" data-name="Trazado 654931" d="M1024.4,5707.911l-1.362-.312a20.608,20.608,0,0,0,.51-4.61c0-7.086-3.4-12.852-7.59-12.852s-7.59,5.766-7.59,12.852h-1.4c0-7.857,4.032-14.249,8.987-14.249s8.986,6.392,8.986,14.249A22.033,22.033,0,0,1,1024.4,5707.911Z" transform="translate(-1006.976 -5688.739)" fill="#263238"/>
        </g>
        <path id="Trazado_654932" data-name="Trazado 654932" d="M1004.708,5706.07l3.975,20.813c0,.892,3.289,1.616,7.346,1.616s7.346-.724,7.346-1.616l3.975-20.813Z" transform="translate(-1004.708 -5693.208)" fill="#ebebeb"/>
        <path id="Trazado_654933" data-name="Trazado 654933" d="M1004.708,5706.07l3.975,20.813c0,.892,3.289,1.616,7.346,1.616s7.346-.724,7.346-1.616l3.975-20.813Z" transform="translate(-1004.708 -5693.208)" opacity="0.3" style="isolation: isolate"/>
        <ellipse id="Elipse_7939" data-name="Elipse 7939" cx="11.321" cy="2.489" rx="11.321" ry="2.489" transform="translate(0 10.373)" fill="#007cff"/>
        <ellipse id="Elipse_7940" data-name="Elipse 7940" cx="11.321" cy="2.489" rx="11.321" ry="2.489" transform="translate(0 10.373)" opacity="0.6" style="isolation: isolate"/>
        <ellipse id="Elipse_7941" data-name="Elipse 7941" cx="9.403" cy="1.103" rx="9.403" ry="1.103" transform="translate(1.918 13.146)" opacity="0.35" style="isolation: isolate"/>
        <circle id="Elipse_7942" data-name="Elipse 7942" cx="1.777" cy="1.777" r="1.777" transform="translate(16.622 16.886)" fill="#f5f5f5"/>
        <path id="Trazado_654934" data-name="Trazado 654934" d="M1027.684,5708.84a8.934,8.934,0,0,1,.84,3.186l.81-.21.46-3.034-.034-.286C1029.133,5708.627,1028.436,5708.743,1027.684,5708.84Z" transform="translate(-1010.633 -5693.833)" opacity="0.4" style="isolation: isolate"/>
        <path id="Trazado_654935" data-name="Trazado 654935" d="M1019.963,5688.809v1.4c3.881.563,6.939,6.083,6.939,12.8a20.878,20.878,0,0,1-.369,3.944.7.7,0,0,0,.524.818h0a.7.7,0,0,0,.844-.538,22.292,22.292,0,0,0,.4-4.225C1028.3,5695.5,1024.615,5689.342,1019.963,5688.809Z" transform="translate(-1008.642 -5688.756)" fill="#263238"/>
      </g>
      <path id="Trazado_654936" data-name="Trazado 654936" d="M1013.438,5665.423l.793,13.7a5.1,5.1,0,0,0-1.345,3.251c-.013,1.913,2.881,7.277,3.467,7.2s4.781-3.8,4.675-4.633-2.748-6.551-2.748-6.551l1.247-12.689Z" transform="translate(-939.631 -5571.224)" fill="#fd897b"/>
      <path id="Trazado_654937" data-name="Trazado 654937" d="M983.955,5699.3a85.208,85.208,0,0,0-3.557,13.778c-.891-12.186,2.672-25.111,2.672-25.111Z" transform="translate(-931.216 -5577.038)" opacity="0.2" style="isolation: isolate"/>
      <path id="Trazado_654938" data-name="Trazado 654938" d="M987.423,5569.908a2.4,2.4,0,0,0-2.658.458.55.55,0,0,0-.09-.059,2.411,2.411,0,0,0-2.647.762c-1.391,1.5-1.842.692-1.842.692s.937,2.522,3.482.918c.209-.132.395-.255.557-.377a1.952,1.952,0,0,1,1.619-.311,4,4,0,0,0,.834.09,3.364,3.364,0,0,0,3.075-2.376S989.34,5570.63,987.423,5569.908Z" transform="translate(-931.198 -5546.541)" fill="#263238"/>
      <path id="Trazado_654939" data-name="Trazado 654939" d="M987.75,5546.477a47.1,47.1,0,0,1,10.512-.019c-.907-5.033-4.581-7.966-9.875-7.966-5.95,0-11.482,3.933-11.482,9.882,0,.138.011.271.02.406A45.685,45.685,0,0,1,987.75,5546.477Z" transform="translate(-930.352 -5538.492)" fill="#449c6e"/>
      <path id="Trazado_654940" data-name="Trazado 654940" d="M1005.683,5549.226" transform="translate(-937.773 -5541.26)"/>
      <path id="Trazado_654941" data-name="Trazado 654941" d="M993.224,5553.012c-.134.1-9.884,2.933-12.295.5s8.151-2.709,8.151-2.709l3.141.234Z" transform="translate(-931.298 -5541.667)" fill="#263238"/>
      <g id="Grupo_981684" data-name="Grupo 981684" transform="translate(68.899 38.932)">
        <path id="Trazado_654942" data-name="Trazado 654942" d="M1014.626,5590.953s5.475-.708,5.281,35.924c-.131,24.551.641,24.425.641,24.425l-11.367.557S1001.67,5591.037,1014.626,5590.953Z" transform="translate(-1007.016 -5590.952)" fill="#449c6e"/>
      </g>
      <path id="Trazado_654943" data-name="Trazado 654943" d="M1007.732,5668.269l14.062-.147.1,3.636-13.947.385Z" transform="translate(-938.301 -5571.92)" fill="#449c6e"/>
      <path id="Trazado_654944" data-name="Trazado 654944" d="M1007.732,5668.269l14.062-.147.1,3.636-13.947.385Z" transform="translate(-938.301 -5571.92)" fill="#fafafa" opacity="0.5" style="isolation: isolate"/>
      <path id="Trazado_654945" data-name="Trazado 654945" d="M937.667,5627.92l2.395,1.858-7.308,9.58-2.216-2Z" transform="translate(-918.395 -5561.553)" fill="#449c6e"/>
      <path id="Trazado_654946" data-name="Trazado 654946" d="M937.667,5627.92l2.395,1.858-7.308,9.58-2.216-2Z" transform="translate(-918.395 -5561.553)" fill="#fafafa" opacity="0.5" style="isolation: isolate"/>
      <g id="Grupo_981685" data-name="Grupo 981685" transform="translate(54.683 13.857)">
        <path id="Trazado_654947" data-name="Trazado 654947" d="M988.1,5558.459a.251.251,0,0,1-.07-.011.24.24,0,0,1-.161-.3,1.5,1.5,0,0,1,1.295-.965,1.609,1.609,0,0,1,1.647.632.241.241,0,1,1-.412.25,1.155,1.155,0,0,0-1.17-.4,1.027,1.027,0,0,0-.9.625A.245.245,0,0,1,988.1,5558.459Z" transform="translate(-987.86 -5557.164)" fill="#263238"/>
      </g>
      <g id="Grupo_981686" data-name="Grupo 981686" transform="translate(48.364 14.67)">
        <path id="Trazado_654948" data-name="Trazado 654948" d="M979.587,5559.554a.292.292,0,0,1-.068-.009.243.243,0,0,1-.164-.3,1.5,1.5,0,0,1,1.295-.964,1.614,1.614,0,0,1,1.648.632.241.241,0,0,1-.412.25,1.155,1.155,0,0,0-1.171-.4,1.02,1.02,0,0,0-.9.622A.241.241,0,0,1,979.587,5559.554Z" transform="translate(-979.346 -5558.26)" fill="#263238"/>
      </g>
      <path id="Trazado_654949" data-name="Trazado 654949" d="M946.721,5555.2a34.712,34.712,0,0,0-4.427,10.536l-1.691,7.151a2.87,2.87,0,0,1-3.009,2.255l-.031,0-5.731-.639c-2.722-.3-2.31-2.516-2.31-2.516h0l4.6-19.237-.753,1.193a34.705,34.705,0,0,0-4.427,10.537l-1.809,7.648c-.215.627-.919,1.75-3.205,1.5l-3.622-.4-.079-.01a2.1,2.1,0,0,1-1.726-2.59l4.617-19.323-.753,1.193a34.681,34.681,0,0,0-4.427,10.536l-2.239,9.465-.024.14a7.361,7.361,0,0,0,6.494,8.121l12.02,1.338a7.361,7.361,0,0,0,8.113-6.421L947.474,5554Z" transform="translate(-914.55 -5541.792)" fill="#fff" opacity="0.5" style="isolation: isolate"/>
    </g>
    <g id="Grupo_981708" data-name="Grupo 981708" transform="translate(685.176 5657.369)">
      <path id="Trazado_654950" data-name="Trazado 654950" d="M737.612,5732.574c0,5.7-8.275,15.872-13.978,15.872s-6.675-10.168-6.675-15.872a10.326,10.326,0,0,1,20.653,0Z" transform="translate(-698.735 -5712.049)" fill="#449c6e"/>
      <path id="Trazado_654951" data-name="Trazado 654951" d="M737.612,5732.574c0,5.7-8.275,15.872-13.978,15.872s-6.675-10.168-6.675-15.872a10.326,10.326,0,0,1,20.653,0Z" transform="translate(-698.735 -5712.049)" fill="#bababa" opacity="0.4" style="isolation: isolate"/>
      <g id="Grupo_981688" data-name="Grupo 981688" transform="translate(30.94 7.775)">
        <path id="Trazado_654952" data-name="Trazado 654952" d="M736.9,5719.629a2.736,2.736,0,1,0,4.888-.138A5.471,5.471,0,0,0,736.9,5719.629Z" transform="translate(-734.094 -5718.981)" fill="#449c6e"/>
        <path id="Trazado_654953" data-name="Trazado 654953" d="M736.9,5719.629a2.736,2.736,0,1,0,4.888-.138A5.471,5.471,0,0,0,736.9,5719.629Z" transform="translate(-734.094 -5718.981)" fill="#449c6e" opacity="0.2" style="isolation: isolate"/>
      </g>
      <g id="Grupo_981689" data-name="Grupo 981689" transform="translate(27.909 8.113)">
        <path id="Trazado_654954" data-name="Trazado 654954" d="M730.55,5722.313a1.621,1.621,0,1,0-.355-2.876A3.242,3.242,0,0,0,730.55,5722.313Z" transform="translate(-730.01 -5719.437)" fill="#449c6e"/>
        <path id="Trazado_654955" data-name="Trazado 654955" d="M730.55,5722.313a1.621,1.621,0,1,0-.355-2.876A3.242,3.242,0,0,0,730.55,5722.313Z" transform="translate(-730.01 -5719.437)" fill="#449c6e" opacity="0.2" style="isolation: isolate"/>
      </g>
      <path id="Trazado_654956" data-name="Trazado 654956" d="M791.7,5728.486c1.856,5.393-2.659,17.7-8.051,19.557s-9.62-7.443-11.477-12.835a10.326,10.326,0,0,1,19.528-6.722Z" transform="translate(-712.828 -5711.861)" fill="#449c6e"/>
      <path id="Trazado_654957" data-name="Trazado 654957" d="M791.7,5728.486c1.856,5.393-2.659,17.7-8.051,19.557s-9.62-7.443-11.477-12.835a10.326,10.326,0,0,1,19.528-6.722Z" transform="translate(-712.828 -5711.861)" fill="#bababa" opacity="0.4" style="isolation: isolate"/>
      <g id="Grupo_981690" data-name="Grupo 981690" transform="translate(68.645 5.103)">
        <path id="Trazado_654958" data-name="Trazado 654958" d="M786.341,5717.131a2.736,2.736,0,1,0,4.577-1.722A5.47,5.47,0,0,0,786.341,5717.131Z" transform="translate(-784.901 -5715.382)" fill="#449c6e"/>
        <path id="Trazado_654959" data-name="Trazado 654959" d="M786.341,5717.131a2.736,2.736,0,1,0,4.577-1.722A5.47,5.47,0,0,0,786.341,5717.131Z" transform="translate(-784.901 -5715.382)" fill="#449c6e" opacity="0.2" style="isolation: isolate"/>
      </g>
      <g id="Grupo_981691" data-name="Grupo 981691" transform="translate(64.638 8.276)">
        <path id="Trazado_654960" data-name="Trazado 654960" d="M780.774,5722.382a1.621,1.621,0,1,0-1.273-2.6A3.241,3.241,0,0,0,780.774,5722.382Z" transform="translate(-779.501 -5719.656)" fill="#449c6e"/>
        <path id="Trazado_654961" data-name="Trazado 654961" d="M780.774,5722.382a1.621,1.621,0,1,0-1.273-2.6A3.241,3.241,0,0,0,780.774,5722.382Z" transform="translate(-779.501 -5719.656)" fill="#449c6e" opacity="0.2" style="isolation: isolate"/>
      </g>
      <path id="Trazado_654962" data-name="Trazado 654962" d="M744.267,5729.324c-.6,6.666,8.008,19.417,14.674,20.014s8.867-11.185,9.464-17.851a12.117,12.117,0,0,0-24.138-2.164Z" transform="translate(-705.77 -5711.028)" fill="#449c6e"/>
      <path id="Trazado_654963" data-name="Trazado 654963" d="M744.267,5729.324c-.6,6.666,8.008,19.417,14.674,20.014s8.867-11.185,9.464-17.851a12.117,12.117,0,0,0-24.138-2.164Z" transform="translate(-705.77 -5711.028)" fill="#bababa" opacity="0.5" style="isolation: isolate"/>
      <g id="Grupo_981692" data-name="Grupo 981692" transform="translate(40.06 3.637)">
        <path id="Trazado_654964" data-name="Trazado 654964" d="M752.083,5714.459a3.211,3.211,0,1,1-5.7-.675A6.419,6.419,0,0,1,752.083,5714.459Z" transform="translate(-746.383 -5713.407)" fill="#449c6e"/>
        <path id="Trazado_654965" data-name="Trazado 654965" d="M752.083,5714.459a3.211,3.211,0,1,1-5.7-.675A6.419,6.419,0,0,1,752.083,5714.459Z" transform="translate(-746.383 -5713.407)" fill="#449c6e" opacity="0.2" style="isolation: isolate"/>
      </g>
      <g id="Grupo_981693" data-name="Grupo 981693" transform="translate(48.472 4.917)">
        <path id="Trazado_654966" data-name="Trazado 654966" d="M760.929,5718.456a1.9,1.9,0,1,1,.717-3.324A3.8,3.8,0,0,1,760.929,5718.456Z" transform="translate(-757.717 -5715.13)" fill="#449c6e"/>
        <path id="Trazado_654967" data-name="Trazado 654967" d="M760.929,5718.456a1.9,1.9,0,1,1,.717-3.324A3.8,3.8,0,0,1,760.929,5718.456Z" transform="translate(-757.717 -5715.13)" fill="#449c6e" opacity="0.2" style="isolation: isolate"/>
      </g>
      <path id="Trazado_654968" data-name="Trazado 654968" d="M797.949,5723.922c-2.108,6.351,3.348,20.734,9.7,22.842s11.193-8.856,13.3-15.208a12.117,12.117,0,1,0-23-7.634Z" transform="translate(-719.502 -5710.339)" fill="#449c6e"/>
      <path id="Trazado_654969" data-name="Trazado 654969" d="M797.949,5723.922c-2.108,6.351,3.348,20.734,9.7,22.842s11.193-8.856,13.3-15.208a12.117,12.117,0,1,0-23-7.634Z" transform="translate(-719.502 -5710.339)" fill="#bababa" opacity="0.5" style="isolation: isolate"/>
      <g id="Grupo_981694" data-name="Grupo 981694" transform="translate(83.148)">
        <path id="Trazado_654970" data-name="Trazado 654970" d="M809.927,5710.506a3.211,3.211,0,1,1-5.393-1.961A6.42,6.42,0,0,1,809.927,5710.506Z" transform="translate(-804.443 -5708.505)" fill="#449c6e"/>
        <path id="Trazado_654971" data-name="Trazado 654971" d="M809.927,5710.506a3.211,3.211,0,1,1-5.393-1.961A6.42,6.42,0,0,1,809.927,5710.506Z" transform="translate(-804.443 -5708.505)" fill="#449c6e" opacity="0.2" style="isolation: isolate"/>
      </g>
      <g id="Grupo_981695" data-name="Grupo 981695" transform="translate(90.25 3.612)">
        <path id="Trazado_654972" data-name="Trazado 654972" d="M817.348,5716.577a1.9,1.9,0,1,1,1.459-3.072A3.806,3.806,0,0,1,817.348,5716.577Z" transform="translate(-814.012 -5713.372)" fill="#449c6e"/>
        <path id="Trazado_654973" data-name="Trazado 654973" d="M817.348,5716.577a1.9,1.9,0,1,1,1.459-3.072A3.806,3.806,0,0,1,817.348,5716.577Z" transform="translate(-814.012 -5713.372)" fill="#449c6e" opacity="0.2" style="isolation: isolate"/>
      </g>
      <g id="Grupo_981696" data-name="Grupo 981696" transform="translate(2.271 23.26)">
        <path id="Trazado_654974" data-name="Trazado 654974" d="M695.463,5739.847H811.172s1.337,26.2-6.354,33.411c-6.537,6.126-56.87,11.749-76.695,14.042-3.7.427-15.741-.657-18.735-3.308C701.833,5777.3,696.341,5763.984,695.463,5739.847Z" transform="translate(-695.463 -5739.847)" fill="#449c6e"/>
      </g>
      <g id="Grupo_981697" data-name="Grupo 981697" transform="translate(2.271 23.26)" opacity="0.35" style="isolation: isolate">
        <path id="Trazado_654975" data-name="Trazado 654975" d="M709.388,5783.992c2.994,2.651,15.034,3.735,18.735,3.308,4.267-.494,9.95-1.142,16.3-1.916,18.953-2.893,36.154-6.379,40.036-10.018,7.134-6.686,7.575-27.449,7.464-35.519H695.463C696.341,5763.984,701.833,5777.3,709.388,5783.992Z" transform="translate(-695.463 -5739.847)"/>
      </g>
      <g id="Grupo_981698" data-name="Grupo 981698" transform="translate(0 20.785)">
        <rect id="Rectángulo_309783" data-name="Rectángulo 309783" width="122.117" height="4.689" fill="#449c6e"/>
      </g>
      <g id="Grupo_981699" data-name="Grupo 981699" transform="translate(0 20.785)" opacity="0.4" style="isolation: isolate">
        <rect id="Rectángulo_309784" data-name="Rectángulo 309784" width="122.117" height="4.689" fill="#bababa"/>
      </g>
      <g id="Grupo_981700" data-name="Grupo 981700" transform="translate(8.919 71.088)">
        <circle id="Elipse_7943" data-name="Elipse 7943" cx="19.685" cy="19.685" r="19.685" transform="translate(0 6.307) rotate(-9.217)" fill="#1e2921"/>
      </g>
      <g id="Grupo_981701" data-name="Grupo 981701" transform="translate(108.966 39.388)" opacity="0.35" style="isolation: isolate">
        <path id="Trazado_654976" data-name="Trazado 654976" d="M847.749,5761.579l-6.054,8.487a13.244,13.244,0,0,0-2.209,10.269h0a9.2,9.2,0,0,0,2.406-1.473C845.375,5775.6,847.006,5768.436,847.749,5761.579Z" transform="translate(-839.232 -5761.579)"/>
      </g>
      <g id="Grupo_981702" data-name="Grupo 981702" transform="translate(22.302 84.471)">
        <path id="Trazado_654977" data-name="Trazado 654977" d="M740.857,5831.528a9.2,9.2,0,1,0-9.2,9.2A9.2,9.2,0,0,0,740.857,5831.528Z" transform="translate(-722.455 -5822.328)" fill="#b2b2b2"/>
      </g>
      <g id="Grupo_981703" data-name="Grupo 981703" transform="translate(27.326 89.495)">
        <path id="Trazado_654978" data-name="Trazado 654978" d="M737.579,5833.273a4.177,4.177,0,1,0-4.177,4.177A4.177,4.177,0,0,0,737.579,5833.273Z" transform="translate(-729.224 -5829.096)" fill="#1e2a22"/>
      </g>
      <g id="Grupo_981704" data-name="Grupo 981704" transform="translate(28.815 16.386)">
        <path id="Trazado_654979" data-name="Trazado 654979" d="M818.177,5824.674a10.817,10.817,0,0,1-10.55-8.383l-8.327-37.928-50.17,7.817-12.865,23a2.688,2.688,0,1,1-4.692-2.624l13.5-24.146a2.69,2.69,0,0,1,1.932-1.344l53.96-8.407a2.687,2.687,0,0,1,3.039,2.08l8.863,40.368a5.445,5.445,0,0,0,10.623-2.394l-9.264-45.547a2.688,2.688,0,0,1,.206-1.687l11.5-24.23a2.688,2.688,0,0,1,1.884-1.48l44.135-9.131a2.688,2.688,0,1,1,1.089,5.265l-42.824,8.859-10.543,22.212,9.079,44.642a10.815,10.815,0,0,1-10.58,13.056Z" transform="translate(-731.23 -5730.584)" fill="#449c6e"/>
      </g>
      <g id="Grupo_981705" data-name="Grupo 981705" transform="translate(28.815 16.386)" opacity="0.7" style="isolation: isolate">
        <path id="Trazado_654980" data-name="Trazado 654980" d="M818.177,5824.674a10.817,10.817,0,0,1-10.55-8.383l-8.327-37.928-50.17,7.817-12.865,23a2.688,2.688,0,1,1-4.692-2.624l13.5-24.146a2.69,2.69,0,0,1,1.932-1.344l53.96-8.407a2.687,2.687,0,0,1,3.039,2.08l8.863,40.368a5.445,5.445,0,0,0,10.623-2.394l-9.264-45.547a2.688,2.688,0,0,1,.206-1.687l11.5-24.23a2.688,2.688,0,0,1,1.884-1.48l44.135-9.131a2.688,2.688,0,1,1,1.089,5.265l-42.824,8.859-10.543,22.212,9.079,44.642a10.815,10.815,0,0,1-10.58,13.056Z" transform="translate(-731.23 -5730.584)" fill="#fff"/>
      </g>
      <g id="Grupo_981707" data-name="Grupo 981707" transform="translate(155.783 13.031)">
        <g id="Grupo_981706" data-name="Grupo 981706">
          <path id="Trazado_654981" data-name="Trazado 654981" d="M902.316,5730.263l20.159-4.1a4.7,4.7,0,0,1,1.876,9.219l-20.159,4.1C903.876,5739.546,902.316,5730.263,902.316,5730.263Z" transform="translate(-902.316 -5726.065)" fill="#449c6e"/>
        </g>
      </g>
    </g>
    <g id="Grupo_981718" data-name="Grupo 981718" transform="translate(802.169 5722.767)">
      <path id="Trazado_654982" data-name="Trazado 654982" d="M875.971,5811.865c0,3.61-5.239,10.048-8.849,10.048s-4.226-6.437-4.226-10.048a6.538,6.538,0,0,1,13.076,0Z" transform="translate(-853.361 -5798.871)" fill="#449c6e"/>
      <path id="Trazado_654983" data-name="Trazado 654983" d="M875.971,5811.865c0,3.61-5.239,10.048-8.849,10.048s-4.226-6.437-4.226-10.048a6.538,6.538,0,0,1,13.076,0Z" transform="translate(-853.361 -5798.871)" fill="#fafafa" opacity="0.5" style="isolation: isolate"/>
      <g id="Grupo_981709" data-name="Grupo 981709" transform="translate(17.585 4.923)">
        <path id="Trazado_654984" data-name="Trazado 654984" d="M875.521,5803.67a1.732,1.732,0,1,0,3.095-.087A3.464,3.464,0,0,0,875.521,5803.67Z" transform="translate(-873.743 -5803.26)" fill="#449c6e"/>
        <path id="Trazado_654985" data-name="Trazado 654985" d="M875.521,5803.67a1.732,1.732,0,1,0,3.095-.087A3.464,3.464,0,0,0,875.521,5803.67Z" transform="translate(-873.743 -5803.26)" fill="#449c6e" opacity="0.2" style="isolation: isolate"/>
      </g>
      <g id="Grupo_981710" data-name="Grupo 981710" transform="translate(15.666 5.136)">
        <path id="Trazado_654986" data-name="Trazado 654986" d="M871.5,5805.368a1.026,1.026,0,1,0-.226-1.82A2.053,2.053,0,0,0,871.5,5805.368Z" transform="translate(-871.158 -5803.548)" fill="#449c6e"/>
        <path id="Trazado_654987" data-name="Trazado 654987" d="M871.5,5805.368a1.026,1.026,0,1,0-.226-1.82A2.053,2.053,0,0,0,871.5,5805.368Z" transform="translate(-871.158 -5803.548)" fill="#449c6e" opacity="0.2" style="isolation: isolate"/>
      </g>
      <path id="Trazado_654988" data-name="Trazado 654988" d="M910.215,5809.277c1.175,3.415-1.683,11.207-5.1,12.381s-6.091-4.712-7.266-8.126a6.538,6.538,0,0,1,12.363-4.255Z" transform="translate(-862.283 -5798.751)" fill="#449c6e"/>
      <path id="Trazado_654989" data-name="Trazado 654989" d="M910.215,5809.277c1.175,3.415-1.683,11.207-5.1,12.381s-6.091-4.712-7.266-8.126a6.538,6.538,0,0,1,12.363-4.255Z" transform="translate(-862.283 -5798.751)" fill="#fafafa" opacity="0.4" style="isolation: isolate"/>
      <g id="Grupo_981711" data-name="Grupo 981711" transform="translate(41.456 3.231)">
        <path id="Trazado_654990" data-name="Trazado 654990" d="M906.821,5802.087a1.733,1.733,0,1,0,2.9-1.091A3.464,3.464,0,0,0,906.821,5802.087Z" transform="translate(-905.909 -5800.98)" fill="#449c6e"/>
        <path id="Trazado_654991" data-name="Trazado 654991" d="M906.821,5802.087a1.733,1.733,0,1,0,2.9-1.091A3.464,3.464,0,0,0,906.821,5802.087Z" transform="translate(-905.909 -5800.98)" fill="#449c6e" opacity="0.2" style="isolation: isolate"/>
      </g>
      <g id="Grupo_981712" data-name="Grupo 981712" transform="translate(38.92 5.239)">
        <path id="Trazado_654992" data-name="Trazado 654992" d="M903.3,5805.413a1.026,1.026,0,1,0-.805-1.647A2.052,2.052,0,0,0,903.3,5805.413Z" transform="translate(-902.491 -5803.687)" fill="#449c6e"/>
        <path id="Trazado_654993" data-name="Trazado 654993" d="M903.3,5805.413a1.026,1.026,0,1,0-.805-1.647A2.052,2.052,0,0,0,903.3,5805.413Z" transform="translate(-902.491 -5803.687)" fill="#449c6e" opacity="0.2" style="isolation: isolate"/>
      </g>
      <path id="Trazado_654994" data-name="Trazado 654994" d="M880.183,5809.807c-.378,4.22,5.07,12.293,9.29,12.671s5.613-7.081,5.992-11.3a7.672,7.672,0,1,0-15.282-1.37Z" transform="translate(-857.814 -5798.224)" fill="#449c6e"/>
      <path id="Trazado_654995" data-name="Trazado 654995" d="M880.183,5809.807c-.378,4.22,5.07,12.293,9.29,12.671s5.613-7.081,5.992-11.3a7.672,7.672,0,1,0-15.282-1.37Z" transform="translate(-857.814 -5798.224)" fill="#fafafa" opacity="0.5" style="isolation: isolate"/>
      <g id="Grupo_981713" data-name="Grupo 981713" transform="translate(23.359 2.303)">
        <path id="Trazado_654996" data-name="Trazado 654996" d="M885.132,5800.4a2.033,2.033,0,1,1-3.608-.427A4.064,4.064,0,0,1,885.132,5800.4Z" transform="translate(-881.524 -5799.729)" fill="#449c6e"/>
        <path id="Trazado_654997" data-name="Trazado 654997" d="M885.132,5800.4a2.033,2.033,0,1,1-3.608-.427A4.064,4.064,0,0,1,885.132,5800.4Z" transform="translate(-881.524 -5799.729)" fill="#449c6e" opacity="0.2" style="isolation: isolate"/>
      </g>
      <g id="Grupo_981714" data-name="Grupo 981714" transform="translate(28.685 3.113)">
        <path id="Trazado_654998" data-name="Trazado 654998" d="M890.733,5802.926a1.2,1.2,0,1,1,.454-2.1A2.408,2.408,0,0,1,890.733,5802.926Z" transform="translate(-888.7 -5800.821)" fill="#449c6e"/>
        <path id="Trazado_654999" data-name="Trazado 654999" d="M890.733,5802.926a1.2,1.2,0,1,1,.454-2.1A2.408,2.408,0,0,1,890.733,5802.926Z" transform="translate(-888.7 -5800.821)" fill="#449c6e" opacity="0.2" style="isolation: isolate"/>
      </g>
      <path id="Trazado_655000" data-name="Trazado 655000" d="M914.171,5806.387c-1.335,4.021,2.12,13.127,6.14,14.462s7.087-5.608,8.421-9.628a7.671,7.671,0,1,0-14.561-4.834Z" transform="translate(-866.508 -5797.788)" fill="#449c6e"/>
      <path id="Trazado_655001" data-name="Trazado 655001" d="M914.171,5806.387c-1.335,4.021,2.12,13.127,6.14,14.462s7.087-5.608,8.421-9.628a7.671,7.671,0,1,0-14.561-4.834Z" transform="translate(-866.508 -5797.788)" fill="#fafafa" opacity="0.5" style="isolation: isolate"/>
      <g id="Grupo_981715" data-name="Grupo 981715" transform="translate(50.639)">
        <path id="Trazado_655002" data-name="Trazado 655002" d="M921.754,5797.893a2.033,2.033,0,1,1-3.415-1.241A4.068,4.068,0,0,1,921.754,5797.893Z" transform="translate(-918.282 -5796.626)" fill="#449c6e"/>
        <path id="Trazado_655003" data-name="Trazado 655003" d="M921.754,5797.893a2.033,2.033,0,1,1-3.415-1.241A4.068,4.068,0,0,1,921.754,5797.893Z" transform="translate(-918.282 -5796.626)" fill="#449c6e" opacity="0.2" style="isolation: isolate"/>
      </g>
      <g id="Grupo_981716" data-name="Grupo 981716" transform="translate(55.135 2.287)">
        <path id="Trazado_655004" data-name="Trazado 655004" d="M926.452,5801.737a1.2,1.2,0,1,1,.923-1.945A2.406,2.406,0,0,1,926.452,5801.737Z" transform="translate(-924.341 -5799.708)" fill="#449c6e"/>
        <path id="Trazado_655005" data-name="Trazado 655005" d="M926.452,5801.737a1.2,1.2,0,1,1,.923-1.945A2.406,2.406,0,0,1,926.452,5801.737Z" transform="translate(-924.341 -5799.708)" fill="#449c6e" opacity="0.2" style="isolation: isolate"/>
      </g>
      <g id="Grupo_981717" data-name="Grupo 981717" transform="translate(0 12.022)">
        <path id="Trazado_655006" data-name="Trazado 655006" d="M918.641,5828.011H941.06l-6.5-15.185H912.139Z" transform="translate(-866.059 -5812.827)" fill="#449c6e"/>
        <rect id="Rectángulo_309785" data-name="Rectángulo 309785" width="40.543" height="33.532" transform="translate(27.929)" fill="#449c6e"/>
        <rect id="Rectángulo_309786" data-name="Rectángulo 309786" width="40.543" height="33.532" transform="translate(27.929)" fill="#fafafa" opacity="0.5" style="isolation: isolate"/>
        <rect id="Rectángulo_309787" data-name="Rectángulo 309787" width="31.42" height="33.532" transform="translate(6.502)" fill="#007cff"/>
        <rect id="Rectángulo_309788" data-name="Rectángulo 309788" width="31.42" height="33.532" transform="translate(6.502)" fill="#449c6e"/>
        <path id="Trazado_655007" data-name="Trazado 655007" d="M858.809,5829.592H884.79l5.439-16.766h-31.42Z" transform="translate(-852.307 -5812.827)" opacity="0.35" style="isolation: isolate"/>
        <path id="Trazado_655008" data-name="Trazado 655008" d="M881.468,5828.011h-31.42l6.5-15.185h31.42Z" transform="translate(-850.048 -5812.827)" fill="#449c6e"/>
      </g>
    </g>
  </g>
</svg>
