<svg xmlns="http://www.w3.org/2000/svg" xmlns:xlink="http://www.w3.org/1999/xlink" width="399.159" height="332.452" viewBox="0 0 399.159 332.452">
  <defs>
    <clipPath id="clip-path">
      <path id="Trazado_652183" data-name="Trazado 652183" d="M944.888,1042.678c-15.962-3.16-152.6-23.8-139.043,12.353,2,5.333,5.334,5.333,1.334,10-3.334,3.333-12,4-16,4.667-9.334,1.333-20.667,2-26,11.333-23.334,40.667,69.333,71.333,94.666,79.333,38.667,12,76,23.334,116.666,26a114.068,114.068,0,0,0,26-.666c10.668-1.334,16-5.334,24.668-10.667,14.666-9.333,36,2,52.666,1.333,15.334-.666,42.666-5.333,50.666-21.333,10.668-21.333-26.666-31.333-38.666-39.333-9.334-6.667-2-16-11.334-22.667-19.973-14.268-47.8-27.151-70.791-33.8C988.325,1053.038,966.764,1047.009,944.888,1042.678Z" fill="none"/>
    </clipPath>
    <clipPath id="clip-path-2">
      <path id="Trazado_652281" data-name="Trazado 652281" d="M1079.577,1073.26c3.122-.982-11.277-13.3-11.278-16.811,0-.651-.032-1.323-.086-2.012-.306-3.923-2.949-7.56-5.586-10.257-8.181-8.519-19.066-11.709-30.491-11.4-3.995.235-11.153.464-13.5,4.731-1.025,2.22-.958,5.609-.27,8.724.511,2.31-48.037,14.388-47.229,15.931,13.46,25.677,62.279,25.018,72.9,25.2C1047.613,1087.423,1074.451,1074.87,1079.577,1073.26Z" fill="none"/>
    </clipPath>
    <clipPath id="clip-path-3">
      <path id="Trazado_652382" data-name="Trazado 652382" d="M820.784,1058.606c2.181-.432,2.45,1.8,2.017,2.666-.865,2.378-4.325,1.8-6.27,2.017-4.54.865-8.648,1.513-13.188,3.243-2.81.865-5.837.865-8.648,1.3-3.027.216-6.053,1.3-8.864,1.73a27.325,27.325,0,0,1-15.566-2.378c-2.378-1.081-12.323-6.27-9.3-9.729,1.73-1.946,8.542-11.114,11.353-11.114,4.756,0,8.451-1.3,13.208-2.169,4.54-.649,11.211,2.171,15.967,3.252,5.621,1.081,7.37,6.21,13.208,6.21Z" transform="translate(-760.402 -1044.074)" fill="none"/>
    </clipPath>
    <clipPath id="clip-path-4">
      <path id="Trazado_652403" data-name="Trazado 652403" d="M864.286,1120.216c2.181-.432,2.45,1.8,2.017,2.666-.865,2.378-4.325,1.8-6.27,2.017-4.54.865-8.648,1.513-13.188,3.243-2.81.865-5.837.865-8.648,1.3-3.027.216-6.053,1.3-8.864,1.729a27.325,27.325,0,0,1-15.566-2.378c-2.378-1.081-12.323-6.27-9.3-9.729,1.73-1.946,8.542-11.115,11.353-11.115,4.756,0,8.451-1.3,13.208-2.169,4.54-.649,11.211,2.172,15.967,3.252,5.621,1.081,7.37,6.21,13.208,6.21Z" transform="translate(-803.904 -1105.683)" fill="none"/>
    </clipPath>
  </defs>
  <g id="Grupo_975376" data-name="Grupo 975376" transform="translate(-733.246 -863.327)">
    <g id="Grupo_975332" data-name="Grupo 975332">
      <g id="Grupo_975322" data-name="Grupo 975322">
        <path id="Trazado_652177" data-name="Trazado 652177" d="M944.888,1042.678c-15.962-3.16-152.6-23.8-139.043,12.353,2,5.333,5.334,5.333,1.334,10-3.334,3.333-12,4-16,4.667-9.334,1.333-20.667,2-26,11.333-23.334,40.667,69.333,71.333,94.666,79.333,38.667,12,76,23.334,116.666,26a114.068,114.068,0,0,0,26-.666c10.668-1.334,16-5.334,24.668-10.667,14.666-9.333,36,2,52.666,1.333,15.334-.666,42.666-5.333,50.666-21.333,10.668-21.333-26.666-31.333-38.666-39.333-9.334-6.667-2-16-11.334-22.667-19.973-14.268-47.8-27.151-70.791-33.8C988.325,1053.038,966.764,1047.009,944.888,1042.678Z" fill="#cd8054"/>
        <g id="Grupo_975321" data-name="Grupo 975321">
          <g id="Grupo_975320" data-name="Grupo 975320" clip-path="url(#clip-path)">
            <path id="Trazado_652178" data-name="Trazado 652178" d="M1052,1206.327c-1.041-1.877-5.11-6.207-8.334-4.749l-.655.112c.581-2.379-6.263-11.715-12.269-4.991-.26-8.172-5.613-22.1-22.8-16.67a25.092,25.092,0,0,0-3.619,1.415c.125-.21.252-.413.371-.634,2.455-5.212-.8-9.792-6.75-11.52a8.421,8.421,0,0,0-7.344.675l.326-.057c-.16.142-.144.6-.312.511.043-3.772-2.711-8.1-5.9-10.41a18.325,18.325,0,0,0-7.447-2.5c-3.769-.158-5.025,1.425-7.414,3.542.348-4.51-7.945-13.028-14.777-6.507-.176-.312-.031-.907-.2-1.22-1.371-1.821-.964-4.515-2.5-6.649a14.61,14.61,0,0,0-6.062-5.361,12.871,12.871,0,0,0-3.907-.908c.038-2.607-2.444-4.671-5.3-6.3-5-2.8-10.856-1.581-16.768-2.174,6.306-7.69-12.589-9.845-19.253-8.372,5.869-5.9-9.559-12.3-16.638-8.358,1.855-7.21-6.851-7.866-14.727-6.308a6.2,6.2,0,0,0-2.435-8.351c-2.5-1.514-5.8-2.1-9.247-2.537s-7.189.536-10.146.122c-.494-.029-1.3.222-1.795.192,7.5-6.177-6.843-9.336-13.183-7.917,2.389-2.117,4.313-3.357,3.09-5.774a12.739,12.739,0,0,0-5.535-4.195,35.517,35.517,0,0,0-16.407-1.1c-.166-.084.486-.194.647-.338l0,.228c1.577-1.865.7-3.656-.976-4.967-4.037-3.424-11.433-4.338-18.214-1.359-.284.136-.544.273-.809.411a10.838,10.838,0,0,0,1.062-2.736c3.2-12.64-18.075-12.452-29.8-10.461,8.006-5.694-7.122-7.691-10.364-6.684l-.012-.456c1.229-2.489-6.021-4-8.974-4.182-3.284-.354-10.118,1.032-8.7,4.444.708,1.7,6.961,2.7,9.594,3.163-6.511,1.1-2.474,4.528.505,5.619s7.556.772,11.145.391c-4.515,2.136-.8,5.842,1.866,7.214,3.329,1.717,7.57,1.227,11.767-.628-6.269,3.8,7.683,11.5,16.631,8.567-1.263,2.186-.421,4.413,2.672,6.525a24.536,24.536,0,0,0,7.642,3.5,30.132,30.132,0,0,0,4.444.73c.334.171,4.421.047,4.428.275.167.087.167.087.491.03-4.846,1.963,1.478,5.225,3.143,6.087,3.163,1.629,8.285,3.158,12.665,1.842-2.694,2.854,2.015,6.846,4.353,8.276,3.835,2.2,8.916,2.365,14.125,1.482-5.353,4.032,6.4,9.648,16.184,8.587-1.084,5.55,14.385,6.167,19.478,6.013-3.477,4.012.526,6.3,4.5,7.679,4.8,1.809,9.366,1.035,14.77,1.145-2.141,4.7-.594,7.061,4.391,9.411a35.917,35.917,0,0,0,7.287,2.642c2.309.519,5.248.251,7.715.631-4.593,5.627,2.407,7.767,10.071,6.986.338,6.922,12.1,13.724,16.6,9.007a9.441,9.441,0,0,0,5.847,8.819c2.654,1.147,9.594,3.162,12.951.652-.717,3.205,2.814,6.141,5.979,7.774,1.662.856,7.986,4.12,9.505.44.008.227.008.227.174.314.326-.057,1.231,2.642,1.565,2.813a14.087,14.087,0,0,0,2.213,2.707,22.094,22.094,0,0,0,7.005,4.059c3.834,1.46,7.229,1.422,10.014.02-1.816,6.608,12.844,13.675,16.613,8.582-1.535,3.227-1.113,6.122,2.215,7.84,2.662,1.373,8.93,2.819,10.781-.689.407,2.44,1.159,5.508,3.5,7.163s8.293,3.384,8.151-1.153c1.359,1.593,4.428,5.409,7.045,5.421C1053.2,1213.2,1053.378,1208.374,1052,1206.327Z" fill="#734224"/>
            <path id="Trazado_652179" data-name="Trazado 652179" d="M695.191,1057.534c2.3-.147,8.606.918,9.25,4.424l.294.609c1.77-1.781,14.208-1.107,11.838,7.6,7.435-4.227,23.061-7.3,28.58,10.1a23.87,23.87,0,0,1,.922,3.814c.111-.22.216-.438.342-.658,3.161-4.9,9.2-4.655,14.327-.59,2.06,1.537,3.826,3.827,3.822,6.542l-.145-.306c-.03.212-.445.447-.267.541,3.333-2.09,8.846-2.127,12.823-.707a20.167,20.167,0,0,1,6.715,4.9c2.412,3.085,1.76,5,1.313,8.163,3.807-2.747,16.391-.407,14.7,8.886.384-.022.826-.468,1.209-.494,2.446.159,4.6-1.648,7.43-1.513a16.84,16.84,0,0,1,8.427,2.181,13.909,13.909,0,0,1,3.162,2.792c2.3-1.451,5.634-.487,8.8,1.028,5.508,2.68,7.948,8.27,12.039,12.917,3.049-9.486,16.352,5.231,19.057,11.635,1.719-8.147,16.71,1.348,17.467,9.443,5.3-5.482,11.133,1.481,14.492,8.952,1.861-2.99,5.336-4.03,8.9-2.5,2.858,1.283,5.36,3.733,7.832,6.4s3.855,6.335,6,8.6c.324.4.587,1.214.912,1.613.984-9.666,12.438.675,14.993,6.778.447-3.161.392-5.452,3.281-5.74a14.616,14.616,0,0,1,7.07,2.373,37.084,37.084,0,0,1,10.862,13.2c.175.093-.12-.516-.089-.729l-.207.12c.712-2.341,2.833-2.58,5.012-1.882,5.483,1.532,10.75,7.253,12.186,14.576.049.314.082.607.121.9a10.533,10.533,0,0,1,1.8-2.382c9.326-9.569,21.978,8.424,27.269,19.365.246-9.829,11.141,1.805,12.2,5.08l.413-.238c1.474-2.389,7.189,2.885,9.128,5.27,2.295,2.567,5.178,9.069,1.286,9.732-1.946.331-6.6-4.387-8.6-6.347,2.939,6.076-2.543,4.545-5.311,2.633s-5.238-5.934-7.062-9.159c.818,4.957-4.723,3.848-7.549,2.356-3.535-1.865-5.654-5.7-6.531-10.236.39,7.34-14.869-.206-17.649-9.325-1.187,2.252-3.677,2.756-7.421,1.3a27.537,27.537,0,0,1-7.719-4.523,32.075,32.075,0,0,1-3.328-3.34c-.354-.188-2.706-3.692-2.912-3.573-.178-.093-.178-.093-.323-.4,1.172,5.143-5.545,1.6-7.314.669-3.358-1.772-7.8-5.248-9.271-9.647-.92,3.817-7.311,2.03-9.993.84-4.272-2.025-7.48-6.209-9.831-11.07-.367,6.7-12.449-.133-17.4-8.936-4.289,3.931-14.158-8.742-17.09-13.107-1.479,5.107-5.929,2.985-9.55.4-4.506-3.057-6.564-7.313-9.919-11.8-2.9,4.357-5.93,4.343-11.026,1.428a39.551,39.551,0,0,1-6.744-4.689c-1.854-1.659-3.386-4.277-5.21-6.144-2.245,6.922-8.368,2.2-12.29-4.667-6.369,3.481-19.517-2.713-18.024-9.06a10.775,10.775,0,0,1-11.377-.117c-2.621-1.61-8.6-6.349-8.386-10.536-2.421,2.345-7.164.973-10.522-.8-1.767-.933-8.484-4.476-6.121-7.756-.207.117-.207.117-.383.025-.148-.3-3.1.4-3.449.216a16.37,16.37,0,0,1-3.744-.389,25.034,25.034,0,0,1-7.835-3.681c-3.611-2.43-5.624-5.306-6.053-8.411-4.79,5.124-19.916-3.36-17.654-9.3-1.948,3.048-4.78,4.268-8.315,2.4-2.828-1.492-7.89-5.975-5.882-9.441-2.418.987-5.6,2.022-8.491.952s-8.009-5.131-3.882-7.48c-2.238-.275-7.485-.78-9.073-2.975C688.349,1060.262,692.539,1057.492,695.191,1057.534Z" fill="#734224"/>
            <path id="Trazado_652180" data-name="Trazado 652180" d="M781.623,1034.023c2.125-.3,8.033.324,8.818,3.776l.3.588c1.547-1.9,13.121-2.08,11.387,6.768,6.671-4.728,21-8.868,27.052,8.106a25.156,25.156,0,0,1,1.059,3.741c.09-.227.176-.452.281-.68,2.671-5.1,8.289-5.274,13.259-1.574a8.413,8.413,0,0,1,3.9,6.261l-.151-.3c-.017.214-.389.477-.219.558,2.98-2.312,8.093-2.728,11.857-1.585a18.336,18.336,0,0,1,6.492,4.426c2.4,2.91,1.9,4.867,1.654,8.05,3.385-3,15.183-1.533,14.109,7.85.355-.049.742-.523,1.095-.576,2.278-.008,4.181-1.959,6.812-2.018a14.608,14.608,0,0,1,7.934,1.6,12.866,12.866,0,0,1,3.082,2.567c2.056-1.606,5.2-.873,8.219.421,5.253,2.293,7.815,7.7,11.857,12.054,2.323-9.67,15.448,4.092,18.3,10.292,1.16-8.242,15.575.2,16.706,8.217,4.629-5.832,10.406.712,13.922,7.932a6.2,6.2,0,0,1,8.126-3.1c2.719,1.082,5.17,3.354,7.606,5.839s3.914,6.054,6.027,8.162c.323.376.612,1.172.934,1.546.4-9.707,11.574-.182,14.269,5.728.246-3.182.073-5.463,2.737-5.949a12.745,12.745,0,0,1,6.687,1.88,35.533,35.533,0,0,1,10.78,12.417c.167.081-.139-.505-.122-.72l-.185.134c.535-2.384,2.49-2.768,4.549-2.222,5.168,1.151,10.361,6.495,12.082,13.7.062.308.109.6.16.893a10.779,10.779,0,0,1,1.541-2.5c8.141-10.183,20.838,6.891,26.33,17.437-.3-9.819,10.43,1.034,11.586,4.226l.371-.265c1.24-2.484,6.822,2.384,8.75,4.629,2.266,2.4,5.287,8.687,1.711,9.616-1.787.464-6.354-3.921-8.314-5.738,3.05,5.857-2.116,4.707-4.786,2.99s-5.175-5.557-7.041-8.648c1.024,4.888-4.175,4.161-6.877,2.869-3.379-1.618-5.548-5.294-6.6-9.76.752,7.295-13.805.817-16.871-8.084-.981,2.327-3.264,3-6.815,1.809a24.55,24.55,0,0,1-7.4-3.98,30.17,30.17,0,0,1-3.266-3.1c-.338-.163-2.707-3.5-2.892-3.363-.17-.081-.17-.081-.321-.374,1.362,5.049-5.056,1.978-6.748,1.17-3.209-1.537-7.519-4.7-9.117-8.983-.648,3.87-6.674,2.527-9.224,1.526-4.071-1.727-7.27-5.679-9.711-10.364.017,6.7-11.555.723-16.618-7.716-3.769,4.215-13.6-7.744-16.55-11.9-1.1,5.195-5.341,3.385-8.839,1.052-4.343-2.738-6.48-6.841-9.83-11.083-2.454,4.544-5.27,4.737-10.153,2.182a35.89,35.89,0,0,1-6.506-4.213c-1.809-1.528-3.369-4.032-5.161-5.77-1.713,7.059-7.645,2.771-11.65-3.809-5.722,3.909-18.249-1.364-17.2-7.8a9.443,9.443,0,0,1-10.561.665c-2.517-1.424-8.314-5.739-8.341-9.931-2.121,2.507-6.594,1.464-9.8-.071-1.687-.809-8.107-3.88-6.091-7.313-.186.131-.186.131-.354.051-.153-.294-2.85.615-3.187.452a14.087,14.087,0,0,1-3.494-.13,22.073,22.073,0,0,1-7.465-3.133c-3.48-2.174-5.5-4.905-6.064-7.971-4.17,5.438-18.655-1.981-16.873-8.062-1.644,3.173-4.207,4.585-7.585,2.969-2.7-1.293-7.638-5.416-5.961-9.011-2.19,1.151-5.09,2.4-7.825,1.534s-7.7-4.567-4-7.193c-2.091-.121-6.985-.263-8.576-2.343C775.421,1037.214,779.162,1034.164,781.623,1034.023Z" fill="#734224"/>
            <path id="Trazado_652181" data-name="Trazado 652181" d="M1128.268,1166.925c-1.089-1.848-5.273-6.065-8.459-4.52l-.648.13c.514-2.394-6.582-11.54-12.4-4.656-.481-8.162-6.211-21.936-23.241-16.044a25.46,25.46,0,0,0-3.582,1.513c.121-.212.243-.42.356-.644,2.312-5.276-1.067-9.767-7.061-11.331a8.413,8.413,0,0,0-7.322.874l.324-.067c-.156.147-.129.6-.3.52-.06-3.773-2.929-8.022-6.177-10.244a18.305,18.305,0,0,0-7.512-2.3c-3.773-.055-4.986,1.561-7.316,3.742.224-4.518-8.3-12.807-14.95-6.1-.183-.307-.054-.905-.234-1.214-1.418-1.784-1.084-4.488-2.684-6.579a14.612,14.612,0,0,0-6.207-5.194,12.879,12.879,0,0,0-3.929-.8c-.032-2.607-2.569-4.6-5.467-6.151-5.074-2.665-10.9-1.284-16.822-1.717,6.1-7.857-12.852-9.5-19.473-7.845,5.707-6.059-9.891-12.033-16.858-7.9,1.657-7.259-7.062-7.676-14.9-5.9a6.2,6.2,0,0,0-2.66-8.282c-2.544-1.447-5.85-1.938-9.311-2.285s-7.172.73-10.139.4c-.494-.018-1.3.257-1.789.238,7.327-6.379-7.1-9.146-13.393-7.556,2.33-2.181,4.219-3.471,2.932-5.855a12.758,12.758,0,0,0-5.648-4.043,35.511,35.511,0,0,0-16.43-.648c-.169-.081.48-.209.637-.356l.011.228c1.526-1.908.6-3.675-1.111-4.939-4.128-3.314-11.546-4.027-18.243-.864-.281.144-.537.288-.8.433a10.836,10.836,0,0,0,.987-2.765c2.857-12.72-18.407-11.954-30.071-9.647,7.848-5.908-7.328-7.494-10.542-6.4l-.025-.457c1.162-2.521-6.127-3.832-9.084-3.935-3.293-.265-10.086,1.306-8.574,4.678.755,1.684,7.032,2.5,9.676,2.9-6.478,1.281-2.35,4.594.659,5.6s7.573.566,11.151.089c-4.455,2.257-.637,5.861,2.061,7.16,3.375,1.627,7.6,1.022,11.745-.948-6.161,3.974,7.994,11.284,16.858,8.112-1.2,2.22-.3,4.422,2.85,6.45a24.536,24.536,0,0,0,7.733,3.287,30.1,30.1,0,0,0,4.463.611c.338.161,4.421-.074,4.433.154.169.082.169.082.492.016-4.791,2.094,1.619,5.183,3.307,6,3.206,1.543,8.368,2.931,12.711,1.5-2.615,2.925,2.2,6.788,4.576,8.153,3.893,2.1,8.977,2.123,14.161,1.1-5.242,4.177,6.659,9.47,16.411,8.144-.934,5.577,14.546,5.774,19.632,5.481-3.365,4.105.7,6.283,4.7,7.553,4.852,1.679,9.393.782,14.8.744-2.014,4.755-.4,7.074,4.644,9.288a35.869,35.869,0,0,0,7.358,2.444c2.322.455,5.252.106,7.728.419-4.437,5.751,2.618,7.7,10.258,6.712.528,6.909,12.475,13.39,16.84,8.55a9.441,9.441,0,0,0,6.082,8.658c2.686,1.074,9.68,2.9,12.967.3-.629,3.223,2.98,6.062,6.185,7.608,1.688.811,8.1,3.9,9.516.182.016.226.016.226.182.308.326-.064,1.3,2.609,1.64,2.77a14.093,14.093,0,0,0,2.287,2.646,22.09,22.09,0,0,0,7.112,3.867c3.873,1.355,7.265,1.224,10.011-.252-1.636,6.654,13.211,13.32,16.842,8.128-1.449,3.266-.947,6.15,2.426,7.775,2.7,1.3,9,2.575,10.76-.982.471,2.428,1.306,5.474,3.7,7.066s8.381,3.157,8.115-1.374c1.4,1.556,4.573,5.285,7.192,5.227C1129.657,1173.761,1129.7,1168.935,1128.268,1166.925Z" fill="#734224"/>
            <path id="Trazado_652182" data-name="Trazado 652182" d="M857.3,1004.382c2.125-.3,8.032.325,8.817,3.777l.3.588c1.548-1.9,13.121-2.08,11.389,6.767,6.67-4.727,21-8.868,27.051,8.107a25.008,25.008,0,0,1,1.058,3.74c.092-.227.178-.451.282-.68,2.671-5.1,8.289-5.273,13.258-1.574a8.415,8.415,0,0,1,3.9,6.262l-.151-.3c-.018.214-.389.476-.219.557,2.981-2.312,8.092-2.728,11.857-1.585a18.345,18.345,0,0,1,6.492,4.426c2.4,2.91,1.9,4.867,1.652,8.05,3.385-3,15.184-1.532,14.11,7.851.355-.049.742-.524,1.095-.577,2.28-.007,4.18-1.959,6.813-2.018a14.6,14.6,0,0,1,7.933,1.6,12.841,12.841,0,0,1,3.082,2.566c2.055-1.6,5.2-.873,8.219.421,5.254,2.294,7.815,7.7,11.858,12.055,2.322-9.67,15.447,4.091,18.3,10.292,1.161-8.243,15.575.195,16.707,8.216,4.629-5.832,10.407.712,13.922,7.932a6.2,6.2,0,0,1,8.127-3.1c2.719,1.082,5.17,3.354,7.606,5.839s3.914,6.054,6.027,8.162c.322.376.611,1.172.934,1.546.4-9.707,11.574-.181,14.269,5.729.246-3.183.072-5.464,2.737-5.949a12.755,12.755,0,0,1,6.687,1.879,35.531,35.531,0,0,1,10.779,12.417c.168.082-.138-.5-.121-.719l-.185.134c.535-2.384,2.49-2.769,4.549-2.222,5.168,1.15,10.361,6.494,12.082,13.7.062.309.109.6.16.894a10.777,10.777,0,0,1,1.541-2.5c8.14-10.184,20.838,6.89,26.33,17.436-.3-9.818,10.43,1.034,11.586,4.227l.371-.266c1.24-2.483,6.822,2.385,8.75,4.629,2.265,2.4,5.287,8.688,1.711,9.616-1.787.464-6.354-3.921-8.315-5.738,3.051,5.857-2.115,4.707-4.785,2.99s-5.176-5.556-7.041-8.647c1.024,4.887-4.176,4.161-6.877,2.868-3.379-1.617-5.549-5.294-6.6-9.76.752,7.3-13.8.817-16.871-8.084-.981,2.327-3.264,3-6.815,1.81a24.552,24.552,0,0,1-7.4-3.981,30.059,30.059,0,0,1-3.266-3.1c-.338-.163-2.707-3.5-2.892-3.364-.17-.081-.17-.081-.321-.374,1.362,5.049-5.056,1.978-6.748,1.17-3.209-1.537-7.519-4.7-9.117-8.983-.648,3.87-6.674,2.527-9.225,1.526-4.07-1.726-7.269-5.678-9.71-10.364.017,6.7-11.555.724-16.618-7.716-3.769,4.215-13.6-7.744-16.552-11.9-1.1,5.194-5.34,3.384-8.838,1.051-4.342-2.738-6.481-6.84-9.83-11.083-2.454,4.544-5.27,4.738-10.153,2.182a35.851,35.851,0,0,1-6.508-4.213c-1.806-1.527-3.367-4.032-5.16-5.769-1.713,7.058-7.646,2.77-11.65-3.81-5.723,3.909-18.25-1.363-17.2-7.8a9.439,9.439,0,0,1-10.561.665c-2.517-1.424-8.314-5.739-8.342-9.93-2.119,2.506-6.593,1.463-9.8-.072-1.687-.808-8.109-3.88-6.092-7.312-.186.131-.186.131-.354.051-.153-.294-2.85.615-3.188.452a14.177,14.177,0,0,1-3.493-.13,22.056,22.056,0,0,1-7.465-3.134c-3.479-2.174-5.5-4.9-6.064-7.971-4.169,5.439-18.655-1.981-16.873-8.061-1.645,3.173-4.207,4.585-7.585,2.969-2.7-1.293-7.639-5.416-5.96-9.011-2.191,1.15-5.09,2.4-7.826,1.533s-7.7-4.566-4-7.192c-2.091-.121-6.985-.264-8.576-2.344C851.095,1007.574,854.834,1004.523,857.3,1004.382Z" fill="#734224"/>
          </g>
        </g>
      </g>
      <g id="Grupo_975331" data-name="Grupo 975331">
        <g id="Grupo_975323" data-name="Grupo 975323">
          <path id="Trazado_652184" data-name="Trazado 652184" d="M1056.66,1133.7c4.334,6.334,3.334,15.334,3.334,22.667" fill="none" stroke="#00d374" stroke-miterlimit="10" stroke-width="3"/>
          <path id="Trazado_652185" data-name="Trazado 652185" d="M1063.66,1126.031c.334,10-1.333,20.333-1.333,30.333" fill="none" stroke="#00d374" stroke-miterlimit="10" stroke-width="3"/>
          <path id="Trazado_652186" data-name="Trazado 652186" d="M1072.66,1128.7c-3.666,8.667-7.666,19-5,28.667" fill="none" stroke="#00d374" stroke-miterlimit="10" stroke-width="3"/>
          <path id="Trazado_652187" data-name="Trazado 652187" d="M1073.994,1145.031c-2.667,3.666-3,8.666-3,13" fill="none" stroke="#00d374" stroke-miterlimit="10" stroke-width="3"/>
        </g>
        <g id="Grupo_975324" data-name="Grupo 975324">
          <path id="Trazado_652188" data-name="Trazado 652188" d="M848.968,1103.427c4.334,6.334,3.334,15.334,3.334,22.667" fill="none" stroke="#00d374" stroke-miterlimit="10" stroke-width="3"/>
          <path id="Trazado_652189" data-name="Trazado 652189" d="M855.968,1095.761c.334,10-1.333,20.333-1.333,30.333" fill="none" stroke="#00d374" stroke-miterlimit="10" stroke-width="3"/>
          <path id="Trazado_652190" data-name="Trazado 652190" d="M864.968,1098.427c-3.666,8.667-7.666,19-5,28.667" fill="none" stroke="#00d374" stroke-miterlimit="10" stroke-width="3"/>
          <path id="Trazado_652191" data-name="Trazado 652191" d="M866.3,1114.761c-2.667,3.666-3,8.666-3,13" fill="none" stroke="#00d374" stroke-miterlimit="10" stroke-width="3"/>
        </g>
        <g id="Grupo_975325" data-name="Grupo 975325">
          <path id="Trazado_652192" data-name="Trazado 652192" d="M954.634,1043.956c4.334,6.334,3.334,15.334,3.334,22.667" fill="none" stroke="#00d374" stroke-miterlimit="10" stroke-width="3"/>
          <path id="Trazado_652193" data-name="Trazado 652193" d="M961.634,1036.29c.334,10-1.333,20.333-1.333,30.333" fill="none" stroke="#00d374" stroke-miterlimit="10" stroke-width="3"/>
          <path id="Trazado_652194" data-name="Trazado 652194" d="M970.634,1038.956c-3.666,8.667-7.666,19-5,28.667" fill="none" stroke="#00d374" stroke-miterlimit="10" stroke-width="3"/>
          <path id="Trazado_652195" data-name="Trazado 652195" d="M971.968,1055.29c-2.667,3.666-3,8.666-3,13" fill="none" stroke="#00d374" stroke-miterlimit="10" stroke-width="3"/>
        </g>
        <g id="Grupo_975326" data-name="Grupo 975326">
          <path id="Trazado_652196" data-name="Trazado 652196" d="M851.329,1067.225c4.334,6.334,3.334,15.334,3.334,22.667" fill="none" stroke="#00d374" stroke-miterlimit="10" stroke-width="3"/>
          <path id="Trazado_652197" data-name="Trazado 652197" d="M858.329,1059.559c.334,10-1.333,20.333-1.333,30.333" fill="none" stroke="#00d374" stroke-miterlimit="10" stroke-width="3"/>
          <path id="Trazado_652198" data-name="Trazado 652198" d="M867.329,1062.225c-3.666,8.667-7.666,19-5,28.667" fill="none" stroke="#00d374" stroke-miterlimit="10" stroke-width="3"/>
          <path id="Trazado_652199" data-name="Trazado 652199" d="M868.663,1078.559c-2.667,3.666-3,8.666-3,13" fill="none" stroke="#00d374" stroke-miterlimit="10" stroke-width="3"/>
        </g>
        <g id="Grupo_975327" data-name="Grupo 975327">
          <path id="Trazado_652200" data-name="Trazado 652200" d="M1043.079,1088.53c4.334,6.334,3.334,15.334,3.334,22.667" fill="none" stroke="#00d374" stroke-miterlimit="10" stroke-width="3"/>
          <path id="Trazado_652201" data-name="Trazado 652201" d="M1050.079,1080.864c.334,10-1.333,20.333-1.333,30.333" fill="none" stroke="#00d374" stroke-miterlimit="10" stroke-width="3"/>
          <path id="Trazado_652202" data-name="Trazado 652202" d="M1059.079,1083.53c-3.666,8.667-7.666,19-5,28.667" fill="none" stroke="#00d374" stroke-miterlimit="10" stroke-width="3"/>
          <path id="Trazado_652203" data-name="Trazado 652203" d="M1060.413,1099.864c-2.667,3.666-3,8.666-3,13" fill="none" stroke="#00d374" stroke-miterlimit="10" stroke-width="3"/>
        </g>
        <g id="Grupo_975328" data-name="Grupo 975328">
          <path id="Trazado_652204" data-name="Trazado 652204" d="M833.264,1025.623c4.334,6.334,3.334,15.334,3.334,22.667" fill="none" stroke="#00d374" stroke-miterlimit="10" stroke-width="3"/>
          <path id="Trazado_652205" data-name="Trazado 652205" d="M840.264,1017.957c.334,10-1.333,20.333-1.333,30.333" fill="none" stroke="#00d374" stroke-miterlimit="10" stroke-width="3"/>
          <path id="Trazado_652206" data-name="Trazado 652206" d="M849.264,1020.623c-3.666,8.667-7.666,19-5,28.667" fill="none" stroke="#00d374" stroke-miterlimit="10" stroke-width="3"/>
          <path id="Trazado_652207" data-name="Trazado 652207" d="M850.6,1036.957c-2.667,3.666-3,8.666-3,13" fill="none" stroke="#00d374" stroke-miterlimit="10" stroke-width="3"/>
        </g>
        <g id="Grupo_975329" data-name="Grupo 975329">
          <path id="Trazado_652208" data-name="Trazado 652208" d="M925.138,1144.588c4.334,6.334,3.334,15.334,3.334,22.667" fill="none" stroke="#00d374" stroke-miterlimit="10" stroke-width="3"/>
          <path id="Trazado_652209" data-name="Trazado 652209" d="M932.138,1136.922c.334,10-1.333,20.333-1.333,30.333" fill="none" stroke="#00d374" stroke-miterlimit="10" stroke-width="3"/>
          <path id="Trazado_652210" data-name="Trazado 652210" d="M941.138,1139.588c-3.666,8.667-7.666,19-5,28.667" fill="none" stroke="#00d374" stroke-miterlimit="10" stroke-width="3"/>
          <path id="Trazado_652211" data-name="Trazado 652211" d="M942.472,1155.922c-2.667,3.666-3,8.666-3,13" fill="none" stroke="#00d374" stroke-miterlimit="10" stroke-width="3"/>
        </g>
        <g id="Grupo_975330" data-name="Grupo 975330">
          <path id="Trazado_652212" data-name="Trazado 652212" d="M997.5,1141.372c4.334,6.334,3.334,15.334,3.334,22.667" fill="none" stroke="#00d374" stroke-miterlimit="10" stroke-width="3"/>
          <path id="Trazado_652213" data-name="Trazado 652213" d="M1004.5,1133.706c.334,10-1.332,20.333-1.332,30.333" fill="none" stroke="#00d374" stroke-miterlimit="10" stroke-width="3"/>
          <path id="Trazado_652214" data-name="Trazado 652214" d="M1013.5,1136.372c-3.666,8.667-7.666,19-5,28.667" fill="none" stroke="#00d374" stroke-miterlimit="10" stroke-width="3"/>
          <path id="Trazado_652215" data-name="Trazado 652215" d="M1014.837,1152.706c-2.666,3.666-3,8.666-3,13" fill="none" stroke="#00d374" stroke-miterlimit="10" stroke-width="3"/>
        </g>
      </g>
    </g>
    <g id="Grupo_975333" data-name="Grupo 975333" transform="translate(0 35.675)" opacity="0.5">
      <path id="Trazado_652216" data-name="Trazado 652216" d="M762.789,920.092c-.316-6.394,6.775-7.66,11.509-7.72-.53-5.209-1.534-9.459.3-14.7,2.287-6.9,7.889-13.363,14.977-15.343,6.133-1.973,13.722-1.118,18.98,2.611,6.694,4.889,6.058,11.062,8.278,17.9.18-4.506,7.046-5.06,10.382-3.443,4.765,2.072,6.231,5.844,6.765,10.346,3.518-2.651,6.861-.088,7.4,3.931,3.509-2.886,9.67-3.431,13.951-1.832,3.8,1.375,7.673,7.727,10.056,8.41Z" fill="#b1eafb"/>
      <path id="Trazado_652217" data-name="Trazado 652217" d="M1115.524,969.272c.251-6.26-6.7-7.44-11.336-7.454.478-5.1,1.417-9.273-.422-14.38-2.3-6.732-7.841-13.006-14.791-14.886-6.019-1.871-13.445-.968-18.553,2.726-6.512,4.848-5.837,10.881-7.939,17.6-.218-4.407-6.946-4.893-10.2-3.279-4.641,2.072-6.042,5.774-6.521,10.179-3.473-2.56-6.724-.018-7.2,3.922-3.463-2.793-9.5-3.277-13.673-1.669-3.713,1.38-7.441,7.634-9.765,8.315Z" fill="#b1eafb"/>
    </g>
    <g id="Grupo_975340" data-name="Grupo 975340">
      <g id="Grupo_975336" data-name="Grupo 975336">
        <g id="Grupo_975334" data-name="Grupo 975334">
          <path id="Trazado_652218" data-name="Trazado 652218" d="M1071.906,1083.476c0,.736-1.473,1.333-3.29,1.333s-3.289-.6-3.289-1.333,1.473-1.334,3.289-1.334S1071.906,1082.739,1071.906,1083.476Z" fill="#efbb8f"/>
          <path id="Trazado_652219" data-name="Trazado 652219" d="M1075.327,1079.976c0,.367-.766.666-1.711.666s-1.71-.3-1.71-.666.766-.667,1.71-.667S1075.327,1079.608,1075.327,1079.976Z" fill="#efbb8f"/>
          <path id="Trazado_652220" data-name="Trazado 652220" d="M1080.02,1078.809c0,.276-.4.5-.9.5s-.9-.224-.9-.5.4-.5.9-.5S1080.02,1078.533,1080.02,1078.809Z" fill="#efbb8f"/>
          <path id="Trazado_652221" data-name="Trazado 652221" d="M1079.125,1086.086c0,.707-1,1.278-2.233,1.278s-2.232-.571-2.232-1.278,1-1.277,2.232-1.277S1079.125,1085.381,1079.125,1086.086Z" fill="#efbb8f"/>
          <path id="Trazado_652222" data-name="Trazado 652222" d="M1086.327,1072.559c0,.691-1.193,1.25-2.666,1.25s-2.667-.559-2.667-1.25,1.194-1.25,2.667-1.25S1086.327,1071.869,1086.327,1072.559Z" fill="#efbb8f"/>
          <path id="Trazado_652223" data-name="Trazado 652223" d="M1000.312,1044.9c0,.777-1.153,1.408-2.576,1.408s-2.576-.631-2.576-1.408,1.153-1.409,2.576-1.409S1000.312,1044.123,1000.312,1044.9Z" fill="#efbb8f"/>
          <path id="Trazado_652224" data-name="Trazado 652224" d="M1007.327,1042.651c0,.464-1.269.841-2.834.841s-2.833-.377-2.833-.841,1.269-.842,2.833-.842S1007.327,1042.186,1007.327,1042.651Z" fill="#efbb8f"/>
          <path id="Trazado_652225" data-name="Trazado 652225" d="M1008.905,1047.474c0,.643-.987,1.164-2.206,1.164s-2.206-.521-2.206-1.164.988-1.165,2.206-1.165S1008.905,1046.831,1008.905,1047.474Z" fill="#efbb8f"/>
          <path id="Trazado_652226" data-name="Trazado 652226" d="M991.874,1045.6c0,.389-1.307.7-2.918.7s-2.919-.315-2.919-.7,1.307-.7,2.919-.7S991.874,1045.215,991.874,1045.6Z" fill="#efbb8f"/>
          <path id="Trazado_652227" data-name="Trazado 652227" d="M996.092,1050.476c0,.553-.708,1-1.581,1s-1.581-.447-1.581-1,.708-1,1.581-1S996.092,1049.923,996.092,1050.476Z" fill="#efbb8f"/>
          <ellipse id="Elipse_7806" data-name="Elipse 7806" cx="1.417" cy="0.5" rx="1.417" ry="0.5" transform="translate(984.16 1049.476)" fill="#efbb8f"/>
        </g>
        <g id="Grupo_975335" data-name="Grupo 975335">
          <path id="Trazado_652228" data-name="Trazado 652228" d="M1071.906,1083.476c0,.736-1.473,1.333-3.29,1.333s-3.289-.6-3.289-1.333,1.473-1.334,3.289-1.334S1071.906,1082.739,1071.906,1083.476Z" fill="#efbb8f"/>
          <path id="Trazado_652229" data-name="Trazado 652229" d="M1075.327,1079.976c0,.367-.766.666-1.711.666s-1.71-.3-1.71-.666.766-.667,1.71-.667S1075.327,1079.608,1075.327,1079.976Z" fill="#efbb8f"/>
          <path id="Trazado_652230" data-name="Trazado 652230" d="M1080.02,1078.809c0,.276-.4.5-.9.5s-.9-.224-.9-.5.4-.5.9-.5S1080.02,1078.533,1080.02,1078.809Z" fill="#efbb8f"/>
          <path id="Trazado_652231" data-name="Trazado 652231" d="M1079.125,1086.086c0,.707-1,1.278-2.233,1.278s-2.232-.571-2.232-1.278,1-1.277,2.232-1.277S1079.125,1085.381,1079.125,1086.086Z" fill="#efbb8f"/>
          <path id="Trazado_652232" data-name="Trazado 652232" d="M1086.327,1072.559c0,.691-1.193,1.25-2.666,1.25s-2.667-.559-2.667-1.25,1.194-1.25,2.667-1.25S1086.327,1071.869,1086.327,1072.559Z" fill="#efbb8f"/>
          <path id="Trazado_652233" data-name="Trazado 652233" d="M1000.312,1044.9c0,.777-1.153,1.408-2.576,1.408s-2.576-.631-2.576-1.408,1.153-1.409,2.576-1.409S1000.312,1044.123,1000.312,1044.9Z" fill="#efbb8f"/>
          <path id="Trazado_652234" data-name="Trazado 652234" d="M1007.327,1042.651c0,.464-1.269.841-2.834.841s-2.833-.377-2.833-.841,1.269-.842,2.833-.842S1007.327,1042.186,1007.327,1042.651Z" fill="#efbb8f"/>
          <path id="Trazado_652235" data-name="Trazado 652235" d="M1008.905,1047.474c0,.643-.987,1.164-2.206,1.164s-2.206-.521-2.206-1.164.988-1.165,2.206-1.165S1008.905,1046.831,1008.905,1047.474Z" fill="#efbb8f"/>
          <path id="Trazado_652236" data-name="Trazado 652236" d="M991.874,1045.6c0,.389-1.307.7-2.918.7s-2.919-.315-2.919-.7,1.307-.7,2.919-.7S991.874,1045.215,991.874,1045.6Z" fill="#efbb8f"/>
          <path id="Trazado_652237" data-name="Trazado 652237" d="M996.092,1050.476c0,.553-.708,1-1.581,1s-1.581-.447-1.581-1,.708-1,1.581-1S996.092,1049.923,996.092,1050.476Z" fill="#efbb8f"/>
          <ellipse id="Elipse_7807" data-name="Elipse 7807" cx="1.417" cy="0.5" rx="1.417" ry="0.5" transform="translate(984.16 1049.476)" fill="#efbb8f"/>
        </g>
      </g>
      <path id="Trazado_652238" data-name="Trazado 652238" d="M1034.567,1028.448c1.466-1.8.158-5.569,1.876-7.193,1.681-1.837,3.913-.446,5.925-.346,2.481.242,4.776-.594,7.324-1.25,10.876-2.522,21.258-2.743,31.376,3.289,4.755,3.178,8.186,7.691,11.794,11.951,2.239,2.722,3.458,2.07,6.553,3.316,3.384,1.639,2.673,3.977-.485,4.959-4.627,1.455-8.935,2.191-13.454,4.292-4.481,2.318-9.676,5.643-11.958,10.466-1.139,2.411-1.271,5.538-3.887,7.093-3.259,2-8.958,1.7-12.652,1.956a56.227,56.227,0,0,1-14.084-.489c-11.172-2.069-19.438-5.189-25.912-15.089-3-4.588-4.214-11.695-.819-16.487,2.537-3.316,9.5-5.391,13.628-5.874Z" fill="#b59f95"/>
      <path id="Trazado_652239" data-name="Trazado 652239" d="M1064.282,1063.784c3.7-1.164,4.274-4.947,3.931-9.347-.306-3.923-2.949-7.56-5.586-10.257-8.181-8.519-19.066-11.709-30.491-11.4-3.995.235-11.153.464-13.5,4.731-1.786,3.866-.26,11.269,2.092,14.617,6.781,9.655,17.178,12.483,27.8,12.666C1052.1,1064.85,1059.155,1065.393,1064.282,1063.784Z" fill="#988073"/>
      <path id="Trazado_652240" data-name="Trazado 652240" d="M1039.595,1028.033c3.374-1.019,8.7,1.618,11.579,2.9,8.853,3.809,14.123,10,19.65,17.7.73-6.109-5.653-12.336-9.8-15.841a29.4,29.4,0,0,0-14.217-6.661c3.841-.877,10.387,1.109,13.555,2.785,4.393,2.353,9.62,7,11.543,11.774" fill="none" stroke="#988073" stroke-miterlimit="10" stroke-width="1"/>
      <g id="Grupo_975339" data-name="Grupo 975339">
        <g id="Grupo_975338" data-name="Grupo 975338" clip-path="url(#clip-path-2)">
          <path id="Trazado_652241" data-name="Trazado 652241" d="M974.055,1063.663c.1-1.276,1.794-1.775,2.8-1.422-1.688-1.285,2.829-2.478,3.988-1.836.963-1.737,3.8-2.955,5.435-1.348.724-1.907,2.845-3,4.634-1.735.948-1.211,2.3-2.49,3.72-.948.881-.992,2.3-1.864,3.55-.713-.516-1.8,2.136-1.622,2.922-.708-1.251-2.409,1.744-2.081,3.123-1.372-.565-.848.079-1.378.895-1.517.9-.259,1.191.216,1.907.724.01-1.786,2.8-2.052,3.669-.627-.044-2.72,1.585-3.628,3.785-1.8.316-1.838,2.864-2.274,4.043-.9-.212-1.77,1.031-2.3,2.467-1.937.092-.222.184-.444.278-.661-.378-1.086-.258-2.19,1.062-2.165.188-.346.39-.68.6-1.008-.028-1.033.332-1.809,1.323-1.806q.448-.527.957-1.015a2.618,2.618,0,0,1,2.844-2.169c.131-.082.264-.161.4-.24.03-1.591.382-1.694,1.854-2.341.289-.154.442.134.628,0s.322-.579.61-.734c.475-.291,1.154-.616,1.649-.175.437-1.124,3-2.086,3.99-1.206.08-1.378,1.577-1.213,2.494-1.371a19.392,19.392,0,0,1,3.4-1,13.512,13.512,0,0,1,5.691,1.023c1.74.364,3.325,1.159,3.743,2.613.01.037.014.079.024.116l14.476,12.305c.582.95.791,2.174-.671,2.214,1.77.536,1.676,2.441.387,3.5a1.972,1.972,0,0,1,.388,3.5c2.144.263,2.357,2.745.732,4.28,2.377-.824,2.252,2.135,1.2,3.362,1.392-.447,4.49.492,2.729,2.471,1.428-.244,2.821-.691,3.676.632a1.648,1.648,0,0,1-1.214,2.725c3.471.667,1.238,3.565-1.62,2.8.72,1.764-1.791,3.033-3.224,2.018.622,2.412-2,1.812-3.017,1.984-.2.036-.717-.507-1.124-.436s-.677.953-1.084,1.024c-1.02.173-1.358.652-2.278.178.995,2.14-2.983,2.188-4.211,1.14a2.033,2.033,0,0,1-3.6,1.034c-1.222,1.106-2.152.924-2.867.087-.67,1.494-2.561,2.385-3.728.619-.47,1.549-3.388,2.887-3.975.679-.768.862-3.616,2.16-4.327.875-.007,1.466-2.4,1.54-3.335.328.161,2.175-3,1.458-3.131-.514-.486,2.075-2.663,1.608-2.874-.244-.351,1.634-2.937,1.236-3.385-.156.191,1.121-1.369,1.807-2.255,1.538a2.6,2.6,0,0,1-1.454-2.374c-.025,2.312-3.073,1.049-2.824-.567-1.388,1.706-3.245.66-2.88-1.5-.589,1.464-2.1,1.2-2.72.046.485,2.225-2.25,2.8-3.21.862.174,1.019.365,2.14-.994,2.163-1.139.091-1.994-1.233-2.252-2.133-.078,2.007-2.41,1.251-3.145.013a2.188,2.188,0,0,1-.214-.66,3.9,3.9,0,0,1-.587.272c-.9.259-2.773-.262-1.706-1.388a5.864,5.864,0,0,1-2.905.811c-.9-.139-1.839-1.079-.851-1.491-1.274.357-5.369.845-3.562-1.008a3.7,3.7,0,0,1-2.886.913c-.885-.269-1.927-1.455-1.012-2.24-.883.36-1.748.823-2.432-.11a1.044,1.044,0,0,1,.435-1.753c-1.054-.029-2.447.418-3.418-.361-1.211-.946-.6-1.68.587-2.092-2.229-.145-2.661-2.065-.386-2.873-1.462.04-3.051-1.892-1.184-2.631-1.307.328-3.005.829-3.505-.869-1.032,1.33-3.36,1.832-3.827-.291C976.4,1064.52,973.91,1065.89,974.055,1063.663Z" fill="#efbb8f"/>
          <g id="Grupo_975337" data-name="Grupo 975337">
            <path id="Trazado_652242" data-name="Trazado 652242" d="M1031.327,1049.225c0,.967-1.287,1.75-2.876,1.75s-2.875-.783-2.875-1.75,1.287-1.75,2.875-1.75S1031.327,1048.258,1031.327,1049.225Z" fill="#dc9963"/>
            <path id="Trazado_652243" data-name="Trazado 652243" d="M1037.827,1049.306c0,.37-.746.669-1.666.669s-1.667-.3-1.667-.669.746-.668,1.667-.668S1037.827,1048.937,1037.827,1049.306Z" fill="#dc9963"/>
            <path id="Trazado_652244" data-name="Trazado 652244" d="M1039.595,1054.328c0,.633-.769,1.147-1.717,1.147s-1.717-.514-1.717-1.147.769-1.148,1.717-1.148S1039.595,1053.694,1039.595,1054.328Z" fill="#dc9963"/>
            <path id="Trazado_652245" data-name="Trazado 652245" d="M1036.161,1061.218a.864.864,0,1,1-.834-1.09A.988.988,0,0,1,1036.161,1061.218Z" fill="#dc9963"/>
            <path id="Trazado_652246" data-name="Trazado 652246" d="M1022.491,1057.528c0,.213-.634.386-1.416.386s-1.415-.173-1.415-.386.634-.386,1.415-.386S1022.491,1057.315,1022.491,1057.528Z" fill="#dc9963"/>
            <path id="Trazado_652247" data-name="Trazado 652247" d="M1028.452,1055.381c0,.42-.85.761-1.9.761s-1.9-.341-1.9-.761.849-.76,1.9-.76S1028.452,1054.961,1028.452,1055.381Z" fill="#dc9963"/>
            <path id="Trazado_652248" data-name="Trazado 652248" d="M1055.751,1053.761c0,.9-1.14,1.62-2.546,1.62s-2.545-.725-2.545-1.62,1.14-1.619,2.545-1.619S1055.751,1052.868,1055.751,1053.761Z" fill="#dc9963"/>
            <path id="Trazado_652249" data-name="Trazado 652249" d="M1060.16,1057.72c0,.108-.3.194-.667.194s-.666-.086-.666-.194.3-.192.666-.192S1060.16,1057.614,1060.16,1057.72Z" fill="#dc9963"/>
            <path id="Trazado_652250" data-name="Trazado 652250" d="M1063.494,1052.952c0,.447-.746.809-1.667.809s-1.667-.362-1.667-.809.746-.81,1.667-.81S1063.494,1052.5,1063.494,1052.952Z" fill="#dc9963"/>
            <path id="Trazado_652251" data-name="Trazado 652251" d="M1052.16,1047.306c0,.737-1.156,1.332-2.583,1.332s-2.583-.595-2.583-1.332,1.156-1.331,2.583-1.331S1052.16,1046.571,1052.16,1047.306Z" fill="#dc9963"/>
            <path id="Trazado_652252" data-name="Trazado 652252" d="M1054.66,1059.021c0,.611-.746,1.107-1.667,1.107s-1.666-.5-1.666-1.107.746-1.107,1.666-1.107S1054.66,1058.41,1054.66,1059.021Z" fill="#dc9963"/>
            <path id="Trazado_652253" data-name="Trazado 652253" d="M1057.881,1067.144c0,.834-1.046,1.51-2.338,1.51s-2.337-.676-2.337-1.51,1.046-1.509,2.337-1.509S1057.881,1066.311,1057.881,1067.144Z" fill="#dc9963"/>
            <path id="Trazado_652254" data-name="Trazado 652254" d="M1046.994,1051.058a1.468,1.468,0,1,1-1.417-1.083A1.285,1.285,0,0,1,1046.994,1051.058Z" fill="#dc9963"/>
            <path id="Trazado_652255" data-name="Trazado 652255" d="M1044.827,1046.224a1.263,1.263,0,1,1-1.25-1.082A1.175,1.175,0,0,1,1044.827,1046.224Z" fill="#dc9963"/>
            <path id="Trazado_652256" data-name="Trazado 652256" d="M1002.8,1060.1c0,.594-.795,1.075-1.775,1.075s-1.774-.481-1.774-1.075.795-1.076,1.774-1.076S1002.8,1059.5,1002.8,1060.1Z" fill="#dc9963"/>
            <path id="Trazado_652257" data-name="Trazado 652257" d="M1007.827,1058.987c0,.593-.783,1.073-1.75,1.073s-1.75-.48-1.75-1.073.783-1.073,1.75-1.073S1007.827,1058.394,1007.827,1058.987Z" fill="#dc9963"/>
            <path id="Trazado_652258" data-name="Trazado 652258" d="M1014.116,1064.555c0,.6-.7,1.08-1.561,1.08s-1.561-.483-1.561-1.08.7-1.08,1.561-1.08S1014.116,1063.959,1014.116,1064.555Z" fill="#dc9963"/>
            <path id="Trazado_652259" data-name="Trazado 652259" d="M1009.994,1070.392c0,.23-.485.416-1.083.416s-1.084-.186-1.084-.416.485-.417,1.084-.417S1009.994,1070.162,1009.994,1070.392Z" fill="#dc9963"/>
            <path id="Trazado_652260" data-name="Trazado 652260" d="M999.687,1065.836c0,.5-.857.91-1.914.91s-1.915-.408-1.915-.91.858-.91,1.915-.91S999.687,1065.334,999.687,1065.836Z" fill="#dc9963"/>
            <path id="Trazado_652261" data-name="Trazado 652261" d="M1006.077,1066.39c0,.417-.733.754-1.638.754s-1.637-.337-1.637-.754.733-.755,1.637-.755S1006.077,1065.973,1006.077,1066.39Z" fill="#dc9963"/>
            <path id="Trazado_652262" data-name="Trazado 652262" d="M1002.8,1071.441c0,.351-.7.634-1.557.634s-1.558-.283-1.558-.634.7-.633,1.558-.633S1002.8,1071.091,1002.8,1071.441Z" fill="#dc9963"/>
            <path id="Trazado_652263" data-name="Trazado 652263" d="M992.93,1061.586c0,.806-1.083,1.459-2.417,1.459s-2.418-.653-2.418-1.459,1.082-1.458,2.418-1.458S992.93,1060.782,992.93,1061.586Z" fill="#dc9963"/>
            <path id="Trazado_652264" data-name="Trazado 652264" d="M1030.494,1076.892c0,.506-.882.916-1.969.916s-1.97-.41-1.97-.916.882-.917,1.97-.917S1030.494,1076.385,1030.494,1076.892Z" fill="#dc9963"/>
            <path id="Trazado_652265" data-name="Trazado 652265" d="M1022.491,1075.2c0,.428-.484.776-1.082.776s-1.082-.348-1.082-.776.484-.777,1.082-.777S1022.491,1074.77,1022.491,1075.2Z" fill="#dc9963"/>
            <path id="Trazado_652266" data-name="Trazado 652266" d="M1026.555,1071.758c0,.175-.909.317-2.032.317s-2.032-.142-2.032-.317.91-.317,2.032-.317S1026.555,1071.584,1026.555,1071.758Z" fill="#dc9963"/>
            <path id="Trazado_652267" data-name="Trazado 652267" d="M1035.327,1070.069c0,.408-.709.739-1.583.739s-1.584-.331-1.584-.739.709-.739,1.584-.739S1035.327,1069.661,1035.327,1070.069Z" fill="#dc9963"/>
            <path id="Trazado_652268" data-name="Trazado 652268" d="M1039.286,1074.81c0,.215-.371.389-.828.389s-.827-.174-.827-.389.37-.388.827-.388S1039.286,1074.6,1039.286,1074.81Z" fill="#dc9963"/>
            <ellipse id="Elipse_7808" data-name="Elipse 7808" cx="1.959" cy="1.08" rx="1.959" ry="1.08" transform="translate(1025.576 1063.475)" fill="#dc9963"/>
            <path id="Trazado_652269" data-name="Trazado 652269" d="M1044.827,1066.012c0,.209-.28.378-.625.378s-.625-.169-.625-.378.28-.377.625-.377S1044.827,1065.8,1044.827,1066.012Z" fill="#dc9963"/>
            <path id="Trazado_652270" data-name="Trazado 652270" d="M1050.66,1071.441c0,.351-.485.634-1.083.634s-1.083-.283-1.083-.634.485-.633,1.083-.633S1050.66,1071.091,1050.66,1071.441Z" fill="#dc9963"/>
            <path id="Trazado_652271" data-name="Trazado 652271" d="M1051.327,1062.531c0,.521-.634.944-1.416.944s-1.417-.423-1.417-.944.634-.944,1.417-.944S1051.327,1062.009,1051.327,1062.531Z" fill="#dc9963"/>
            <path id="Trazado_652272" data-name="Trazado 652272" d="M1046.994,1060.1a1.444,1.444,0,1,1-1.4-1.076A1.267,1.267,0,0,1,1046.994,1060.1Z" fill="#dc9963"/>
            <path id="Trazado_652273" data-name="Trazado 652273" d="M1016.327,1054.572c0,.447-.845.809-1.886.809s-1.886-.362-1.886-.809.844-.811,1.886-.811S1016.327,1054.125,1016.327,1054.572Z" fill="#dc9963"/>
            <path id="Trazado_652274" data-name="Trazado 652274" d="M1010.994,1076.433c0,.253-.467.459-1.042.459s-1.041-.206-1.041-.459.466-.458,1.041-.458S1010.994,1076.18,1010.994,1076.433Z" fill="#dc9963"/>
            <path id="Trazado_652275" data-name="Trazado 652275" d="M1014.441,1074.617c0,.107-.585.193-1.307.193s-1.307-.086-1.307-.193.585-.195,1.307-.195S1014.441,1074.509,1014.441,1074.617Z" fill="#dc9963"/>
            <path id="Trazado_652276" data-name="Trazado 652276" d="M995.16,1071.441c0,.351-.735.634-1.643.634s-1.643-.283-1.643-.634.736-.633,1.643-.633S995.16,1071.091,995.16,1071.441Z" fill="#dc9963"/>
            <path id="Trazado_652277" data-name="Trazado 652277" d="M1048.494,1076.056c0,.475-.821.859-1.833.859s-1.834-.384-1.834-.859.821-.857,1.834-.857S1048.494,1075.583,1048.494,1076.056Z" fill="#dc9963"/>
            <path id="Trazado_652278" data-name="Trazado 652278" d="M1059.493,1074.42c0,.43-.837.779-1.871.779s-1.871-.349-1.871-.779.838-.778,1.871-.778S1059.493,1073.991,1059.493,1074.42Z" fill="#dc9963"/>
            <path id="Trazado_652279" data-name="Trazado 652279" d="M1066.827,1066.389c0,.417-.485.755-1.084.755s-1.083-.338-1.083-.755.485-.754,1.083-.754S1066.827,1065.973,1066.827,1066.389Z" fill="#dc9963"/>
            <path id="Trazado_652280" data-name="Trazado 652280" d="M1069.494,1071.283c0,.262-.6.474-1.333.474s-1.334-.212-1.334-.474.6-.475,1.334-.475S1069.494,1071.021,1069.494,1071.283Z" fill="#dc9963"/>
          </g>
        </g>
      </g>
    </g>
    <g id="Grupo_975365" data-name="Grupo 975365">
      <path id="Trazado_652282" data-name="Trazado 652282" d="M938.946,1079.177c-7.7-1.524-73.618-11.482-67.077,5.96.964,2.573,2.573,2.573.643,4.824-1.608,1.608-5.789,1.93-7.719,2.251-4.5.644-9.97.965-12.543,5.468-11.256,19.618,33.448,34.412,45.67,38.272,18.653,5.789,36.663,11.258,56.282,12.543a55.014,55.014,0,0,0,12.543-.321c5.146-.644,7.719-2.574,11.9-5.146,7.077-4.5,17.368.965,25.409.642,7.4-.321,20.582-2.572,24.441-10.291,5.146-10.292-12.863-15.116-18.652-18.975-4.5-3.216-.965-7.719-5.469-10.935a121.825,121.825,0,0,0-34.152-16.307C959.9,1084.175,949.5,1081.267,938.946,1079.177Z" fill="#988073" opacity="0.5" style="mix-blend-mode: multiply;isolation: isolate"/>
      <g id="Grupo_975364" data-name="Grupo 975364">
        <g id="Grupo_975346" data-name="Grupo 975346">
          <g id="Grupo_975341" data-name="Grupo 975341">
            <path id="Trazado_652283" data-name="Trazado 652283" d="M941.055,1113.3c-2.25.25-2,2.75-2,4.75,0,3.25-.25,4.5,2.75,5.75,2.5.75,5,1.25,7.25.5,1.25-.5,1.5-2,2.75-1.75,2,.25,1.5,2.25,2.25,3.25,2,2,4.749,2.5,7.5,2.75a41.781,41.781,0,0,0,15.75-.5c2.75-.75,7-4,4.75-7.75-1.75-2.75-7.75,0-10.75,0-4,.25-7.25-1-10.75-2.5-3-1.25-6-3.5-9.5-3.25Z" fill="#d5b369"/>
            <path id="Trazado_652284" data-name="Trazado 652284" d="M938.555,1070.051s.75,15.5,1.25,23.25c.25,2.75.25,5.25.25,8s-1,4.75-1.25,7.5c-.25,2-.5,5.5.75,6.75,1.5,1.75,5.75,2.25,8,2.5,1,.25,3-.25,4.25.25,1.5.5,2.749,2.25,4.5,3,2.75,1.25,6.5,1.5,9.5,1.5,5,0,14.986-.543,15.75-3.25.441-7.459-4-8.5-9-10.5-2.5-1.25-5.75-1.5-7.5-4-1.25-2.25-1-5.75-1.25-8.25-.75-5.5-1-11-1.25-16.5-.25-3,.25-13,.25-13Z" fill="#ffe56f"/>
          </g>
          <g id="Grupo_975342" data-name="Grupo 975342">
            <path id="Trazado_652285" data-name="Trazado 652285" d="M887.139,1113.385c0,2.666-.834,5.834-.667,8.5.167,2,1.5,3,3.5,3.166,2.667.334,2.833,0,4.667,2.334,3,4,5.666,6.166,10.833,6.5a64.015,64.015,0,0,0,11.333.334c2.5-.334,7.167-.834,8.833-2.668,2.5-2.5,1.5-7-2.333-5.666-3.667,1.5-8.5,3.834-11.833.5-1.834-1.834-1.167-4.334-2.333-6.166-1.334-2-4.167-2.334-6.167-3Z" fill="#d5b369"/>
            <path id="Trazado_652286" data-name="Trazado 652286" d="M889.3,1067.719c0,7.666-.166,15.332-.5,22.832-.166,4-.666,7.834-.666,11.668,0,4-1.5,7-1.5,10.832,0,.834-.5,3.834,0,4.5.833,1.168,3.5.834,4.666,1.334,1.834.834,2.667,3,4,4.666a18.884,18.884,0,0,0,4.834,4.168c6.666,4.166,14.333,3.832,21.666,1.5a9.855,9.855,0,0,0,4.333-3.027c.872-6.807-2.833-8.141-6.666-10.141-3.667-1.832-8.334-4-9.167-8.5-.833-4,0-8.832.333-12.832.667-9,.834-18.334,2.167-27.334Z" fill="#ffe56f"/>
          </g>
          <g id="Grupo_975345" data-name="Grupo 975345">
            <path id="Trazado_652287" data-name="Trazado 652287" d="M889.8,980.3c2.5,12,1.5,24.75,1.5,37,0,5.25-.25,10.25-.25,15.5-.25,2.5-.5,5-.5,7.5,0,4.25-1.5,4.25-3.5,7.75-3,5.75,4,8.75,1.25,14-1.5,3-4,4.5-.5,7.25a17.7,17.7,0,0,0,8,2.5,52.009,52.009,0,0,0,16.5-.75c3-.75,5.75-1.5,4.5-5-.25-1-2-2.25-1.75-3.25.5-1.75,3-1.75,3.25-3.75.25-2.5-2.75-3.75-2.5-6.5.25-1.75,2-4.5,2.5-6.5,1.25-5,5.375-39,6.875-42.749,0,0,11.125,50.5,11.125,51.749-.25,2.5-1.25,1.25-2.5,3-1.25,1.5-1.25,2.5,0,3.75,1.5,1.75,2.25-.25,1.75,2.5-.5,3.5-3.25,4.5,1.25,6.5,4.75,2.25,11,1.75,16,1.25,3.5-.25,13.749.5,15-4,.75-3-3.25-4.5-2.75-7.5.25-1.5,1.5-1.75,1-3.75-.5-1.75-2.75-2.25-3.75-4-1.75-4-.5-11.5-.75-15.75a90.05,90.05,0,0,0-3-16c-1.5-5-1.25-10-1.75-15.249-1-10-3.5-20-5.5-29.75Z" fill="#d9ab7f"/>
            <g id="Grupo_975343" data-name="Grupo 975343">
              <path id="Trazado_652288" data-name="Trazado 652288" d="M910.3,1052.8c-5,2.125-11.875,1.25-17.125,1.25" fill="none" stroke="#a17751" stroke-miterlimit="10" stroke-width="1"/>
              <path id="Trazado_652289" data-name="Trazado 652289" d="M893.93,1057.3c1.25,2,7.125,2.25,9.125,2.5,3.25.125,6.625-.125,9.75,0,0,2-5.875,3-7.5,3.125a30.977,30.977,0,0,1-9-.75c-.5-.125-2.375-.75-2.875-.375-1,.75.75,2.125,1.5,2.5,4.125,2.75,10.5,2.625,15.125,2" fill="none" stroke="#a17751" stroke-miterlimit="10" stroke-width="1"/>
            </g>
            <g id="Grupo_975344" data-name="Grupo 975344">
              <path id="Trazado_652290" data-name="Trazado 652290" d="M957.929,1052.676A45.565,45.565,0,0,1,947.8,1054.8c-2,.375-6.75-.125-7.875,2.125,3.125,1.125,7.375.5,10.75.875,2.75.25,6.624.125,9.124,1.375,1.25.625,1.25.875,0,1.625-1.75.875-4.125,1.125-5.874,1.625a24.672,24.672,0,0,1-7.375,1.25c-2.25-.125-4.375-.875-6.625-1" fill="none" stroke="#a17751" stroke-miterlimit="10" stroke-width="1"/>
              <path id="Trazado_652291" data-name="Trazado 652291" d="M940.43,1065.426c2.25,1.125,5.5,1,7.875,1.125,4.375.25,9.249.5,13.249-1.75" fill="none" stroke="#a17751" stroke-miterlimit="10" stroke-width="1"/>
            </g>
          </g>
        </g>
        <g id="Grupo_975357" data-name="Grupo 975357">
          <g id="Grupo_975348" data-name="Grupo 975348">
            <path id="Trazado_652292" data-name="Trazado 652292" d="M974.9,950.985s.074,22.257,1.4,24.817c4.449,8.581,14.334,23.083,17.668,30.083,3.332,6-3,14.334,7,16.666,3.332.668,9-.332,9.332-4.332.334-3.668-3.666-5.668-5.332-8.668-3.334-6-13.911-30.791-15.245-37.125s-1.423-17.208-1.423-23.541Z" fill="#ffa97e"/>
            <g id="Grupo_975347" data-name="Grupo 975347">
              <path id="Trazado_652293" data-name="Trazado 652293" d="M976.9,912.837c7.235,9.382,11.151,14.465,12.151,23.965.25,3.25,0,5,1.75,7.75a23.874,23.874,0,0,1,3,4c1,2.25,1.5,1.5-.5,3.25-3.5,3.25-12.75,3.5-17.5,3.75a58.708,58.708,0,0,1-6.75.25c-.25-1.75.5-3,.5-4.5a14.8,14.8,0,0,0-1.25-4.75,58.945,58.945,0,0,1-.5-9.25Z" fill="#03475f"/>
              <path id="Trazado_652294" data-name="Trazado 652294" d="M984.995,943.462c-3.666,1.043-9,1.854-11.334,4.287,4.168,1.506,9.668-.231,14,.695-.166,1.391-4.5,1.854-6,2.086-3.5.579-6.666.811-9.666-.7" fill="none" stroke="#05697e" stroke-miterlimit="10" stroke-width="1"/>
            </g>
          </g>
          <g id="Grupo_975349" data-name="Grupo 975349">
            <path id="Trazado_652295" data-name="Trazado 652295" d="M885.639,980.385c1.666.834,4,1,6,1.334a62.413,62.413,0,0,0,12.5,1.333c10.166.333,20.666.667,30.833.167,7-.334,13.5-3,20.332-4.167-.5-3.833-4.666-7.167-5.332-11.167-.667-2.833,2.333-1.666,3.666-4s-1.333-4.666-2.666-6.333c-2-2.5.666-3.333,2.833-5,2-1.5,3.833-3,5.833-4.5,3.834-2.833,7-6.167,10.5-9.167,6-5,15-12,10.5-20.5-4.5-8.333-12.834-15.333-22.166-17-8.5-1.5-17.834,0-26,2.167-8.5,2.333-16.167,5.916-22.834,12.25-6.5,6.5-12,12.417-15.333,20.917a117.25,117.25,0,0,0-4.5,12,30.98,30.98,0,0,0-1.166,5.666c-.334,2.667-1.334,3.5-2.667,5.667-2.333,3.667,1.667,5.833,1.167,9.5-.334,2-1.5,5-1.834,6.667Z" fill="#05697e"/>
            <path id="Trazado_652296" data-name="Trazado 652296" d="M963.138,927.385c-1.666.667-2.5,1.667-4.166,2.167-3.668.833-6.834.667-10-1.5-7.834-5.333-5.834-19.333,3.333-22,4.833-1.5,11,.333,14,4.5a11.391,11.391,0,0,1,2,7.333c-.166,1.834-.832,5.834-2.666,6.667Z" fill="#f77b65"/>
            <path id="Trazado_652297" data-name="Trazado 652297" d="M943.138,957.719c-11,3.5-23.666.833-35,1.833-1.5.167-5.834-.333-5.167,2.167.667,2.333,7.5,3,9.333,3.166a116.173,116.173,0,0,0,22.833-.333c1.834-.333,10.5-2.333,10.5.667,0,3.833-11.5,5-13.833,5.333a66.874,66.874,0,0,1-16.333,1.167c-5.5-.167-10.5-2.167-15.833-3.5" fill="none" stroke="#03475f" stroke-miterlimit="10" stroke-width="1"/>
          </g>
          <g id="Grupo_975356" data-name="Grupo 975356">
            <path id="Trazado_652298" data-name="Trazado 652298" d="M917.3,949.385c.833,7.5.667,15.167.667,22.667,0,1.5-.334,3.5,0,4.833.5,2,2.166,3.334,3.666,4.667a54.032,54.032,0,0,0,9.5,7.833c6.5,4.167,13,9.334,20,12.667,2.667,1.334,8,.834,6-3.333-1.834-3.667-6.833-6.667-9.666-9.334-3.667-3.333-6.667-7-10.5-10.166a32.049,32.049,0,0,1-4.834-4.667c-1.333-1.667-1-2.833-.833-5,.333-6.833,0-13.5,0-20.333Z" fill="#ffa97e"/>
            <g id="Grupo_975353" data-name="Grupo 975353">
              <path id="Trazado_652299" data-name="Trazado 652299" d="M951.3,993.552a24.625,24.625,0,0,0,5.5,2.834c2.5.833,7-.334,8.834,1.5,1.334,1.5,1,3.666,2,5.166.5.834,3.334,3.5,2.666,4.667-.832,1-9.166-1.667-10.5-2.167-1.5-.5-7.166-2.166-7.332-3.5Z" fill="#ffa97e"/>
              <g id="Grupo_975350" data-name="Grupo 975350">
                <path id="Trazado_652300" data-name="Trazado 652300" d="M1090.638,1044.885s-137.326-42.33-162-51c-1.889-.663-4.359-.971-5.7.813-1.445,1.924-1.433,5.869.9,6.968,1.951.918,4.594.975,6.679,1.6q5.511,1.65,11.02,3.314,16.714,5.035,33.423,10.1,20.088,6.082,40.172,12.176,19.962,6.062,39.908,12.166,14.967,4.591,29.91,9.254c1.006.312,2.012.623,3.016.941C1087.972,1051.219,1092.97,1051.885,1090.638,1044.885Z" fill="#522317"/>
                <path id="Trazado_652301" data-name="Trazado 652301" d="M1116.679,1092.176c-.25-3.25-2.75-24.625-3.125-30.375a43.24,43.24,0,0,0-1.625-8,7.375,7.375,0,0,0-1.346-3.168c-1.576-2.535-4.645-3.211-7.2-4.248-1.75-.666-3.416-1.334-5.166-2.084-1.918-.75-3.918-2.166-5.918-2.666-3.5-.834-6.666,4.5-7.082,7.416-.168,1.584-.168,5.084,1.25,6.25a10.258,10.258,0,0,0,2.416.834c.75.25,1.5.666,2.334.916,1.906.694,4.453,1.67,5.724,3.426-1.031,10.709-3.053,27.836-3.674,33.158-.125,1.25-.593,4.625,1.032,5a2.733,2.733,0,0,0,3.125-1.709c.875-1.625.625-29.125,5.125-28.875,1.818.1.625,18.875,1.125,26.625.113,1.752-.25,2.625,1.625,2.75s2-.75,2.25-2.5c.875-6.75-.733-26.414,2.625-26.875,2.388-.328,2.25,21.875,2.5,25.125.125,2,.1,3.776,2.875,3C1117.35,1095.676,1116.8,1094.051,1116.679,1092.176Z" fill="#6c8197"/>
              </g>
              <g id="Grupo_975352" data-name="Grupo 975352">
                <g id="Grupo_975351" data-name="Grupo 975351">
                  <path id="Trazado_652302" data-name="Trazado 652302" d="M996.69,1024.963a20.708,20.708,0,0,0-.443-2.75c-.315-1.332-1.768-2.25-2.779-1.416-1.075.834-.254,4.084.568,4.916.633.668,2.592,1.25,3.033.084Z" fill="#ffa97e" stroke="#db5e4b" stroke-miterlimit="10" stroke-width="1"/>
                  <path id="Trazado_652303" data-name="Trazado 652303" d="M1001.3,1027.213a2.42,2.42,0,0,1-2.149,1.168c-1.9.082-2.086-1.584-2.465-3.668-.189-1.25-.822-3.832,0-4.75a2.09,2.09,0,0,1,3.477.668,15.58,15.58,0,0,1,.506,1.582Z" fill="#ffa97e" stroke="#db5e4b" stroke-miterlimit="10" stroke-width="1"/>
                  <path id="Trazado_652304" data-name="Trazado 652304" d="M1006.171,1028.213a5.159,5.159,0,0,1-3.287.668c-2.276-.084-2.717-2.834-2.844-5.418-.127-1.916-.7-4.25,1.012-5,1.453-.666,2.716-.75,3.347,1.418a16.658,16.658,0,0,1,.254,1.75Z" fill="#ffa97e" stroke="#db5e4b" stroke-miterlimit="10" stroke-width="1"/>
                  <path id="Trazado_652305" data-name="Trazado 652305" d="M1010.214,1027.631c-.19,1.332-2.338,1.25-3.034,1-2.021-.668-2.4-3.75-2.591-6.168a17.215,17.215,0,0,1-.315-3.582c.125-1.084.7-1.25,1.58-1.334,1.705-.084,2.528,2.084,3.16,3.916a17.9,17.9,0,0,1,.379,2Z" fill="#ffa97e" stroke="#db5e4b" stroke-miterlimit="10" stroke-width="1"/>
                </g>
                <path id="Trazado_652306" data-name="Trazado 652306" d="M1002.8,1014.051a6.265,6.265,0,0,0,1.334,4.334c1.666,2,4,2.334,6.5,2.334.584,2.082,1.084,4.5,2.25,6.332.416.668,1.416,1.75,2.416,1.084.668-.5.5-2,.5-2.75a18.5,18.5,0,0,0-1-4.75c-.416-1.416-.916-3.75-2.082-4.666-1.25-1.084-3.084-1.5-4.418-2.584a19.825,19.825,0,0,1-3.416-4" fill="#ffa97e" stroke="#db5e4b" stroke-miterlimit="10" stroke-width="1"/>
              </g>
              <path id="Trazado_652307" data-name="Trazado 652307" d="M963.8,1003.552c-2.5,1.834.668,8.5,1.5,10.5.5,1.5,1.5,3,0,4.168-1.5,1.332-3.666.332-4.666-.834-.334-.5-.834-2-1.166-2.166-.5-.334-1.834.332-2.5.332a3.563,3.563,0,0,1-3.334-3.166c-2.166.334-3.166,1.5-4-1a14.377,14.377,0,0,1-.333-4.666c0-2-.167-6.833,2-7.833Z" fill="#ffa97e"/>
            </g>
            <g id="Grupo_975355" data-name="Grupo 975355">
              <path id="Trazado_652308" data-name="Trazado 652308" d="M908.3,951.052a11.785,11.785,0,0,0,.167-2.5c0-2.667,1-3.167,2.166-5.334s.5-5,.5-7.333a45.5,45.5,0,0,1,.5-6.833c.834-4.834,3-8.667,7.334-11,3.333-1.834,8.166-3.167,11.833-1.334,4,2,6.333,6.334,6.667,10.667.166,1.667.166,3.5.166,5.333-.166,2-1.333,3.667-1.333,5.5-.167,1.5.667,1.167,1.167,2.5.333,1-.167,1.834-.5,2.834-.334.833-1.167,1.5-1,2.5s1,1.333,1.333,2.333c1.5,4.667-6,3.5-8.667,3.833a76.059,76.059,0,0,1-8.666.834c-2.834,0-5.5-.834-8.334-1Z" fill="#1d869a"/>
              <g id="Grupo_975354" data-name="Grupo 975354">
                <path id="Trazado_652309" data-name="Trazado 652309" d="M912.8,947.218c2.667,1.834,7.333,2,10.5,2.167,2.833.167,8.167.667,10.5-1.667" fill="none" stroke="#05697e" stroke-miterlimit="10" stroke-width="1"/>
                <path id="Trazado_652310" data-name="Trazado 652310" d="M930.472,945.718c-3.334,0-6.5.334-9.834.167-1.5-.167-4.833-.333-6-1.5-2.166-2.333,2.667-1.667,4-1.667,2.167,0,4.334,0,6.5.167,1.667.167,5.5,1.333,6.834.5,2.5-1.5-2.834-2.5-4-2.667a32.232,32.232,0,0,0-6.834-1h-4.5" fill="none" stroke="#05697e" stroke-miterlimit="10" stroke-width="1"/>
              </g>
            </g>
          </g>
        </g>
        <g id="Grupo_975363" data-name="Grupo 975363">
          <path id="Trazado_652311" data-name="Trazado 652311" d="M948.638,890.385c-1.5.667-2.166,3.5-2.333,5a10.263,10.263,0,0,0,3.667,9.167c5.5,5,15.332,6.333,22.5,7,4.166.5,8.166,1.5,12.5.667,4.5-.834,7.166-4.667,9-8.667,0,1.833-4,9.333-3.168,10.333,2.334,2.834,5-7.333,5.168-8.5a18.339,18.339,0,0,0-2-10.333c-1.334-2.667-4.168-6.833-7.668-6.833Z" fill="#522317"/>
          <path id="Trazado_652312" data-name="Trazado 652312" d="M951.972,903.385c-.667,1.334-.5,3.334-.667,4.834-.167,2.833-.667,6.333.167,9.166,1.333,3.334,4.5,7.334,6.832,10,2.168,2.834,4.162,5.1,8,4.1a21.767,21.767,0,0,0,10.172-6.432,10.369,10.369,0,0,0,2.5-4.833c.666-2.334,1.666-3,3.5-4.834,6-6,9.666-14.166,4.166-21.833-7.666-10.833-33-11.167-35,4.833Z" fill="#ffa97e"/>
          <path id="Trazado_652313" data-name="Trazado 652313" d="M952.43,897.8c-1-.625-2.875-.5-4.125-.5-3.125.125-5.375,1.625-5.875,4.75-1.25,7.125,4.25,9.375,9.75,9.375Z" fill="#ffa97e"/>
          <path id="Trazado_652314" data-name="Trazado 652314" d="M950.18,894.552c0,3.75-.75,7.25-.75,11,0,1.375-.25,2.375,1.125,2.875a2.748,2.748,0,0,0,3.375-1c1.124-1.625.874-4.625,1-6.625,1.875.875,5.5-.375,6.875-1.75,1.625-1.5,3.625-4.625,1-5.875-2-.875-4.625-.75-6.75-.875-1.749-.125-4.374.125-5.749-.375Z" fill="#522317"/>
          <g id="Grupo_975359" data-name="Grupo 975359">
            <g id="Grupo_975358" data-name="Grupo 975358">
              <path id="Trazado_652315" data-name="Trazado 652315" d="M969.929,883.552c6.375.25,13.125.375,19.125-1.875a8.5,8.5,0,0,0,1.435-.767c-.059-.287-.117-.574-.185-.858-.75-3.5-1-7.75-2.75-11-1.625-3.125-4-4.75-7.5-4.25-1.375.125-2.75.625-4.25.625-1.75,0-3.5-.125-5.375-.125-4.25,0-8.5-2.5-12.75-1.875-3.374.5-4.749,3.375-5.374,6.625-.51,3.186-.73,6.534-1.1,9.863a25.459,25.459,0,0,0,7.976,2.387A78.7,78.7,0,0,0,969.929,883.552Z" fill="#a17751"/>
              <path id="Trazado_652316" data-name="Trazado 652316" d="M992.054,889.552c-.8-2.841-.975-5.783-1.565-8.642a8.5,8.5,0,0,1-1.435.767c-6,2.25-12.75,2.125-19.125,1.875a78.7,78.7,0,0,1-10.75-1.25,25.459,25.459,0,0,1-7.976-2.387,43.214,43.214,0,0,1-1.9,9.387l2,2.125h.125a37,37,0,0,0,9,1.75c3.625.375,7.375,1.125,11,1.25a80.823,80.823,0,0,0,11-.25c3.25-.375,7.5-.5,10.375-2Z" fill="#854540"/>
              <path id="Trazado_652317" data-name="Trazado 652317" d="M961.054,867.8c.5,2.125,3,3.875,4.875,4.875a14.575,14.575,0,0,0,14.625-1" fill="none" stroke="#745239" stroke-miterlimit="10" stroke-width="1"/>
            </g>
            <path id="Trazado_652318" data-name="Trazado 652318" d="M936.009,881.164a21.82,21.82,0,0,0,2.066,2.3c6.509,5.417,16.992,6.455,25.088,7.243,8.84.86,18.211,1.295,27.016-.026a70,70,0,0,0,7.375-1.5c2.25-.625,5-1.75,7.25-1.75a2.873,2.873,0,0,1,3,2.125c.5,1.875-.614,2.641-2.125,3.25-21.125,8.5-54.385,2.336-59.47,1a26.817,26.817,0,0,1-14.4-9.372c-.875-1.125-2.25-3.625-.749-4.876C932.937,877.983,934.577,879.5,936.009,881.164Z" fill="#d9ab7f"/>
          </g>
          <g id="Grupo_975362" data-name="Grupo 975362">
            <g id="Grupo_975360" data-name="Grupo 975360">
              <path id="Trazado_652319" data-name="Trazado 652319" d="M968.9,902.628a3.13,3.13,0,0,1-1.66.969c-1.107-.07-.969-1.592-.416-2.284a5.6,5.6,0,0,1,3.668-2.007c1.314-.069,1.592,1.038.555,1.73Z" fill="#522317"/>
              <path id="Trazado_652320" data-name="Trazado 652320" d="M983.77,906.393a3.123,3.123,0,0,0,.9,1.7c.978.523,1.66-.845,1.554-1.725a5.593,5.593,0,0,0-2.068-3.634c-1.08-.749-1.9.047-1.379,1.181Z" fill="#522317"/>
            </g>
            <path id="Trazado_652321" data-name="Trazado 652321" d="M976.169,909.686a8.991,8.991,0,0,0-.487,3.322,35.964,35.964,0,0,0,.278,5.467c.209,1.591-.069,2.56-1.66,3.252a6.889,6.889,0,0,1-4.082.415" fill="none" stroke="#db5e4b" stroke-miterlimit="10" stroke-width="1"/>
            <path id="Trazado_652322" data-name="Trazado 652322" d="M962.19,921.658c-.138,1.8.76,4.567,2.213,5.535a5.116,5.116,0,0,0,6.022-.622Z" fill="#fff"/>
            <g id="Grupo_975361" data-name="Grupo 975361">
              <path id="Trazado_652323" data-name="Trazado 652323" d="M968.581,910.159c-.692,1.122-1.721,1.743-2.3,1.387s-.488-1.555.2-2.678,1.719-1.745,2.3-1.388S969.27,909.036,968.581,910.159Z" fill="#232020"/>
              <path id="Trazado_652324" data-name="Trazado 652324" d="M980.345,914.426c-.692,1.122-1.721,1.743-2.3,1.388s-.489-1.556.2-2.679,1.719-1.745,2.3-1.388S981.034,913.3,980.345,914.426Z" fill="#232020"/>
            </g>
          </g>
        </g>
      </g>
    </g>
    <g id="Grupo_975375" data-name="Grupo 975375" transform="translate(0 -2.042)">
      <g id="Grupo_975366" data-name="Grupo 975366" transform="translate(733.246 1104.012)">
        <path id="Trazado_652325" data-name="Trazado 652325" d="M790.376,1153.69c0,.424-1.485.768-3.316.768s-3.315-.344-3.315-.768,1.484-.768,3.315-.768S790.376,1153.266,790.376,1153.69Z" transform="translate(-740.075 -1118.732)" fill="#efbb8f"/>
        <path id="Trazado_652326" data-name="Trazado 652326" d="M794.782,1162.184c0,.637-1.2,1.154-2.684,1.154s-2.685-.516-2.685-1.154,1.2-1.153,2.685-1.153S794.782,1161.546,794.782,1162.184Z" transform="translate(-740.842 -1119.828)" fill="#efbb8f"/>
        <path id="Trazado_652327" data-name="Trazado 652327" d="M790.895,1168.947c0,.507-.742.917-1.658.917s-1.658-.41-1.658-.917.742-.916,1.658-.916S790.895,1168.441,790.895,1168.947Z" transform="translate(-740.594 -1120.775)" fill="#efbb8f"/>
        <path id="Trazado_652328" data-name="Trazado 652328" d="M785.053,1160.085c0,.4-1.039.72-2.32.72s-2.32-.323-2.32-.72,1.039-.721,2.32-.721S785.053,1159.687,785.053,1160.085Z" transform="translate(-739.625 -1119.603)" fill="#efbb8f"/>
        <path id="Trazado_652329" data-name="Trazado 652329" d="M780.952,1150.529c0,1.007-1.613,1.823-3.6,1.823s-3.6-.816-3.6-1.823,1.613-1.822,3.6-1.822S780.952,1149.522,780.952,1150.529Z" transform="translate(-738.723 -1118.162)" fill="#efbb8f"/>
        <path id="Trazado_652330" data-name="Trazado 652330" d="M770.8,1158.159c0,.508-1.355.918-3.027.918s-3.027-.411-3.027-.918,1.355-.917,3.027-.917S770.8,1157.652,770.8,1158.159Z" transform="translate(-737.506 -1119.316)" fill="#efbb8f"/>
        <path id="Trazado_652331" data-name="Trazado 652331" d="M746.178,1131.907c0,.478-1.29.867-2.882.867s-2.882-.388-2.882-.867,1.29-.867,2.882-.867S746.178,1131.428,746.178,1131.907Z" transform="translate(-734.215 -1115.773)" fill="#efbb8f"/>
        <path id="Trazado_652332" data-name="Trazado 652332" d="M750.98,1126.959c0,.351-1.1.636-2.45.636s-2.451-.285-2.451-.636,1.1-.636,2.451-.636S750.98,1126.608,750.98,1126.959Z" transform="translate(-734.982 -1115.135)" fill="#efbb8f"/>
        <path id="Trazado_652333" data-name="Trazado 652333" d="M741.682,1124.931c0,.585-.807,1.06-1.8,1.06s-1.8-.475-1.8-1.06.807-1.06,1.8-1.06S741.682,1124.345,741.682,1124.931Z" transform="translate(-733.9 -1114.803)" fill="#efbb8f"/>
        <path id="Trazado_652334" data-name="Trazado 652334" d="M750.552,1121.266c0,.392-.516.709-1.154.709s-1.153-.317-1.153-.709.516-.71,1.153-.71S750.552,1120.873,750.552,1121.266Z" transform="translate(-735.275 -1114.355)" fill="#efbb8f"/>
        <ellipse id="Elipse_7809" data-name="Elipse 7809" cx="2.45" cy="0.72" rx="2.45" ry="0.72" transform="translate(11.097 20.448)" fill="#efbb8f"/>
        <path id="Trazado_652335" data-name="Trazado 652335" d="M738.327,1136.717c0,.483-.84.873-1.874.873s-1.874-.391-1.874-.873.839-.873,1.874-.873S738.327,1136.235,738.327,1136.717Z" transform="translate(-733.426 -1116.422)" fill="#efbb8f"/>
        <ellipse id="Elipse_7810" data-name="Elipse 7810" cx="2.09" cy="0.649" rx="2.09" ry="0.649" transform="translate(0 24.772)" fill="#efbb8f"/>
        <path id="Trazado_652336" data-name="Trazado 652336" d="M754.384,1147.85c0,.361-.777.653-1.736.653s-1.736-.292-1.736-.653.777-.653,1.736-.653S754.384,1147.489,754.384,1147.85Z" transform="translate(-735.635 -1117.958)" fill="#efbb8f"/>
        <path id="Trazado_652337" data-name="Trazado 652337" d="M754.384,1113.845c0,.253-.777.459-1.736.459s-1.736-.206-1.736-.459.777-.46,1.736-.46S754.384,1113.592,754.384,1113.845Z" transform="translate(-735.635 -1113.385)" fill="#efbb8f"/>
        <path id="Trazado_652338" data-name="Trazado 652338" d="M800.477,1159.725c0,.2-.386.361-.861.361s-.86-.162-.86-.361.386-.361.86-.361S800.477,1159.525,800.477,1159.725Z" transform="translate(-742.105 -1119.603)" fill="#efbb8f"/>
        <path id="Trazado_652339" data-name="Trazado 652339" d="M790.651,1182.967c0,.516-1.091.937-2.436.937s-2.436-.42-2.436-.937,1.09-.937,2.436-.937S790.651,1182.449,790.651,1182.967Z" transform="translate(-740.35 -1122.668)" fill="#efbb8f"/>
        <path id="Trazado_652340" data-name="Trazado 652340" d="M884.8,1178.039c0,.557-.907,1.009-2.027,1.009s-2.026-.452-2.026-1.009.907-1.009,2.026-1.009S884.8,1177.481,884.8,1178.039Z" transform="translate(-753.193 -1121.992)" fill="#efbb8f"/>
        <ellipse id="Elipse_7811" data-name="Elipse 7811" cx="1.73" cy="0.865" rx="1.73" ry="0.865" transform="translate(133.03 53.308)" fill="#efbb8f"/>
        <path id="Trazado_652341" data-name="Trazado 652341" d="M892.827,1180.44c0,.318-.84.577-1.874.577s-1.874-.259-1.874-.577.839-.576,1.874-.576S892.827,1180.123,892.827,1180.44Z" transform="translate(-754.32 -1122.375)" fill="#efbb8f"/>
        <path id="Trazado_652342" data-name="Trazado 652342" d="M896.728,1187.622c0,.452-.742.819-1.658.819s-1.657-.367-1.657-.819.741-.82,1.657-.82S896.728,1187.169,896.728,1187.622Z" transform="translate(-754.906 -1123.313)" fill="#efbb8f"/>
        <path id="Trazado_652343" data-name="Trazado 652343" d="M902.462,1186.175c0,.264-.646.477-1.442.477s-1.442-.214-1.442-.477.645-.478,1.442-.478S902.462,1185.911,902.462,1186.175Z" transform="translate(-755.74 -1123.164)" fill="#efbb8f"/>
        <ellipse id="Elipse_7812" data-name="Elipse 7812" cx="2.45" cy="1.009" rx="2.45" ry="1.009" transform="translate(139.515 71.901)" fill="#efbb8f"/>
        <path id="Trazado_652344" data-name="Trazado 652344" d="M903.993,1180.156c0,.438-.839.793-1.873.793s-1.874-.355-1.874-.793.839-.792,1.874-.792S903.993,1179.719,903.993,1180.156Z" transform="translate(-755.83 -1122.308)" fill="#efbb8f"/>
        <path id="Trazado_652345" data-name="Trazado 652345" d="M886.448,1208.823c0,.508-.9.919-2.018.919s-2.017-.412-2.017-.919.9-.918,2.017-.918S886.448,1208.316,886.448,1208.823Z" transform="translate(-753.419 -1126.167)" fill="#efbb8f"/>
        <ellipse id="Elipse_7813" data-name="Elipse 7813" cx="1.586" cy="0.666" rx="1.586" ry="0.666" transform="translate(134.759 80.405)" fill="#efbb8f"/>
        <ellipse id="Elipse_7814" data-name="Elipse 7814" cx="0.793" cy="0.432" rx="0.793" ry="0.432" transform="translate(137.93 86.17)" fill="#efbb8f"/>
        <ellipse id="Elipse_7815" data-name="Elipse 7815" cx="1.946" cy="0.865" rx="1.946" ry="0.865" transform="translate(48.571 75.504)" fill="#efbb8f"/>
        <path id="Trazado_652346" data-name="Trazado 652346" d="M794.016,1197.035c0,.279-.807.5-1.8.5s-1.8-.226-1.8-.5.806-.505,1.8-.505S794.016,1196.757,794.016,1197.035Z" transform="translate(-740.977 -1124.629)" fill="#efbb8f"/>
        <ellipse id="Elipse_7816" data-name="Elipse 7816" cx="1.939" cy="0.649" rx="1.939" ry="0.649" transform="translate(43.108 69.451)" fill="#efbb8f"/>
        <path id="Trazado_652347" data-name="Trazado 652347" d="M791.154,1190.629c0,.239-.372.432-.829.432s-.828-.194-.828-.432.371-.432.828-.432S791.154,1190.39,791.154,1190.629Z" transform="translate(-740.853 -1123.773)" fill="#efbb8f"/>
        <path id="Trazado_652348" data-name="Trazado 652348" d="M774.547,1186.205c0,.65-1,1.177-2.234,1.177s-2.235-.527-2.235-1.177,1-1.175,2.235-1.175S774.547,1185.556,774.547,1186.205Z" transform="translate(-738.227 -1123.074)" fill="#efbb8f"/>
        <path id="Trazado_652349" data-name="Trazado 652349" d="M813.38,1210.895c0,.478-1,.865-2.234.865s-2.234-.387-2.234-.865,1-.865,2.234-.865S813.38,1210.417,813.38,1210.895Z" transform="translate(-743.479 -1126.455)" fill="#efbb8f"/>
        <path id="Trazado_652350" data-name="Trazado 652350" d="M819.448,1214.823c0,.438-.9.793-2.018.793s-2.017-.355-2.017-.793.9-.793,2.017-.793S819.448,1214.385,819.448,1214.823Z" transform="translate(-744.358 -1126.996)" fill="#efbb8f"/>
        <path id="Trazado_652351" data-name="Trazado 652351" d="M825.03,1211.462c0,.239-.549.432-1.225.432s-1.225-.194-1.225-.432.548-.432,1.225-.432S825.03,1211.223,825.03,1211.462Z" transform="translate(-745.327 -1126.59)" fill="#efbb8f"/>
        <path id="Trazado_652352" data-name="Trazado 652352" d="M835.813,1220.634c0,.517-1.1.938-2.45.938s-2.45-.42-2.45-.937,1.1-.937,2.45-.937S835.813,1220.116,835.813,1220.634Z" transform="translate(-746.454 -1127.762)" fill="#efbb8f"/>
        <path id="Trazado_652353" data-name="Trazado 652353" d="M846.228,1213.462c0,.239-.742.432-1.658.432s-1.657-.194-1.657-.432.741-.432,1.657-.432S846.228,1213.223,846.228,1213.462Z" transform="translate(-748.077 -1126.86)" fill="#efbb8f"/>
        <path id="Trazado_652354" data-name="Trazado 652354" d="M849.628,1217.751c0,.4-.645.72-1.441.72s-1.442-.323-1.442-.72.645-.721,1.442-.721S849.628,1217.353,849.628,1217.751Z" transform="translate(-748.595 -1127.401)" fill="#efbb8f"/>
        <path id="Trazado_652355" data-name="Trazado 652355" d="M861.395,1213.859c0,.457-.742.828-1.658.828s-1.658-.371-1.658-.828.742-.829,1.658-.829S861.395,1213.4,861.395,1213.859Z" transform="translate(-750.128 -1126.86)" fill="#efbb8f"/>
        <ellipse id="Elipse_7817" data-name="Elipse 7817" cx="1.73" cy="0.432" rx="1.73" ry="0.432" transform="translate(117.176 83.575)" fill="#efbb8f"/>
        <path id="Trazado_652356" data-name="Trazado 652356" d="M874.237,1213.859c0,.457-.782.828-1.745.828s-1.746-.371-1.746-.828.782-.829,1.746-.829S874.237,1213.4,874.237,1213.859Z" transform="translate(-751.841 -1126.86)" fill="#efbb8f"/>
        <path id="Trazado_652357" data-name="Trazado 652357" d="M880.092,1214.823c0,.438-.936.793-2.09.793s-2.089-.355-2.089-.793.936-.793,2.089-.793S880.092,1214.385,880.092,1214.823Z" transform="translate(-752.539 -1126.996)" fill="#efbb8f"/>
        <path id="Trazado_652358" data-name="Trazado 652358" d="M844.851,1216.208c0,.7-1.282,1.262-2.863,1.262s-2.862-.566-2.862-1.262,1.282-1.261,2.862-1.261S844.851,1215.512,844.851,1216.208Z" transform="translate(-747.565 -1127.12)" fill="#efbb8f"/>
      </g>
      <g id="Grupo_975370" data-name="Grupo 975370" transform="translate(751.995 1044.074)">
        <path id="Trazado_652359" data-name="Trazado 652359" d="M759.453,1077.928c0,11.674.649,23.133-2.162,34.591-1.081,4.756-3.243,10.161,0,14.485,3.675,4.54,9.512,5.189,14.7,6.053a174.1,174.1,0,0,0,33.51,3.027c6.27,0,26.375-2.378,24.646-12.323-.865-5.621-7.351-8.431-7.134-14.485.216-2.594,1.73-4.972,2.162-7.35a19.722,19.722,0,0,0-1.081-7.134c-1.513-4.972-.216-9.729-.432-14.7-.216-5.189.649-9.512-5.837-9.3-.432,0-1.081.216-1.73.216Z" transform="translate(-755.015 -1047.687)" fill="#988073"/>
        <path id="Trazado_652360" data-name="Trazado 652360" d="M816.872,1058.206c-4.756.649-6.27.216-10.377-2.162-5.4-3.459-11.674-3.891-17.728-2.378A73.228,73.228,0,0,1,771.9,1055.4c-4.108,0-11.458.216-14.7,2.811-3.675,3.027-.865,9.512-1.513,13.836-.216,2.162-1.3,4.756-.432,6.918,1.3,2.594,4.972,4.324,7.351,5.621,9.729,5.621,22.916,6.918,33.51,3.027,4.972-1.729,9.945-5.4,15.35-4.756,3.675.216,9.729,2.594,12.323-.432,2.81-3.027.865-9.512.865-13.4,0-3.027.432-8.864-2.594-10.594-.582-.579-2.229-.215-2.985-.215A17.809,17.809,0,0,0,816.872,1058.206Z" transform="translate(-754.927 -1045.26)" fill="#b59f95"/>
        <path id="Trazado_652361" data-name="Trazado 652361" d="M820.784,1060.166c2.181-.432,2.45,1.8,2.017,2.666-.865,2.378-4.325,1.8-6.27,2.017-4.54.865-8.648,1.513-13.188,3.243-2.81.865-5.837.865-8.648,1.3-3.027.216-6.053,1.3-8.864,1.73a27.325,27.325,0,0,1-15.566-2.378c-2.378-1.081-12.323-6.27-9.3-9.729,1.73-1.946,10.161-1.081,12.972-1.081a51.2,51.2,0,0,0,11.458-.865c4.54-.649,8.432-2.162,13.188-1.081,5.621,1.081,9.441,4.973,15.278,4.973Z" transform="translate(-755.667 -1045.634)" fill="#988073"/>
        <g id="Grupo_975369" data-name="Grupo 975369" transform="translate(4.735)">
          <g id="Grupo_975368" data-name="Grupo 975368" clip-path="url(#clip-path-3)">
            <path id="Trazado_652362" data-name="Trazado 652362" d="M819.11,1063.627c.757-.7.865-3.021-.432-2.672.108-1.162,0-2.556-1.513-1.975.432-1.279-1.189-2.324-2.054-1.511-.324-.814-1.189-.464-1.73,0-.216.349.108.93-.108,1.162s-.757-.117-.973.115c-.432.581-.432,1.511-.757,1.86-.54.464-1.405-.233-1.513,1.046.216-1.395-.973-2.324-1.838-1.162.54-1.278-1.081-1.858-1.838-1.046.432-.7.216-2.789-.757-1.743.973-1.046.324-3.252-1.189-1.975a1.372,1.372,0,0,0-2.7-.464c.324-1.858-2.811-2.439-2.486-.117-.108-1.161-1.189-2.207-1.946-1.045.649-1.046-.216-3.137-1.405-1.858.432-1.511-1.405-3.37-1.838-1.511-.324-.929-2.054-.929-2.594-.233-.649.581-.432,1.511-.432,2.325-.071-1.222-1.353-1.136-2.287-.572-.272-.935-.891-1.518-1.28-.475-.216-2.324-2.594-2.672-2.919-.233-.432-2.208-2.486-.116-2.594,1.162-1.513-1.627-2.27.349-2.486,1.743-.324-1.162-1.838-2.208-2.7-.931-.108-1.161-1.838-1.743-2.162-.464,0-1.743-2.594-2.44-2.486-.7-1.405-1.743-3.243-.116-2.81,1.627-1.946-.7-2.378.7-1.73,2.556-1.081-.581-3.243-.233-2.27,1.511-.973-.7-3.675.232-2.27,1.743-1.081-.349-2.919.233-2.7,1.743l5.189,6.274c5.837,4.183,14.485,6.39,21.4,5.228a5.218,5.218,0,0,0,.811-.192,18,18,0,0,0,3.621,1.353,16.548,16.548,0,0,0,10.053-.7,49.293,49.293,0,0,1,10.053-2.556c2.27-.465,6.81-1.511,6.486-4.881a1.114,1.114,0,0,0,.108.581C819.219,1066.532,820.083,1064.208,819.11,1063.627Z" transform="translate(-760.387 -1044.858)" fill="#efbb8f"/>
            <g id="Grupo_975367" data-name="Grupo 975367" transform="translate(3.235 9.974)">
              <path id="Trazado_652363" data-name="Trazado 652363" d="M772.07,1060.348c0,.4-.58.721-1.3.721s-1.3-.323-1.3-.721.581-.72,1.3-.72S772.07,1059.951,772.07,1060.348Z" transform="translate(-764.864 -1056.152)" fill="#dc9963"/>
              <ellipse id="Elipse_7818" data-name="Elipse 7818" cx="1.297" cy="0.973" rx="1.297" ry="0.973" transform="translate(7.711 1.963)" fill="#dc9963"/>
              <ellipse id="Elipse_7819" data-name="Elipse 7819" cx="1.513" cy="1.081" rx="1.513" ry="1.081" transform="translate(11.386 6.432)" fill="#dc9963"/>
              <ellipse id="Elipse_7820" data-name="Elipse 7820" cx="0.973" cy="0.462" rx="0.973" ry="0.462" transform="translate(16.646 1.963)" fill="#dc9963"/>
              <path id="Trazado_652364" data-name="Trazado 652364" d="M795.891,1057.253c0,.713-.988,1.29-2.208,1.29s-2.208-.578-2.208-1.29.988-1.291,2.208-1.291S795.891,1056.54,795.891,1057.253Z" transform="translate(-767.839 -1055.656)" fill="#dc9963"/>
              <path id="Trazado_652365" data-name="Trazado 652365" d="M795.785,1063.586c0,.3-.393.541-.878.541s-.878-.242-.878-.541.393-.541.878-.541S795.785,1063.288,795.785,1063.586Z" transform="translate(-768.185 -1056.614)" fill="#dc9963"/>
              <path id="Trazado_652366" data-name="Trazado 652366" d="M804.984,1060.751a1.84,1.84,0,1,1-1.838-1.748A1.794,1.794,0,0,1,804.984,1060.751Z" transform="translate(-769.169 -1056.067)" fill="#dc9963"/>
              <ellipse id="Elipse_7821" data-name="Elipse 7821" cx="0.919" cy="0.595" rx="0.919" ry="0.595" transform="translate(32.14 6.972)" fill="#dc9963"/>
              <path id="Trazado_652367" data-name="Trazado 652367" d="M808.715,1058.635c0,.418-.613.757-1.37.757s-1.369-.338-1.369-.757.613-.757,1.369-.757S808.715,1058.217,808.715,1058.635Z" transform="translate(-769.8 -1055.915)" fill="#dc9963"/>
              <path id="Trazado_652368" data-name="Trazado 652368" d="M776.3,1066.743c0,.478-.855.865-1.91.865s-1.909-.387-1.909-.865.855-.865,1.909-.865S776.3,1066.266,776.3,1066.743Z" transform="translate(-765.27 -1056.997)" fill="#dc9963"/>
              <path id="Trazado_652369" data-name="Trazado 652369" d="M788.229,1068.016c0,.4-.83.72-1.856.72s-1.855-.323-1.855-.72.83-.721,1.855-.721S788.229,1067.618,788.229,1068.016Z" transform="translate(-766.898 -1057.189)" fill="#dc9963"/>
              <path id="Trazado_652370" data-name="Trazado 652370" d="M788.519,1063.127c0,.228-.415.413-.928.413s-.928-.185-.928-.413.415-.415.928-.415S788.519,1062.9,788.519,1063.127Z" transform="translate(-767.188 -1056.569)" fill="#dc9963"/>
              <ellipse id="Elipse_7822" data-name="Elipse 7822" cx="1.081" cy="0.54" rx="1.081" ry="0.54" transform="translate(25.438 10.107)" fill="#dc9963"/>
              <path id="Trazado_652371" data-name="Trazado 652371" d="M812.237,1063.85c0,.363-.581.657-1.3.657s-1.3-.294-1.3-.657.58-.658,1.3-.658S812.237,1063.486,812.237,1063.85Z" transform="translate(-770.296 -1056.634)" fill="#dc9963"/>
              <path id="Trazado_652372" data-name="Trazado 652372" d="M818.525,1065.216c0,.279-.645.5-1.442.5s-1.441-.225-1.441-.5.645-.5,1.441-.5S818.525,1064.939,818.525,1065.216Z" transform="translate(-771.108 -1056.839)" fill="#dc9963"/>
              <path id="Trazado_652373" data-name="Trazado 652373" d="M766.448,1064.121c0,.249-.515.451-1.153.451s-1.153-.2-1.153-.451.515-.451,1.153-.451S766.448,1063.872,766.448,1064.121Z" transform="translate(-764.143 -1056.698)" fill="#dc9963"/>
              <path id="Trazado_652374" data-name="Trazado 652374" d="M767.606,1062.476c0,.1-.29.18-.649.18s-.649-.08-.649-.18.291-.181.649-.181S767.606,1062.376,767.606,1062.476Z" transform="translate(-764.436 -1056.512)" fill="#dc9963"/>
              <path id="Trazado_652375" data-name="Trazado 652375" d="M781.51,1070.6c0,.258-.548.469-1.225.469s-1.225-.21-1.225-.469.548-.469,1.225-.469S781.51,1070.339,781.51,1070.6Z" transform="translate(-766.16 -1057.572)" fill="#dc9963"/>
              <path id="Trazado_652376" data-name="Trazado 652376" d="M773.485,1064.476c0,.1-.226.181-.505.181s-.5-.08-.5-.181.226-.181.5-.181S773.485,1064.376,773.485,1064.476Z" transform="translate(-765.27 -1056.783)" fill="#dc9963"/>
              <ellipse id="Elipse_7823" data-name="Elipse 7823" cx="0.757" cy="0.18" rx="0.757" ry="0.18" transform="translate(6.197 10.828)" fill="#dc9963"/>
              <path id="Trazado_652377" data-name="Trazado 652377" d="M778.118,1055.941c0,.184-.274.333-.612.333s-.612-.149-.612-.333.274-.333.612-.333S778.118,1055.758,778.118,1055.941Z" transform="translate(-765.867 -1055.608)" fill="#dc9963"/>
              <path id="Trazado_652378" data-name="Trazado 652378" d="M810.221,1067.058c0,.1-.483.181-1.081.181s-1.081-.081-1.081-.181.484-.18,1.081-.18S810.221,1066.959,810.221,1067.058Z" transform="translate(-770.082 -1057.132)" fill="#dc9963"/>
              <path id="Trazado_652379" data-name="Trazado 652379" d="M824.956,1061.394c0,.2-.387.368-.865.368s-.865-.165-.865-.368.387-.37.865-.37S824.956,1061.189,824.956,1061.394Z" transform="translate(-772.133 -1056.34)" fill="#dc9963"/>
              <path id="Trazado_652380" data-name="Trazado 652380" d="M823.877,1062.683c0,.214-.5.387-1.117.387s-1.116-.174-1.116-.387.5-.388,1.116-.388S823.877,1062.47,823.877,1062.683Z" transform="translate(-771.919 -1056.512)" fill="#dc9963"/>
              <path id="Trazado_652381" data-name="Trazado 652381" d="M825.875,1064.128c0,.1-.144.176-.324.176s-.324-.079-.324-.176.145-.175.324-.175S825.875,1064.032,825.875,1064.128Z" transform="translate(-772.404 -1056.737)" fill="#dc9963"/>
            </g>
          </g>
        </g>
      </g>
      <g id="Grupo_975374" data-name="Grupo 975374" transform="translate(789.614 1097.352)">
        <path id="Trazado_652383" data-name="Trazado 652383" d="M802.955,1139.538c0,11.674.649,23.133-2.162,34.591-1.081,4.756-3.243,10.161,0,14.485,3.675,4.54,9.512,5.189,14.7,6.053a174.089,174.089,0,0,0,33.51,3.027c6.27,0,26.375-2.378,24.646-12.323-.865-5.621-7.351-8.431-7.134-14.485.216-2.594,1.73-4.972,2.162-7.351a19.724,19.724,0,0,0-1.081-7.134c-1.513-4.972-.216-9.729-.432-14.7-.216-5.189.649-9.512-5.837-9.3-.432,0-1.081.216-1.73.216Z" transform="translate(-798.517 -1109.296)" fill="#988073"/>
        <path id="Trazado_652384" data-name="Trazado 652384" d="M860.374,1119.816c-4.756.649-6.27.216-10.377-2.162-5.4-3.459-11.674-3.892-17.728-2.378a73.228,73.228,0,0,1-16.863,1.729c-4.108,0-11.458.216-14.7,2.811-3.675,3.027-.865,9.512-1.513,13.836-.216,2.162-1.3,4.756-.432,6.918,1.3,2.594,4.972,4.324,7.351,5.621,9.729,5.621,22.916,6.918,33.51,3.027,4.972-1.73,9.945-5.4,15.35-4.756,3.675.216,9.729,2.594,12.323-.432,2.811-3.027.865-9.512.865-13.4,0-3.027.432-8.864-2.6-10.594-.581-.58-2.228-.215-2.984-.215A17.669,17.669,0,0,0,860.374,1119.816Z" transform="translate(-798.429 -1106.869)" fill="#b59f95"/>
        <path id="Trazado_652385" data-name="Trazado 652385" d="M864.286,1121.776c2.181-.432,2.45,1.8,2.017,2.666-.865,2.378-4.325,1.8-6.27,2.017-4.54.865-8.648,1.513-13.188,3.243-2.81.865-5.837.865-8.648,1.3-3.027.216-6.053,1.3-8.864,1.729a27.325,27.325,0,0,1-15.566-2.378c-2.378-1.081-12.323-6.27-9.3-9.729,1.73-1.946,10.161-1.081,12.971-1.081a51.2,51.2,0,0,0,11.458-.865c4.54-.649,8.432-2.162,13.188-1.081,5.621,1.081,9.441,4.973,15.278,4.973Z" transform="translate(-799.169 -1107.243)" fill="#988073"/>
        <g id="Grupo_975373" data-name="Grupo 975373" transform="translate(4.735 0)">
          <g id="Grupo_975372" data-name="Grupo 975372" clip-path="url(#clip-path-4)">
            <path id="Trazado_652386" data-name="Trazado 652386" d="M862.612,1125.236c.757-.7.865-3.021-.432-2.672.108-1.161,0-2.556-1.513-1.975.432-1.278-1.189-2.323-2.054-1.511-.324-.813-1.189-.464-1.73,0-.216.349.108.93-.108,1.162s-.757-.117-.973.116c-.432.581-.432,1.511-.757,1.859-.54.464-1.405-.232-1.513,1.045.216-1.394-.973-2.323-1.838-1.162.54-1.277-1.081-1.858-1.838-1.046.432-.7.216-2.788-.757-1.743.973-1.045.324-3.253-1.189-1.975a1.372,1.372,0,0,0-2.7-.465c.324-1.858-2.81-2.439-2.486-.116-.108-1.161-1.189-2.208-1.946-1.046.649-1.045-.216-3.137-1.405-1.859.432-1.511-1.405-3.369-1.838-1.511-.324-.929-2.054-.929-2.594-.232-.649.58-.432,1.511-.432,2.323-.071-1.222-1.353-1.135-2.287-.572-.272-.935-.891-1.518-1.28-.475-.216-2.323-2.594-2.672-2.919-.232-.432-2.208-2.486-.116-2.594,1.161-1.513-1.627-2.27.349-2.486,1.743-.324-1.162-1.838-2.208-2.7-.93-.108-1.162-1.838-1.743-2.162-.464,0-1.743-2.594-2.44-2.486-.7-1.405-1.742-3.243-.116-2.81,1.628-1.946-.7-2.378.7-1.729,2.555-1.081-.581-3.243-.233-2.27,1.511-.973-.7-3.675.233-2.27,1.743-1.081-.349-2.919.232-2.7,1.743l5.189,6.274c5.837,4.183,14.485,6.391,21.4,5.229a5.217,5.217,0,0,0,.811-.192,17.952,17.952,0,0,0,3.621,1.354,16.554,16.554,0,0,0,10.053-.7,49.3,49.3,0,0,1,10.053-2.556c2.27-.465,6.81-1.511,6.486-4.88a1.111,1.111,0,0,0,.108.58C862.72,1128.142,863.585,1125.817,862.612,1125.236Z" transform="translate(-803.889 -1106.467)" fill="#efbb8f"/>
            <g id="Grupo_975371" data-name="Grupo 975371" transform="translate(3.234 9.974)">
              <path id="Trazado_652387" data-name="Trazado 652387" d="M815.572,1121.958c0,.4-.58.721-1.3.721s-1.3-.323-1.3-.721.581-.72,1.3-.72S815.572,1121.561,815.572,1121.958Z" transform="translate(-808.365 -1117.761)" fill="#dc9963"/>
              <ellipse id="Elipse_7824" data-name="Elipse 7824" cx="1.297" cy="0.973" rx="1.297" ry="0.973" transform="translate(7.711 1.964)" fill="#dc9963"/>
              <ellipse id="Elipse_7825" data-name="Elipse 7825" cx="1.513" cy="1.081" rx="1.513" ry="1.081" transform="translate(11.387 6.432)" fill="#dc9963"/>
              <ellipse id="Elipse_7826" data-name="Elipse 7826" cx="0.973" cy="0.462" rx="0.973" ry="0.462" transform="translate(16.647 1.964)" fill="#dc9963"/>
              <path id="Trazado_652388" data-name="Trazado 652388" d="M839.394,1118.862c0,.712-.989,1.29-2.208,1.29s-2.208-.578-2.208-1.29.988-1.29,2.208-1.29S839.394,1118.15,839.394,1118.862Z" transform="translate(-811.34 -1117.265)" fill="#dc9963"/>
              <path id="Trazado_652389" data-name="Trazado 652389" d="M839.286,1125.2c0,.3-.393.54-.878.54s-.878-.242-.878-.54.393-.541.878-.541S839.286,1124.9,839.286,1125.2Z" transform="translate(-811.686 -1118.223)" fill="#dc9963"/>
              <path id="Trazado_652390" data-name="Trazado 652390" d="M848.486,1122.36a1.84,1.84,0,1,1-1.838-1.747A1.794,1.794,0,0,1,848.486,1122.36Z" transform="translate(-812.67 -1117.676)" fill="#dc9963"/>
              <ellipse id="Elipse_7827" data-name="Elipse 7827" cx="0.919" cy="0.595" rx="0.919" ry="0.595" transform="translate(32.141 6.972)" fill="#dc9963"/>
              <ellipse id="Elipse_7828" data-name="Elipse 7828" cx="1.369" cy="0.757" rx="1.369" ry="0.757" transform="translate(36.177 1.964)" fill="#dc9963"/>
              <ellipse id="Elipse_7829" data-name="Elipse 7829" cx="1.909" cy="0.865" rx="1.909" ry="0.865" transform="translate(7.207 8.882)" fill="#dc9963"/>
              <path id="Trazado_652391" data-name="Trazado 652391" d="M831.731,1129.626c0,.4-.83.72-1.856.72s-1.856-.323-1.856-.72.831-.721,1.856-.721S831.731,1129.228,831.731,1129.626Z" transform="translate(-810.399 -1118.798)" fill="#dc9963"/>
              <path id="Trazado_652392" data-name="Trazado 652392" d="M832.021,1124.736c0,.228-.415.414-.928.414s-.928-.186-.928-.414.415-.414.928-.414S832.021,1124.508,832.021,1124.736Z" transform="translate(-810.69 -1118.178)" fill="#dc9963"/>
              <ellipse id="Elipse_7830" data-name="Elipse 7830" cx="1.081" cy="0.54" rx="1.081" ry="0.54" transform="translate(25.439 10.107)" fill="#dc9963"/>
              <path id="Trazado_652393" data-name="Trazado 652393" d="M855.738,1125.459c0,.363-.58.658-1.3.658s-1.3-.295-1.3-.658.581-.658,1.3-.658S855.738,1125.095,855.738,1125.459Z" transform="translate(-813.797 -1118.243)" fill="#dc9963"/>
              <path id="Trazado_652394" data-name="Trazado 652394" d="M862.027,1126.826c0,.278-.645.5-1.442.5s-1.442-.226-1.442-.5.646-.5,1.442-.5S862.027,1126.549,862.027,1126.826Z" transform="translate(-814.609 -1118.448)" fill="#dc9963"/>
              <path id="Trazado_652395" data-name="Trazado 652395" d="M809.95,1125.731c0,.249-.515.451-1.154.451s-1.153-.2-1.153-.451.516-.451,1.153-.451S809.95,1125.481,809.95,1125.731Z" transform="translate(-807.644 -1118.307)" fill="#dc9963"/>
              <path id="Trazado_652396" data-name="Trazado 652396" d="M811.108,1124.086c0,.1-.29.18-.649.18s-.649-.081-.649-.18.291-.181.649-.181S811.108,1123.986,811.108,1124.086Z" transform="translate(-807.937 -1118.121)" fill="#dc9963"/>
              <path id="Trazado_652397" data-name="Trazado 652397" d="M825.011,1132.207c0,.259-.547.469-1.225.469s-1.225-.21-1.225-.469.548-.469,1.225-.469S825.011,1131.948,825.011,1132.207Z" transform="translate(-809.661 -1119.181)" fill="#dc9963"/>
              <ellipse id="Elipse_7831" data-name="Elipse 7831" cx="0.504" cy="0.181" rx="0.504" ry="0.181" transform="translate(7.207 7.513)" fill="#dc9963"/>
              <ellipse id="Elipse_7832" data-name="Elipse 7832" cx="0.757" cy="0.18" rx="0.757" ry="0.18" transform="translate(6.198 10.828)" fill="#dc9963"/>
              <path id="Trazado_652398" data-name="Trazado 652398" d="M821.619,1117.55c0,.184-.274.334-.613.334s-.612-.15-.612-.334.275-.333.612-.333S821.619,1117.367,821.619,1117.55Z" transform="translate(-809.368 -1117.217)" fill="#dc9963"/>
              <path id="Trazado_652399" data-name="Trazado 652399" d="M853.723,1128.668c0,.1-.483.181-1.081.181s-1.081-.081-1.081-.181.484-.18,1.081-.18S853.723,1128.569,853.723,1128.668Z" transform="translate(-813.583 -1118.741)" fill="#dc9963"/>
              <path id="Trazado_652400" data-name="Trazado 652400" d="M868.458,1123c0,.2-.387.369-.865.369s-.865-.166-.865-.369.387-.37.865-.37S868.458,1122.8,868.458,1123Z" transform="translate(-815.634 -1117.949)" fill="#dc9963"/>
              <path id="Trazado_652401" data-name="Trazado 652401" d="M867.379,1124.292c0,.214-.5.387-1.117.387s-1.117-.174-1.117-.387.5-.387,1.117-.387S867.379,1124.079,867.379,1124.292Z" transform="translate(-815.42 -1118.121)" fill="#dc9963"/>
              <path id="Trazado_652402" data-name="Trazado 652402" d="M869.377,1125.737c0,.1-.145.176-.324.176s-.324-.078-.324-.176.145-.175.324-.175S869.377,1125.641,869.377,1125.737Z" transform="translate(-815.905 -1118.346)" fill="#dc9963"/>
            </g>
          </g>
        </g>
      </g>
    </g>
  </g>
</svg>
