<svg xmlns="http://www.w3.org/2000/svg" width="106" height="106" viewBox="0 0 106 106">
  <g id="Grupo_944883" data-name="Grupo 944883" transform="translate(-258 -1219)">
    <rect id="Rectángulo_306248" data-name="Rectángulo 306248" width="106" height="106" transform="translate(258 1219)" fill="none"/>
    <g id="investigacion" transform="translate(266.091 1227.688)">
      <path id="Trazado_652404" data-name="Trazado 652404" d="M29.514,12.2l-2.076-1.87L15.963,23.08l-4.561-5.7L9.219,19.126,15.837,27.4Z" transform="translate(3.266 3.583)" fill="#faebcd"/>
      <path id="Trazado_652405" data-name="Trazado 652405" d="M13,35h2.795v2.795H13Z" transform="translate(4.768 13.385)" fill="#faebcd"/>
      <path id="Trazado_652406" data-name="Trazado 652406" d="M51.192,23a4.192,4.192,0,1,0,4.192,4.192A4.2,4.2,0,0,0,51.192,23Zm0,5.589a1.4,1.4,0,1,1,1.4-1.4A1.4,1.4,0,0,1,51.192,28.589Z" transform="translate(18.277 8.617)" fill="#faebcd"/>
      <path id="Trazado_652407" data-name="Trazado 652407" d="M87.635,51.786a25.072,25.072,0,0,0-8.951-19.229,9.805,9.805,0,0,0-3.509-4.677l1.7-2.694A2.8,2.8,0,0,0,75.95,21.3l-3.039-1.824.883-1.768.882.514a2.8,2.8,0,0,0,3.644-.738l2.5-3.338A2.794,2.794,0,0,0,80,10.055L65.659,1.693a2.793,2.793,0,0,0-3.643.736l-2.5,3.338a2.794,2.794,0,0,0,.827,4.091l.935.546-1.08,1.441L57.4,10.172a2.8,2.8,0,0,0-3.823.939L40.988,31.717a4.236,4.236,0,0,0-.862-.1H37.243A18.157,18.157,0,1,0,3.795,21.836a18.044,18.044,0,0,0,2.883,9.781H5.192A4.2,4.2,0,0,0,1,35.809V41.4a4.2,4.2,0,0,0,4.192,4.192H6.348L1.1,78.4A7.869,7.869,0,0,0,8.87,87.511H55.5a2.8,2.8,0,0,0,2.795-2.795V81.921c0-.014,0-.027,0-.041A30.151,30.151,0,0,0,87.635,51.786ZM76.456,35.809a6.987,6.987,0,1,1-6.987-6.987A6.995,6.995,0,0,1,76.456,35.809ZM58.287,70.7a2.8,2.8,0,0,0-2.79-2.757H42.546L39.934,51.624a2.719,2.719,0,0,0,3.583-1.054l2.332-3.886L47.73,47.9l-2.564,4.274a2.786,2.786,0,0,0,.721,3.674l3.341,2.507a2.794,2.794,0,0,0,4.073-.8l2.616-4.36,1.857,1.2a2.8,2.8,0,0,0,3.843-.8l1.245-1.865a2.776,2.776,0,0,0-.464-3.623l2.361-3.738a9.729,9.729,0,0,0,9.5-.05,12.945,12.945,0,0,1,2.194,7.192v.32a18.91,18.91,0,0,1-18.17,18.867ZM46.022,76.332l.7,2.795H33.53l.7-2.795ZM24.755,73.537V70.743H55.5v2.795Zm14.37-37.2L60.533,50.187l-1.245,1.867L37.881,38.2ZM53.568,51.679,50.9,56.12l-3.342-2.507,2.517-4.193ZM40.011,42.906,43.5,45.165l-2.38,3.968-3.342-2.507Zm24.241-38.8L78.59,12.471l-2.5,3.34L61.748,7.446ZM63.7,11.823,71.375,16.3l-.868,1.735L62.6,13.29Zm-7.738.746L74.511,23.7l-1.824,2.887a9.77,9.77,0,0,0-10.168,16.1l-2.448,3.876L42.244,35.021ZM21.96,6.465A15.371,15.371,0,1,1,6.589,21.836,15.389,15.389,0,0,1,21.96,6.465ZM3.795,41.4V35.809a1.4,1.4,0,0,1,1.4-1.4h3.69a18.094,18.094,0,0,0,26.155,0h2.069a2.831,2.831,0,0,0-.306.372l-1.245,1.865a2.794,2.794,0,0,0,.808,3.9l1.3.841-.845,1.41H5.192a1.4,1.4,0,0,1-1.4-1.4ZM8.87,84.716a5.08,5.08,0,0,1-5.075-5.075,5.159,5.159,0,0,1,.064-.8L5.6,67.948H16.371V65.153H6.049l.894-5.589h13.62V56.769H7.39l.894-5.589h6.689V48.385H8.731l.447-2.795H35.191a2.78,2.78,0,0,0,.914,3.271l.636.476,2.975,18.61H24.755a2.8,2.8,0,0,0-2.795,2.795v2.795a2.8,2.8,0,0,0,2.795,2.795h6.6l-.7,2.795h-5.9a2.8,2.8,0,0,0-2.795,2.795v2.795Zm17.282,0h-1.4V81.921H55.5v2.795ZM57.5,79.127H49.6l-.7-2.795h6.6a2.8,2.8,0,0,0,2.795-2.795V73.5a21.707,21.707,0,0,0,20.96-21.66v-.32a15.757,15.757,0,0,0-2.77-8.905,9.759,9.759,0,0,0,2.7-5.665A22.27,22.27,0,0,1,84.84,51.786,27.371,27.371,0,0,1,57.5,79.127Z" transform="translate(0 0)" fill="#faebcd"/>
    </g>
  </g>
</svg>
