<svg xmlns="http://www.w3.org/2000/svg" width="106" height="106" viewBox="0 0 106 106">
  <g id="Grupo_944884" data-name="Grupo 944884" transform="translate(-258 -1219)">
    <rect id="Rectángulo_306248" data-name="Rectángulo 306248" width="106" height="106" transform="translate(258 1219)" fill="none"/>
    <g id="politica" transform="translate(271.079 1232.081)">
      <g id="Page-1_45_" transform="translate(0 0.003)">
        <g id="_x30_46---Legal-Policy" transform="translate(0 0)">
          <g id="Grupo_975377" data-name="Grupo 975377" transform="translate(19.96 7.984)">
            <path id="Path_149_" d="M129.331,53.865h23.953a1.331,1.331,0,0,0,0-2.661H129.331a1.331,1.331,0,1,0,0,2.661Z" transform="translate(-128 -51.204)" fill="#ef8b53" fill-rule="evenodd"/>
            <path id="Path_148_" d="M129.331,105.065h23.953a1.331,1.331,0,0,0,0-2.661H129.331a1.331,1.331,0,0,0,0,2.661Z" transform="translate(-128 -94.42)" fill="#ef8b53" fill-rule="evenodd"/>
            <path id="Path_147_" d="M129.331,156.265h23.953a1.331,1.331,0,0,0,0-2.661H129.331a1.331,1.331,0,0,0,0,2.661Z" transform="translate(-128 -137.636)" fill="#ef8b53" fill-rule="evenodd"/>
            <path id="Path_146_" d="M129.331,207.465h23.953a1.331,1.331,0,0,0,0-2.661H129.331a1.331,1.331,0,1,0,0,2.661Z" transform="translate(-128 -180.851)" fill="#ef8b53" fill-rule="evenodd"/>
            <path id="Path_145_" d="M129.331,258.665H145.3a1.331,1.331,0,1,0,0-2.661H129.331a1.331,1.331,0,1,0,0,2.661Z" transform="translate(-128 -224.067)" fill="#ef8b53" fill-rule="evenodd"/>
            <path id="Path_144_" d="M139.977,308.535a1.331,1.331,0,0,0-1.331-1.331h-9.315a1.331,1.331,0,1,0,0,2.661h9.315A1.331,1.331,0,0,0,139.977,308.535Z" transform="translate(-128.001 -267.283)" fill="#ef8b53" fill-rule="evenodd"/>
          </g>
          <path id="Shape_175_" d="M62.855,50.544l.486-.486a2.7,2.7,0,0,0,.665.1,2.661,2.661,0,0,0,1.882-.778l4.386-4.382a2.661,2.661,0,0,0,0-3.764L59.1,30.061a2.661,2.661,0,0,0-3.763,0L53.228,32.17V7.987A7.992,7.992,0,0,0,45.244,0H8.015A7.984,7.984,0,0,0,0,7.987V35.931a2.661,2.661,0,0,0,2.661,2.661H13.307V65.207a8.015,8.015,0,0,0,8,7.984H31.937v3.992A2.661,2.661,0,0,0,34.6,79.845h18.63a2.661,2.661,0,0,0,2.661-2.661V73.191h2.661a7.984,7.984,0,0,0,7.967-7.649l6.451,6.451a4.012,4.012,0,1,0,5.685-5.663ZM44.312,56.291l-.023-.023-5.7-5.7,4.381-4.379h.009L54.142,57.356l-4.374,4.391Zm10.779-1.752-9.3-9.292,6.1-6.1,9.3,9.294Zm2.129-22.6L68.4,43.117l-4.391,4.377L52.859,36.344a.159.159,0,0,0-.016-.023l.009-.013ZM13.307,35.931H2.661V7.987A5.341,5.341,0,0,1,4.4,4.053,5.282,5.282,0,0,1,7.968,2.664H8.1a2.875,2.875,0,0,1,.411.02,5.524,5.524,0,0,1,4.8,5.586V35.931Zm2.661,29.275V8.27a8.439,8.439,0,0,0-2.129-5.606h31.4a5.323,5.323,0,0,1,5.323,5.323V34.952A2.661,2.661,0,0,0,50.276,37l-6.63,6.625a2.652,2.652,0,0,0-2.56.679L36.7,48.687a2.661,2.661,0,0,0,0,3.763l3.446,3.441H29.275a2.661,2.661,0,0,0-2.661,2.661v6.374a5.532,5.532,0,0,1-4.832,5.589,3.85,3.85,0,0,1-.491.013,5.344,5.344,0,0,1-5.323-5.323ZM34.6,77.183V71.86a1.331,1.331,0,0,1,1.331-1.331H51.9a1.331,1.331,0,0,1,1.331,1.331v5.323ZM63.873,65.207a5.323,5.323,0,0,1-5.323,5.323H55.644A3.992,3.992,0,0,0,51.9,67.868H35.929a3.992,3.992,0,0,0-3.747,2.661H27.146a8.439,8.439,0,0,0,2.129-5.6V58.553H42.812l5.066,5.067a2.668,2.668,0,0,0,3.763,0l4.381-4.379a2.6,2.6,0,0,0,.684-2.552l.478-.478L63.873,62.9v2.309ZM76.763,70.13a1.363,1.363,0,0,1-1.9-.011l-8.715-8.713-7.075-7.074,1.9-1.9L76.781,68.218a1.32,1.32,0,0,1-.015,1.914Z" transform="translate(0 -0.003)" fill="#ef8b53"/>
        </g>
      </g>
    </g>
  </g>
</svg>
