<svg xmlns="http://www.w3.org/2000/svg" width="106" height="106" viewBox="0 0 106 106">
  <g id="Grupo_980436" data-name="Grupo 980436" transform="translate(-258 -1219)">
    <rect id="Rectángulo_306248" data-name="Rectángulo 306248" width="106" height="106" transform="translate(258 1219)" fill="none"/>
    <g id="boxes" transform="translate(266.025 1229.001)">
      <path id="Trazado_654313" data-name="Trazado 654313" d="M37.24,434.693h5.071a1.291,1.291,0,1,0,0-2.582H37.24a1.291,1.291,0,1,0,0,2.582Z" transform="translate(-29.774 -357.884)" fill="#faebcd"/>
      <path id="Trazado_654314" data-name="Trazado 654314" d="M37.24,464.875H47.346a1.291,1.291,0,1,0,0-2.582H37.24a1.291,1.291,0,1,0,0,2.582Z" transform="translate(-29.774 -382.881)" fill="#faebcd"/>
      <path id="Trazado_654315" data-name="Trazado 654315" d="M132.021,254.746h5.071a1.291,1.291,0,1,0,0-2.582h-5.071a1.291,1.291,0,1,0,0,2.582Z" transform="translate(-108.274 -208.848)" fill="#faebcd"/>
      <path id="Trazado_654316" data-name="Trazado 654316" d="M132.021,284.928h10.106a1.291,1.291,0,0,0,0-2.582H132.021a1.291,1.291,0,1,0,0,2.582Z" transform="translate(-108.274 -233.845)" fill="#faebcd"/>
      <path id="Trazado_654317" data-name="Trazado 654317" d="M226.807,434.693h5.071a1.291,1.291,0,1,0,0-2.582h-5.071a1.291,1.291,0,1,0,0,2.582Z" transform="translate(-186.777 -357.884)" fill="#faebcd"/>
      <path id="Trazado_654318" data-name="Trazado 654318" d="M236.913,462.293H226.807a1.291,1.291,0,1,0,0,2.582h10.106a1.291,1.291,0,0,0,0-2.582Z" transform="translate(-186.777 -382.882)" fill="#faebcd"/>
      <path id="Trazado_654319" data-name="Trazado 654319" d="M267.647,98.991a18.344,18.344,0,0,0-1.758.58,1.291,1.291,0,1,0,.932,2.407,15.818,15.818,0,0,1,1.51-.5,1.291,1.291,0,1,0-.684-2.489Z" transform="translate(-219.532 -81.948)" fill="#faebcd"/>
      <path id="Trazado_654320" data-name="Trazado 654320" d="M305.463,95.483c-.608-.067-1.228-.1-1.843-.11h-.014a1.291,1.291,0,0,0-.014,2.582c.531.005,1.066.038,1.59.095a1.323,1.323,0,0,0,.142.008,1.291,1.291,0,0,0,.139-2.574Z" transform="translate(-250.384 -78.99)" fill="#faebcd"/>
      <path id="Trazado_654321" data-name="Trazado 654321" d="M340.669,285.186c-.469.244-.956.467-1.446.663a1.291,1.291,0,1,0,.956,2.4c.571-.228,1.136-.487,1.682-.771a1.291,1.291,0,0,0-1.192-2.29Z" transform="translate(-280.278 -236.076)" fill="#faebcd"/>
      <path id="Trazado_654322" data-name="Trazado 654322" d="M392.932,156.38c.217.482.413.98.58,1.481a1.291,1.291,0,0,0,2.448-.82,18.414,18.414,0,0,0-.675-1.722,1.291,1.291,0,1,0-2.353,1.062Z" transform="translate(-325.34 -128.008)" fill="#faebcd"/>
      <path id="Trazado_654323" data-name="Trazado 654323" d="M342.849,103.756c-.542-.29-1.1-.555-1.673-.788a1.291,1.291,0,0,0-.982,2.388c.488.2.972.429,1.439.678a1.327,1.327,0,0,0,1.747-.53A1.291,1.291,0,0,0,342.849,103.756Z" transform="translate(-281.094 -85.2)" fill="#faebcd"/>
      <path id="Trazado_654324" data-name="Trazado 654324" d="M373.607,261.883a1.291,1.291,0,0,0-1.821.132c-.345.4-.715.787-1.1,1.151a1.291,1.291,0,0,0-.049,1.825,1.317,1.317,0,0,0,1.825.049c.446-.423.876-.872,1.277-1.336A1.291,1.291,0,0,0,373.607,261.883Z" transform="translate(-306.677 -216.637)" fill="#faebcd"/>
      <path id="Trazado_654325" data-name="Trazado 654325" d="M402.754,191.371a1.291,1.291,0,0,0-1.233,1.346c.01.236.016.475.016.712,0,.293-.008.589-.024.881a1.291,1.291,0,0,0,1.219,1.359l.071,0a1.291,1.291,0,0,0,1.288-1.221c.018-.338.027-.682.027-1.021,0-.275-.006-.552-.018-.825A1.292,1.292,0,0,0,402.754,191.371Z" transform="translate(-332.54 -158.497)" fill="#faebcd"/>
      <path id="Trazado_654326" data-name="Trazado 654326" d="M394.736,228.884a1.29,1.29,0,0,0-1.643.8c-.173.5-.374.995-.6,1.474a1.291,1.291,0,0,0,.628,1.714,1.326,1.326,0,0,0,1.714-.628c.259-.557.491-1.134.693-1.714A1.291,1.291,0,0,0,394.736,228.884Z" transform="translate(-324.976 -189.507)" fill="#faebcd"/>
      <path id="Trazado_654327" data-name="Trazado 654327" d="M304.124,295.839c-.525.052-1.061.078-1.592.078a1.291,1.291,0,1,0,0,2.582c.615,0,1.236-.03,1.845-.091a1.291,1.291,0,0,0-.254-2.569Z" transform="translate(-249.495 -245.016)" fill="#faebcd"/>
      <path id="Trazado_654328" data-name="Trazado 654328" d="M372.525,126.992a1.291,1.291,0,0,0,1.97-1.668c-.4-.469-.822-.923-1.263-1.349a1.291,1.291,0,1,0-1.795,1.856C371.817,126.2,372.183,126.588,372.525,126.992Z" transform="translate(-307.307 -102.377)" fill="#faebcd"/>
      <path id="Trazado_654329" data-name="Trazado 654329" d="M85.12,29.562l-6.851-1.03A25.806,25.806,0,0,0,75.4,21.608l4.117-5.577A3.307,3.307,0,0,0,79.2,11.7L76.254,8.76a3.3,3.3,0,0,0-4.327-.324l-5.573,4.119a25.773,25.773,0,0,0-6.919-2.869l-1.03-6.856A3.3,3.3,0,0,0,55.118,0H50.957A3.3,3.3,0,0,0,47.67,2.831L46.64,9.687a25.772,25.772,0,0,0-6.919,2.869L34.148,8.436a3.3,3.3,0,0,0-4.326.324L26.88,11.7a3.307,3.307,0,0,0-.323,4.327l4.118,5.578c-.375.629-.724,1.278-1.045,1.938H17.572a1.291,1.291,0,0,0-1.291,1.291V41.645a1.291,1.291,0,1,0,2.582,0V26.128h9.031v9.227c.134.622.422,1.525,1.73,1.214l4.23-1.529,4.231,1.529a1.328,1.328,0,0,0,1.73-1.214V26.128h9.031V54.457H18.863V46.809a1.291,1.291,0,1,0-2.582,0v7.649H1.291A1.291,1.291,0,0,0,0,55.748V86.659A1.291,1.291,0,0,0,1.291,87.95h9.031a1.291,1.291,0,0,0,0-2.582H2.582V57.039h9.031v9.227a1.311,1.311,0,0,0,1.73,1.214l4.229-1.529L21.8,67.48a1.321,1.321,0,0,0,1.73-1.214V57.039h9.031V85.368H15.486a1.291,1.291,0,1,0,0,2.582H66.417a1.291,1.291,0,0,0,1.291-1.291V58.311l4.219,3.118a3.33,3.33,0,0,0,4.326-.323L79.2,58.162a3.307,3.307,0,0,0,.323-4.327L75.4,48.257a25.8,25.8,0,0,0,2.867-6.924L85.12,40.3a3.305,3.305,0,0,0,2.83-3.289V32.851A3.306,3.306,0,0,0,85.12,29.562ZM37.232,33.516l-2.94-1.063a1.29,1.29,0,0,0-.878,0l-2.939,1.062V26.132c.03,0,.059,0,.088,0h6.668Zm9.526,23.523h6.756v7.388l-2.94-1.063a1.29,1.29,0,0,0-.878,0l-2.939,1.062ZM20.95,64.427l-2.94-1.063a1.29,1.29,0,0,0-.878,0l-2.938,1.062V57.039H20.95ZM65.126,85.368H35.145V57.039h9.031v9.227a1.3,1.3,0,0,0,1.73,1.214l4.23-1.529,4.231,1.529a1.318,1.318,0,0,0,1.73-1.214V57.039h9.031V85.368ZM85.368,37.014a.739.739,0,0,1-.632.736L77.02,38.91a1.291,1.291,0,0,0-1.07,1,23.262,23.262,0,0,1-3.191,7.707,1.291,1.291,0,0,0,.047,1.465l4.637,6.281a.741.741,0,0,1-.072.969L74.428,59.28a.737.737,0,0,1-.966.072l-6.217-4.595a1.286,1.286,0,0,0-.827-.3H51.426V43.743a8.941,8.941,0,0,0,8.529-3.124,1.291,1.291,0,0,0-1.994-1.639A6.366,6.366,0,0,1,51.426,41.1V28.764a6.369,6.369,0,0,1,7.983,6.169,1.291,1.291,0,0,0,2.582,0,8.948,8.948,0,0,0-10.564-8.811V24.837a1.291,1.291,0,0,0-1.291-1.291h-8.6a1.284,1.284,0,0,0,.658-.325c.388-.36.8-.7,1.22-1.024a1.291,1.291,0,0,0-1.56-2.057c-.489.371-.965.771-1.415,1.189a1.289,1.289,0,0,0,.664,2.218H32.541c.246-.443.5-.879.776-1.3a1.291,1.291,0,0,0-.047-1.466L28.633,14.5a.74.74,0,0,1,.072-.969l2.942-2.944a.737.737,0,0,1,.966-.072l6.277,4.64a1.291,1.291,0,0,0,1.467.047,23.233,23.233,0,0,1,7.7-3.193,1.291,1.291,0,0,0,1-1.07l1.16-7.721a.738.738,0,0,1,.734-.633h4.161a.739.739,0,0,1,.734.633l1.16,7.721a1.291,1.291,0,0,0,1,1.07,23.233,23.233,0,0,1,7.7,3.193,1.291,1.291,0,0,0,1.467-.047l6.277-4.639a.737.737,0,0,1,.966.072l2.942,2.944a.74.74,0,0,1,.072.969l-4.637,6.281a1.291,1.291,0,0,0-.047,1.465,23.263,23.263,0,0,1,3.191,7.707,1.291,1.291,0,0,0,1.07,1l7.716,1.16a.739.739,0,0,1,.632.736v4.163Z" transform="translate(0)" fill="#faebcd"/>
    </g>
  </g>
</svg>
