<svg id="ecologia" xmlns="http://www.w3.org/2000/svg" width="102" height="102" viewBox="0 0 102 102">
  <ellipse id="Elipse_7862" data-name="Elipse 7862" cx="7.969" cy="7.969" rx="7.969" ry="7.969" transform="translate(68.426 27.599)" fill="#ffd54f"/>
  <path id="Trazado_653055" data-name="Trazado 653055" d="M371.427,138.538a7.943,7.943,0,0,0-2.989.577,7.969,7.969,0,0,1-.02,14.774,7.969,7.969,0,1,0,3.009-15.352Z" transform="translate(-295.022 -110.939)" fill="#ffc328"/>
  <path id="Trazado_653056" data-name="Trazado 653056" d="M241,116.738h5.977V129.05H241Z" transform="translate(-192.988 -93.482)" fill="#a35418"/>
  <path id="Trazado_653057" data-name="Trazado 653057" d="M57.476,105.246C57.415,82.285,49.207,62.2,39.09,62.2S20.764,82.285,20.7,105.246Z" transform="translate(-16.579 -49.807)" fill="#329c9d"/>
  <path id="Trazado_653058" data-name="Trazado 653058" d="M100.986,62.2a8.005,8.005,0,0,0-2.988.6c8.7,3.478,15.343,21.8,15.4,42.453h5.977C119.312,82.285,111.1,62.2,100.986,62.2Z" transform="translate(-78.475 -49.807)" fill="#2d8b8c"/>
  <path id="Trazado_653059" data-name="Trazado 653059" d="M70.1,78.363a4.4,4.4,0,0,1-3.127,1.458c-2.771,0-2.771-2.327-5.54-2.327s-2.769,2.327-5.54,2.327-2.769-2.327-5.538-2.327-2.769,2.327-5.54,2.327a4.4,4.4,0,0,1-3.128-1.459C45.06,68.625,50.172,62.2,55.894,62.2S66.729,68.626,70.1,78.363Z" transform="translate(-33.383 -49.809)" fill="#f3f3f3"/>
  <path id="Trazado_653060" data-name="Trazado 653060" d="M100.989,62.2a8.006,8.006,0,0,0-2.988.6c4.555,1.822,8.547,7.718,11.324,15.886a3.824,3.824,0,0,0,2.743,1.14,4.4,4.4,0,0,0,3.127-1.458c-3.371-9.737-8.484-16.163-14.206-16.163Z" transform="translate(-78.477 -49.808)" fill="#e4e4e4"/>
  <path id="Trazado_653061" data-name="Trazado 653061" d="M196.042,29.262H185.3a10.881,10.881,0,1,1,0-21.762h10.743a10.881,10.881,0,0,1,0,21.762Z" transform="translate(-139.67 -6.006)" fill="#6de470"/>
  <path id="Trazado_653062" data-name="Trazado 653062" d="M258.941,7.5h-5.977a10.881,10.881,0,1,1,0,21.762h5.977a10.881,10.881,0,0,0,0-21.762Z" transform="translate(-202.569 -6.006)" fill="#4dcc68"/>
  <ellipse id="Elipse_7863" data-name="Elipse 7863" cx="35.182" cy="16.586" rx="35.182" ry="16.586" transform="translate(15.552 33.646)" fill="#6de470"/>
  <path id="Trazado_653063" data-name="Trazado 653063" d="M243.988,168q-1.51,0-2.988.06c17.965.715,32.074,7.817,32.074,16.475S258.965,200.295,241,201.01q1.478.059,2.988.06c19.364,0,35.063-7.4,35.063-16.535S263.353,168,243.988,168Z" transform="translate(-192.988 -134.531)" fill="#4dcc68"/>
  <path id="Trazado_653064" data-name="Trazado 653064" d="M106.512,236.637a.606.606,0,0,0-.663-.6c-3.477.349-3.7,3.434-7.589,3.434-4.126,0-4.126-3.466-8.252-3.466s-4.126,3.466-8.251,3.466S77.631,236,73.505,236s-4.125,3.466-8.251,3.466S61.129,236,57,236s-4.125,3.466-8.25,3.466S44.628,236,40.5,236s-4.125,3.466-8.251,3.466S28.126,236,24,236s-4.125,3.466-8.25,3.466c-3.892,0-4.112-3.084-7.588-3.434a.606.606,0,0,0-.663.6v3.348a49.506,49.506,0,0,0,99.012,0Z" transform="translate(-6.006 -188.984)" fill="#bdf9ff"/>
  <g id="Grupo_977446" data-name="Grupo 977446" transform="translate(1.494 47.016)">
    <path id="Trazado_653065" data-name="Trazado 653065" d="M246.249,239.466a5.155,5.155,0,0,0,2.988-.855c-1.568-1.026-2.473-2.611-5.263-2.611a5.153,5.153,0,0,0-2.988.855C242.555,237.881,243.46,239.466,246.249,239.466Z" transform="translate(-194.472 -236)" fill="#8bf0ff"/>
    <path id="Trazado_653066" data-name="Trazado 653066" d="M411.919,239.466a5.16,5.16,0,0,0,2.989-.854c-1.57-1.026-2.473-2.612-5.265-2.612a5.154,5.154,0,0,0-2.988.855C408.224,237.881,409.128,239.466,411.919,239.466Z" transform="translate(-327.136 -236)" fill="#8bf0ff"/>
    <path id="Trazado_653067" data-name="Trazado 653067" d="M329.082,239.466a5.155,5.155,0,0,0,2.988-.855C330.5,237.584,329.6,236,326.807,236a5.155,5.155,0,0,0-2.988.855C325.388,237.881,326.292,239.466,329.082,239.466Z" transform="translate(-260.802 -236)" fill="#8bf0ff"/>
    <path id="Trazado_653068" data-name="Trazado 653068" d="M163.422,239.466a5.153,5.153,0,0,0,2.988-.855c-1.568-1.026-2.472-2.61-5.262-2.61a5.155,5.155,0,0,0-2.988.855c1.568,1.026,2.473,2.611,5.262,2.611Z" transform="translate(-128.145 -236)" fill="#8bf0ff"/>
    <path id="Trazado_653069" data-name="Trazado 653069" d="M292.832,236.149c-2.636.265-3.4,2.1-5.314,2.974v.978A49.506,49.506,0,0,1,241,289.515c.989.059,1.985.092,2.988.092A49.506,49.506,0,0,0,293.494,240.1v-3.348a.606.606,0,0,0-.663-.6Z" transform="translate(-194.482 -236.117)" fill="#8bf0ff"/>
    <path id="Trazado_653070" data-name="Trazado 653070" d="M9.773,239.582a5.152,5.152,0,0,0,2.987-.855c-1.437-.94-2.316-2.349-4.6-2.579a.606.606,0,0,0-.663.6v2.37A5.334,5.334,0,0,0,9.773,239.582Z" transform="translate(-7.499 -236.117)" fill="#8bf0ff"/>
    <path id="Trazado_653071" data-name="Trazado 653071" d="M80.59,239.466a5.155,5.155,0,0,0,2.988-.855C82.009,237.584,81.105,236,78.315,236a5.154,5.154,0,0,0-2.988.855C76.9,237.881,77.8,239.466,80.59,239.466Z" transform="translate(-61.814 -236)" fill="#8bf0ff"/>
  </g>
  <path id="Trazado_653072" data-name="Trazado 653072" d="M353.132,326.994c0,1.971-2.658,3.569-5.327,3.569s-4.336-1.6-4.336-3.569,1.668-3.569,4.336-3.569S353.132,325.023,353.132,326.994Z" transform="translate(-275.044 -258.993)" fill="#f75632"/>
  <path id="Trazado_653073" data-name="Trazado 653073" d="M396.2,332.318c-2.334,0-4.226-1.338-4.226-2.988s1.892-2.988,4.226-2.988S398.535,332.318,396.2,332.318Z" transform="translate(-313.886 -261.328)" fill="#e33629"/>
  <g id="Grupo_977447" data-name="Grupo 977447">
    <path id="Trazado_653074" data-name="Trazado 653074" d="M377.552,102.51h0a1.494,1.494,0,0,0,1.494-1.492l0-1.484a1.494,1.494,0,0,0-1.492-1.5h0a1.494,1.494,0,0,0-1.494,1.492l0,1.484A1.494,1.494,0,0,0,377.552,102.51Z" transform="translate(-301.142 -78.507)"/>
    <path id="Trazado_653075" data-name="Trazado 653075" d="M339.754,110.008l.74,1.286a1.494,1.494,0,1,0,2.59-1.491l-.74-1.286a1.494,1.494,0,0,0-2.59,1.491Z" transform="translate(-271.909 -86.298)"/>
    <path id="Trazado_653076" data-name="Trazado 653076" d="M315.042,134.652a1.494,1.494,0,0,0-1.5,2.586l1.284.744a1.494,1.494,0,0,0,1.5-2.586Z" transform="translate(-250.484 -107.666)"/>
    <path id="Trazado_653077" data-name="Trazado 653077" d="M433.438,206.679l1.284.744a1.494,1.494,0,0,0,1.5-2.586l-1.284-.744a1.494,1.494,0,1,0-1.5,2.586Z" transform="translate(-346.492 -163.272)"/>
    <path id="Trazado_653078" data-name="Trazado 653078" d="M443.015,171.128a1.494,1.494,0,0,0,0,2.988l1.484,0h0a1.494,1.494,0,0,0,0-2.988l-1.484,0Z" transform="translate(-353.562 -137.036)"/>
    <path id="Trazado_653079" data-name="Trazado 653079" d="M434.278,138.353a1.485,1.485,0,0,0,.744-.2l1.286-.74a1.494,1.494,0,0,0-1.491-2.59l-1.286.74a1.494,1.494,0,0,0,.747,2.789Z" transform="translate(-346.564 -107.805)"/>
    <path id="Trazado_653080" data-name="Trazado 653080" d="M409.566,111.94a1.494,1.494,0,0,0,2.042-.544l.744-1.284a1.494,1.494,0,1,0-2.586-1.5l-.744,1.284A1.494,1.494,0,0,0,409.566,111.94Z" transform="translate(-327.376 -86.379)"/>
    <path id="Trazado_653081" data-name="Trazado 653081" d="M101.307,46.092a2.1,2.1,0,0,0-1.614-.532A7.361,7.361,0,0,0,95.419,47.6a4.314,4.314,0,0,1-6.331,0,9.032,9.032,0,0,0-2.39-1.577,13.889,13.889,0,0,0-3.114-4.308,9.462,9.462,0,0,0-7.178-15.614h-.013A9.467,9.467,0,0,0,67.1,33.779a68.406,68.406,0,0,0-11.617-1.671V24.75h.889A12.384,12.384,0,0,0,68.167,8.62a1.494,1.494,0,1,0-2.848.906,9.4,9.4,0,0,1-8.947,12.236H45.628a9.387,9.387,0,1,1,0-18.774H56.372a9.285,9.285,0,0,1,5.843,2.04A1.494,1.494,0,1,0,64.077,2.69,12.414,12.414,0,0,0,56.372,0H45.628a12.375,12.375,0,1,0,0,24.75h.889v7.358c-2.363.141-4.687.393-6.935.75C35.959,19.085,29.613,10.9,22.511,10.9c-4.086,0-7.986,2.728-11.277,7.89C8.243,23.48,5.866,29.965,4.363,37.542a1.494,1.494,0,1,0,2.931.582,71.374,71.374,0,0,1,1.794-7.155,5.013,5.013,0,0,0,2.346.538,5.314,5.314,0,0,0,3.732-1.514,2.417,2.417,0,0,1,3.616,0,5.355,5.355,0,0,0,7.462,0,2.417,2.417,0,0,1,3.616,0,5.314,5.314,0,0,0,3.732,1.514,5.011,5.011,0,0,0,2.343-.538q.365,1.181.7,2.426a52.663,52.663,0,0,0-8.762,2.569C21.492,38.5,17.053,42.057,15.3,46.026A9.019,9.019,0,0,0,12.909,47.6a4.312,4.312,0,0,1-6.328,0c-.182-.153-.372-.313-.575-.473.088-.964.191-1.929.308-2.878a1.494,1.494,0,0,0-2.966-.366c-.074.6-.142,1.2-.2,1.808a6.949,6.949,0,0,0-.837-.135A2.1,2.1,0,0,0,0,47.652V51A50.986,50.986,0,0,0,87.871,86.235a1.494,1.494,0,0,0-2.16-2.065A48.012,48.012,0,0,1,2.988,51V48.764a6.1,6.1,0,0,1,1.67,1.129,7.252,7.252,0,0,0,10.173,0,4.312,4.312,0,0,1,6.329,0,7.252,7.252,0,0,0,10.173,0,4.313,4.313,0,0,1,6.329,0,7.252,7.252,0,0,0,10.173,0,4.312,4.312,0,0,1,6.328,0,7.252,7.252,0,0,0,10.173,0,4.313,4.313,0,0,1,6.329,0,7.252,7.252,0,0,0,10.173,0,4.314,4.314,0,0,1,6.33,0,7.254,7.254,0,0,0,10.174,0,6.1,6.1,0,0,1,1.671-1.129V51a47.642,47.642,0,0,1-9.248,28.334A1.494,1.494,0,1,0,92.175,81.1,50.609,50.609,0,0,0,102,51V47.652a2.107,2.107,0,0,0-.693-1.56ZM33.591,28.519a2.419,2.419,0,0,1-1.81-.813,5.354,5.354,0,0,0-7.46,0,2.418,2.418,0,0,1-3.618,0,5.354,5.354,0,0,0-7.461,0,2.419,2.419,0,0,1-1.81.813,2.017,2.017,0,0,1-1.366-.454c3.223-8.764,7.8-14.179,12.445-14.179,4.59,0,9.2,5.39,12.442,14.182a2.015,2.015,0,0,1-1.362.452Zm38.231,2.465a6.431,6.431,0,0,1,4.571-1.89H76.4A6.474,6.474,0,0,1,81.291,39.8a32.736,32.736,0,0,0-7.162-3.839c-1.31-.52-2.69-.993-4.13-1.417a6.425,6.425,0,0,1,1.823-3.564ZM49.506,24.751h2.988v7.238q-.746-.015-1.494-.015t-1.494.015ZM78.915,47.6a4.313,4.313,0,0,1-6.329,0,7.253,7.253,0,0,0-10.173,0,4.313,4.313,0,0,1-6.329,0,7.252,7.252,0,0,0-10.173,0,4.312,4.312,0,0,1-6.328,0,7.252,7.252,0,0,0-10.173,0,4.313,4.313,0,0,1-6.329,0,7.4,7.4,0,0,0-4.1-2.024C23.372,39.407,36.422,34.963,51,34.963S78.628,39.406,83.019,45.58a7.4,7.4,0,0,0-4.1,2.024Z" transform="translate(0 0)"/>
    <path id="Trazado_653082" data-name="Trazado 653082" d="M89.029,302.861a5.763,5.763,0,0,0,8.045,0,2.825,2.825,0,0,1,4.2,0,5.763,5.763,0,0,0,8.045,0,2.825,2.825,0,0,1,4.2,0,5.735,5.735,0,0,0,4.022,1.636,1.494,1.494,0,1,0,0-2.988,2.827,2.827,0,0,1-2.1-.936,5.762,5.762,0,0,0-8.045,0,2.825,2.825,0,0,1-4.2,0,5.763,5.763,0,0,0-8.045,0,2.825,2.825,0,0,1-4.2,0,5.763,5.763,0,0,0-8.045,0,2.826,2.826,0,0,1-2.1.936,1.494,1.494,0,0,0,0,2.988,5.736,5.736,0,0,0,4.022-1.636,2.825,2.825,0,0,1,4.2,0Z" transform="translate(-63.512 -239.383)"/>
    <path id="Trazado_653083" data-name="Trazado 653083" d="M153.386,355.608a1.494,1.494,0,0,0-1.494-1.494,2.827,2.827,0,0,1-2.1-.936,5.763,5.763,0,0,0-8.045,0,2.825,2.825,0,0,1-4.2,0,5.763,5.763,0,0,0-8.045,0,2.825,2.825,0,0,1-4.2,0,5.763,5.763,0,0,0-8.045,0,2.826,2.826,0,0,1-2.1.936,1.494,1.494,0,0,0,0,2.988,5.736,5.736,0,0,0,4.022-1.636,2.825,2.825,0,0,1,4.2,0,5.763,5.763,0,0,0,8.045,0,2.825,2.825,0,0,1,4.2,0,5.762,5.762,0,0,0,8.045,0,2.825,2.825,0,0,1,4.2,0,5.736,5.736,0,0,0,4.023,1.636A1.494,1.494,0,0,0,153.386,355.608Z" transform="translate(-91.017 -281.508)"/>
    <path id="Trazado_653084" data-name="Trazado 653084" d="M195.9,409.284a5.763,5.763,0,0,0-8.045,0,2.826,2.826,0,0,1-4.2,0,5.763,5.763,0,0,0-8.045,0,2.826,2.826,0,0,1-2.1.936,1.494,1.494,0,0,0,0,2.988,5.735,5.735,0,0,0,4.022-1.636,2.825,2.825,0,0,1,4.2,0,5.763,5.763,0,0,0,8.045,0,2.825,2.825,0,0,1,4.2,0A5.736,5.736,0,0,0,198,413.208a1.494,1.494,0,0,0,0-2.988A2.825,2.825,0,0,1,195.9,409.284Z" transform="translate(-137.748 -326.437)"/>
    <path id="Trazado_653085" data-name="Trazado 653085" d="M347.166,317.9a6.234,6.234,0,0,0-.891-.694,8.438,8.438,0,0,0-4.476-1.285c-3.378,0-5.831,2.129-5.831,5.063s2.452,5.063,5.831,5.063a8.44,8.44,0,0,0,4.476-1.285,6.258,6.258,0,0,0,.891-.694,6.532,6.532,0,0,0,4.186,1.4c1.911,0,3.245-1.843,3.245-4.482s-1.334-4.482-3.245-4.482A6.532,6.532,0,0,0,347.166,317.9Zm-5.367,5.159c-1.7,0-2.842-.834-2.842-2.075s1.142-2.075,2.842-2.075c2.187,0,3.833,1.259,3.833,2.075S343.987,323.063,341.8,323.063Zm9.462-.582c-1.495-.031-2.642-.816-2.642-1.493s1.147-1.462,2.642-1.493a3.387,3.387,0,0,1,0,2.986Z" transform="translate(-269.038 -252.987)"/>
  </g>
</svg>
